<?xml version="1.0" encoding="UTF-8" standalone="no"?>
<!DOCTYPE svg PUBLIC "-//W3C//DTD SVG 1.1//EN"
 "http://www.w3.org/Graphics/SVG/1.1/DTD/svg11.dtd">
<!-- Generated by graphviz version 2.28.0 (20111211.2114)
 -->
<!-- Title: G Pages: 1 -->
<svg width="112pt" height="151pt"
 viewBox="0.00 0.00 112.00 151.00" xmlns="http://www.w3.org/2000/svg" xmlns:xlink="http://www.w3.org/1999/xlink">
<g id="graph1" class="graph" transform="scale(1 1) rotate(0) translate(4 147)">
<title>G</title>
<g id="graph2" class="cluster"><title>clusterdir_b12b24d1b838feef0c287fb6b28786e4</title>
<a xlink:href="dir_b12b24d1b838feef0c287fb6b28786e4.html" target="_top" xlink:title="types">
<polygon fill="#ddddee" stroke="black" points="8,-64 8,-135 96,-135 96,-64 8,-64"/>
<text text-anchor="middle" x="52" y="-123" font-family="Helvetica,sans-Serif" font-size="10.00">types</text>
</a>
</g>
<!-- dir_afc47494c6b779dc55628e7b4832fd8a -->
<g id="node2" class="node"><title>dir_afc47494c6b779dc55628e7b4832fd8a</title>
<a xlink:href="dir_afc47494c6b779dc55628e7b4832fd8a.html" target="_top" xlink:title="rlm_eap_sim">
<polygon fill="#eeeeff" stroke="black" points="88,-108 16,-108 16,-72 88,-72 88,-108"/>
<text text-anchor="middle" x="52" y="-87.5" font-family="Helvetica,sans-Serif" font-size="10.00">rlm_eap_sim</text>
</a>
</g>
<!-- dir_56be1dccc40da5563400e84077f9d56d -->
<g id="node3" class="node"><title>dir_56be1dccc40da5563400e84077f9d56d</title>
<a xlink:href="dir_56be1dccc40da5563400e84077f9d56d.html" target="_top" xlink:title="libeap">
<polygon fill="none" stroke="black" points="79,-36 25,-36 25,-0 79,-0 79,-36"/>
<text text-anchor="middle" x="52" y="-15.5" font-family="Helvetica,sans-Serif" font-size="10.00">libeap</text>
</a>
</g>
<!-- dir_afc47494c6b779dc55628e7b4832fd8a&#45;&gt;dir_56be1dccc40da5563400e84077f9d56d -->
<g id="edge3" class="edge"><title>dir_afc47494c6b779dc55628e7b4832fd8a&#45;&gt;dir_56be1dccc40da5563400e84077f9d56d</title>
<path fill="none" stroke="black" d="M52,-71.6966C52,-63.9827 52,-54.7125 52,-46.1124"/>
<polygon fill="black" stroke="black" points="55.5001,-46.1043 52,-36.1043 48.5001,-46.1044 55.5001,-46.1043"/>
<a xlink:href="dir_000043_000034.html" target="_top" xlink:title="2">
<text text-anchor="middle" x="58.3393" y="-47.199" font-family="Helvetica,sans-Serif" font-size="10.00">2</text>
</a>
</g>
</g>
</svg>
