<?xml version="1.0" encoding="UTF-8" standalone="no"?>
<!DOCTYPE svg PUBLIC "-//W3C//DTD SVG 1.1//EN"
 "http://www.w3.org/Graphics/SVG/1.1/DTD/svg11.dtd">
<!-- Generated by graphviz version 2.28.0 (20111211.2114)
 -->
<!-- Title: G Pages: 1 -->
<svg width="310pt" height="148pt"
 viewBox="0.00 0.00 310.00 148.00" xmlns="http://www.w3.org/2000/svg" xmlns:xlink="http://www.w3.org/1999/xlink">
<g id="graph1" class="graph" transform="scale(1 1) rotate(0) translate(4 144)">
<title>G</title>
<g id="graph2" class="cluster"><title>clusterdir_6054e169f0f58ec6883eae51771d7f33</title>
<a xlink:href="dir_6054e169f0f58ec6883eae51771d7f33.html" target="_top">
<polygon fill="#eeeeff" stroke="black" points="8,-8 8,-132 294,-132 294,-8 8,-8"/>
</a>
</g>
<!-- dir_6054e169f0f58ec6883eae51771d7f33 -->
<g id="node2" class="node"><title>dir_6054e169f0f58ec6883eae51771d7f33</title>
<text text-anchor="middle" x="259" y="-103.5" font-family="Helvetica,sans-Serif" font-size="10.00">src</text>
</g>
<!-- dir_05fcd717afeefec9e0cfface9e7de213 -->
<g id="node3" class="node"><title>dir_05fcd717afeefec9e0cfface9e7de213</title>
<a xlink:href="dir_05fcd717afeefec9e0cfface9e7de213.html" target="_top" xlink:title="include">
<polygon fill="white" stroke="black" points="214,-124 160,-124 160,-88 214,-88 214,-124"/>
<text text-anchor="middle" x="187" y="-103.5" font-family="Helvetica,sans-Serif" font-size="10.00">include</text>
</a>
</g>
<!-- dir_67f8f8bcc59b849a8dc07274ef7500d5 -->
<g id="node4" class="node"><title>dir_67f8f8bcc59b849a8dc07274ef7500d5</title>
<a xlink:href="dir_67f8f8bcc59b849a8dc07274ef7500d5.html" target="_top" xlink:title="lib">
<polygon fill="white" stroke="black" points="142,-124 88,-124 88,-88 142,-88 142,-124"/>
<text text-anchor="middle" x="115" y="-103.5" font-family="Helvetica,sans-Serif" font-size="10.00">lib</text>
</a>
</g>
<!-- dir_432fea047de5a4e792f75dec0fe3e05f -->
<g id="node5" class="node"><title>dir_432fea047de5a4e792f75dec0fe3e05f</title>
<a xlink:href="dir_432fea047de5a4e792f75dec0fe3e05f.html" target="_top" xlink:title="main">
<polygon fill="white" stroke="black" points="70,-124 16,-124 16,-88 70,-88 70,-124"/>
<text text-anchor="middle" x="43" y="-103.5" font-family="Helvetica,sans-Serif" font-size="10.00">main</text>
</a>
</g>
<!-- dir_4cc3e6fe4b61867fd806af76a262971e -->
<g id="node6" class="node"><title>dir_4cc3e6fe4b61867fd806af76a262971e</title>
<a xlink:href="dir_4cc3e6fe4b61867fd806af76a262971e.html" target="_top" xlink:title="modules">
<polygon fill="white" stroke="red" points="70,-52 16,-52 16,-16 70,-16 70,-52"/>
<text text-anchor="middle" x="43" y="-31.5" font-family="Helvetica,sans-Serif" font-size="10.00">modules</text>
</a>
</g>
<!-- dir_432fea047de5a4e792f75dec0fe3e05f&#45;&gt;dir_4cc3e6fe4b61867fd806af76a262971e -->
<g id="edge3" class="edge"><title>dir_432fea047de5a4e792f75dec0fe3e05f&#45;&gt;dir_4cc3e6fe4b61867fd806af76a262971e</title>
<path fill="none" stroke="black" d="M43,-87.6966C43,-79.9827 43,-70.7125 43,-62.1124"/>
<polygon fill="black" stroke="black" points="46.5001,-62.1043 43,-52.1043 39.5001,-62.1044 46.5001,-62.1043"/>
<a xlink:href="dir_000006_000003.html" target="_top" xlink:title="2">
<text text-anchor="middle" x="49.3393" y="-63.199" font-family="Helvetica,sans-Serif" font-size="10.00">2</text>
</a>
</g>
</g>
</svg>
