<?xml version="1.0" encoding="UTF-8" standalone="no"?>
<!DOCTYPE svg PUBLIC "-//W3C//DTD SVG 1.1//EN"
 "http://www.w3.org/Graphics/SVG/1.1/DTD/svg11.dtd">
<!-- Generated by graphviz version 2.28.0 (20111211.2114)
 -->
<!-- Title: G Pages: 1 -->
<svg width="132pt" height="151pt"
 viewBox="0.00 0.00 132.00 151.00" xmlns="http://www.w3.org/2000/svg" xmlns:xlink="http://www.w3.org/1999/xlink">
<g id="graph1" class="graph" transform="scale(1 1) rotate(0) translate(4 147)">
<title>G</title>
<g id="graph2" class="cluster"><title>clusterdir_4cc3e6fe4b61867fd806af76a262971e</title>
<a xlink:href="dir_4cc3e6fe4b61867fd806af76a262971e.html" target="_top" xlink:title="modules">
<polygon fill="#ddddee" stroke="black" points="8,-64 8,-135 116,-135 116,-64 8,-64"/>
<text text-anchor="middle" x="62" y="-123" font-family="Helvetica,sans-Serif" font-size="10.00">modules</text>
</a>
</g>
<!-- dir_8929a047229525eafbc0d5b030ecd2b1 -->
<g id="node2" class="node"><title>dir_8929a047229525eafbc0d5b030ecd2b1</title>
<a xlink:href="dir_8929a047229525eafbc0d5b030ecd2b1.html" target="_top" xlink:title="rlm_sqlhpwippool">
<polygon fill="#eeeeff" stroke="black" points="108,-108 16,-108 16,-72 108,-72 108,-108"/>
<text text-anchor="middle" x="62" y="-87.5" font-family="Helvetica,sans-Serif" font-size="10.00">rlm_sqlhpwippool</text>
</a>
</g>
<!-- dir_23936b05918adc2ed874449d1bfcb36c -->
<g id="node3" class="node"><title>dir_23936b05918adc2ed874449d1bfcb36c</title>
<a xlink:href="dir_23936b05918adc2ed874449d1bfcb36c.html" target="_top" xlink:title="rlm_sql">
<polygon fill="none" stroke="red" points="89,-36 35,-36 35,-0 89,-0 89,-36"/>
<text text-anchor="middle" x="62" y="-15.5" font-family="Helvetica,sans-Serif" font-size="10.00">rlm_sql</text>
</a>
</g>
<!-- dir_8929a047229525eafbc0d5b030ecd2b1&#45;&gt;dir_23936b05918adc2ed874449d1bfcb36c -->
<g id="edge3" class="edge"><title>dir_8929a047229525eafbc0d5b030ecd2b1&#45;&gt;dir_23936b05918adc2ed874449d1bfcb36c</title>
<path fill="none" stroke="black" d="M62,-71.6966C62,-63.9827 62,-54.7125 62,-46.1124"/>
<polygon fill="black" stroke="black" points="65.5001,-46.1043 62,-36.1043 58.5001,-46.1044 65.5001,-46.1043"/>
<a xlink:href="dir_000085_000004.html" target="_top" xlink:title="1">
<text text-anchor="middle" x="68.3393" y="-47.199" font-family="Helvetica,sans-Serif" font-size="10.00">1</text>
</a>
</g>
</g>
</svg>
