<?xml version="1.0" encoding="UTF-8" standalone="no"?>
<!DOCTYPE svg PUBLIC "-//W3C//DTD SVG 1.1//EN"
 "http://www.w3.org/Graphics/SVG/1.1/DTD/svg11.dtd">
<!-- Generated by graphviz version 2.28.0 (20111211.2114)
 -->
<!-- Title: G Pages: 1 -->
<svg width="118pt" height="151pt"
 viewBox="0.00 0.00 118.00 151.00" xmlns="http://www.w3.org/2000/svg" xmlns:xlink="http://www.w3.org/1999/xlink">
<g id="graph1" class="graph" transform="scale(1 1) rotate(0) translate(4 147)">
<title>G</title>
<g id="graph2" class="cluster"><title>clusterdir_b12b24d1b838feef0c287fb6b28786e4</title>
<a xlink:href="dir_b12b24d1b838feef0c287fb6b28786e4.html" target="_top" xlink:title="types">
<polygon fill="#ddddee" stroke="black" points="8,-64 8,-135 102,-135 102,-64 8,-64"/>
<text text-anchor="middle" x="55" y="-123" font-family="Helvetica,sans-Serif" font-size="10.00">types</text>
</a>
</g>
<!-- dir_911c9315e3ddfbab49b410321ef0771e -->
<g id="node2" class="node"><title>dir_911c9315e3ddfbab49b410321ef0771e</title>
<a xlink:href="dir_911c9315e3ddfbab49b410321ef0771e.html" target="_top" xlink:title="rlm_eap_peap">
<polygon fill="#eeeeff" stroke="black" points="93.25,-108 16.75,-108 16.75,-72 93.25,-72 93.25,-108"/>
<text text-anchor="middle" x="55" y="-87.5" font-family="Helvetica,sans-Serif" font-size="10.00">rlm_eap_peap</text>
</a>
</g>
<!-- dir_56be1dccc40da5563400e84077f9d56d -->
<g id="node3" class="node"><title>dir_56be1dccc40da5563400e84077f9d56d</title>
<a xlink:href="dir_56be1dccc40da5563400e84077f9d56d.html" target="_top" xlink:title="libeap">
<polygon fill="none" stroke="black" points="82,-36 28,-36 28,-0 82,-0 82,-36"/>
<text text-anchor="middle" x="55" y="-15.5" font-family="Helvetica,sans-Serif" font-size="10.00">libeap</text>
</a>
</g>
<!-- dir_911c9315e3ddfbab49b410321ef0771e&#45;&gt;dir_56be1dccc40da5563400e84077f9d56d -->
<g id="edge3" class="edge"><title>dir_911c9315e3ddfbab49b410321ef0771e&#45;&gt;dir_56be1dccc40da5563400e84077f9d56d</title>
<path fill="none" stroke="black" d="M55,-71.6966C55,-63.9827 55,-54.7125 55,-46.1124"/>
<polygon fill="black" stroke="black" points="58.5001,-46.1043 55,-36.1043 51.5001,-46.1044 58.5001,-46.1043"/>
<a xlink:href="dir_000019_000034.html" target="_top" xlink:title="1">
<text text-anchor="middle" x="61.3393" y="-47.199" font-family="Helvetica,sans-Serif" font-size="10.00">1</text>
</a>
</g>
</g>
</svg>
