<?xml version="1.0" encoding="UTF-8" standalone="no"?>
<!DOCTYPE svg PUBLIC "-//W3C//DTD SVG 1.1//EN"
 "http://www.w3.org/Graphics/SVG/1.1/DTD/svg11.dtd">
<!-- Generated by graphviz version 2.28.0 (20111211.2114)
 -->
<!-- Title: G Pages: 1 -->
<svg width="110pt" height="151pt"
 viewBox="0.00 0.00 110.00 151.00" xmlns="http://www.w3.org/2000/svg" xmlns:xlink="http://www.w3.org/1999/xlink">
<g id="graph1" class="graph" transform="scale(1 1) rotate(0) translate(4 147)">
<title>G</title>
<g id="graph2" class="cluster"><title>clusterdir_b12b24d1b838feef0c287fb6b28786e4</title>
<a xlink:href="dir_b12b24d1b838feef0c287fb6b28786e4.html" target="_top" xlink:title="types">
<polygon fill="#ddddee" stroke="black" points="8,-64 8,-135 94,-135 94,-64 8,-64"/>
<text text-anchor="middle" x="51" y="-123" font-family="Helvetica,sans-Serif" font-size="10.00">types</text>
</a>
</g>
<!-- dir_647c4ea9ea5e175b652e7dda9abf7712 -->
<g id="node2" class="node"><title>dir_647c4ea9ea5e175b652e7dda9abf7712</title>
<a xlink:href="dir_647c4ea9ea5e175b652e7dda9abf7712.html" target="_top" xlink:title="rlm_eap_ttls">
<polygon fill="#eeeeff" stroke="black" points="86,-108 16,-108 16,-72 86,-72 86,-108"/>
<text text-anchor="middle" x="51" y="-87.5" font-family="Helvetica,sans-Serif" font-size="10.00">rlm_eap_ttls</text>
</a>
</g>
<!-- dir_56be1dccc40da5563400e84077f9d56d -->
<g id="node3" class="node"><title>dir_56be1dccc40da5563400e84077f9d56d</title>
<a xlink:href="dir_56be1dccc40da5563400e84077f9d56d.html" target="_top" xlink:title="libeap">
<polygon fill="none" stroke="black" points="78,-36 24,-36 24,-0 78,-0 78,-36"/>
<text text-anchor="middle" x="51" y="-15.5" font-family="Helvetica,sans-Serif" font-size="10.00">libeap</text>
</a>
</g>
<!-- dir_647c4ea9ea5e175b652e7dda9abf7712&#45;&gt;dir_56be1dccc40da5563400e84077f9d56d -->
<g id="edge3" class="edge"><title>dir_647c4ea9ea5e175b652e7dda9abf7712&#45;&gt;dir_56be1dccc40da5563400e84077f9d56d</title>
<path fill="none" stroke="black" d="M51,-71.6966C51,-63.9827 51,-54.7125 51,-46.1124"/>
<polygon fill="black" stroke="black" points="54.5001,-46.1043 51,-36.1043 47.5001,-46.1044 54.5001,-46.1043"/>
<a xlink:href="dir_000021_000034.html" target="_top" xlink:title="1">
<text text-anchor="middle" x="57.3393" y="-47.199" font-family="Helvetica,sans-Serif" font-size="10.00">1</text>
</a>
</g>
</g>
</svg>
