<?xml version="1.0" encoding="UTF-8" standalone="no"?>
<!DOCTYPE svg PUBLIC "-//W3C//DTD SVG 1.1//EN"
 "http://www.w3.org/Graphics/SVG/1.1/DTD/svg11.dtd">
<!-- Generated by graphviz version 2.28.0 (20111211.2114)
 -->
<!-- Title: G Pages: 1 -->
<svg width="94pt" height="151pt"
 viewBox="0.00 0.00 94.00 151.00" xmlns="http://www.w3.org/2000/svg" xmlns:xlink="http://www.w3.org/1999/xlink">
<g id="graph1" class="graph" transform="scale(1 1) rotate(0) translate(4 147)">
<title>G</title>
<g id="graph2" class="cluster"><title>clusterdir_6054e169f0f58ec6883eae51771d7f33</title>
<a xlink:href="dir_6054e169f0f58ec6883eae51771d7f33.html" target="_top" xlink:title="src">
<polygon fill="#ddddee" stroke="black" points="8,-64 8,-135 78,-135 78,-64 8,-64"/>
<text text-anchor="middle" x="43" y="-123" font-family="Helvetica,sans-Serif" font-size="10.00">src</text>
</a>
</g>
<!-- dir_432fea047de5a4e792f75dec0fe3e05f -->
<g id="node2" class="node"><title>dir_432fea047de5a4e792f75dec0fe3e05f</title>
<a xlink:href="dir_432fea047de5a4e792f75dec0fe3e05f.html" target="_top" xlink:title="main">
<polygon fill="#eeeeff" stroke="black" points="70,-108 16,-108 16,-72 70,-72 70,-108"/>
<text text-anchor="middle" x="43" y="-87.5" font-family="Helvetica,sans-Serif" font-size="10.00">main</text>
</a>
</g>
<!-- dir_4cc3e6fe4b61867fd806af76a262971e -->
<g id="node3" class="node"><title>dir_4cc3e6fe4b61867fd806af76a262971e</title>
<a xlink:href="dir_4cc3e6fe4b61867fd806af76a262971e.html" target="_top" xlink:title="modules">
<polygon fill="none" stroke="red" points="70,-36 16,-36 16,-0 70,-0 70,-36"/>
<text text-anchor="middle" x="43" y="-15.5" font-family="Helvetica,sans-Serif" font-size="10.00">modules</text>
</a>
</g>
<!-- dir_432fea047de5a4e792f75dec0fe3e05f&#45;&gt;dir_4cc3e6fe4b61867fd806af76a262971e -->
<g id="edge3" class="edge"><title>dir_432fea047de5a4e792f75dec0fe3e05f&#45;&gt;dir_4cc3e6fe4b61867fd806af76a262971e</title>
<path fill="none" stroke="black" d="M43,-71.6966C43,-63.9827 43,-54.7125 43,-46.1124"/>
<polygon fill="black" stroke="black" points="46.5001,-46.1043 43,-36.1043 39.5001,-46.1044 46.5001,-46.1043"/>
<a xlink:href="dir_000006_000003.html" target="_top" xlink:title="2">
<text text-anchor="middle" x="49.3393" y="-47.199" font-family="Helvetica,sans-Serif" font-size="10.00">2</text>
</a>
</g>
</g>
</svg>
