<?xml version="1.0" encoding="UTF-8" standalone="no"?>
<!DOCTYPE svg PUBLIC "-//W3C//DTD SVG 1.1//EN"
 "http://www.w3.org/Graphics/SVG/1.1/DTD/svg11.dtd">
<!-- Generated by graphviz version 2.28.0 (20111211.2114)
 -->
<!-- Title: G Pages: 1 -->
<svg width="182pt" height="183pt"
 viewBox="0.00 0.00 182.00 183.00" xmlns="http://www.w3.org/2000/svg" xmlns:xlink="http://www.w3.org/1999/xlink">
<g id="graph1" class="graph" transform="scale(1 1) rotate(0) translate(4 179)">
<title>G</title>
<g id="graph2" class="cluster"><title>clusterdir_4cc3e6fe4b61867fd806af76a262971e</title>
<a xlink:href="dir_4cc3e6fe4b61867fd806af76a262971e.html" target="_top" xlink:title="modules">
<polygon fill="#ddddee" stroke="black" points="8,-8 8,-167 166,-167 166,-8 8,-8"/>
<text text-anchor="middle" x="87" y="-155" font-family="Helvetica,sans-Serif" font-size="10.00">modules</text>
</a>
</g>
<g id="graph3" class="cluster"><title>clusterdir_ac106cb656f4e9808eddb6043e3221de</title>
<a xlink:href="dir_ac106cb656f4e9808eddb6043e3221de.html" target="_top">
<polygon fill="#eeeeff" stroke="black" points="16,-16 16,-140 158,-140 158,-16 16,-16"/>
</a>
</g>
<!-- dir_ac106cb656f4e9808eddb6043e3221de -->
<g id="node3" class="node"><title>dir_ac106cb656f4e9808eddb6043e3221de</title>
<text text-anchor="middle" x="123" y="-111.5" font-family="Helvetica,sans-Serif" font-size="10.00">rlm_eap</text>
</g>
<!-- dir_56be1dccc40da5563400e84077f9d56d -->
<g id="node4" class="node"><title>dir_56be1dccc40da5563400e84077f9d56d</title>
<a xlink:href="dir_56be1dccc40da5563400e84077f9d56d.html" target="_top" xlink:title="libeap">
<polygon fill="white" stroke="black" points="114,-60 60,-60 60,-24 114,-24 114,-60"/>
<text text-anchor="middle" x="87" y="-39.5" font-family="Helvetica,sans-Serif" font-size="10.00">libeap</text>
</a>
</g>
<!-- dir_ac106cb656f4e9808eddb6043e3221de&#45;&gt;dir_56be1dccc40da5563400e84077f9d56d -->
<g id="edge4" class="edge"><title>dir_ac106cb656f4e9808eddb6043e3221de&#45;&gt;dir_56be1dccc40da5563400e84077f9d56d</title>
<path fill="none" stroke="black" d="M114.101,-95.6966C110.003,-87.7284 105.051,-78.0995 100.507,-69.2641"/>
<polygon fill="black" stroke="black" points="103.483,-67.3965 95.7965,-60.1043 97.2575,-70.598 103.483,-67.3965"/>
<a xlink:href="dir_000017_000034.html" target="_top" xlink:title="9">
<text text-anchor="middle" x="107.651" y="-66.7946" font-family="Helvetica,sans-Serif" font-size="10.00">9</text>
</a>
</g>
<!-- dir_b12b24d1b838feef0c287fb6b28786e4 -->
<g id="node5" class="node"><title>dir_b12b24d1b838feef0c287fb6b28786e4</title>
<a xlink:href="dir_b12b24d1b838feef0c287fb6b28786e4.html" target="_top" xlink:title="types">
<polygon fill="white" stroke="red" points="78,-132 24,-132 24,-96 78,-96 78,-132"/>
<text text-anchor="middle" x="51" y="-111.5" font-family="Helvetica,sans-Serif" font-size="10.00">types</text>
</a>
</g>
<!-- dir_b12b24d1b838feef0c287fb6b28786e4&#45;&gt;dir_56be1dccc40da5563400e84077f9d56d -->
<g id="edge6" class="edge"><title>dir_b12b24d1b838feef0c287fb6b28786e4&#45;&gt;dir_56be1dccc40da5563400e84077f9d56d</title>
<path fill="none" stroke="black" d="M59.8989,-95.6966C63.9968,-87.7284 68.9488,-78.0995 73.4927,-69.2641"/>
<polygon fill="black" stroke="black" points="76.7425,-70.598 78.2035,-60.1043 70.5174,-67.3965 76.7425,-70.598"/>
<a xlink:href="dir_000018_000034.html" target="_top" xlink:title="5">
<text text-anchor="middle" x="77.6235" y="-72.5931" font-family="Helvetica,sans-Serif" font-size="10.00">5</text>
</a>
</g>
</g>
</svg>
