<?xml version="1.0" encoding="UTF-8" standalone="no"?>
<!DOCTYPE svg PUBLIC "-//W3C//DTD SVG 1.1//EN"
 "http://www.w3.org/Graphics/SVG/1.1/DTD/svg11.dtd">
<!-- Generated by graphviz version 2.28.0 (20111211.2114)
 -->
<!-- Title: G Pages: 1 -->
<svg width="108pt" height="151pt"
 viewBox="0.00 0.00 108.00 151.00" xmlns="http://www.w3.org/2000/svg" xmlns:xlink="http://www.w3.org/1999/xlink">
<g id="graph1" class="graph" transform="scale(1 1) rotate(0) translate(4 147)">
<title>G</title>
<g id="graph2" class="cluster"><title>clusterdir_b12b24d1b838feef0c287fb6b28786e4</title>
<a xlink:href="dir_b12b24d1b838feef0c287fb6b28786e4.html" target="_top" xlink:title="types">
<polygon fill="#ddddee" stroke="black" points="8,-64 8,-135 92,-135 92,-64 8,-64"/>
<text text-anchor="middle" x="50" y="-123" font-family="Helvetica,sans-Serif" font-size="10.00">types</text>
</a>
</g>
<!-- dir_093c641929eafae0c1b302ccdbb5bfc5 -->
<g id="node2" class="node"><title>dir_093c641929eafae0c1b302ccdbb5bfc5</title>
<a xlink:href="dir_093c641929eafae0c1b302ccdbb5bfc5.html" target="_top" xlink:title="rlm_eap_tls">
<polygon fill="#eeeeff" stroke="black" points="83.25,-108 16.75,-108 16.75,-72 83.25,-72 83.25,-108"/>
<text text-anchor="middle" x="50" y="-87.5" font-family="Helvetica,sans-Serif" font-size="10.00">rlm_eap_tls</text>
</a>
</g>
<!-- dir_56be1dccc40da5563400e84077f9d56d -->
<g id="node3" class="node"><title>dir_56be1dccc40da5563400e84077f9d56d</title>
<a xlink:href="dir_56be1dccc40da5563400e84077f9d56d.html" target="_top" xlink:title="libeap">
<polygon fill="none" stroke="black" points="77,-36 23,-36 23,-0 77,-0 77,-36"/>
<text text-anchor="middle" x="50" y="-15.5" font-family="Helvetica,sans-Serif" font-size="10.00">libeap</text>
</a>
</g>
<!-- dir_093c641929eafae0c1b302ccdbb5bfc5&#45;&gt;dir_56be1dccc40da5563400e84077f9d56d -->
<g id="edge3" class="edge"><title>dir_093c641929eafae0c1b302ccdbb5bfc5&#45;&gt;dir_56be1dccc40da5563400e84077f9d56d</title>
<path fill="none" stroke="black" d="M50,-71.6966C50,-63.9827 50,-54.7125 50,-46.1124"/>
<polygon fill="black" stroke="black" points="53.5001,-46.1043 50,-36.1043 46.5001,-46.1044 53.5001,-46.1043"/>
<a xlink:href="dir_000020_000034.html" target="_top" xlink:title="1">
<text text-anchor="middle" x="56.3393" y="-47.199" font-family="Helvetica,sans-Serif" font-size="10.00">1</text>
</a>
</g>
</g>
</svg>
