<?xml version="1.0" encoding="UTF-8" standalone="no"?>
<!DOCTYPE svg PUBLIC "-//W3C//DTD SVG 1.1//EN"
 "http://www.w3.org/Graphics/SVG/1.1/DTD/svg11.dtd">
<!-- Generated by graphviz version 2.28.0 (20111211.2114)
 -->
<!-- Title: G Pages: 1 -->
<svg width="114pt" height="151pt"
 viewBox="0.00 0.00 114.00 151.00" xmlns="http://www.w3.org/2000/svg" xmlns:xlink="http://www.w3.org/1999/xlink">
<g id="graph1" class="graph" transform="scale(1 1) rotate(0) translate(4 147)">
<title>G</title>
<g id="graph2" class="cluster"><title>clusterdir_4cc3e6fe4b61867fd806af76a262971e</title>
<a xlink:href="dir_4cc3e6fe4b61867fd806af76a262971e.html" target="_top" xlink:title="modules">
<polygon fill="#ddddee" stroke="black" points="8,-64 8,-135 98,-135 98,-64 8,-64"/>
<text text-anchor="middle" x="53" y="-123" font-family="Helvetica,sans-Serif" font-size="10.00">modules</text>
</a>
</g>
<!-- dir_b0240bb7d59da15026e1dff202d1070f -->
<g id="node2" class="node"><title>dir_b0240bb7d59da15026e1dff202d1070f</title>
<a xlink:href="dir_b0240bb7d59da15026e1dff202d1070f.html" target="_top" xlink:title="rlm_rediswho">
<polygon fill="#eeeeff" stroke="black" points="90,-108 16,-108 16,-72 90,-72 90,-108"/>
<text text-anchor="middle" x="53" y="-87.5" font-family="Helvetica,sans-Serif" font-size="10.00">rlm_rediswho</text>
</a>
</g>
<!-- dir_4f4735bf2bad4da27dc32a6342f195b7 -->
<g id="node3" class="node"><title>dir_4f4735bf2bad4da27dc32a6342f195b7</title>
<a xlink:href="dir_4f4735bf2bad4da27dc32a6342f195b7.html" target="_top" xlink:title="rlm_redis">
<polygon fill="none" stroke="black" points="80.5,-36 25.5,-36 25.5,-0 80.5,-0 80.5,-36"/>
<text text-anchor="middle" x="53" y="-15.5" font-family="Helvetica,sans-Serif" font-size="10.00">rlm_redis</text>
</a>
</g>
<!-- dir_b0240bb7d59da15026e1dff202d1070f&#45;&gt;dir_4f4735bf2bad4da27dc32a6342f195b7 -->
<g id="edge3" class="edge"><title>dir_b0240bb7d59da15026e1dff202d1070f&#45;&gt;dir_4f4735bf2bad4da27dc32a6342f195b7</title>
<path fill="none" stroke="black" d="M53,-71.6966C53,-63.9827 53,-54.7125 53,-46.1124"/>
<polygon fill="black" stroke="black" points="56.5001,-46.1043 53,-36.1043 49.5001,-46.1044 56.5001,-46.1043"/>
<a xlink:href="dir_000065_000064.html" target="_top" xlink:title="1">
<text text-anchor="middle" x="59.3393" y="-47.199" font-family="Helvetica,sans-Serif" font-size="10.00">1</text>
</a>
</g>
</g>
</svg>
