<?xml version="1.0" encoding="UTF-8" standalone="no"?>
<!DOCTYPE svg PUBLIC "-//W3C//DTD SVG 1.1//EN"
 "http://www.w3.org/Graphics/SVG/1.1/DTD/svg11.dtd">
<!-- Generated by graphviz version 2.28.0 (20111211.2114)
 -->
<!-- Title: G Pages: 1 -->
<!--zoomable-->
<svg id="main" version="1.1" xmlns="http://www.w3.org/2000/svg" xmlns:xlink="http://www.w3.org/1999/xlink" xml:space="preserve" onload="init(evt)">
        <defs>
                <circle id="rim" cx="0" cy="0" r="7"/>
                <circle id="rim2" cx="0" cy="0" r="3.5"/>
                <g id="zoomPlus">
                        <use xlink:href="#rim" fill="#404040">
                                <set attributeName="fill" to="#808080" begin="zoomplus.mouseover" end="zoomplus.mouseout"/>
                        </use>
                        <path d="M-4,0h8M0,-4v8" fill="none" stroke="white" stroke-width="1.5" pointer-events="none"/>
                </g>
                <g id="zoomMin">
                        <use xlink:href="#rim" fill="#404040">
                                <set attributeName="fill" to="#808080" begin="zoomminus.mouseover" end="zoomminus.mouseout"/>
                        </use>
                        <path d="M-4,0h8" fill="none" stroke="white" stroke-width="1.5" pointer-events="none"/>
                </g>
                <g id="dirArrow">
                        <path fill="none" stroke="white" stroke-width="1.5" d="M0,-3.0v7 M-2.5,-0.5L0,-3.0L2.5,-0.5"/>
                </g>
               <g id="resetDef">
                       <use xlink:href="#rim2" fill="#404040">
                               <set attributeName="fill" to="#808080" begin="reset.mouseover" end="reset.mouseout"/>
                       </use>
               </g>
        </defs>

<script type="text/javascript">
var viewWidth = 4812;
var viewHeight = 183;
var sectionId = 'dynsection-0';
</script>
<script xlink:href="svgpan.js"/>
<svg id="graph" class="graph">
<g id="viewport">
<title>G</title>
<g id="graph2" class="cluster"><title>clusterdir_6054e169f0f58ec6883eae51771d7f33</title>
<a xlink:href="dir_6054e169f0f58ec6883eae51771d7f33.html" target="_top" xlink:title="src">
<polygon fill="#ddddee" stroke="black" points="8,-8 8,-167 4796,-167 4796,-8 8,-8"/>
<text text-anchor="middle" x="2402" y="-155" font-family="Helvetica,sans-Serif" font-size="10.00">src</text>
</a>
</g>
<g id="graph3" class="cluster"><title>clusterdir_4cc3e6fe4b61867fd806af76a262971e</title>
<a xlink:href="dir_4cc3e6fe4b61867fd806af76a262971e.html" target="_top">
<polygon fill="#eeeeff" stroke="black" points="16,-16 16,-140 4788,-140 4788,-16 16,-16"/>
</a>
</g>
<!-- dir_4cc3e6fe4b61867fd806af76a262971e -->
<g id="node3" class="node"><title>dir_4cc3e6fe4b61867fd806af76a262971e</title>
<text text-anchor="middle" x="4753" y="-111.5" font-family="Helvetica,sans-Serif" font-size="10.00">modules</text>
</g>
<!-- dir_a53ff9ff3f623e9fe68e28608d725b80 -->
<g id="node4" class="node"><title>dir_a53ff9ff3f623e9fe68e28608d725b80</title>
<a xlink:href="dir_a53ff9ff3f623e9fe68e28608d725b80.html" target="_top" xlink:title="rlm_acctlog">
<polygon fill="white" stroke="black" points="4707.25,-132 4640.75,-132 4640.75,-96 4707.25,-96 4707.25,-132"/>
<text text-anchor="middle" x="4674" y="-111.5" font-family="Helvetica,sans-Serif" font-size="10.00">rlm_acctlog</text>
</a>
</g>
<!-- dir_5a808e3c1b975b5b1cdf99223edeede7 -->
<g id="node5" class="node"><title>dir_5a808e3c1b975b5b1cdf99223edeede7</title>
<a xlink:href="dir_5a808e3c1b975b5b1cdf99223edeede7.html" target="_top" xlink:title="rlm_always">
<polygon fill="white" stroke="black" points="4622,-132 4556,-132 4556,-96 4622,-96 4622,-132"/>
<text text-anchor="middle" x="4589" y="-111.5" font-family="Helvetica,sans-Serif" font-size="10.00">rlm_always</text>
</a>
</g>
<!-- dir_7d861d885bad577c377920ffaa451375 -->
<g id="node6" class="node"><title>dir_7d861d885bad577c377920ffaa451375</title>
<a xlink:href="dir_7d861d885bad577c377920ffaa451375.html" target="_top" xlink:title="rlm_attr_filter">
<polygon fill="white" stroke="black" points="4538,-132 4464,-132 4464,-96 4538,-96 4538,-132"/>
<text text-anchor="middle" x="4501" y="-111.5" font-family="Helvetica,sans-Serif" font-size="10.00">rlm_attr_filter</text>
</a>
</g>
<!-- dir_019dfcceffac09477c80f4d0a152926d -->
<g id="node7" class="node"><title>dir_019dfcceffac09477c80f4d0a152926d</title>
<a xlink:href="dir_019dfcceffac09477c80f4d0a152926d.html" target="_top" xlink:title="rlm_attr_rewrite">
<polygon fill="white" stroke="black" points="4445.5,-132 4362.5,-132 4362.5,-96 4445.5,-96 4445.5,-132"/>
<text text-anchor="middle" x="4404" y="-111.5" font-family="Helvetica,sans-Serif" font-size="10.00">rlm_attr_rewrite</text>
</a>
</g>
<!-- dir_ec0bd1beb7746003211bd130387ec976 -->
<g id="node8" class="node"><title>dir_ec0bd1beb7746003211bd130387ec976</title>
<a xlink:href="dir_ec0bd1beb7746003211bd130387ec976.html" target="_top" xlink:title="rlm_cache">
<polygon fill="white" stroke="black" points="4343.5,-132 4282.5,-132 4282.5,-96 4343.5,-96 4343.5,-132"/>
<text text-anchor="middle" x="4313" y="-111.5" font-family="Helvetica,sans-Serif" font-size="10.00">rlm_cache</text>
</a>
</g>
<!-- dir_5a14f22b89975ee9fb21cd3d60965d9a -->
<g id="node9" class="node"><title>dir_5a14f22b89975ee9fb21cd3d60965d9a</title>
<a xlink:href="dir_5a14f22b89975ee9fb21cd3d60965d9a.html" target="_top" xlink:title="rlm_chap">
<polygon fill="white" stroke="black" points="4263.5,-132 4208.5,-132 4208.5,-96 4263.5,-96 4263.5,-132"/>
<text text-anchor="middle" x="4236" y="-111.5" font-family="Helvetica,sans-Serif" font-size="10.00">rlm_chap</text>
</a>
</g>
<!-- dir_67aeb6292e8477f9137103b753e1ae97 -->
<g id="node10" class="node"><title>dir_67aeb6292e8477f9137103b753e1ae97</title>
<a xlink:href="dir_67aeb6292e8477f9137103b753e1ae97.html" target="_top" xlink:title="rlm_checkval">
<polygon fill="white" stroke="black" points="4190,-132 4116,-132 4116,-96 4190,-96 4190,-132"/>
<text text-anchor="middle" x="4153" y="-111.5" font-family="Helvetica,sans-Serif" font-size="10.00">rlm_checkval</text>
</a>
</g>
<!-- dir_3355128abb649d325eb53ecbfcf0b22f -->
<g id="node11" class="node"><title>dir_3355128abb649d325eb53ecbfcf0b22f</title>
<a xlink:href="dir_3355128abb649d325eb53ecbfcf0b22f.html" target="_top" xlink:title="rlm_counter">
<polygon fill="white" stroke="black" points="4098,-132 4030,-132 4030,-96 4098,-96 4098,-132"/>
<text text-anchor="middle" x="4064" y="-111.5" font-family="Helvetica,sans-Serif" font-size="10.00">rlm_counter</text>
</a>
</g>
<!-- dir_e184c19bbb560fb1846d195cdb17bef5 -->
<g id="node12" class="node"><title>dir_e184c19bbb560fb1846d195cdb17bef5</title>
<a xlink:href="dir_e184c19bbb560fb1846d195cdb17bef5.html" target="_top" xlink:title="rlm_cram">
<polygon fill="white" stroke="black" points="4011.25,-132 3954.75,-132 3954.75,-96 4011.25,-96 4011.25,-132"/>
<text text-anchor="middle" x="3983" y="-111.5" font-family="Helvetica,sans-Serif" font-size="10.00">rlm_cram</text>
</a>
</g>
<!-- dir_ca51649af87529a4fe55084f49053b3e -->
<g id="node13" class="node"><title>dir_ca51649af87529a4fe55084f49053b3e</title>
<a xlink:href="dir_ca51649af87529a4fe55084f49053b3e.html" target="_top" xlink:title="rlm_dbm">
<polygon fill="white" stroke="black" points="3936,-132 3882,-132 3882,-96 3936,-96 3936,-132"/>
<text text-anchor="middle" x="3909" y="-111.5" font-family="Helvetica,sans-Serif" font-size="10.00">rlm_dbm</text>
</a>
</g>
<!-- dir_d49a16b50bb6c6efd6b4b7b78c376c0a -->
<g id="node14" class="node"><title>dir_d49a16b50bb6c6efd6b4b7b78c376c0a</title>
<a xlink:href="dir_d49a16b50bb6c6efd6b4b7b78c376c0a.html" target="_top" xlink:title="rlm_detail">
<polygon fill="white" stroke="black" points="3863.25,-132 3804.75,-132 3804.75,-96 3863.25,-96 3863.25,-132"/>
<text text-anchor="middle" x="3834" y="-111.5" font-family="Helvetica,sans-Serif" font-size="10.00">rlm_detail</text>
</a>
</g>
<!-- dir_ccf12349f921bc29c46c3a7e1fc4eebf -->
<g id="node15" class="node"><title>dir_ccf12349f921bc29c46c3a7e1fc4eebf</title>
<a xlink:href="dir_ccf12349f921bc29c46c3a7e1fc4eebf.html" target="_top" xlink:title="rlm_digest">
<polygon fill="white" stroke="black" points="3785.5,-132 3724.5,-132 3724.5,-96 3785.5,-96 3785.5,-132"/>
<text text-anchor="middle" x="3755" y="-111.5" font-family="Helvetica,sans-Serif" font-size="10.00">rlm_digest</text>
</a>
</g>
<!-- dir_e88638e075dcb2d42cbef24241993e40 -->
<g id="node16" class="node"><title>dir_e88638e075dcb2d42cbef24241993e40</title>
<a xlink:href="dir_e88638e075dcb2d42cbef24241993e40.html" target="_top" xlink:title="rlm_dynamic_clients">
<polygon fill="white" stroke="black" points="3705.5,-132 3600.5,-132 3600.5,-96 3705.5,-96 3705.5,-132"/>
<text text-anchor="middle" x="3653" y="-111.5" font-family="Helvetica,sans-Serif" font-size="10.00">rlm_dynamic_clients</text>
</a>
</g>
<!-- dir_ac106cb656f4e9808eddb6043e3221de -->
<g id="node17" class="node"><title>dir_ac106cb656f4e9808eddb6043e3221de</title>
<a xlink:href="dir_ac106cb656f4e9808eddb6043e3221de.html" target="_top" xlink:title="rlm_eap">
<polygon fill="white" stroke="red" points="3582,-132 3528,-132 3528,-96 3582,-96 3582,-132"/>
<text text-anchor="middle" x="3555" y="-111.5" font-family="Helvetica,sans-Serif" font-size="10.00">rlm_eap</text>
</a>
</g>
<!-- dir_164ceefdfee5274a99521cd690399417 -->
<g id="node18" class="node"><title>dir_164ceefdfee5274a99521cd690399417</title>
<a xlink:href="dir_164ceefdfee5274a99521cd690399417.html" target="_top" xlink:title="rlm_eap2">
<polygon fill="white" stroke="black" points="3509.5,-132 3454.5,-132 3454.5,-96 3509.5,-96 3509.5,-132"/>
<text text-anchor="middle" x="3482" y="-111.5" font-family="Helvetica,sans-Serif" font-size="10.00">rlm_eap2</text>
</a>
</g>
<!-- dir_ae65cb66619a256ce9112f5d5bb0767e -->
<g id="node19" class="node"><title>dir_ae65cb66619a256ce9112f5d5bb0767e</title>
<a xlink:href="dir_ae65cb66619a256ce9112f5d5bb0767e.html" target="_top" xlink:title="rlm_example">
<polygon fill="white" stroke="black" points="3436,-132 3364,-132 3364,-96 3436,-96 3436,-132"/>
<text text-anchor="middle" x="3400" y="-111.5" font-family="Helvetica,sans-Serif" font-size="10.00">rlm_example</text>
</a>
</g>
<!-- dir_9b7403633e06e5ed4b4253d551c96bfd -->
<g id="node20" class="node"><title>dir_9b7403633e06e5ed4b4253d551c96bfd</title>
<a xlink:href="dir_9b7403633e06e5ed4b4253d551c96bfd.html" target="_top" xlink:title="rlm_exec">
<polygon fill="white" stroke="black" points="3345.5,-132 3290.5,-132 3290.5,-96 3345.5,-96 3345.5,-132"/>
<text text-anchor="middle" x="3318" y="-111.5" font-family="Helvetica,sans-Serif" font-size="10.00">rlm_exec</text>
</a>
</g>
<!-- dir_ba35c4649250d6093240eed2afc5502b -->
<g id="node21" class="node"><title>dir_ba35c4649250d6093240eed2afc5502b</title>
<a xlink:href="dir_ba35c4649250d6093240eed2afc5502b.html" target="_top" xlink:title="rlm_expiration">
<polygon fill="white" stroke="black" points="3271.25,-132 3194.75,-132 3194.75,-96 3271.25,-96 3271.25,-132"/>
<text text-anchor="middle" x="3233" y="-111.5" font-family="Helvetica,sans-Serif" font-size="10.00">rlm_expiration</text>
</a>
</g>
<!-- dir_2bcdb9446f763a8c1a75953ae723ef48 -->
<g id="node22" class="node"><title>dir_2bcdb9446f763a8c1a75953ae723ef48</title>
<a xlink:href="dir_2bcdb9446f763a8c1a75953ae723ef48.html" target="_top" xlink:title="rlm_expr">
<polygon fill="white" stroke="black" points="3176,-132 3122,-132 3122,-96 3176,-96 3176,-132"/>
<text text-anchor="middle" x="3149" y="-111.5" font-family="Helvetica,sans-Serif" font-size="10.00">rlm_expr</text>
</a>
</g>
<!-- dir_2d10a2b128b1363ebea35aeeb7225b60 -->
<g id="node23" class="node"><title>dir_2d10a2b128b1363ebea35aeeb7225b60</title>
<a xlink:href="dir_2d10a2b128b1363ebea35aeeb7225b60.html" target="_top" xlink:title="rlm_fastusers">
<polygon fill="white" stroke="black" points="3104,-132 3028,-132 3028,-96 3104,-96 3104,-132"/>
<text text-anchor="middle" x="3066" y="-111.5" font-family="Helvetica,sans-Serif" font-size="10.00">rlm_fastusers</text>
</a>
</g>
<!-- dir_6afa25e797400dd37e1b7c5ad86caa93 -->
<g id="node24" class="node"><title>dir_6afa25e797400dd37e1b7c5ad86caa93</title>
<a xlink:href="dir_6afa25e797400dd37e1b7c5ad86caa93.html" target="_top" xlink:title="rlm_files">
<polygon fill="white" stroke="black" points="3010,-132 2956,-132 2956,-96 3010,-96 3010,-132"/>
<text text-anchor="middle" x="2983" y="-111.5" font-family="Helvetica,sans-Serif" font-size="10.00">rlm_files</text>
</a>
</g>
<!-- dir_40483185146fc82510dcbba16aa0324d -->
<g id="node25" class="node"><title>dir_40483185146fc82510dcbba16aa0324d</title>
<a xlink:href="dir_40483185146fc82510dcbba16aa0324d.html" target="_top" xlink:title="rlm_ippool">
<polygon fill="white" stroke="black" points="2937.25,-132 2876.75,-132 2876.75,-96 2937.25,-96 2937.25,-132"/>
<text text-anchor="middle" x="2907" y="-111.5" font-family="Helvetica,sans-Serif" font-size="10.00">rlm_ippool</text>
</a>
</g>
<!-- dir_4cd2be25f6e1af7c0e473f54bbb259a4 -->
<g id="node26" class="node"><title>dir_4cd2be25f6e1af7c0e473f54bbb259a4</title>
<a xlink:href="dir_4cd2be25f6e1af7c0e473f54bbb259a4.html" target="_top" xlink:title="rlm_jradius">
<polygon fill="white" stroke="black" points="2858,-132 2794,-132 2794,-96 2858,-96 2858,-132"/>
<text text-anchor="middle" x="2826" y="-111.5" font-family="Helvetica,sans-Serif" font-size="10.00">rlm_jradius</text>
</a>
</g>
<!-- dir_7919214a3410ae1340ee85710c40be45 -->
<g id="node27" class="node"><title>dir_7919214a3410ae1340ee85710c40be45</title>
<a xlink:href="dir_7919214a3410ae1340ee85710c40be45.html" target="_top" xlink:title="rlm_krb5">
<polygon fill="white" stroke="black" points="2776,-132 2722,-132 2722,-96 2776,-96 2776,-132"/>
<text text-anchor="middle" x="2749" y="-111.5" font-family="Helvetica,sans-Serif" font-size="10.00">rlm_krb5</text>
</a>
</g>
<!-- dir_e1b53a500bd20eb1e329cdf93ec52b28 -->
<g id="node28" class="node"><title>dir_e1b53a500bd20eb1e329cdf93ec52b28</title>
<a xlink:href="dir_e1b53a500bd20eb1e329cdf93ec52b28.html" target="_top" xlink:title="rlm_ldap">
<polygon fill="white" stroke="black" points="2704,-132 2650,-132 2650,-96 2704,-96 2704,-132"/>
<text text-anchor="middle" x="2677" y="-111.5" font-family="Helvetica,sans-Serif" font-size="10.00">rlm_ldap</text>
</a>
</g>
<!-- dir_8d9723a9476b37dddf05458e6ef93a94 -->
<g id="node29" class="node"><title>dir_8d9723a9476b37dddf05458e6ef93a94</title>
<a xlink:href="dir_8d9723a9476b37dddf05458e6ef93a94.html" target="_top" xlink:title="rlm_linelog">
<polygon fill="white" stroke="black" points="2631.25,-132 2568.75,-132 2568.75,-96 2631.25,-96 2631.25,-132"/>
<text text-anchor="middle" x="2600" y="-111.5" font-family="Helvetica,sans-Serif" font-size="10.00">rlm_linelog</text>
</a>
</g>
<!-- dir_12a7ca9ede04b86d2daf9c297f2825de -->
<g id="node30" class="node"><title>dir_12a7ca9ede04b86d2daf9c297f2825de</title>
<a xlink:href="dir_12a7ca9ede04b86d2daf9c297f2825de.html" target="_top" xlink:title="rlm_logintime">
<polygon fill="white" stroke="black" points="2550,-132 2476,-132 2476,-96 2550,-96 2550,-132"/>
<text text-anchor="middle" x="2513" y="-111.5" font-family="Helvetica,sans-Serif" font-size="10.00">rlm_logintime</text>
</a>
</g>
<!-- dir_5eae61635b33bcb93338bf2c12a10b4c -->
<g id="node31" class="node"><title>dir_5eae61635b33bcb93338bf2c12a10b4c</title>
<a xlink:href="dir_5eae61635b33bcb93338bf2c12a10b4c.html" target="_top" xlink:title="rlm_mschap">
<polygon fill="white" stroke="black" points="2458,-132 2388,-132 2388,-96 2458,-96 2458,-132"/>
<text text-anchor="middle" x="2423" y="-111.5" font-family="Helvetica,sans-Serif" font-size="10.00">rlm_mschap</text>
</a>
</g>
<!-- dir_478ebe61a762901709669dc00c681bd8 -->
<g id="node32" class="node"><title>dir_478ebe61a762901709669dc00c681bd8</title>
<a xlink:href="dir_478ebe61a762901709669dc00c681bd8.html" target="_top" xlink:title="rlm_opendirectory">
<polygon fill="white" stroke="black" points="2370,-132 2276,-132 2276,-96 2370,-96 2370,-132"/>
<text text-anchor="middle" x="2323" y="-111.5" font-family="Helvetica,sans-Serif" font-size="10.00">rlm_opendirectory</text>
</a>
</g>
<!-- dir_8f4ba7ebe2ac1a1adcefcc5a9c289f45 -->
<g id="node33" class="node"><title>dir_8f4ba7ebe2ac1a1adcefcc5a9c289f45</title>
<a xlink:href="dir_8f4ba7ebe2ac1a1adcefcc5a9c289f45.html" target="_top" xlink:title="rlm_otp">
<polygon fill="white" stroke="black" points="2258,-132 2204,-132 2204,-96 2258,-96 2258,-132"/>
<text text-anchor="middle" x="2231" y="-111.5" font-family="Helvetica,sans-Serif" font-size="10.00">rlm_otp</text>
</a>
</g>
<!-- dir_8783668dffe95ca0fe8673f2210f1d45 -->
<g id="node34" class="node"><title>dir_8783668dffe95ca0fe8673f2210f1d45</title>
<a xlink:href="dir_8783668dffe95ca0fe8673f2210f1d45.html" target="_top" xlink:title="rlm_pam">
<polygon fill="white" stroke="black" points="2186,-132 2132,-132 2132,-96 2186,-96 2186,-132"/>
<text text-anchor="middle" x="2159" y="-111.5" font-family="Helvetica,sans-Serif" font-size="10.00">rlm_pam</text>
</a>
</g>
<!-- dir_8fb2a4dc1996e732e966b8ce6f07c589 -->
<g id="node35" class="node"><title>dir_8fb2a4dc1996e732e966b8ce6f07c589</title>
<a xlink:href="dir_8fb2a4dc1996e732e966b8ce6f07c589.html" target="_top" xlink:title="rlm_pap">
<polygon fill="white" stroke="black" points="2114,-132 2060,-132 2060,-96 2114,-96 2114,-132"/>
<text text-anchor="middle" x="2087" y="-111.5" font-family="Helvetica,sans-Serif" font-size="10.00">rlm_pap</text>
</a>
</g>
<!-- dir_fc856485e42646808ea6f6de23f7f690 -->
<g id="node36" class="node"><title>dir_fc856485e42646808ea6f6de23f7f690</title>
<a xlink:href="dir_fc856485e42646808ea6f6de23f7f690.html" target="_top" xlink:title="rlm_passwd">
<polygon fill="white" stroke="black" points="2041.25,-132 1972.75,-132 1972.75,-96 2041.25,-96 2041.25,-132"/>
<text text-anchor="middle" x="2007" y="-111.5" font-family="Helvetica,sans-Serif" font-size="10.00">rlm_passwd</text>
</a>
</g>
<!-- dir_3ef9d8ef01d67762d08fd72dc93d59ee -->
<g id="node37" class="node"><title>dir_3ef9d8ef01d67762d08fd72dc93d59ee</title>
<a xlink:href="dir_3ef9d8ef01d67762d08fd72dc93d59ee.html" target="_top" xlink:title="rlm_perl">
<polygon fill="white" stroke="black" points="1954,-132 1900,-132 1900,-96 1954,-96 1954,-132"/>
<text text-anchor="middle" x="1927" y="-111.5" font-family="Helvetica,sans-Serif" font-size="10.00">rlm_perl</text>
</a>
</g>
<!-- dir_7618ed8afe68529d684f137a42f8e358 -->
<g id="node38" class="node"><title>dir_7618ed8afe68529d684f137a42f8e358</title>
<a xlink:href="dir_7618ed8afe68529d684f137a42f8e358.html" target="_top" xlink:title="rlm_policy">
<polygon fill="white" stroke="black" points="1881.25,-132 1820.75,-132 1820.75,-96 1881.25,-96 1881.25,-132"/>
<text text-anchor="middle" x="1851" y="-111.5" font-family="Helvetica,sans-Serif" font-size="10.00">rlm_policy</text>
</a>
</g>
<!-- dir_43f4f02eeaf3bc1216ed63bdb025d20c -->
<g id="node39" class="node"><title>dir_43f4f02eeaf3bc1216ed63bdb025d20c</title>
<a xlink:href="dir_43f4f02eeaf3bc1216ed63bdb025d20c.html" target="_top" xlink:title="rlm_preprocess">
<polygon fill="white" stroke="black" points="1802.25,-132 1719.75,-132 1719.75,-96 1802.25,-96 1802.25,-132"/>
<text text-anchor="middle" x="1761" y="-111.5" font-family="Helvetica,sans-Serif" font-size="10.00">rlm_preprocess</text>
</a>
</g>
<!-- dir_7bcc09ecd8186c055467390b2a81450b -->
<g id="node40" class="node"><title>dir_7bcc09ecd8186c055467390b2a81450b</title>
<a xlink:href="dir_7bcc09ecd8186c055467390b2a81450b.html" target="_top" xlink:title="rlm_python">
<polygon fill="white" stroke="black" points="1701.25,-132 1636.75,-132 1636.75,-96 1701.25,-96 1701.25,-132"/>
<text text-anchor="middle" x="1669" y="-111.5" font-family="Helvetica,sans-Serif" font-size="10.00">rlm_python</text>
</a>
</g>
<!-- dir_d739c68a0764aa30fc017bb4337fc84a -->
<g id="node41" class="node"><title>dir_d739c68a0764aa30fc017bb4337fc84a</title>
<a xlink:href="dir_d739c68a0764aa30fc017bb4337fc84a.html" target="_top" xlink:title="rlm_radutmp">
<polygon fill="white" stroke="black" points="1618.25,-132 1547.75,-132 1547.75,-96 1618.25,-96 1618.25,-132"/>
<text text-anchor="middle" x="1583" y="-111.5" font-family="Helvetica,sans-Serif" font-size="10.00">rlm_radutmp</text>
</a>
</g>
<!-- dir_b7e8e910b14b10c5483dac84987902f0 -->
<g id="node42" class="node"><title>dir_b7e8e910b14b10c5483dac84987902f0</title>
<a xlink:href="dir_b7e8e910b14b10c5483dac84987902f0.html" target="_top" xlink:title="rlm_realm">
<polygon fill="white" stroke="black" points="1529.25,-132 1470.75,-132 1470.75,-96 1529.25,-96 1529.25,-132"/>
<text text-anchor="middle" x="1500" y="-111.5" font-family="Helvetica,sans-Serif" font-size="10.00">rlm_realm</text>
</a>
</g>
<!-- dir_4f4735bf2bad4da27dc32a6342f195b7 -->
<g id="node43" class="node"><title>dir_4f4735bf2bad4da27dc32a6342f195b7</title>
<a xlink:href="dir_4f4735bf2bad4da27dc32a6342f195b7.html" target="_top" xlink:title="rlm_redis">
<polygon fill="white" stroke="black" points="1442.5,-60 1387.5,-60 1387.5,-24 1442.5,-24 1442.5,-60"/>
<text text-anchor="middle" x="1415" y="-39.5" font-family="Helvetica,sans-Serif" font-size="10.00">rlm_redis</text>
</a>
</g>
<!-- dir_b0240bb7d59da15026e1dff202d1070f -->
<g id="node44" class="node"><title>dir_b0240bb7d59da15026e1dff202d1070f</title>
<a xlink:href="dir_b0240bb7d59da15026e1dff202d1070f.html" target="_top" xlink:title="rlm_rediswho">
<polygon fill="white" stroke="black" points="1452,-132 1378,-132 1378,-96 1452,-96 1452,-132"/>
<text text-anchor="middle" x="1415" y="-111.5" font-family="Helvetica,sans-Serif" font-size="10.00">rlm_rediswho</text>
</a>
</g>
<!-- dir_b0240bb7d59da15026e1dff202d1070f&#45;&gt;dir_4f4735bf2bad4da27dc32a6342f195b7 -->
<g id="edge4" class="edge"><title>dir_b0240bb7d59da15026e1dff202d1070f&#45;&gt;dir_4f4735bf2bad4da27dc32a6342f195b7</title>
<path fill="none" stroke="black" d="M1415,-95.6966C1415,-87.9827 1415,-78.7125 1415,-70.1124"/>
<polygon fill="black" stroke="black" points="1418.5,-70.1043 1415,-60.1043 1411.5,-70.1044 1418.5,-70.1043"/>
<a xlink:href="dir_000065_000064.html" target="_top" xlink:title="1">
<text text-anchor="middle" x="1421.34" y="-71.199" font-family="Helvetica,sans-Serif" font-size="10.00">1</text>
</a>
</g>
<!-- dir_433b97c47d98ee6fd518aa3022e66d9d -->
<g id="node45" class="node"><title>dir_433b97c47d98ee6fd518aa3022e66d9d</title>
<a xlink:href="dir_433b97c47d98ee6fd518aa3022e66d9d.html" target="_top" xlink:title="rlm_replicate">
<polygon fill="white" stroke="black" points="1360,-132 1288,-132 1288,-96 1360,-96 1360,-132"/>
<text text-anchor="middle" x="1324" y="-111.5" font-family="Helvetica,sans-Serif" font-size="10.00">rlm_replicate</text>
</a>
</g>
<!-- dir_9a6f69099da8e4b2c74a1d96056f8454 -->
<g id="node46" class="node"><title>dir_9a6f69099da8e4b2c74a1d96056f8454</title>
<a xlink:href="dir_9a6f69099da8e4b2c74a1d96056f8454.html" target="_top" xlink:title="rlm_rest">
<polygon fill="white" stroke="black" points="1270,-132 1216,-132 1216,-96 1270,-96 1270,-132"/>
<text text-anchor="middle" x="1243" y="-111.5" font-family="Helvetica,sans-Serif" font-size="10.00">rlm_rest</text>
</a>
</g>
<!-- dir_e743e4e1cf4df8702d1136dce8e0e5cd -->
<g id="node47" class="node"><title>dir_e743e4e1cf4df8702d1136dce8e0e5cd</title>
<a xlink:href="dir_e743e4e1cf4df8702d1136dce8e0e5cd.html" target="_top" xlink:title="rlm_ruby">
<polygon fill="white" stroke="black" points="1198,-132 1144,-132 1144,-96 1198,-96 1198,-132"/>
<text text-anchor="middle" x="1171" y="-111.5" font-family="Helvetica,sans-Serif" font-size="10.00">rlm_ruby</text>
</a>
</g>
<!-- dir_cd67d93edd3ae489d4fa1effbaeecc0d -->
<g id="node48" class="node"><title>dir_cd67d93edd3ae489d4fa1effbaeecc0d</title>
<a xlink:href="dir_cd67d93edd3ae489d4fa1effbaeecc0d.html" target="_top" xlink:title="rlm_securid">
<polygon fill="white" stroke="black" points="1125.25,-132 1058.75,-132 1058.75,-96 1125.25,-96 1125.25,-132"/>
<text text-anchor="middle" x="1092" y="-111.5" font-family="Helvetica,sans-Serif" font-size="10.00">rlm_securid</text>
</a>
</g>
<!-- dir_2ebca4098cf2dd57359ce1810e431d12 -->
<g id="node49" class="node"><title>dir_2ebca4098cf2dd57359ce1810e431d12</title>
<a xlink:href="dir_2ebca4098cf2dd57359ce1810e431d12.html" target="_top" xlink:title="rlm_sim_files">
<polygon fill="white" stroke="black" points="1040,-132 966,-132 966,-96 1040,-96 1040,-132"/>
<text text-anchor="middle" x="1003" y="-111.5" font-family="Helvetica,sans-Serif" font-size="10.00">rlm_sim_files</text>
</a>
</g>
<!-- dir_906efc11c3130b27e9af48ed350f8551 -->
<g id="node50" class="node"><title>dir_906efc11c3130b27e9af48ed350f8551</title>
<a xlink:href="dir_906efc11c3130b27e9af48ed350f8551.html" target="_top" xlink:title="rlm_smb">
<polygon fill="white" stroke="black" points="948,-132 894,-132 894,-96 948,-96 948,-132"/>
<text text-anchor="middle" x="921" y="-111.5" font-family="Helvetica,sans-Serif" font-size="10.00">rlm_smb</text>
</a>
</g>
<!-- dir_a43c3d5395121882254b1c46a8d1d962 -->
<g id="node51" class="node"><title>dir_a43c3d5395121882254b1c46a8d1d962</title>
<a xlink:href="dir_a43c3d5395121882254b1c46a8d1d962.html" target="_top" xlink:title="rlm_smsotp">
<polygon fill="white" stroke="black" points="876,-132 808,-132 808,-96 876,-96 876,-132"/>
<text text-anchor="middle" x="842" y="-111.5" font-family="Helvetica,sans-Serif" font-size="10.00">rlm_smsotp</text>
</a>
</g>
<!-- dir_2046e312daebc6091637899403282f4a -->
<g id="node52" class="node"><title>dir_2046e312daebc6091637899403282f4a</title>
<a xlink:href="dir_2046e312daebc6091637899403282f4a.html" target="_top" xlink:title="rlm_soh">
<polygon fill="white" stroke="black" points="790,-132 736,-132 736,-96 790,-96 790,-132"/>
<text text-anchor="middle" x="763" y="-111.5" font-family="Helvetica,sans-Serif" font-size="10.00">rlm_soh</text>
</a>
</g>
<!-- dir_408e423b98ba5a5b456fd0a660253297 -->
<g id="node53" class="node"><title>dir_408e423b98ba5a5b456fd0a660253297</title>
<a xlink:href="dir_408e423b98ba5a5b456fd0a660253297.html" target="_top" xlink:title="rlm_sometimes">
<polygon fill="white" stroke="black" points="717.25,-132 634.75,-132 634.75,-96 717.25,-96 717.25,-132"/>
<text text-anchor="middle" x="676" y="-111.5" font-family="Helvetica,sans-Serif" font-size="10.00">rlm_sometimes</text>
</a>
</g>
<!-- dir_23936b05918adc2ed874449d1bfcb36c -->
<g id="node54" class="node"><title>dir_23936b05918adc2ed874449d1bfcb36c</title>
<a xlink:href="dir_23936b05918adc2ed874449d1bfcb36c.html" target="_top" xlink:title="rlm_sql">
<polygon fill="white" stroke="red" points="364,-60 310,-60 310,-24 364,-24 364,-60"/>
<text text-anchor="middle" x="337" y="-39.5" font-family="Helvetica,sans-Serif" font-size="10.00">rlm_sql</text>
</a>
</g>
<!-- dir_0d555b4a76e045b11f4671c84d3cd244 -->
<g id="node55" class="node"><title>dir_0d555b4a76e045b11f4671c84d3cd244</title>
<a xlink:href="dir_0d555b4a76e045b11f4671c84d3cd244.html" target="_top" xlink:title="rlm_sql_log">
<polygon fill="white" stroke="black" points="616,-132 550,-132 550,-96 616,-96 616,-132"/>
<text text-anchor="middle" x="583" y="-111.5" font-family="Helvetica,sans-Serif" font-size="10.00">rlm_sql_log</text>
</a>
</g>
<!-- dir_2b7fc16fc352b04a0349b5f96190af48 -->
<g id="node56" class="node"><title>dir_2b7fc16fc352b04a0349b5f96190af48</title>
<a xlink:href="dir_2b7fc16fc352b04a0349b5f96190af48.html" target="_top" xlink:title="rlm_sqlcounter">
<polygon fill="white" stroke="black" points="532,-132 452,-132 452,-96 532,-96 532,-132"/>
<text text-anchor="middle" x="492" y="-111.5" font-family="Helvetica,sans-Serif" font-size="10.00">rlm_sqlcounter</text>
</a>
</g>
<!-- dir_8929a047229525eafbc0d5b030ecd2b1 -->
<g id="node57" class="node"><title>dir_8929a047229525eafbc0d5b030ecd2b1</title>
<a xlink:href="dir_8929a047229525eafbc0d5b030ecd2b1.html" target="_top" xlink:title="rlm_sqlhpwippool">
<polygon fill="white" stroke="black" points="434,-132 342,-132 342,-96 434,-96 434,-132"/>
<text text-anchor="middle" x="388" y="-111.5" font-family="Helvetica,sans-Serif" font-size="10.00">rlm_sqlhpwippool</text>
</a>
</g>
<!-- dir_8929a047229525eafbc0d5b030ecd2b1&#45;&gt;dir_23936b05918adc2ed874449d1bfcb36c -->
<g id="edge6" class="edge"><title>dir_8929a047229525eafbc0d5b030ecd2b1&#45;&gt;dir_23936b05918adc2ed874449d1bfcb36c</title>
<path fill="none" stroke="black" d="M375.393,-95.6966C369.403,-87.4741 362.124,-77.4832 355.521,-68.4207"/>
<polygon fill="black" stroke="black" points="358.179,-66.1257 349.462,-60.1043 352.522,-70.2477 358.179,-66.1257"/>
<a xlink:href="dir_000085_000004.html" target="_top" xlink:title="1">
<text text-anchor="middle" x="362.591" y="-64.8591" font-family="Helvetica,sans-Serif" font-size="10.00">1</text>
</a>
</g>
<!-- dir_8b64725661e0b5890415ddca3072e339 -->
<g id="node58" class="node"><title>dir_8b64725661e0b5890415ddca3072e339</title>
<a xlink:href="dir_8b64725661e0b5890415ddca3072e339.html" target="_top" xlink:title="rlm_sqlippool">
<polygon fill="white" stroke="black" points="324,-132 250,-132 250,-96 324,-96 324,-132"/>
<text text-anchor="middle" x="287" y="-111.5" font-family="Helvetica,sans-Serif" font-size="10.00">rlm_sqlippool</text>
</a>
</g>
<!-- dir_8b64725661e0b5890415ddca3072e339&#45;&gt;dir_23936b05918adc2ed874449d1bfcb36c -->
<g id="edge8" class="edge"><title>dir_8b64725661e0b5890415ddca3072e339&#45;&gt;dir_23936b05918adc2ed874449d1bfcb36c</title>
<path fill="none" stroke="black" d="M299.36,-95.6966C305.233,-87.4741 312.369,-77.4832 318.842,-68.4207"/>
<polygon fill="black" stroke="black" points="321.818,-70.276 324.783,-60.1043 316.122,-66.2073 321.818,-70.276"/>
<a xlink:href="dir_000086_000004.html" target="_top" xlink:title="1">
<text text-anchor="middle" x="322.039" y="-72.3514" font-family="Helvetica,sans-Serif" font-size="10.00">1</text>
</a>
</g>
<!-- dir_1cef8c2d7c4ca5e9c50bbc0844fd7133 -->
<g id="node59" class="node"><title>dir_1cef8c2d7c4ca5e9c50bbc0844fd7133</title>
<a xlink:href="dir_1cef8c2d7c4ca5e9c50bbc0844fd7133.html" target="_top" xlink:title="rlm_unix">
<polygon fill="white" stroke="black" points="232,-132 178,-132 178,-96 232,-96 232,-132"/>
<text text-anchor="middle" x="205" y="-111.5" font-family="Helvetica,sans-Serif" font-size="10.00">rlm_unix</text>
</a>
</g>
<!-- dir_154a28a1368752be698df5c41aaa9380 -->
<g id="node60" class="node"><title>dir_154a28a1368752be698df5c41aaa9380</title>
<a xlink:href="dir_154a28a1368752be698df5c41aaa9380.html" target="_top" xlink:title="rlm_utf8">
<polygon fill="white" stroke="black" points="160,-132 106,-132 106,-96 160,-96 160,-132"/>
<text text-anchor="middle" x="133" y="-111.5" font-family="Helvetica,sans-Serif" font-size="10.00">rlm_utf8</text>
</a>
</g>
<!-- dir_5807813ee62f86fe26d9b2c3e760ccf5 -->
<g id="node61" class="node"><title>dir_5807813ee62f86fe26d9b2c3e760ccf5</title>
<a xlink:href="dir_5807813ee62f86fe26d9b2c3e760ccf5.html" target="_top" xlink:title="rlm_wimax">
<polygon fill="white" stroke="black" points="88,-132 24,-132 24,-96 88,-96 88,-132"/>
<text text-anchor="middle" x="56" y="-111.5" font-family="Helvetica,sans-Serif" font-size="10.00">rlm_wimax</text>
</a>
</g>
</g>
</svg>
        <g id="navigator" transform="translate(0 0)" fill="#404254">
                <rect fill="#f2f5e9" fill-opacity="0.5" stroke="#606060" stroke-width=".5" x="0" y="0" width="60" height="60"/>
                <use id="zoomplus" xlink:href="#zoomPlus" x="17" y="9" onmousedown="handleZoom(evt,'in')"/>
                <use id="zoomminus" xlink:href="#zoomMin" x="42" y="9" onmousedown="handleZoom(evt,'out')"/>
                <use id="reset" xlink:href="#resetDef" x="30" y="36" onmousedown="handleReset()"/>
                <g id="arrowUp" xlink:href="#dirArrow" transform="translate(30 24)" onmousedown="handlePan(0,-1)">
                  <use xlink:href="#rim" fill="#404040">
                        <set attributeName="fill" to="#808080" begin="arrowUp.mouseover" end="arrowUp.mouseout"/>
                  </use>
                  <path fill="none" stroke="white" stroke-width="1.5" d="M0,-3.0v7 M-2.5,-0.5L0,-3.0L2.5,-0.5"/>
                </g>
                <g id="arrowRight" xlink:href="#dirArrow" transform="rotate(90) translate(36 -43)" onmousedown="handlePan(1,0)">
                  <use xlink:href="#rim" fill="#404040">
                        <set attributeName="fill" to="#808080" begin="arrowRight.mouseover" end="arrowRight.mouseout"/>
                  </use>
                  <path fill="none" stroke="white" stroke-width="1.5" d="M0,-3.0v7 M-2.5,-0.5L0,-3.0L2.5,-0.5"/>
                </g>
                <g id="arrowDown" xlink:href="#dirArrow" transform="rotate(180) translate(-30 -48)" onmousedown="handlePan(0,1)">
                  <use xlink:href="#rim" fill="#404040">
                        <set attributeName="fill" to="#808080" begin="arrowDown.mouseover" end="arrowDown.mouseout"/>
                  </use>
                  <path fill="none" stroke="white" stroke-width="1.5" d="M0,-3.0v7 M-2.5,-0.5L0,-3.0L2.5,-0.5"/>
                </g>
                <g id="arrowLeft" xlink:href="#dirArrow" transform="rotate(270) translate(-36 17)" onmousedown="handlePan(-1,0)">
                  <use xlink:href="#rim" fill="#404040">
                        <set attributeName="fill" to="#808080" begin="arrowLeft.mouseover" end="arrowLeft.mouseout"/>
                  </use>
                  <path fill="none" stroke="white" stroke-width="1.5" d="M0,-3.0v7 M-2.5,-0.5L0,-3.0L2.5,-0.5"/>
                </g>
        </g>
</svg>
