<?xml version="1.0" encoding="UTF-8" standalone="no"?>
<!DOCTYPE svg PUBLIC "-//W3C//DTD SVG 1.1//EN"
 "http://www.w3.org/Graphics/SVG/1.1/DTD/svg11.dtd">
<!-- Generated by graphviz version 2.28.0 (20111211.2114)
 -->
<!-- Title: G Pages: 1 -->
<!--zoomable-->
<svg id="main" version="1.1" xmlns="http://www.w3.org/2000/svg" xmlns:xlink="http://www.w3.org/1999/xlink" xml:space="preserve" onload="init(evt)">
        <defs>
                <circle id="rim" cx="0" cy="0" r="7"/>
                <circle id="rim2" cx="0" cy="0" r="3.5"/>
                <g id="zoomPlus">
                        <use xlink:href="#rim" fill="#404040">
                                <set attributeName="fill" to="#808080" begin="zoomplus.mouseover" end="zoomplus.mouseout"/>
                        </use>
                        <path d="M-4,0h8M0,-4v8" fill="none" stroke="white" stroke-width="1.5" pointer-events="none"/>
                </g>
                <g id="zoomMin">
                        <use xlink:href="#rim" fill="#404040">
                                <set attributeName="fill" to="#808080" begin="zoomminus.mouseover" end="zoomminus.mouseout"/>
                        </use>
                        <path d="M-4,0h8" fill="none" stroke="white" stroke-width="1.5" pointer-events="none"/>
                </g>
                <g id="dirArrow">
                        <path fill="none" stroke="white" stroke-width="1.5" d="M0,-3.0v7 M-2.5,-0.5L0,-3.0L2.5,-0.5"/>
                </g>
               <g id="resetDef">
                       <use xlink:href="#rim2" fill="#404040">
                               <set attributeName="fill" to="#808080" begin="reset.mouseover" end="reset.mouseout"/>
                       </use>
               </g>
        </defs>

<script type="text/javascript">
var viewWidth = 1140;
var viewHeight = 159;
var sectionId = 'dynsection-0';
</script>
<script xlink:href="svgpan.js"/>
<svg id="graph" class="graph">
<g id="viewport">
<title>G</title>
<g id="graph2" class="cluster"><title>clusterdir_ac106cb656f4e9808eddb6043e3221de</title>
<a xlink:href="dir_ac106cb656f4e9808eddb6043e3221de.html" target="_top" xlink:title="rlm_eap">
<polygon fill="#ddddee" stroke="black" points="8,-56 8,-143 1124,-143 1124,-56 8,-56"/>
<text text-anchor="middle" x="566" y="-131" font-family="Helvetica,sans-Serif" font-size="10.00">rlm_eap</text>
</a>
</g>
<g id="graph3" class="cluster"><title>clusterdir_b12b24d1b838feef0c287fb6b28786e4</title>
<a xlink:href="dir_b12b24d1b838feef0c287fb6b28786e4.html" target="_top">
<polygon fill="#eeeeff" stroke="black" points="16,-64 16,-116 1116,-116 1116,-64 16,-64"/>
</a>
</g>
<!-- dir_b12b24d1b838feef0c287fb6b28786e4 -->
<g id="node3" class="node"><title>dir_b12b24d1b838feef0c287fb6b28786e4</title>
<text text-anchor="middle" x="1081" y="-87.5" font-family="Helvetica,sans-Serif" font-size="10.00">types</text>
</g>
<!-- dir_84f6b8894c1360a945216d4455998862 -->
<g id="node4" class="node"><title>dir_84f6b8894c1360a945216d4455998862</title>
<a xlink:href="dir_84f6b8894c1360a945216d4455998862.html" target="_top" xlink:title="rlm_eap_gtc">
<polygon fill="white" stroke="black" points="1036,-108 966,-108 966,-72 1036,-72 1036,-108"/>
<text text-anchor="middle" x="1001" y="-87.5" font-family="Helvetica,sans-Serif" font-size="10.00">rlm_eap_gtc</text>
</a>
</g>
<!-- dir_e2b679c617078ad0aea3c0bc561decc3 -->
<g id="node5" class="node"><title>dir_e2b679c617078ad0aea3c0bc561decc3</title>
<a xlink:href="dir_e2b679c617078ad0aea3c0bc561decc3.html" target="_top" xlink:title="rlm_eap_ikev2">
<polygon fill="white" stroke="black" points="948,-108 868,-108 868,-72 948,-72 948,-108"/>
<text text-anchor="middle" x="908" y="-87.5" font-family="Helvetica,sans-Serif" font-size="10.00">rlm_eap_ikev2</text>
</a>
</g>
<!-- dir_1abd36f2e707b92dc24e4d839c266014 -->
<g id="node6" class="node"><title>dir_1abd36f2e707b92dc24e4d839c266014</title>
<a xlink:href="dir_1abd36f2e707b92dc24e4d839c266014.html" target="_top" xlink:title="rlm_eap_leap">
<polygon fill="white" stroke="black" points="850,-108 776,-108 776,-72 850,-72 850,-108"/>
<text text-anchor="middle" x="813" y="-87.5" font-family="Helvetica,sans-Serif" font-size="10.00">rlm_eap_leap</text>
</a>
</g>
<!-- dir_bc4d4c21470c8aa824b35691d33c79d2 -->
<g id="node7" class="node"><title>dir_bc4d4c21470c8aa824b35691d33c79d2</title>
<a xlink:href="dir_bc4d4c21470c8aa824b35691d33c79d2.html" target="_top" xlink:title="rlm_eap_md5">
<polygon fill="white" stroke="black" points="757.25,-108 682.75,-108 682.75,-72 757.25,-72 757.25,-108"/>
<text text-anchor="middle" x="720" y="-87.5" font-family="Helvetica,sans-Serif" font-size="10.00">rlm_eap_md5</text>
</a>
</g>
<!-- dir_0484085bd5b2da91e4ce1fa0852db6ed -->
<g id="node8" class="node"><title>dir_0484085bd5b2da91e4ce1fa0852db6ed</title>
<a xlink:href="dir_0484085bd5b2da91e4ce1fa0852db6ed.html" target="_top" xlink:title="rlm_eap_mschapv2">
<polygon fill="white" stroke="black" points="664.25,-108 563.75,-108 563.75,-72 664.25,-72 664.25,-108"/>
<text text-anchor="middle" x="614" y="-87.5" font-family="Helvetica,sans-Serif" font-size="10.00">rlm_eap_mschapv2</text>
</a>
</g>
<!-- dir_911c9315e3ddfbab49b410321ef0771e -->
<g id="node9" class="node"><title>dir_911c9315e3ddfbab49b410321ef0771e</title>
<a xlink:href="dir_911c9315e3ddfbab49b410321ef0771e.html" target="_top" xlink:title="rlm_eap_peap">
<polygon fill="white" stroke="black" points="545.25,-108 468.75,-108 468.75,-72 545.25,-72 545.25,-108"/>
<text text-anchor="middle" x="507" y="-87.5" font-family="Helvetica,sans-Serif" font-size="10.00">rlm_eap_peap</text>
</a>
</g>
<!-- dir_56be1dccc40da5563400e84077f9d56d -->
<g id="node15" class="node"><title>dir_56be1dccc40da5563400e84077f9d56d</title>
<a xlink:href="dir_56be1dccc40da5563400e84077f9d56d.html" target="_top" xlink:title="libeap">
<polygon fill="none" stroke="black" points="305,-36 251,-36 251,-0 305,-0 305,-36"/>
<text text-anchor="middle" x="278" y="-15.5" font-family="Helvetica,sans-Serif" font-size="10.00">libeap</text>
</a>
</g>
<!-- dir_911c9315e3ddfbab49b410321ef0771e&#45;&gt;dir_56be1dccc40da5563400e84077f9d56d -->
<g id="edge4" class="edge"><title>dir_911c9315e3ddfbab49b410321ef0771e&#45;&gt;dir_56be1dccc40da5563400e84077f9d56d</title>
<path fill="none" stroke="black" d="M486.094,-71.9229C478.041,-66.0941 468.493,-60.0355 459,-56 411.649,-35.8708 352.569,-26.4401 315.052,-22.2039"/>
<polygon fill="black" stroke="black" points="315.384,-18.7196 305.07,-21.1423 314.643,-25.6803 315.384,-18.7196"/>
<a xlink:href="dir_000019_000034.html" target="_top" xlink:title="1">
<text text-anchor="middle" x="319.258" y="-13.7763" font-family="Helvetica,sans-Serif" font-size="10.00">1</text>
</a>
</g>
<!-- dir_4f51220be68a58a9ce546973e3dcbe1f -->
<g id="node10" class="node"><title>dir_4f51220be68a58a9ce546973e3dcbe1f</title>
<a xlink:href="dir_4f51220be68a58a9ce546973e3dcbe1f.html" target="_top" xlink:title="rlm_eap_pwd">
<polygon fill="white" stroke="black" points="450,-108 376,-108 376,-72 450,-72 450,-108"/>
<text text-anchor="middle" x="413" y="-87.5" font-family="Helvetica,sans-Serif" font-size="10.00">rlm_eap_pwd</text>
</a>
</g>
<!-- dir_afc47494c6b779dc55628e7b4832fd8a -->
<g id="node11" class="node"><title>dir_afc47494c6b779dc55628e7b4832fd8a</title>
<a xlink:href="dir_afc47494c6b779dc55628e7b4832fd8a.html" target="_top" xlink:title="rlm_eap_sim">
<polygon fill="white" stroke="black" points="358,-108 286,-108 286,-72 358,-72 358,-108"/>
<text text-anchor="middle" x="322" y="-87.5" font-family="Helvetica,sans-Serif" font-size="10.00">rlm_eap_sim</text>
</a>
</g>
<!-- dir_afc47494c6b779dc55628e7b4832fd8a&#45;&gt;dir_56be1dccc40da5563400e84077f9d56d -->
<g id="edge8" class="edge"><title>dir_afc47494c6b779dc55628e7b4832fd8a&#45;&gt;dir_56be1dccc40da5563400e84077f9d56d</title>
<path fill="none" stroke="black" d="M311.124,-71.6966C306.008,-63.5589 299.805,-53.689 294.155,-44.7013"/>
<polygon fill="black" stroke="black" points="297.036,-42.7081 288.751,-36.1043 291.11,-46.4333 297.036,-42.7081"/>
<a xlink:href="dir_000043_000034.html" target="_top" xlink:title="2">
<text text-anchor="middle" x="301.353" y="-41.7405" font-family="Helvetica,sans-Serif" font-size="10.00">2</text>
</a>
</g>
<!-- dir_093c641929eafae0c1b302ccdbb5bfc5 -->
<g id="node12" class="node"><title>dir_093c641929eafae0c1b302ccdbb5bfc5</title>
<a xlink:href="dir_093c641929eafae0c1b302ccdbb5bfc5.html" target="_top" xlink:title="rlm_eap_tls">
<polygon fill="white" stroke="black" points="267.25,-108 200.75,-108 200.75,-72 267.25,-72 267.25,-108"/>
<text text-anchor="middle" x="234" y="-87.5" font-family="Helvetica,sans-Serif" font-size="10.00">rlm_eap_tls</text>
</a>
</g>
<!-- dir_093c641929eafae0c1b302ccdbb5bfc5&#45;&gt;dir_56be1dccc40da5563400e84077f9d56d -->
<g id="edge10" class="edge"><title>dir_093c641929eafae0c1b302ccdbb5bfc5&#45;&gt;dir_56be1dccc40da5563400e84077f9d56d</title>
<path fill="none" stroke="black" d="M244.876,-71.6966C249.992,-63.5589 256.195,-53.689 261.845,-44.7013"/>
<polygon fill="black" stroke="black" points="264.89,-46.4333 267.249,-36.1043 258.964,-42.7081 264.89,-46.4333"/>
<a xlink:href="dir_000020_000034.html" target="_top" xlink:title="1">
<text text-anchor="middle" x="265.381" y="-48.4876" font-family="Helvetica,sans-Serif" font-size="10.00">1</text>
</a>
</g>
<!-- dir_5946bae94ca8f8683c5f62ffadb20e61 -->
<g id="node13" class="node"><title>dir_5946bae94ca8f8683c5f62ffadb20e61</title>
<a xlink:href="dir_5946bae94ca8f8683c5f62ffadb20e61.html" target="_top" xlink:title="rlm_eap_tnc">
<polygon fill="white" stroke="black" points="182,-108 112,-108 112,-72 182,-72 182,-108"/>
<text text-anchor="middle" x="147" y="-87.5" font-family="Helvetica,sans-Serif" font-size="10.00">rlm_eap_tnc</text>
</a>
</g>
<!-- dir_647c4ea9ea5e175b652e7dda9abf7712 -->
<g id="node14" class="node"><title>dir_647c4ea9ea5e175b652e7dda9abf7712</title>
<a xlink:href="dir_647c4ea9ea5e175b652e7dda9abf7712.html" target="_top" xlink:title="rlm_eap_ttls">
<polygon fill="white" stroke="black" points="94,-108 24,-108 24,-72 94,-72 94,-108"/>
<text text-anchor="middle" x="59" y="-87.5" font-family="Helvetica,sans-Serif" font-size="10.00">rlm_eap_ttls</text>
</a>
</g>
<!-- dir_647c4ea9ea5e175b652e7dda9abf7712&#45;&gt;dir_56be1dccc40da5563400e84077f9d56d -->
<g id="edge6" class="edge"><title>dir_647c4ea9ea5e175b652e7dda9abf7712&#45;&gt;dir_56be1dccc40da5563400e84077f9d56d</title>
<path fill="none" stroke="black" d="M77.982,-71.9105C85.3439,-66.0803 94.1306,-60.0241 103,-56 147.785,-35.6809 204.131,-26.3419 240.596,-22.1738"/>
<polygon fill="black" stroke="black" points="241.211,-25.628 250.783,-21.0851 240.468,-18.6677 241.211,-25.628"/>
<a xlink:href="dir_000021_000034.html" target="_top" xlink:title="1">
<text text-anchor="middle" x="237.939" y="-26.3331" font-family="Helvetica,sans-Serif" font-size="10.00">1</text>
</a>
</g>
</g>
</svg>
        <g id="navigator" transform="translate(0 0)" fill="#404254">
                <rect fill="#f2f5e9" fill-opacity="0.5" stroke="#606060" stroke-width=".5" x="0" y="0" width="60" height="60"/>
                <use id="zoomplus" xlink:href="#zoomPlus" x="17" y="9" onmousedown="handleZoom(evt,'in')"/>
                <use id="zoomminus" xlink:href="#zoomMin" x="42" y="9" onmousedown="handleZoom(evt,'out')"/>
                <use id="reset" xlink:href="#resetDef" x="30" y="36" onmousedown="handleReset()"/>
                <g id="arrowUp" xlink:href="#dirArrow" transform="translate(30 24)" onmousedown="handlePan(0,-1)">
                  <use xlink:href="#rim" fill="#404040">
                        <set attributeName="fill" to="#808080" begin="arrowUp.mouseover" end="arrowUp.mouseout"/>
                  </use>
                  <path fill="none" stroke="white" stroke-width="1.5" d="M0,-3.0v7 M-2.5,-0.5L0,-3.0L2.5,-0.5"/>
                </g>
                <g id="arrowRight" xlink:href="#dirArrow" transform="rotate(90) translate(36 -43)" onmousedown="handlePan(1,0)">
                  <use xlink:href="#rim" fill="#404040">
                        <set attributeName="fill" to="#808080" begin="arrowRight.mouseover" end="arrowRight.mouseout"/>
                  </use>
                  <path fill="none" stroke="white" stroke-width="1.5" d="M0,-3.0v7 M-2.5,-0.5L0,-3.0L2.5,-0.5"/>
                </g>
                <g id="arrowDown" xlink:href="#dirArrow" transform="rotate(180) translate(-30 -48)" onmousedown="handlePan(0,1)">
                  <use xlink:href="#rim" fill="#404040">
                        <set attributeName="fill" to="#808080" begin="arrowDown.mouseover" end="arrowDown.mouseout"/>
                  </use>
                  <path fill="none" stroke="white" stroke-width="1.5" d="M0,-3.0v7 M-2.5,-0.5L0,-3.0L2.5,-0.5"/>
                </g>
                <g id="arrowLeft" xlink:href="#dirArrow" transform="rotate(270) translate(-36 17)" onmousedown="handlePan(-1,0)">
                  <use xlink:href="#rim" fill="#404040">
                        <set attributeName="fill" to="#808080" begin="arrowLeft.mouseover" end="arrowLeft.mouseout"/>
                  </use>
                  <path fill="none" stroke="white" stroke-width="1.5" d="M0,-3.0v7 M-2.5,-0.5L0,-3.0L2.5,-0.5"/>
                </g>
        </g>
</svg>
