<?xml version="1.0" encoding="UTF-8" standalone="no"?>
<!DOCTYPE svg PUBLIC "-//W3C//DTD SVG 1.1//EN"
 "http://www.w3.org/Graphics/SVG/1.1/DTD/svg11.dtd">
<!-- Generated by graphviz version 2.28.0 (20111211.2114)
 -->
<!-- Title: G Pages: 1 -->
<svg width="114pt" height="151pt"
 viewBox="0.00 0.00 114.00 151.00" xmlns="http://www.w3.org/2000/svg" xmlns:xlink="http://www.w3.org/1999/xlink">
<g id="graph1" class="graph" transform="scale(1 1) rotate(0) translate(4 147)">
<title>G</title>
<g id="graph2" class="cluster"><title>clusterdir_4cc3e6fe4b61867fd806af76a262971e</title>
<a xlink:href="dir_4cc3e6fe4b61867fd806af76a262971e.html" target="_top" xlink:title="modules">
<polygon fill="#ddddee" stroke="black" points="8,-64 8,-135 98,-135 98,-64 8,-64"/>
<text text-anchor="middle" x="53" y="-123" font-family="Helvetica,sans-Serif" font-size="10.00">modules</text>
</a>
</g>
<!-- dir_8b64725661e0b5890415ddca3072e339 -->
<g id="node2" class="node"><title>dir_8b64725661e0b5890415ddca3072e339</title>
<a xlink:href="dir_8b64725661e0b5890415ddca3072e339.html" target="_top" xlink:title="rlm_sqlippool">
<polygon fill="#eeeeff" stroke="black" points="90,-108 16,-108 16,-72 90,-72 90,-108"/>
<text text-anchor="middle" x="53" y="-87.5" font-family="Helvetica,sans-Serif" font-size="10.00">rlm_sqlippool</text>
</a>
</g>
<!-- dir_23936b05918adc2ed874449d1bfcb36c -->
<g id="node3" class="node"><title>dir_23936b05918adc2ed874449d1bfcb36c</title>
<a xlink:href="dir_23936b05918adc2ed874449d1bfcb36c.html" target="_top" xlink:title="rlm_sql">
<polygon fill="none" stroke="red" points="80,-36 26,-36 26,-0 80,-0 80,-36"/>
<text text-anchor="middle" x="53" y="-15.5" font-family="Helvetica,sans-Serif" font-size="10.00">rlm_sql</text>
</a>
</g>
<!-- dir_8b64725661e0b5890415ddca3072e339&#45;&gt;dir_23936b05918adc2ed874449d1bfcb36c -->
<g id="edge3" class="edge"><title>dir_8b64725661e0b5890415ddca3072e339&#45;&gt;dir_23936b05918adc2ed874449d1bfcb36c</title>
<path fill="none" stroke="black" d="M53,-71.6966C53,-63.9827 53,-54.7125 53,-46.1124"/>
<polygon fill="black" stroke="black" points="56.5001,-46.1043 53,-36.1043 49.5001,-46.1044 56.5001,-46.1043"/>
<a xlink:href="dir_000086_000004.html" target="_top" xlink:title="1">
<text text-anchor="middle" x="59.3393" y="-47.199" font-family="Helvetica,sans-Serif" font-size="10.00">1</text>
</a>
</g>
</g>
</svg>
