<?xml version="1.0" encoding="UTF-8" standalone="no"?>
<!DOCTYPE svg PUBLIC "-//W3C//DTD SVG 1.1//EN"
 "http://www.w3.org/Graphics/SVG/1.1/DTD/svg11.dtd">
<!-- Generated by graphviz version 2.28.0 (20111211.2114)
 -->
<!-- Title: G Pages: 1 -->
<!--zoomable-->
<svg id="main" version="1.1" xmlns="http://www.w3.org/2000/svg" xmlns:xlink="http://www.w3.org/1999/xlink" xml:space="preserve" onload="init(evt)">
        <defs>
                <circle id="rim" cx="0" cy="0" r="7"/>
                <circle id="rim2" cx="0" cy="0" r="3.5"/>
                <g id="zoomPlus">
                        <use xlink:href="#rim" fill="#404040">
                                <set attributeName="fill" to="#808080" begin="zoomplus.mouseover" end="zoomplus.mouseout"/>
                        </use>
                        <path d="M-4,0h8M0,-4v8" fill="none" stroke="white" stroke-width="1.5" pointer-events="none"/>
                </g>
                <g id="zoomMin">
                        <use xlink:href="#rim" fill="#404040">
                                <set attributeName="fill" to="#808080" begin="zoomminus.mouseover" end="zoomminus.mouseout"/>
                        </use>
                        <path d="M-4,0h8" fill="none" stroke="white" stroke-width="1.5" pointer-events="none"/>
                </g>
                <g id="dirArrow">
                        <path fill="none" stroke="white" stroke-width="1.5" d="M0,-3.0v7 M-2.5,-0.5L0,-3.0L2.5,-0.5"/>
                </g>
               <g id="resetDef">
                       <use xlink:href="#rim2" fill="#404040">
                               <set attributeName="fill" to="#808080" begin="reset.mouseover" end="reset.mouseout"/>
                       </use>
               </g>
        </defs>

<script type="text/javascript">
var viewWidth = 1608;
var viewHeight = 196;
var sectionId = 'dynsection-0';
</script>
<script xlink:href="svgpan.js"/>
<svg id="graph" class="graph">
<g id="viewport">
<title>G</title>
<!-- Node1 -->
<g id="node1" class="node"><title>Node1</title>
<polygon fill="#bfbfbf" stroke="black" points="731,-168.5 731,-187.5 1039,-187.5 1039,-168.5 731,-168.5"/>
<text text-anchor="middle" x="885" y="-175.5" font-family="Helvetica,sans-Serif" font-size="10.00">/home/pjm3/freeradius&#45;server/src/modules/rlm_eap/libeap/eap_tls.h</text>
</g>
<!-- Node2 -->
<g id="node3" class="node"><title>Node2</title>
<polygon fill="none" stroke="#bfbfbf" points="349,-0.5 349,-19.5 467,-19.5 467,-0.5 349,-0.5"/>
<text text-anchor="middle" x="408" y="-7.5" font-family="Helvetica,sans-Serif" font-size="10.00">freeradius&#45;devel/ident.h</text>
</g>
<!-- Node1&#45;&gt;Node2 -->
<g id="edge2" class="edge"><title>Node1&#45;&gt;Node2</title>
<path fill="none" stroke="midnightblue" d="M730.714,-169.361C613.633,-162.203 469.11,-149.905 447,-132 416.083,-106.963 409.369,-57.1965 408.102,-29.9368"/>
<polygon fill="midnightblue" stroke="midnightblue" points="411.597,-29.6756 407.838,-19.7698 404.599,-29.8573 411.597,-29.6756"/>
</g>
<!-- Node3 -->
<g id="node5" class="node"><title>Node3</title>
<polygon fill="none" stroke="#bfbfbf" points="456,-112.5 456,-131.5 502,-131.5 502,-112.5 456,-112.5"/>
<text text-anchor="middle" x="479" y="-119.5" font-family="Helvetica,sans-Serif" font-size="10.00">stdio.h</text>
</g>
<!-- Node1&#45;&gt;Node3 -->
<g id="edge4" class="edge"><title>Node1&#45;&gt;Node3</title>
<path fill="none" stroke="midnightblue" d="M777.096,-168.464C704.575,-161.682 606.78,-150.52 512.331,-132.001"/>
<polygon fill="midnightblue" stroke="midnightblue" points="512.809,-128.528 502.318,-130.007 511.442,-135.393 512.809,-128.528"/>
</g>
<!-- Node4 -->
<g id="node7" class="node"><title>Node4</title>
<polygon fill="none" stroke="#bfbfbf" points="520,-112.5 520,-131.5 568,-131.5 568,-112.5 520,-112.5"/>
<text text-anchor="middle" x="544" y="-119.5" font-family="Helvetica,sans-Serif" font-size="10.00">stdlib.h</text>
</g>
<!-- Node1&#45;&gt;Node4 -->
<g id="edge6" class="edge"><title>Node1&#45;&gt;Node4</title>
<path fill="none" stroke="midnightblue" d="M810.459,-168.472C748.034,-160.758 656.761,-148.143 578,-132 577.899,-131.979 577.798,-131.959 577.697,-131.938"/>
<polygon fill="midnightblue" stroke="midnightblue" points="578.595,-128.553 568.066,-129.731 577.032,-135.376 578.595,-128.553"/>
</g>
<!-- Node5 -->
<g id="node9" class="node"><title>Node5</title>
<polygon fill="none" stroke="#bfbfbf" points="586.5,-112.5 586.5,-131.5 635.5,-131.5 635.5,-112.5 586.5,-112.5"/>
<text text-anchor="middle" x="611" y="-119.5" font-family="Helvetica,sans-Serif" font-size="10.00">string.h</text>
</g>
<!-- Node1&#45;&gt;Node5 -->
<g id="edge8" class="edge"><title>Node1&#45;&gt;Node5</title>
<path fill="none" stroke="midnightblue" d="M833.277,-168.432C786.709,-160.464 716.195,-147.77 645.765,-132.038"/>
<polygon fill="midnightblue" stroke="midnightblue" points="646.355,-128.583 635.831,-129.798 644.816,-135.412 646.355,-128.583"/>
</g>
<!-- Node6 -->
<g id="node11" class="node"><title>Node6</title>
<polygon fill="none" stroke="#bfbfbf" points="653.5,-112.5 653.5,-131.5 700.5,-131.5 700.5,-112.5 653.5,-112.5"/>
<text text-anchor="middle" x="677" y="-119.5" font-family="Helvetica,sans-Serif" font-size="10.00">errno.h</text>
</g>
<!-- Node1&#45;&gt;Node6 -->
<g id="edge10" class="edge"><title>Node1&#45;&gt;Node6</title>
<path fill="none" stroke="midnightblue" d="M851.086,-168.435C817.802,-159.995 765.342,-146.6 710.653,-132.145"/>
<polygon fill="midnightblue" stroke="midnightblue" points="711.345,-128.707 700.782,-129.53 709.552,-135.474 711.345,-128.707"/>
</g>
<!-- Node7 -->
<g id="node13" class="node"><title>Node7</title>
<polygon fill="none" stroke="#bfbfbf" points="719,-112.5 719,-131.5 787,-131.5 787,-112.5 719,-112.5"/>
<text text-anchor="middle" x="753" y="-119.5" font-family="Helvetica,sans-Serif" font-size="10.00">sys/types.h</text>
</g>
<!-- Node1&#45;&gt;Node7 -->
<g id="edge12" class="edge"><title>Node1&#45;&gt;Node7</title>
<path fill="none" stroke="midnightblue" d="M864.084,-168.444C842.264,-159.517 807.85,-145.439 783.108,-135.317"/>
<polygon fill="midnightblue" stroke="midnightblue" points="784.399,-132.063 773.818,-131.516 781.748,-138.542 784.399,-132.063"/>
</g>
<!-- Node8 -->
<g id="node15" class="node"><title>Node8</title>
<polygon fill="none" stroke="#bfbfbf" points="805.5,-112.5 805.5,-131.5 878.5,-131.5 878.5,-112.5 805.5,-112.5"/>
<text text-anchor="middle" x="842" y="-119.5" font-family="Helvetica,sans-Serif" font-size="10.00">sys/socket.h</text>
</g>
<!-- Node1&#45;&gt;Node8 -->
<g id="edge14" class="edge"><title>Node1&#45;&gt;Node8</title>
<path fill="none" stroke="midnightblue" d="M877.899,-168.083C871.763,-160.377 862.73,-149.033 855.261,-139.653"/>
<polygon fill="midnightblue" stroke="midnightblue" points="857.936,-137.394 848.968,-131.751 852.46,-141.754 857.936,-137.394"/>
</g>
<!-- Node9 -->
<g id="node17" class="node"><title>Node9</title>
<polygon fill="none" stroke="#bfbfbf" points="896.5,-112.5 896.5,-131.5 961.5,-131.5 961.5,-112.5 896.5,-112.5"/>
<text text-anchor="middle" x="929" y="-119.5" font-family="Helvetica,sans-Serif" font-size="10.00">netinet/in.h</text>
</g>
<!-- Node1&#45;&gt;Node9 -->
<g id="edge16" class="edge"><title>Node1&#45;&gt;Node9</title>
<path fill="none" stroke="midnightblue" d="M892.266,-168.083C898.545,-160.377 907.788,-149.033 915.431,-139.653"/>
<polygon fill="midnightblue" stroke="midnightblue" points="918.266,-141.714 921.869,-131.751 912.839,-137.293 918.266,-141.714"/>
</g>
<!-- Node10 -->
<g id="node19" class="node"><title>Node10</title>
<polygon fill="none" stroke="#bfbfbf" points="979.5,-112.5 979.5,-131.5 1050.5,-131.5 1050.5,-112.5 979.5,-112.5"/>
<text text-anchor="middle" x="1015" y="-119.5" font-family="Helvetica,sans-Serif" font-size="10.00">netinet/tcp.h</text>
</g>
<!-- Node1&#45;&gt;Node10 -->
<g id="edge18" class="edge"><title>Node1&#45;&gt;Node10</title>
<path fill="none" stroke="midnightblue" d="M905.599,-168.444C926.993,-159.557 960.681,-145.563 985.024,-135.451"/>
<polygon fill="midnightblue" stroke="midnightblue" points="986.605,-138.585 994.497,-131.516 983.92,-132.12 986.605,-138.585"/>
</g>
<!-- Node11 -->
<g id="node21" class="node"><title>Node11</title>
<polygon fill="none" stroke="#bfbfbf" points="1068.5,-112.5 1068.5,-131.5 1117.5,-131.5 1117.5,-112.5 1068.5,-112.5"/>
<text text-anchor="middle" x="1093" y="-119.5" font-family="Helvetica,sans-Serif" font-size="10.00">netdb.h</text>
</g>
<!-- Node1&#45;&gt;Node11 -->
<g id="edge20" class="edge"><title>Node1&#45;&gt;Node11</title>
<path fill="none" stroke="midnightblue" d="M918.372,-168.43C951.425,-159.928 1003.75,-146.434 1058.59,-132.096"/>
<polygon fill="midnightblue" stroke="midnightblue" points="1059.7,-135.423 1068.49,-129.506 1057.93,-128.651 1059.7,-135.423"/>
</g>
<!-- Node12 -->
<g id="node23" class="node"><title>Node12</title>
<polygon fill="none" stroke="#bfbfbf" points="1136,-112.5 1136,-131.5 1180,-131.5 1180,-112.5 1136,-112.5"/>
<text text-anchor="middle" x="1158" y="-119.5" font-family="Helvetica,sans-Serif" font-size="10.00">fcntl.h</text>
</g>
<!-- Node1&#45;&gt;Node12 -->
<g id="edge22" class="edge"><title>Node1&#45;&gt;Node12</title>
<path fill="none" stroke="midnightblue" d="M938.413,-168.439C985.238,-160.615 1055.32,-148.136 1125.75,-131.871"/>
<polygon fill="midnightblue" stroke="midnightblue" points="1126.74,-135.233 1135.69,-129.551 1125.15,-128.416 1126.74,-135.233"/>
</g>
<!-- Node13 -->
<g id="node25" class="node"><title>Node13</title>
<polygon fill="none" stroke="#bfbfbf" points="1198,-112.5 1198,-131.5 1248,-131.5 1248,-112.5 1198,-112.5"/>
<text text-anchor="middle" x="1223" y="-119.5" font-family="Helvetica,sans-Serif" font-size="10.00">signal.h</text>
</g>
<!-- Node1&#45;&gt;Node13 -->
<g id="edge24" class="edge"><title>Node1&#45;&gt;Node13</title>
<path fill="none" stroke="midnightblue" d="M956.688,-168.495C1018.32,-160.673 1109.42,-147.893 1188,-132 1188.1,-131.98 1188.2,-131.959 1188.3,-131.939"/>
<polygon fill="midnightblue" stroke="midnightblue" points="1188.84,-135.404 1197.84,-129.805 1187.31,-128.573 1188.84,-135.404"/>
</g>
<!-- Node14 -->
<g id="node27" class="node"><title>Node14</title>
<polygon fill="none" stroke="#bfbfbf" points="1266.5,-112.5 1266.5,-131.5 1315.5,-131.5 1315.5,-112.5 1266.5,-112.5"/>
<text text-anchor="middle" x="1291" y="-119.5" font-family="Helvetica,sans-Serif" font-size="10.00">ctype.h</text>
</g>
<!-- Node1&#45;&gt;Node14 -->
<g id="edge26" class="edge"><title>Node1&#45;&gt;Node14</title>
<path fill="none" stroke="midnightblue" d="M987.032,-168.495C1059.62,-161.546 1159.54,-150.164 1256.26,-131.893"/>
<polygon fill="midnightblue" stroke="midnightblue" points="1257.05,-135.306 1266.21,-129.987 1255.73,-128.431 1257.05,-135.306"/>
</g>
<!-- Node15 -->
<g id="node29" class="node"><title>Node15</title>
<polygon fill="none" stroke="#bfbfbf" points="1334,-112.5 1334,-131.5 1396,-131.5 1396,-112.5 1334,-112.5"/>
<text text-anchor="middle" x="1365" y="-119.5" font-family="Helvetica,sans-Serif" font-size="10.00">sys/time.h</text>
</g>
<!-- Node1&#45;&gt;Node15 -->
<g id="edge28" class="edge"><title>Node1&#45;&gt;Node15</title>
<path fill="none" stroke="midnightblue" d="M1004.26,-168.47C1090.32,-161.445 1209.42,-149.942 1323.75,-131.848"/>
<polygon fill="midnightblue" stroke="midnightblue" points="1324.41,-135.286 1333.73,-130.249 1323.3,-128.374 1324.41,-135.286"/>
</g>
<!-- Node16 -->
<g id="node31" class="node"><title>Node16</title>
<polygon fill="none" stroke="#bfbfbf" points="1414,-112.5 1414,-131.5 1476,-131.5 1476,-112.5 1414,-112.5"/>
<text text-anchor="middle" x="1445" y="-119.5" font-family="Helvetica,sans-Serif" font-size="10.00">arpa/inet.h</text>
</g>
<!-- Node1&#45;&gt;Node16 -->
<g id="edge30" class="edge"><title>Node1&#45;&gt;Node16</title>
<path fill="none" stroke="midnightblue" d="M1039.19,-168.882C1140.13,-162.314 1275.02,-151.172 1403.7,-131.828"/>
<polygon fill="midnightblue" stroke="midnightblue" points="1404.38,-135.264 1413.74,-130.3 1403.33,-128.344 1404.38,-135.264"/>
</g>
<!-- Node17 -->
<g id="node33" class="node"><title>Node17</title>
<polygon fill="none" stroke="#bfbfbf" points="0,-0.5 0,-19.5 128,-19.5 128,-0.5 0,-0.5"/>
<text text-anchor="middle" x="64" y="-7.5" font-family="Helvetica,sans-Serif" font-size="10.00">freeradius&#45;devel/radiusd.h</text>
</g>
<!-- Node1&#45;&gt;Node17 -->
<g id="edge32" class="edge"><title>Node1&#45;&gt;Node17</title>
<path fill="none" stroke="midnightblue" d="M730.74,-174.488C604.645,-170.359 422.179,-159.635 265,-132 174.93,-116.164 123.837,-147.645 67,-76 56.8067,-63.1508 57.2105,-43.9691 59.4699,-29.7707"/>
<polygon fill="midnightblue" stroke="midnightblue" points="62.9612,-30.1637 61.5129,-19.6683 56.1001,-28.7762 62.9612,-30.1637"/>
</g>
<!-- Node18 -->
<g id="node35" class="node"><title>Node18</title>
<polygon fill="none" stroke="#bfbfbf" points="1493.5,-112.5 1493.5,-131.5 1600.5,-131.5 1600.5,-112.5 1493.5,-112.5"/>
<text text-anchor="middle" x="1547" y="-119.5" font-family="Helvetica,sans-Serif" font-size="10.00">freeradius&#45;devel/tls.h</text>
</g>
<!-- Node1&#45;&gt;Node18 -->
<g id="edge34" class="edge"><title>Node1&#45;&gt;Node18</title>
<path fill="none" stroke="midnightblue" d="M1035.42,-168.497C1154.23,-161.121 1324.45,-149.097 1483.44,-131.985"/>
<polygon fill="midnightblue" stroke="midnightblue" points="1483.85,-135.462 1493.41,-130.904 1483.1,-128.503 1483.85,-135.462"/>
</g>
<!-- Node19 -->
<g id="node37" class="node"><title>Node19</title>
<a xlink:href="eap_8h.html" target="_top" xlink:title="eap.h">
<polygon fill="none" stroke="black" points="274.5,-112.5 274.5,-131.5 315.5,-131.5 315.5,-112.5 274.5,-112.5"/>
<text text-anchor="middle" x="295" y="-119.5" font-family="Helvetica,sans-Serif" font-size="10.00">eap.h</text>
</a>
</g>
<!-- Node1&#45;&gt;Node19 -->
<g id="edge36" class="edge"><title>Node1&#45;&gt;Node19</title>
<path fill="none" stroke="midnightblue" d="M791.838,-168.473C656.377,-156.075 411.833,-133.693 325.884,-125.827"/>
<polygon fill="midnightblue" stroke="midnightblue" points="326.025,-122.325 315.747,-124.899 325.386,-129.296 326.025,-122.325"/>
</g>
<!-- Node19&#45;&gt;Node2 -->
<g id="edge38" class="edge"><title>Node19&#45;&gt;Node2</title>
<path fill="none" stroke="midnightblue" d="M315.672,-112.372C332.175,-104.695 355.091,-92.1839 371,-76 384.202,-62.5702 394.321,-43.4951 400.612,-29.4815"/>
<polygon fill="midnightblue" stroke="midnightblue" points="403.981,-30.5019 404.665,-19.9291 397.537,-27.7677 403.981,-30.5019"/>
</g>
<!-- Node19&#45;&gt;Node17 -->
<g id="edge40" class="edge"><title>Node19&#45;&gt;Node17</title>
<path fill="none" stroke="midnightblue" d="M274.4,-119.287C226.75,-114.92 110.863,-101.842 83,-76 70.3486,-64.2662 65.9585,-44.6225 64.5155,-29.995"/>
<polygon fill="midnightblue" stroke="midnightblue" points="67.9835,-29.3579 63.8885,-19.5865 60.9962,-29.7789 67.9835,-29.3579"/>
</g>
<!-- Node20 -->
<g id="node41" class="node"><title>Node20</title>
<polygon fill="none" stroke="#bfbfbf" points="197,-0.5 197,-19.5 331,-19.5 331,-0.5 197,-0.5"/>
<text text-anchor="middle" x="264" y="-7.5" font-family="Helvetica,sans-Serif" font-size="10.00">freeradius&#45;devel/modules.h</text>
</g>
<!-- Node19&#45;&gt;Node20 -->
<g id="edge42" class="edge"><title>Node19&#45;&gt;Node20</title>
<path fill="none" stroke="midnightblue" d="M292.567,-112.368C287.542,-94.5366 275.92,-53.2953 269.149,-29.2717"/>
<polygon fill="midnightblue" stroke="midnightblue" points="272.503,-28.2671 266.421,-19.5914 265.765,-30.1659 272.503,-28.2671"/>
</g>
<!-- Node21 -->
<g id="node43" class="node"><title>Node21</title>
<polygon fill="none" stroke="#bfbfbf" points="92.5,-56.5 92.5,-75.5 235.5,-75.5 235.5,-56.5 92.5,-56.5"/>
<text text-anchor="middle" x="164" y="-63.5" font-family="Helvetica,sans-Serif" font-size="10.00">freeradius&#45;devel/rad_assert.h</text>
</g>
<!-- Node19&#45;&gt;Node21 -->
<g id="edge44" class="edge"><title>Node19&#45;&gt;Node21</title>
<path fill="none" stroke="midnightblue" d="M274.243,-112.444C252.684,-103.557 218.737,-89.5632 194.206,-79.4514"/>
<polygon fill="midnightblue" stroke="midnightblue" points="195.239,-76.0917 184.66,-75.5164 192.572,-82.5634 195.239,-76.0917"/>
</g>
<!-- Node22 -->
<g id="node45" class="node"><title>Node22</title>
<a xlink:href="eap__types_8h.html" target="_top" xlink:title="eap_types.h">
<polygon fill="none" stroke="black" points="292,-56.5 292,-75.5 362,-75.5 362,-56.5 292,-56.5"/>
<text text-anchor="middle" x="327" y="-63.5" font-family="Helvetica,sans-Serif" font-size="10.00">eap_types.h</text>
</a>
</g>
<!-- Node19&#45;&gt;Node22 -->
<g id="edge46" class="edge"><title>Node19&#45;&gt;Node22</title>
<path fill="none" stroke="midnightblue" d="M300.284,-112.083C304.711,-104.613 311.163,-93.7244 316.618,-84.5199"/>
<polygon fill="midnightblue" stroke="midnightblue" points="319.727,-86.1383 321.814,-75.7511 313.705,-82.5697 319.727,-86.1383"/>
</g>
<!-- Node22&#45;&gt;Node2 -->
<g id="edge48" class="edge"><title>Node22&#45;&gt;Node2</title>
<path fill="none" stroke="midnightblue" d="M340.014,-56.324C352.532,-47.979 371.682,-35.2122 386.471,-25.3524"/>
<polygon fill="midnightblue" stroke="midnightblue" points="388.639,-28.1137 395.018,-19.6545 384.756,-22.2894 388.639,-28.1137"/>
</g>
<!-- Node22&#45;&gt;Node17 -->
<g id="edge50" class="edge"><title>Node22&#45;&gt;Node17</title>
<path fill="none" stroke="midnightblue" d="M291.804,-57.7734C246.532,-48.478 167.55,-32.2612 115.514,-21.5771"/>
<polygon fill="midnightblue" stroke="midnightblue" points="115.984,-18.1006 105.484,-19.5177 114.576,-24.9575 115.984,-18.1006"/>
</g>
<!-- Node22&#45;&gt;Node20 -->
<g id="edge52" class="edge"><title>Node22&#45;&gt;Node20</title>
<path fill="none" stroke="midnightblue" d="M316.878,-56.324C307.474,-48.2631 293.256,-36.0765 281.931,-26.3695"/>
<polygon fill="midnightblue" stroke="midnightblue" points="284.177,-23.6844 274.306,-19.8339 279.621,-28.9993 284.177,-23.6844"/>
</g>
</g>
</svg>
        <g id="navigator" transform="translate(0 0)" fill="#404254">
                <rect fill="#f2f5e9" fill-opacity="0.5" stroke="#606060" stroke-width=".5" x="0" y="0" width="60" height="60"/>
                <use id="zoomplus" xlink:href="#zoomPlus" x="17" y="9" onmousedown="handleZoom(evt,'in')"/>
                <use id="zoomminus" xlink:href="#zoomMin" x="42" y="9" onmousedown="handleZoom(evt,'out')"/>
                <use id="reset" xlink:href="#resetDef" x="30" y="36" onmousedown="handleReset()"/>
                <g id="arrowUp" xlink:href="#dirArrow" transform="translate(30 24)" onmousedown="handlePan(0,-1)">
                  <use xlink:href="#rim" fill="#404040">
                        <set attributeName="fill" to="#808080" begin="arrowUp.mouseover" end="arrowUp.mouseout"/>
                  </use>
                  <path fill="none" stroke="white" stroke-width="1.5" d="M0,-3.0v7 M-2.5,-0.5L0,-3.0L2.5,-0.5"/>
                </g>
                <g id="arrowRight" xlink:href="#dirArrow" transform="rotate(90) translate(36 -43)" onmousedown="handlePan(1,0)">
                  <use xlink:href="#rim" fill="#404040">
                        <set attributeName="fill" to="#808080" begin="arrowRight.mouseover" end="arrowRight.mouseout"/>
                  </use>
                  <path fill="none" stroke="white" stroke-width="1.5" d="M0,-3.0v7 M-2.5,-0.5L0,-3.0L2.5,-0.5"/>
                </g>
                <g id="arrowDown" xlink:href="#dirArrow" transform="rotate(180) translate(-30 -48)" onmousedown="handlePan(0,1)">
                  <use xlink:href="#rim" fill="#404040">
                        <set attributeName="fill" to="#808080" begin="arrowDown.mouseover" end="arrowDown.mouseout"/>
                  </use>
                  <path fill="none" stroke="white" stroke-width="1.5" d="M0,-3.0v7 M-2.5,-0.5L0,-3.0L2.5,-0.5"/>
                </g>
                <g id="arrowLeft" xlink:href="#dirArrow" transform="rotate(270) translate(-36 17)" onmousedown="handlePan(-1,0)">
                  <use xlink:href="#rim" fill="#404040">
                        <set attributeName="fill" to="#808080" begin="arrowLeft.mouseover" end="arrowLeft.mouseout"/>
                  </use>
                  <path fill="none" stroke="white" stroke-width="1.5" d="M0,-3.0v7 M-2.5,-0.5L0,-3.0L2.5,-0.5"/>
                </g>
        </g>
</svg>
