<?xml version="1.0" encoding="UTF-8" standalone="no"?>
<!DOCTYPE svg PUBLIC "-//W3C//DTD SVG 1.1//EN"
 "http://www.w3.org/Graphics/SVG/1.1/DTD/svg11.dtd">
<!-- Generated by graphviz version 2.28.0 (20111211.2114)
 -->
<!-- Title: G Pages: 1 -->
<svg width="452pt" height="140pt"
 viewBox="0.00 0.00 452.00 140.00" xmlns="http://www.w3.org/2000/svg" xmlns:xlink="http://www.w3.org/1999/xlink">
<g id="graph1" class="graph" transform="scale(1 1) rotate(0) translate(4 136)">
<title>G</title>
<!-- Node1 -->
<g id="node1" class="node"><title>Node1</title>
<polygon fill="#bfbfbf" stroke="black" points="0,-112.5 0,-131.5 314,-131.5 314,-112.5 0,-112.5"/>
<text text-anchor="middle" x="157" y="-119.5" font-family="Helvetica,sans-Serif" font-size="10.00">/home/pjm3/freeradius&#45;server/src/modules/rlm_eap/libeap/eap_sim.h</text>
</g>
<!-- Node2 -->
<g id="node3" class="node"><title>Node2</title>
<polygon fill="none" stroke="#bfbfbf" points="28,-0.5 28,-19.5 146,-19.5 146,-0.5 28,-0.5"/>
<text text-anchor="middle" x="87" y="-7.5" font-family="Helvetica,sans-Serif" font-size="10.00">freeradius&#45;devel/ident.h</text>
</g>
<!-- Node1&#45;&gt;Node2 -->
<g id="edge2" class="edge"><title>Node1&#45;&gt;Node2</title>
<path fill="none" stroke="midnightblue" d="M151.507,-112.368C140.006,-94.2957 113.203,-52.1764 98.0138,-28.3074"/>
<polygon fill="midnightblue" stroke="midnightblue" points="100.789,-26.149 92.4673,-19.5914 94.8832,-29.9071 100.789,-26.149"/>
</g>
<!-- Node3 -->
<g id="node5" class="node"><title>Node3</title>
<a xlink:href="eap__types_8h.html" target="_top" xlink:title="eap_types.h">
<polygon fill="none" stroke="black" points="173,-56.5 173,-75.5 243,-75.5 243,-56.5 173,-56.5"/>
<text text-anchor="middle" x="208" y="-63.5" font-family="Helvetica,sans-Serif" font-size="10.00">eap_types.h</text>
</a>
</g>
<!-- Node1&#45;&gt;Node3 -->
<g id="edge4" class="edge"><title>Node1&#45;&gt;Node3</title>
<path fill="none" stroke="midnightblue" d="M165.422,-112.083C172.848,-104.22 183.852,-92.5688 192.812,-83.0813"/>
<polygon fill="midnightblue" stroke="midnightblue" points="195.413,-85.4244 199.735,-75.7511 190.324,-80.618 195.413,-85.4244"/>
</g>
<!-- Node3&#45;&gt;Node2 -->
<g id="edge6" class="edge"><title>Node3&#45;&gt;Node2</title>
<path fill="none" stroke="midnightblue" d="M188.827,-56.4435C169.091,-47.6356 138.115,-33.8116 115.507,-23.722"/>
<polygon fill="midnightblue" stroke="midnightblue" points="116.641,-20.3957 106.083,-19.5164 113.789,-26.788 116.641,-20.3957"/>
</g>
<!-- Node4 -->
<g id="node8" class="node"><title>Node4</title>
<polygon fill="none" stroke="#bfbfbf" points="164,-0.5 164,-19.5 292,-19.5 292,-0.5 164,-0.5"/>
<text text-anchor="middle" x="228" y="-7.5" font-family="Helvetica,sans-Serif" font-size="10.00">freeradius&#45;devel/radiusd.h</text>
</g>
<!-- Node3&#45;&gt;Node4 -->
<g id="edge8" class="edge"><title>Node3&#45;&gt;Node4</title>
<path fill="none" stroke="midnightblue" d="M211.303,-56.083C213.982,-48.8486 217.849,-38.4087 221.186,-29.3968"/>
<polygon fill="midnightblue" stroke="midnightblue" points="224.568,-30.3442 224.759,-19.7511 218.004,-27.9129 224.568,-30.3442"/>
</g>
<!-- Node5 -->
<g id="node10" class="node"><title>Node5</title>
<polygon fill="none" stroke="#bfbfbf" points="310,-0.5 310,-19.5 444,-19.5 444,-0.5 310,-0.5"/>
<text text-anchor="middle" x="377" y="-7.5" font-family="Helvetica,sans-Serif" font-size="10.00">freeradius&#45;devel/modules.h</text>
</g>
<!-- Node3&#45;&gt;Node5 -->
<g id="edge10" class="edge"><title>Node3&#45;&gt;Node5</title>
<path fill="none" stroke="midnightblue" d="M234.779,-56.4435C263.333,-47.3196 308.733,-32.8133 340.537,-22.6509"/>
<polygon fill="midnightblue" stroke="midnightblue" points="341.886,-25.8941 350.347,-19.5164 339.756,-19.2262 341.886,-25.8941"/>
</g>
</g>
</svg>
