<?xml version="1.0" encoding="UTF-8" standalone="no"?>
<!DOCTYPE svg PUBLIC "-//W3C//DTD SVG 1.1//EN"
 "http://www.w3.org/Graphics/SVG/1.1/DTD/svg11.dtd">
<!-- Generated by graphviz version 2.28.0 (20111211.2114)
 -->
<!-- Title: G Pages: 1 -->
<svg width="496pt" height="252pt"
 viewBox="0.00 0.00 496.00 252.00" xmlns="http://www.w3.org/2000/svg" xmlns:xlink="http://www.w3.org/1999/xlink">
<g id="graph1" class="graph" transform="scale(1 1) rotate(0) translate(4 248)">
<title>G</title>
<!-- Node1 -->
<g id="node1" class="node"><title>Node1</title>
<polygon fill="#bfbfbf" stroke="black" points="38,-224.5 38,-243.5 404,-243.5 404,-224.5 38,-224.5"/>
<text text-anchor="middle" x="221" y="-231.5" font-family="Helvetica,sans-Serif" font-size="10.00">/home/pjm3/freeradius&#45;server/src/modules/rlm_eap/types/rlm_eap_tnc/eap_tnc.c</text>
</g>
<!-- Node2 -->
<g id="node3" class="node"><title>Node2</title>
<polygon fill="none" stroke="#bfbfbf" points="0,-0.5 0,-19.5 118,-19.5 118,-0.5 0,-0.5"/>
<text text-anchor="middle" x="59" y="-7.5" font-family="Helvetica,sans-Serif" font-size="10.00">freeradius&#45;devel/ident.h</text>
</g>
<!-- Node1&#45;&gt;Node2 -->
<g id="edge2" class="edge"><title>Node1&#45;&gt;Node2</title>
<path fill="none" stroke="midnightblue" d="M190.532,-224.453C169.803,-217.4 142.824,-205.65 124,-188 82.6511,-149.23 78.6693,-130.473 63,-76 58.6487,-60.8732 57.8471,-42.9757 58.0213,-29.7947"/>
<polygon fill="midnightblue" stroke="midnightblue" points="61.5255,-29.7248 58.3608,-19.6136 54.5293,-29.4914 61.5255,-29.7248"/>
</g>
<!-- Node3 -->
<g id="node5" class="node"><title>Node3</title>
<polygon fill="none" stroke="#bfbfbf" points="249,-168.5 249,-187.5 295,-187.5 295,-168.5 249,-168.5"/>
<text text-anchor="middle" x="272" y="-175.5" font-family="Helvetica,sans-Serif" font-size="10.00">stdio.h</text>
</g>
<!-- Node1&#45;&gt;Node3 -->
<g id="edge4" class="edge"><title>Node1&#45;&gt;Node3</title>
<path fill="none" stroke="midnightblue" d="M229.422,-224.083C236.848,-216.22 247.852,-204.569 256.812,-195.081"/>
<polygon fill="midnightblue" stroke="midnightblue" points="259.413,-197.424 263.735,-187.751 254.324,-192.618 259.413,-197.424"/>
</g>
<!-- Node4 -->
<g id="node7" class="node"><title>Node4</title>
<polygon fill="none" stroke="#bfbfbf" points="313,-168.5 313,-187.5 361,-187.5 361,-168.5 313,-168.5"/>
<text text-anchor="middle" x="337" y="-175.5" font-family="Helvetica,sans-Serif" font-size="10.00">stdlib.h</text>
</g>
<!-- Node1&#45;&gt;Node4 -->
<g id="edge6" class="edge"><title>Node1&#45;&gt;Node4</title>
<path fill="none" stroke="midnightblue" d="M239.381,-224.444C258.216,-215.675 287.731,-201.935 309.379,-191.858"/>
<polygon fill="midnightblue" stroke="midnightblue" points="311.117,-194.91 318.705,-187.516 308.162,-188.564 311.117,-194.91"/>
</g>
<!-- Node5 -->
<g id="node9" class="node"><title>Node5</title>
<a xlink:href="eap_8h.html" target="_top" xlink:title="eap.h">
<polygon fill="none" stroke="black" points="200.5,-112.5 200.5,-131.5 241.5,-131.5 241.5,-112.5 200.5,-112.5"/>
<text text-anchor="middle" x="221" y="-119.5" font-family="Helvetica,sans-Serif" font-size="10.00">eap.h</text>
</a>
</g>
<!-- Node1&#45;&gt;Node5 -->
<g id="edge8" class="edge"><title>Node1&#45;&gt;Node5</title>
<path fill="none" stroke="midnightblue" d="M221,-224.368C221,-206.617 221,-165.666 221,-141.597"/>
<polygon fill="midnightblue" stroke="midnightblue" points="224.5,-141.591 221,-131.591 217.5,-141.591 224.5,-141.591"/>
</g>
<!-- Node10 -->
<g id="node23" class="node"><title>Node10</title>
<a xlink:href="eap__tnc_8h.html" target="_top" xlink:title="eap_tnc.h">
<polygon fill="none" stroke="black" points="133.5,-168.5 133.5,-187.5 192.5,-187.5 192.5,-168.5 133.5,-168.5"/>
<text text-anchor="middle" x="163" y="-175.5" font-family="Helvetica,sans-Serif" font-size="10.00">eap_tnc.h</text>
</a>
</g>
<!-- Node1&#45;&gt;Node10 -->
<g id="edge26" class="edge"><title>Node1&#45;&gt;Node10</title>
<path fill="none" stroke="midnightblue" d="M211.681,-224.324C203.107,-216.341 190.188,-204.313 179.812,-194.653"/>
<polygon fill="midnightblue" stroke="midnightblue" points="182.192,-192.086 172.488,-187.834 177.422,-197.21 182.192,-192.086"/>
</g>
<!-- Node5&#45;&gt;Node2 -->
<g id="edge10" class="edge"><title>Node5&#45;&gt;Node2</title>
<path fill="none" stroke="midnightblue" d="M200.371,-120.375C169.441,-118.306 111.15,-109.836 78,-76 66.0542,-63.8069 61.547,-44.5372 59.8833,-30.1395"/>
<polygon fill="midnightblue" stroke="midnightblue" points="63.3483,-29.5586 59.0708,-19.8657 56.3701,-30.1105 63.3483,-29.5586"/>
</g>
<!-- Node6 -->
<g id="node12" class="node"><title>Node6</title>
<polygon fill="none" stroke="#bfbfbf" points="208,-0.5 208,-19.5 336,-19.5 336,-0.5 208,-0.5"/>
<text text-anchor="middle" x="272" y="-7.5" font-family="Helvetica,sans-Serif" font-size="10.00">freeradius&#45;devel/radiusd.h</text>
</g>
<!-- Node5&#45;&gt;Node6 -->
<g id="edge12" class="edge"><title>Node5&#45;&gt;Node6</title>
<path fill="none" stroke="midnightblue" d="M241.806,-118.97C267.112,-115.261 308.821,-104.872 328,-76 340.636,-56.9782 318.052,-37.4273 297.902,-24.8034"/>
<polygon fill="midnightblue" stroke="midnightblue" points="299.627,-21.7573 289.238,-19.6782 296.063,-27.7821 299.627,-21.7573"/>
</g>
<!-- Node7 -->
<g id="node14" class="node"><title>Node7</title>
<polygon fill="none" stroke="#bfbfbf" points="354,-0.5 354,-19.5 488,-19.5 488,-0.5 354,-0.5"/>
<text text-anchor="middle" x="421" y="-7.5" font-family="Helvetica,sans-Serif" font-size="10.00">freeradius&#45;devel/modules.h</text>
</g>
<!-- Node5&#45;&gt;Node7 -->
<g id="edge14" class="edge"><title>Node5&#45;&gt;Node7</title>
<path fill="none" stroke="midnightblue" d="M241.553,-115.867C266.788,-109.04 310.372,-95.5191 344,-76 367.49,-62.3657 390.808,-41.3629 405.523,-26.9431"/>
<polygon fill="midnightblue" stroke="midnightblue" points="408.169,-29.2466 412.76,-19.698 403.217,-24.2997 408.169,-29.2466"/>
</g>
<!-- Node8 -->
<g id="node16" class="node"><title>Node8</title>
<polygon fill="none" stroke="#bfbfbf" points="87.5,-56.5 87.5,-75.5 230.5,-75.5 230.5,-56.5 87.5,-56.5"/>
<text text-anchor="middle" x="159" y="-63.5" font-family="Helvetica,sans-Serif" font-size="10.00">freeradius&#45;devel/rad_assert.h</text>
</g>
<!-- Node5&#45;&gt;Node8 -->
<g id="edge16" class="edge"><title>Node5&#45;&gt;Node8</title>
<path fill="none" stroke="midnightblue" d="M211.039,-112.324C201.873,-104.341 188.063,-92.3128 176.972,-82.6529"/>
<polygon fill="midnightblue" stroke="midnightblue" points="178.982,-79.7624 169.143,-75.8339 174.385,-85.041 178.982,-79.7624"/>
</g>
<!-- Node9 -->
<g id="node18" class="node"><title>Node9</title>
<a xlink:href="eap__types_8h.html" target="_top" xlink:title="eap_types.h">
<polygon fill="none" stroke="black" points="249,-56.5 249,-75.5 319,-75.5 319,-56.5 249,-56.5"/>
<text text-anchor="middle" x="284" y="-63.5" font-family="Helvetica,sans-Serif" font-size="10.00">eap_types.h</text>
</a>
</g>
<!-- Node5&#45;&gt;Node9 -->
<g id="edge18" class="edge"><title>Node5&#45;&gt;Node9</title>
<path fill="none" stroke="midnightblue" d="M231.122,-112.324C240.526,-104.263 254.744,-92.0765 266.069,-82.3695"/>
<polygon fill="midnightblue" stroke="midnightblue" points="268.379,-84.9993 273.694,-75.8339 263.823,-79.6844 268.379,-84.9993"/>
</g>
<!-- Node9&#45;&gt;Node2 -->
<g id="edge20" class="edge"><title>Node9&#45;&gt;Node2</title>
<path fill="none" stroke="midnightblue" d="M248.844,-56.5625C209.94,-47.2256 147.119,-32.1485 104.492,-21.9181"/>
<polygon fill="midnightblue" stroke="midnightblue" points="105.193,-18.4869 94.6519,-19.5565 103.559,-25.2936 105.193,-18.4869"/>
</g>
<!-- Node9&#45;&gt;Node6 -->
<g id="edge22" class="edge"><title>Node9&#45;&gt;Node6</title>
<path fill="none" stroke="midnightblue" d="M282.018,-56.083C280.428,-48.9272 278.141,-38.6353 276.154,-29.6911"/>
<polygon fill="midnightblue" stroke="midnightblue" points="279.531,-28.7537 273.945,-19.7511 272.697,-30.2722 279.531,-28.7537"/>
</g>
<!-- Node9&#45;&gt;Node7 -->
<g id="edge24" class="edge"><title>Node9&#45;&gt;Node7</title>
<path fill="none" stroke="midnightblue" d="M305.708,-56.4435C328.355,-47.5171 364.072,-33.4387 389.752,-23.3168"/>
<polygon fill="midnightblue" stroke="midnightblue" points="391.374,-26.4397 399.394,-19.5164 388.807,-19.9273 391.374,-26.4397"/>
</g>
<!-- Node10&#45;&gt;Node5 -->
<g id="edge28" class="edge"><title>Node10&#45;&gt;Node5</title>
<path fill="none" stroke="midnightblue" d="M172.319,-168.324C180.893,-160.341 193.812,-148.313 204.188,-138.653"/>
<polygon fill="midnightblue" stroke="midnightblue" points="206.578,-141.21 211.512,-131.834 201.808,-136.086 206.578,-141.21"/>
</g>
</g>
</svg>
