<?xml version="1.0" encoding="UTF-8" standalone="no"?>
<!DOCTYPE svg PUBLIC "-//W3C//DTD SVG 1.1//EN"
 "http://www.w3.org/Graphics/SVG/1.1/DTD/svg11.dtd">
<!-- Generated by graphviz version 2.28.0 (20111211.2114)
 -->
<!-- Title: G Pages: 1 -->
<svg width="464pt" height="252pt"
 viewBox="0.00 0.00 464.00 252.00" xmlns="http://www.w3.org/2000/svg" xmlns:xlink="http://www.w3.org/1999/xlink">
<g id="graph1" class="graph" transform="scale(1 1) rotate(0) translate(4 248)">
<title>G</title>
<!-- Node1 -->
<g id="node1" class="node"><title>Node1</title>
<polygon fill="#bfbfbf" stroke="black" points="22,-224.5 22,-243.5 286,-243.5 286,-224.5 22,-224.5"/>
<text text-anchor="middle" x="154" y="-231.5" font-family="Helvetica,sans-Serif" font-size="10.00">/home/pjm3/freeradius&#45;server/src/modules/rlm_eap/eap.c</text>
</g>
<!-- Node2 -->
<g id="node3" class="node"><title>Node2</title>
<polygon fill="none" stroke="#bfbfbf" points="0,-0.5 0,-19.5 118,-19.5 118,-0.5 0,-0.5"/>
<text text-anchor="middle" x="59" y="-7.5" font-family="Helvetica,sans-Serif" font-size="10.00">freeradius&#45;devel/ident.h</text>
</g>
<!-- Node1&#45;&gt;Node2 -->
<g id="edge2" class="edge"><title>Node1&#45;&gt;Node2</title>
<path fill="none" stroke="midnightblue" d="M144.827,-224.481C136.12,-215.966 123.181,-202.138 115,-188 84.3867,-135.097 68.3985,-63.4427 62.1667,-29.8496"/>
<polygon fill="midnightblue" stroke="midnightblue" points="65.5504,-28.8848 60.3613,-19.6477 58.6575,-30.1046 65.5504,-28.8848"/>
</g>
<!-- Node3 -->
<g id="node5" class="node"><title>Node3</title>
<polygon fill="none" stroke="#bfbfbf" points="217.5,-112.5 217.5,-131.5 348.5,-131.5 348.5,-112.5 217.5,-112.5"/>
<text text-anchor="middle" x="283" y="-119.5" font-family="Helvetica,sans-Serif" font-size="10.00">freeradius&#45;devel/modpriv.h</text>
</g>
<!-- Node1&#45;&gt;Node3 -->
<g id="edge4" class="edge"><title>Node1&#45;&gt;Node3</title>
<path fill="none" stroke="midnightblue" d="M164.122,-224.368C185.976,-205.733 237.812,-161.532 265.252,-138.134"/>
<polygon fill="midnightblue" stroke="midnightblue" points="267.586,-140.743 272.925,-131.591 263.044,-135.417 267.586,-140.743"/>
</g>
<!-- Node4 -->
<g id="node7" class="node"><title>Node4</title>
<a xlink:href="rlm__eap_8h.html" target="_top" xlink:title="rlm_eap.h">
<polygon fill="none" stroke="black" points="124.5,-168.5 124.5,-187.5 183.5,-187.5 183.5,-168.5 124.5,-168.5"/>
<text text-anchor="middle" x="154" y="-175.5" font-family="Helvetica,sans-Serif" font-size="10.00">rlm_eap.h</text>
</a>
</g>
<!-- Node1&#45;&gt;Node4 -->
<g id="edge6" class="edge"><title>Node1&#45;&gt;Node4</title>
<path fill="none" stroke="midnightblue" d="M154,-224.083C154,-217.006 154,-206.861 154,-197.986"/>
<polygon fill="midnightblue" stroke="midnightblue" points="157.5,-197.751 154,-187.751 150.5,-197.751 157.5,-197.751"/>
</g>
<!-- Node4&#45;&gt;Node2 -->
<g id="edge8" class="edge"><title>Node4&#45;&gt;Node2</title>
<path fill="none" stroke="midnightblue" d="M147.835,-168.337C135.759,-151.178 108.47,-111.46 89,-76 80.504,-60.5264 72.2009,-42.2147 66.4919,-28.9771"/>
<polygon fill="midnightblue" stroke="midnightblue" points="69.6417,-27.4398 62.5153,-19.5998 63.1972,-30.1727 69.6417,-27.4398"/>
</g>
<!-- Node4&#45;&gt;Node3 -->
<g id="edge10" class="edge"><title>Node4&#45;&gt;Node3</title>
<path fill="none" stroke="midnightblue" d="M174.44,-168.444C195.67,-159.557 229.099,-145.563 253.255,-135.451"/>
<polygon fill="midnightblue" stroke="midnightblue" points="254.782,-138.606 262.655,-131.516 252.079,-132.149 254.782,-138.606"/>
</g>
<!-- Node5 -->
<g id="node11" class="node"><title>Node5</title>
<a xlink:href="eap_8h.html" target="_top" xlink:title="eap.h">
<polygon fill="none" stroke="black" points="158.5,-112.5 158.5,-131.5 199.5,-131.5 199.5,-112.5 158.5,-112.5"/>
<text text-anchor="middle" x="179" y="-119.5" font-family="Helvetica,sans-Serif" font-size="10.00">eap.h</text>
</a>
</g>
<!-- Node4&#45;&gt;Node5 -->
<g id="edge12" class="edge"><title>Node4&#45;&gt;Node5</title>
<path fill="none" stroke="midnightblue" d="M158.128,-168.083C161.514,-160.77 166.416,-150.181 170.619,-141.103"/>
<polygon fill="midnightblue" stroke="midnightblue" points="173.923,-142.296 174.949,-131.751 167.571,-139.355 173.923,-142.296"/>
</g>
<!-- Node9 -->
<g id="node20" class="node"><title>Node9</title>
<a xlink:href="eap__types_8h.html" target="_top" xlink:title="eap_types.h">
<polygon fill="none" stroke="black" points="120,-56.5 120,-75.5 190,-75.5 190,-56.5 120,-56.5"/>
<text text-anchor="middle" x="155" y="-63.5" font-family="Helvetica,sans-Serif" font-size="10.00">eap_types.h</text>
</a>
</g>
<!-- Node4&#45;&gt;Node9 -->
<g id="edge30" class="edge"><title>Node4&#45;&gt;Node9</title>
<path fill="none" stroke="midnightblue" d="M152.519,-168.173C150.604,-155.674 147.666,-132.102 149,-112 149.575,-103.341 150.765,-93.8054 151.935,-85.7496"/>
<polygon fill="midnightblue" stroke="midnightblue" points="155.436,-86.0109 153.509,-75.5928 148.519,-84.9388 155.436,-86.0109"/>
</g>
<!-- Node5&#45;&gt;Node2 -->
<g id="edge14" class="edge"><title>Node5&#45;&gt;Node2</title>
<path fill="none" stroke="midnightblue" d="M163.163,-112.425C148.71,-104.176 127.199,-90.8009 111,-76 95.2235,-61.5852 80.3227,-42.1353 70.5499,-28.2768"/>
<polygon fill="midnightblue" stroke="midnightblue" points="73.2062,-25.9626 64.6556,-19.7065 67.4385,-29.9293 73.2062,-25.9626"/>
</g>
<!-- Node6 -->
<g id="node14" class="node"><title>Node6</title>
<polygon fill="none" stroke="#bfbfbf" points="328,-0.5 328,-19.5 456,-19.5 456,-0.5 328,-0.5"/>
<text text-anchor="middle" x="392" y="-7.5" font-family="Helvetica,sans-Serif" font-size="10.00">freeradius&#45;devel/radiusd.h</text>
</g>
<!-- Node5&#45;&gt;Node6 -->
<g id="edge16" class="edge"><title>Node5&#45;&gt;Node6</title>
<path fill="none" stroke="midnightblue" d="M199.514,-114.317C202.35,-113.486 205.238,-112.688 208,-112 291.399,-91.2292 343.174,-142.189 398,-76 408.704,-63.0778 405.019,-43.36 400.009,-29.03"/>
<polygon fill="midnightblue" stroke="midnightblue" points="403.256,-27.7246 396.313,-19.7219 396.75,-30.3077 403.256,-27.7246"/>
</g>
<!-- Node7 -->
<g id="node16" class="node"><title>Node7</title>
<polygon fill="none" stroke="#bfbfbf" points="146,-0.5 146,-19.5 280,-19.5 280,-0.5 146,-0.5"/>
<text text-anchor="middle" x="213" y="-7.5" font-family="Helvetica,sans-Serif" font-size="10.00">freeradius&#45;devel/modules.h</text>
</g>
<!-- Node5&#45;&gt;Node7 -->
<g id="edge18" class="edge"><title>Node5&#45;&gt;Node7</title>
<path fill="none" stroke="midnightblue" d="M183.539,-112.248C188.007,-103.332 194.76,-89.0051 199,-76 203.982,-60.7209 207.686,-42.8367 210.028,-29.6996"/>
<polygon fill="midnightblue" stroke="midnightblue" points="213.526,-30.0038 211.734,-19.5616 206.623,-28.8421 213.526,-30.0038"/>
</g>
<!-- Node8 -->
<g id="node18" class="node"><title>Node8</title>
<polygon fill="none" stroke="#bfbfbf" points="246.5,-56.5 246.5,-75.5 389.5,-75.5 389.5,-56.5 246.5,-56.5"/>
<text text-anchor="middle" x="318" y="-63.5" font-family="Helvetica,sans-Serif" font-size="10.00">freeradius&#45;devel/rad_assert.h</text>
</g>
<!-- Node5&#45;&gt;Node8 -->
<g id="edge20" class="edge"><title>Node5&#45;&gt;Node8</title>
<path fill="none" stroke="midnightblue" d="M199.51,-113.032C222.411,-104.135 259.752,-89.6286 286.394,-79.2788"/>
<polygon fill="midnightblue" stroke="midnightblue" points="287.974,-82.4197 296.028,-75.536 285.439,-75.8948 287.974,-82.4197"/>
</g>
<!-- Node5&#45;&gt;Node9 -->
<g id="edge22" class="edge"><title>Node5&#45;&gt;Node9</title>
<path fill="none" stroke="midnightblue" d="M175.037,-112.083C171.787,-104.77 167.081,-94.1814 163.046,-85.1034"/>
<polygon fill="midnightblue" stroke="midnightblue" points="166.149,-83.4677 158.889,-75.7511 159.752,-86.3107 166.149,-83.4677"/>
</g>
<!-- Node9&#45;&gt;Node2 -->
<g id="edge24" class="edge"><title>Node9&#45;&gt;Node2</title>
<path fill="none" stroke="midnightblue" d="M139.576,-56.324C124.46,-47.8215 101.185,-34.7288 83.5288,-24.7975"/>
<polygon fill="midnightblue" stroke="midnightblue" points="84.8175,-21.5066 74.3858,-19.6545 81.3856,-27.6077 84.8175,-21.5066"/>
</g>
<!-- Node9&#45;&gt;Node6 -->
<g id="edge26" class="edge"><title>Node9&#45;&gt;Node6</title>
<path fill="none" stroke="midnightblue" d="M190.225,-56.974C231.224,-47.6324 299.116,-32.1635 344.688,-21.78"/>
<polygon fill="midnightblue" stroke="midnightblue" points="345.651,-25.1504 354.623,-19.5162 344.096,-18.3253 345.651,-25.1504"/>
</g>
<!-- Node9&#45;&gt;Node7 -->
<g id="edge28" class="edge"><title>Node9&#45;&gt;Node7</title>
<path fill="none" stroke="midnightblue" d="M164.319,-56.324C172.893,-48.3414 185.812,-36.3128 196.188,-26.6529"/>
<polygon fill="midnightblue" stroke="midnightblue" points="198.578,-29.2098 203.512,-19.8339 193.808,-24.0865 198.578,-29.2098"/>
</g>
</g>
</svg>
