<?xml version="1.0" encoding="UTF-8" standalone="no"?>
<!DOCTYPE svg PUBLIC "-//W3C//DTD SVG 1.1//EN"
 "http://www.w3.org/Graphics/SVG/1.1/DTD/svg11.dtd">
<!-- Generated by graphviz version 2.28.0 (20111211.2114)
 -->
<!-- Title: G Pages: 1 -->
<!--zoomable-->
<svg id="main" version="1.1" xmlns="http://www.w3.org/2000/svg" xmlns:xlink="http://www.w3.org/1999/xlink" xml:space="preserve" onload="init(evt)">
        <defs>
                <circle id="rim" cx="0" cy="0" r="7"/>
                <circle id="rim2" cx="0" cy="0" r="3.5"/>
                <g id="zoomPlus">
                        <use xlink:href="#rim" fill="#404040">
                                <set attributeName="fill" to="#808080" begin="zoomplus.mouseover" end="zoomplus.mouseout"/>
                        </use>
                        <path d="M-4,0h8M0,-4v8" fill="none" stroke="white" stroke-width="1.5" pointer-events="none"/>
                </g>
                <g id="zoomMin">
                        <use xlink:href="#rim" fill="#404040">
                                <set attributeName="fill" to="#808080" begin="zoomminus.mouseover" end="zoomminus.mouseout"/>
                        </use>
                        <path d="M-4,0h8" fill="none" stroke="white" stroke-width="1.5" pointer-events="none"/>
                </g>
                <g id="dirArrow">
                        <path fill="none" stroke="white" stroke-width="1.5" d="M0,-3.0v7 M-2.5,-0.5L0,-3.0L2.5,-0.5"/>
                </g>
               <g id="resetDef">
                       <use xlink:href="#rim2" fill="#404040">
                               <set attributeName="fill" to="#808080" begin="reset.mouseover" end="reset.mouseout"/>
                       </use>
               </g>
        </defs>

<script type="text/javascript">
var viewWidth = 7633;
var viewHeight = 196;
var sectionId = 'dynsection-1';
</script>
<script xlink:href="svgpan.js"/>
<svg id="graph" class="graph">
<g id="viewport">
<title>G</title>
<!-- Node1 -->
<g id="node1" class="node"><title>Node1</title>
<polygon fill="#bfbfbf" stroke="black" points="4001,-168.5 4001,-187.5 4265,-187.5 4265,-168.5 4001,-168.5"/>
<text text-anchor="middle" x="4133" y="-175.5" font-family="Helvetica,sans-Serif" font-size="10.00">/home/pjm3/freeradius&#45;server/src/modules/rlm_eap/eap.h</text>
</g>
<!-- Node2 -->
<g id="node3" class="node"><title>Node2</title>
<a xlink:href="rlm__eap_8h.html" target="_top" xlink:title="/home/pjm3/freeradius&#45;server/src/modules/rlm_eap/rlm_eap.h">
<polygon fill="none" stroke="black" points="423.5,-112.5 423.5,-131.5 706.5,-131.5 706.5,-112.5 423.5,-112.5"/>
<text text-anchor="middle" x="565" y="-119.5" font-family="Helvetica,sans-Serif" font-size="10.00">/home/pjm3/freeradius&#45;server/src/modules/rlm_eap/rlm_eap.h</text>
</a>
</g>
<!-- Node1&#45;&gt;Node2 -->
<g id="edge2" class="edge"><title>Node1&#45;&gt;Node2</title>
<path fill="none" stroke="midnightblue" d="M3990.59,-174.845C3417.03,-166.164 1279.6,-133.815 706.92,-125.148"/>
<polygon fill="midnightblue" stroke="midnightblue" points="3990.93,-178.35 4000.98,-175.002 3991.04,-171.351 3990.93,-178.35"/>
</g>
<!-- Node6 -->
<g id="node11" class="node"><title>Node6</title>
<a xlink:href="eap__tls_8h.html" target="_top" xlink:title="/home/pjm3/freeradius&#45;server/src/modules/rlm_eap/libeap/eap_tls.h">
<polygon fill="none" stroke="black" points="1779,-112.5 1779,-131.5 2087,-131.5 2087,-112.5 1779,-112.5"/>
<text text-anchor="middle" x="1933" y="-119.5" font-family="Helvetica,sans-Serif" font-size="10.00">/home/pjm3/freeradius&#45;server/src/modules/rlm_eap/libeap/eap_tls.h</text>
</a>
</g>
<!-- Node1&#45;&gt;Node6 -->
<g id="edge10" class="edge"><title>Node1&#45;&gt;Node6</title>
<path fill="none" stroke="midnightblue" d="M3990.72,-173.508C3596.92,-163.842 2494.85,-136.791 2087.17,-126.784"/>
<polygon fill="midnightblue" stroke="midnightblue" points="3990.66,-177.007 4000.74,-173.754 3990.83,-170.009 3990.66,-177.007"/>
</g>
<!-- Node17 -->
<g id="node33" class="node"><title>Node17</title>
<a xlink:href="rlm__eap__gtc_8c.html" target="_top" xlink:title="/home/pjm3/freeradius&#45;server/src/modules/rlm_eap/types/rlm_eap_gtc/rlm_eap_gtc.c">
<polygon fill="none" stroke="black" points="2753.5,-112.5 2753.5,-131.5 3138.5,-131.5 3138.5,-112.5 2753.5,-112.5"/>
<text text-anchor="middle" x="2946" y="-119.5" font-family="Helvetica,sans-Serif" font-size="10.00">/home/pjm3/freeradius&#45;server/src/modules/rlm_eap/types/rlm_eap_gtc/rlm_eap_gtc.c</text>
</a>
</g>
<!-- Node1&#45;&gt;Node17 -->
<g id="edge32" class="edge"><title>Node1&#45;&gt;Node17</title>
<path fill="none" stroke="midnightblue" d="M3990.81,-170.531C3776.59,-160.786 3370.9,-142.33 3132.98,-131.506"/>
<polygon fill="midnightblue" stroke="midnightblue" points="3990.71,-174.031 4000.86,-170.989 3991.03,-167.038 3990.71,-174.031"/>
</g>
<!-- Node18 -->
<g id="node35" class="node"><title>Node18</title>
<a xlink:href="ike__conf_8h.html" target="_top" xlink:title="/home/pjm3/freeradius&#45;server/src/modules/rlm_eap/types/rlm_eap_ikev2/ike_conf.h">
<polygon fill="none" stroke="black" points="3195,-112.5 3195,-131.5 3573,-131.5 3573,-112.5 3195,-112.5"/>
<text text-anchor="middle" x="3384" y="-119.5" font-family="Helvetica,sans-Serif" font-size="10.00">/home/pjm3/freeradius&#45;server/src/modules/rlm_eap/types/rlm_eap_ikev2/ike_conf.h</text>
</a>
</g>
<!-- Node1&#45;&gt;Node18 -->
<g id="edge34" class="edge"><title>Node1&#45;&gt;Node18</title>
<path fill="none" stroke="midnightblue" d="M4004.72,-167.752C3863.63,-157.579 3638.8,-141.37 3501.96,-131.504"/>
<polygon fill="midnightblue" stroke="midnightblue" points="4004.51,-171.245 4014.73,-168.473 4005.01,-164.263 4004.51,-171.245"/>
</g>
<!-- Node19 -->
<g id="node37" class="node"><title>Node19</title>
<a xlink:href="ike__conf_8c.html" target="_top" xlink:title="/home/pjm3/freeradius&#45;server/src/modules/rlm_eap/types/rlm_eap_ikev2/ike_conf.c">
<polygon fill="none" stroke="black" points="2724,-56.5 2724,-75.5 3102,-75.5 3102,-56.5 2724,-56.5"/>
<text text-anchor="middle" x="2913" y="-63.5" font-family="Helvetica,sans-Serif" font-size="10.00">/home/pjm3/freeradius&#45;server/src/modules/rlm_eap/types/rlm_eap_ikev2/ike_conf.c</text>
</a>
</g>
<!-- Node1&#45;&gt;Node19 -->
<g id="edge40" class="edge"><title>Node1&#45;&gt;Node19</title>
<path fill="none" stroke="midnightblue" d="M3990.29,-177.593C3764.01,-177.292 3333.43,-171.324 3186,-132 3167.18,-126.98 3165.42,-118.348 3147,-112 3094.4,-93.8686 3032.47,-82.3678 2985.55,-75.5351"/>
<polygon fill="midnightblue" stroke="midnightblue" points="3990.58,-181.093 4000.58,-177.603 3990.58,-174.093 3990.58,-181.093"/>
</g>
<!-- Node20 -->
<g id="node39" class="node"><title>Node20</title>
<a xlink:href="rlm__eap__ikev2_8c.html" target="_top" xlink:title="/home/pjm3/freeradius&#45;server/src/modules/rlm_eap/types/rlm_eap_ikev2/rlm_eap_ikev2.c">
<polygon fill="none" stroke="black" points="3120,-56.5 3120,-75.5 3524,-75.5 3524,-56.5 3120,-56.5"/>
<text text-anchor="middle" x="3322" y="-63.5" font-family="Helvetica,sans-Serif" font-size="10.00">/home/pjm3/freeradius&#45;server/src/modules/rlm_eap/types/rlm_eap_ikev2/rlm_eap_ikev2.c</text>
</a>
</g>
<!-- Node1&#45;&gt;Node20 -->
<g id="edge42" class="edge"><title>Node1&#45;&gt;Node20</title>
<path fill="none" stroke="midnightblue" d="M4059.97,-167.095C3902.42,-145.725 3532.92,-95.6078 3384.92,-75.5345"/>
<polygon fill="midnightblue" stroke="midnightblue" points="4059.66,-170.584 4070.04,-168.46 4060.6,-163.648 4059.66,-170.584"/>
</g>
<!-- Node21 -->
<g id="node43" class="node"><title>Node21</title>
<a xlink:href="eap__leap_8c.html" target="_top" xlink:title="/home/pjm3/freeradius&#45;server/src/modules/rlm_eap/types/rlm_eap_leap/eap_leap.c">
<polygon fill="none" stroke="black" points="3542.5,-56.5 3542.5,-75.5 3917.5,-75.5 3917.5,-56.5 3542.5,-56.5"/>
<text text-anchor="middle" x="3730" y="-63.5" font-family="Helvetica,sans-Serif" font-size="10.00">/home/pjm3/freeradius&#45;server/src/modules/rlm_eap/types/rlm_eap_leap/eap_leap.c</text>
</a>
</g>
<!-- Node1&#45;&gt;Node21 -->
<g id="edge44" class="edge"><title>Node1&#45;&gt;Node21</title>
<path fill="none" stroke="midnightblue" d="M4081.22,-166.373C4041.33,-157.895 3984.9,-145.276 3936,-132 3869.95,-114.067 3793.38,-88.6689 3754.86,-75.5628"/>
<polygon fill="midnightblue" stroke="midnightblue" points="4080.74,-169.849 4091.25,-168.49 4082.19,-163 4080.74,-169.849"/>
</g>
<!-- Node22 -->
<g id="node45" class="node"><title>Node22</title>
<a xlink:href="eap__leap_8h.html" target="_top" xlink:title="/home/pjm3/freeradius&#45;server/src/modules/rlm_eap/types/rlm_eap_leap/eap_leap.h">
<polygon fill="none" stroke="black" points="3945.5,-112.5 3945.5,-131.5 4320.5,-131.5 4320.5,-112.5 3945.5,-112.5"/>
<text text-anchor="middle" x="4133" y="-119.5" font-family="Helvetica,sans-Serif" font-size="10.00">/home/pjm3/freeradius&#45;server/src/modules/rlm_eap/types/rlm_eap_leap/eap_leap.h</text>
</a>
</g>
<!-- Node1&#45;&gt;Node22 -->
<g id="edge46" class="edge"><title>Node1&#45;&gt;Node22</title>
<path fill="none" stroke="midnightblue" d="M4133,-157.805C4133,-148.91 4133,-138.78 4133,-131.751"/>
<polygon fill="midnightblue" stroke="midnightblue" points="4129.5,-158.083 4133,-168.083 4136.5,-158.083 4129.5,-158.083"/>
</g>
<!-- Node25 -->
<g id="node52" class="node"><title>Node25</title>
<a xlink:href="eap__md5_8c.html" target="_top" xlink:title="/home/pjm3/freeradius&#45;server/src/modules/rlm_eap/types/rlm_eap_md5/eap_md5.c">
<polygon fill="none" stroke="black" points="4737.5,-56.5 4737.5,-75.5 5114.5,-75.5 5114.5,-56.5 4737.5,-56.5"/>
<text text-anchor="middle" x="4926" y="-63.5" font-family="Helvetica,sans-Serif" font-size="10.00">/home/pjm3/freeradius&#45;server/src/modules/rlm_eap/types/rlm_eap_md5/eap_md5.c</text>
</a>
</g>
<!-- Node1&#45;&gt;Node25 -->
<g id="edge54" class="edge"><title>Node1&#45;&gt;Node25</title>
<path fill="none" stroke="midnightblue" d="M4204.87,-167.031C4359.18,-145.625 4719.91,-95.5877 4864.47,-75.5345"/>
<polygon fill="midnightblue" stroke="midnightblue" points="4203.99,-163.619 4194.57,-168.46 4204.95,-170.553 4203.99,-163.619"/>
</g>
<!-- Node26 -->
<g id="node54" class="node"><title>Node26</title>
<a xlink:href="eap__md5_8h.html" target="_top" xlink:title="/home/pjm3/freeradius&#45;server/src/modules/rlm_eap/types/rlm_eap_md5/eap_md5.h">
<polygon fill="none" stroke="black" points="4737.5,-112.5 4737.5,-131.5 5114.5,-131.5 5114.5,-112.5 4737.5,-112.5"/>
<text text-anchor="middle" x="4926" y="-119.5" font-family="Helvetica,sans-Serif" font-size="10.00">/home/pjm3/freeradius&#45;server/src/modules/rlm_eap/types/rlm_eap_md5/eap_md5.h</text>
</a>
</g>
<!-- Node1&#45;&gt;Node26 -->
<g id="edge56" class="edge"><title>Node1&#45;&gt;Node26</title>
<path fill="none" stroke="midnightblue" d="M4268.37,-167.782C4417.72,-157.612 4656.09,-141.38 4801.11,-131.504"/>
<polygon fill="midnightblue" stroke="midnightblue" points="4267.95,-164.302 4258.22,-168.473 4268.43,-171.286 4267.95,-164.302"/>
</g>
<!-- Node28 -->
<g id="node59" class="node"><title>Node28</title>
<a xlink:href="eap__mschapv2_8h.html" target="_top" xlink:title="/home/pjm3/freeradius&#45;server/src/modules/rlm_eap/types/rlm_eap_mschapv2/eap_mschapv2.h">
<polygon fill="none" stroke="black" points="5343.5,-112.5 5343.5,-131.5 5772.5,-131.5 5772.5,-112.5 5343.5,-112.5"/>
<text text-anchor="middle" x="5558" y="-119.5" font-family="Helvetica,sans-Serif" font-size="10.00">/home/pjm3/freeradius&#45;server/src/modules/rlm_eap/types/rlm_eap_mschapv2/eap_mschapv2.h</text>
</a>
</g>
<!-- Node1&#45;&gt;Node28 -->
<g id="edge62" class="edge"><title>Node1&#45;&gt;Node28</title>
<path fill="none" stroke="midnightblue" d="M4275.42,-171.603C4526.32,-162.095 5048.42,-142.31 5343.26,-131.138"/>
<polygon fill="midnightblue" stroke="midnightblue" points="4275,-168.116 4265.14,-171.992 4275.27,-175.111 4275,-168.116"/>
</g>
<!-- Node30 -->
<g id="node63" class="node"><title>Node30</title>
<a xlink:href="eap__pwd_8h.html" target="_top" xlink:title="/home/pjm3/freeradius&#45;server/src/modules/rlm_eap/types/rlm_eap_pwd/eap_pwd.h">
<polygon fill="none" stroke="black" points="6063.5,-112.5 6063.5,-131.5 6438.5,-131.5 6438.5,-112.5 6063.5,-112.5"/>
<text text-anchor="middle" x="6251" y="-119.5" font-family="Helvetica,sans-Serif" font-size="10.00">/home/pjm3/freeradius&#45;server/src/modules/rlm_eap/types/rlm_eap_pwd/eap_pwd.h</text>
</a>
</g>
<!-- Node1&#45;&gt;Node30 -->
<g id="edge66" class="edge"><title>Node1&#45;&gt;Node30</title>
<path fill="none" stroke="midnightblue" d="M4275.36,-173.37C4646.86,-163.899 5645.74,-138.432 6063.4,-127.783"/>
<polygon fill="midnightblue" stroke="midnightblue" points="4275,-169.878 4265.09,-173.632 4275.18,-176.876 4275,-169.878"/>
</g>
<!-- Node34 -->
<g id="node72" class="node"><title>Node34</title>
<a xlink:href="eap__tnc_8c.html" target="_top" xlink:title="/home/pjm3/freeradius&#45;server/src/modules/rlm_eap/types/rlm_eap_tnc/eap_tnc.c">
<polygon fill="none" stroke="black" points="6856,-56.5 6856,-75.5 7222,-75.5 7222,-56.5 6856,-56.5"/>
<text text-anchor="middle" x="7039" y="-63.5" font-family="Helvetica,sans-Serif" font-size="10.00">/home/pjm3/freeradius&#45;server/src/modules/rlm_eap/types/rlm_eap_tnc/eap_tnc.c</text>
</a>
</g>
<!-- Node1&#45;&gt;Node34 -->
<g id="edge76" class="edge"><title>Node1&#45;&gt;Node34</title>
<path fill="none" stroke="midnightblue" d="M4275.27,-175.912C4710.69,-172.315 6021.43,-159.446 6447,-132 6641.5,-119.457 6870.54,-90.1437 6977.8,-75.5578"/>
<polygon fill="midnightblue" stroke="midnightblue" points="4275.11,-172.413 4265.14,-175.995 4275.17,-179.413 4275.11,-172.413"/>
</g>
<!-- Node35 -->
<g id="node74" class="node"><title>Node35</title>
<a xlink:href="eap__tnc_8h.html" target="_top" xlink:title="/home/pjm3/freeradius&#45;server/src/modules/rlm_eap/types/rlm_eap_tnc/eap_tnc.h">
<polygon fill="none" stroke="black" points="6804,-112.5 6804,-131.5 7170,-131.5 7170,-112.5 6804,-112.5"/>
<text text-anchor="middle" x="6987" y="-119.5" font-family="Helvetica,sans-Serif" font-size="10.00">/home/pjm3/freeradius&#45;server/src/modules/rlm_eap/types/rlm_eap_tnc/eap_tnc.h</text>
</a>
</g>
<!-- Node1&#45;&gt;Node35 -->
<g id="edge78" class="edge"><title>Node1&#45;&gt;Node35</title>
<path fill="none" stroke="midnightblue" d="M4275.31,-174.585C4652.02,-168.148 5706.42,-149.855 6584,-132 6655.89,-130.537 6735,-128.799 6803.94,-127.242"/>
<polygon fill="midnightblue" stroke="midnightblue" points="4275.12,-171.087 4265.18,-174.758 4275.24,-178.086 4275.12,-171.087"/>
</g>
<!-- Node37 -->
<g id="node79" class="node"><title>Node37</title>
<a xlink:href="tncs__connect_8c.html" target="_top" xlink:title="/home/pjm3/freeradius&#45;server/src/modules/rlm_eap/types/rlm_eap_tnc/tncs_connect.c">
<polygon fill="none" stroke="black" points="7188,-112.5 7188,-131.5 7578,-131.5 7578,-112.5 7188,-112.5"/>
<text text-anchor="middle" x="7383" y="-119.5" font-family="Helvetica,sans-Serif" font-size="10.00">/home/pjm3/freeradius&#45;server/src/modules/rlm_eap/types/rlm_eap_tnc/tncs_connect.c</text>
</a>
</g>
<!-- Node1&#45;&gt;Node37 -->
<g id="edge84" class="edge"><title>Node1&#45;&gt;Node37</title>
<path fill="none" stroke="midnightblue" d="M4275.25,-176.38C4710.14,-174.166 6060.47,-164.929 7179,-132 7184.23,-131.846 7189.53,-131.68 7194.88,-131.504"/>
<polygon fill="midnightblue" stroke="midnightblue" points="4275.13,-172.88 4265.14,-176.431 4275.16,-179.88 4275.13,-172.88"/>
</g>
<!-- Node3 -->
<g id="node5" class="node"><title>Node3</title>
<a xlink:href="eap_8c.html" target="_top" xlink:title="/home/pjm3/freeradius&#45;server/src/modules/rlm_eap/eap.c">
<polygon fill="none" stroke="black" points="0,-56.5 0,-75.5 264,-75.5 264,-56.5 0,-56.5"/>
<text text-anchor="middle" x="132" y="-63.5" font-family="Helvetica,sans-Serif" font-size="10.00">/home/pjm3/freeradius&#45;server/src/modules/rlm_eap/eap.c</text>
</a>
</g>
<!-- Node2&#45;&gt;Node3 -->
<g id="edge4" class="edge"><title>Node2&#45;&gt;Node3</title>
<path fill="none" stroke="midnightblue" d="M486.403,-111.198C404.66,-101.004 277.986,-85.2062 200.289,-75.5164"/>
<polygon fill="midnightblue" stroke="midnightblue" points="486.034,-114.679 496.39,-112.444 486.9,-107.733 486.034,-114.679"/>
</g>
<!-- Node4 -->
<g id="node7" class="node"><title>Node4</title>
<a xlink:href="rlm__eap_2mem_8c.html" target="_top" xlink:title="/home/pjm3/freeradius&#45;server/src/modules/rlm_eap/mem.c">
<polygon fill="none" stroke="black" points="282,-56.5 282,-75.5 552,-75.5 552,-56.5 282,-56.5"/>
<text text-anchor="middle" x="417" y="-63.5" font-family="Helvetica,sans-Serif" font-size="10.00">/home/pjm3/freeradius&#45;server/src/modules/rlm_eap/mem.c</text>
</a>
</g>
<!-- Node2&#45;&gt;Node4 -->
<g id="edge6" class="edge"><title>Node2&#45;&gt;Node4</title>
<path fill="none" stroke="midnightblue" d="M531.853,-108.906C504.028,-98.7536 464.98,-84.5063 440.341,-75.5164"/>
<polygon fill="midnightblue" stroke="midnightblue" points="530.955,-112.304 541.549,-112.444 533.354,-105.728 530.955,-112.304"/>
</g>
<!-- Node5 -->
<g id="node9" class="node"><title>Node5</title>
<a xlink:href="rlm__eap_8c.html" target="_top" xlink:title="/home/pjm3/freeradius&#45;server/src/modules/rlm_eap/rlm_eap.c">
<polygon fill="none" stroke="black" points="570.5,-56.5 570.5,-75.5 853.5,-75.5 853.5,-56.5 570.5,-56.5"/>
<text text-anchor="middle" x="712" y="-63.5" font-family="Helvetica,sans-Serif" font-size="10.00">/home/pjm3/freeradius&#45;server/src/modules/rlm_eap/rlm_eap.c</text>
</a>
</g>
<!-- Node2&#45;&gt;Node5 -->
<g id="edge8" class="edge"><title>Node2&#45;&gt;Node5</title>
<path fill="none" stroke="midnightblue" d="M597.923,-108.906C625.56,-98.7536 664.344,-84.5063 688.816,-75.5164"/>
<polygon fill="midnightblue" stroke="midnightblue" points="596.472,-105.71 588.293,-112.444 598.886,-112.281 596.472,-105.71"/>
</g>
<!-- Node7 -->
<g id="node13" class="node"><title>Node7</title>
<a xlink:href="eap__tls_8c.html" target="_top" xlink:title="/home/pjm3/freeradius&#45;server/src/modules/rlm_eap/libeap/eap_tls.c">
<polygon fill="none" stroke="black" points="872,-56.5 872,-75.5 1180,-75.5 1180,-56.5 872,-56.5"/>
<text text-anchor="middle" x="1026" y="-63.5" font-family="Helvetica,sans-Serif" font-size="10.00">/home/pjm3/freeradius&#45;server/src/modules/rlm_eap/libeap/eap_tls.c</text>
</a>
</g>
<!-- Node6&#45;&gt;Node7 -->
<g id="edge12" class="edge"><title>Node6&#45;&gt;Node7</title>
<path fill="none" stroke="midnightblue" d="M1779.71,-111.873C1608.98,-101.709 1335.21,-85.4094 1168.84,-75.5042"/>
<polygon fill="midnightblue" stroke="midnightblue" points="1779.59,-115.373 1789.78,-112.473 1780.01,-108.385 1779.59,-115.373"/>
</g>
<!-- Node8 -->
<g id="node15" class="node"><title>Node8</title>
<a xlink:href="mppe__keys_8c.html" target="_top" xlink:title="/home/pjm3/freeradius&#45;server/src/modules/rlm_eap/libeap/mppe_keys.c">
<polygon fill="none" stroke="black" points="1198.5,-56.5 1198.5,-75.5 1525.5,-75.5 1525.5,-56.5 1198.5,-56.5"/>
<text text-anchor="middle" x="1362" y="-63.5" font-family="Helvetica,sans-Serif" font-size="10.00">/home/pjm3/freeradius&#45;server/src/modules/rlm_eap/libeap/mppe_keys.c</text>
</a>
</g>
<!-- Node6&#45;&gt;Node8 -->
<g id="edge14" class="edge"><title>Node6&#45;&gt;Node8</title>
<path fill="none" stroke="midnightblue" d="M1832.62,-111.507C1725,-101.329 1555.67,-85.3155 1452.16,-75.5264"/>
<polygon fill="midnightblue" stroke="midnightblue" points="1832.55,-115.016 1842.84,-112.473 1833.21,-108.047 1832.55,-115.016"/>
</g>
<!-- Node9 -->
<g id="node17" class="node"><title>Node9</title>
<a xlink:href="eap__peap_8h.html" target="_top" xlink:title="/home/pjm3/freeradius&#45;server/src/modules/rlm_eap/types/rlm_eap_peap/eap_peap.h">
<polygon fill="none" stroke="black" points="1543.5,-56.5 1543.5,-75.5 1924.5,-75.5 1924.5,-56.5 1543.5,-56.5"/>
<text text-anchor="middle" x="1734" y="-63.5" font-family="Helvetica,sans-Serif" font-size="10.00">/home/pjm3/freeradius&#45;server/src/modules/rlm_eap/types/rlm_eap_peap/eap_peap.h</text>
</a>
</g>
<!-- Node6&#45;&gt;Node9 -->
<g id="edge16" class="edge"><title>Node6&#45;&gt;Node9</title>
<path fill="none" stroke="midnightblue" d="M1891.35,-109.699C1853.79,-99.507 1799.39,-84.7429 1765.38,-75.5164"/>
<polygon fill="midnightblue" stroke="midnightblue" points="1890.9,-113.202 1901.47,-112.444 1892.73,-106.447 1890.9,-113.202"/>
</g>
<!-- Node12 -->
<g id="node23" class="node"><title>Node12</title>
<a xlink:href="rlm__eap__tls_8h.html" target="_top" xlink:title="/home/pjm3/freeradius&#45;server/src/modules/rlm_eap/types/rlm_eap_tls/rlm_eap_tls.h">
<polygon fill="none" stroke="black" points="1942.5,-56.5 1942.5,-75.5 2321.5,-75.5 2321.5,-56.5 1942.5,-56.5"/>
<text text-anchor="middle" x="2132" y="-63.5" font-family="Helvetica,sans-Serif" font-size="10.00">/home/pjm3/freeradius&#45;server/src/modules/rlm_eap/types/rlm_eap_tls/rlm_eap_tls.h</text>
</a>
</g>
<!-- Node6&#45;&gt;Node12 -->
<g id="edge22" class="edge"><title>Node6&#45;&gt;Node12</title>
<path fill="none" stroke="midnightblue" d="M1974.65,-109.699C2012.21,-99.507 2066.61,-84.7429 2100.62,-75.5164"/>
<polygon fill="midnightblue" stroke="midnightblue" points="1973.27,-106.447 1964.53,-112.444 1975.1,-113.202 1973.27,-106.447"/>
</g>
<!-- Node14 -->
<g id="node27" class="node"><title>Node14</title>
<a xlink:href="eap__ttls_8h.html" target="_top" xlink:title="/home/pjm3/freeradius&#45;server/src/modules/rlm_eap/types/rlm_eap_ttls/eap_ttls.h">
<polygon fill="none" stroke="black" points="2340,-56.5 2340,-75.5 2706,-75.5 2706,-56.5 2340,-56.5"/>
<text text-anchor="middle" x="2523" y="-63.5" font-family="Helvetica,sans-Serif" font-size="10.00">/home/pjm3/freeradius&#45;server/src/modules/rlm_eap/types/rlm_eap_ttls/eap_ttls.h</text>
</a>
</g>
<!-- Node6&#45;&gt;Node14 -->
<g id="edge26" class="edge"><title>Node6&#45;&gt;Node14</title>
<path fill="none" stroke="midnightblue" d="M2036.38,-111.538C2147.57,-101.361 2322.78,-85.3254 2429.84,-75.5264"/>
<polygon fill="midnightblue" stroke="midnightblue" points="2035.8,-108.076 2026.16,-112.473 2036.44,-115.047 2035.8,-108.076"/>
</g>
<!-- Node10 -->
<g id="node19" class="node"><title>Node10</title>
<a xlink:href="peap_8c.html" target="_top" xlink:title="/home/pjm3/freeradius&#45;server/src/modules/rlm_eap/types/rlm_eap_peap/peap.c">
<polygon fill="none" stroke="black" points="1146,-0.5 1146,-19.5 1506,-19.5 1506,-0.5 1146,-0.5"/>
<text text-anchor="middle" x="1326" y="-7.5" font-family="Helvetica,sans-Serif" font-size="10.00">/home/pjm3/freeradius&#45;server/src/modules/rlm_eap/types/rlm_eap_peap/peap.c</text>
</a>
</g>
<!-- Node9&#45;&gt;Node10 -->
<g id="edge18" class="edge"><title>Node9&#45;&gt;Node10</title>
<path fill="none" stroke="midnightblue" d="M1659.23,-55.1046C1582.19,-44.9074 1463.33,-29.1766 1390.35,-19.5164"/>
<polygon fill="midnightblue" stroke="midnightblue" points="1658.98,-58.6011 1669.35,-56.4435 1659.9,-51.6616 1658.98,-58.6011"/>
</g>
<!-- Node11 -->
<g id="node21" class="node"><title>Node11</title>
<a xlink:href="rlm__eap__peap_8c.html" target="_top" xlink:title="/home/pjm3/freeradius&#45;server/src/modules/rlm_eap/types/rlm_eap_peap/rlm_eap_peap.c">
<polygon fill="none" stroke="black" points="1524,-0.5 1524,-19.5 1924,-19.5 1924,-0.5 1524,-0.5"/>
<text text-anchor="middle" x="1724" y="-7.5" font-family="Helvetica,sans-Serif" font-size="10.00">/home/pjm3/freeradius&#45;server/src/modules/rlm_eap/types/rlm_eap_peap/rlm_eap_peap.c</text>
</a>
</g>
<!-- Node9&#45;&gt;Node11 -->
<g id="edge20" class="edge"><title>Node9&#45;&gt;Node11</title>
<path fill="none" stroke="midnightblue" d="M1730.5,-46.1005C1728.84,-37.1357 1726.94,-26.8579 1725.62,-19.7511"/>
<polygon fill="midnightblue" stroke="midnightblue" points="1727.09,-46.8875 1732.35,-56.083 1733.97,-45.6128 1727.09,-46.8875"/>
</g>
<!-- Node13 -->
<g id="node25" class="node"><title>Node13</title>
<a xlink:href="rlm__eap__tls_8c.html" target="_top" xlink:title="/home/pjm3/freeradius&#45;server/src/modules/rlm_eap/types/rlm_eap_tls/rlm_eap_tls.c">
<polygon fill="none" stroke="black" points="1942.5,-0.5 1942.5,-19.5 2321.5,-19.5 2321.5,-0.5 1942.5,-0.5"/>
<text text-anchor="middle" x="2132" y="-7.5" font-family="Helvetica,sans-Serif" font-size="10.00">/home/pjm3/freeradius&#45;server/src/modules/rlm_eap/types/rlm_eap_tls/rlm_eap_tls.c</text>
</a>
</g>
<!-- Node12&#45;&gt;Node13 -->
<g id="edge24" class="edge"><title>Node12&#45;&gt;Node13</title>
<path fill="none" stroke="midnightblue" d="M2132,-45.8045C2132,-36.9102 2132,-26.7798 2132,-19.7511"/>
<polygon fill="midnightblue" stroke="midnightblue" points="2128.5,-46.083 2132,-56.083 2135.5,-46.083 2128.5,-46.083"/>
</g>
<!-- Node15 -->
<g id="node29" class="node"><title>Node15</title>
<a xlink:href="rlm__eap__ttls_8c.html" target="_top" xlink:title="/home/pjm3/freeradius&#45;server/src/modules/rlm_eap/types/rlm_eap_ttls/rlm_eap_ttls.c">
<polygon fill="none" stroke="black" points="2339.5,-0.5 2339.5,-19.5 2724.5,-19.5 2724.5,-0.5 2339.5,-0.5"/>
<text text-anchor="middle" x="2532" y="-7.5" font-family="Helvetica,sans-Serif" font-size="10.00">/home/pjm3/freeradius&#45;server/src/modules/rlm_eap/types/rlm_eap_ttls/rlm_eap_ttls.c</text>
</a>
</g>
<!-- Node14&#45;&gt;Node15 -->
<g id="edge28" class="edge"><title>Node14&#45;&gt;Node15</title>
<path fill="none" stroke="midnightblue" d="M2526.15,-46.1005C2527.64,-37.1357 2529.36,-26.8579 2530.54,-19.7511"/>
<polygon fill="midnightblue" stroke="midnightblue" points="2522.68,-45.6436 2524.49,-56.083 2529.58,-46.7945 2522.68,-45.6436"/>
</g>
<!-- Node16 -->
<g id="node31" class="node"><title>Node16</title>
<a xlink:href="ttls_8c.html" target="_top" xlink:title="/home/pjm3/freeradius&#45;server/src/modules/rlm_eap/types/rlm_eap_ttls/ttls.c">
<polygon fill="none" stroke="black" points="2742.5,-0.5 2742.5,-19.5 3087.5,-19.5 3087.5,-0.5 2742.5,-0.5"/>
<text text-anchor="middle" x="2915" y="-7.5" font-family="Helvetica,sans-Serif" font-size="10.00">/home/pjm3/freeradius&#45;server/src/modules/rlm_eap/types/rlm_eap_ttls/ttls.c</text>
</a>
</g>
<!-- Node14&#45;&gt;Node16 -->
<g id="edge30" class="edge"><title>Node14&#45;&gt;Node16</title>
<path fill="none" stroke="midnightblue" d="M2595.29,-55.0421C2669.32,-44.8432 2783.19,-29.1569 2853.18,-19.5164"/>
<polygon fill="midnightblue" stroke="midnightblue" points="2594.54,-51.6115 2585.11,-56.4435 2595.5,-58.546 2594.54,-51.6115"/>
</g>
<!-- Node18&#45;&gt;Node19 -->
<g id="edge36" class="edge"><title>Node18&#45;&gt;Node19</title>
<path fill="none" stroke="midnightblue" d="M3299.58,-111.322C3210.74,-101.135 3072.24,-85.2563 2987.37,-75.5264"/>
<polygon fill="midnightblue" stroke="midnightblue" points="3299.29,-114.811 3309.63,-112.473 3300.09,-107.857 3299.29,-114.811"/>
</g>
<!-- Node18&#45;&gt;Node20 -->
<g id="edge38" class="edge"><title>Node18&#45;&gt;Node20</title>
<path fill="none" stroke="midnightblue" d="M3366.25,-105.537C3355.19,-95.9087 3341.37,-83.8694 3332.14,-75.8339"/>
<polygon fill="midnightblue" stroke="midnightblue" points="3364.2,-108.395 3374.04,-112.324 3368.8,-103.117 3364.2,-108.395"/>
</g>
<!-- Node22&#45;&gt;Node21 -->
<g id="edge48" class="edge"><title>Node22&#45;&gt;Node21</title>
<path fill="none" stroke="midnightblue" d="M4059.15,-111.105C3983.05,-100.907 3865.65,-85.1766 3793.56,-75.5164"/>
<polygon fill="midnightblue" stroke="midnightblue" points="4058.77,-114.584 4069.14,-112.444 4059.7,-107.646 4058.77,-114.584"/>
</g>
<!-- Node23 -->
<g id="node48" class="node"><title>Node23</title>
<a xlink:href="rlm__eap__leap_8c.html" target="_top" xlink:title="/home/pjm3/freeradius&#45;server/src/modules/rlm_eap/types/rlm_eap_leap/rlm_eap_leap.c">
<polygon fill="none" stroke="black" points="3936,-56.5 3936,-75.5 4330,-75.5 4330,-56.5 3936,-56.5"/>
<text text-anchor="middle" x="4133" y="-63.5" font-family="Helvetica,sans-Serif" font-size="10.00">/home/pjm3/freeradius&#45;server/src/modules/rlm_eap/types/rlm_eap_leap/rlm_eap_leap.c</text>
</a>
</g>
<!-- Node22&#45;&gt;Node23 -->
<g id="edge50" class="edge"><title>Node22&#45;&gt;Node23</title>
<path fill="none" stroke="midnightblue" d="M4133,-101.805C4133,-92.9102 4133,-82.7798 4133,-75.7511"/>
<polygon fill="midnightblue" stroke="midnightblue" points="4129.5,-102.083 4133,-112.083 4136.5,-102.083 4129.5,-102.083"/>
</g>
<!-- Node24 -->
<g id="node50" class="node"><title>Node24</title>
<a xlink:href="rlm__eap_2types_2rlm__eap__leap_2smbdes_8c.html" target="_top" xlink:title="/home/pjm3/freeradius&#45;server/src/modules/rlm_eap/types/rlm_eap_leap/smbdes.c">
<polygon fill="none" stroke="black" points="4348.5,-56.5 4348.5,-75.5 4719.5,-75.5 4719.5,-56.5 4348.5,-56.5"/>
<text text-anchor="middle" x="4534" y="-63.5" font-family="Helvetica,sans-Serif" font-size="10.00">/home/pjm3/freeradius&#45;server/src/modules/rlm_eap/types/rlm_eap_leap/smbdes.c</text>
</a>
</g>
<!-- Node22&#45;&gt;Node24 -->
<g id="edge52" class="edge"><title>Node22&#45;&gt;Node24</title>
<path fill="none" stroke="midnightblue" d="M4206.48,-111.105C4282.21,-100.907 4399.02,-85.1766 4470.76,-75.5164"/>
<polygon fill="midnightblue" stroke="midnightblue" points="4205.98,-107.64 4196.54,-112.444 4206.92,-114.578 4205.98,-107.64"/>
</g>
<!-- Node26&#45;&gt;Node25 -->
<g id="edge58" class="edge"><title>Node26&#45;&gt;Node25</title>
<path fill="none" stroke="midnightblue" d="M4926,-101.805C4926,-92.9102 4926,-82.7798 4926,-75.7511"/>
<polygon fill="midnightblue" stroke="midnightblue" points="4922.5,-102.083 4926,-112.083 4929.5,-102.083 4922.5,-102.083"/>
</g>
<!-- Node27 -->
<g id="node57" class="node"><title>Node27</title>
<a xlink:href="rlm__eap__md5_8c.html" target="_top" xlink:title="/home/pjm3/freeradius&#45;server/src/modules/rlm_eap/types/rlm_eap_md5/rlm_eap_md5.c">
<polygon fill="none" stroke="black" points="5132.5,-56.5 5132.5,-75.5 5527.5,-75.5 5527.5,-56.5 5132.5,-56.5"/>
<text text-anchor="middle" x="5330" y="-63.5" font-family="Helvetica,sans-Serif" font-size="10.00">/home/pjm3/freeradius&#45;server/src/modules/rlm_eap/types/rlm_eap_md5/rlm_eap_md5.c</text>
</a>
</g>
<!-- Node26&#45;&gt;Node27 -->
<g id="edge60" class="edge"><title>Node26&#45;&gt;Node27</title>
<path fill="none" stroke="midnightblue" d="M5000.03,-111.105C5076.32,-100.907 5194.01,-85.1766 5266.28,-75.5164"/>
<polygon fill="midnightblue" stroke="midnightblue" points="4999.46,-107.649 4990.02,-112.444 5000.39,-114.588 4999.46,-107.649"/>
</g>
<!-- Node29 -->
<g id="node61" class="node"><title>Node29</title>
<a xlink:href="rlm__eap__mschapv2_8c.html" target="_top" xlink:title="/home/pjm3/freeradius&#45;server/src/modules/rlm_eap/types/rlm_eap_mschapv2/rlm_eap_mschapv2.c">
<polygon fill="none" stroke="black" points="5546,-56.5 5546,-75.5 5994,-75.5 5994,-56.5 5546,-56.5"/>
<text text-anchor="middle" x="5770" y="-63.5" font-family="Helvetica,sans-Serif" font-size="10.00">/home/pjm3/freeradius&#45;server/src/modules/rlm_eap/types/rlm_eap_mschapv2/rlm_eap_mschapv2.c</text>
</a>
</g>
<!-- Node28&#45;&gt;Node29 -->
<g id="edge64" class="edge"><title>Node28&#45;&gt;Node29</title>
<path fill="none" stroke="midnightblue" d="M5601.35,-109.959C5641.39,-99.7598 5700.03,-84.8217 5736.57,-75.5164"/>
<polygon fill="midnightblue" stroke="midnightblue" points="5600.42,-106.583 5591.59,-112.444 5602.15,-113.367 5600.42,-106.583"/>
</g>
<!-- Node31 -->
<g id="node65" class="node"><title>Node31</title>
<a xlink:href="eap__pwd_8c.html" target="_top" xlink:title="/home/pjm3/freeradius&#45;server/src/modules/rlm_eap/types/rlm_eap_pwd/eap_pwd.c">
<polygon fill="none" stroke="black" points="6012.5,-56.5 6012.5,-75.5 6387.5,-75.5 6387.5,-56.5 6012.5,-56.5"/>
<text text-anchor="middle" x="6200" y="-63.5" font-family="Helvetica,sans-Serif" font-size="10.00">/home/pjm3/freeradius&#45;server/src/modules/rlm_eap/types/rlm_eap_pwd/eap_pwd.c</text>
</a>
</g>
<!-- Node30&#45;&gt;Node31 -->
<g id="edge68" class="edge"><title>Node30&#45;&gt;Node31</title>
<path fill="none" stroke="midnightblue" d="M6235.62,-104.718C6226.63,-95.1997 6215.64,-83.5608 6208.26,-75.7511"/>
<polygon fill="midnightblue" stroke="midnightblue" points="6233.17,-107.216 6242.58,-112.083 6238.26,-102.41 6233.17,-107.216"/>
</g>
<!-- Node32 -->
<g id="node67" class="node"><title>Node32</title>
<a xlink:href="rlm__eap__pwd_8h.html" target="_top" xlink:title="/home/pjm3/freeradius&#45;server/src/modules/rlm_eap/types/rlm_eap_pwd/rlm_eap_pwd.h">
<polygon fill="none" stroke="black" points="6406,-56.5 6406,-75.5 6800,-75.5 6800,-56.5 6406,-56.5"/>
<text text-anchor="middle" x="6603" y="-63.5" font-family="Helvetica,sans-Serif" font-size="10.00">/home/pjm3/freeradius&#45;server/src/modules/rlm_eap/types/rlm_eap_pwd/rlm_eap_pwd.h</text>
</a>
</g>
<!-- Node30&#45;&gt;Node32 -->
<g id="edge70" class="edge"><title>Node30&#45;&gt;Node32</title>
<path fill="none" stroke="midnightblue" d="M6316.73,-110.917C6383.23,-100.715 6484.9,-85.1174 6547.49,-75.5164"/>
<polygon fill="midnightblue" stroke="midnightblue" points="6316.13,-107.468 6306.78,-112.444 6317.19,-114.387 6316.13,-107.468"/>
</g>
<!-- Node33 -->
<g id="node69" class="node"><title>Node33</title>
<a xlink:href="rlm__eap__pwd_8c.html" target="_top" xlink:title="/home/pjm3/freeradius&#45;server/src/modules/rlm_eap/types/rlm_eap_pwd/rlm_eap_pwd.c">
<polygon fill="none" stroke="black" points="6518,-0.5 6518,-19.5 6912,-19.5 6912,-0.5 6518,-0.5"/>
<text text-anchor="middle" x="6715" y="-7.5" font-family="Helvetica,sans-Serif" font-size="10.00">/home/pjm3/freeradius&#45;server/src/modules/rlm_eap/types/rlm_eap_pwd/rlm_eap_pwd.c</text>
</a>
</g>
<!-- Node30&#45;&gt;Node33 -->
<g id="edge74" class="edge"><title>Node30&#45;&gt;Node33</title>
<path fill="none" stroke="midnightblue" d="M6437.9,-111.931C6595.07,-103.37 6796.25,-89.8157 6809,-76 6831.94,-51.1364 6782.63,-30.5594 6747.13,-19.588"/>
<polygon fill="midnightblue" stroke="midnightblue" points="6437.41,-108.453 6427.61,-112.488 6437.79,-115.442 6437.41,-108.453"/>
</g>
<!-- Node32&#45;&gt;Node33 -->
<g id="edge72" class="edge"><title>Node32&#45;&gt;Node33</title>
<path fill="none" stroke="midnightblue" d="M6630.25,-51.8622C6651.02,-41.8492 6679.02,-28.3458 6697.05,-19.6545"/>
<polygon fill="midnightblue" stroke="midnightblue" points="6628.48,-48.8282 6620.99,-56.324 6631.52,-55.1336 6628.48,-48.8282"/>
</g>
<!-- Node35&#45;&gt;Node34 -->
<g id="edge80" class="edge"><title>Node35&#45;&gt;Node34</title>
<path fill="none" stroke="midnightblue" d="M7002.68,-104.718C7011.84,-95.1997 7023.05,-83.5608 7030.57,-75.7511"/>
<polygon fill="midnightblue" stroke="midnightblue" points="7000,-102.452 6995.59,-112.083 7005.04,-107.308 7000,-102.452"/>
</g>
<!-- Node36 -->
<g id="node77" class="node"><title>Node36</title>
<a xlink:href="rlm__eap__tnc_8c.html" target="_top" xlink:title="/home/pjm3/freeradius&#45;server/src/modules/rlm_eap/types/rlm_eap_tnc/rlm_eap_tnc.c">
<polygon fill="none" stroke="black" points="7240.5,-56.5 7240.5,-75.5 7625.5,-75.5 7625.5,-56.5 7240.5,-56.5"/>
<text text-anchor="middle" x="7433" y="-63.5" font-family="Helvetica,sans-Serif" font-size="10.00">/home/pjm3/freeradius&#45;server/src/modules/rlm_eap/types/rlm_eap_tnc/rlm_eap_tnc.c</text>
</a>
</g>
<!-- Node35&#45;&gt;Node36 -->
<g id="edge82" class="edge"><title>Node35&#45;&gt;Node36</title>
<path fill="none" stroke="midnightblue" d="M7067.7,-111.229C7151.89,-101.036 7282.55,-85.216 7362.66,-75.5164"/>
<polygon fill="midnightblue" stroke="midnightblue" points="7067.18,-107.767 7057.67,-112.444 7068.02,-114.716 7067.18,-107.767"/>
</g>
</g>
</svg>
        <g id="navigator" transform="translate(0 0)" fill="#404254">
                <rect fill="#f2f5e9" fill-opacity="0.5" stroke="#606060" stroke-width=".5" x="0" y="0" width="60" height="60"/>
                <use id="zoomplus" xlink:href="#zoomPlus" x="17" y="9" onmousedown="handleZoom(evt,'in')"/>
                <use id="zoomminus" xlink:href="#zoomMin" x="42" y="9" onmousedown="handleZoom(evt,'out')"/>
                <use id="reset" xlink:href="#resetDef" x="30" y="36" onmousedown="handleReset()"/>
                <g id="arrowUp" xlink:href="#dirArrow" transform="translate(30 24)" onmousedown="handlePan(0,-1)">
                  <use xlink:href="#rim" fill="#404040">
                        <set attributeName="fill" to="#808080" begin="arrowUp.mouseover" end="arrowUp.mouseout"/>
                  </use>
                  <path fill="none" stroke="white" stroke-width="1.5" d="M0,-3.0v7 M-2.5,-0.5L0,-3.0L2.5,-0.5"/>
                </g>
                <g id="arrowRight" xlink:href="#dirArrow" transform="rotate(90) translate(36 -43)" onmousedown="handlePan(1,0)">
                  <use xlink:href="#rim" fill="#404040">
                        <set attributeName="fill" to="#808080" begin="arrowRight.mouseover" end="arrowRight.mouseout"/>
                  </use>
                  <path fill="none" stroke="white" stroke-width="1.5" d="M0,-3.0v7 M-2.5,-0.5L0,-3.0L2.5,-0.5"/>
                </g>
                <g id="arrowDown" xlink:href="#dirArrow" transform="rotate(180) translate(-30 -48)" onmousedown="handlePan(0,1)">
                  <use xlink:href="#rim" fill="#404040">
                        <set attributeName="fill" to="#808080" begin="arrowDown.mouseover" end="arrowDown.mouseout"/>
                  </use>
                  <path fill="none" stroke="white" stroke-width="1.5" d="M0,-3.0v7 M-2.5,-0.5L0,-3.0L2.5,-0.5"/>
                </g>
                <g id="arrowLeft" xlink:href="#dirArrow" transform="rotate(270) translate(-36 17)" onmousedown="handlePan(-1,0)">
                  <use xlink:href="#rim" fill="#404040">
                        <set attributeName="fill" to="#808080" begin="arrowLeft.mouseover" end="arrowLeft.mouseout"/>
                  </use>
                  <path fill="none" stroke="white" stroke-width="1.5" d="M0,-3.0v7 M-2.5,-0.5L0,-3.0L2.5,-0.5"/>
                </g>
        </g>
</svg>
