<?xml version="1.0" encoding="UTF-8" standalone="no"?>
<!DOCTYPE svg PUBLIC "-//W3C//DTD SVG 1.1//EN"
 "http://www.w3.org/Graphics/SVG/1.1/DTD/svg11.dtd">
<!-- Generated by graphviz version 2.28.0 (20111211.2114)
 -->
<!-- Title: G Pages: 1 -->
<svg width="473pt" height="140pt"
 viewBox="0.00 0.00 473.00 140.00" xmlns="http://www.w3.org/2000/svg" xmlns:xlink="http://www.w3.org/1999/xlink">
<g id="graph1" class="graph" transform="scale(1 1) rotate(0) translate(4 136)">
<title>G</title>
<!-- Node1 -->
<g id="node1" class="node"><title>Node1</title>
<polygon fill="#bfbfbf" stroke="black" points="99,-112.5 99,-131.5 363,-131.5 363,-112.5 99,-112.5"/>
<text text-anchor="middle" x="231" y="-119.5" font-family="Helvetica,sans-Serif" font-size="10.00">/home/pjm3/freeradius&#45;server/src/modules/rlm_eap/eap.h</text>
</g>
<!-- Node2 -->
<g id="node3" class="node"><title>Node2</title>
<polygon fill="none" stroke="#bfbfbf" points="0,-0.5 0,-19.5 118,-19.5 118,-0.5 0,-0.5"/>
<text text-anchor="middle" x="59" y="-7.5" font-family="Helvetica,sans-Serif" font-size="10.00">freeradius&#45;devel/ident.h</text>
</g>
<!-- Node1&#45;&gt;Node2 -->
<g id="edge2" class="edge"><title>Node1&#45;&gt;Node2</title>
<path fill="none" stroke="midnightblue" d="M217.503,-112.368C187.988,-93.4924 117.456,-48.385 81.261,-25.2367"/>
<polygon fill="midnightblue" stroke="midnightblue" points="82.7441,-22.0306 72.4339,-19.5914 78.9726,-27.9278 82.7441,-22.0306"/>
</g>
<!-- Node3 -->
<g id="node5" class="node"><title>Node3</title>
<polygon fill="none" stroke="#bfbfbf" points="136,-0.5 136,-19.5 264,-19.5 264,-0.5 136,-0.5"/>
<text text-anchor="middle" x="200" y="-7.5" font-family="Helvetica,sans-Serif" font-size="10.00">freeradius&#45;devel/radiusd.h</text>
</g>
<!-- Node1&#45;&gt;Node3 -->
<g id="edge4" class="edge"><title>Node1&#45;&gt;Node3</title>
<path fill="none" stroke="midnightblue" d="M218.219,-112.369C207.606,-104.36 193.269,-91.3795 187,-76 180.83,-60.8641 185.508,-42.5154 190.896,-29.1779"/>
<polygon fill="midnightblue" stroke="midnightblue" points="194.245,-30.2668 195.176,-19.713 187.866,-27.3828 194.245,-30.2668"/>
</g>
<!-- Node4 -->
<g id="node7" class="node"><title>Node4</title>
<polygon fill="none" stroke="#bfbfbf" points="282,-0.5 282,-19.5 416,-19.5 416,-0.5 282,-0.5"/>
<text text-anchor="middle" x="349" y="-7.5" font-family="Helvetica,sans-Serif" font-size="10.00">freeradius&#45;devel/modules.h</text>
</g>
<!-- Node1&#45;&gt;Node4 -->
<g id="edge6" class="edge"><title>Node1&#45;&gt;Node4</title>
<path fill="none" stroke="midnightblue" d="M240.259,-112.368C260.163,-93.8137 307.257,-49.9129 332.44,-26.4376"/>
<polygon fill="midnightblue" stroke="midnightblue" points="334.856,-28.9704 339.784,-19.5914 330.082,-23.8501 334.856,-28.9704"/>
</g>
<!-- Node5 -->
<g id="node9" class="node"><title>Node5</title>
<polygon fill="none" stroke="#bfbfbf" points="322.5,-56.5 322.5,-75.5 465.5,-75.5 465.5,-56.5 322.5,-56.5"/>
<text text-anchor="middle" x="394" y="-63.5" font-family="Helvetica,sans-Serif" font-size="10.00">freeradius&#45;devel/rad_assert.h</text>
</g>
<!-- Node1&#45;&gt;Node5 -->
<g id="edge8" class="edge"><title>Node1&#45;&gt;Node5</title>
<path fill="none" stroke="midnightblue" d="M256.828,-112.444C284.249,-103.359 327.777,-88.9388 358.432,-78.7831"/>
<polygon fill="midnightblue" stroke="midnightblue" points="359.901,-81.9837 368.293,-75.5164 357.7,-75.3389 359.901,-81.9837"/>
</g>
<!-- Node6 -->
<g id="node11" class="node"><title>Node6</title>
<a xlink:href="eap__types_8h.html" target="_top" xlink:title="eap_types.h">
<polygon fill="none" stroke="black" points="196,-56.5 196,-75.5 266,-75.5 266,-56.5 196,-56.5"/>
<text text-anchor="middle" x="231" y="-63.5" font-family="Helvetica,sans-Serif" font-size="10.00">eap_types.h</text>
</a>
</g>
<!-- Node1&#45;&gt;Node6 -->
<g id="edge10" class="edge"><title>Node1&#45;&gt;Node6</title>
<path fill="none" stroke="midnightblue" d="M231,-112.083C231,-105.006 231,-94.8611 231,-85.9865"/>
<polygon fill="midnightblue" stroke="midnightblue" points="234.5,-85.751 231,-75.7511 227.5,-85.7511 234.5,-85.751"/>
</g>
<!-- Node6&#45;&gt;Node2 -->
<g id="edge12" class="edge"><title>Node6&#45;&gt;Node2</title>
<path fill="none" stroke="midnightblue" d="M203.746,-56.4435C174.559,-47.2801 128.079,-32.6876 95.6907,-22.5192"/>
<polygon fill="midnightblue" stroke="midnightblue" points="96.7157,-19.1726 86.1264,-19.5164 94.6188,-25.8512 96.7157,-19.1726"/>
</g>
<!-- Node6&#45;&gt;Node3 -->
<g id="edge14" class="edge"><title>Node6&#45;&gt;Node3</title>
<path fill="none" stroke="midnightblue" d="M225.881,-56.083C221.592,-48.6127 215.342,-37.7244 210.058,-28.5199"/>
<polygon fill="midnightblue" stroke="midnightblue" points="213.038,-26.6811 205.024,-19.7511 206.967,-30.1662 213.038,-26.6811"/>
</g>
<!-- Node6&#45;&gt;Node4 -->
<g id="edge16" class="edge"><title>Node6&#45;&gt;Node4</title>
<path fill="none" stroke="midnightblue" d="M249.697,-56.4435C268.944,-47.6356 299.152,-33.8116 321.2,-23.722"/>
<polygon fill="midnightblue" stroke="midnightblue" points="322.753,-26.8603 330.39,-19.5164 319.84,-20.4951 322.753,-26.8603"/>
</g>
</g>
</svg>
