<?xml version="1.0" encoding="UTF-8" standalone="no"?>
<!DOCTYPE svg PUBLIC "-//W3C//DTD SVG 1.1//EN"
 "http://www.w3.org/Graphics/SVG/1.1/DTD/svg11.dtd">
<!-- Generated by graphviz version 2.28.0 (20111211.2114)
 -->
<!-- Title: G Pages: 1 -->
<!--zoomable-->
<svg id="main" version="1.1" xmlns="http://www.w3.org/2000/svg" xmlns:xlink="http://www.w3.org/1999/xlink" xml:space="preserve" onload="init(evt)">
        <defs>
                <circle id="rim" cx="0" cy="0" r="7"/>
                <circle id="rim2" cx="0" cy="0" r="3.5"/>
                <g id="zoomPlus">
                        <use xlink:href="#rim" fill="#404040">
                                <set attributeName="fill" to="#808080" begin="zoomplus.mouseover" end="zoomplus.mouseout"/>
                        </use>
                        <path d="M-4,0h8M0,-4v8" fill="none" stroke="white" stroke-width="1.5" pointer-events="none"/>
                </g>
                <g id="zoomMin">
                        <use xlink:href="#rim" fill="#404040">
                                <set attributeName="fill" to="#808080" begin="zoomminus.mouseover" end="zoomminus.mouseout"/>
                        </use>
                        <path d="M-4,0h8" fill="none" stroke="white" stroke-width="1.5" pointer-events="none"/>
                </g>
                <g id="dirArrow">
                        <path fill="none" stroke="white" stroke-width="1.5" d="M0,-3.0v7 M-2.5,-0.5L0,-3.0L2.5,-0.5"/>
                </g>
               <g id="resetDef">
                       <use xlink:href="#rim2" fill="#404040">
                               <set attributeName="fill" to="#808080" begin="reset.mouseover" end="reset.mouseout"/>
                       </use>
               </g>
        </defs>

<script type="text/javascript">
var viewWidth = 1007;
var viewHeight = 252;
var sectionId = 'dynsection-0';
</script>
<script xlink:href="svgpan.js"/>
<svg id="graph" class="graph">
<g id="viewport">
<title>G</title>
<!-- Node1 -->
<g id="node1" class="node"><title>Node1</title>
<polygon fill="#bfbfbf" stroke="black" points="611.34,-224.5 611.34,-243.5 986.34,-243.5 986.34,-224.5 611.34,-224.5"/>
<text text-anchor="middle" x="798.84" y="-231.5" font-family="Helvetica,sans-Serif" font-size="10.00">/home/pjm3/freeradius&#45;server/src/modules/rlm_eap/types/rlm_eap_pwd/eap_pwd.c</text>
</g>
<!-- Node2 -->
<g id="node3" class="node"><title>Node2</title>
<polygon fill="none" stroke="#bfbfbf" points="356.84,-0.5 356.84,-19.5 474.84,-19.5 474.84,-0.5 356.84,-0.5"/>
<text text-anchor="middle" x="415.84" y="-7.5" font-family="Helvetica,sans-Serif" font-size="10.00">freeradius&#45;devel/ident.h</text>
</g>
<!-- Node1&#45;&gt;Node2 -->
<g id="edge2" class="edge"><title>Node1&#45;&gt;Node2</title>
<path fill="none" stroke="midnightblue" d="M645.858,-224.494C427.019,-210.71 46.369,-180.085 5.83961,-132 -40.4967,-77.0255 218.161,-35.9546 346.688,-19.2319"/>
<polygon fill="midnightblue" stroke="midnightblue" points="347.363,-22.674 356.835,-17.9271 346.47,-15.7312 347.363,-22.674"/>
</g>
<!-- Node3 -->
<g id="node5" class="node"><title>Node3</title>
<polygon fill="none" stroke="#bfbfbf" points="864.84,-168.5 864.84,-187.5 998.84,-187.5 998.84,-168.5 864.84,-168.5"/>
<text text-anchor="middle" x="931.84" y="-175.5" font-family="Helvetica,sans-Serif" font-size="10.00">freeradius&#45;devel/autoconf.h</text>
</g>
<!-- Node1&#45;&gt;Node3 -->
<g id="edge4" class="edge"><title>Node1&#45;&gt;Node3</title>
<path fill="none" stroke="midnightblue" d="M819.914,-224.444C841.899,-215.517 876.574,-201.439 901.504,-191.317"/>
<polygon fill="midnightblue" stroke="midnightblue" points="902.915,-194.521 910.864,-187.516 900.282,-188.035 902.915,-194.521"/>
</g>
<!-- Node4 -->
<g id="node7" class="node"><title>Node4</title>
<a xlink:href="eap__pwd_8h.html" target="_top" xlink:title="eap_pwd.h">
<polygon fill="none" stroke="black" points="340.84,-168.5 340.84,-187.5 404.84,-187.5 404.84,-168.5 340.84,-168.5"/>
<text text-anchor="middle" x="372.84" y="-175.5" font-family="Helvetica,sans-Serif" font-size="10.00">eap_pwd.h</text>
</a>
</g>
<!-- Node1&#45;&gt;Node4 -->
<g id="edge6" class="edge"><title>Node1&#45;&gt;Node4</title>
<path fill="none" stroke="midnightblue" d="M731.339,-224.444C642.564,-213.19 489.199,-193.75 415.201,-184.37"/>
<polygon fill="midnightblue" stroke="midnightblue" points="415.237,-180.846 404.877,-183.061 414.357,-187.791 415.237,-180.846"/>
</g>
<!-- Node6 -->
<g id="node13" class="node"><title>Node6</title>
<polygon fill="none" stroke="#bfbfbf" points="585.84,-0.5 585.84,-19.5 713.84,-19.5 713.84,-0.5 585.84,-0.5"/>
<text text-anchor="middle" x="649.84" y="-7.5" font-family="Helvetica,sans-Serif" font-size="10.00">freeradius&#45;devel/radiusd.h</text>
</g>
<!-- Node1&#45;&gt;Node6 -->
<g id="edge38" class="edge"><title>Node1&#45;&gt;Node6</title>
<path fill="none" stroke="midnightblue" d="M798.392,-224.488C796.511,-196.822 787.067,-108.225 741.84,-56 728.679,-40.8034 709.198,-30.2524 691.547,-23.2079"/>
<polygon fill="midnightblue" stroke="midnightblue" points="692.573,-19.8554 681.98,-19.6477 690.132,-26.4158 692.573,-19.8554"/>
</g>
<!-- Node7 -->
<g id="node15" class="node"><title>Node7</title>
<polygon fill="none" stroke="#bfbfbf" points="731.84,-0.5 731.84,-19.5 865.84,-19.5 865.84,-0.5 731.84,-0.5"/>
<text text-anchor="middle" x="798.84" y="-7.5" font-family="Helvetica,sans-Serif" font-size="10.00">freeradius&#45;devel/modules.h</text>
</g>
<!-- Node1&#45;&gt;Node7 -->
<g id="edge40" class="edge"><title>Node1&#45;&gt;Node7</title>
<path fill="none" stroke="midnightblue" d="M802.44,-224.222C805.896,-215.285 810.873,-200.942 812.84,-188 821.654,-129.999 821.654,-114.001 812.84,-56 811.472,-47.001 808.649,-37.3251 805.894,-29.2601"/>
<polygon fill="midnightblue" stroke="midnightblue" points="809.151,-27.9759 802.44,-19.7782 802.574,-30.3722 809.151,-27.9759"/>
</g>
<!-- Node4&#45;&gt;Node2 -->
<g id="edge8" class="edge"><title>Node4&#45;&gt;Node2</title>
<path fill="none" stroke="midnightblue" d="M375.43,-168.401C378.127,-159.364 382.426,-144.724 385.84,-132 395.572,-95.7281 405.894,-53.0365 411.534,-29.2921"/>
<polygon fill="midnightblue" stroke="midnightblue" points="414.946,-30.0744 413.841,-19.5373 408.134,-28.4633 414.946,-30.0744"/>
</g>
<!-- Node5 -->
<g id="node10" class="node"><title>Node5</title>
<a xlink:href="eap_8h.html" target="_top" xlink:title="eap.h">
<polygon fill="none" stroke="black" points="536.34,-112.5 536.34,-131.5 577.34,-131.5 577.34,-112.5 536.34,-112.5"/>
<text text-anchor="middle" x="556.84" y="-119.5" font-family="Helvetica,sans-Serif" font-size="10.00">eap.h</text>
</a>
</g>
<!-- Node4&#45;&gt;Node5 -->
<g id="edge10" class="edge"><title>Node4&#45;&gt;Node5</title>
<path fill="none" stroke="midnightblue" d="M401.995,-168.444C435.882,-158.499 491.558,-142.159 526.105,-132.02"/>
<polygon fill="midnightblue" stroke="midnightblue" points="527.491,-135.261 536.101,-129.086 525.52,-128.544 527.491,-135.261"/>
</g>
<!-- Node10 -->
<g id="node24" class="node"><title>Node10</title>
<polygon fill="none" stroke="#bfbfbf" points="304.84,-112.5 304.84,-131.5 376.84,-131.5 376.84,-112.5 304.84,-112.5"/>
<text text-anchor="middle" x="340.84" y="-119.5" font-family="Helvetica,sans-Serif" font-size="10.00">openssl/bn.h</text>
</g>
<!-- Node4&#45;&gt;Node10 -->
<g id="edge28" class="edge"><title>Node4&#45;&gt;Node10</title>
<path fill="none" stroke="midnightblue" d="M367.555,-168.083C363.129,-160.613 356.676,-149.724 351.222,-140.52"/>
<polygon fill="midnightblue" stroke="midnightblue" points="354.135,-138.57 346.025,-131.751 348.112,-142.138 354.135,-138.57"/>
</g>
<!-- Node11 -->
<g id="node26" class="node"><title>Node11</title>
<polygon fill="none" stroke="#bfbfbf" points="433.34,-112.5 433.34,-131.5 510.34,-131.5 510.34,-112.5 433.34,-112.5"/>
<text text-anchor="middle" x="471.84" y="-119.5" font-family="Helvetica,sans-Serif" font-size="10.00">openssl/sha.h</text>
</g>
<!-- Node4&#45;&gt;Node11 -->
<g id="edge30" class="edge"><title>Node4&#45;&gt;Node11</title>
<path fill="none" stroke="midnightblue" d="M388.746,-168.324C404.478,-159.743 428.782,-146.486 447.049,-136.522"/>
<polygon fill="midnightblue" stroke="midnightblue" points="448.87,-139.516 455.973,-131.655 445.518,-133.37 448.87,-139.516"/>
</g>
<!-- Node12 -->
<g id="node28" class="node"><title>Node12</title>
<polygon fill="none" stroke="#bfbfbf" points="14.8396,-112.5 14.8396,-131.5 86.8396,-131.5 86.8396,-112.5 14.8396,-112.5"/>
<text text-anchor="middle" x="50.8396" y="-119.5" font-family="Helvetica,sans-Serif" font-size="10.00">openssl/ec.h</text>
</g>
<!-- Node4&#45;&gt;Node12 -->
<g id="edge32" class="edge"><title>Node4&#45;&gt;Node12</title>
<path fill="none" stroke="midnightblue" d="M340.785,-172.18C290.89,-164.593 191.394,-149.129 97.1507,-132.187"/>
<polygon fill="midnightblue" stroke="midnightblue" points="97.6303,-128.717 87.1673,-130.383 96.3856,-135.606 97.6303,-128.717"/>
</g>
<!-- Node13 -->
<g id="node30" class="node"><title>Node13</title>
<polygon fill="none" stroke="#bfbfbf" points="105.34,-112.5 105.34,-131.5 182.34,-131.5 182.34,-112.5 105.34,-112.5"/>
<text text-anchor="middle" x="143.84" y="-119.5" font-family="Helvetica,sans-Serif" font-size="10.00">openssl/evp.h</text>
</g>
<!-- Node4&#45;&gt;Node13 -->
<g id="edge34" class="edge"><title>Node4&#45;&gt;Node13</title>
<path fill="none" stroke="midnightblue" d="M340.515,-169.378C301.2,-160.107 234.567,-144.394 189.894,-133.86"/>
<polygon fill="midnightblue" stroke="midnightblue" points="190.692,-130.452 180.156,-131.564 189.086,-137.265 190.692,-130.452"/>
</g>
<!-- Node14 -->
<g id="node32" class="node"><title>Node14</title>
<polygon fill="none" stroke="#bfbfbf" points="200.84,-112.5 200.84,-131.5 286.84,-131.5 286.84,-112.5 200.84,-112.5"/>
<text text-anchor="middle" x="243.84" y="-119.5" font-family="Helvetica,sans-Serif" font-size="10.00">openssl/hmac.h</text>
</g>
<!-- Node4&#45;&gt;Node14 -->
<g id="edge36" class="edge"><title>Node4&#45;&gt;Node14</title>
<path fill="none" stroke="midnightblue" d="M352.399,-168.444C331.169,-159.557 297.741,-145.563 273.585,-135.451"/>
<polygon fill="midnightblue" stroke="midnightblue" points="274.76,-132.149 264.184,-131.516 272.057,-138.606 274.76,-132.149"/>
</g>
<!-- Node5&#45;&gt;Node2 -->
<g id="edge12" class="edge"><title>Node5&#45;&gt;Node2</title>
<path fill="none" stroke="midnightblue" d="M540.832,-112.426C525.604,-103.976 502.339,-90.2874 483.84,-76 464.175,-60.8125 443.867,-40.7194 430.625,-26.9156"/>
<polygon fill="midnightblue" stroke="midnightblue" points="433.119,-24.4584 423.704,-19.5995 428.034,-29.2691 433.119,-24.4584"/>
</g>
<!-- Node5&#45;&gt;Node6 -->
<g id="edge14" class="edge"><title>Node5&#45;&gt;Node6</title>
<path fill="none" stroke="midnightblue" d="M536.806,-112.492C511.985,-100.733 474.916,-78.4168 491.84,-56 503.395,-40.694 546.412,-29.0508 584.647,-21.446"/>
<polygon fill="midnightblue" stroke="midnightblue" points="585.596,-24.8277 594.756,-19.5043 584.276,-17.9534 585.596,-24.8277"/>
</g>
<!-- Node5&#45;&gt;Node7 -->
<g id="edge16" class="edge"><title>Node5&#45;&gt;Node7</title>
<path fill="none" stroke="midnightblue" d="M577.528,-119.998C613.435,-117.425 688.55,-108.288 741.84,-76 761.426,-64.1329 777.913,-43.3219 788.037,-28.4438"/>
<polygon fill="midnightblue" stroke="midnightblue" points="791.221,-29.9681 793.74,-19.6771 785.353,-26.1508 791.221,-29.9681"/>
</g>
<!-- Node8 -->
<g id="node17" class="node"><title>Node8</title>
<polygon fill="none" stroke="#bfbfbf" points="501.34,-56.5 501.34,-75.5 644.34,-75.5 644.34,-56.5 501.34,-56.5"/>
<text text-anchor="middle" x="572.84" y="-63.5" font-family="Helvetica,sans-Serif" font-size="10.00">freeradius&#45;devel/rad_assert.h</text>
</g>
<!-- Node5&#45;&gt;Node8 -->
<g id="edge18" class="edge"><title>Node5&#45;&gt;Node8</title>
<path fill="none" stroke="midnightblue" d="M559.482,-112.083C561.625,-104.849 564.719,-94.4087 567.389,-85.3968"/>
<polygon fill="midnightblue" stroke="midnightblue" points="570.762,-86.3334 570.247,-75.7511 564.05,-84.3447 570.762,-86.3334"/>
</g>
<!-- Node9 -->
<g id="node19" class="node"><title>Node9</title>
<a xlink:href="eap__types_8h.html" target="_top" xlink:title="eap_types.h">
<polygon fill="none" stroke="black" points="662.84,-56.5 662.84,-75.5 732.84,-75.5 732.84,-56.5 662.84,-56.5"/>
<text text-anchor="middle" x="697.84" y="-63.5" font-family="Helvetica,sans-Serif" font-size="10.00">eap_types.h</text>
</a>
</g>
<!-- Node5&#45;&gt;Node9 -->
<g id="edge20" class="edge"><title>Node5&#45;&gt;Node9</title>
<path fill="none" stroke="midnightblue" d="M577.342,-113.148C600.607,-104.238 638.837,-89.5968 665.992,-79.1968"/>
<polygon fill="midnightblue" stroke="midnightblue" points="667.361,-82.4206 675.448,-75.5756 664.857,-75.8836 667.361,-82.4206"/>
</g>
<!-- Node9&#45;&gt;Node2 -->
<g id="edge22" class="edge"><title>Node9&#45;&gt;Node2</title>
<path fill="none" stroke="midnightblue" d="M662.473,-57.8928C659.217,-57.2487 655.968,-56.6097 652.84,-56 590.86,-43.9182 519.677,-30.4583 471.632,-21.4345"/>
<polygon fill="midnightblue" stroke="midnightblue" points="472.216,-17.9832 461.742,-19.5784 470.925,-24.8631 472.216,-17.9832"/>
</g>
<!-- Node9&#45;&gt;Node6 -->
<g id="edge24" class="edge"><title>Node9&#45;&gt;Node6</title>
<path fill="none" stroke="midnightblue" d="M689.913,-56.083C682.994,-48.2982 672.774,-36.8015 664.388,-27.3665"/>
<polygon fill="midnightblue" stroke="midnightblue" points="666.878,-24.8999 657.618,-19.7511 661.646,-29.5505 666.878,-24.8999"/>
</g>
<!-- Node9&#45;&gt;Node7 -->
<g id="edge26" class="edge"><title>Node9&#45;&gt;Node7</title>
<path fill="none" stroke="midnightblue" d="M714.067,-56.324C730.191,-47.7034 755.14,-34.3643 773.804,-24.3855"/>
<polygon fill="midnightblue" stroke="midnightblue" points="775.484,-27.456 782.652,-19.6545 772.184,-21.283 775.484,-27.456"/>
</g>
</g>
</svg>
        <g id="navigator" transform="translate(0 0)" fill="#404254">
                <rect fill="#f2f5e9" fill-opacity="0.5" stroke="#606060" stroke-width=".5" x="0" y="0" width="60" height="60"/>
                <use id="zoomplus" xlink:href="#zoomPlus" x="17" y="9" onmousedown="handleZoom(evt,'in')"/>
                <use id="zoomminus" xlink:href="#zoomMin" x="42" y="9" onmousedown="handleZoom(evt,'out')"/>
                <use id="reset" xlink:href="#resetDef" x="30" y="36" onmousedown="handleReset()"/>
                <g id="arrowUp" xlink:href="#dirArrow" transform="translate(30 24)" onmousedown="handlePan(0,-1)">
                  <use xlink:href="#rim" fill="#404040">
                        <set attributeName="fill" to="#808080" begin="arrowUp.mouseover" end="arrowUp.mouseout"/>
                  </use>
                  <path fill="none" stroke="white" stroke-width="1.5" d="M0,-3.0v7 M-2.5,-0.5L0,-3.0L2.5,-0.5"/>
                </g>
                <g id="arrowRight" xlink:href="#dirArrow" transform="rotate(90) translate(36 -43)" onmousedown="handlePan(1,0)">
                  <use xlink:href="#rim" fill="#404040">
                        <set attributeName="fill" to="#808080" begin="arrowRight.mouseover" end="arrowRight.mouseout"/>
                  </use>
                  <path fill="none" stroke="white" stroke-width="1.5" d="M0,-3.0v7 M-2.5,-0.5L0,-3.0L2.5,-0.5"/>
                </g>
                <g id="arrowDown" xlink:href="#dirArrow" transform="rotate(180) translate(-30 -48)" onmousedown="handlePan(0,1)">
                  <use xlink:href="#rim" fill="#404040">
                        <set attributeName="fill" to="#808080" begin="arrowDown.mouseover" end="arrowDown.mouseout"/>
                  </use>
                  <path fill="none" stroke="white" stroke-width="1.5" d="M0,-3.0v7 M-2.5,-0.5L0,-3.0L2.5,-0.5"/>
                </g>
                <g id="arrowLeft" xlink:href="#dirArrow" transform="rotate(270) translate(-36 17)" onmousedown="handlePan(-1,0)">
                  <use xlink:href="#rim" fill="#404040">
                        <set attributeName="fill" to="#808080" begin="arrowLeft.mouseover" end="arrowLeft.mouseout"/>
                  </use>
                  <path fill="none" stroke="white" stroke-width="1.5" d="M0,-3.0v7 M-2.5,-0.5L0,-3.0L2.5,-0.5"/>
                </g>
        </g>
</svg>
