<?xml version="1.0" encoding="UTF-8" standalone="no"?>
<!DOCTYPE svg PUBLIC "-//W3C//DTD SVG 1.1//EN"
 "http://www.w3.org/Graphics/SVG/1.1/DTD/svg11.dtd">
<!-- Generated by graphviz version 2.28.0 (20111211.2114)
 -->
<!-- Title: G Pages: 1 -->
<svg width="477pt" height="252pt"
 viewBox="0.00 0.00 477.00 252.00" xmlns="http://www.w3.org/2000/svg" xmlns:xlink="http://www.w3.org/1999/xlink">
<g id="graph1" class="graph" transform="scale(1 1) rotate(0) translate(4 248)">
<title>G</title>
<!-- Node1 -->
<g id="node1" class="node"><title>Node1</title>
<polygon fill="#bfbfbf" stroke="black" points="-0.5,-224.5 -0.5,-243.5 376.5,-243.5 376.5,-224.5 -0.5,-224.5"/>
<text text-anchor="middle" x="188" y="-231.5" font-family="Helvetica,sans-Serif" font-size="10.00">/home/pjm3/freeradius&#45;server/src/modules/rlm_eap/types/rlm_eap_md5/eap_md5.c</text>
</g>
<!-- Node2 -->
<g id="node3" class="node"><title>Node2</title>
<polygon fill="none" stroke="#bfbfbf" points="18,-0.5 18,-19.5 136,-19.5 136,-0.5 18,-0.5"/>
<text text-anchor="middle" x="77" y="-7.5" font-family="Helvetica,sans-Serif" font-size="10.00">freeradius&#45;devel/ident.h</text>
</g>
<!-- Node1&#45;&gt;Node2 -->
<g id="edge2" class="edge"><title>Node1&#45;&gt;Node2</title>
<path fill="none" stroke="midnightblue" d="M142.111,-224.494C121.137,-218.115 98.0956,-207.059 85,-188 51.6634,-139.484 63.6965,-64.5947 71.8975,-29.8725"/>
<polygon fill="midnightblue" stroke="midnightblue" points="75.403,-30.286 74.4607,-19.7331 68.6165,-28.5703 75.403,-30.286"/>
</g>
<!-- Node3 -->
<g id="node5" class="node"><title>Node3</title>
<polygon fill="none" stroke="#bfbfbf" points="216,-168.5 216,-187.5 262,-187.5 262,-168.5 216,-168.5"/>
<text text-anchor="middle" x="239" y="-175.5" font-family="Helvetica,sans-Serif" font-size="10.00">stdio.h</text>
</g>
<!-- Node1&#45;&gt;Node3 -->
<g id="edge4" class="edge"><title>Node1&#45;&gt;Node3</title>
<path fill="none" stroke="midnightblue" d="M196.422,-224.083C203.848,-216.22 214.852,-204.569 223.812,-195.081"/>
<polygon fill="midnightblue" stroke="midnightblue" points="226.413,-197.424 230.735,-187.751 221.324,-192.618 226.413,-197.424"/>
</g>
<!-- Node4 -->
<g id="node7" class="node"><title>Node4</title>
<polygon fill="none" stroke="#bfbfbf" points="280,-168.5 280,-187.5 328,-187.5 328,-168.5 280,-168.5"/>
<text text-anchor="middle" x="304" y="-175.5" font-family="Helvetica,sans-Serif" font-size="10.00">stdlib.h</text>
</g>
<!-- Node1&#45;&gt;Node4 -->
<g id="edge6" class="edge"><title>Node1&#45;&gt;Node4</title>
<path fill="none" stroke="midnightblue" d="M206.381,-224.444C225.216,-215.675 254.731,-201.935 276.379,-191.858"/>
<polygon fill="midnightblue" stroke="midnightblue" points="278.117,-194.91 285.705,-187.516 275.162,-188.564 278.117,-194.91"/>
</g>
<!-- Node5 -->
<g id="node9" class="node"><title>Node5</title>
<a xlink:href="eap_8h.html" target="_top" xlink:title="eap.h">
<polygon fill="none" stroke="black" points="176.5,-112.5 176.5,-131.5 217.5,-131.5 217.5,-112.5 176.5,-112.5"/>
<text text-anchor="middle" x="197" y="-119.5" font-family="Helvetica,sans-Serif" font-size="10.00">eap.h</text>
</a>
</g>
<!-- Node1&#45;&gt;Node5 -->
<g id="edge8" class="edge"><title>Node1&#45;&gt;Node5</title>
<path fill="none" stroke="midnightblue" d="M188.706,-224.368C190.159,-206.617 193.509,-165.666 195.478,-141.597"/>
<polygon fill="midnightblue" stroke="midnightblue" points="198.97,-141.844 196.297,-131.591 191.993,-141.273 198.97,-141.844"/>
</g>
<!-- Node10 -->
<g id="node23" class="node"><title>Node10</title>
<a xlink:href="eap__md5_8h.html" target="_top" xlink:title="eap_md5.h">
<polygon fill="none" stroke="black" points="94.5,-168.5 94.5,-187.5 159.5,-187.5 159.5,-168.5 94.5,-168.5"/>
<text text-anchor="middle" x="127" y="-175.5" font-family="Helvetica,sans-Serif" font-size="10.00">eap_md5.h</text>
</a>
</g>
<!-- Node1&#45;&gt;Node10 -->
<g id="edge26" class="edge"><title>Node1&#45;&gt;Node10</title>
<path fill="none" stroke="midnightblue" d="M178.199,-224.324C169.182,-216.341 155.594,-204.313 144.682,-194.653"/>
<polygon fill="midnightblue" stroke="midnightblue" points="146.787,-191.842 136.979,-187.834 142.147,-197.083 146.787,-191.842"/>
</g>
<!-- Node5&#45;&gt;Node2 -->
<g id="edge10" class="edge"><title>Node5&#45;&gt;Node2</title>
<path fill="none" stroke="midnightblue" d="M187.584,-112.368C167.342,-93.8137 119.45,-49.9129 93.841,-26.4376"/>
<polygon fill="midnightblue" stroke="midnightblue" points="96.1091,-23.7686 86.3725,-19.5914 91.379,-28.9287 96.1091,-23.7686"/>
</g>
<!-- Node6 -->
<g id="node12" class="node"><title>Node6</title>
<polygon fill="none" stroke="#bfbfbf" points="306,-0.5 306,-19.5 434,-19.5 434,-0.5 306,-0.5"/>
<text text-anchor="middle" x="370" y="-7.5" font-family="Helvetica,sans-Serif" font-size="10.00">freeradius&#45;devel/radiusd.h</text>
</g>
<!-- Node5&#45;&gt;Node6 -->
<g id="edge12" class="edge"><title>Node5&#45;&gt;Node6</title>
<path fill="none" stroke="midnightblue" d="M210.575,-112.368C240.262,-93.4924 311.204,-48.385 347.61,-25.2367"/>
<polygon fill="midnightblue" stroke="midnightblue" points="349.927,-27.9106 356.488,-19.5914 346.171,-22.0035 349.927,-27.9106"/>
</g>
<!-- Node7 -->
<g id="node14" class="node"><title>Node7</title>
<polygon fill="none" stroke="#bfbfbf" points="154,-0.5 154,-19.5 288,-19.5 288,-0.5 154,-0.5"/>
<text text-anchor="middle" x="221" y="-7.5" font-family="Helvetica,sans-Serif" font-size="10.00">freeradius&#45;devel/modules.h</text>
</g>
<!-- Node5&#45;&gt;Node7 -->
<g id="edge14" class="edge"><title>Node5&#45;&gt;Node7</title>
<path fill="none" stroke="midnightblue" d="M209.781,-112.369C220.394,-104.36 234.731,-91.3795 241,-76 247.456,-60.1638 240.204,-41.4396 232.689,-28.165"/>
<polygon fill="midnightblue" stroke="midnightblue" points="235.609,-26.2331 227.363,-19.5814 229.661,-29.9239 235.609,-26.2331"/>
</g>
<!-- Node8 -->
<g id="node16" class="node"><title>Node8</title>
<polygon fill="none" stroke="#bfbfbf" points="326.5,-56.5 326.5,-75.5 469.5,-75.5 469.5,-56.5 326.5,-56.5"/>
<text text-anchor="middle" x="398" y="-63.5" font-family="Helvetica,sans-Serif" font-size="10.00">freeradius&#45;devel/rad_assert.h</text>
</g>
<!-- Node5&#45;&gt;Node8 -->
<g id="edge16" class="edge"><title>Node5&#45;&gt;Node8</title>
<path fill="none" stroke="midnightblue" d="M217.753,-115.424C250.347,-106.668 314.172,-89.521 356.457,-78.1609"/>
<polygon fill="midnightblue" stroke="midnightblue" points="357.434,-81.5224 366.184,-75.5476 355.618,-74.7621 357.434,-81.5224"/>
</g>
<!-- Node9 -->
<g id="node18" class="node"><title>Node9</title>
<a xlink:href="eap__types_8h.html" target="_top" xlink:title="eap_types.h">
<polygon fill="none" stroke="black" points="162,-56.5 162,-75.5 232,-75.5 232,-56.5 162,-56.5"/>
<text text-anchor="middle" x="197" y="-63.5" font-family="Helvetica,sans-Serif" font-size="10.00">eap_types.h</text>
</a>
</g>
<!-- Node5&#45;&gt;Node9 -->
<g id="edge18" class="edge"><title>Node5&#45;&gt;Node9</title>
<path fill="none" stroke="midnightblue" d="M197,-112.083C197,-105.006 197,-94.8611 197,-85.9865"/>
<polygon fill="midnightblue" stroke="midnightblue" points="200.5,-85.751 197,-75.7511 193.5,-85.7511 200.5,-85.751"/>
</g>
<!-- Node9&#45;&gt;Node2 -->
<g id="edge20" class="edge"><title>Node9&#45;&gt;Node2</title>
<path fill="none" stroke="midnightblue" d="M177.986,-56.4435C158.412,-47.6356 127.692,-33.8116 105.271,-23.722"/>
<polygon fill="midnightblue" stroke="midnightblue" points="106.481,-20.4284 95.9254,-19.5164 103.608,-26.8119 106.481,-20.4284"/>
</g>
<!-- Node9&#45;&gt;Node6 -->
<g id="edge22" class="edge"><title>Node9&#45;&gt;Node6</title>
<path fill="none" stroke="midnightblue" d="M224.412,-56.4435C253.769,-47.2801 300.519,-32.6876 333.096,-22.5192"/>
<polygon fill="midnightblue" stroke="midnightblue" points="334.213,-25.8371 342.716,-19.5164 332.127,-19.1551 334.213,-25.8371"/>
</g>
<!-- Node9&#45;&gt;Node7 -->
<g id="edge24" class="edge"><title>Node9&#45;&gt;Node7</title>
<path fill="none" stroke="midnightblue" d="M200.963,-56.083C204.213,-48.77 208.919,-38.1814 212.954,-29.1034"/>
<polygon fill="midnightblue" stroke="midnightblue" points="216.248,-30.3107 217.111,-19.7511 209.851,-27.4677 216.248,-30.3107"/>
</g>
<!-- Node10&#45;&gt;Node2 -->
<g id="edge28" class="edge"><title>Node10&#45;&gt;Node2</title>
<path fill="none" stroke="midnightblue" d="M124.312,-168.075C116.441,-141.945 93.3285,-65.2106 82.5955,-29.577"/>
<polygon fill="midnightblue" stroke="midnightblue" points="85.8162,-28.1338 79.5808,-19.5681 79.1136,-30.1526 85.8162,-28.1338"/>
</g>
<!-- Node10&#45;&gt;Node5 -->
<g id="edge30" class="edge"><title>Node10&#45;&gt;Node5</title>
<path fill="none" stroke="midnightblue" d="M138.247,-168.324C148.797,-160.185 164.801,-147.839 177.442,-138.087"/>
<polygon fill="midnightblue" stroke="midnightblue" points="179.769,-140.713 185.549,-131.834 175.493,-135.171 179.769,-140.713"/>
</g>
</g>
</svg>
