<?xml version="1.0" encoding="UTF-8" standalone="no"?>
<!DOCTYPE svg PUBLIC "-//W3C//DTD SVG 1.1//EN"
 "http://www.w3.org/Graphics/SVG/1.1/DTD/svg11.dtd">
<!-- Generated by graphviz version 2.28.0 (20111211.2114)
 -->
<!-- Title: G Pages: 1 -->
<!--zoomable-->
<svg id="main" version="1.1" xmlns="http://www.w3.org/2000/svg" xmlns:xlink="http://www.w3.org/1999/xlink" xml:space="preserve" onload="init(evt)">
        <defs>
                <circle id="rim" cx="0" cy="0" r="7"/>
                <circle id="rim2" cx="0" cy="0" r="3.5"/>
                <g id="zoomPlus">
                        <use xlink:href="#rim" fill="#404040">
                                <set attributeName="fill" to="#808080" begin="zoomplus.mouseover" end="zoomplus.mouseout"/>
                        </use>
                        <path d="M-4,0h8M0,-4v8" fill="none" stroke="white" stroke-width="1.5" pointer-events="none"/>
                </g>
                <g id="zoomMin">
                        <use xlink:href="#rim" fill="#404040">
                                <set attributeName="fill" to="#808080" begin="zoomminus.mouseover" end="zoomminus.mouseout"/>
                        </use>
                        <path d="M-4,0h8" fill="none" stroke="white" stroke-width="1.5" pointer-events="none"/>
                </g>
                <g id="dirArrow">
                        <path fill="none" stroke="white" stroke-width="1.5" d="M0,-3.0v7 M-2.5,-0.5L0,-3.0L2.5,-0.5"/>
                </g>
               <g id="resetDef">
                       <use xlink:href="#rim2" fill="#404040">
                               <set attributeName="fill" to="#808080" begin="reset.mouseover" end="reset.mouseout"/>
                       </use>
               </g>
        </defs>

<script type="text/javascript">
var viewWidth = 7744;
var viewHeight = 252;
var sectionId = 'dynsection-1';
</script>
<script xlink:href="svgpan.js"/>
<svg id="graph" class="graph">
<g id="viewport">
<title>G</title>
<!-- Node1 -->
<g id="node1" class="node"><title>Node1</title>
<polygon fill="#bfbfbf" stroke="black" points="6667,-224.5 6667,-243.5 6989,-243.5 6989,-224.5 6667,-224.5"/>
<text text-anchor="middle" x="6828" y="-231.5" font-family="Helvetica,sans-Serif" font-size="10.00">/home/pjm3/freeradius&#45;server/src/modules/rlm_eap/libeap/eap_types.h</text>
</g>
<!-- Node2 -->
<g id="node3" class="node"><title>Node2</title>
<a xlink:href="eap_8h.html" target="_top" xlink:title="/home/pjm3/freeradius&#45;server/src/modules/rlm_eap/eap.h">
<polygon fill="none" stroke="black" points="3051,-168.5 3051,-187.5 3315,-187.5 3315,-168.5 3051,-168.5"/>
<text text-anchor="middle" x="3183" y="-175.5" font-family="Helvetica,sans-Serif" font-size="10.00">/home/pjm3/freeradius&#45;server/src/modules/rlm_eap/eap.h</text>
</a>
</g>
<!-- Node1&#45;&gt;Node2 -->
<g id="edge2" class="edge"><title>Node1&#45;&gt;Node2</title>
<path fill="none" stroke="midnightblue" d="M6656.97,-230.466C6031.1,-221.194 3873.02,-189.223 3315.36,-180.961"/>
<polygon fill="midnightblue" stroke="midnightblue" points="6656.92,-233.966 6666.97,-230.614 6657.02,-226.967 6656.92,-233.966"/>
</g>
<!-- Node3 -->
<g id="node5" class="node"><title>Node3</title>
<a xlink:href="rlm__eap_8h.html" target="_top" xlink:title="/home/pjm3/freeradius&#45;server/src/modules/rlm_eap/rlm_eap.h">
<polygon fill="none" stroke="black" points="570.5,-112.5 570.5,-131.5 853.5,-131.5 853.5,-112.5 570.5,-112.5"/>
<text text-anchor="middle" x="712" y="-119.5" font-family="Helvetica,sans-Serif" font-size="10.00">/home/pjm3/freeradius&#45;server/src/modules/rlm_eap/rlm_eap.h</text>
</a>
</g>
<!-- Node1&#45;&gt;Node3 -->
<g id="edge88" class="edge"><title>Node1&#45;&gt;Node3</title>
<path fill="none" stroke="midnightblue" d="M6656.43,-231.938C6121.61,-228.419 4437.05,-215.748 3042,-188 2212.59,-171.503 1217.42,-139.746 853.822,-127.747"/>
<polygon fill="midnightblue" stroke="midnightblue" points="6656.52,-235.439 6666.54,-232.005 6656.57,-228.439 6656.52,-235.439"/>
</g>
<!-- Node39 -->
<g id="node84" class="node"><title>Node39</title>
<a xlink:href="eap__sim_8h.html" target="_top" xlink:title="/home/pjm3/freeradius&#45;server/src/modules/rlm_eap/libeap/eap_sim.h">
<polygon fill="none" stroke="black" points="6764,-168.5 6764,-187.5 7078,-187.5 7078,-168.5 6764,-168.5"/>
<text text-anchor="middle" x="6921" y="-175.5" font-family="Helvetica,sans-Serif" font-size="10.00">/home/pjm3/freeradius&#45;server/src/modules/rlm_eap/libeap/eap_sim.h</text>
</a>
</g>
<!-- Node1&#45;&gt;Node39 -->
<g id="edge90" class="edge"><title>Node1&#45;&gt;Node39</title>
<path fill="none" stroke="midnightblue" d="M6851.81,-219.177C6868.92,-209.241 6891.47,-196.149 6906.1,-187.655"/>
<polygon fill="midnightblue" stroke="midnightblue" points="6849.83,-216.276 6842.94,-224.324 6853.35,-222.329 6849.83,-216.276"/>
</g>
<!-- Node40 -->
<g id="node86" class="node"><title>Node40</title>
<a xlink:href="eapcrypto_8c.html" target="_top" xlink:title="/home/pjm3/freeradius&#45;server/src/modules/rlm_eap/libeap/eapcrypto.c">
<polygon fill="none" stroke="black" points="6353,-112.5 6353,-131.5 6673,-131.5 6673,-112.5 6353,-112.5"/>
<text text-anchor="middle" x="6513" y="-119.5" font-family="Helvetica,sans-Serif" font-size="10.00">/home/pjm3/freeradius&#45;server/src/modules/rlm_eap/libeap/eapcrypto.c</text>
</a>
</g>
<!-- Node1&#45;&gt;Node40 -->
<g id="edge102" class="edge"><title>Node1&#45;&gt;Node40</title>
<path fill="none" stroke="midnightblue" d="M6793.93,-221.104C6730.02,-198.786 6593.56,-151.132 6537.66,-131.61"/>
<polygon fill="midnightblue" stroke="midnightblue" points="6792.95,-224.467 6803.54,-224.46 6795.26,-217.859 6792.95,-224.467"/>
</g>
<!-- Node41 -->
<g id="node88" class="node"><title>Node41</title>
<a xlink:href="eapsimlib_8c.html" target="_top" xlink:title="/home/pjm3/freeradius&#45;server/src/modules/rlm_eap/libeap/eapsimlib.c">
<polygon fill="none" stroke="black" points="6691,-112.5 6691,-131.5 7009,-131.5 7009,-112.5 6691,-112.5"/>
<text text-anchor="middle" x="6850" y="-119.5" font-family="Helvetica,sans-Serif" font-size="10.00">/home/pjm3/freeradius&#45;server/src/modules/rlm_eap/libeap/eapsimlib.c</text>
</a>
</g>
<!-- Node1&#45;&gt;Node41 -->
<g id="edge104" class="edge"><title>Node1&#45;&gt;Node41</title>
<path fill="none" stroke="midnightblue" d="M6794.63,-220.239C6769.39,-208.532 6741.24,-189.743 6755,-168 6766.91,-149.186 6789.04,-138.084 6808.95,-131.617"/>
<polygon fill="midnightblue" stroke="midnightblue" points="6793.5,-223.567 6804.07,-224.371 6796.31,-217.154 6793.5,-223.567"/>
</g>
<!-- Node42 -->
<g id="node90" class="node"><title>Node42</title>
<a xlink:href="radeapclient_8c.html" target="_top" xlink:title="/home/pjm3/freeradius&#45;server/src/modules/rlm_eap/radeapclient.c">
<polygon fill="none" stroke="black" points="7027.5,-112.5 7027.5,-131.5 7328.5,-131.5 7328.5,-112.5 7027.5,-112.5"/>
<text text-anchor="middle" x="7178" y="-119.5" font-family="Helvetica,sans-Serif" font-size="10.00">/home/pjm3/freeradius&#45;server/src/modules/rlm_eap/radeapclient.c</text>
</a>
</g>
<!-- Node1&#45;&gt;Node42 -->
<g id="edge106" class="edge"><title>Node1&#45;&gt;Node42</title>
<path fill="none" stroke="midnightblue" d="M6950.96,-223.067C6995.09,-216.565 7044.43,-205.805 7087,-188 7120.32,-174.066 7153.26,-146.067 7168.78,-131.797"/>
<polygon fill="midnightblue" stroke="midnightblue" points="6950.46,-219.604 6941.05,-224.471 6951.44,-226.535 6950.46,-219.604"/>
</g>
<!-- Node43 -->
<g id="node92" class="node"><title>Node43</title>
<a xlink:href="rlm__eap__sim_8c.html" target="_top" xlink:title="/home/pjm3/freeradius&#45;server/src/modules/rlm_eap/types/rlm_eap_sim/rlm_eap_sim.c">
<polygon fill="none" stroke="black" points="7346.5,-112.5 7346.5,-131.5 7735.5,-131.5 7735.5,-112.5 7346.5,-112.5"/>
<text text-anchor="middle" x="7541" y="-119.5" font-family="Helvetica,sans-Serif" font-size="10.00">/home/pjm3/freeradius&#45;server/src/modules/rlm_eap/types/rlm_eap_sim/rlm_eap_sim.c</text>
</a>
</g>
<!-- Node1&#45;&gt;Node43 -->
<g id="edge108" class="edge"><title>Node1&#45;&gt;Node43</title>
<path fill="none" stroke="midnightblue" d="M6936.99,-223.291C6992.3,-216.576 7060.09,-205.582 7119,-188 7139.58,-181.857 7142.31,-173.783 7163,-168 7231.58,-148.83 7309.4,-137.826 7376.52,-131.509"/>
<polygon fill="midnightblue" stroke="midnightblue" points="6936.33,-219.845 6926.81,-224.496 6937.15,-226.796 6936.33,-219.845"/>
</g>
<!-- Node44 -->
<g id="node94" class="node"><title>Node44</title>
<a xlink:href="eapcommon_8c.html" target="_top" xlink:title="/home/pjm3/freeradius&#45;server/src/modules/rlm_eap/libeap/eapcommon.c">
<polygon fill="none" stroke="black" points="7172,-168.5 7172,-187.5 7502,-187.5 7502,-168.5 7172,-168.5"/>
<text text-anchor="middle" x="7337" y="-175.5" font-family="Helvetica,sans-Serif" font-size="10.00">/home/pjm3/freeradius&#45;server/src/modules/rlm_eap/libeap/eapcommon.c</text>
</a>
</g>
<!-- Node1&#45;&gt;Node44 -->
<g id="edge100" class="edge"><title>Node1&#45;&gt;Node44</title>
<path fill="none" stroke="midnightblue" d="M6918.35,-223.414C7014.33,-213.232 7164.64,-197.286 7256.63,-187.526"/>
<polygon fill="midnightblue" stroke="midnightblue" points="6917.95,-219.938 6908.37,-224.473 6918.69,-226.899 6917.95,-219.938"/>
</g>
<!-- Node2&#45;&gt;Node3 -->
<g id="edge4" class="edge"><title>Node2&#45;&gt;Node3</title>
<path fill="none" stroke="midnightblue" d="M3040.71,-174.074C2702.05,-167.083 1821.46,-148.74 1086,-132 1009.22,-130.252 923.57,-128.199 853.631,-126.495"/>
<polygon fill="midnightblue" stroke="midnightblue" points="3040.75,-177.576 3050.82,-174.283 3040.89,-170.577 3040.75,-177.576"/>
</g>
<!-- Node7 -->
<g id="node13" class="node"><title>Node7</title>
<a xlink:href="eap__tls_8h.html" target="_top" xlink:title="/home/pjm3/freeradius&#45;server/src/modules/rlm_eap/libeap/eap_tls.h">
<polygon fill="none" stroke="black" points="6027,-112.5 6027,-131.5 6335,-131.5 6335,-112.5 6027,-112.5"/>
<text text-anchor="middle" x="6181" y="-119.5" font-family="Helvetica,sans-Serif" font-size="10.00">/home/pjm3/freeradius&#45;server/src/modules/rlm_eap/libeap/eap_tls.h</text>
</a>
</g>
<!-- Node2&#45;&gt;Node7 -->
<g id="edge12" class="edge"><title>Node2&#45;&gt;Node7</title>
<path fill="none" stroke="midnightblue" d="M3325.39,-174.435C3826.71,-165.405 5507.81,-135.126 6026.96,-125.775"/>
<polygon fill="midnightblue" stroke="midnightblue" points="3325.14,-170.939 3315.2,-174.619 3325.26,-177.938 3325.14,-170.939"/>
</g>
<!-- Node18 -->
<g id="node35" class="node"><title>Node18</title>
<a xlink:href="rlm__eap__gtc_8c.html" target="_top" xlink:title="/home/pjm3/freeradius&#45;server/src/modules/rlm_eap/types/rlm_eap_gtc/rlm_eap_gtc.c">
<polygon fill="none" stroke="black" points="1095.5,-112.5 1095.5,-131.5 1480.5,-131.5 1480.5,-112.5 1095.5,-112.5"/>
<text text-anchor="middle" x="1288" y="-119.5" font-family="Helvetica,sans-Serif" font-size="10.00">/home/pjm3/freeradius&#45;server/src/modules/rlm_eap/types/rlm_eap_gtc/rlm_eap_gtc.c</text>
</a>
</g>
<!-- Node2&#45;&gt;Node18 -->
<g id="edge34" class="edge"><title>Node2&#45;&gt;Node18</title>
<path fill="none" stroke="midnightblue" d="M3040.68,-174.013C2750.12,-167.736 2067.76,-152.084 1495,-132 1490.24,-131.833 1485.41,-131.659 1480.54,-131.48"/>
<polygon fill="midnightblue" stroke="midnightblue" points="3040.77,-177.516 3050.85,-174.232 3040.92,-170.517 3040.77,-177.516"/>
</g>
<!-- Node19 -->
<g id="node37" class="node"><title>Node19</title>
<a xlink:href="ike__conf_8h.html" target="_top" xlink:title="/home/pjm3/freeradius&#45;server/src/modules/rlm_eap/types/rlm_eap_ikev2/ike_conf.h">
<polygon fill="none" stroke="black" points="1537,-112.5 1537,-131.5 1915,-131.5 1915,-112.5 1537,-112.5"/>
<text text-anchor="middle" x="1726" y="-119.5" font-family="Helvetica,sans-Serif" font-size="10.00">/home/pjm3/freeradius&#45;server/src/modules/rlm_eap/types/rlm_eap_ikev2/ike_conf.h</text>
</a>
</g>
<!-- Node2&#45;&gt;Node19 -->
<g id="edge36" class="edge"><title>Node2&#45;&gt;Node19</title>
<path fill="none" stroke="midnightblue" d="M3040.77,-171.729C2776.75,-161.944 2210.89,-140.971 1915.03,-130.006"/>
<polygon fill="midnightblue" stroke="midnightblue" points="3040.69,-175.228 3050.81,-172.101 3040.95,-168.233 3040.69,-175.228"/>
</g>
<!-- Node20 -->
<g id="node39" class="node"><title>Node20</title>
<a xlink:href="ike__conf_8c.html" target="_top" xlink:title="/home/pjm3/freeradius&#45;server/src/modules/rlm_eap/types/rlm_eap_ikev2/ike_conf.c">
<polygon fill="none" stroke="black" points="872,-56.5 872,-75.5 1250,-75.5 1250,-56.5 872,-56.5"/>
<text text-anchor="middle" x="1061" y="-63.5" font-family="Helvetica,sans-Serif" font-size="10.00">/home/pjm3/freeradius&#45;server/src/modules/rlm_eap/types/rlm_eap_ikev2/ike_conf.c</text>
</a>
</g>
<!-- Node2&#45;&gt;Node20 -->
<g id="edge42" class="edge"><title>Node2&#45;&gt;Node20</title>
<path fill="none" stroke="midnightblue" d="M3040.76,-176.74C2666.32,-175.545 1672.18,-168.895 1528,-132 1509.13,-127.171 1507.67,-117.557 1489,-112 1435.25,-96.0004 1297.35,-83.2906 1192.49,-75.5145"/>
<polygon fill="midnightblue" stroke="midnightblue" points="3040.83,-180.24 3050.84,-176.771 3040.85,-173.24 3040.83,-180.24"/>
</g>
<!-- Node21 -->
<g id="node41" class="node"><title>Node21</title>
<a xlink:href="rlm__eap__ikev2_8c.html" target="_top" xlink:title="/home/pjm3/freeradius&#45;server/src/modules/rlm_eap/types/rlm_eap_ikev2/rlm_eap_ikev2.c">
<polygon fill="none" stroke="black" points="1268,-56.5 1268,-75.5 1672,-75.5 1672,-56.5 1268,-56.5"/>
<text text-anchor="middle" x="1470" y="-63.5" font-family="Helvetica,sans-Serif" font-size="10.00">/home/pjm3/freeradius&#45;server/src/modules/rlm_eap/types/rlm_eap_ikev2/rlm_eap_ikev2.c</text>
</a>
</g>
<!-- Node2&#45;&gt;Node21 -->
<g id="edge44" class="edge"><title>Node2&#45;&gt;Node21</title>
<path fill="none" stroke="midnightblue" d="M3040.87,-173.354C2839.22,-167.623 2458.58,-154.744 2135,-132 2106.54,-130 1729.03,-92.6801 1555.8,-75.5124"/>
<polygon fill="midnightblue" stroke="midnightblue" points="3040.84,-176.855 3050.93,-173.639 3041.03,-169.858 3040.84,-176.855"/>
</g>
<!-- Node22 -->
<g id="node45" class="node"><title>Node22</title>
<a xlink:href="eap__leap_8c.html" target="_top" xlink:title="/home/pjm3/freeradius&#45;server/src/modules/rlm_eap/types/rlm_eap_leap/eap_leap.c">
<polygon fill="none" stroke="black" points="1690.5,-56.5 1690.5,-75.5 2065.5,-75.5 2065.5,-56.5 1690.5,-56.5"/>
<text text-anchor="middle" x="1878" y="-63.5" font-family="Helvetica,sans-Serif" font-size="10.00">/home/pjm3/freeradius&#45;server/src/modules/rlm_eap/types/rlm_eap_leap/eap_leap.c</text>
</a>
</g>
<!-- Node2&#45;&gt;Node22 -->
<g id="edge46" class="edge"><title>Node2&#45;&gt;Node22</title>
<path fill="none" stroke="midnightblue" d="M3040.7,-174.65C2863.15,-170.621 2550.43,-159.912 2284,-132 2151.06,-118.073 1995.38,-89.7438 1921.35,-75.5325"/>
<polygon fill="midnightblue" stroke="midnightblue" points="3040.81,-178.153 3050.89,-174.877 3040.97,-171.155 3040.81,-178.153"/>
</g>
<!-- Node23 -->
<g id="node47" class="node"><title>Node23</title>
<a xlink:href="eap__leap_8h.html" target="_top" xlink:title="/home/pjm3/freeradius&#45;server/src/modules/rlm_eap/types/rlm_eap_leap/eap_leap.h">
<polygon fill="none" stroke="black" points="2293.5,-112.5 2293.5,-131.5 2668.5,-131.5 2668.5,-112.5 2293.5,-112.5"/>
<text text-anchor="middle" x="2481" y="-119.5" font-family="Helvetica,sans-Serif" font-size="10.00">/home/pjm3/freeradius&#45;server/src/modules/rlm_eap/types/rlm_eap_leap/eap_leap.h</text>
</a>
</g>
<!-- Node2&#45;&gt;Node23 -->
<g id="edge48" class="edge"><title>Node2&#45;&gt;Node23</title>
<path fill="none" stroke="midnightblue" d="M3061.98,-167.69C2929.69,-157.514 2719.55,-141.35 2591.55,-131.504"/>
<polygon fill="midnightblue" stroke="midnightblue" points="3061.91,-171.196 3072.15,-168.473 3062.45,-164.217 3061.91,-171.196"/>
</g>
<!-- Node26 -->
<g id="node54" class="node"><title>Node26</title>
<a xlink:href="eap__md5_8c.html" target="_top" xlink:title="/home/pjm3/freeradius&#45;server/src/modules/rlm_eap/types/rlm_eap_md5/eap_md5.c">
<polygon fill="none" stroke="black" points="2885.5,-56.5 2885.5,-75.5 3262.5,-75.5 3262.5,-56.5 2885.5,-56.5"/>
<text text-anchor="middle" x="3074" y="-63.5" font-family="Helvetica,sans-Serif" font-size="10.00">/home/pjm3/freeradius&#45;server/src/modules/rlm_eap/types/rlm_eap_md5/eap_md5.c</text>
</a>
</g>
<!-- Node2&#45;&gt;Node26 -->
<g id="edge56" class="edge"><title>Node2&#45;&gt;Node26</title>
<path fill="none" stroke="midnightblue" d="M3142.39,-164.915C3124.98,-157.864 3105.75,-147.273 3093,-132 3079.13,-115.395 3075.38,-89.0809 3074.37,-75.5923"/>
<polygon fill="midnightblue" stroke="midnightblue" points="3141.23,-168.219 3151.82,-168.476 3143.7,-161.67 3141.23,-168.219"/>
</g>
<!-- Node27 -->
<g id="node56" class="node"><title>Node27</title>
<a xlink:href="eap__md5_8h.html" target="_top" xlink:title="/home/pjm3/freeradius&#45;server/src/modules/rlm_eap/types/rlm_eap_md5/eap_md5.h">
<polygon fill="none" stroke="black" points="3102.5,-112.5 3102.5,-131.5 3479.5,-131.5 3479.5,-112.5 3102.5,-112.5"/>
<text text-anchor="middle" x="3291" y="-119.5" font-family="Helvetica,sans-Serif" font-size="10.00">/home/pjm3/freeradius&#45;server/src/modules/rlm_eap/types/rlm_eap_md5/eap_md5.h</text>
</a>
</g>
<!-- Node2&#45;&gt;Node27 -->
<g id="edge58" class="edge"><title>Node2&#45;&gt;Node27</title>
<path fill="none" stroke="midnightblue" d="M3209.55,-163.726C3229.55,-153.727 3256.39,-140.307 3273.69,-131.655"/>
<polygon fill="midnightblue" stroke="midnightblue" points="3207.73,-160.721 3200.35,-168.324 3210.86,-166.982 3207.73,-160.721"/>
</g>
<!-- Node29 -->
<g id="node61" class="node"><title>Node29</title>
<a xlink:href="eap__mschapv2_8h.html" target="_top" xlink:title="/home/pjm3/freeradius&#45;server/src/modules/rlm_eap/types/rlm_eap_mschapv2/eap_mschapv2.h">
<polygon fill="none" stroke="black" points="3590.5,-112.5 3590.5,-131.5 4019.5,-131.5 4019.5,-112.5 3590.5,-112.5"/>
<text text-anchor="middle" x="3805" y="-119.5" font-family="Helvetica,sans-Serif" font-size="10.00">/home/pjm3/freeradius&#45;server/src/modules/rlm_eap/types/rlm_eap_mschapv2/eap_mschapv2.h</text>
</a>
</g>
<!-- Node2&#45;&gt;Node29 -->
<g id="edge64" class="edge"><title>Node2&#45;&gt;Node29</title>
<path fill="none" stroke="midnightblue" d="M3291.29,-167.599C3408.56,-157.417 3593.97,-141.321 3707.04,-131.504"/>
<polygon fill="midnightblue" stroke="midnightblue" points="3290.87,-164.121 3281.21,-168.473 3291.48,-171.095 3290.87,-164.121"/>
</g>
<!-- Node31 -->
<g id="node65" class="node"><title>Node31</title>
<a xlink:href="eap__pwd_8h.html" target="_top" xlink:title="/home/pjm3/freeradius&#45;server/src/modules/rlm_eap/types/rlm_eap_pwd/eap_pwd.h">
<polygon fill="none" stroke="black" points="4056.5,-112.5 4056.5,-131.5 4431.5,-131.5 4431.5,-112.5 4056.5,-112.5"/>
<text text-anchor="middle" x="4244" y="-119.5" font-family="Helvetica,sans-Serif" font-size="10.00">/home/pjm3/freeradius&#45;server/src/modules/rlm_eap/types/rlm_eap_pwd/eap_pwd.h</text>
</a>
</g>
<!-- Node2&#45;&gt;Node31 -->
<g id="edge68" class="edge"><title>Node2&#45;&gt;Node31</title>
<path fill="none" stroke="midnightblue" d="M3325.26,-169.76C3520.19,-159.839 3869.68,-142.051 4076.86,-131.507"/>
<polygon fill="midnightblue" stroke="midnightblue" points="3325.04,-166.266 3315.23,-170.27 3325.4,-173.257 3325.04,-166.266"/>
</g>
<!-- Node35 -->
<g id="node74" class="node"><title>Node35</title>
<a xlink:href="eap__tnc_8c.html" target="_top" xlink:title="/home/pjm3/freeradius&#45;server/src/modules/rlm_eap/types/rlm_eap_tnc/eap_tnc.c">
<polygon fill="none" stroke="black" points="5004,-56.5 5004,-75.5 5370,-75.5 5370,-56.5 5004,-56.5"/>
<text text-anchor="middle" x="5187" y="-63.5" font-family="Helvetica,sans-Serif" font-size="10.00">/home/pjm3/freeradius&#45;server/src/modules/rlm_eap/types/rlm_eap_tnc/eap_tnc.c</text>
</a>
</g>
<!-- Node2&#45;&gt;Node35 -->
<g id="edge78" class="edge"><title>Node2&#45;&gt;Node35</title>
<path fill="none" stroke="midnightblue" d="M3325.45,-174.266C3558.62,-169.259 4036.24,-156.778 4440,-132 4565.3,-124.31 4925.82,-91.3113 5096,-75.5048"/>
<polygon fill="midnightblue" stroke="midnightblue" points="3325.14,-170.772 3315.22,-174.484 3325.29,-177.77 3325.14,-170.772"/>
</g>
<!-- Node36 -->
<g id="node76" class="node"><title>Node36</title>
<a xlink:href="eap__tnc_8h.html" target="_top" xlink:title="/home/pjm3/freeradius&#45;server/src/modules/rlm_eap/types/rlm_eap_tnc/eap_tnc.h">
<polygon fill="none" stroke="black" points="4709,-112.5 4709,-131.5 5075,-131.5 5075,-112.5 4709,-112.5"/>
<text text-anchor="middle" x="4892" y="-119.5" font-family="Helvetica,sans-Serif" font-size="10.00">/home/pjm3/freeradius&#45;server/src/modules/rlm_eap/types/rlm_eap_tnc/eap_tnc.h</text>
</a>
</g>
<!-- Node2&#45;&gt;Node36 -->
<g id="edge80" class="edge"><title>Node2&#45;&gt;Node36</title>
<path fill="none" stroke="midnightblue" d="M3325.7,-172.491C3634.85,-162.723 4366.15,-139.615 4708.84,-128.787"/>
<polygon fill="midnightblue" stroke="midnightblue" points="3325.21,-169.005 3315.33,-172.819 3325.43,-176.001 3325.21,-169.005"/>
</g>
<!-- Node38 -->
<g id="node81" class="node"><title>Node38</title>
<a xlink:href="tncs__connect_8c.html" target="_top" xlink:title="/home/pjm3/freeradius&#45;server/src/modules/rlm_eap/types/rlm_eap_tnc/tncs_connect.c">
<polygon fill="none" stroke="black" points="5093,-112.5 5093,-131.5 5483,-131.5 5483,-112.5 5093,-112.5"/>
<text text-anchor="middle" x="5288" y="-119.5" font-family="Helvetica,sans-Serif" font-size="10.00">/home/pjm3/freeradius&#45;server/src/modules/rlm_eap/types/rlm_eap_tnc/tncs_connect.c</text>
</a>
</g>
<!-- Node2&#45;&gt;Node38 -->
<g id="edge86" class="edge"><title>Node2&#45;&gt;Node38</title>
<path fill="none" stroke="midnightblue" d="M3325.4,-174.623C3641.73,-169.123 4426.93,-154.269 5084,-132 5088.69,-131.841 5093.45,-131.674 5098.25,-131.501"/>
<polygon fill="midnightblue" stroke="midnightblue" points="3325.2,-171.126 3315.26,-174.798 3325.32,-178.124 3325.2,-171.126"/>
</g>
<!-- Node4 -->
<g id="node7" class="node"><title>Node4</title>
<a xlink:href="eap_8c.html" target="_top" xlink:title="/home/pjm3/freeradius&#45;server/src/modules/rlm_eap/eap.c">
<polygon fill="none" stroke="black" points="0,-56.5 0,-75.5 264,-75.5 264,-56.5 0,-56.5"/>
<text text-anchor="middle" x="132" y="-63.5" font-family="Helvetica,sans-Serif" font-size="10.00">/home/pjm3/freeradius&#45;server/src/modules/rlm_eap/eap.c</text>
</a>
</g>
<!-- Node3&#45;&gt;Node4 -->
<g id="edge6" class="edge"><title>Node3&#45;&gt;Node4</title>
<path fill="none" stroke="midnightblue" d="M610.368,-111.538C501.063,-101.361 328.828,-85.3254 223.58,-75.5264"/>
<polygon fill="midnightblue" stroke="midnightblue" points="610.136,-115.031 620.417,-112.473 610.785,-108.061 610.136,-115.031"/>
</g>
<!-- Node5 -->
<g id="node9" class="node"><title>Node5</title>
<a xlink:href="rlm__eap_2mem_8c.html" target="_top" xlink:title="/home/pjm3/freeradius&#45;server/src/modules/rlm_eap/mem.c">
<polygon fill="none" stroke="black" points="282,-56.5 282,-75.5 552,-75.5 552,-56.5 282,-56.5"/>
<text text-anchor="middle" x="417" y="-63.5" font-family="Helvetica,sans-Serif" font-size="10.00">/home/pjm3/freeradius&#45;server/src/modules/rlm_eap/mem.c</text>
</a>
</g>
<!-- Node3&#45;&gt;Node5 -->
<g id="edge8" class="edge"><title>Node3&#45;&gt;Node5</title>
<path fill="none" stroke="midnightblue" d="M655.189,-110.601C599.437,-100.395 515.436,-85.0189 463.525,-75.5164"/>
<polygon fill="midnightblue" stroke="midnightblue" points="654.79,-114.086 665.256,-112.444 656.05,-107.2 654.79,-114.086"/>
</g>
<!-- Node6 -->
<g id="node11" class="node"><title>Node6</title>
<a xlink:href="rlm__eap_8c.html" target="_top" xlink:title="/home/pjm3/freeradius&#45;server/src/modules/rlm_eap/rlm_eap.c">
<polygon fill="none" stroke="black" points="570.5,-56.5 570.5,-75.5 853.5,-75.5 853.5,-56.5 570.5,-56.5"/>
<text text-anchor="middle" x="712" y="-63.5" font-family="Helvetica,sans-Serif" font-size="10.00">/home/pjm3/freeradius&#45;server/src/modules/rlm_eap/rlm_eap.c</text>
</a>
</g>
<!-- Node3&#45;&gt;Node6 -->
<g id="edge10" class="edge"><title>Node3&#45;&gt;Node6</title>
<path fill="none" stroke="midnightblue" d="M712,-101.805C712,-92.9102 712,-82.7798 712,-75.7511"/>
<polygon fill="midnightblue" stroke="midnightblue" points="708.5,-102.083 712,-112.083 715.5,-102.083 708.5,-102.083"/>
</g>
<!-- Node8 -->
<g id="node15" class="node"><title>Node8</title>
<a xlink:href="eap__tls_8c.html" target="_top" xlink:title="/home/pjm3/freeradius&#45;server/src/modules/rlm_eap/libeap/eap_tls.c">
<polygon fill="none" stroke="black" points="6972,-56.5 6972,-75.5 7280,-75.5 7280,-56.5 6972,-56.5"/>
<text text-anchor="middle" x="7126" y="-63.5" font-family="Helvetica,sans-Serif" font-size="10.00">/home/pjm3/freeradius&#45;server/src/modules/rlm_eap/libeap/eap_tls.c</text>
</a>
</g>
<!-- Node7&#45;&gt;Node8 -->
<g id="edge14" class="edge"><title>Node7&#45;&gt;Node8</title>
<path fill="none" stroke="midnightblue" d="M6340.19,-111.904C6518,-101.743 6803.57,-85.4247 6977.09,-75.5091"/>
<polygon fill="midnightblue" stroke="midnightblue" points="6339.74,-108.423 6329.96,-112.488 6340.14,-115.412 6339.74,-108.423"/>
</g>
<!-- Node9 -->
<g id="node17" class="node"><title>Node9</title>
<a xlink:href="mppe__keys_8c.html" target="_top" xlink:title="/home/pjm3/freeradius&#45;server/src/modules/rlm_eap/libeap/mppe_keys.c">
<polygon fill="none" stroke="black" points="7298.5,-56.5 7298.5,-75.5 7625.5,-75.5 7625.5,-56.5 7298.5,-56.5"/>
<text text-anchor="middle" x="7462" y="-63.5" font-family="Helvetica,sans-Serif" font-size="10.00">/home/pjm3/freeradius&#45;server/src/modules/rlm_eap/libeap/mppe_keys.c</text>
</a>
</g>
<!-- Node7&#45;&gt;Node9 -->
<g id="edge16" class="edge"><title>Node7&#45;&gt;Node9</title>
<path fill="none" stroke="midnightblue" d="M6343.68,-112.015C6343.79,-112.01 6343.89,-112.005 6344,-112 6763.85,-92.4134 6869.12,-94.9185 7289,-76 7292.46,-75.8443 7295.95,-75.6845 7299.47,-75.5211"/>
<polygon fill="midnightblue" stroke="midnightblue" points="6343.52,-108.518 6333.7,-112.489 6343.86,-115.51 6343.52,-108.518"/>
</g>
<!-- Node10 -->
<g id="node19" class="node"><title>Node10</title>
<a xlink:href="eap__peap_8h.html" target="_top" xlink:title="/home/pjm3/freeradius&#45;server/src/modules/rlm_eap/types/rlm_eap_peap/eap_peap.h">
<polygon fill="none" stroke="black" points="5791.5,-56.5 5791.5,-75.5 6172.5,-75.5 6172.5,-56.5 5791.5,-56.5"/>
<text text-anchor="middle" x="5982" y="-63.5" font-family="Helvetica,sans-Serif" font-size="10.00">/home/pjm3/freeradius&#45;server/src/modules/rlm_eap/types/rlm_eap_peap/eap_peap.h</text>
</a>
</g>
<!-- Node7&#45;&gt;Node10 -->
<g id="edge18" class="edge"><title>Node7&#45;&gt;Node10</title>
<path fill="none" stroke="midnightblue" d="M6139.35,-109.699C6101.79,-99.507 6047.39,-84.7429 6013.38,-75.5164"/>
<polygon fill="midnightblue" stroke="midnightblue" points="6138.9,-113.202 6149.47,-112.444 6140.73,-106.447 6138.9,-113.202"/>
</g>
<!-- Node13 -->
<g id="node25" class="node"><title>Node13</title>
<a xlink:href="rlm__eap__tls_8h.html" target="_top" xlink:title="/home/pjm3/freeradius&#45;server/src/modules/rlm_eap/types/rlm_eap_tls/rlm_eap_tls.h">
<polygon fill="none" stroke="black" points="6190.5,-56.5 6190.5,-75.5 6569.5,-75.5 6569.5,-56.5 6190.5,-56.5"/>
<text text-anchor="middle" x="6380" y="-63.5" font-family="Helvetica,sans-Serif" font-size="10.00">/home/pjm3/freeradius&#45;server/src/modules/rlm_eap/types/rlm_eap_tls/rlm_eap_tls.h</text>
</a>
</g>
<!-- Node7&#45;&gt;Node13 -->
<g id="edge24" class="edge"><title>Node7&#45;&gt;Node13</title>
<path fill="none" stroke="midnightblue" d="M6222.65,-109.699C6260.21,-99.507 6314.61,-84.7429 6348.62,-75.5164"/>
<polygon fill="midnightblue" stroke="midnightblue" points="6221.27,-106.447 6212.53,-112.444 6223.1,-113.202 6221.27,-106.447"/>
</g>
<!-- Node15 -->
<g id="node29" class="node"><title>Node15</title>
<a xlink:href="eap__ttls_8h.html" target="_top" xlink:title="/home/pjm3/freeradius&#45;server/src/modules/rlm_eap/types/rlm_eap_ttls/eap_ttls.h">
<polygon fill="none" stroke="black" points="6588,-56.5 6588,-75.5 6954,-75.5 6954,-56.5 6588,-56.5"/>
<text text-anchor="middle" x="6771" y="-63.5" font-family="Helvetica,sans-Serif" font-size="10.00">/home/pjm3/freeradius&#45;server/src/modules/rlm_eap/types/rlm_eap_ttls/eap_ttls.h</text>
</a>
</g>
<!-- Node7&#45;&gt;Node15 -->
<g id="edge28" class="edge"><title>Node7&#45;&gt;Node15</title>
<path fill="none" stroke="midnightblue" d="M6284.38,-111.538C6395.57,-101.361 6570.78,-85.3254 6677.84,-75.5264"/>
<polygon fill="midnightblue" stroke="midnightblue" points="6283.8,-108.076 6274.16,-112.473 6284.44,-115.047 6283.8,-108.076"/>
</g>
<!-- Node11 -->
<g id="node21" class="node"><title>Node11</title>
<a xlink:href="peap_8c.html" target="_top" xlink:title="/home/pjm3/freeradius&#45;server/src/modules/rlm_eap/types/rlm_eap_peap/peap.c">
<polygon fill="none" stroke="black" points="5394,-0.5 5394,-19.5 5754,-19.5 5754,-0.5 5394,-0.5"/>
<text text-anchor="middle" x="5574" y="-7.5" font-family="Helvetica,sans-Serif" font-size="10.00">/home/pjm3/freeradius&#45;server/src/modules/rlm_eap/types/rlm_eap_peap/peap.c</text>
</a>
</g>
<!-- Node10&#45;&gt;Node11 -->
<g id="edge20" class="edge"><title>Node10&#45;&gt;Node11</title>
<path fill="none" stroke="midnightblue" d="M5907.23,-55.1046C5830.19,-44.9074 5711.33,-29.1766 5638.35,-19.5164"/>
<polygon fill="midnightblue" stroke="midnightblue" points="5906.98,-58.6011 5917.35,-56.4435 5907.9,-51.6616 5906.98,-58.6011"/>
</g>
<!-- Node12 -->
<g id="node23" class="node"><title>Node12</title>
<a xlink:href="rlm__eap__peap_8c.html" target="_top" xlink:title="/home/pjm3/freeradius&#45;server/src/modules/rlm_eap/types/rlm_eap_peap/rlm_eap_peap.c">
<polygon fill="none" stroke="black" points="5772,-0.5 5772,-19.5 6172,-19.5 6172,-0.5 5772,-0.5"/>
<text text-anchor="middle" x="5972" y="-7.5" font-family="Helvetica,sans-Serif" font-size="10.00">/home/pjm3/freeradius&#45;server/src/modules/rlm_eap/types/rlm_eap_peap/rlm_eap_peap.c</text>
</a>
</g>
<!-- Node10&#45;&gt;Node12 -->
<g id="edge22" class="edge"><title>Node10&#45;&gt;Node12</title>
<path fill="none" stroke="midnightblue" d="M5978.5,-46.1005C5976.84,-37.1357 5974.94,-26.8579 5973.62,-19.7511"/>
<polygon fill="midnightblue" stroke="midnightblue" points="5975.09,-46.8875 5980.35,-56.083 5981.97,-45.6128 5975.09,-46.8875"/>
</g>
<!-- Node14 -->
<g id="node27" class="node"><title>Node14</title>
<a xlink:href="rlm__eap__tls_8c.html" target="_top" xlink:title="/home/pjm3/freeradius&#45;server/src/modules/rlm_eap/types/rlm_eap_tls/rlm_eap_tls.c">
<polygon fill="none" stroke="black" points="6190.5,-0.5 6190.5,-19.5 6569.5,-19.5 6569.5,-0.5 6190.5,-0.5"/>
<text text-anchor="middle" x="6380" y="-7.5" font-family="Helvetica,sans-Serif" font-size="10.00">/home/pjm3/freeradius&#45;server/src/modules/rlm_eap/types/rlm_eap_tls/rlm_eap_tls.c</text>
</a>
</g>
<!-- Node13&#45;&gt;Node14 -->
<g id="edge26" class="edge"><title>Node13&#45;&gt;Node14</title>
<path fill="none" stroke="midnightblue" d="M6380,-45.8045C6380,-36.9102 6380,-26.7798 6380,-19.7511"/>
<polygon fill="midnightblue" stroke="midnightblue" points="6376.5,-46.083 6380,-56.083 6383.5,-46.083 6376.5,-46.083"/>
</g>
<!-- Node16 -->
<g id="node31" class="node"><title>Node16</title>
<a xlink:href="rlm__eap__ttls_8c.html" target="_top" xlink:title="/home/pjm3/freeradius&#45;server/src/modules/rlm_eap/types/rlm_eap_ttls/rlm_eap_ttls.c">
<polygon fill="none" stroke="black" points="6587.5,-0.5 6587.5,-19.5 6972.5,-19.5 6972.5,-0.5 6587.5,-0.5"/>
<text text-anchor="middle" x="6780" y="-7.5" font-family="Helvetica,sans-Serif" font-size="10.00">/home/pjm3/freeradius&#45;server/src/modules/rlm_eap/types/rlm_eap_ttls/rlm_eap_ttls.c</text>
</a>
</g>
<!-- Node15&#45;&gt;Node16 -->
<g id="edge30" class="edge"><title>Node15&#45;&gt;Node16</title>
<path fill="none" stroke="midnightblue" d="M6774.15,-46.1005C6775.64,-37.1357 6777.36,-26.8579 6778.54,-19.7511"/>
<polygon fill="midnightblue" stroke="midnightblue" points="6770.68,-45.6436 6772.49,-56.083 6777.58,-46.7945 6770.68,-45.6436"/>
</g>
<!-- Node17 -->
<g id="node33" class="node"><title>Node17</title>
<a xlink:href="ttls_8c.html" target="_top" xlink:title="/home/pjm3/freeradius&#45;server/src/modules/rlm_eap/types/rlm_eap_ttls/ttls.c">
<polygon fill="none" stroke="black" points="6990.5,-0.5 6990.5,-19.5 7335.5,-19.5 7335.5,-0.5 6990.5,-0.5"/>
<text text-anchor="middle" x="7163" y="-7.5" font-family="Helvetica,sans-Serif" font-size="10.00">/home/pjm3/freeradius&#45;server/src/modules/rlm_eap/types/rlm_eap_ttls/ttls.c</text>
</a>
</g>
<!-- Node15&#45;&gt;Node17 -->
<g id="edge32" class="edge"><title>Node15&#45;&gt;Node17</title>
<path fill="none" stroke="midnightblue" d="M6843.29,-55.0421C6917.32,-44.8432 7031.19,-29.1569 7101.18,-19.5164"/>
<polygon fill="midnightblue" stroke="midnightblue" points="6842.54,-51.6115 6833.11,-56.4435 6843.5,-58.546 6842.54,-51.6115"/>
</g>
<!-- Node19&#45;&gt;Node20 -->
<g id="edge38" class="edge"><title>Node19&#45;&gt;Node20</title>
<path fill="none" stroke="midnightblue" d="M1610.98,-111.66C1485.64,-101.482 1286.86,-85.3403 1165.73,-75.5042"/>
<polygon fill="midnightblue" stroke="midnightblue" points="1610.75,-115.152 1621,-112.473 1611.31,-108.175 1610.75,-115.152"/>
</g>
<!-- Node19&#45;&gt;Node21 -->
<g id="edge40" class="edge"><title>Node19&#45;&gt;Node21</title>
<path fill="none" stroke="midnightblue" d="M1675.49,-110.346C1627.11,-100.141 1555.05,-84.94 1510.37,-75.5164"/>
<polygon fill="midnightblue" stroke="midnightblue" points="1674.93,-113.804 1685.44,-112.444 1676.37,-106.955 1674.93,-113.804"/>
</g>
<!-- Node23&#45;&gt;Node22 -->
<g id="edge50" class="edge"><title>Node23&#45;&gt;Node22</title>
<path fill="none" stroke="midnightblue" d="M2375.68,-111.568C2262.06,-101.393 2082.74,-85.3352 1973.21,-75.5264"/>
<polygon fill="midnightblue" stroke="midnightblue" points="2375.51,-115.067 2385.79,-112.473 2376.14,-108.095 2375.51,-115.067"/>
</g>
<!-- Node24 -->
<g id="node50" class="node"><title>Node24</title>
<a xlink:href="rlm__eap__leap_8c.html" target="_top" xlink:title="/home/pjm3/freeradius&#45;server/src/modules/rlm_eap/types/rlm_eap_leap/rlm_eap_leap.c">
<polygon fill="none" stroke="black" points="2084,-56.5 2084,-75.5 2478,-75.5 2478,-56.5 2084,-56.5"/>
<text text-anchor="middle" x="2281" y="-63.5" font-family="Helvetica,sans-Serif" font-size="10.00">/home/pjm3/freeradius&#45;server/src/modules/rlm_eap/types/rlm_eap_leap/rlm_eap_leap.c</text>
</a>
</g>
<!-- Node23&#45;&gt;Node24 -->
<g id="edge52" class="edge"><title>Node23&#45;&gt;Node24</title>
<path fill="none" stroke="midnightblue" d="M2439.63,-109.829C2401.86,-99.6333 2346.86,-84.7823 2312.54,-75.5164"/>
<polygon fill="midnightblue" stroke="midnightblue" points="2438.74,-113.216 2449.31,-112.444 2440.57,-106.458 2438.74,-113.216"/>
</g>
<!-- Node25 -->
<g id="node52" class="node"><title>Node25</title>
<a xlink:href="rlm__eap_2types_2rlm__eap__leap_2smbdes_8c.html" target="_top" xlink:title="/home/pjm3/freeradius&#45;server/src/modules/rlm_eap/types/rlm_eap_leap/smbdes.c">
<polygon fill="none" stroke="black" points="2496.5,-56.5 2496.5,-75.5 2867.5,-75.5 2867.5,-56.5 2496.5,-56.5"/>
<text text-anchor="middle" x="2682" y="-63.5" font-family="Helvetica,sans-Serif" font-size="10.00">/home/pjm3/freeradius&#45;server/src/modules/rlm_eap/types/rlm_eap_leap/smbdes.c</text>
</a>
</g>
<!-- Node23&#45;&gt;Node25 -->
<g id="edge54" class="edge"><title>Node23&#45;&gt;Node25</title>
<path fill="none" stroke="midnightblue" d="M2522.58,-109.829C2560.53,-99.6333 2615.81,-84.7823 2650.3,-75.5164"/>
<polygon fill="midnightblue" stroke="midnightblue" points="2521.6,-106.469 2512.85,-112.444 2523.41,-113.229 2521.6,-106.469"/>
</g>
<!-- Node27&#45;&gt;Node26 -->
<g id="edge60" class="edge"><title>Node27&#45;&gt;Node26</title>
<path fill="none" stroke="midnightblue" d="M3246.89,-110.024C3205.9,-99.8232 3145.7,-84.8414 3108.22,-75.5164"/>
<polygon fill="midnightblue" stroke="midnightblue" points="3246.07,-113.425 3256.62,-112.444 3247.76,-106.632 3246.07,-113.425"/>
</g>
<!-- Node28 -->
<g id="node59" class="node"><title>Node28</title>
<a xlink:href="rlm__eap__md5_8c.html" target="_top" xlink:title="/home/pjm3/freeradius&#45;server/src/modules/rlm_eap/types/rlm_eap_md5/rlm_eap_md5.c">
<polygon fill="none" stroke="black" points="3280.5,-56.5 3280.5,-75.5 3675.5,-75.5 3675.5,-56.5 3280.5,-56.5"/>
<text text-anchor="middle" x="3478" y="-63.5" font-family="Helvetica,sans-Serif" font-size="10.00">/home/pjm3/freeradius&#45;server/src/modules/rlm_eap/types/rlm_eap_md5/rlm_eap_md5.c</text>
</a>
</g>
<!-- Node27&#45;&gt;Node28 -->
<g id="edge62" class="edge"><title>Node27&#45;&gt;Node28</title>
<path fill="none" stroke="midnightblue" d="M3330.59,-109.568C3365.87,-99.381 3416.69,-84.7034 3448.51,-75.5164"/>
<polygon fill="midnightblue" stroke="midnightblue" points="3329.27,-106.307 3320.63,-112.444 3331.21,-113.032 3329.27,-106.307"/>
</g>
<!-- Node30 -->
<g id="node63" class="node"><title>Node30</title>
<a xlink:href="rlm__eap__mschapv2_8c.html" target="_top" xlink:title="/home/pjm3/freeradius&#45;server/src/modules/rlm_eap/types/rlm_eap_mschapv2/rlm_eap_mschapv2.c">
<polygon fill="none" stroke="black" points="3694,-56.5 3694,-75.5 4142,-75.5 4142,-56.5 3694,-56.5"/>
<text text-anchor="middle" x="3918" y="-63.5" font-family="Helvetica,sans-Serif" font-size="10.00">/home/pjm3/freeradius&#45;server/src/modules/rlm_eap/types/rlm_eap_mschapv2/rlm_eap_mschapv2.c</text>
</a>
</g>
<!-- Node29&#45;&gt;Node30 -->
<g id="edge66" class="edge"><title>Node29&#45;&gt;Node30</title>
<path fill="none" stroke="midnightblue" d="M3832,-108.096C3853.11,-98.0073 3881.86,-84.2697 3900.18,-75.5164"/>
<polygon fill="midnightblue" stroke="midnightblue" points="3830.42,-104.974 3822.91,-112.444 3833.44,-111.29 3830.42,-104.974"/>
</g>
<!-- Node32 -->
<g id="node67" class="node"><title>Node32</title>
<a xlink:href="eap__pwd_8c.html" target="_top" xlink:title="/home/pjm3/freeradius&#45;server/src/modules/rlm_eap/types/rlm_eap_pwd/eap_pwd.c">
<polygon fill="none" stroke="black" points="4198.5,-56.5 4198.5,-75.5 4573.5,-75.5 4573.5,-56.5 4198.5,-56.5"/>
<text text-anchor="middle" x="4386" y="-63.5" font-family="Helvetica,sans-Serif" font-size="10.00">/home/pjm3/freeradius&#45;server/src/modules/rlm_eap/types/rlm_eap_pwd/eap_pwd.c</text>
</a>
</g>
<!-- Node31&#45;&gt;Node32 -->
<g id="edge70" class="edge"><title>Node31&#45;&gt;Node32</title>
<path fill="none" stroke="midnightblue" d="M4276.16,-108.772C4302.83,-98.6287 4340.07,-84.4669 4363.6,-75.5164"/>
<polygon fill="midnightblue" stroke="midnightblue" points="4274.6,-105.618 4266.5,-112.444 4277.09,-112.16 4274.6,-105.618"/>
</g>
<!-- Node33 -->
<g id="node69" class="node"><title>Node33</title>
<a xlink:href="rlm__eap__pwd_8h.html" target="_top" xlink:title="/home/pjm3/freeradius&#45;server/src/modules/rlm_eap/types/rlm_eap_pwd/rlm_eap_pwd.h">
<polygon fill="none" stroke="black" points="4592,-56.5 4592,-75.5 4986,-75.5 4986,-56.5 4592,-56.5"/>
<text text-anchor="middle" x="4789" y="-63.5" font-family="Helvetica,sans-Serif" font-size="10.00">/home/pjm3/freeradius&#45;server/src/modules/rlm_eap/types/rlm_eap_pwd/rlm_eap_pwd.h</text>
</a>
</g>
<!-- Node31&#45;&gt;Node33 -->
<g id="edge72" class="edge"><title>Node31&#45;&gt;Node33</title>
<path fill="none" stroke="midnightblue" d="M4340.12,-111.476C4442.86,-101.297 4604.25,-85.3056 4702.95,-75.5264"/>
<polygon fill="midnightblue" stroke="midnightblue" points="4339.66,-108.004 4330.06,-112.473 4340.35,-114.97 4339.66,-108.004"/>
</g>
<!-- Node34 -->
<g id="node71" class="node"><title>Node34</title>
<a xlink:href="rlm__eap__pwd_8c.html" target="_top" xlink:title="/home/pjm3/freeradius&#45;server/src/modules/rlm_eap/types/rlm_eap_pwd/rlm_eap_pwd.c">
<polygon fill="none" stroke="black" points="4283,-0.5 4283,-19.5 4677,-19.5 4677,-0.5 4283,-0.5"/>
<text text-anchor="middle" x="4480" y="-7.5" font-family="Helvetica,sans-Serif" font-size="10.00">/home/pjm3/freeradius&#45;server/src/modules/rlm_eap/types/rlm_eap_pwd/rlm_eap_pwd.c</text>
</a>
</g>
<!-- Node31&#45;&gt;Node34 -->
<g id="edge76" class="edge"><title>Node31&#45;&gt;Node34</title>
<path fill="none" stroke="midnightblue" d="M4218.76,-107.167C4197.89,-93.9779 4173.93,-73.5782 4189,-56 4205.3,-36.982 4251.77,-25.9301 4302.91,-19.5323"/>
<polygon fill="midnightblue" stroke="midnightblue" points="4217.02,-110.203 4227.39,-112.348 4220.62,-104.201 4217.02,-110.203"/>
</g>
<!-- Node33&#45;&gt;Node34 -->
<g id="edge74" class="edge"><title>Node33&#45;&gt;Node34</title>
<path fill="none" stroke="midnightblue" d="M4729.86,-54.6642C4671.46,-44.4592 4583.22,-29.0386 4528.73,-19.5164"/>
<polygon fill="midnightblue" stroke="midnightblue" points="4729.58,-58.1697 4740.04,-56.4435 4730.79,-51.2742 4729.58,-58.1697"/>
</g>
<!-- Node36&#45;&gt;Node35 -->
<g id="edge82" class="edge"><title>Node36&#45;&gt;Node35</title>
<path fill="none" stroke="midnightblue" d="M4948.81,-110.601C5004.56,-100.395 5088.56,-85.0189 5140.48,-75.5164"/>
<polygon fill="midnightblue" stroke="midnightblue" points="4947.95,-107.2 4938.74,-112.444 4949.21,-114.086 4947.95,-107.2"/>
</g>
<!-- Node37 -->
<g id="node79" class="node"><title>Node37</title>
<a xlink:href="rlm__eap__tnc_8c.html" target="_top" xlink:title="/home/pjm3/freeradius&#45;server/src/modules/rlm_eap/types/rlm_eap_tnc/rlm_eap_tnc.c">
<polygon fill="none" stroke="black" points="5388.5,-56.5 5388.5,-75.5 5773.5,-75.5 5773.5,-56.5 5388.5,-56.5"/>
<text text-anchor="middle" x="5581" y="-63.5" font-family="Helvetica,sans-Serif" font-size="10.00">/home/pjm3/freeradius&#45;server/src/modules/rlm_eap/types/rlm_eap_tnc/rlm_eap_tnc.c</text>
</a>
</g>
<!-- Node36&#45;&gt;Node37 -->
<g id="edge84" class="edge"><title>Node36&#45;&gt;Node37</title>
<path fill="none" stroke="midnightblue" d="M5010.78,-111.69C5140.62,-101.514 5346.87,-85.3502 5472.49,-75.5042"/>
<polygon fill="midnightblue" stroke="midnightblue" points="5010.49,-108.203 5000.79,-112.473 5011.04,-115.181 5010.49,-108.203"/>
</g>
<!-- Node39&#45;&gt;Node40 -->
<g id="edge92" class="edge"><title>Node39&#45;&gt;Node40</title>
<path fill="none" stroke="midnightblue" d="M6846.23,-167.105C6769.19,-156.907 6650.33,-141.177 6577.35,-131.516"/>
<polygon fill="midnightblue" stroke="midnightblue" points="6845.98,-170.601 6856.35,-168.444 6846.9,-163.662 6845.98,-170.601"/>
</g>
<!-- Node39&#45;&gt;Node41 -->
<g id="edge94" class="edge"><title>Node39&#45;&gt;Node41</title>
<path fill="none" stroke="midnightblue" d="M6901.41,-162.101C6888.63,-152.382 6872.39,-140.027 6861.61,-131.834"/>
<polygon fill="midnightblue" stroke="midnightblue" points="6899.51,-165.056 6909.59,-168.324 6903.75,-159.484 6899.51,-165.056"/>
</g>
<!-- Node39&#45;&gt;Node42 -->
<g id="edge96" class="edge"><title>Node39&#45;&gt;Node42</title>
<path fill="none" stroke="midnightblue" d="M6971.71,-166.346C7020.28,-156.141 7092.62,-140.94 7137.47,-131.516"/>
<polygon fill="midnightblue" stroke="midnightblue" points="6970.79,-162.962 6961.72,-168.444 6972.23,-169.812 6970.79,-162.962"/>
</g>
<!-- Node39&#45;&gt;Node43 -->
<g id="edge98" class="edge"><title>Node39&#45;&gt;Node43</title>
<path fill="none" stroke="midnightblue" d="M7028.94,-167.599C7145.84,-157.417 7330.65,-141.321 7443.36,-131.504"/>
<polygon fill="midnightblue" stroke="midnightblue" points="7028.56,-164.119 7018.9,-168.473 7029.16,-171.092 7028.56,-164.119"/>
</g>
</g>
</svg>
        <g id="navigator" transform="translate(0 0)" fill="#404254">
                <rect fill="#f2f5e9" fill-opacity="0.5" stroke="#606060" stroke-width=".5" x="0" y="0" width="60" height="60"/>
                <use id="zoomplus" xlink:href="#zoomPlus" x="17" y="9" onmousedown="handleZoom(evt,'in')"/>
                <use id="zoomminus" xlink:href="#zoomMin" x="42" y="9" onmousedown="handleZoom(evt,'out')"/>
                <use id="reset" xlink:href="#resetDef" x="30" y="36" onmousedown="handleReset()"/>
                <g id="arrowUp" xlink:href="#dirArrow" transform="translate(30 24)" onmousedown="handlePan(0,-1)">
                  <use xlink:href="#rim" fill="#404040">
                        <set attributeName="fill" to="#808080" begin="arrowUp.mouseover" end="arrowUp.mouseout"/>
                  </use>
                  <path fill="none" stroke="white" stroke-width="1.5" d="M0,-3.0v7 M-2.5,-0.5L0,-3.0L2.5,-0.5"/>
                </g>
                <g id="arrowRight" xlink:href="#dirArrow" transform="rotate(90) translate(36 -43)" onmousedown="handlePan(1,0)">
                  <use xlink:href="#rim" fill="#404040">
                        <set attributeName="fill" to="#808080" begin="arrowRight.mouseover" end="arrowRight.mouseout"/>
                  </use>
                  <path fill="none" stroke="white" stroke-width="1.5" d="M0,-3.0v7 M-2.5,-0.5L0,-3.0L2.5,-0.5"/>
                </g>
                <g id="arrowDown" xlink:href="#dirArrow" transform="rotate(180) translate(-30 -48)" onmousedown="handlePan(0,1)">
                  <use xlink:href="#rim" fill="#404040">
                        <set attributeName="fill" to="#808080" begin="arrowDown.mouseover" end="arrowDown.mouseout"/>
                  </use>
                  <path fill="none" stroke="white" stroke-width="1.5" d="M0,-3.0v7 M-2.5,-0.5L0,-3.0L2.5,-0.5"/>
                </g>
                <g id="arrowLeft" xlink:href="#dirArrow" transform="rotate(270) translate(-36 17)" onmousedown="handlePan(-1,0)">
                  <use xlink:href="#rim" fill="#404040">
                        <set attributeName="fill" to="#808080" begin="arrowLeft.mouseover" end="arrowLeft.mouseout"/>
                  </use>
                  <path fill="none" stroke="white" stroke-width="1.5" d="M0,-3.0v7 M-2.5,-0.5L0,-3.0L2.5,-0.5"/>
                </g>
        </g>
</svg>
