<?xml version="1.0" encoding="UTF-8" standalone="no"?>
<!DOCTYPE svg PUBLIC "-//W3C//DTD SVG 1.1//EN"
 "http://www.w3.org/Graphics/SVG/1.1/DTD/svg11.dtd">
<!-- Generated by graphviz version 2.28.0 (20111211.2114)
 -->
<!-- Title: G Pages: 1 -->
<svg width="477pt" height="252pt"
 viewBox="0.00 0.00 477.00 252.00" xmlns="http://www.w3.org/2000/svg" xmlns:xlink="http://www.w3.org/1999/xlink">
<g id="graph1" class="graph" transform="scale(1 1) rotate(0) translate(4 248)">
<title>G</title>
<!-- Node1 -->
<g id="node1" class="node"><title>Node1</title>
<polygon fill="#bfbfbf" stroke="black" points="-0.5,-224.5 -0.5,-243.5 374.5,-243.5 374.5,-224.5 -0.5,-224.5"/>
<text text-anchor="middle" x="187" y="-231.5" font-family="Helvetica,sans-Serif" font-size="10.00">/home/pjm3/freeradius&#45;server/src/modules/rlm_eap/types/rlm_eap_leap/eap_leap.c</text>
</g>
<!-- Node2 -->
<g id="node3" class="node"><title>Node2</title>
<polygon fill="none" stroke="#bfbfbf" points="18,-0.5 18,-19.5 136,-19.5 136,-0.5 18,-0.5"/>
<text text-anchor="middle" x="77" y="-7.5" font-family="Helvetica,sans-Serif" font-size="10.00">freeradius&#45;devel/ident.h</text>
</g>
<!-- Node1&#45;&gt;Node2 -->
<g id="edge2" class="edge"><title>Node1&#45;&gt;Node2</title>
<path fill="none" stroke="midnightblue" d="M142.804,-224.477C122.037,-218.071 99.0303,-206.996 86,-188 52.6933,-139.444 64.1528,-64.5746 72.0622,-29.8649"/>
<polygon fill="midnightblue" stroke="midnightblue" points="75.5651,-30.2744 74.5387,-19.7294 68.7651,-28.6129 75.5651,-30.2744"/>
</g>
<!-- Node3 -->
<g id="node5" class="node"><title>Node3</title>
<polygon fill="none" stroke="#bfbfbf" points="215,-168.5 215,-187.5 261,-187.5 261,-168.5 215,-168.5"/>
<text text-anchor="middle" x="238" y="-175.5" font-family="Helvetica,sans-Serif" font-size="10.00">stdio.h</text>
</g>
<!-- Node1&#45;&gt;Node3 -->
<g id="edge4" class="edge"><title>Node1&#45;&gt;Node3</title>
<path fill="none" stroke="midnightblue" d="M195.422,-224.083C202.848,-216.22 213.852,-204.569 222.812,-195.081"/>
<polygon fill="midnightblue" stroke="midnightblue" points="225.413,-197.424 229.735,-187.751 220.324,-192.618 225.413,-197.424"/>
</g>
<!-- Node4 -->
<g id="node7" class="node"><title>Node4</title>
<polygon fill="none" stroke="#bfbfbf" points="279,-168.5 279,-187.5 327,-187.5 327,-168.5 279,-168.5"/>
<text text-anchor="middle" x="303" y="-175.5" font-family="Helvetica,sans-Serif" font-size="10.00">stdlib.h</text>
</g>
<!-- Node1&#45;&gt;Node4 -->
<g id="edge6" class="edge"><title>Node1&#45;&gt;Node4</title>
<path fill="none" stroke="midnightblue" d="M205.381,-224.444C224.216,-215.675 253.731,-201.935 275.379,-191.858"/>
<polygon fill="midnightblue" stroke="midnightblue" points="277.117,-194.91 284.705,-187.516 274.162,-188.564 277.117,-194.91"/>
</g>
<!-- Node5 -->
<g id="node9" class="node"><title>Node5</title>
<a xlink:href="eap_8h.html" target="_top" xlink:title="eap.h">
<polygon fill="none" stroke="black" points="176.5,-112.5 176.5,-131.5 217.5,-131.5 217.5,-112.5 176.5,-112.5"/>
<text text-anchor="middle" x="197" y="-119.5" font-family="Helvetica,sans-Serif" font-size="10.00">eap.h</text>
</a>
</g>
<!-- Node1&#45;&gt;Node5 -->
<g id="edge8" class="edge"><title>Node1&#45;&gt;Node5</title>
<path fill="none" stroke="midnightblue" d="M187.785,-224.368C189.398,-206.617 193.121,-165.666 195.309,-141.597"/>
<polygon fill="midnightblue" stroke="midnightblue" points="198.799,-141.867 196.219,-131.591 191.828,-141.233 198.799,-141.867"/>
</g>
<!-- Node10 -->
<g id="node23" class="node"><title>Node10</title>
<a xlink:href="eap__leap_8h.html" target="_top" xlink:title="eap_leap.h">
<polygon fill="none" stroke="black" points="95,-168.5 95,-187.5 159,-187.5 159,-168.5 95,-168.5"/>
<text text-anchor="middle" x="127" y="-175.5" font-family="Helvetica,sans-Serif" font-size="10.00">eap_leap.h</text>
</a>
</g>
<!-- Node1&#45;&gt;Node10 -->
<g id="edge26" class="edge"><title>Node1&#45;&gt;Node10</title>
<path fill="none" stroke="midnightblue" d="M177.36,-224.324C168.49,-216.341 155.125,-204.313 144.392,-194.653"/>
<polygon fill="midnightblue" stroke="midnightblue" points="146.59,-191.922 136.815,-187.834 141.907,-197.125 146.59,-191.922"/>
</g>
<!-- Node5&#45;&gt;Node2 -->
<g id="edge10" class="edge"><title>Node5&#45;&gt;Node2</title>
<path fill="none" stroke="midnightblue" d="M187.584,-112.368C167.342,-93.8137 119.45,-49.9129 93.841,-26.4376"/>
<polygon fill="midnightblue" stroke="midnightblue" points="96.1091,-23.7686 86.3725,-19.5914 91.379,-28.9287 96.1091,-23.7686"/>
</g>
<!-- Node6 -->
<g id="node12" class="node"><title>Node6</title>
<polygon fill="none" stroke="#bfbfbf" points="306,-0.5 306,-19.5 434,-19.5 434,-0.5 306,-0.5"/>
<text text-anchor="middle" x="370" y="-7.5" font-family="Helvetica,sans-Serif" font-size="10.00">freeradius&#45;devel/radiusd.h</text>
</g>
<!-- Node5&#45;&gt;Node6 -->
<g id="edge12" class="edge"><title>Node5&#45;&gt;Node6</title>
<path fill="none" stroke="midnightblue" d="M210.575,-112.368C240.262,-93.4924 311.204,-48.385 347.61,-25.2367"/>
<polygon fill="midnightblue" stroke="midnightblue" points="349.927,-27.9106 356.488,-19.5914 346.171,-22.0035 349.927,-27.9106"/>
</g>
<!-- Node7 -->
<g id="node14" class="node"><title>Node7</title>
<polygon fill="none" stroke="#bfbfbf" points="154,-0.5 154,-19.5 288,-19.5 288,-0.5 154,-0.5"/>
<text text-anchor="middle" x="221" y="-7.5" font-family="Helvetica,sans-Serif" font-size="10.00">freeradius&#45;devel/modules.h</text>
</g>
<!-- Node5&#45;&gt;Node7 -->
<g id="edge14" class="edge"><title>Node5&#45;&gt;Node7</title>
<path fill="none" stroke="midnightblue" d="M209.781,-112.369C220.394,-104.36 234.731,-91.3795 241,-76 247.456,-60.1638 240.204,-41.4396 232.689,-28.165"/>
<polygon fill="midnightblue" stroke="midnightblue" points="235.609,-26.2331 227.363,-19.5814 229.661,-29.9239 235.609,-26.2331"/>
</g>
<!-- Node8 -->
<g id="node16" class="node"><title>Node8</title>
<polygon fill="none" stroke="#bfbfbf" points="326.5,-56.5 326.5,-75.5 469.5,-75.5 469.5,-56.5 326.5,-56.5"/>
<text text-anchor="middle" x="398" y="-63.5" font-family="Helvetica,sans-Serif" font-size="10.00">freeradius&#45;devel/rad_assert.h</text>
</g>
<!-- Node5&#45;&gt;Node8 -->
<g id="edge16" class="edge"><title>Node5&#45;&gt;Node8</title>
<path fill="none" stroke="midnightblue" d="M217.753,-115.424C250.347,-106.668 314.172,-89.521 356.457,-78.1609"/>
<polygon fill="midnightblue" stroke="midnightblue" points="357.434,-81.5224 366.184,-75.5476 355.618,-74.7621 357.434,-81.5224"/>
</g>
<!-- Node9 -->
<g id="node18" class="node"><title>Node9</title>
<a xlink:href="eap__types_8h.html" target="_top" xlink:title="eap_types.h">
<polygon fill="none" stroke="black" points="162,-56.5 162,-75.5 232,-75.5 232,-56.5 162,-56.5"/>
<text text-anchor="middle" x="197" y="-63.5" font-family="Helvetica,sans-Serif" font-size="10.00">eap_types.h</text>
</a>
</g>
<!-- Node5&#45;&gt;Node9 -->
<g id="edge18" class="edge"><title>Node5&#45;&gt;Node9</title>
<path fill="none" stroke="midnightblue" d="M197,-112.083C197,-105.006 197,-94.8611 197,-85.9865"/>
<polygon fill="midnightblue" stroke="midnightblue" points="200.5,-85.751 197,-75.7511 193.5,-85.7511 200.5,-85.751"/>
</g>
<!-- Node9&#45;&gt;Node2 -->
<g id="edge20" class="edge"><title>Node9&#45;&gt;Node2</title>
<path fill="none" stroke="midnightblue" d="M177.986,-56.4435C158.412,-47.6356 127.692,-33.8116 105.271,-23.722"/>
<polygon fill="midnightblue" stroke="midnightblue" points="106.481,-20.4284 95.9254,-19.5164 103.608,-26.8119 106.481,-20.4284"/>
</g>
<!-- Node9&#45;&gt;Node6 -->
<g id="edge22" class="edge"><title>Node9&#45;&gt;Node6</title>
<path fill="none" stroke="midnightblue" d="M224.412,-56.4435C253.769,-47.2801 300.519,-32.6876 333.096,-22.5192"/>
<polygon fill="midnightblue" stroke="midnightblue" points="334.213,-25.8371 342.716,-19.5164 332.127,-19.1551 334.213,-25.8371"/>
</g>
<!-- Node9&#45;&gt;Node7 -->
<g id="edge24" class="edge"><title>Node9&#45;&gt;Node7</title>
<path fill="none" stroke="midnightblue" d="M200.963,-56.083C204.213,-48.77 208.919,-38.1814 212.954,-29.1034"/>
<polygon fill="midnightblue" stroke="midnightblue" points="216.248,-30.3107 217.111,-19.7511 209.851,-27.4677 216.248,-30.3107"/>
</g>
<!-- Node10&#45;&gt;Node2 -->
<g id="edge28" class="edge"><title>Node10&#45;&gt;Node2</title>
<path fill="none" stroke="midnightblue" d="M124.312,-168.075C116.441,-141.945 93.3285,-65.2106 82.5955,-29.577"/>
<polygon fill="midnightblue" stroke="midnightblue" points="85.8162,-28.1338 79.5808,-19.5681 79.1136,-30.1526 85.8162,-28.1338"/>
</g>
<!-- Node10&#45;&gt;Node5 -->
<g id="edge30" class="edge"><title>Node10&#45;&gt;Node5</title>
<path fill="none" stroke="midnightblue" d="M138.247,-168.324C148.797,-160.185 164.801,-147.839 177.442,-138.087"/>
<polygon fill="midnightblue" stroke="midnightblue" points="179.769,-140.713 185.549,-131.834 175.493,-135.171 179.769,-140.713"/>
</g>
</g>
</svg>
