<?xml version="1.0" encoding="UTF-8" standalone="no"?>
<!DOCTYPE svg PUBLIC "-//W3C//DTD SVG 1.1//EN"
 "http://www.w3.org/Graphics/SVG/1.1/DTD/svg11.dtd">
<!-- Generated by graphviz version 2.28.0 (20111211.2114)
 -->
<!-- Title: G Pages: 1 -->
<!--zoomable-->
<svg id="main" version="1.1" xmlns="http://www.w3.org/2000/svg" xmlns:xlink="http://www.w3.org/1999/xlink" xml:space="preserve" onload="init(evt)">
        <defs>
                <circle id="rim" cx="0" cy="0" r="7"/>
                <circle id="rim2" cx="0" cy="0" r="3.5"/>
                <g id="zoomPlus">
                        <use xlink:href="#rim" fill="#404040">
                                <set attributeName="fill" to="#808080" begin="zoomplus.mouseover" end="zoomplus.mouseout"/>
                        </use>
                        <path d="M-4,0h8M0,-4v8" fill="none" stroke="white" stroke-width="1.5" pointer-events="none"/>
                </g>
                <g id="zoomMin">
                        <use xlink:href="#rim" fill="#404040">
                                <set attributeName="fill" to="#808080" begin="zoomminus.mouseover" end="zoomminus.mouseout"/>
                        </use>
                        <path d="M-4,0h8" fill="none" stroke="white" stroke-width="1.5" pointer-events="none"/>
                </g>
                <g id="dirArrow">
                        <path fill="none" stroke="white" stroke-width="1.5" d="M0,-3.0v7 M-2.5,-0.5L0,-3.0L2.5,-0.5"/>
                </g>
               <g id="resetDef">
                       <use xlink:href="#rim2" fill="#404040">
                               <set attributeName="fill" to="#808080" begin="reset.mouseover" end="reset.mouseout"/>
                       </use>
               </g>
        </defs>

<script type="text/javascript">
var viewWidth = 586;
var viewHeight = 196;
var sectionId = 'dynsection-0';
</script>
<script xlink:href="svgpan.js"/>
<svg id="graph" class="graph">
<g id="viewport">
<title>G</title>
<!-- Node1 -->
<g id="node1" class="node"><title>Node1</title>
<polygon fill="#bfbfbf" stroke="black" points="100.127,-168.5 100.127,-187.5 420.127,-187.5 420.127,-168.5 100.127,-168.5"/>
<text text-anchor="middle" x="260.127" y="-175.5" font-family="Helvetica,sans-Serif" font-size="10.00">/home/pjm3/freeradius&#45;server/src/modules/rlm_eap/libeap/eapcrypto.c</text>
</g>
<!-- Node2 -->
<g id="node3" class="node"><title>Node2</title>
<polygon fill="none" stroke="#bfbfbf" points="162.127,-0.5 162.127,-19.5 280.127,-19.5 280.127,-0.5 162.127,-0.5"/>
<text text-anchor="middle" x="221.127" y="-7.5" font-family="Helvetica,sans-Serif" font-size="10.00">freeradius&#45;devel/ident.h</text>
</g>
<!-- Node1&#45;&gt;Node2 -->
<g id="edge2" class="edge"><title>Node1&#45;&gt;Node2</title>
<path fill="none" stroke="midnightblue" d="M129.42,-168.477C77.8671,-162.144 27.1111,-151.132 11.1271,-132 -37.0896,-74.2884 84.3743,-38.1826 162.096,-21.6438"/>
<polygon fill="midnightblue" stroke="midnightblue" points="163.199,-24.9898 172.281,-19.5342 161.779,-18.1353 163.199,-24.9898"/>
</g>
<!-- Node3 -->
<g id="node5" class="node"><title>Node3</title>
<polygon fill="none" stroke="#bfbfbf" points="20.1271,-112.5 20.1271,-131.5 154.127,-131.5 154.127,-112.5 20.1271,-112.5"/>
<text text-anchor="middle" x="87.1271" y="-119.5" font-family="Helvetica,sans-Serif" font-size="10.00">freeradius&#45;devel/autoconf.h</text>
</g>
<!-- Node1&#45;&gt;Node3 -->
<g id="edge4" class="edge"><title>Node1&#45;&gt;Node3</title>
<path fill="none" stroke="midnightblue" d="M232.715,-168.444C203.358,-159.28 156.608,-144.688 124.031,-134.519"/>
<polygon fill="midnightblue" stroke="midnightblue" points="125,-131.155 114.411,-131.516 122.914,-137.837 125,-131.155"/>
</g>
<!-- Node4 -->
<g id="node7" class="node"><title>Node4</title>
<polygon fill="none" stroke="#bfbfbf" points="172.127,-112.5 172.127,-131.5 218.127,-131.5 218.127,-112.5 172.127,-112.5"/>
<text text-anchor="middle" x="195.127" y="-119.5" font-family="Helvetica,sans-Serif" font-size="10.00">stdio.h</text>
</g>
<!-- Node1&#45;&gt;Node4 -->
<g id="edge6" class="edge"><title>Node1&#45;&gt;Node4</title>
<path fill="none" stroke="midnightblue" d="M249.684,-168.324C239.981,-160.263 225.312,-148.077 213.627,-138.369"/>
<polygon fill="midnightblue" stroke="midnightblue" points="215.689,-135.532 205.761,-131.834 211.216,-140.916 215.689,-135.532"/>
</g>
<!-- Node5 -->
<g id="node9" class="node"><title>Node5</title>
<polygon fill="none" stroke="#bfbfbf" points="236.127,-112.5 236.127,-131.5 284.127,-131.5 284.127,-112.5 236.127,-112.5"/>
<text text-anchor="middle" x="260.127" y="-119.5" font-family="Helvetica,sans-Serif" font-size="10.00">stdlib.h</text>
</g>
<!-- Node1&#45;&gt;Node5 -->
<g id="edge8" class="edge"><title>Node1&#45;&gt;Node5</title>
<path fill="none" stroke="midnightblue" d="M260.127,-168.083C260.127,-161.006 260.127,-150.861 260.127,-141.986"/>
<polygon fill="midnightblue" stroke="midnightblue" points="263.627,-141.751 260.127,-131.751 256.627,-141.751 263.627,-141.751"/>
</g>
<!-- Node6 -->
<g id="node11" class="node"><title>Node6</title>
<a xlink:href="eap__types_8h.html" target="_top" xlink:title="eap_types.h">
<polygon fill="none" stroke="black" points="327.127,-56.5 327.127,-75.5 397.127,-75.5 397.127,-56.5 327.127,-56.5"/>
<text text-anchor="middle" x="362.127" y="-63.5" font-family="Helvetica,sans-Serif" font-size="10.00">eap_types.h</text>
</a>
</g>
<!-- Node1&#45;&gt;Node6 -->
<g id="edge10" class="edge"><title>Node1&#45;&gt;Node6</title>
<path fill="none" stroke="midnightblue" d="M315.266,-168.42C336.725,-162.092 359.219,-151.098 372.127,-132 381.4,-118.281 376.957,-99.2443 371.362,-85.3184"/>
<polygon fill="midnightblue" stroke="midnightblue" points="374.382,-83.503 367.068,-75.8381 368.006,-86.3914 374.382,-83.503"/>
</g>
<!-- Node9 -->
<g id="node18" class="node"><title>Node9</title>
<a xlink:href="eap__sim_8h.html" target="_top" xlink:title="eap_sim.h">
<polygon fill="none" stroke="black" points="302.127,-112.5 302.127,-131.5 364.127,-131.5 364.127,-112.5 302.127,-112.5"/>
<text text-anchor="middle" x="333.127" y="-119.5" font-family="Helvetica,sans-Serif" font-size="10.00">eap_sim.h</text>
</a>
</g>
<!-- Node1&#45;&gt;Node9 -->
<g id="edge18" class="edge"><title>Node1&#45;&gt;Node9</title>
<path fill="none" stroke="midnightblue" d="M271.856,-168.324C282.965,-160.107 299.869,-147.602 313.11,-137.807"/>
<polygon fill="midnightblue" stroke="midnightblue" points="315.227,-140.595 321.185,-131.834 311.064,-134.967 315.227,-140.595"/>
</g>
<!-- Node10 -->
<g id="node22" class="node"><title>Node10</title>
<polygon fill="none" stroke="#bfbfbf" points="420.127,-112.5 420.127,-131.5 538.127,-131.5 538.127,-112.5 420.127,-112.5"/>
<text text-anchor="middle" x="479.127" y="-119.5" font-family="Helvetica,sans-Serif" font-size="10.00">freeradius&#45;devel/sha1.h</text>
</g>
<!-- Node1&#45;&gt;Node10 -->
<g id="edge24" class="edge"><title>Node1&#45;&gt;Node10</title>
<path fill="none" stroke="midnightblue" d="M294.828,-168.444C332.712,-159.102 393.476,-144.119 434.79,-133.933"/>
<polygon fill="midnightblue" stroke="midnightblue" points="435.717,-137.309 444.588,-131.516 434.041,-130.512 435.717,-137.309"/>
</g>
<!-- Node6&#45;&gt;Node2 -->
<g id="edge12" class="edge"><title>Node6&#45;&gt;Node2</title>
<path fill="none" stroke="midnightblue" d="M339.785,-56.4435C316.374,-47.4776 279.392,-33.314 252.937,-23.1827"/>
<polygon fill="midnightblue" stroke="midnightblue" points="253.955,-19.8245 243.364,-19.5164 251.451,-26.3615 253.955,-19.8245"/>
</g>
<!-- Node7 -->
<g id="node14" class="node"><title>Node7</title>
<polygon fill="none" stroke="#bfbfbf" points="298.127,-0.5 298.127,-19.5 426.127,-19.5 426.127,-0.5 298.127,-0.5"/>
<text text-anchor="middle" x="362.127" y="-7.5" font-family="Helvetica,sans-Serif" font-size="10.00">freeradius&#45;devel/radiusd.h</text>
</g>
<!-- Node6&#45;&gt;Node7 -->
<g id="edge14" class="edge"><title>Node6&#45;&gt;Node7</title>
<path fill="none" stroke="midnightblue" d="M362.127,-56.083C362.127,-49.0059 362.127,-38.8611 362.127,-29.9865"/>
<polygon fill="midnightblue" stroke="midnightblue" points="365.627,-29.751 362.127,-19.7511 358.627,-29.7511 365.627,-29.751"/>
</g>
<!-- Node8 -->
<g id="node16" class="node"><title>Node8</title>
<polygon fill="none" stroke="#bfbfbf" points="444.127,-0.5 444.127,-19.5 578.127,-19.5 578.127,-0.5 444.127,-0.5"/>
<text text-anchor="middle" x="511.127" y="-7.5" font-family="Helvetica,sans-Serif" font-size="10.00">freeradius&#45;devel/modules.h</text>
</g>
<!-- Node6&#45;&gt;Node8 -->
<g id="edge16" class="edge"><title>Node6&#45;&gt;Node8</title>
<path fill="none" stroke="midnightblue" d="M385.737,-56.4435C410.585,-47.4381 449.902,-33.1891 477.881,-23.049"/>
<polygon fill="midnightblue" stroke="midnightblue" points="479.419,-26.2144 487.628,-19.5164 477.034,-19.6332 479.419,-26.2144"/>
</g>
<!-- Node9&#45;&gt;Node2 -->
<g id="edge20" class="edge"><title>Node9&#45;&gt;Node2</title>
<path fill="none" stroke="midnightblue" d="M324.339,-112.368C305.528,-93.8941 261.134,-50.2926 237.157,-26.7436"/>
<polygon fill="midnightblue" stroke="midnightblue" points="239.462,-24.1015 229.875,-19.5914 234.557,-29.0956 239.462,-24.1015"/>
</g>
<!-- Node9&#45;&gt;Node6 -->
<g id="edge22" class="edge"><title>Node9&#45;&gt;Node6</title>
<path fill="none" stroke="midnightblue" d="M337.916,-112.083C341.885,-104.691 347.652,-93.9533 352.562,-84.8111"/>
<polygon fill="midnightblue" stroke="midnightblue" points="355.78,-86.217 357.427,-75.7511 349.613,-82.9051 355.78,-86.217"/>
</g>
</g>
</svg>
        <g id="navigator" transform="translate(0 0)" fill="#404254">
                <rect fill="#f2f5e9" fill-opacity="0.5" stroke="#606060" stroke-width=".5" x="0" y="0" width="60" height="60"/>
                <use id="zoomplus" xlink:href="#zoomPlus" x="17" y="9" onmousedown="handleZoom(evt,'in')"/>
                <use id="zoomminus" xlink:href="#zoomMin" x="42" y="9" onmousedown="handleZoom(evt,'out')"/>
                <use id="reset" xlink:href="#resetDef" x="30" y="36" onmousedown="handleReset()"/>
                <g id="arrowUp" xlink:href="#dirArrow" transform="translate(30 24)" onmousedown="handlePan(0,-1)">
                  <use xlink:href="#rim" fill="#404040">
                        <set attributeName="fill" to="#808080" begin="arrowUp.mouseover" end="arrowUp.mouseout"/>
                  </use>
                  <path fill="none" stroke="white" stroke-width="1.5" d="M0,-3.0v7 M-2.5,-0.5L0,-3.0L2.5,-0.5"/>
                </g>
                <g id="arrowRight" xlink:href="#dirArrow" transform="rotate(90) translate(36 -43)" onmousedown="handlePan(1,0)">
                  <use xlink:href="#rim" fill="#404040">
                        <set attributeName="fill" to="#808080" begin="arrowRight.mouseover" end="arrowRight.mouseout"/>
                  </use>
                  <path fill="none" stroke="white" stroke-width="1.5" d="M0,-3.0v7 M-2.5,-0.5L0,-3.0L2.5,-0.5"/>
                </g>
                <g id="arrowDown" xlink:href="#dirArrow" transform="rotate(180) translate(-30 -48)" onmousedown="handlePan(0,1)">
                  <use xlink:href="#rim" fill="#404040">
                        <set attributeName="fill" to="#808080" begin="arrowDown.mouseover" end="arrowDown.mouseout"/>
                  </use>
                  <path fill="none" stroke="white" stroke-width="1.5" d="M0,-3.0v7 M-2.5,-0.5L0,-3.0L2.5,-0.5"/>
                </g>
                <g id="arrowLeft" xlink:href="#dirArrow" transform="rotate(270) translate(-36 17)" onmousedown="handlePan(-1,0)">
                  <use xlink:href="#rim" fill="#404040">
                        <set attributeName="fill" to="#808080" begin="arrowLeft.mouseover" end="arrowLeft.mouseout"/>
                  </use>
                  <path fill="none" stroke="white" stroke-width="1.5" d="M0,-3.0v7 M-2.5,-0.5L0,-3.0L2.5,-0.5"/>
                </g>
        </g>
</svg>
