<?xml version="1.0" encoding="UTF-8" standalone="no"?>
<!DOCTYPE svg PUBLIC "-//W3C//DTD SVG 1.1//EN"
 "http://www.w3.org/Graphics/SVG/1.1/DTD/svg11.dtd">
<!-- Generated by graphviz version 2.28.0 (20111211.2114)
 -->
<!-- Title: G Pages: 1 -->
<!--zoomable-->
<svg id="main" version="1.1" xmlns="http://www.w3.org/2000/svg" xmlns:xlink="http://www.w3.org/1999/xlink" xml:space="preserve" onload="init(evt)">
        <defs>
                <circle id="rim" cx="0" cy="0" r="7"/>
                <circle id="rim2" cx="0" cy="0" r="3.5"/>
                <g id="zoomPlus">
                        <use xlink:href="#rim" fill="#404040">
                                <set attributeName="fill" to="#808080" begin="zoomplus.mouseover" end="zoomplus.mouseout"/>
                        </use>
                        <path d="M-4,0h8M0,-4v8" fill="none" stroke="white" stroke-width="1.5" pointer-events="none"/>
                </g>
                <g id="zoomMin">
                        <use xlink:href="#rim" fill="#404040">
                                <set attributeName="fill" to="#808080" begin="zoomminus.mouseover" end="zoomminus.mouseout"/>
                        </use>
                        <path d="M-4,0h8" fill="none" stroke="white" stroke-width="1.5" pointer-events="none"/>
                </g>
                <g id="dirArrow">
                        <path fill="none" stroke="white" stroke-width="1.5" d="M0,-3.0v7 M-2.5,-0.5L0,-3.0L2.5,-0.5"/>
                </g>
               <g id="resetDef">
                       <use xlink:href="#rim2" fill="#404040">
                               <set attributeName="fill" to="#808080" begin="reset.mouseover" end="reset.mouseout"/>
                       </use>
               </g>
        </defs>

<script type="text/javascript">
var viewWidth = 764;
var viewHeight = 196;
var sectionId = 'dynsection-0';
</script>
<script xlink:href="svgpan.js"/>
<svg id="graph" class="graph">
<g id="viewport">
<title>G</title>
<!-- Node1 -->
<g id="node1" class="node"><title>Node1</title>
<polygon fill="#bfbfbf" stroke="black" points="236.38,-168.5 236.38,-187.5 554.38,-187.5 554.38,-168.5 236.38,-168.5"/>
<text text-anchor="middle" x="395.38" y="-175.5" font-family="Helvetica,sans-Serif" font-size="10.00">/home/pjm3/freeradius&#45;server/src/modules/rlm_eap/libeap/eapsimlib.c</text>
</g>
<!-- Node2 -->
<g id="node3" class="node"><title>Node2</title>
<polygon fill="none" stroke="#bfbfbf" points="340.38,-0.5 340.38,-19.5 458.38,-19.5 458.38,-0.5 340.38,-0.5"/>
<text text-anchor="middle" x="399.38" y="-7.5" font-family="Helvetica,sans-Serif" font-size="10.00">freeradius&#45;devel/ident.h</text>
</g>
<!-- Node1&#45;&gt;Node2 -->
<g id="edge2" class="edge"><title>Node1&#45;&gt;Node2</title>
<path fill="none" stroke="midnightblue" d="M245.62,-168.493C147.206,-161.326 33.8467,-149.423 18.3801,-132 -71.5412,-30.7071 197.081,-13.5333 329.826,-11.0911"/>
<polygon fill="midnightblue" stroke="midnightblue" points="329.974,-14.5893 339.916,-10.929 329.861,-7.59022 329.974,-14.5893"/>
</g>
<!-- Node3 -->
<g id="node5" class="node"><title>Node3</title>
<polygon fill="none" stroke="#bfbfbf" points="27.3801,-112.5 27.3801,-131.5 161.38,-131.5 161.38,-112.5 27.3801,-112.5"/>
<text text-anchor="middle" x="94.3801" y="-119.5" font-family="Helvetica,sans-Serif" font-size="10.00">freeradius&#45;devel/autoconf.h</text>
</g>
<!-- Node1&#45;&gt;Node3 -->
<g id="edge4" class="edge"><title>Node1&#45;&gt;Node3</title>
<path fill="none" stroke="midnightblue" d="M347.686,-168.444C294.517,-158.905 208.556,-143.483 151.754,-133.293"/>
<polygon fill="midnightblue" stroke="midnightblue" points="152.312,-129.837 141.851,-131.516 151.076,-136.727 152.312,-129.837"/>
</g>
<!-- Node4 -->
<g id="node7" class="node"><title>Node4</title>
<polygon fill="none" stroke="#bfbfbf" points="179.88,-112.5 179.88,-131.5 310.88,-131.5 310.88,-112.5 179.88,-112.5"/>
<text text-anchor="middle" x="245.38" y="-119.5" font-family="Helvetica,sans-Serif" font-size="10.00">freeradius&#45;devel/missing.h</text>
</g>
<!-- Node1&#45;&gt;Node4 -->
<g id="edge6" class="edge"><title>Node1&#45;&gt;Node4</title>
<path fill="none" stroke="midnightblue" d="M371.612,-168.444C346.487,-159.399 306.669,-145.064 278.48,-134.916"/>
<polygon fill="midnightblue" stroke="midnightblue" points="279.631,-131.611 269.037,-131.516 277.26,-138.197 279.631,-131.611"/>
</g>
<!-- Node5 -->
<g id="node9" class="node"><title>Node5</title>
<polygon fill="none" stroke="#bfbfbf" points="328.88,-112.5 328.88,-131.5 461.88,-131.5 461.88,-112.5 328.88,-112.5"/>
<text text-anchor="middle" x="395.38" y="-119.5" font-family="Helvetica,sans-Serif" font-size="10.00">freeradius&#45;devel/libradius.h</text>
</g>
<!-- Node1&#45;&gt;Node5 -->
<g id="edge8" class="edge"><title>Node1&#45;&gt;Node5</title>
<path fill="none" stroke="midnightblue" d="M395.38,-168.083C395.38,-161.006 395.38,-150.861 395.38,-141.986"/>
<polygon fill="midnightblue" stroke="midnightblue" points="398.88,-141.751 395.38,-131.751 391.88,-141.751 398.88,-141.751"/>
</g>
<!-- Node6 -->
<g id="node11" class="node"><title>Node6</title>
<a xlink:href="eap__types_8h.html" target="_top" xlink:title="eap_types.h">
<polygon fill="none" stroke="black" points="505.38,-56.5 505.38,-75.5 575.38,-75.5 575.38,-56.5 505.38,-56.5"/>
<text text-anchor="middle" x="540.38" y="-63.5" font-family="Helvetica,sans-Serif" font-size="10.00">eap_types.h</text>
</a>
</g>
<!-- Node1&#45;&gt;Node6 -->
<g id="edge10" class="edge"><title>Node1&#45;&gt;Node6</title>
<path fill="none" stroke="midnightblue" d="M449.025,-168.43C488.741,-160.862 538.013,-148.469 550.38,-132 560.531,-118.482 555.595,-98.8578 549.628,-84.7123"/>
<polygon fill="midnightblue" stroke="midnightblue" points="552.735,-83.0957 545.302,-75.5462 546.405,-86.0835 552.735,-83.0957"/>
</g>
<!-- Node9 -->
<g id="node18" class="node"><title>Node9</title>
<a xlink:href="eap__sim_8h.html" target="_top" xlink:title="eap_sim.h">
<polygon fill="none" stroke="black" points="480.38,-112.5 480.38,-131.5 542.38,-131.5 542.38,-112.5 480.38,-112.5"/>
<text text-anchor="middle" x="511.38" y="-119.5" font-family="Helvetica,sans-Serif" font-size="10.00">eap_sim.h</text>
</a>
</g>
<!-- Node1&#45;&gt;Node9 -->
<g id="edge18" class="edge"><title>Node1&#45;&gt;Node9</title>
<path fill="none" stroke="midnightblue" d="M413.761,-168.444C432.597,-159.675 462.111,-145.935 483.759,-135.858"/>
<polygon fill="midnightblue" stroke="midnightblue" points="485.497,-138.91 493.086,-131.516 482.543,-132.564 485.497,-138.91"/>
</g>
<!-- Node10 -->
<g id="node22" class="node"><title>Node10</title>
<polygon fill="none" stroke="#bfbfbf" points="598.38,-112.5 598.38,-131.5 716.38,-131.5 716.38,-112.5 598.38,-112.5"/>
<text text-anchor="middle" x="657.38" y="-119.5" font-family="Helvetica,sans-Serif" font-size="10.00">freeradius&#45;devel/sha1.h</text>
</g>
<!-- Node1&#45;&gt;Node10 -->
<g id="edge24" class="edge"><title>Node1&#45;&gt;Node10</title>
<path fill="none" stroke="midnightblue" d="M436.895,-168.444C482.792,-158.984 556.76,-143.738 606.206,-133.547"/>
<polygon fill="midnightblue" stroke="midnightblue" points="606.972,-136.963 616.06,-131.516 605.559,-130.107 606.972,-136.963"/>
</g>
<!-- Node6&#45;&gt;Node2 -->
<g id="edge12" class="edge"><title>Node6&#45;&gt;Node2</title>
<path fill="none" stroke="midnightblue" d="M518.038,-56.4435C494.627,-47.4776 457.645,-33.314 431.19,-23.1827"/>
<polygon fill="midnightblue" stroke="midnightblue" points="432.208,-19.8245 421.617,-19.5164 429.704,-26.3615 432.208,-19.8245"/>
</g>
<!-- Node7 -->
<g id="node14" class="node"><title>Node7</title>
<polygon fill="none" stroke="#bfbfbf" points="476.38,-0.5 476.38,-19.5 604.38,-19.5 604.38,-0.5 476.38,-0.5"/>
<text text-anchor="middle" x="540.38" y="-7.5" font-family="Helvetica,sans-Serif" font-size="10.00">freeradius&#45;devel/radiusd.h</text>
</g>
<!-- Node6&#45;&gt;Node7 -->
<g id="edge14" class="edge"><title>Node6&#45;&gt;Node7</title>
<path fill="none" stroke="midnightblue" d="M540.38,-56.083C540.38,-49.0059 540.38,-38.8611 540.38,-29.9865"/>
<polygon fill="midnightblue" stroke="midnightblue" points="543.88,-29.751 540.38,-19.7511 536.88,-29.7511 543.88,-29.751"/>
</g>
<!-- Node8 -->
<g id="node16" class="node"><title>Node8</title>
<polygon fill="none" stroke="#bfbfbf" points="622.38,-0.5 622.38,-19.5 756.38,-19.5 756.38,-0.5 622.38,-0.5"/>
<text text-anchor="middle" x="689.38" y="-7.5" font-family="Helvetica,sans-Serif" font-size="10.00">freeradius&#45;devel/modules.h</text>
</g>
<!-- Node6&#45;&gt;Node8 -->
<g id="edge16" class="edge"><title>Node6&#45;&gt;Node8</title>
<path fill="none" stroke="midnightblue" d="M563.99,-56.4435C588.838,-47.4381 628.155,-33.1891 656.134,-23.049"/>
<polygon fill="midnightblue" stroke="midnightblue" points="657.672,-26.2144 665.881,-19.5164 655.287,-19.6332 657.672,-26.2144"/>
</g>
<!-- Node9&#45;&gt;Node2 -->
<g id="edge20" class="edge"><title>Node9&#45;&gt;Node2</title>
<path fill="none" stroke="midnightblue" d="M502.592,-112.368C483.781,-93.8941 439.387,-50.2926 415.41,-26.7436"/>
<polygon fill="midnightblue" stroke="midnightblue" points="417.715,-24.1015 408.128,-19.5914 412.81,-29.0956 417.715,-24.1015"/>
</g>
<!-- Node9&#45;&gt;Node6 -->
<g id="edge22" class="edge"><title>Node9&#45;&gt;Node6</title>
<path fill="none" stroke="midnightblue" d="M516.169,-112.083C520.138,-104.691 525.905,-93.9533 530.815,-84.8111"/>
<polygon fill="midnightblue" stroke="midnightblue" points="534.033,-86.217 535.68,-75.7511 527.866,-82.9051 534.033,-86.217"/>
</g>
</g>
</svg>
        <g id="navigator" transform="translate(0 0)" fill="#404254">
                <rect fill="#f2f5e9" fill-opacity="0.5" stroke="#606060" stroke-width=".5" x="0" y="0" width="60" height="60"/>
                <use id="zoomplus" xlink:href="#zoomPlus" x="17" y="9" onmousedown="handleZoom(evt,'in')"/>
                <use id="zoomminus" xlink:href="#zoomMin" x="42" y="9" onmousedown="handleZoom(evt,'out')"/>
                <use id="reset" xlink:href="#resetDef" x="30" y="36" onmousedown="handleReset()"/>
                <g id="arrowUp" xlink:href="#dirArrow" transform="translate(30 24)" onmousedown="handlePan(0,-1)">
                  <use xlink:href="#rim" fill="#404040">
                        <set attributeName="fill" to="#808080" begin="arrowUp.mouseover" end="arrowUp.mouseout"/>
                  </use>
                  <path fill="none" stroke="white" stroke-width="1.5" d="M0,-3.0v7 M-2.5,-0.5L0,-3.0L2.5,-0.5"/>
                </g>
                <g id="arrowRight" xlink:href="#dirArrow" transform="rotate(90) translate(36 -43)" onmousedown="handlePan(1,0)">
                  <use xlink:href="#rim" fill="#404040">
                        <set attributeName="fill" to="#808080" begin="arrowRight.mouseover" end="arrowRight.mouseout"/>
                  </use>
                  <path fill="none" stroke="white" stroke-width="1.5" d="M0,-3.0v7 M-2.5,-0.5L0,-3.0L2.5,-0.5"/>
                </g>
                <g id="arrowDown" xlink:href="#dirArrow" transform="rotate(180) translate(-30 -48)" onmousedown="handlePan(0,1)">
                  <use xlink:href="#rim" fill="#404040">
                        <set attributeName="fill" to="#808080" begin="arrowDown.mouseover" end="arrowDown.mouseout"/>
                  </use>
                  <path fill="none" stroke="white" stroke-width="1.5" d="M0,-3.0v7 M-2.5,-0.5L0,-3.0L2.5,-0.5"/>
                </g>
                <g id="arrowLeft" xlink:href="#dirArrow" transform="rotate(270) translate(-36 17)" onmousedown="handlePan(-1,0)">
                  <use xlink:href="#rim" fill="#404040">
                        <set attributeName="fill" to="#808080" begin="arrowLeft.mouseover" end="arrowLeft.mouseout"/>
                  </use>
                  <path fill="none" stroke="white" stroke-width="1.5" d="M0,-3.0v7 M-2.5,-0.5L0,-3.0L2.5,-0.5"/>
                </g>
        </g>
</svg>
