<?xml version="1.0" encoding="UTF-8" standalone="no"?>
<!DOCTYPE svg PUBLIC "-//W3C//DTD SVG 1.1//EN"
 "http://www.w3.org/Graphics/SVG/1.1/DTD/svg11.dtd">
<!-- Generated by graphviz version 2.28.0 (20111211.2114)
 -->
<!-- Title: G Pages: 1 -->
<svg width="458pt" height="84pt"
 viewBox="0.00 0.00 458.00 84.00" xmlns="http://www.w3.org/2000/svg" xmlns:xlink="http://www.w3.org/1999/xlink">
<g id="graph1" class="graph" transform="scale(1 1) rotate(0) translate(4 80)">
<title>G</title>
<!-- Node1 -->
<g id="node1" class="node"><title>Node1</title>
<polygon fill="#bfbfbf" stroke="black" points="101.5,-56.5 101.5,-75.5 404.5,-75.5 404.5,-56.5 101.5,-56.5"/>
<text text-anchor="middle" x="253" y="-63.5" font-family="Helvetica,sans-Serif" font-size="10.00">/home/pjm3/freeradius&#45;server/src/modules/rlm_ldap/edir_ldapext.c</text>
</g>
<!-- Node2 -->
<g id="node3" class="node"><title>Node2</title>
<polygon fill="none" stroke="#bfbfbf" points="0,-0.5 0,-19.5 118,-19.5 118,-0.5 0,-0.5"/>
<text text-anchor="middle" x="59" y="-7.5" font-family="Helvetica,sans-Serif" font-size="10.00">freeradius&#45;devel/ident.h</text>
</g>
<!-- Node1&#45;&gt;Node2 -->
<g id="edge2" class="edge"><title>Node1&#45;&gt;Node2</title>
<path fill="none" stroke="midnightblue" d="M222.26,-56.4435C189.056,-47.2011 136.009,-32.4356 99.4425,-22.2572"/>
<polygon fill="midnightblue" stroke="midnightblue" points="100.168,-18.8262 89.5961,-19.5164 98.2912,-25.5699 100.168,-18.8262"/>
</g>
<!-- Node3 -->
<g id="node5" class="node"><title>Node3</title>
<polygon fill="none" stroke="#bfbfbf" points="136.5,-0.5 136.5,-19.5 179.5,-19.5 179.5,-0.5 136.5,-0.5"/>
<text text-anchor="middle" x="158" y="-7.5" font-family="Helvetica,sans-Serif" font-size="10.00">ldap.h</text>
</g>
<!-- Node1&#45;&gt;Node3 -->
<g id="edge4" class="edge"><title>Node1&#45;&gt;Node3</title>
<path fill="none" stroke="midnightblue" d="M237.737,-56.324C222.779,-47.8215 199.745,-34.7288 182.273,-24.7975"/>
<polygon fill="midnightblue" stroke="midnightblue" points="183.649,-21.5534 173.226,-19.6545 180.19,-27.639 183.649,-21.5534"/>
</g>
<!-- Node4 -->
<g id="node7" class="node"><title>Node4</title>
<polygon fill="none" stroke="#bfbfbf" points="198,-0.5 198,-19.5 244,-19.5 244,-0.5 198,-0.5"/>
<text text-anchor="middle" x="221" y="-7.5" font-family="Helvetica,sans-Serif" font-size="10.00">stdio.h</text>
</g>
<!-- Node1&#45;&gt;Node4 -->
<g id="edge6" class="edge"><title>Node1&#45;&gt;Node4</title>
<path fill="none" stroke="midnightblue" d="M247.716,-56.083C243.289,-48.6127 236.837,-37.7244 231.382,-28.5199"/>
<polygon fill="midnightblue" stroke="midnightblue" points="234.295,-26.5697 226.186,-19.7511 228.273,-30.1383 234.295,-26.5697"/>
</g>
<!-- Node5 -->
<g id="node9" class="node"><title>Node5</title>
<polygon fill="none" stroke="#bfbfbf" points="262,-0.5 262,-19.5 310,-19.5 310,-0.5 262,-0.5"/>
<text text-anchor="middle" x="286" y="-7.5" font-family="Helvetica,sans-Serif" font-size="10.00">stdlib.h</text>
</g>
<!-- Node1&#45;&gt;Node5 -->
<g id="edge8" class="edge"><title>Node1&#45;&gt;Node5</title>
<path fill="none" stroke="midnightblue" d="M258.449,-56.083C263.014,-48.6127 269.668,-37.7244 275.293,-28.5199"/>
<polygon fill="midnightblue" stroke="midnightblue" points="278.424,-30.109 280.652,-19.7511 272.451,-26.4588 278.424,-30.109"/>
</g>
<!-- Node6 -->
<g id="node11" class="node"><title>Node6</title>
<polygon fill="none" stroke="#bfbfbf" points="328.5,-0.5 328.5,-19.5 377.5,-19.5 377.5,-0.5 328.5,-0.5"/>
<text text-anchor="middle" x="353" y="-7.5" font-family="Helvetica,sans-Serif" font-size="10.00">string.h</text>
</g>
<!-- Node1&#45;&gt;Node6 -->
<g id="edge10" class="edge"><title>Node1&#45;&gt;Node6</title>
<path fill="none" stroke="midnightblue" d="M269.067,-56.324C284.958,-47.7428 309.507,-34.486 327.958,-24.5224"/>
<polygon fill="midnightblue" stroke="midnightblue" points="329.837,-27.4857 336.973,-19.6545 326.511,-21.3264 329.837,-27.4857"/>
</g>
<!-- Node7 -->
<g id="node13" class="node"><title>Node7</title>
<polygon fill="none" stroke="#bfbfbf" points="396,-0.5 396,-19.5 450,-19.5 450,-0.5 396,-0.5"/>
<text text-anchor="middle" x="423" y="-7.5" font-family="Helvetica,sans-Serif" font-size="10.00">strings.h</text>
</g>
<!-- Node1&#45;&gt;Node7 -->
<g id="edge12" class="edge"><title>Node1&#45;&gt;Node7</title>
<path fill="none" stroke="midnightblue" d="M279.937,-56.4435C308.66,-47.3196 354.329,-32.8133 386.321,-22.6509"/>
<polygon fill="midnightblue" stroke="midnightblue" points="387.718,-25.8797 396.189,-19.5164 385.599,-19.2081 387.718,-25.8797"/>
</g>
</g>
</svg>
