<?xml version="1.0" encoding="UTF-8" standalone="no"?>
<!DOCTYPE svg PUBLIC "-//W3C//DTD SVG 1.1//EN"
 "http://www.w3.org/Graphics/SVG/1.1/DTD/svg11.dtd">
<!-- Generated by graphviz version 2.28.0 (20111211.2114)
 -->
<!-- Title: G Pages: 1 -->
<!--zoomable-->
<svg id="main" version="1.1" xmlns="http://www.w3.org/2000/svg" xmlns:xlink="http://www.w3.org/1999/xlink" xml:space="preserve" onload="init(evt)">
        <defs>
                <circle id="rim" cx="0" cy="0" r="7"/>
                <circle id="rim2" cx="0" cy="0" r="3.5"/>
                <g id="zoomPlus">
                        <use xlink:href="#rim" fill="#404040">
                                <set attributeName="fill" to="#808080" begin="zoomplus.mouseover" end="zoomplus.mouseout"/>
                        </use>
                        <path d="M-4,0h8M0,-4v8" fill="none" stroke="white" stroke-width="1.5" pointer-events="none"/>
                </g>
                <g id="zoomMin">
                        <use xlink:href="#rim" fill="#404040">
                                <set attributeName="fill" to="#808080" begin="zoomminus.mouseover" end="zoomminus.mouseout"/>
                        </use>
                        <path d="M-4,0h8" fill="none" stroke="white" stroke-width="1.5" pointer-events="none"/>
                </g>
                <g id="dirArrow">
                        <path fill="none" stroke="white" stroke-width="1.5" d="M0,-3.0v7 M-2.5,-0.5L0,-3.0L2.5,-0.5"/>
                </g>
               <g id="resetDef">
                       <use xlink:href="#rim2" fill="#404040">
                               <set attributeName="fill" to="#808080" begin="reset.mouseover" end="reset.mouseout"/>
                       </use>
               </g>
        </defs>

<script type="text/javascript">
var viewWidth = 1867;
var viewHeight = 140;
var sectionId = 'dynsection-1';
</script>
<script xlink:href="svgpan.js"/>
<svg id="graph" class="graph">
<g id="viewport">
<title>G</title>
<!-- Node1 -->
<g id="node1" class="node"><title>Node1</title>
<polygon fill="#bfbfbf" stroke="black" points="670.5,-112.5 670.5,-131.5 943.5,-131.5 943.5,-112.5 670.5,-112.5"/>
<text text-anchor="middle" x="807" y="-119.5" font-family="Helvetica,sans-Serif" font-size="10.00">/home/pjm3/freeradius&#45;server/src/modules/rlm_otp/extern.h</text>
</g>
<!-- Node2 -->
<g id="node3" class="node"><title>Node2</title>
<a xlink:href="otp__mppe_8c.html" target="_top" xlink:title="/home/pjm3/freeradius&#45;server/src/modules/rlm_otp/otp_mppe.c">
<polygon fill="none" stroke="black" points="-0.5,-56.5 -0.5,-75.5 288.5,-75.5 288.5,-56.5 -0.5,-56.5"/>
<text text-anchor="middle" x="144" y="-63.5" font-family="Helvetica,sans-Serif" font-size="10.00">/home/pjm3/freeradius&#45;server/src/modules/rlm_otp/otp_mppe.c</text>
</a>
</g>
<!-- Node1&#45;&gt;Node2 -->
<g id="edge2" class="edge"><title>Node1&#45;&gt;Node2</title>
<path fill="none" stroke="midnightblue" d="M692.323,-111.66C567.363,-101.482 369.178,-85.3403 248.412,-75.5042"/>
<polygon fill="midnightblue" stroke="midnightblue" points="692.06,-115.15 702.312,-112.473 692.629,-108.173 692.06,-115.15"/>
</g>
<!-- Node3 -->
<g id="node5" class="node"><title>Node3</title>
<a xlink:href="otp__pw__valid_8c.html" target="_top" xlink:title="/home/pjm3/freeradius&#45;server/src/modules/rlm_otp/otp_pw_valid.c">
<polygon fill="none" stroke="black" points="254.5,-0.5 254.5,-19.5 557.5,-19.5 557.5,-0.5 254.5,-0.5"/>
<text text-anchor="middle" x="406" y="-7.5" font-family="Helvetica,sans-Serif" font-size="10.00">/home/pjm3/freeradius&#45;server/src/modules/rlm_otp/otp_pw_valid.c</text>
</a>
</g>
<!-- Node1&#45;&gt;Node3 -->
<g id="edge4" class="edge"><title>Node1&#45;&gt;Node3</title>
<path fill="none" stroke="midnightblue" d="M660.28,-116.735C530.265,-111.4 357.708,-99.8812 336,-76 316.255,-54.279 357.277,-31.5213 384.475,-19.544"/>
<polygon fill="midnightblue" stroke="midnightblue" points="660.219,-120.236 670.352,-117.14 660.5,-113.241 660.219,-120.236"/>
</g>
<!-- Node4 -->
<g id="node7" class="node"><title>Node4</title>
<a xlink:href="otp__pw__valid_8h.html" target="_top" xlink:title="/home/pjm3/freeradius&#45;server/src/modules/rlm_otp/otp_pw_valid.h">
<polygon fill="none" stroke="black" points="344.5,-56.5 344.5,-75.5 647.5,-75.5 647.5,-56.5 344.5,-56.5"/>
<text text-anchor="middle" x="496" y="-63.5" font-family="Helvetica,sans-Serif" font-size="10.00">/home/pjm3/freeradius&#45;server/src/modules/rlm_otp/otp_pw_valid.h</text>
</a>
</g>
<!-- Node1&#45;&gt;Node4 -->
<g id="edge6" class="edge"><title>Node1&#45;&gt;Node4</title>
<path fill="none" stroke="midnightblue" d="M747.838,-110.727C689.068,-100.523 600.002,-85.0583 545.048,-75.5164"/>
<polygon fill="midnightblue" stroke="midnightblue" points="747.27,-114.181 757.721,-112.444 748.467,-107.284 747.27,-114.181"/>
</g>
<!-- Node5 -->
<g id="node10" class="node"><title>Node5</title>
<a xlink:href="otp__pwe_8c.html" target="_top" xlink:title="/home/pjm3/freeradius&#45;server/src/modules/rlm_otp/otp_pwe.c">
<polygon fill="none" stroke="black" points="665.5,-56.5 665.5,-75.5 948.5,-75.5 948.5,-56.5 665.5,-56.5"/>
<text text-anchor="middle" x="807" y="-63.5" font-family="Helvetica,sans-Serif" font-size="10.00">/home/pjm3/freeradius&#45;server/src/modules/rlm_otp/otp_pwe.c</text>
</a>
</g>
<!-- Node1&#45;&gt;Node5 -->
<g id="edge10" class="edge"><title>Node1&#45;&gt;Node5</title>
<path fill="none" stroke="midnightblue" d="M807,-101.805C807,-92.9102 807,-82.7798 807,-75.7511"/>
<polygon fill="midnightblue" stroke="midnightblue" points="803.5,-102.083 807,-112.083 810.5,-102.083 803.5,-102.083"/>
</g>
<!-- Node6 -->
<g id="node12" class="node"><title>Node6</title>
<a xlink:href="otp__radstate_8c.html" target="_top" xlink:title="/home/pjm3/freeradius&#45;server/src/modules/rlm_otp/otp_radstate.c">
<polygon fill="none" stroke="black" points="967,-56.5 967,-75.5 1267,-75.5 1267,-56.5 967,-56.5"/>
<text text-anchor="middle" x="1117" y="-63.5" font-family="Helvetica,sans-Serif" font-size="10.00">/home/pjm3/freeradius&#45;server/src/modules/rlm_otp/otp_radstate.c</text>
</a>
</g>
<!-- Node1&#45;&gt;Node6 -->
<g id="edge12" class="edge"><title>Node1&#45;&gt;Node6</title>
<path fill="none" stroke="midnightblue" d="M866.335,-110.664C924.92,-100.459 1013.45,-85.0386 1068.11,-75.5164"/>
<polygon fill="midnightblue" stroke="midnightblue" points="865.371,-107.279 856.12,-112.444 866.573,-114.175 865.371,-107.279"/>
</g>
<!-- Node7 -->
<g id="node14" class="node"><title>Node7</title>
<a xlink:href="otp__rlm_8c.html" target="_top" xlink:title="/home/pjm3/freeradius&#45;server/src/modules/rlm_otp/otp_rlm.c">
<polygon fill="none" stroke="black" points="1285,-56.5 1285,-75.5 1563,-75.5 1563,-56.5 1285,-56.5"/>
<text text-anchor="middle" x="1424" y="-63.5" font-family="Helvetica,sans-Serif" font-size="10.00">/home/pjm3/freeradius&#45;server/src/modules/rlm_otp/otp_rlm.c</text>
</a>
</g>
<!-- Node1&#45;&gt;Node7 -->
<g id="edge14" class="edge"><title>Node1&#45;&gt;Node7</title>
<path fill="none" stroke="midnightblue" d="M914.421,-111.599C1030.75,-101.417 1214.67,-85.3206 1326.83,-75.5042"/>
<polygon fill="midnightblue" stroke="midnightblue" points="914.082,-108.115 904.425,-112.473 914.692,-115.088 914.082,-108.115"/>
</g>
<!-- Node8 -->
<g id="node16" class="node"><title>Node8</title>
<a xlink:href="otp__util_8c.html" target="_top" xlink:title="/home/pjm3/freeradius&#45;server/src/modules/rlm_otp/otp_util.c">
<polygon fill="none" stroke="black" points="1581,-56.5 1581,-75.5 1859,-75.5 1859,-56.5 1581,-56.5"/>
<text text-anchor="middle" x="1720" y="-63.5" font-family="Helvetica,sans-Serif" font-size="10.00">/home/pjm3/freeradius&#45;server/src/modules/rlm_otp/otp_util.c</text>
</a>
</g>
<!-- Node1&#45;&gt;Node8 -->
<g id="edge16" class="edge"><title>Node1&#45;&gt;Node8</title>
<path fill="none" stroke="midnightblue" d="M953.819,-112.45C1107.83,-103.461 1356.93,-88.8648 1572,-76 1574.96,-75.8232 1577.94,-75.6442 1580.96,-75.4634"/>
<polygon fill="midnightblue" stroke="midnightblue" points="953.593,-108.957 943.814,-113.034 954.001,-115.945 953.593,-108.957"/>
</g>
<!-- Node4&#45;&gt;Node3 -->
<g id="edge8" class="edge"><title>Node4&#45;&gt;Node3</title>
<path fill="none" stroke="midnightblue" d="M472.962,-51.1774C456.401,-41.2407 434.582,-28.1492 420.424,-19.6545"/>
<polygon fill="midnightblue" stroke="midnightblue" points="471.164,-54.1802 481.54,-56.324 474.766,-48.1777 471.164,-54.1802"/>
</g>
</g>
</svg>
        <g id="navigator" transform="translate(0 0)" fill="#404254">
                <rect fill="#f2f5e9" fill-opacity="0.5" stroke="#606060" stroke-width=".5" x="0" y="0" width="60" height="60"/>
                <use id="zoomplus" xlink:href="#zoomPlus" x="17" y="9" onmousedown="handleZoom(evt,'in')"/>
                <use id="zoomminus" xlink:href="#zoomMin" x="42" y="9" onmousedown="handleZoom(evt,'out')"/>
                <use id="reset" xlink:href="#resetDef" x="30" y="36" onmousedown="handleReset()"/>
                <g id="arrowUp" xlink:href="#dirArrow" transform="translate(30 24)" onmousedown="handlePan(0,-1)">
                  <use xlink:href="#rim" fill="#404040">
                        <set attributeName="fill" to="#808080" begin="arrowUp.mouseover" end="arrowUp.mouseout"/>
                  </use>
                  <path fill="none" stroke="white" stroke-width="1.5" d="M0,-3.0v7 M-2.5,-0.5L0,-3.0L2.5,-0.5"/>
                </g>
                <g id="arrowRight" xlink:href="#dirArrow" transform="rotate(90) translate(36 -43)" onmousedown="handlePan(1,0)">
                  <use xlink:href="#rim" fill="#404040">
                        <set attributeName="fill" to="#808080" begin="arrowRight.mouseover" end="arrowRight.mouseout"/>
                  </use>
                  <path fill="none" stroke="white" stroke-width="1.5" d="M0,-3.0v7 M-2.5,-0.5L0,-3.0L2.5,-0.5"/>
                </g>
                <g id="arrowDown" xlink:href="#dirArrow" transform="rotate(180) translate(-30 -48)" onmousedown="handlePan(0,1)">
                  <use xlink:href="#rim" fill="#404040">
                        <set attributeName="fill" to="#808080" begin="arrowDown.mouseover" end="arrowDown.mouseout"/>
                  </use>
                  <path fill="none" stroke="white" stroke-width="1.5" d="M0,-3.0v7 M-2.5,-0.5L0,-3.0L2.5,-0.5"/>
                </g>
                <g id="arrowLeft" xlink:href="#dirArrow" transform="rotate(270) translate(-36 17)" onmousedown="handlePan(-1,0)">
                  <use xlink:href="#rim" fill="#404040">
                        <set attributeName="fill" to="#808080" begin="arrowLeft.mouseover" end="arrowLeft.mouseout"/>
                  </use>
                  <path fill="none" stroke="white" stroke-width="1.5" d="M0,-3.0v7 M-2.5,-0.5L0,-3.0L2.5,-0.5"/>
                </g>
        </g>
</svg>
