<?xml version="1.0" encoding="UTF-8" standalone="no"?>
<!DOCTYPE svg PUBLIC "-//W3C//DTD SVG 1.1//EN"
 "http://www.w3.org/Graphics/SVG/1.1/DTD/svg11.dtd">
<!-- Generated by graphviz version 2.28.0 (20111211.2114)
 -->
<!-- Title: G Pages: 1 -->
<!--zoomable-->
<svg id="main" version="1.1" xmlns="http://www.w3.org/2000/svg" xmlns:xlink="http://www.w3.org/1999/xlink" xml:space="preserve" onload="init(evt)">
        <defs>
                <circle id="rim" cx="0" cy="0" r="7"/>
                <circle id="rim2" cx="0" cy="0" r="3.5"/>
                <g id="zoomPlus">
                        <use xlink:href="#rim" fill="#404040">
                                <set attributeName="fill" to="#808080" begin="zoomplus.mouseover" end="zoomplus.mouseout"/>
                        </use>
                        <path d="M-4,0h8M0,-4v8" fill="none" stroke="white" stroke-width="1.5" pointer-events="none"/>
                </g>
                <g id="zoomMin">
                        <use xlink:href="#rim" fill="#404040">
                                <set attributeName="fill" to="#808080" begin="zoomminus.mouseover" end="zoomminus.mouseout"/>
                        </use>
                        <path d="M-4,0h8" fill="none" stroke="white" stroke-width="1.5" pointer-events="none"/>
                </g>
                <g id="dirArrow">
                        <path fill="none" stroke="white" stroke-width="1.5" d="M0,-3.0v7 M-2.5,-0.5L0,-3.0L2.5,-0.5"/>
                </g>
               <g id="resetDef">
                       <use xlink:href="#rim2" fill="#404040">
                               <set attributeName="fill" to="#808080" begin="reset.mouseover" end="reset.mouseout"/>
                       </use>
               </g>
        </defs>

<script type="text/javascript">
var viewWidth = 603;
var viewHeight = 140;
var sectionId = 'dynsection-0';
</script>
<script xlink:href="svgpan.js"/>
<svg id="graph" class="graph">
<g id="viewport">
<title>G</title>
<!-- Node1 -->
<g id="node1" class="node"><title>Node1</title>
<polygon fill="#bfbfbf" stroke="black" points="246.454,-112.5 246.454,-131.5 519.454,-131.5 519.454,-112.5 246.454,-112.5"/>
<text text-anchor="middle" x="382.954" y="-119.5" font-family="Helvetica,sans-Serif" font-size="10.00">/home/pjm3/freeradius&#45;server/src/modules/rlm_otp/extern.h</text>
</g>
<!-- Node2 -->
<g id="node3" class="node"><title>Node2</title>
<polygon fill="none" stroke="#bfbfbf" points="123.954,-0.5 123.954,-19.5 241.954,-19.5 241.954,-0.5 123.954,-0.5"/>
<text text-anchor="middle" x="182.954" y="-7.5" font-family="Helvetica,sans-Serif" font-size="10.00">freeradius&#45;devel/ident.h</text>
</g>
<!-- Node1&#45;&gt;Node2 -->
<g id="edge2" class="edge"><title>Node1&#45;&gt;Node2</title>
<path fill="none" stroke="midnightblue" d="M246.213,-113.27C146.057,-106.17 24.9144,-93.9964 8.95356,-76 -25.3005,-37.3774 51.33,-21.6411 113.558,-15.271"/>
<polygon fill="midnightblue" stroke="midnightblue" points="114.174,-18.7281 123.796,-14.2918 113.508,-11.7599 114.174,-18.7281"/>
</g>
<!-- Node3 -->
<g id="node5" class="node"><title>Node3</title>
<polygon fill="none" stroke="#bfbfbf" points="17.9536,-56.5 17.9536,-75.5 151.954,-75.5 151.954,-56.5 17.9536,-56.5"/>
<text text-anchor="middle" x="84.9536" y="-63.5" font-family="Helvetica,sans-Serif" font-size="10.00">freeradius&#45;devel/autoconf.h</text>
</g>
<!-- Node1&#45;&gt;Node3 -->
<g id="edge4" class="edge"><title>Node1&#45;&gt;Node3</title>
<path fill="none" stroke="midnightblue" d="M335.735,-112.444C283.204,-102.925 198.344,-87.5472 142.105,-77.3563"/>
<polygon fill="midnightblue" stroke="midnightblue" points="142.415,-73.8556 131.952,-75.5164 141.167,-80.7435 142.415,-73.8556"/>
</g>
<!-- Node4 -->
<g id="node7" class="node"><title>Node4</title>
<polygon fill="none" stroke="#bfbfbf" points="169.954,-56.5 169.954,-75.5 297.954,-75.5 297.954,-56.5 169.954,-56.5"/>
<text text-anchor="middle" x="233.954" y="-63.5" font-family="Helvetica,sans-Serif" font-size="10.00">freeradius&#45;devel/radiusd.h</text>
</g>
<!-- Node1&#45;&gt;Node4 -->
<g id="edge6" class="edge"><title>Node1&#45;&gt;Node4</title>
<path fill="none" stroke="midnightblue" d="M359.344,-112.444C334.496,-103.438 295.179,-89.1891 267.2,-79.049"/>
<polygon fill="midnightblue" stroke="midnightblue" points="268.047,-75.6332 257.453,-75.5164 265.662,-82.2144 268.047,-75.6332"/>
</g>
<!-- Node5 -->
<g id="node9" class="node"><title>Node5</title>
<polygon fill="none" stroke="#bfbfbf" points="315.954,-56.5 315.954,-75.5 449.954,-75.5 449.954,-56.5 315.954,-56.5"/>
<text text-anchor="middle" x="382.954" y="-63.5" font-family="Helvetica,sans-Serif" font-size="10.00">freeradius&#45;devel/modules.h</text>
</g>
<!-- Node1&#45;&gt;Node5 -->
<g id="edge8" class="edge"><title>Node1&#45;&gt;Node5</title>
<path fill="none" stroke="midnightblue" d="M382.954,-112.083C382.954,-105.006 382.954,-94.8611 382.954,-85.9865"/>
<polygon fill="midnightblue" stroke="midnightblue" points="386.454,-85.751 382.954,-75.7511 379.454,-85.7511 386.454,-85.751"/>
</g>
<!-- Node6 -->
<g id="node11" class="node"><title>Node6</title>
<polygon fill="none" stroke="#bfbfbf" points="513.954,-0.5 513.954,-19.5 581.954,-19.5 581.954,-0.5 513.954,-0.5"/>
<text text-anchor="middle" x="547.954" y="-7.5" font-family="Helvetica,sans-Serif" font-size="10.00">sys/types.h</text>
</g>
<!-- Node1&#45;&gt;Node6 -->
<g id="edge10" class="edge"><title>Node1&#45;&gt;Node6</title>
<path fill="none" stroke="midnightblue" d="M473.688,-112.477C522.215,-105.839 575.01,-94.5408 589.954,-76 602.949,-59.8764 585.07,-39.6056 568.785,-26.0263"/>
<polygon fill="midnightblue" stroke="midnightblue" points="570.613,-23.0123 560.585,-19.5926 566.292,-28.5193 570.613,-23.0123"/>
</g>
<!-- Node7 -->
<g id="node13" class="node"><title>Node7</title>
<polygon fill="none" stroke="#bfbfbf" points="524.454,-56.5 524.454,-75.5 581.454,-75.5 581.454,-56.5 524.454,-56.5"/>
<text text-anchor="middle" x="552.954" y="-63.5" font-family="Helvetica,sans-Serif" font-size="10.00">pthread.h</text>
</g>
<!-- Node1&#45;&gt;Node7 -->
<g id="edge12" class="edge"><title>Node1&#45;&gt;Node7</title>
<path fill="none" stroke="midnightblue" d="M409.891,-112.444C438.614,-103.32 484.282,-88.8133 516.275,-78.6509"/>
<polygon fill="midnightblue" stroke="midnightblue" points="517.671,-81.8797 526.143,-75.5164 515.552,-75.2081 517.671,-81.8797"/>
</g>
<!-- Node8 -->
<g id="node15" class="node"><title>Node8</title>
<a xlink:href="otp_8h.html" target="_top" xlink:title="otp.h">
<polygon fill="none" stroke="black" points="467.954,-56.5 467.954,-75.5 505.954,-75.5 505.954,-56.5 467.954,-56.5"/>
<text text-anchor="middle" x="486.954" y="-63.5" font-family="Helvetica,sans-Serif" font-size="10.00">otp.h</text>
</a>
</g>
<!-- Node1&#45;&gt;Node8 -->
<g id="edge14" class="edge"><title>Node1&#45;&gt;Node8</title>
<path fill="none" stroke="midnightblue" d="M399.663,-112.324C416.265,-103.703 441.956,-90.3643 461.174,-80.3855"/>
<polygon fill="midnightblue" stroke="midnightblue" points="463.024,-83.3689 470.286,-75.6545 459.798,-77.1565 463.024,-83.3689"/>
</g>
<!-- Node8&#45;&gt;Node2 -->
<g id="edge16" class="edge"><title>Node8&#45;&gt;Node2</title>
<path fill="none" stroke="midnightblue" d="M467.781,-58.4209C464.845,-57.5345 461.833,-56.6933 458.954,-56 389.414,-39.2541 308.501,-26.8786 252.339,-19.3895"/>
<polygon fill="midnightblue" stroke="midnightblue" points="252.52,-15.8832 242.148,-18.048 251.606,-22.8233 252.52,-15.8832"/>
</g>
<!-- Node8&#45;&gt;Node6 -->
<g id="edge18" class="edge"><title>Node8&#45;&gt;Node6</title>
<path fill="none" stroke="midnightblue" d="M496.754,-56.324C505.772,-48.3414 519.36,-36.3128 530.272,-26.6529"/>
<polygon fill="midnightblue" stroke="midnightblue" points="532.807,-29.083 537.975,-19.8339 528.167,-23.8416 532.807,-29.083"/>
</g>
</g>
</svg>
        <g id="navigator" transform="translate(0 0)" fill="#404254">
                <rect fill="#f2f5e9" fill-opacity="0.5" stroke="#606060" stroke-width=".5" x="0" y="0" width="60" height="60"/>
                <use id="zoomplus" xlink:href="#zoomPlus" x="17" y="9" onmousedown="handleZoom(evt,'in')"/>
                <use id="zoomminus" xlink:href="#zoomMin" x="42" y="9" onmousedown="handleZoom(evt,'out')"/>
                <use id="reset" xlink:href="#resetDef" x="30" y="36" onmousedown="handleReset()"/>
                <g id="arrowUp" xlink:href="#dirArrow" transform="translate(30 24)" onmousedown="handlePan(0,-1)">
                  <use xlink:href="#rim" fill="#404040">
                        <set attributeName="fill" to="#808080" begin="arrowUp.mouseover" end="arrowUp.mouseout"/>
                  </use>
                  <path fill="none" stroke="white" stroke-width="1.5" d="M0,-3.0v7 M-2.5,-0.5L0,-3.0L2.5,-0.5"/>
                </g>
                <g id="arrowRight" xlink:href="#dirArrow" transform="rotate(90) translate(36 -43)" onmousedown="handlePan(1,0)">
                  <use xlink:href="#rim" fill="#404040">
                        <set attributeName="fill" to="#808080" begin="arrowRight.mouseover" end="arrowRight.mouseout"/>
                  </use>
                  <path fill="none" stroke="white" stroke-width="1.5" d="M0,-3.0v7 M-2.5,-0.5L0,-3.0L2.5,-0.5"/>
                </g>
                <g id="arrowDown" xlink:href="#dirArrow" transform="rotate(180) translate(-30 -48)" onmousedown="handlePan(0,1)">
                  <use xlink:href="#rim" fill="#404040">
                        <set attributeName="fill" to="#808080" begin="arrowDown.mouseover" end="arrowDown.mouseout"/>
                  </use>
                  <path fill="none" stroke="white" stroke-width="1.5" d="M0,-3.0v7 M-2.5,-0.5L0,-3.0L2.5,-0.5"/>
                </g>
                <g id="arrowLeft" xlink:href="#dirArrow" transform="rotate(270) translate(-36 17)" onmousedown="handlePan(-1,0)">
                  <use xlink:href="#rim" fill="#404040">
                        <set attributeName="fill" to="#808080" begin="arrowLeft.mouseover" end="arrowLeft.mouseout"/>
                  </use>
                  <path fill="none" stroke="white" stroke-width="1.5" d="M0,-3.0v7 M-2.5,-0.5L0,-3.0L2.5,-0.5"/>
                </g>
        </g>
</svg>
