<?xml version="1.0" encoding="UTF-8" standalone="no"?>
<!DOCTYPE svg PUBLIC "-//W3C//DTD SVG 1.1//EN"
 "http://www.w3.org/Graphics/SVG/1.1/DTD/svg11.dtd">
<!-- Generated by graphviz version 2.28.0 (20111211.2114)
 -->
<!-- Title: G Pages: 1 -->
<svg width="480pt" height="196pt"
 viewBox="0.00 0.00 480.00 196.00" xmlns="http://www.w3.org/2000/svg" xmlns:xlink="http://www.w3.org/1999/xlink">
<g id="graph1" class="graph" transform="scale(1 1) rotate(0) translate(4 192)">
<title>G</title>
<!-- Node1 -->
<g id="node1" class="node"><title>Node1</title>
<polygon fill="#bfbfbf" stroke="black" points="0,-168.5 0,-187.5 378,-187.5 378,-168.5 0,-168.5"/>
<text text-anchor="middle" x="189" y="-175.5" font-family="Helvetica,sans-Serif" font-size="10.00">/home/pjm3/freeradius&#45;server/src/modules/rlm_eap/types/rlm_eap_ikev2/ike_conf.h</text>
</g>
<!-- Node2 -->
<g id="node3" class="node"><title>Node2</title>
<polygon fill="none" stroke="#bfbfbf" points="81,-112.5 81,-131.5 199,-131.5 199,-112.5 81,-112.5"/>
<text text-anchor="middle" x="140" y="-119.5" font-family="Helvetica,sans-Serif" font-size="10.00">EAPIKEv2/connector.h</text>
</g>
<!-- Node1&#45;&gt;Node2 -->
<g id="edge2" class="edge"><title>Node1&#45;&gt;Node2</title>
<path fill="none" stroke="midnightblue" d="M180.909,-168.083C173.845,-160.298 163.412,-148.801 154.851,-139.367"/>
<polygon fill="midnightblue" stroke="midnightblue" points="157.253,-136.805 147.941,-131.751 152.069,-141.509 157.253,-136.805"/>
</g>
<!-- Node3 -->
<g id="node5" class="node"><title>Node3</title>
<a xlink:href="eap_8h.html" target="_top" xlink:title="eap.h">
<polygon fill="none" stroke="black" points="217.5,-112.5 217.5,-131.5 258.5,-131.5 258.5,-112.5 217.5,-112.5"/>
<text text-anchor="middle" x="238" y="-119.5" font-family="Helvetica,sans-Serif" font-size="10.00">eap.h</text>
</a>
</g>
<!-- Node1&#45;&gt;Node3 -->
<g id="edge4" class="edge"><title>Node1&#45;&gt;Node3</title>
<path fill="none" stroke="midnightblue" d="M197.091,-168.083C204.155,-160.298 214.588,-148.801 223.149,-139.367"/>
<polygon fill="midnightblue" stroke="midnightblue" points="225.931,-141.509 230.059,-131.751 220.747,-136.805 225.931,-141.509"/>
</g>
<!-- Node4 -->
<g id="node7" class="node"><title>Node4</title>
<polygon fill="none" stroke="#bfbfbf" points="7,-0.5 7,-19.5 125,-19.5 125,-0.5 7,-0.5"/>
<text text-anchor="middle" x="66" y="-7.5" font-family="Helvetica,sans-Serif" font-size="10.00">freeradius&#45;devel/ident.h</text>
</g>
<!-- Node3&#45;&gt;Node4 -->
<g id="edge6" class="edge"><title>Node3&#45;&gt;Node4</title>
<path fill="none" stroke="midnightblue" d="M224.503,-112.368C194.988,-93.4924 124.456,-48.385 88.261,-25.2367"/>
<polygon fill="midnightblue" stroke="midnightblue" points="89.7441,-22.0306 79.4339,-19.5914 85.9726,-27.9278 89.7441,-22.0306"/>
</g>
<!-- Node5 -->
<g id="node9" class="node"><title>Node5</title>
<polygon fill="none" stroke="#bfbfbf" points="143,-0.5 143,-19.5 271,-19.5 271,-0.5 143,-0.5"/>
<text text-anchor="middle" x="207" y="-7.5" font-family="Helvetica,sans-Serif" font-size="10.00">freeradius&#45;devel/radiusd.h</text>
</g>
<!-- Node3&#45;&gt;Node5 -->
<g id="edge8" class="edge"><title>Node3&#45;&gt;Node5</title>
<path fill="none" stroke="midnightblue" d="M225.219,-112.369C214.606,-104.36 200.269,-91.3795 194,-76 187.83,-60.8641 192.508,-42.5154 197.896,-29.1779"/>
<polygon fill="midnightblue" stroke="midnightblue" points="201.245,-30.2668 202.176,-19.713 194.866,-27.3828 201.245,-30.2668"/>
</g>
<!-- Node6 -->
<g id="node11" class="node"><title>Node6</title>
<polygon fill="none" stroke="#bfbfbf" points="289,-0.5 289,-19.5 423,-19.5 423,-0.5 289,-0.5"/>
<text text-anchor="middle" x="356" y="-7.5" font-family="Helvetica,sans-Serif" font-size="10.00">freeradius&#45;devel/modules.h</text>
</g>
<!-- Node3&#45;&gt;Node6 -->
<g id="edge10" class="edge"><title>Node3&#45;&gt;Node6</title>
<path fill="none" stroke="midnightblue" d="M247.259,-112.368C267.163,-93.8137 314.257,-49.9129 339.44,-26.4376"/>
<polygon fill="midnightblue" stroke="midnightblue" points="341.856,-28.9704 346.784,-19.5914 337.082,-23.8501 341.856,-28.9704"/>
</g>
<!-- Node7 -->
<g id="node13" class="node"><title>Node7</title>
<polygon fill="none" stroke="#bfbfbf" points="329.5,-56.5 329.5,-75.5 472.5,-75.5 472.5,-56.5 329.5,-56.5"/>
<text text-anchor="middle" x="401" y="-63.5" font-family="Helvetica,sans-Serif" font-size="10.00">freeradius&#45;devel/rad_assert.h</text>
</g>
<!-- Node3&#45;&gt;Node7 -->
<g id="edge12" class="edge"><title>Node3&#45;&gt;Node7</title>
<path fill="none" stroke="midnightblue" d="M258.644,-114.161C285.506,-105.262 332.859,-89.5744 365.529,-78.751"/>
<polygon fill="midnightblue" stroke="midnightblue" points="366.766,-82.0284 375.158,-75.5611 364.565,-75.3836 366.766,-82.0284"/>
</g>
<!-- Node8 -->
<g id="node15" class="node"><title>Node8</title>
<a xlink:href="eap__types_8h.html" target="_top" xlink:title="eap_types.h">
<polygon fill="none" stroke="black" points="203,-56.5 203,-75.5 273,-75.5 273,-56.5 203,-56.5"/>
<text text-anchor="middle" x="238" y="-63.5" font-family="Helvetica,sans-Serif" font-size="10.00">eap_types.h</text>
</a>
</g>
<!-- Node3&#45;&gt;Node8 -->
<g id="edge14" class="edge"><title>Node3&#45;&gt;Node8</title>
<path fill="none" stroke="midnightblue" d="M238,-112.083C238,-105.006 238,-94.8611 238,-85.9865"/>
<polygon fill="midnightblue" stroke="midnightblue" points="241.5,-85.751 238,-75.7511 234.5,-85.7511 241.5,-85.751"/>
</g>
<!-- Node8&#45;&gt;Node4 -->
<g id="edge16" class="edge"><title>Node8&#45;&gt;Node4</title>
<path fill="none" stroke="midnightblue" d="M210.746,-56.4435C181.559,-47.2801 135.079,-32.6876 102.691,-22.5192"/>
<polygon fill="midnightblue" stroke="midnightblue" points="103.716,-19.1726 93.1264,-19.5164 101.619,-25.8512 103.716,-19.1726"/>
</g>
<!-- Node8&#45;&gt;Node5 -->
<g id="edge18" class="edge"><title>Node8&#45;&gt;Node5</title>
<path fill="none" stroke="midnightblue" d="M232.881,-56.083C228.592,-48.6127 222.342,-37.7244 217.058,-28.5199"/>
<polygon fill="midnightblue" stroke="midnightblue" points="220.038,-26.6811 212.024,-19.7511 213.967,-30.1662 220.038,-26.6811"/>
</g>
<!-- Node8&#45;&gt;Node6 -->
<g id="edge20" class="edge"><title>Node8&#45;&gt;Node6</title>
<path fill="none" stroke="midnightblue" d="M256.697,-56.4435C275.944,-47.6356 306.152,-33.8116 328.2,-23.722"/>
<polygon fill="midnightblue" stroke="midnightblue" points="329.753,-26.8603 337.39,-19.5164 326.84,-20.4951 329.753,-26.8603"/>
</g>
</g>
</svg>
