<?xml version="1.0" encoding="UTF-8" standalone="no"?>
<!DOCTYPE svg PUBLIC "-//W3C//DTD SVG 1.1//EN"
 "http://www.w3.org/Graphics/SVG/1.1/DTD/svg11.dtd">
<!-- Generated by graphviz version 2.28.0 (20111211.2114)
 -->
<!-- Title: G Pages: 1 -->
<!--zoomable-->
<svg id="main" version="1.1" xmlns="http://www.w3.org/2000/svg" xmlns:xlink="http://www.w3.org/1999/xlink" xml:space="preserve" onload="init(evt)">
        <defs>
                <circle id="rim" cx="0" cy="0" r="7"/>
                <circle id="rim2" cx="0" cy="0" r="3.5"/>
                <g id="zoomPlus">
                        <use xlink:href="#rim" fill="#404040">
                                <set attributeName="fill" to="#808080" begin="zoomplus.mouseover" end="zoomplus.mouseout"/>
                        </use>
                        <path d="M-4,0h8M0,-4v8" fill="none" stroke="white" stroke-width="1.5" pointer-events="none"/>
                </g>
                <g id="zoomMin">
                        <use xlink:href="#rim" fill="#404040">
                                <set attributeName="fill" to="#808080" begin="zoomminus.mouseover" end="zoomminus.mouseout"/>
                        </use>
                        <path d="M-4,0h8" fill="none" stroke="white" stroke-width="1.5" pointer-events="none"/>
                </g>
                <g id="dirArrow">
                        <path fill="none" stroke="white" stroke-width="1.5" d="M0,-3.0v7 M-2.5,-0.5L0,-3.0L2.5,-0.5"/>
                </g>
               <g id="resetDef">
                       <use xlink:href="#rim2" fill="#404040">
                               <set attributeName="fill" to="#808080" begin="reset.mouseover" end="reset.mouseout"/>
                       </use>
               </g>
        </defs>

<script type="text/javascript">
var viewWidth = 600;
var viewHeight = 252;
var sectionId = 'dynsection-0';
</script>
<script xlink:href="svgpan.js"/>
<svg id="graph" class="graph">
<g id="viewport">
<title>G</title>
<!-- Node1 -->
<g id="node1" class="node"><title>Node1</title>
<polygon fill="#bfbfbf" stroke="black" points="214,-224.5 214,-243.5 592,-243.5 592,-224.5 214,-224.5"/>
<text text-anchor="middle" x="403" y="-231.5" font-family="Helvetica,sans-Serif" font-size="10.00">/home/pjm3/freeradius&#45;server/src/modules/rlm_eap/types/rlm_eap_ikev2/ike_conf.c</text>
</g>
<!-- Node2 -->
<g id="node3" class="node"><title>Node2</title>
<polygon fill="none" stroke="#bfbfbf" points="288,-0.5 288,-19.5 416,-19.5 416,-0.5 288,-0.5"/>
<text text-anchor="middle" x="352" y="-7.5" font-family="Helvetica,sans-Serif" font-size="10.00">freeradius&#45;devel/radiusd.h</text>
</g>
<!-- Node1&#45;&gt;Node2 -->
<g id="edge2" class="edge"><title>Node1&#45;&gt;Node2</title>
<path fill="none" stroke="midnightblue" d="M407.945,-224.172C422.435,-197.017 461.772,-113.11 429,-56 420.385,-40.9862 404.609,-30.5036 389.57,-23.4579"/>
<polygon fill="midnightblue" stroke="midnightblue" points="390.942,-20.2378 380.372,-19.5053 388.178,-26.6691 390.942,-20.2378"/>
</g>
<!-- Node3 -->
<g id="node5" class="node"><title>Node3</title>
<polygon fill="none" stroke="#bfbfbf" points="277.5,-56.5 277.5,-75.5 420.5,-75.5 420.5,-56.5 277.5,-56.5"/>
<text text-anchor="middle" x="349" y="-63.5" font-family="Helvetica,sans-Serif" font-size="10.00">freeradius&#45;devel/rad_assert.h</text>
</g>
<!-- Node1&#45;&gt;Node3 -->
<g id="edge4" class="edge"><title>Node1&#45;&gt;Node3</title>
<path fill="none" stroke="midnightblue" d="M403.098,-224.382C403.026,-203.968 401.059,-151.421 384,-112 379.449,-101.483 371.855,-91.2745 364.902,-83.2465"/>
<polygon fill="midnightblue" stroke="midnightblue" points="367.375,-80.7641 358.042,-75.7484 362.21,-85.4891 367.375,-80.7641"/>
</g>
<!-- Node4 -->
<g id="node7" class="node"><title>Node4</title>
<a xlink:href="ike__conf_8h.html" target="_top" xlink:title="ike_conf.h">
<polygon fill="none" stroke="black" points="285,-168.5 285,-187.5 347,-187.5 347,-168.5 285,-168.5"/>
<text text-anchor="middle" x="316" y="-175.5" font-family="Helvetica,sans-Serif" font-size="10.00">ike_conf.h</text>
</a>
</g>
<!-- Node1&#45;&gt;Node4 -->
<g id="edge6" class="edge"><title>Node1&#45;&gt;Node4</title>
<path fill="none" stroke="midnightblue" d="M389.022,-224.324C375.45,-215.9 354.62,-202.971 338.675,-193.074"/>
<polygon fill="midnightblue" stroke="midnightblue" points="340.286,-189.954 329.943,-187.655 336.594,-195.902 340.286,-189.954"/>
</g>
<!-- Node6 -->
<g id="node11" class="node"><title>Node6</title>
<a xlink:href="eap_8h.html" target="_top" xlink:title="eap.h">
<polygon fill="none" stroke="black" points="197.5,-112.5 197.5,-131.5 238.5,-131.5 238.5,-112.5 197.5,-112.5"/>
<text text-anchor="middle" x="218" y="-119.5" font-family="Helvetica,sans-Serif" font-size="10.00">eap.h</text>
</a>
</g>
<!-- Node1&#45;&gt;Node6 -->
<g id="edge28" class="edge"><title>Node1&#45;&gt;Node6</title>
<path fill="none" stroke="midnightblue" d="M363.432,-224.451C337.105,-217.498 302.604,-205.867 276,-188 257.049,-175.273 240.283,-154.958 229.713,-140.427"/>
<polygon fill="midnightblue" stroke="midnightblue" points="232.307,-138.03 223.701,-131.851 226.575,-142.048 232.307,-138.03"/>
</g>
<!-- Node10 -->
<g id="node25" class="node"><title>Node10</title>
<a xlink:href="logging__impl_8h.html" target="_top" xlink:title="logging_impl.h">
<polygon fill="none" stroke="black" points="477.5,-168.5 477.5,-187.5 556.5,-187.5 556.5,-168.5 477.5,-168.5"/>
<text text-anchor="middle" x="517" y="-175.5" font-family="Helvetica,sans-Serif" font-size="10.00">logging_impl.h</text>
</a>
</g>
<!-- Node1&#45;&gt;Node10 -->
<g id="edge30" class="edge"><title>Node1&#45;&gt;Node10</title>
<path fill="none" stroke="midnightblue" d="M421.064,-224.444C439.575,-215.675 468.581,-201.935 489.855,-191.858"/>
<polygon fill="midnightblue" stroke="midnightblue" points="491.482,-194.96 499.021,-187.516 488.485,-188.634 491.482,-194.96"/>
</g>
<!-- Node5 -->
<g id="node9" class="node"><title>Node5</title>
<polygon fill="none" stroke="#bfbfbf" points="257,-112.5 257,-131.5 375,-131.5 375,-112.5 257,-112.5"/>
<text text-anchor="middle" x="316" y="-119.5" font-family="Helvetica,sans-Serif" font-size="10.00">EAPIKEv2/connector.h</text>
</g>
<!-- Node4&#45;&gt;Node5 -->
<g id="edge8" class="edge"><title>Node4&#45;&gt;Node5</title>
<path fill="none" stroke="midnightblue" d="M316,-168.083C316,-161.006 316,-150.861 316,-141.986"/>
<polygon fill="midnightblue" stroke="midnightblue" points="319.5,-141.751 316,-131.751 312.5,-141.751 319.5,-141.751"/>
</g>
<!-- Node4&#45;&gt;Node6 -->
<g id="edge10" class="edge"><title>Node4&#45;&gt;Node6</title>
<path fill="none" stroke="midnightblue" d="M300.255,-168.324C284.681,-159.743 260.623,-146.486 242.541,-136.522"/>
<polygon fill="midnightblue" stroke="midnightblue" points="244.154,-133.415 233.706,-131.655 240.776,-139.546 244.154,-133.415"/>
</g>
<!-- Node6&#45;&gt;Node2 -->
<g id="edge14" class="edge"><title>Node6&#45;&gt;Node2</title>
<path fill="none" stroke="midnightblue" d="M222.9,-112.489C230.932,-99.1108 248.022,-72.9453 268,-56 283.715,-42.6705 304.022,-31.6592 320.734,-23.8657"/>
<polygon fill="midnightblue" stroke="midnightblue" points="322.411,-26.9492 330.096,-19.6556 319.54,-20.565 322.411,-26.9492"/>
</g>
<!-- Node6&#45;&gt;Node3 -->
<g id="edge18" class="edge"><title>Node6&#45;&gt;Node3</title>
<path fill="none" stroke="midnightblue" d="M238.757,-112.444C260.316,-103.557 294.263,-89.5632 318.794,-79.4514"/>
<polygon fill="midnightblue" stroke="midnightblue" points="320.428,-82.5634 328.34,-75.5164 317.761,-76.0917 320.428,-82.5634"/>
</g>
<!-- Node7 -->
<g id="node13" class="node"><title>Node7</title>
<polygon fill="none" stroke="#bfbfbf" points="152,-0.5 152,-19.5 270,-19.5 270,-0.5 152,-0.5"/>
<text text-anchor="middle" x="211" y="-7.5" font-family="Helvetica,sans-Serif" font-size="10.00">freeradius&#45;devel/ident.h</text>
</g>
<!-- Node6&#45;&gt;Node7 -->
<g id="edge12" class="edge"><title>Node6&#45;&gt;Node7</title>
<path fill="none" stroke="midnightblue" d="M217.451,-112.368C216.321,-94.617 213.715,-53.6664 212.183,-29.5974"/>
<polygon fill="midnightblue" stroke="midnightblue" points="215.675,-29.3489 211.547,-19.5914 208.689,-29.7935 215.675,-29.3489"/>
</g>
<!-- Node8 -->
<g id="node16" class="node"><title>Node8</title>
<polygon fill="none" stroke="#bfbfbf" points="0,-0.5 0,-19.5 134,-19.5 134,-0.5 0,-0.5"/>
<text text-anchor="middle" x="67" y="-7.5" font-family="Helvetica,sans-Serif" font-size="10.00">freeradius&#45;devel/modules.h</text>
</g>
<!-- Node6&#45;&gt;Node8 -->
<g id="edge16" class="edge"><title>Node6&#45;&gt;Node8</title>
<path fill="none" stroke="midnightblue" d="M197.298,-117.202C172.629,-111.771 131.322,-99.7052 104,-76 89.4781,-63.4006 79.3774,-43.6322 73.4414,-29.2021"/>
<polygon fill="midnightblue" stroke="midnightblue" points="76.6932,-27.9066 69.8514,-19.817 70.1552,-30.4075 76.6932,-27.9066"/>
</g>
<!-- Node9 -->
<g id="node19" class="node"><title>Node9</title>
<a xlink:href="eap__types_8h.html" target="_top" xlink:title="eap_types.h">
<polygon fill="none" stroke="black" points="113,-56.5 113,-75.5 183,-75.5 183,-56.5 113,-56.5"/>
<text text-anchor="middle" x="148" y="-63.5" font-family="Helvetica,sans-Serif" font-size="10.00">eap_types.h</text>
</a>
</g>
<!-- Node6&#45;&gt;Node9 -->
<g id="edge20" class="edge"><title>Node6&#45;&gt;Node9</title>
<path fill="none" stroke="midnightblue" d="M206.753,-112.324C196.203,-104.185 180.199,-91.8395 167.558,-82.0874"/>
<polygon fill="midnightblue" stroke="midnightblue" points="169.507,-79.1707 159.451,-75.8339 165.231,-84.7132 169.507,-79.1707"/>
</g>
<!-- Node9&#45;&gt;Node2 -->
<g id="edge24" class="edge"><title>Node9&#45;&gt;Node2</title>
<path fill="none" stroke="midnightblue" d="M180.324,-56.4435C215.389,-47.1616 271.498,-32.3093 309.965,-22.127"/>
<polygon fill="midnightblue" stroke="midnightblue" points="311.055,-25.4589 319.827,-19.5164 309.264,-18.692 311.055,-25.4589"/>
</g>
<!-- Node9&#45;&gt;Node7 -->
<g id="edge22" class="edge"><title>Node9&#45;&gt;Node7</title>
<path fill="none" stroke="midnightblue" d="M158.122,-56.324C167.526,-48.2631 181.744,-36.0765 193.069,-26.3695"/>
<polygon fill="midnightblue" stroke="midnightblue" points="195.379,-28.9993 200.694,-19.8339 190.823,-23.6844 195.379,-28.9993"/>
</g>
<!-- Node9&#45;&gt;Node8 -->
<g id="edge26" class="edge"><title>Node9&#45;&gt;Node8</title>
<path fill="none" stroke="midnightblue" d="M134.986,-56.324C122.468,-47.979 103.318,-35.2122 88.5286,-25.3524"/>
<polygon fill="midnightblue" stroke="midnightblue" points="90.2437,-22.2894 79.9818,-19.6545 86.3608,-28.1137 90.2437,-22.2894"/>
</g>
<!-- Node11 -->
<g id="node27" class="node"><title>Node11</title>
<polygon fill="none" stroke="#bfbfbf" points="491,-112.5 491,-131.5 543,-131.5 543,-112.5 491,-112.5"/>
<text text-anchor="middle" x="517" y="-119.5" font-family="Helvetica,sans-Serif" font-size="10.00">stdarg.h</text>
</g>
<!-- Node10&#45;&gt;Node11 -->
<g id="edge32" class="edge"><title>Node10&#45;&gt;Node11</title>
<path fill="none" stroke="midnightblue" d="M517,-168.083C517,-161.006 517,-150.861 517,-141.986"/>
<polygon fill="midnightblue" stroke="midnightblue" points="520.5,-141.751 517,-131.751 513.5,-141.751 520.5,-141.751"/>
</g>
</g>
</svg>
        <g id="navigator" transform="translate(0 0)" fill="#404254">
                <rect fill="#f2f5e9" fill-opacity="0.5" stroke="#606060" stroke-width=".5" x="0" y="0" width="60" height="60"/>
                <use id="zoomplus" xlink:href="#zoomPlus" x="17" y="9" onmousedown="handleZoom(evt,'in')"/>
                <use id="zoomminus" xlink:href="#zoomMin" x="42" y="9" onmousedown="handleZoom(evt,'out')"/>
                <use id="reset" xlink:href="#resetDef" x="30" y="36" onmousedown="handleReset()"/>
                <g id="arrowUp" xlink:href="#dirArrow" transform="translate(30 24)" onmousedown="handlePan(0,-1)">
                  <use xlink:href="#rim" fill="#404040">
                        <set attributeName="fill" to="#808080" begin="arrowUp.mouseover" end="arrowUp.mouseout"/>
                  </use>
                  <path fill="none" stroke="white" stroke-width="1.5" d="M0,-3.0v7 M-2.5,-0.5L0,-3.0L2.5,-0.5"/>
                </g>
                <g id="arrowRight" xlink:href="#dirArrow" transform="rotate(90) translate(36 -43)" onmousedown="handlePan(1,0)">
                  <use xlink:href="#rim" fill="#404040">
                        <set attributeName="fill" to="#808080" begin="arrowRight.mouseover" end="arrowRight.mouseout"/>
                  </use>
                  <path fill="none" stroke="white" stroke-width="1.5" d="M0,-3.0v7 M-2.5,-0.5L0,-3.0L2.5,-0.5"/>
                </g>
                <g id="arrowDown" xlink:href="#dirArrow" transform="rotate(180) translate(-30 -48)" onmousedown="handlePan(0,1)">
                  <use xlink:href="#rim" fill="#404040">
                        <set attributeName="fill" to="#808080" begin="arrowDown.mouseover" end="arrowDown.mouseout"/>
                  </use>
                  <path fill="none" stroke="white" stroke-width="1.5" d="M0,-3.0v7 M-2.5,-0.5L0,-3.0L2.5,-0.5"/>
                </g>
                <g id="arrowLeft" xlink:href="#dirArrow" transform="rotate(270) translate(-36 17)" onmousedown="handlePan(-1,0)">
                  <use xlink:href="#rim" fill="#404040">
                        <set attributeName="fill" to="#808080" begin="arrowLeft.mouseover" end="arrowLeft.mouseout"/>
                  </use>
                  <path fill="none" stroke="white" stroke-width="1.5" d="M0,-3.0v7 M-2.5,-0.5L0,-3.0L2.5,-0.5"/>
                </g>
        </g>
</svg>
