<?xml version="1.0" encoding="UTF-8" standalone="no"?>
<!DOCTYPE svg PUBLIC "-//W3C//DTD SVG 1.1//EN"
 "http://www.w3.org/Graphics/SVG/1.1/DTD/svg11.dtd">
<!-- Generated by graphviz version 2.28.0 (20111211.2114)
 -->
<!-- Title: G Pages: 1 -->
<!--zoomable-->
<svg id="main" version="1.1" xmlns="http://www.w3.org/2000/svg" xmlns:xlink="http://www.w3.org/1999/xlink" xml:space="preserve" onload="init(evt)">
        <defs>
                <circle id="rim" cx="0" cy="0" r="7"/>
                <circle id="rim2" cx="0" cy="0" r="3.5"/>
                <g id="zoomPlus">
                        <use xlink:href="#rim" fill="#404040">
                                <set attributeName="fill" to="#808080" begin="zoomplus.mouseover" end="zoomplus.mouseout"/>
                        </use>
                        <path d="M-4,0h8M0,-4v8" fill="none" stroke="white" stroke-width="1.5" pointer-events="none"/>
                </g>
                <g id="zoomMin">
                        <use xlink:href="#rim" fill="#404040">
                                <set attributeName="fill" to="#808080" begin="zoomminus.mouseover" end="zoomminus.mouseout"/>
                        </use>
                        <path d="M-4,0h8" fill="none" stroke="white" stroke-width="1.5" pointer-events="none"/>
                </g>
                <g id="dirArrow">
                        <path fill="none" stroke="white" stroke-width="1.5" d="M0,-3.0v7 M-2.5,-0.5L0,-3.0L2.5,-0.5"/>
                </g>
               <g id="resetDef">
                       <use xlink:href="#rim2" fill="#404040">
                               <set attributeName="fill" to="#808080" begin="reset.mouseover" end="reset.mouseout"/>
                       </use>
               </g>
        </defs>

<script type="text/javascript">
var viewWidth = 1435;
var viewHeight = 84;
var sectionId = 'dynsection-0';
</script>
<script xlink:href="svgpan.js"/>
<svg id="graph" class="graph">
<g id="viewport">
<title>G</title>
<!-- Node1 -->
<g id="node1" class="node"><title>Node1</title>
<polygon fill="#bfbfbf" stroke="black" points="677,-56.5 677,-75.5 895,-75.5 895,-56.5 677,-56.5"/>
<text text-anchor="middle" x="786" y="-63.5" font-family="Helvetica,sans-Serif" font-size="10.00">/home/pjm3/freeradius&#45;server/src/main/listen.c</text>
</g>
<!-- Node2 -->
<g id="node3" class="node"><title>Node2</title>
<polygon fill="none" stroke="#bfbfbf" points="0,-0.5 0,-19.5 118,-19.5 118,-0.5 0,-0.5"/>
<text text-anchor="middle" x="59" y="-7.5" font-family="Helvetica,sans-Serif" font-size="10.00">freeradius&#45;devel/ident.h</text>
</g>
<!-- Node1&#45;&gt;Node2 -->
<g id="edge2" class="edge"><title>Node1&#45;&gt;Node2</title>
<path fill="none" stroke="midnightblue" d="M676.795,-59.6673C548.105,-52.9006 327.593,-39.7983 128.383,-20.0797"/>
<polygon fill="midnightblue" stroke="midnightblue" points="128.61,-16.5851 118.312,-19.0753 127.916,-23.5505 128.61,-16.5851"/>
</g>
<!-- Node3 -->
<g id="node5" class="node"><title>Node3</title>
<polygon fill="none" stroke="#bfbfbf" points="136,-0.5 136,-19.5 264,-19.5 264,-0.5 136,-0.5"/>
<text text-anchor="middle" x="200" y="-7.5" font-family="Helvetica,sans-Serif" font-size="10.00">freeradius&#45;devel/radiusd.h</text>
</g>
<!-- Node1&#45;&gt;Node3 -->
<g id="edge4" class="edge"><title>Node1&#45;&gt;Node3</title>
<path fill="none" stroke="midnightblue" d="M676.812,-56.5415C575.218,-48.4124 419.338,-35.2819 274.075,-20.0806"/>
<polygon fill="midnightblue" stroke="midnightblue" points="274.391,-16.5946 264.08,-19.0295 273.659,-23.5562 274.391,-16.5946"/>
</g>
<!-- Node4 -->
<g id="node7" class="node"><title>Node4</title>
<polygon fill="none" stroke="#bfbfbf" points="282,-0.5 282,-19.5 416,-19.5 416,-0.5 282,-0.5"/>
<text text-anchor="middle" x="349" y="-7.5" font-family="Helvetica,sans-Serif" font-size="10.00">freeradius&#45;devel/modules.h</text>
</g>
<!-- Node1&#45;&gt;Node4 -->
<g id="edge6" class="edge"><title>Node1&#45;&gt;Node4</title>
<path fill="none" stroke="midnightblue" d="M716.756,-56.4435C637.628,-46.6656 508.474,-30.7061 426.173,-20.5363"/>
<polygon fill="midnightblue" stroke="midnightblue" points="426.481,-17.0477 416.127,-19.2948 425.622,-23.9949 426.481,-17.0477"/>
</g>
<!-- Node5 -->
<g id="node9" class="node"><title>Node5</title>
<polygon fill="none" stroke="#bfbfbf" points="434.5,-0.5 434.5,-19.5 577.5,-19.5 577.5,-0.5 434.5,-0.5"/>
<text text-anchor="middle" x="506" y="-7.5" font-family="Helvetica,sans-Serif" font-size="10.00">freeradius&#45;devel/rad_assert.h</text>
</g>
<!-- Node1&#45;&gt;Node5 -->
<g id="edge8" class="edge"><title>Node1&#45;&gt;Node5</title>
<path fill="none" stroke="midnightblue" d="M741.633,-56.4435C692.378,-46.9444 612.872,-31.611 560.029,-21.4198"/>
<polygon fill="midnightblue" stroke="midnightblue" points="560.641,-17.9735 550.159,-19.5164 559.316,-24.8469 560.641,-17.9735"/>
</g>
<!-- Node6 -->
<g id="node11" class="node"><title>Node6</title>
<polygon fill="none" stroke="#bfbfbf" points="595.5,-0.5 595.5,-19.5 708.5,-19.5 708.5,-0.5 595.5,-0.5"/>
<text text-anchor="middle" x="652" y="-7.5" font-family="Helvetica,sans-Serif" font-size="10.00">freeradius&#45;devel/vqp.h</text>
</g>
<!-- Node1&#45;&gt;Node6 -->
<g id="edge10" class="edge"><title>Node1&#45;&gt;Node6</title>
<path fill="none" stroke="midnightblue" d="M764.767,-56.4435C742.616,-47.5171 707.681,-33.4387 682.564,-23.3168"/>
<polygon fill="midnightblue" stroke="midnightblue" points="683.717,-20.0079 673.133,-19.5164 681.1,-26.5006 683.717,-20.0079"/>
</g>
<!-- Node7 -->
<g id="node13" class="node"><title>Node7</title>
<polygon fill="none" stroke="#bfbfbf" points="727,-0.5 727,-19.5 845,-19.5 845,-0.5 727,-0.5"/>
<text text-anchor="middle" x="786" y="-7.5" font-family="Helvetica,sans-Serif" font-size="10.00">freeradius&#45;devel/dhcp.h</text>
</g>
<!-- Node1&#45;&gt;Node7 -->
<g id="edge12" class="edge"><title>Node1&#45;&gt;Node7</title>
<path fill="none" stroke="midnightblue" d="M786,-56.083C786,-49.0059 786,-38.8611 786,-29.9865"/>
<polygon fill="midnightblue" stroke="midnightblue" points="789.5,-29.751 786,-19.7511 782.5,-29.7511 789.5,-29.751"/>
</g>
<!-- Node8 -->
<g id="node15" class="node"><title>Node8</title>
<polygon fill="none" stroke="#bfbfbf" points="863.5,-0.5 863.5,-19.5 994.5,-19.5 994.5,-0.5 863.5,-0.5"/>
<text text-anchor="middle" x="929" y="-7.5" font-family="Helvetica,sans-Serif" font-size="10.00">freeradius&#45;devel/process.h</text>
</g>
<!-- Node1&#45;&gt;Node8 -->
<g id="edge14" class="edge"><title>Node1&#45;&gt;Node8</title>
<path fill="none" stroke="midnightblue" d="M808.659,-56.4435C832.402,-47.4776 869.909,-33.314 896.738,-23.1827"/>
<polygon fill="midnightblue" stroke="midnightblue" points="898.329,-26.3235 906.447,-19.5164 895.856,-19.7749 898.329,-26.3235"/>
</g>
<!-- Node9 -->
<g id="node17" class="node"><title>Node9</title>
<polygon fill="none" stroke="#bfbfbf" points="1012.5,-0.5 1012.5,-19.5 1133.5,-19.5 1133.5,-0.5 1012.5,-0.5"/>
<text text-anchor="middle" x="1073" y="-7.5" font-family="Helvetica,sans-Serif" font-size="10.00">freeradius&#45;devel/vmps.h</text>
</g>
<!-- Node1&#45;&gt;Node9 -->
<g id="edge16" class="edge"><title>Node1&#45;&gt;Node9</title>
<path fill="none" stroke="midnightblue" d="M831.476,-56.4435C881.962,-46.9444 963.456,-31.611 1017.62,-21.4198"/>
<polygon fill="midnightblue" stroke="midnightblue" points="1018.56,-24.8052 1027.74,-19.5164 1017.26,-17.9259 1018.56,-24.8052"/>
</g>
<!-- Node10 -->
<g id="node19" class="node"><title>Node10</title>
<polygon fill="none" stroke="#bfbfbf" points="1152,-0.5 1152,-19.5 1272,-19.5 1272,-0.5 1152,-0.5"/>
<text text-anchor="middle" x="1212" y="-7.5" font-family="Helvetica,sans-Serif" font-size="10.00">freeradius&#45;devel/detail.h</text>
</g>
<!-- Node1&#45;&gt;Node10 -->
<g id="edge18" class="edge"><title>Node1&#45;&gt;Node10</title>
<path fill="none" stroke="midnightblue" d="M853.591,-56.4998C923.036,-47.7564 1034.57,-33.6861 1141.66,-20.0412"/>
<polygon fill="midnightblue" stroke="midnightblue" points="1142.19,-23.5012 1151.67,-18.7647 1141.31,-16.5573 1142.19,-23.5012"/>
</g>
<!-- Node11 -->
<g id="node21" class="node"><title>Node11</title>
<a xlink:href="dhcpd_8c.html" target="_top" xlink:title="dhcpd.c">
<polygon fill="none" stroke="black" points="1289.5,-0.5 1289.5,-19.5 1340.5,-19.5 1340.5,-0.5 1289.5,-0.5"/>
<text text-anchor="middle" x="1315" y="-7.5" font-family="Helvetica,sans-Serif" font-size="10.00">dhcpd.c</text>
</a>
</g>
<!-- Node1&#45;&gt;Node11 -->
<g id="edge20" class="edge"><title>Node1&#45;&gt;Node11</title>
<path fill="none" stroke="midnightblue" d="M895.073,-60.1093C993.255,-54.5435 1141.53,-43.2581 1279.57,-19.7773"/>
<polygon fill="midnightblue" stroke="midnightblue" points="1280.23,-23.2151 1289.49,-18.0656 1279.04,-16.3171 1280.23,-23.2151"/>
</g>
<!-- Node12 -->
<g id="node23" class="node"><title>Node12</title>
<a xlink:href="command_8c.html" target="_top" xlink:title="command.c">
<polygon fill="none" stroke="black" points="1359,-0.5 1359,-19.5 1427,-19.5 1427,-0.5 1359,-0.5"/>
<text text-anchor="middle" x="1393" y="-7.5" font-family="Helvetica,sans-Serif" font-size="10.00">command.c</text>
</a>
</g>
<!-- Node1&#45;&gt;Node12 -->
<g id="edge22" class="edge"><title>Node1&#45;&gt;Node12</title>
<path fill="none" stroke="midnightblue" d="M895.153,-60.2273C1008.9,-54.3305 1192.09,-42.2343 1349,-20 1349.1,-19.9856 1349.2,-19.9712 1349.3,-19.9567"/>
<polygon fill="midnightblue" stroke="midnightblue" points="1349.65,-23.4462 1358.96,-18.3896 1348.53,-16.5366 1349.65,-23.4462"/>
</g>
</g>
</svg>
        <g id="navigator" transform="translate(0 0)" fill="#404254">
                <rect fill="#f2f5e9" fill-opacity="0.5" stroke="#606060" stroke-width=".5" x="0" y="0" width="60" height="60"/>
                <use id="zoomplus" xlink:href="#zoomPlus" x="17" y="9" onmousedown="handleZoom(evt,'in')"/>
                <use id="zoomminus" xlink:href="#zoomMin" x="42" y="9" onmousedown="handleZoom(evt,'out')"/>
                <use id="reset" xlink:href="#resetDef" x="30" y="36" onmousedown="handleReset()"/>
                <g id="arrowUp" xlink:href="#dirArrow" transform="translate(30 24)" onmousedown="handlePan(0,-1)">
                  <use xlink:href="#rim" fill="#404040">
                        <set attributeName="fill" to="#808080" begin="arrowUp.mouseover" end="arrowUp.mouseout"/>
                  </use>
                  <path fill="none" stroke="white" stroke-width="1.5" d="M0,-3.0v7 M-2.5,-0.5L0,-3.0L2.5,-0.5"/>
                </g>
                <g id="arrowRight" xlink:href="#dirArrow" transform="rotate(90) translate(36 -43)" onmousedown="handlePan(1,0)">
                  <use xlink:href="#rim" fill="#404040">
                        <set attributeName="fill" to="#808080" begin="arrowRight.mouseover" end="arrowRight.mouseout"/>
                  </use>
                  <path fill="none" stroke="white" stroke-width="1.5" d="M0,-3.0v7 M-2.5,-0.5L0,-3.0L2.5,-0.5"/>
                </g>
                <g id="arrowDown" xlink:href="#dirArrow" transform="rotate(180) translate(-30 -48)" onmousedown="handlePan(0,1)">
                  <use xlink:href="#rim" fill="#404040">
                        <set attributeName="fill" to="#808080" begin="arrowDown.mouseover" end="arrowDown.mouseout"/>
                  </use>
                  <path fill="none" stroke="white" stroke-width="1.5" d="M0,-3.0v7 M-2.5,-0.5L0,-3.0L2.5,-0.5"/>
                </g>
                <g id="arrowLeft" xlink:href="#dirArrow" transform="rotate(270) translate(-36 17)" onmousedown="handlePan(-1,0)">
                  <use xlink:href="#rim" fill="#404040">
                        <set attributeName="fill" to="#808080" begin="arrowLeft.mouseover" end="arrowLeft.mouseout"/>
                  </use>
                  <path fill="none" stroke="white" stroke-width="1.5" d="M0,-3.0v7 M-2.5,-0.5L0,-3.0L2.5,-0.5"/>
                </g>
        </g>
</svg>
