<?xml version="1.0" encoding="UTF-8" standalone="no"?>
<!DOCTYPE svg PUBLIC "-//W3C//DTD SVG 1.1//EN"
 "http://www.w3.org/Graphics/SVG/1.1/DTD/svg11.dtd">
<!-- Generated by graphviz version 2.28.0 (20111211.2114)
 -->
<!-- Title: G Pages: 1 -->
<!--zoomable-->
<svg id="main" version="1.1" xmlns="http://www.w3.org/2000/svg" xmlns:xlink="http://www.w3.org/1999/xlink" xml:space="preserve" onload="init(evt)">
        <defs>
                <circle id="rim" cx="0" cy="0" r="7"/>
                <circle id="rim2" cx="0" cy="0" r="3.5"/>
                <g id="zoomPlus">
                        <use xlink:href="#rim" fill="#404040">
                                <set attributeName="fill" to="#808080" begin="zoomplus.mouseover" end="zoomplus.mouseout"/>
                        </use>
                        <path d="M-4,0h8M0,-4v8" fill="none" stroke="white" stroke-width="1.5" pointer-events="none"/>
                </g>
                <g id="zoomMin">
                        <use xlink:href="#rim" fill="#404040">
                                <set attributeName="fill" to="#808080" begin="zoomminus.mouseover" end="zoomminus.mouseout"/>
                        </use>
                        <path d="M-4,0h8" fill="none" stroke="white" stroke-width="1.5" pointer-events="none"/>
                </g>
                <g id="dirArrow">
                        <path fill="none" stroke="white" stroke-width="1.5" d="M0,-3.0v7 M-2.5,-0.5L0,-3.0L2.5,-0.5"/>
                </g>
               <g id="resetDef">
                       <use xlink:href="#rim2" fill="#404040">
                               <set attributeName="fill" to="#808080" begin="reset.mouseover" end="reset.mouseout"/>
                       </use>
               </g>
        </defs>

<script type="text/javascript">
var viewWidth = 678;
var viewHeight = 196;
var sectionId = 'dynsection-0';
</script>
<script xlink:href="svgpan.js"/>
<svg id="graph" class="graph">
<g id="viewport">
<title>G</title>
<!-- Node1 -->
<g id="node1" class="node"><title>Node1</title>
<polygon fill="#bfbfbf" stroke="black" points="46.4212,-168.5 46.4212,-187.5 331.421,-187.5 331.421,-168.5 46.4212,-168.5"/>
<text text-anchor="middle" x="188.921" y="-175.5" font-family="Helvetica,sans-Serif" font-size="10.00">/home/pjm3/freeradius&#45;server/src/modules/rlm_smb/session.c</text>
</g>
<!-- Node2 -->
<g id="node3" class="node"><title>Node2</title>
<polygon fill="none" stroke="#bfbfbf" points="374.921,-0.5 374.921,-19.5 492.921,-19.5 492.921,-0.5 374.921,-0.5"/>
<text text-anchor="middle" x="433.921" y="-7.5" font-family="Helvetica,sans-Serif" font-size="10.00">freeradius&#45;devel/ident.h</text>
</g>
<!-- Node1&#45;&gt;Node2 -->
<g id="edge2" class="edge"><title>Node1&#45;&gt;Node2</title>
<path fill="none" stroke="midnightblue" d="M153.628,-168.499C89.0097,-151.382 -37.4261,-109.763 10.9212,-56 34.1098,-30.2137 250.988,-18.0418 364.846,-13.3878"/>
<polygon fill="midnightblue" stroke="midnightblue" points="365.013,-16.884 374.865,-12.9868 364.733,-9.88964 365.013,-16.884"/>
</g>
<!-- Node3 -->
<g id="node5" class="node"><title>Node3</title>
<polygon fill="none" stroke="#bfbfbf" points="83.4212,-112.5 83.4212,-131.5 132.421,-131.5 132.421,-112.5 83.4212,-112.5"/>
<text text-anchor="middle" x="107.921" y="-119.5" font-family="Helvetica,sans-Serif" font-size="10.00">string.h</text>
</g>
<!-- Node1&#45;&gt;Node3 -->
<g id="edge4" class="edge"><title>Node1&#45;&gt;Node3</title>
<path fill="none" stroke="midnightblue" d="M175.907,-168.324C163.39,-159.979 144.239,-147.212 129.45,-137.352"/>
<polygon fill="midnightblue" stroke="midnightblue" points="131.165,-134.289 120.903,-131.655 127.282,-140.114 131.165,-134.289"/>
</g>
<!-- Node4 -->
<g id="node7" class="node"><title>Node4</title>
<a xlink:href="std-includes_8h.html" target="_top" xlink:title="std&#45;includes.h">
<polygon fill="none" stroke="black" points="150.421,-112.5 150.421,-131.5 227.421,-131.5 227.421,-112.5 150.421,-112.5"/>
<text text-anchor="middle" x="188.921" y="-119.5" font-family="Helvetica,sans-Serif" font-size="10.00">std&#45;includes.h</text>
</a>
</g>
<!-- Node1&#45;&gt;Node4 -->
<g id="edge6" class="edge"><title>Node1&#45;&gt;Node4</title>
<path fill="none" stroke="midnightblue" d="M188.921,-168.083C188.921,-161.006 188.921,-150.861 188.921,-141.986"/>
<polygon fill="midnightblue" stroke="midnightblue" points="192.421,-141.751 188.921,-131.751 185.421,-141.751 192.421,-141.751"/>
</g>
<!-- Node10 -->
<g id="node20" class="node"><title>Node10</title>
<a xlink:href="rfcnb-priv_8h.html" target="_top" xlink:title="rfcnb&#45;priv.h">
<polygon fill="none" stroke="black" points="401.421,-112.5 401.421,-131.5 466.421,-131.5 466.421,-112.5 401.421,-112.5"/>
<text text-anchor="middle" x="433.921" y="-119.5" font-family="Helvetica,sans-Serif" font-size="10.00">rfcnb&#45;priv.h</text>
</a>
</g>
<!-- Node1&#45;&gt;Node10 -->
<g id="edge20" class="edge"><title>Node1&#45;&gt;Node10</title>
<path fill="none" stroke="midnightblue" d="M227.742,-168.444C272.274,-158.628 345.066,-142.584 391.181,-132.42"/>
<polygon fill="midnightblue" stroke="midnightblue" points="392.15,-135.791 401.162,-130.22 390.643,-128.955 392.15,-135.791"/>
</g>
<!-- Node14 -->
<g id="node32" class="node"><title>Node14</title>
<a xlink:href="rfcnb-util_8h.html" target="_top" xlink:title="rfcnb&#45;util.h">
<polygon fill="none" stroke="black" points="568.921,-112.5 568.921,-131.5 630.921,-131.5 630.921,-112.5 568.921,-112.5"/>
<text text-anchor="middle" x="599.921" y="-119.5" font-family="Helvetica,sans-Serif" font-size="10.00">rfcnb&#45;util.h</text>
</a>
</g>
<!-- Node1&#45;&gt;Node14 -->
<g id="edge36" class="edge"><title>Node1&#45;&gt;Node14</title>
<path fill="none" stroke="midnightblue" d="M254.045,-168.444C339.586,-157.205 487.286,-137.799 558.781,-128.405"/>
<polygon fill="midnightblue" stroke="midnightblue" points="559.301,-131.867 568.76,-127.094 558.389,-124.927 559.301,-131.867"/>
</g>
<!-- Node4&#45;&gt;Node2 -->
<g id="edge8" class="edge"><title>Node4&#45;&gt;Node2</title>
<path fill="none" stroke="midnightblue" d="M150.262,-113.346C102.646,-103.531 27.0219,-86.524 18.9212,-76 13.4993,-68.9562 12.9842,-62.6155 18.9212,-56 41.5396,-30.7963 252.365,-18.4074 364.506,-13.5563"/>
<polygon fill="midnightblue" stroke="midnightblue" points="364.868,-17.0442 374.711,-13.1238 364.572,-10.0505 364.868,-17.0442"/>
</g>
<!-- Node5 -->
<g id="node10" class="node"><title>Node5</title>
<polygon fill="none" stroke="#bfbfbf" points="27.4212,-56.5 27.4212,-75.5 78.4212,-75.5 78.4212,-56.5 27.4212,-56.5"/>
<text text-anchor="middle" x="52.9212" y="-63.5" font-family="Helvetica,sans-Serif" font-size="10.00">config.h</text>
</g>
<!-- Node4&#45;&gt;Node5 -->
<g id="edge10" class="edge"><title>Node4&#45;&gt;Node5</title>
<path fill="none" stroke="midnightblue" d="M167.372,-112.444C144.89,-103.517 109.433,-89.4387 83.9413,-79.3168"/>
<polygon fill="midnightblue" stroke="midnightblue" points="84.9557,-75.9539 74.3699,-75.5164 82.3725,-82.4598 84.9557,-75.9539"/>
</g>
<!-- Node6 -->
<g id="node12" class="node"><title>Node6</title>
<polygon fill="none" stroke="#bfbfbf" points="96.9212,-56.5 96.9212,-75.5 146.921,-75.5 146.921,-56.5 96.9212,-56.5"/>
<text text-anchor="middle" x="121.921" y="-63.5" font-family="Helvetica,sans-Serif" font-size="10.00">signal.h</text>
</g>
<!-- Node4&#45;&gt;Node6 -->
<g id="edge12" class="edge"><title>Node4&#45;&gt;Node6</title>
<path fill="none" stroke="midnightblue" d="M178.156,-112.324C168.155,-104.263 153.035,-92.0765 140.991,-82.3695"/>
<polygon fill="midnightblue" stroke="midnightblue" points="142.864,-79.3841 132.882,-75.8339 138.471,-84.8343 142.864,-79.3841"/>
</g>
<!-- Node7 -->
<g id="node14" class="node"><title>Node7</title>
<polygon fill="none" stroke="#bfbfbf" points="165.421,-56.5 165.421,-75.5 212.421,-75.5 212.421,-56.5 165.421,-56.5"/>
<text text-anchor="middle" x="188.921" y="-63.5" font-family="Helvetica,sans-Serif" font-size="10.00">errno.h</text>
</g>
<!-- Node4&#45;&gt;Node7 -->
<g id="edge14" class="edge"><title>Node4&#45;&gt;Node7</title>
<path fill="none" stroke="midnightblue" d="M188.921,-112.083C188.921,-105.006 188.921,-94.8611 188.921,-85.9865"/>
<polygon fill="midnightblue" stroke="midnightblue" points="192.421,-85.751 188.921,-75.7511 185.421,-85.7511 192.421,-85.751"/>
</g>
<!-- Node8 -->
<g id="node16" class="node"><title>Node8</title>
<polygon fill="none" stroke="#bfbfbf" points="230.921,-56.5 230.921,-75.5 276.921,-75.5 276.921,-56.5 230.921,-56.5"/>
<text text-anchor="middle" x="253.921" y="-63.5" font-family="Helvetica,sans-Serif" font-size="10.00">stdio.h</text>
</g>
<!-- Node4&#45;&gt;Node8 -->
<g id="edge16" class="edge"><title>Node4&#45;&gt;Node8</title>
<path fill="none" stroke="midnightblue" d="M199.365,-112.324C209.067,-104.263 223.736,-92.0765 235.421,-82.3695"/>
<polygon fill="midnightblue" stroke="midnightblue" points="237.832,-84.9163 243.288,-75.8339 233.359,-79.532 237.832,-84.9163"/>
</g>
<!-- Node9 -->
<g id="node18" class="node"><title>Node9</title>
<polygon fill="none" stroke="#bfbfbf" points="294.921,-56.5 294.921,-75.5 342.921,-75.5 342.921,-56.5 294.921,-56.5"/>
<text text-anchor="middle" x="318.921" y="-63.5" font-family="Helvetica,sans-Serif" font-size="10.00">stdlib.h</text>
</g>
<!-- Node4&#45;&gt;Node9 -->
<g id="edge18" class="edge"><title>Node4&#45;&gt;Node9</title>
<path fill="none" stroke="midnightblue" d="M209.52,-112.444C230.915,-103.557 264.602,-89.5632 288.946,-79.4514"/>
<polygon fill="midnightblue" stroke="midnightblue" points="290.526,-82.5848 298.419,-75.5164 287.841,-76.1203 290.526,-82.5848"/>
</g>
<!-- Node10&#45;&gt;Node2 -->
<g id="edge22" class="edge"><title>Node10&#45;&gt;Node2</title>
<path fill="none" stroke="midnightblue" d="M421.064,-112.431C405.06,-100.603 380.868,-78.2092 389.921,-56 394.721,-44.2251 404.25,-33.8564 413.216,-26.0486"/>
<polygon fill="midnightblue" stroke="midnightblue" points="415.572,-28.6448 421.14,-19.6314 411.166,-23.2048 415.572,-28.6448"/>
</g>
<!-- Node11 -->
<g id="node23" class="node"><title>Node11</title>
<a xlink:href="rfcnb-error_8h.html" target="_top" xlink:title="rfcnb&#45;error.h">
<polygon fill="none" stroke="black" points="399.421,-56.5 399.421,-75.5 468.421,-75.5 468.421,-56.5 399.421,-56.5"/>
<text text-anchor="middle" x="433.921" y="-63.5" font-family="Helvetica,sans-Serif" font-size="10.00">rfcnb&#45;error.h</text>
</a>
</g>
<!-- Node10&#45;&gt;Node11 -->
<g id="edge24" class="edge"><title>Node10&#45;&gt;Node11</title>
<path fill="none" stroke="midnightblue" d="M433.921,-112.083C433.921,-105.006 433.921,-94.8611 433.921,-85.9865"/>
<polygon fill="midnightblue" stroke="midnightblue" points="437.421,-85.751 433.921,-75.7511 430.421,-85.7511 437.421,-85.751"/>
</g>
<!-- Node12 -->
<g id="node26" class="node"><title>Node12</title>
<a xlink:href="rfcnb-common_8h.html" target="_top" xlink:title="rfcnb&#45;common.h">
<polygon fill="none" stroke="black" points="486.421,-56.5 486.421,-75.5 573.421,-75.5 573.421,-56.5 486.421,-56.5"/>
<text text-anchor="middle" x="529.921" y="-63.5" font-family="Helvetica,sans-Serif" font-size="10.00">rfcnb&#45;common.h</text>
</a>
</g>
<!-- Node10&#45;&gt;Node12 -->
<g id="edge28" class="edge"><title>Node10&#45;&gt;Node12</title>
<path fill="none" stroke="midnightblue" d="M449.345,-112.324C464.461,-103.822 487.737,-90.7288 505.392,-80.7975"/>
<polygon fill="midnightblue" stroke="midnightblue" points="507.536,-83.6077 514.535,-75.6545 504.104,-77.5066 507.536,-83.6077"/>
</g>
<!-- Node13 -->
<g id="node29" class="node"><title>Node13</title>
<a xlink:href="byteorder_8h.html" target="_top" xlink:title="byteorder.h">
<polygon fill="none" stroke="black" points="591.421,-56.5 591.421,-75.5 656.421,-75.5 656.421,-56.5 591.421,-56.5"/>
<text text-anchor="middle" x="623.921" y="-63.5" font-family="Helvetica,sans-Serif" font-size="10.00">byteorder.h</text>
</a>
</g>
<!-- Node10&#45;&gt;Node13 -->
<g id="edge32" class="edge"><title>Node10&#45;&gt;Node13</title>
<path fill="none" stroke="midnightblue" d="M464.027,-112.444C496.547,-103.201 548.5,-88.4356 584.312,-78.2572"/>
<polygon fill="midnightblue" stroke="midnightblue" points="585.294,-81.617 593.956,-75.5164 583.38,-74.8837 585.294,-81.617"/>
</g>
<!-- Node11&#45;&gt;Node2 -->
<g id="edge26" class="edge"><title>Node11&#45;&gt;Node2</title>
<path fill="none" stroke="midnightblue" d="M433.921,-56.083C433.921,-49.0059 433.921,-38.8611 433.921,-29.9865"/>
<polygon fill="midnightblue" stroke="midnightblue" points="437.421,-29.751 433.921,-19.7511 430.421,-29.7511 437.421,-29.751"/>
</g>
<!-- Node12&#45;&gt;Node2 -->
<g id="edge30" class="edge"><title>Node12&#45;&gt;Node2</title>
<path fill="none" stroke="midnightblue" d="M514.497,-56.324C499.382,-47.8215 476.106,-34.7288 458.45,-24.7975"/>
<polygon fill="midnightblue" stroke="midnightblue" points="459.739,-21.5066 449.307,-19.6545 456.307,-27.6077 459.739,-21.5066"/>
</g>
<!-- Node13&#45;&gt;Node2 -->
<g id="edge34" class="edge"><title>Node13&#45;&gt;Node2</title>
<path fill="none" stroke="midnightblue" d="M593.815,-56.4435C561.295,-47.2011 509.343,-32.4356 473.53,-22.2572"/>
<polygon fill="midnightblue" stroke="midnightblue" points="474.462,-18.8837 463.886,-19.5164 472.549,-25.617 474.462,-18.8837"/>
</g>
<!-- Node14&#45;&gt;Node2 -->
<g id="edge38" class="edge"><title>Node14&#45;&gt;Node2</title>
<path fill="none" stroke="midnightblue" d="M619.803,-112.479C644.935,-100.528 682.884,-77.8001 664.921,-56 644.719,-31.483 563.826,-20.1469 503.427,-15.025"/>
<polygon fill="midnightblue" stroke="midnightblue" points="503.416,-11.5127 493.167,-14.1971 502.853,-18.4901 503.416,-11.5127"/>
</g>
</g>
</svg>
        <g id="navigator" transform="translate(0 0)" fill="#404254">
                <rect fill="#f2f5e9" fill-opacity="0.5" stroke="#606060" stroke-width=".5" x="0" y="0" width="60" height="60"/>
                <use id="zoomplus" xlink:href="#zoomPlus" x="17" y="9" onmousedown="handleZoom(evt,'in')"/>
                <use id="zoomminus" xlink:href="#zoomMin" x="42" y="9" onmousedown="handleZoom(evt,'out')"/>
                <use id="reset" xlink:href="#resetDef" x="30" y="36" onmousedown="handleReset()"/>
                <g id="arrowUp" xlink:href="#dirArrow" transform="translate(30 24)" onmousedown="handlePan(0,-1)">
                  <use xlink:href="#rim" fill="#404040">
                        <set attributeName="fill" to="#808080" begin="arrowUp.mouseover" end="arrowUp.mouseout"/>
                  </use>
                  <path fill="none" stroke="white" stroke-width="1.5" d="M0,-3.0v7 M-2.5,-0.5L0,-3.0L2.5,-0.5"/>
                </g>
                <g id="arrowRight" xlink:href="#dirArrow" transform="rotate(90) translate(36 -43)" onmousedown="handlePan(1,0)">
                  <use xlink:href="#rim" fill="#404040">
                        <set attributeName="fill" to="#808080" begin="arrowRight.mouseover" end="arrowRight.mouseout"/>
                  </use>
                  <path fill="none" stroke="white" stroke-width="1.5" d="M0,-3.0v7 M-2.5,-0.5L0,-3.0L2.5,-0.5"/>
                </g>
                <g id="arrowDown" xlink:href="#dirArrow" transform="rotate(180) translate(-30 -48)" onmousedown="handlePan(0,1)">
                  <use xlink:href="#rim" fill="#404040">
                        <set attributeName="fill" to="#808080" begin="arrowDown.mouseover" end="arrowDown.mouseout"/>
                  </use>
                  <path fill="none" stroke="white" stroke-width="1.5" d="M0,-3.0v7 M-2.5,-0.5L0,-3.0L2.5,-0.5"/>
                </g>
                <g id="arrowLeft" xlink:href="#dirArrow" transform="rotate(270) translate(-36 17)" onmousedown="handlePan(-1,0)">
                  <use xlink:href="#rim" fill="#404040">
                        <set attributeName="fill" to="#808080" begin="arrowLeft.mouseover" end="arrowLeft.mouseout"/>
                  </use>
                  <path fill="none" stroke="white" stroke-width="1.5" d="M0,-3.0v7 M-2.5,-0.5L0,-3.0L2.5,-0.5"/>
                </g>
        </g>
</svg>
