<?xml version="1.0" encoding="UTF-8" standalone="no"?>
<!DOCTYPE svg PUBLIC "-//W3C//DTD SVG 1.1//EN"
 "http://www.w3.org/Graphics/SVG/1.1/DTD/svg11.dtd">
<!-- Generated by graphviz version 2.28.0 (20111211.2114)
 -->
<!-- Title: G Pages: 1 -->
<!--zoomable-->
<svg id="main" version="1.1" xmlns="http://www.w3.org/2000/svg" xmlns:xlink="http://www.w3.org/1999/xlink" xml:space="preserve" onload="init(evt)">
        <defs>
                <circle id="rim" cx="0" cy="0" r="7"/>
                <circle id="rim2" cx="0" cy="0" r="3.5"/>
                <g id="zoomPlus">
                        <use xlink:href="#rim" fill="#404040">
                                <set attributeName="fill" to="#808080" begin="zoomplus.mouseover" end="zoomplus.mouseout"/>
                        </use>
                        <path d="M-4,0h8M0,-4v8" fill="none" stroke="white" stroke-width="1.5" pointer-events="none"/>
                </g>
                <g id="zoomMin">
                        <use xlink:href="#rim" fill="#404040">
                                <set attributeName="fill" to="#808080" begin="zoomminus.mouseover" end="zoomminus.mouseout"/>
                        </use>
                        <path d="M-4,0h8" fill="none" stroke="white" stroke-width="1.5" pointer-events="none"/>
                </g>
                <g id="dirArrow">
                        <path fill="none" stroke="white" stroke-width="1.5" d="M0,-3.0v7 M-2.5,-0.5L0,-3.0L2.5,-0.5"/>
                </g>
               <g id="resetDef">
                       <use xlink:href="#rim2" fill="#404040">
                               <set attributeName="fill" to="#808080" begin="reset.mouseover" end="reset.mouseout"/>
                       </use>
               </g>
        </defs>

<script type="text/javascript">
var viewWidth = 1659;
var viewHeight = 252;
var sectionId = 'dynsection-0';
</script>
<script xlink:href="svgpan.js"/>
<svg id="graph" class="graph">
<g id="viewport">
<title>G</title>
<!-- Node1 -->
<g id="node1" class="node"><title>Node1</title>
<polygon fill="#bfbfbf" stroke="black" points="1324.5,-224.5 1324.5,-243.5 1651.5,-243.5 1651.5,-224.5 1324.5,-224.5"/>
<text text-anchor="middle" x="1488" y="-231.5" font-family="Helvetica,sans-Serif" font-size="10.00">/home/pjm3/freeradius&#45;server/src/modules/rlm_eap/libeap/mppe_keys.c</text>
</g>
<!-- Node2 -->
<g id="node3" class="node"><title>Node2</title>
<polygon fill="none" stroke="#bfbfbf" points="1372,-0.5 1372,-19.5 1490,-19.5 1490,-0.5 1372,-0.5"/>
<text text-anchor="middle" x="1431" y="-7.5" font-family="Helvetica,sans-Serif" font-size="10.00">freeradius&#45;devel/ident.h</text>
</g>
<!-- Node1&#45;&gt;Node2 -->
<g id="edge2" class="edge"><title>Node1&#45;&gt;Node2</title>
<path fill="none" stroke="midnightblue" d="M1485.77,-224.297C1477.36,-191.563 1447.53,-75.3752 1435.79,-29.6664"/>
<polygon fill="midnightblue" stroke="midnightblue" points="1439.16,-28.6991 1433.28,-19.8837 1432.38,-30.44 1439.16,-28.6991"/>
</g>
<!-- Node3 -->
<g id="node5" class="node"><title>Node3</title>
<polygon fill="none" stroke="#bfbfbf" points="1516,-168.5 1516,-187.5 1602,-187.5 1602,-168.5 1516,-168.5"/>
<text text-anchor="middle" x="1559" y="-175.5" font-family="Helvetica,sans-Serif" font-size="10.00">openssl/hmac.h</text>
</g>
<!-- Node1&#45;&gt;Node3 -->
<g id="edge4" class="edge"><title>Node1&#45;&gt;Node3</title>
<path fill="none" stroke="midnightblue" d="M1499.41,-224.324C1510.11,-216.185 1526.34,-203.839 1539.16,-194.087"/>
<polygon fill="midnightblue" stroke="midnightblue" points="1541.54,-196.673 1547.39,-187.834 1537.31,-191.102 1541.54,-196.673"/>
</g>
<!-- Node4 -->
<g id="node7" class="node"><title>Node4</title>
<a xlink:href="eap__tls_8h.html" target="_top" xlink:title="eap_tls.h">
<polygon fill="none" stroke="black" points="674,-168.5 674,-187.5 730,-187.5 730,-168.5 674,-168.5"/>
<text text-anchor="middle" x="702" y="-175.5" font-family="Helvetica,sans-Serif" font-size="10.00">eap_tls.h</text>
</a>
</g>
<!-- Node1&#45;&gt;Node4 -->
<g id="edge6" class="edge"><title>Node1&#45;&gt;Node4</title>
<path fill="none" stroke="midnightblue" d="M1363.89,-224.473C1182.01,-211.978 852.515,-189.341 740.483,-181.644"/>
<polygon fill="midnightblue" stroke="midnightblue" points="740.548,-178.14 730.332,-180.946 740.069,-185.124 740.548,-178.14"/>
</g>
<!-- Node4&#45;&gt;Node2 -->
<g id="edge8" class="edge"><title>Node4&#45;&gt;Node2</title>
<path fill="none" stroke="midnightblue" d="M730.054,-177.131C811.496,-176.993 1054.63,-172.915 1251,-132 1326.4,-116.29 1362.98,-132.797 1415,-76 1426.4,-63.5574 1430.01,-44.3212 1431.01,-29.9993"/>
<polygon fill="midnightblue" stroke="midnightblue" points="1434.51,-29.9 1431.34,-19.7906 1427.52,-29.6705 1434.51,-29.9"/>
</g>
<!-- Node5 -->
<g id="node10" class="node"><title>Node5</title>
<polygon fill="none" stroke="#bfbfbf" points="0,-112.5 0,-131.5 46,-131.5 46,-112.5 0,-112.5"/>
<text text-anchor="middle" x="23" y="-119.5" font-family="Helvetica,sans-Serif" font-size="10.00">stdio.h</text>
</g>
<!-- Node4&#45;&gt;Node5 -->
<g id="edge10" class="edge"><title>Node4&#45;&gt;Node5</title>
<path fill="none" stroke="midnightblue" d="M673.69,-177.089C584.209,-176.938 299.51,-173.156 56.3777,-131.884"/>
<polygon fill="midnightblue" stroke="midnightblue" points="56.741,-128.395 46.2919,-130.146 55.5523,-135.293 56.741,-128.395"/>
</g>
<!-- Node6 -->
<g id="node12" class="node"><title>Node6</title>
<polygon fill="none" stroke="#bfbfbf" points="64,-112.5 64,-131.5 112,-131.5 112,-112.5 64,-112.5"/>
<text text-anchor="middle" x="88" y="-119.5" font-family="Helvetica,sans-Serif" font-size="10.00">stdlib.h</text>
</g>
<!-- Node4&#45;&gt;Node6 -->
<g id="edge12" class="edge"><title>Node4&#45;&gt;Node6</title>
<path fill="none" stroke="midnightblue" d="M673.712,-176.617C589.268,-175.087 331.851,-167.612 122,-132 121.898,-131.983 121.797,-131.965 121.695,-131.948"/>
<polygon fill="midnightblue" stroke="midnightblue" points="122.531,-128.547 112.028,-129.937 121.105,-135.4 122.531,-128.547"/>
</g>
<!-- Node7 -->
<g id="node14" class="node"><title>Node7</title>
<polygon fill="none" stroke="#bfbfbf" points="130.5,-112.5 130.5,-131.5 179.5,-131.5 179.5,-112.5 130.5,-112.5"/>
<text text-anchor="middle" x="155" y="-119.5" font-family="Helvetica,sans-Serif" font-size="10.00">string.h</text>
</g>
<!-- Node4&#45;&gt;Node7 -->
<g id="edge14" class="edge"><title>Node4&#45;&gt;Node7</title>
<path fill="none" stroke="midnightblue" d="M673.91,-176.303C597.431,-174.035 379.054,-165.082 189.612,-132.01"/>
<polygon fill="midnightblue" stroke="midnightblue" points="190.215,-128.562 179.758,-130.263 188.993,-135.455 190.215,-128.562"/>
</g>
<!-- Node8 -->
<g id="node16" class="node"><title>Node8</title>
<polygon fill="none" stroke="#bfbfbf" points="197.5,-112.5 197.5,-131.5 244.5,-131.5 244.5,-112.5 197.5,-112.5"/>
<text text-anchor="middle" x="221" y="-119.5" font-family="Helvetica,sans-Serif" font-size="10.00">errno.h</text>
</g>
<!-- Node4&#45;&gt;Node8 -->
<g id="edge16" class="edge"><title>Node4&#45;&gt;Node8</title>
<path fill="none" stroke="midnightblue" d="M673.986,-175.805C604.575,-172.501 419.003,-161.58 254.958,-131.857"/>
<polygon fill="midnightblue" stroke="midnightblue" points="255.153,-128.334 244.684,-129.965 253.885,-135.218 255.153,-128.334"/>
</g>
<!-- Node9 -->
<g id="node18" class="node"><title>Node9</title>
<polygon fill="none" stroke="#bfbfbf" points="263,-112.5 263,-131.5 331,-131.5 331,-112.5 263,-112.5"/>
<text text-anchor="middle" x="297" y="-119.5" font-family="Helvetica,sans-Serif" font-size="10.00">sys/types.h</text>
</g>
<!-- Node4&#45;&gt;Node9 -->
<g id="edge18" class="edge"><title>Node4&#45;&gt;Node9</title>
<path fill="none" stroke="midnightblue" d="M673.808,-174.24C612.867,-168.109 464.399,-152.28 341,-132 340.899,-131.983 340.798,-131.967 340.697,-131.95"/>
<polygon fill="midnightblue" stroke="midnightblue" points="341.519,-128.541 331.061,-130.239 340.296,-135.434 341.519,-128.541"/>
</g>
<!-- Node10 -->
<g id="node20" class="node"><title>Node10</title>
<polygon fill="none" stroke="#bfbfbf" points="349.5,-112.5 349.5,-131.5 422.5,-131.5 422.5,-112.5 349.5,-112.5"/>
<text text-anchor="middle" x="386" y="-119.5" font-family="Helvetica,sans-Serif" font-size="10.00">sys/socket.h</text>
</g>
<!-- Node4&#45;&gt;Node10 -->
<g id="edge20" class="edge"><title>Node4&#45;&gt;Node10</title>
<path fill="none" stroke="midnightblue" d="M673.969,-172.594C626.549,-165.083 527.238,-149.106 432.662,-132.077"/>
<polygon fill="midnightblue" stroke="midnightblue" points="433.104,-128.6 422.641,-130.265 431.859,-135.488 433.104,-128.6"/>
</g>
<!-- Node11 -->
<g id="node22" class="node"><title>Node11</title>
<polygon fill="none" stroke="#bfbfbf" points="440.5,-112.5 440.5,-131.5 505.5,-131.5 505.5,-112.5 440.5,-112.5"/>
<text text-anchor="middle" x="473" y="-119.5" font-family="Helvetica,sans-Serif" font-size="10.00">netinet/in.h</text>
</g>
<!-- Node4&#45;&gt;Node11 -->
<g id="edge22" class="edge"><title>Node4&#45;&gt;Node11</title>
<path fill="none" stroke="midnightblue" d="M673.92,-170.379C634.392,-161.057 562.01,-143.989 515.767,-133.085"/>
<polygon fill="midnightblue" stroke="midnightblue" points="516.286,-129.611 505.749,-130.723 514.679,-136.424 516.286,-129.611"/>
</g>
<!-- Node12 -->
<g id="node24" class="node"><title>Node12</title>
<polygon fill="none" stroke="#bfbfbf" points="523.5,-112.5 523.5,-131.5 594.5,-131.5 594.5,-112.5 523.5,-112.5"/>
<text text-anchor="middle" x="559" y="-119.5" font-family="Helvetica,sans-Serif" font-size="10.00">netinet/tcp.h</text>
</g>
<!-- Node4&#45;&gt;Node12 -->
<g id="edge24" class="edge"><title>Node4&#45;&gt;Node12</title>
<path fill="none" stroke="midnightblue" d="M679.341,-168.444C655.598,-159.478 618.091,-145.314 591.262,-135.183"/>
<polygon fill="midnightblue" stroke="midnightblue" points="592.144,-131.775 581.553,-131.516 589.671,-138.324 592.144,-131.775"/>
</g>
<!-- Node13 -->
<g id="node26" class="node"><title>Node13</title>
<polygon fill="none" stroke="#bfbfbf" points="612.5,-112.5 612.5,-131.5 661.5,-131.5 661.5,-112.5 612.5,-112.5"/>
<text text-anchor="middle" x="637" y="-119.5" font-family="Helvetica,sans-Serif" font-size="10.00">netdb.h</text>
</g>
<!-- Node4&#45;&gt;Node13 -->
<g id="edge26" class="edge"><title>Node4&#45;&gt;Node13</title>
<path fill="none" stroke="midnightblue" d="M691.557,-168.324C681.854,-160.263 667.185,-148.077 655.5,-138.369"/>
<polygon fill="midnightblue" stroke="midnightblue" points="657.562,-135.532 647.633,-131.834 653.089,-140.916 657.562,-135.532"/>
</g>
<!-- Node14 -->
<g id="node28" class="node"><title>Node14</title>
<polygon fill="none" stroke="#bfbfbf" points="680,-112.5 680,-131.5 724,-131.5 724,-112.5 680,-112.5"/>
<text text-anchor="middle" x="702" y="-119.5" font-family="Helvetica,sans-Serif" font-size="10.00">fcntl.h</text>
</g>
<!-- Node4&#45;&gt;Node14 -->
<g id="edge28" class="edge"><title>Node4&#45;&gt;Node14</title>
<path fill="none" stroke="midnightblue" d="M702,-168.083C702,-161.006 702,-150.861 702,-141.986"/>
<polygon fill="midnightblue" stroke="midnightblue" points="705.5,-141.751 702,-131.751 698.5,-141.751 705.5,-141.751"/>
</g>
<!-- Node15 -->
<g id="node30" class="node"><title>Node15</title>
<polygon fill="none" stroke="#bfbfbf" points="742,-112.5 742,-131.5 792,-131.5 792,-112.5 742,-112.5"/>
<text text-anchor="middle" x="767" y="-119.5" font-family="Helvetica,sans-Serif" font-size="10.00">signal.h</text>
</g>
<!-- Node4&#45;&gt;Node15 -->
<g id="edge30" class="edge"><title>Node4&#45;&gt;Node15</title>
<path fill="none" stroke="midnightblue" d="M712.443,-168.324C722.146,-160.263 736.815,-148.077 748.5,-138.369"/>
<polygon fill="midnightblue" stroke="midnightblue" points="750.911,-140.916 756.367,-131.834 746.438,-135.532 750.911,-140.916"/>
</g>
<!-- Node16 -->
<g id="node32" class="node"><title>Node16</title>
<polygon fill="none" stroke="#bfbfbf" points="810.5,-112.5 810.5,-131.5 859.5,-131.5 859.5,-112.5 810.5,-112.5"/>
<text text-anchor="middle" x="835" y="-119.5" font-family="Helvetica,sans-Serif" font-size="10.00">ctype.h</text>
</g>
<!-- Node4&#45;&gt;Node16 -->
<g id="edge32" class="edge"><title>Node4&#45;&gt;Node16</title>
<path fill="none" stroke="midnightblue" d="M723.074,-168.444C745.06,-159.517 779.734,-145.439 804.664,-135.317"/>
<polygon fill="midnightblue" stroke="midnightblue" points="806.076,-138.521 814.024,-131.516 803.442,-132.035 806.076,-138.521"/>
</g>
<!-- Node17 -->
<g id="node34" class="node"><title>Node17</title>
<polygon fill="none" stroke="#bfbfbf" points="878,-112.5 878,-131.5 940,-131.5 940,-112.5 878,-112.5"/>
<text text-anchor="middle" x="909" y="-119.5" font-family="Helvetica,sans-Serif" font-size="10.00">sys/time.h</text>
</g>
<!-- Node4&#45;&gt;Node17 -->
<g id="edge34" class="edge"><title>Node4&#45;&gt;Node17</title>
<path fill="none" stroke="midnightblue" d="M730.348,-169.605C765.973,-160.311 827.37,-144.295 868.082,-133.674"/>
<polygon fill="midnightblue" stroke="midnightblue" points="869.166,-137.009 877.958,-131.098 867.399,-130.235 869.166,-137.009"/>
</g>
<!-- Node18 -->
<g id="node36" class="node"><title>Node18</title>
<polygon fill="none" stroke="#bfbfbf" points="958,-112.5 958,-131.5 1020,-131.5 1020,-112.5 958,-112.5"/>
<text text-anchor="middle" x="989" y="-119.5" font-family="Helvetica,sans-Serif" font-size="10.00">arpa/inet.h</text>
</g>
<!-- Node4&#45;&gt;Node18 -->
<g id="edge36" class="edge"><title>Node4&#45;&gt;Node18</title>
<path fill="none" stroke="midnightblue" d="M730.1,-172.191C774.155,-164.58 862.389,-149.049 947.822,-131.974"/>
<polygon fill="midnightblue" stroke="midnightblue" points="948.57,-135.393 957.685,-129.993 947.191,-128.53 948.57,-135.393"/>
</g>
<!-- Node19 -->
<g id="node38" class="node"><title>Node19</title>
<polygon fill="none" stroke="#bfbfbf" points="984,-0.5 984,-19.5 1112,-19.5 1112,-0.5 984,-0.5"/>
<text text-anchor="middle" x="1048" y="-7.5" font-family="Helvetica,sans-Serif" font-size="10.00">freeradius&#45;devel/radiusd.h</text>
</g>
<!-- Node4&#45;&gt;Node19 -->
<g id="edge38" class="edge"><title>Node4&#45;&gt;Node19</title>
<path fill="none" stroke="midnightblue" d="M730.143,-177.219C801.337,-177.155 985.94,-172.954 1028,-132 1055.5,-105.226 1054.19,-56.1684 1051.01,-29.4805"/>
<polygon fill="midnightblue" stroke="midnightblue" points="1054.47,-28.9565 1049.61,-19.5425 1047.53,-29.933 1054.47,-28.9565"/>
</g>
<!-- Node20 -->
<g id="node40" class="node"><title>Node20</title>
<polygon fill="none" stroke="#bfbfbf" points="1076.5,-112.5 1076.5,-131.5 1183.5,-131.5 1183.5,-112.5 1076.5,-112.5"/>
<text text-anchor="middle" x="1130" y="-119.5" font-family="Helvetica,sans-Serif" font-size="10.00">freeradius&#45;devel/tls.h</text>
</g>
<!-- Node4&#45;&gt;Node20 -->
<g id="edge40" class="edge"><title>Node4&#45;&gt;Node20</title>
<path fill="none" stroke="midnightblue" d="M730.016,-173.568C790.597,-166.131 938.307,-147.916 1062,-132 1063.3,-131.833 1064.6,-131.664 1065.92,-131.494"/>
<polygon fill="midnightblue" stroke="midnightblue" points="1066.72,-134.92 1076.18,-130.159 1065.82,-127.979 1066.72,-134.92"/>
</g>
<!-- Node21 -->
<g id="node42" class="node"><title>Node21</title>
<a xlink:href="eap_8h.html" target="_top" xlink:title="eap.h">
<polygon fill="none" stroke="black" points="1201.5,-112.5 1201.5,-131.5 1242.5,-131.5 1242.5,-112.5 1201.5,-112.5"/>
<text text-anchor="middle" x="1222" y="-119.5" font-family="Helvetica,sans-Serif" font-size="10.00">eap.h</text>
</a>
</g>
<!-- Node4&#45;&gt;Node21 -->
<g id="edge42" class="edge"><title>Node4&#45;&gt;Node21</title>
<path fill="none" stroke="midnightblue" d="M730.176,-176.377C804.32,-174.325 1010.96,-165.931 1191.54,-131.664"/>
<polygon fill="midnightblue" stroke="midnightblue" points="1192.32,-135.077 1201.48,-129.746 1191,-128.204 1192.32,-135.077"/>
</g>
<!-- Node21&#45;&gt;Node2 -->
<g id="edge44" class="edge"><title>Node21&#45;&gt;Node2</title>
<path fill="none" stroke="midnightblue" d="M1242.72,-120.416C1277.06,-118.459 1346.49,-110.212 1392,-76 1407.74,-64.1649 1418.41,-43.9503 1424.55,-29.1999"/>
<polygon fill="midnightblue" stroke="midnightblue" points="1427.91,-30.213 1428.24,-19.623 1421.38,-27.7008 1427.91,-30.213"/>
</g>
<!-- Node21&#45;&gt;Node19 -->
<g id="edge46" class="edge"><title>Node21&#45;&gt;Node19</title>
<path fill="none" stroke="midnightblue" d="M1203.18,-112.373C1185.22,-103.885 1157.63,-90.1703 1135,-76 1110.23,-60.4905 1083.57,-39.9364 1066.38,-26.1304"/>
<polygon fill="midnightblue" stroke="midnightblue" points="1068.29,-23.1703 1058.32,-19.5882 1063.88,-28.6064 1068.29,-23.1703"/>
</g>
<!-- Node22 -->
<g id="node46" class="node"><title>Node22</title>
<polygon fill="none" stroke="#bfbfbf" points="1130,-0.5 1130,-19.5 1264,-19.5 1264,-0.5 1130,-0.5"/>
<text text-anchor="middle" x="1197" y="-7.5" font-family="Helvetica,sans-Serif" font-size="10.00">freeradius&#45;devel/modules.h</text>
</g>
<!-- Node21&#45;&gt;Node22 -->
<g id="edge48" class="edge"><title>Node21&#45;&gt;Node22</title>
<path fill="none" stroke="midnightblue" d="M1202.01,-112.425C1180.85,-102.885 1149.58,-87.3267 1143,-76 1131.8,-56.7283 1152.91,-37.4361 1171.93,-24.9362"/>
<polygon fill="midnightblue" stroke="midnightblue" points="1174.01,-27.7692 1180.67,-19.5355 1170.33,-21.8142 1174.01,-27.7692"/>
</g>
<!-- Node23 -->
<g id="node48" class="node"><title>Node23</title>
<polygon fill="none" stroke="#bfbfbf" points="1240.5,-56.5 1240.5,-75.5 1383.5,-75.5 1383.5,-56.5 1240.5,-56.5"/>
<text text-anchor="middle" x="1312" y="-63.5" font-family="Helvetica,sans-Serif" font-size="10.00">freeradius&#45;devel/rad_assert.h</text>
</g>
<!-- Node21&#45;&gt;Node23 -->
<g id="edge50" class="edge"><title>Node21&#45;&gt;Node23</title>
<path fill="none" stroke="midnightblue" d="M1236.46,-112.324C1250.5,-103.9 1272.05,-90.9709 1288.54,-81.0741"/>
<polygon fill="midnightblue" stroke="midnightblue" points="1290.8,-83.8007 1297.58,-75.6545 1287.2,-77.7983 1290.8,-83.8007"/>
</g>
<!-- Node24 -->
<g id="node50" class="node"><title>Node24</title>
<a xlink:href="eap__types_8h.html" target="_top" xlink:title="eap_types.h">
<polygon fill="none" stroke="black" points="1152,-56.5 1152,-75.5 1222,-75.5 1222,-56.5 1152,-56.5"/>
<text text-anchor="middle" x="1187" y="-63.5" font-family="Helvetica,sans-Serif" font-size="10.00">eap_types.h</text>
</a>
</g>
<!-- Node21&#45;&gt;Node24 -->
<g id="edge52" class="edge"><title>Node21&#45;&gt;Node24</title>
<path fill="none" stroke="midnightblue" d="M1216.22,-112.083C1211.33,-104.534 1204.17,-93.4948 1198.17,-84.2298"/>
<polygon fill="midnightblue" stroke="midnightblue" points="1201.05,-82.239 1192.67,-75.7511 1195.17,-86.0463 1201.05,-82.239"/>
</g>
<!-- Node24&#45;&gt;Node2 -->
<g id="edge54" class="edge"><title>Node24&#45;&gt;Node2</title>
<path fill="none" stroke="midnightblue" d="M1222.22,-57.2056C1264.39,-47.8723 1335.25,-32.1906 1382.56,-21.7207"/>
<polygon fill="midnightblue" stroke="midnightblue" points="1383.56,-25.0829 1392.57,-19.5047 1382.05,-18.2483 1383.56,-25.0829"/>
</g>
<!-- Node24&#45;&gt;Node19 -->
<g id="edge56" class="edge"><title>Node24&#45;&gt;Node19</title>
<path fill="none" stroke="midnightblue" d="M1164.98,-56.4435C1141.9,-47.4776 1105.44,-33.314 1079.36,-23.1827"/>
<polygon fill="midnightblue" stroke="midnightblue" points="1080.51,-19.8753 1069.92,-19.5164 1077.98,-26.4002 1080.51,-19.8753"/>
</g>
<!-- Node24&#45;&gt;Node22 -->
<g id="edge58" class="edge"><title>Node24&#45;&gt;Node22</title>
<path fill="none" stroke="midnightblue" d="M1188.65,-56.083C1189.98,-48.9272 1191.88,-38.6353 1193.54,-29.6911"/>
<polygon fill="midnightblue" stroke="midnightblue" points="1197,-30.2212 1195.38,-19.7511 1190.12,-28.9466 1197,-30.2212"/>
</g>
</g>
</svg>
        <g id="navigator" transform="translate(0 0)" fill="#404254">
                <rect fill="#f2f5e9" fill-opacity="0.5" stroke="#606060" stroke-width=".5" x="0" y="0" width="60" height="60"/>
                <use id="zoomplus" xlink:href="#zoomPlus" x="17" y="9" onmousedown="handleZoom(evt,'in')"/>
                <use id="zoomminus" xlink:href="#zoomMin" x="42" y="9" onmousedown="handleZoom(evt,'out')"/>
                <use id="reset" xlink:href="#resetDef" x="30" y="36" onmousedown="handleReset()"/>
                <g id="arrowUp" xlink:href="#dirArrow" transform="translate(30 24)" onmousedown="handlePan(0,-1)">
                  <use xlink:href="#rim" fill="#404040">
                        <set attributeName="fill" to="#808080" begin="arrowUp.mouseover" end="arrowUp.mouseout"/>
                  </use>
                  <path fill="none" stroke="white" stroke-width="1.5" d="M0,-3.0v7 M-2.5,-0.5L0,-3.0L2.5,-0.5"/>
                </g>
                <g id="arrowRight" xlink:href="#dirArrow" transform="rotate(90) translate(36 -43)" onmousedown="handlePan(1,0)">
                  <use xlink:href="#rim" fill="#404040">
                        <set attributeName="fill" to="#808080" begin="arrowRight.mouseover" end="arrowRight.mouseout"/>
                  </use>
                  <path fill="none" stroke="white" stroke-width="1.5" d="M0,-3.0v7 M-2.5,-0.5L0,-3.0L2.5,-0.5"/>
                </g>
                <g id="arrowDown" xlink:href="#dirArrow" transform="rotate(180) translate(-30 -48)" onmousedown="handlePan(0,1)">
                  <use xlink:href="#rim" fill="#404040">
                        <set attributeName="fill" to="#808080" begin="arrowDown.mouseover" end="arrowDown.mouseout"/>
                  </use>
                  <path fill="none" stroke="white" stroke-width="1.5" d="M0,-3.0v7 M-2.5,-0.5L0,-3.0L2.5,-0.5"/>
                </g>
                <g id="arrowLeft" xlink:href="#dirArrow" transform="rotate(270) translate(-36 17)" onmousedown="handlePan(-1,0)">
                  <use xlink:href="#rim" fill="#404040">
                        <set attributeName="fill" to="#808080" begin="arrowLeft.mouseover" end="arrowLeft.mouseout"/>
                  </use>
                  <path fill="none" stroke="white" stroke-width="1.5" d="M0,-3.0v7 M-2.5,-0.5L0,-3.0L2.5,-0.5"/>
                </g>
        </g>
</svg>
