<?xml version="1.0" encoding="UTF-8" standalone="no"?>
<!DOCTYPE svg PUBLIC "-//W3C//DTD SVG 1.1//EN"
 "http://www.w3.org/Graphics/SVG/1.1/DTD/svg11.dtd">
<!-- Generated by graphviz version 2.28.0 (20111211.2114)
 -->
<!-- Title: G Pages: 1 -->
<!--zoomable-->
<svg id="main" version="1.1" xmlns="http://www.w3.org/2000/svg" xmlns:xlink="http://www.w3.org/1999/xlink" xml:space="preserve" onload="init(evt)">
        <defs>
                <circle id="rim" cx="0" cy="0" r="7"/>
                <circle id="rim2" cx="0" cy="0" r="3.5"/>
                <g id="zoomPlus">
                        <use xlink:href="#rim" fill="#404040">
                                <set attributeName="fill" to="#808080" begin="zoomplus.mouseover" end="zoomplus.mouseout"/>
                        </use>
                        <path d="M-4,0h8M0,-4v8" fill="none" stroke="white" stroke-width="1.5" pointer-events="none"/>
                </g>
                <g id="zoomMin">
                        <use xlink:href="#rim" fill="#404040">
                                <set attributeName="fill" to="#808080" begin="zoomminus.mouseover" end="zoomminus.mouseout"/>
                        </use>
                        <path d="M-4,0h8" fill="none" stroke="white" stroke-width="1.5" pointer-events="none"/>
                </g>
                <g id="dirArrow">
                        <path fill="none" stroke="white" stroke-width="1.5" d="M0,-3.0v7 M-2.5,-0.5L0,-3.0L2.5,-0.5"/>
                </g>
               <g id="resetDef">
                       <use xlink:href="#rim2" fill="#404040">
                               <set attributeName="fill" to="#808080" begin="reset.mouseover" end="reset.mouseout"/>
                       </use>
               </g>
        </defs>

<script type="text/javascript">
var viewWidth = 955;
var viewHeight = 140;
var sectionId = 'dynsection-0';
</script>
<script xlink:href="svgpan.js"/>
<svg id="graph" class="graph">
<g id="viewport">
<title>G</title>
<!-- Node1 -->
<g id="node1" class="node"><title>Node1</title>
<polygon fill="#bfbfbf" stroke="black" points="380.56,-112.5 380.56,-131.5 682.56,-131.5 682.56,-112.5 380.56,-112.5"/>
<text text-anchor="middle" x="531.56" y="-119.5" font-family="Helvetica,sans-Serif" font-size="10.00">/home/pjm3/freeradius&#45;server/src/modules/rlm_mschap/mschap.c</text>
</g>
<!-- Node2 -->
<g id="node3" class="node"><title>Node2</title>
<polygon fill="none" stroke="#bfbfbf" points="781.56,-0.5 781.56,-19.5 899.56,-19.5 899.56,-0.5 781.56,-0.5"/>
<text text-anchor="middle" x="840.56" y="-7.5" font-family="Helvetica,sans-Serif" font-size="10.00">freeradius&#45;devel/ident.h</text>
</g>
<!-- Node1&#45;&gt;Node2 -->
<g id="edge2" class="edge"><title>Node1&#45;&gt;Node2</title>
<path fill="none" stroke="midnightblue" d="M380.414,-118.324C233.755,-114.12 29.6941,-103.372 4.56009,-76 -1.45198,-69.4527 -1.55405,-62.4521 4.56009,-56 30.7724,-28.3388 575.233,-15.7964 771.118,-12.1672"/>
<polygon fill="midnightblue" stroke="midnightblue" points="771.359,-15.6635 781.293,-11.9809 771.231,-8.66464 771.359,-15.6635"/>
</g>
<!-- Node3 -->
<g id="node5" class="node"><title>Node3</title>
<polygon fill="none" stroke="#bfbfbf" points="13.5601,-56.5 13.5601,-75.5 141.56,-75.5 141.56,-56.5 13.5601,-56.5"/>
<text text-anchor="middle" x="77.5601" y="-63.5" font-family="Helvetica,sans-Serif" font-size="10.00">freeradius&#45;devel/radiusd.h</text>
</g>
<!-- Node1&#45;&gt;Node3 -->
<g id="edge4" class="edge"><title>Node1&#45;&gt;Node3</title>
<path fill="none" stroke="midnightblue" d="M458.507,-112.484C384.048,-103.778 264.916,-89.7794 151.869,-76.1531"/>
<polygon fill="midnightblue" stroke="midnightblue" points="151.999,-72.6435 141.652,-74.9205 151.161,-79.5931 151.999,-72.6435"/>
</g>
<!-- Node4 -->
<g id="node7" class="node"><title>Node4</title>
<polygon fill="none" stroke="#bfbfbf" points="159.56,-56.5 159.56,-75.5 293.56,-75.5 293.56,-56.5 159.56,-56.5"/>
<text text-anchor="middle" x="226.56" y="-63.5" font-family="Helvetica,sans-Serif" font-size="10.00">freeradius&#45;devel/modules.h</text>
</g>
<!-- Node1&#45;&gt;Node4 -->
<g id="edge6" class="edge"><title>Node1&#45;&gt;Node4</title>
<path fill="none" stroke="midnightblue" d="M483.232,-112.444C429.356,-102.905 342.253,-87.4834 284.696,-77.293"/>
<polygon fill="midnightblue" stroke="midnightblue" points="285.119,-73.8135 274.662,-75.5164 283.899,-80.7063 285.119,-73.8135"/>
</g>
<!-- Node5 -->
<g id="node9" class="node"><title>Node5</title>
<polygon fill="none" stroke="#bfbfbf" points="312.06,-56.5 312.06,-75.5 455.06,-75.5 455.06,-56.5 312.06,-56.5"/>
<text text-anchor="middle" x="383.56" y="-63.5" font-family="Helvetica,sans-Serif" font-size="10.00">freeradius&#45;devel/rad_assert.h</text>
</g>
<!-- Node1&#45;&gt;Node5 -->
<g id="edge8" class="edge"><title>Node1&#45;&gt;Node5</title>
<path fill="none" stroke="midnightblue" d="M508.109,-112.444C483.427,-103.438 444.375,-89.1891 416.583,-79.049"/>
<polygon fill="midnightblue" stroke="midnightblue" points="417.495,-75.6561 406.901,-75.5164 415.096,-82.2321 417.495,-75.6561"/>
</g>
<!-- Node6 -->
<g id="node11" class="node"><title>Node6</title>
<polygon fill="none" stroke="#bfbfbf" points="473.56,-56.5 473.56,-75.5 589.56,-75.5 589.56,-56.5 473.56,-56.5"/>
<text text-anchor="middle" x="531.56" y="-63.5" font-family="Helvetica,sans-Serif" font-size="10.00">freeradius&#45;devel/md5.h</text>
</g>
<!-- Node1&#45;&gt;Node6 -->
<g id="edge10" class="edge"><title>Node1&#45;&gt;Node6</title>
<path fill="none" stroke="midnightblue" d="M531.56,-112.083C531.56,-105.006 531.56,-94.8611 531.56,-85.9865"/>
<polygon fill="midnightblue" stroke="midnightblue" points="535.06,-85.751 531.56,-75.7511 528.06,-85.7511 535.06,-85.751"/>
</g>
<!-- Node7 -->
<g id="node13" class="node"><title>Node7</title>
<polygon fill="none" stroke="#bfbfbf" points="607.56,-56.5 607.56,-75.5 725.56,-75.5 725.56,-56.5 607.56,-56.5"/>
<text text-anchor="middle" x="666.56" y="-63.5" font-family="Helvetica,sans-Serif" font-size="10.00">freeradius&#45;devel/sha1.h</text>
</g>
<!-- Node1&#45;&gt;Node7 -->
<g id="edge12" class="edge"><title>Node1&#45;&gt;Node7</title>
<path fill="none" stroke="midnightblue" d="M552.951,-112.444C575.267,-103.517 610.463,-89.4387 635.768,-79.3168"/>
<polygon fill="midnightblue" stroke="midnightblue" points="637.284,-82.4801 645.269,-75.5164 634.684,-75.9807 637.284,-82.4801"/>
</g>
<!-- Node8 -->
<g id="node15" class="node"><title>Node8</title>
<polygon fill="none" stroke="#bfbfbf" points="744.06,-56.5 744.06,-75.5 793.06,-75.5 793.06,-56.5 744.06,-56.5"/>
<text text-anchor="middle" x="768.56" y="-63.5" font-family="Helvetica,sans-Serif" font-size="10.00">ctype.h</text>
</g>
<!-- Node1&#45;&gt;Node8 -->
<g id="edge14" class="edge"><title>Node1&#45;&gt;Node8</title>
<path fill="none" stroke="midnightblue" d="M572.499,-112.435C611.492,-104.164 672.069,-91.0203 733.794,-76.1108"/>
<polygon fill="midnightblue" stroke="midnightblue" points="734.816,-79.4645 743.707,-73.7033 733.164,-72.6622 734.816,-79.4645"/>
</g>
<!-- Node9 -->
<g id="node17" class="node"><title>Node9</title>
<a xlink:href="smbdes_8h.html" target="_top" xlink:title="smbdes.h">
<polygon fill="none" stroke="black" points="811.06,-56.5 811.06,-75.5 870.06,-75.5 870.06,-56.5 811.06,-56.5"/>
<text text-anchor="middle" x="840.56" y="-63.5" font-family="Helvetica,sans-Serif" font-size="10.00">smbdes.h</text>
</a>
</g>
<!-- Node1&#45;&gt;Node9 -->
<g id="edge16" class="edge"><title>Node1&#45;&gt;Node9</title>
<path fill="none" stroke="midnightblue" d="M588.895,-112.494C641.432,-104.462 721.589,-91.6127 800.654,-76.0769"/>
<polygon fill="midnightblue" stroke="midnightblue" points="801.661,-79.4455 810.79,-74.0689 800.301,-72.5789 801.661,-79.4455"/>
</g>
<!-- Node10 -->
<g id="node20" class="node"><title>Node10</title>
<a xlink:href="mschap_8h.html" target="_top" xlink:title="mschap.h">
<polygon fill="none" stroke="black" points="888.06,-56.5 888.06,-75.5 947.06,-75.5 947.06,-56.5 888.06,-56.5"/>
<text text-anchor="middle" x="917.56" y="-63.5" font-family="Helvetica,sans-Serif" font-size="10.00">mschap.h</text>
</a>
</g>
<!-- Node1&#45;&gt;Node10 -->
<g id="edge20" class="edge"><title>Node1&#45;&gt;Node10</title>
<path fill="none" stroke="midnightblue" d="M614.995,-112.498C683.163,-105.016 782.188,-92.932 877.957,-75.948"/>
<polygon fill="midnightblue" stroke="midnightblue" points="878.586,-79.3911 887.811,-74.1807 877.351,-72.501 878.586,-79.3911"/>
</g>
<!-- Node9&#45;&gt;Node2 -->
<g id="edge18" class="edge"><title>Node9&#45;&gt;Node2</title>
<path fill="none" stroke="midnightblue" d="M840.56,-56.083C840.56,-49.0059 840.56,-38.8611 840.56,-29.9865"/>
<polygon fill="midnightblue" stroke="midnightblue" points="844.06,-29.751 840.56,-19.7511 837.06,-29.7511 844.06,-29.751"/>
</g>
<!-- Node10&#45;&gt;Node2 -->
<g id="edge22" class="edge"><title>Node10&#45;&gt;Node2</title>
<path fill="none" stroke="midnightblue" d="M905.189,-56.324C893.402,-48.0577 875.428,-35.4527 861.425,-25.6322"/>
<polygon fill="midnightblue" stroke="midnightblue" points="863.098,-22.5307 852.901,-19.6545 859.078,-28.2619 863.098,-22.5307"/>
</g>
</g>
</svg>
        <g id="navigator" transform="translate(0 0)" fill="#404254">
                <rect fill="#f2f5e9" fill-opacity="0.5" stroke="#606060" stroke-width=".5" x="0" y="0" width="60" height="60"/>
                <use id="zoomplus" xlink:href="#zoomPlus" x="17" y="9" onmousedown="handleZoom(evt,'in')"/>
                <use id="zoomminus" xlink:href="#zoomMin" x="42" y="9" onmousedown="handleZoom(evt,'out')"/>
                <use id="reset" xlink:href="#resetDef" x="30" y="36" onmousedown="handleReset()"/>
                <g id="arrowUp" xlink:href="#dirArrow" transform="translate(30 24)" onmousedown="handlePan(0,-1)">
                  <use xlink:href="#rim" fill="#404040">
                        <set attributeName="fill" to="#808080" begin="arrowUp.mouseover" end="arrowUp.mouseout"/>
                  </use>
                  <path fill="none" stroke="white" stroke-width="1.5" d="M0,-3.0v7 M-2.5,-0.5L0,-3.0L2.5,-0.5"/>
                </g>
                <g id="arrowRight" xlink:href="#dirArrow" transform="rotate(90) translate(36 -43)" onmousedown="handlePan(1,0)">
                  <use xlink:href="#rim" fill="#404040">
                        <set attributeName="fill" to="#808080" begin="arrowRight.mouseover" end="arrowRight.mouseout"/>
                  </use>
                  <path fill="none" stroke="white" stroke-width="1.5" d="M0,-3.0v7 M-2.5,-0.5L0,-3.0L2.5,-0.5"/>
                </g>
                <g id="arrowDown" xlink:href="#dirArrow" transform="rotate(180) translate(-30 -48)" onmousedown="handlePan(0,1)">
                  <use xlink:href="#rim" fill="#404040">
                        <set attributeName="fill" to="#808080" begin="arrowDown.mouseover" end="arrowDown.mouseout"/>
                  </use>
                  <path fill="none" stroke="white" stroke-width="1.5" d="M0,-3.0v7 M-2.5,-0.5L0,-3.0L2.5,-0.5"/>
                </g>
                <g id="arrowLeft" xlink:href="#dirArrow" transform="rotate(270) translate(-36 17)" onmousedown="handlePan(-1,0)">
                  <use xlink:href="#rim" fill="#404040">
                        <set attributeName="fill" to="#808080" begin="arrowLeft.mouseover" end="arrowLeft.mouseout"/>
                  </use>
                  <path fill="none" stroke="white" stroke-width="1.5" d="M0,-3.0v7 M-2.5,-0.5L0,-3.0L2.5,-0.5"/>
                </g>
        </g>
</svg>
