<?xml version="1.0" encoding="UTF-8" standalone="no"?>
<!DOCTYPE svg PUBLIC "-//W3C//DTD SVG 1.1//EN"
 "http://www.w3.org/Graphics/SVG/1.1/DTD/svg11.dtd">
<!-- Generated by graphviz version 2.28.0 (20111211.2114)
 -->
<!-- Title: G Pages: 1 -->
<svg width="298pt" height="140pt"
 viewBox="0.00 0.00 298.00 140.00" xmlns="http://www.w3.org/2000/svg" xmlns:xlink="http://www.w3.org/1999/xlink">
<g id="graph1" class="graph" transform="scale(1 1) rotate(0) translate(4 136)">
<title>G</title>
<!-- Node1 -->
<g id="node1" class="node"><title>Node1</title>
<polygon fill="#bfbfbf" stroke="black" points="-0.5,-112.5 -0.5,-131.5 290.5,-131.5 290.5,-112.5 -0.5,-112.5"/>
<text text-anchor="middle" x="145" y="-119.5" font-family="Helvetica,sans-Serif" font-size="10.00">/home/pjm3/freeradius&#45;server/src/modules/rlm_example/other.c</text>
</g>
<!-- Node2 -->
<g id="node3" class="node"><title>Node2</title>
<polygon fill="none" stroke="#bfbfbf" points="93,-0.5 93,-19.5 211,-19.5 211,-0.5 93,-0.5"/>
<text text-anchor="middle" x="152" y="-7.5" font-family="Helvetica,sans-Serif" font-size="10.00">freeradius&#45;devel/ident.h</text>
</g>
<!-- Node1&#45;&gt;Node2 -->
<g id="edge2" class="edge"><title>Node1&#45;&gt;Node2</title>
<path fill="none" stroke="midnightblue" d="M135.719,-112.417C123.702,-100.208 105.175,-76.9771 113,-56 117.173,-44.8124 125.52,-34.5598 133.424,-26.6759"/>
<polygon fill="midnightblue" stroke="midnightblue" points="136.062,-29.0029 141.01,-19.6346 131.299,-23.8724 136.062,-29.0029"/>
</g>
<!-- Node3 -->
<g id="node5" class="node"><title>Node3</title>
<polygon fill="none" stroke="#bfbfbf" points="122,-56.5 122,-75.5 168,-75.5 168,-56.5 122,-56.5"/>
<text text-anchor="middle" x="145" y="-63.5" font-family="Helvetica,sans-Serif" font-size="10.00">stdio.h</text>
</g>
<!-- Node1&#45;&gt;Node3 -->
<g id="edge4" class="edge"><title>Node1&#45;&gt;Node3</title>
<path fill="none" stroke="midnightblue" d="M145,-112.083C145,-105.006 145,-94.8611 145,-85.9865"/>
<polygon fill="midnightblue" stroke="midnightblue" points="148.5,-85.751 145,-75.7511 141.5,-85.7511 148.5,-85.751"/>
</g>
<!-- Node4 -->
<g id="node7" class="node"><title>Node4</title>
<a xlink:href="other_8h.html" target="_top" xlink:title="other.h">
<polygon fill="none" stroke="black" points="186.5,-56.5 186.5,-75.5 233.5,-75.5 233.5,-56.5 186.5,-56.5"/>
<text text-anchor="middle" x="210" y="-63.5" font-family="Helvetica,sans-Serif" font-size="10.00">other.h</text>
</a>
</g>
<!-- Node1&#45;&gt;Node4 -->
<g id="edge6" class="edge"><title>Node1&#45;&gt;Node4</title>
<path fill="none" stroke="midnightblue" d="M155.443,-112.324C165.146,-104.263 179.815,-92.0765 191.5,-82.3695"/>
<polygon fill="midnightblue" stroke="midnightblue" points="193.911,-84.9163 199.367,-75.8339 189.438,-79.532 193.911,-84.9163"/>
</g>
<!-- Node4&#45;&gt;Node2 -->
<g id="edge8" class="edge"><title>Node4&#45;&gt;Node2</title>
<path fill="none" stroke="midnightblue" d="M200.681,-56.324C192.107,-48.3414 179.188,-36.3128 168.812,-26.6529"/>
<polygon fill="midnightblue" stroke="midnightblue" points="171.192,-24.0865 161.488,-19.8339 166.422,-29.2098 171.192,-24.0865"/>
</g>
</g>
</svg>
