<?xml version="1.0" encoding="UTF-8" standalone="no"?>
<!DOCTYPE svg PUBLIC "-//W3C//DTD SVG 1.1//EN"
 "http://www.w3.org/Graphics/SVG/1.1/DTD/svg11.dtd">
<!-- Generated by graphviz version 2.28.0 (20111211.2114)
 -->
<!-- Title: G Pages: 1 -->
<!--zoomable-->
<svg id="main" version="1.1" xmlns="http://www.w3.org/2000/svg" xmlns:xlink="http://www.w3.org/1999/xlink" xml:space="preserve" onload="init(evt)">
        <defs>
                <circle id="rim" cx="0" cy="0" r="7"/>
                <circle id="rim2" cx="0" cy="0" r="3.5"/>
                <g id="zoomPlus">
                        <use xlink:href="#rim" fill="#404040">
                                <set attributeName="fill" to="#808080" begin="zoomplus.mouseover" end="zoomplus.mouseout"/>
                        </use>
                        <path d="M-4,0h8M0,-4v8" fill="none" stroke="white" stroke-width="1.5" pointer-events="none"/>
                </g>
                <g id="zoomMin">
                        <use xlink:href="#rim" fill="#404040">
                                <set attributeName="fill" to="#808080" begin="zoomminus.mouseover" end="zoomminus.mouseout"/>
                        </use>
                        <path d="M-4,0h8" fill="none" stroke="white" stroke-width="1.5" pointer-events="none"/>
                </g>
                <g id="dirArrow">
                        <path fill="none" stroke="white" stroke-width="1.5" d="M0,-3.0v7 M-2.5,-0.5L0,-3.0L2.5,-0.5"/>
                </g>
               <g id="resetDef">
                       <use xlink:href="#rim2" fill="#404040">
                               <set attributeName="fill" to="#808080" begin="reset.mouseover" end="reset.mouseout"/>
                       </use>
               </g>
        </defs>

<script type="text/javascript">
var viewWidth = 912;
var viewHeight = 196;
var sectionId = 'dynsection-0';
</script>
<script xlink:href="svgpan.js"/>
<svg id="graph" class="graph">
<g id="viewport">
<title>G</title>
<!-- Node1 -->
<g id="node1" class="node"><title>Node1</title>
<polygon fill="#bfbfbf" stroke="black" points="298.5,-168.5 298.5,-187.5 587.5,-187.5 587.5,-168.5 298.5,-168.5"/>
<text text-anchor="middle" x="443" y="-175.5" font-family="Helvetica,sans-Serif" font-size="10.00">/home/pjm3/freeradius&#45;server/src/modules/rlm_otp/otp_mppe.c</text>
</g>
<!-- Node2 -->
<g id="node3" class="node"><title>Node2</title>
<polygon fill="none" stroke="#bfbfbf" points="60,-0.5 60,-19.5 178,-19.5 178,-0.5 60,-0.5"/>
<text text-anchor="middle" x="119" y="-7.5" font-family="Helvetica,sans-Serif" font-size="10.00">freeradius&#45;devel/ident.h</text>
</g>
<!-- Node1&#45;&gt;Node2 -->
<g id="edge2" class="edge"><title>Node1&#45;&gt;Node2</title>
<path fill="none" stroke="midnightblue" d="M333.488,-168.489C288.038,-162.173 235.609,-151.169 191,-132 152.452,-115.435 133.923,-113.448 115,-76 107.677,-61.5085 109.829,-42.8207 113.13,-29.205"/>
<polygon fill="midnightblue" stroke="midnightblue" points="116.507,-30.1253 115.864,-19.55 109.772,-28.2178 116.507,-30.1253"/>
</g>
<!-- Node3 -->
<g id="node5" class="node"><title>Node3</title>
<polygon fill="none" stroke="#bfbfbf" points="307.5,-112.5 307.5,-131.5 450.5,-131.5 450.5,-112.5 307.5,-112.5"/>
<text text-anchor="middle" x="379" y="-119.5" font-family="Helvetica,sans-Serif" font-size="10.00">freeradius&#45;devel/rad_assert.h</text>
</g>
<!-- Node1&#45;&gt;Node3 -->
<g id="edge4" class="edge"><title>Node1&#45;&gt;Node3</title>
<path fill="none" stroke="midnightblue" d="M432.717,-168.324C423.164,-160.263 408.72,-148.077 397.216,-138.369"/>
<polygon fill="midnightblue" stroke="midnightblue" points="399.37,-135.608 389.47,-131.834 394.856,-140.958 399.37,-135.608"/>
</g>
<!-- Node4 -->
<g id="node7" class="node"><title>Node4</title>
<a xlink:href="extern_8h.html" target="_top" xlink:title="extern.h">
<polygon fill="none" stroke="black" points="237,-112.5 237,-131.5 289,-131.5 289,-112.5 237,-112.5"/>
<text text-anchor="middle" x="263" y="-119.5" font-family="Helvetica,sans-Serif" font-size="10.00">extern.h</text>
</a>
</g>
<!-- Node1&#45;&gt;Node4 -->
<g id="edge6" class="edge"><title>Node1&#45;&gt;Node4</title>
<path fill="none" stroke="midnightblue" d="M414.478,-168.444C383.215,-159.064 332.993,-143.998 299.03,-133.809"/>
<polygon fill="midnightblue" stroke="midnightblue" points="299.634,-130.336 289.05,-130.815 297.623,-137.041 299.634,-130.336"/>
</g>
<!-- Node10 -->
<g id="node20" class="node"><title>Node10</title>
<a xlink:href="otp_8h.html" target="_top" xlink:title="otp.h">
<polygon fill="none" stroke="black" points="124,-56.5 124,-75.5 162,-75.5 162,-56.5 124,-56.5"/>
<text text-anchor="middle" x="143" y="-63.5" font-family="Helvetica,sans-Serif" font-size="10.00">otp.h</text>
</a>
</g>
<!-- Node1&#45;&gt;Node10 -->
<g id="edge26" class="edge"><title>Node1&#45;&gt;Node10</title>
<path fill="none" stroke="midnightblue" d="M360.403,-168.491C319.238,-162.092 269.518,-151.02 228,-132 201.249,-119.745 175.062,-97.7722 158.981,-82.798"/>
<polygon fill="midnightblue" stroke="midnightblue" points="161.193,-80.0702 151.544,-75.694 156.358,-85.1321 161.193,-80.0702"/>
</g>
<!-- Node11 -->
<g id="node25" class="node"><title>Node11</title>
<a xlink:href="otp__mppe_8h.html" target="_top" xlink:title="otp_mppe.h">
<polygon fill="none" stroke="black" points="0,-56.5 0,-75.5 68,-75.5 68,-56.5 0,-56.5"/>
<text text-anchor="middle" x="34" y="-63.5" font-family="Helvetica,sans-Serif" font-size="10.00">otp_mppe.h</text>
</a>
</g>
<!-- Node1&#45;&gt;Node11 -->
<g id="edge28" class="edge"><title>Node1&#45;&gt;Node11</title>
<path fill="none" stroke="midnightblue" d="M298.177,-170.507C214.274,-164.527 118.252,-153.21 82,-132 63.5049,-121.179 49.9918,-100.13 42.1002,-84.9106"/>
<polygon fill="midnightblue" stroke="midnightblue" points="45.0524,-82.9767 37.5427,-75.5031 38.7528,-86.0286 45.0524,-82.9767"/>
</g>
<!-- Node12 -->
<g id="node28" class="node"><title>Node12</title>
<polygon fill="none" stroke="#bfbfbf" points="468.5,-112.5 468.5,-131.5 545.5,-131.5 545.5,-112.5 468.5,-112.5"/>
<text text-anchor="middle" x="507" y="-119.5" font-family="Helvetica,sans-Serif" font-size="10.00">openssl/des.h</text>
</g>
<!-- Node1&#45;&gt;Node12 -->
<g id="edge32" class="edge"><title>Node1&#45;&gt;Node12</title>
<path fill="none" stroke="midnightblue" d="M453.283,-168.324C462.836,-160.263 477.28,-148.077 488.784,-138.369"/>
<polygon fill="midnightblue" stroke="midnightblue" points="491.144,-140.958 496.53,-131.834 486.63,-135.608 491.144,-140.958"/>
</g>
<!-- Node13 -->
<g id="node30" class="node"><title>Node13</title>
<polygon fill="none" stroke="#bfbfbf" points="564,-112.5 564,-131.5 644,-131.5 644,-112.5 564,-112.5"/>
<text text-anchor="middle" x="604" y="-119.5" font-family="Helvetica,sans-Serif" font-size="10.00">openssl/md4.h</text>
</g>
<!-- Node1&#45;&gt;Node13 -->
<g id="edge34" class="edge"><title>Node1&#45;&gt;Node13</title>
<path fill="none" stroke="midnightblue" d="M468.511,-168.444C495.596,-159.359 538.59,-144.939 568.869,-134.783"/>
<polygon fill="midnightblue" stroke="midnightblue" points="570.24,-138.015 578.608,-131.516 568.014,-131.378 570.24,-138.015"/>
</g>
<!-- Node14 -->
<g id="node32" class="node"><title>Node14</title>
<polygon fill="none" stroke="#bfbfbf" points="662,-112.5 662,-131.5 742,-131.5 742,-112.5 662,-112.5"/>
<text text-anchor="middle" x="702" y="-119.5" font-family="Helvetica,sans-Serif" font-size="10.00">openssl/md5.h</text>
</g>
<!-- Node1&#45;&gt;Node14 -->
<g id="edge36" class="edge"><title>Node1&#45;&gt;Node14</title>
<path fill="none" stroke="midnightblue" d="M484.039,-168.444C529.449,-158.976 602.656,-143.713 651.537,-133.521"/>
<polygon fill="midnightblue" stroke="midnightblue" points="652.504,-136.895 661.579,-131.428 651.075,-130.042 652.504,-136.895"/>
</g>
<!-- Node15 -->
<g id="node34" class="node"><title>Node15</title>
<polygon fill="none" stroke="#bfbfbf" points="760.5,-112.5 760.5,-131.5 837.5,-131.5 837.5,-112.5 760.5,-112.5"/>
<text text-anchor="middle" x="799" y="-119.5" font-family="Helvetica,sans-Serif" font-size="10.00">openssl/sha.h</text>
</g>
<!-- Node1&#45;&gt;Node15 -->
<g id="edge38" class="edge"><title>Node1&#45;&gt;Node15</title>
<path fill="none" stroke="midnightblue" d="M506.529,-168.479C566.694,-160.237 659.816,-147.033 750.365,-132.049"/>
<polygon fill="midnightblue" stroke="midnightblue" points="750.961,-135.498 760.251,-130.404 749.812,-128.593 750.961,-135.498"/>
</g>
<!-- Node16 -->
<g id="node36" class="node"><title>Node16</title>
<polygon fill="none" stroke="#bfbfbf" points="855.5,-112.5 855.5,-131.5 904.5,-131.5 904.5,-112.5 855.5,-112.5"/>
<text text-anchor="middle" x="880" y="-119.5" font-family="Helvetica,sans-Serif" font-size="10.00">string.h</text>
</g>
<!-- Node1&#45;&gt;Node16 -->
<g id="edge40" class="edge"><title>Node1&#45;&gt;Node16</title>
<path fill="none" stroke="midnightblue" d="M560.507,-168.483C638.654,-161.732 743.656,-150.584 845.093,-131.905"/>
<polygon fill="midnightblue" stroke="midnightblue" points="846.027,-135.291 855.214,-130.013 844.741,-128.41 846.027,-135.291"/>
</g>
<!-- Node4&#45;&gt;Node2 -->
<g id="edge8" class="edge"><title>Node4&#45;&gt;Node2</title>
<path fill="none" stroke="midnightblue" d="M251.701,-112.368C227.2,-93.6531 168.943,-49.1509 138.417,-25.8324"/>
<polygon fill="midnightblue" stroke="midnightblue" points="140.318,-22.8805 130.247,-19.5914 136.069,-28.4432 140.318,-22.8805"/>
</g>
<!-- Node5 -->
<g id="node10" class="node"><title>Node5</title>
<polygon fill="none" stroke="#bfbfbf" points="484,-56.5 484,-75.5 618,-75.5 618,-56.5 484,-56.5"/>
<text text-anchor="middle" x="551" y="-63.5" font-family="Helvetica,sans-Serif" font-size="10.00">freeradius&#45;devel/autoconf.h</text>
</g>
<!-- Node4&#45;&gt;Node5 -->
<g id="edge10" class="edge"><title>Node4&#45;&gt;Node5</title>
<path fill="none" stroke="midnightblue" d="M289.298,-114.205C292.557,-113.428 295.85,-112.674 299,-112 362.761,-98.3536 436.21,-85.5683 487.299,-77.1394"/>
<polygon fill="midnightblue" stroke="midnightblue" points="487.908,-80.5863 497.209,-75.5127 486.774,-73.6787 487.908,-80.5863"/>
</g>
<!-- Node6 -->
<g id="node12" class="node"><title>Node6</title>
<polygon fill="none" stroke="#bfbfbf" points="636,-56.5 636,-75.5 764,-75.5 764,-56.5 636,-56.5"/>
<text text-anchor="middle" x="700" y="-63.5" font-family="Helvetica,sans-Serif" font-size="10.00">freeradius&#45;devel/radiusd.h</text>
</g>
<!-- Node4&#45;&gt;Node6 -->
<g id="edge12" class="edge"><title>Node4&#45;&gt;Node6</title>
<path fill="none" stroke="midnightblue" d="M289.257,-113.999C292.524,-113.257 295.829,-112.568 299,-112 440.116,-86.7367 479.573,-92.683 625.67,-76.1278"/>
<polygon fill="midnightblue" stroke="midnightblue" points="626.377,-79.5697 635.912,-74.9504 625.577,-72.6155 626.377,-79.5697"/>
</g>
<!-- Node7 -->
<g id="node14" class="node"><title>Node7</title>
<polygon fill="none" stroke="#bfbfbf" points="218,-56.5 218,-75.5 352,-75.5 352,-56.5 218,-56.5"/>
<text text-anchor="middle" x="285" y="-63.5" font-family="Helvetica,sans-Serif" font-size="10.00">freeradius&#45;devel/modules.h</text>
</g>
<!-- Node4&#45;&gt;Node7 -->
<g id="edge14" class="edge"><title>Node4&#45;&gt;Node7</title>
<path fill="none" stroke="midnightblue" d="M266.633,-112.083C269.612,-104.77 273.926,-94.1814 277.625,-85.1034"/>
<polygon fill="midnightblue" stroke="midnightblue" points="280.903,-86.3326 281.435,-75.7511 274.42,-83.6914 280.903,-86.3326"/>
</g>
<!-- Node8 -->
<g id="node16" class="node"><title>Node8</title>
<polygon fill="none" stroke="#bfbfbf" points="320,-0.5 320,-19.5 388,-19.5 388,-0.5 320,-0.5"/>
<text text-anchor="middle" x="354" y="-7.5" font-family="Helvetica,sans-Serif" font-size="10.00">sys/types.h</text>
</g>
<!-- Node4&#45;&gt;Node8 -->
<g id="edge16" class="edge"><title>Node4&#45;&gt;Node8</title>
<path fill="none" stroke="midnightblue" d="M289.067,-114.435C337.108,-102.306 434.855,-77.4808 436,-76 453.121,-53.8559 419.927,-34.821 390.783,-23.1746"/>
<polygon fill="midnightblue" stroke="midnightblue" points="391.724,-19.7884 381.133,-19.5143 389.242,-26.3334 391.724,-19.7884"/>
</g>
<!-- Node9 -->
<g id="node18" class="node"><title>Node9</title>
<polygon fill="none" stroke="#bfbfbf" points="370.5,-56.5 370.5,-75.5 427.5,-75.5 427.5,-56.5 370.5,-56.5"/>
<text text-anchor="middle" x="399" y="-63.5" font-family="Helvetica,sans-Serif" font-size="10.00">pthread.h</text>
</g>
<!-- Node4&#45;&gt;Node9 -->
<g id="edge18" class="edge"><title>Node4&#45;&gt;Node9</title>
<path fill="none" stroke="midnightblue" d="M284.55,-112.444C307.031,-103.517 342.488,-89.4387 367.98,-79.3168"/>
<polygon fill="midnightblue" stroke="midnightblue" points="369.549,-82.4598 377.551,-75.5164 366.965,-75.9539 369.549,-82.4598"/>
</g>
<!-- Node4&#45;&gt;Node10 -->
<g id="edge20" class="edge"><title>Node4&#45;&gt;Node10</title>
<path fill="none" stroke="midnightblue" d="M243.986,-112.444C224.412,-103.636 193.692,-89.8116 171.271,-79.722"/>
<polygon fill="midnightblue" stroke="midnightblue" points="172.481,-76.4284 161.925,-75.5164 169.608,-82.8119 172.481,-76.4284"/>
</g>
<!-- Node10&#45;&gt;Node2 -->
<g id="edge22" class="edge"><title>Node10&#45;&gt;Node2</title>
<path fill="none" stroke="midnightblue" d="M139.037,-56.083C135.787,-48.77 131.081,-38.1814 127.046,-29.1034"/>
<polygon fill="midnightblue" stroke="midnightblue" points="130.149,-27.4677 122.889,-19.7511 123.752,-30.3107 130.149,-27.4677"/>
</g>
<!-- Node10&#45;&gt;Node8 -->
<g id="edge24" class="edge"><title>Node10&#45;&gt;Node8</title>
<path fill="none" stroke="midnightblue" d="M162.097,-60.1126C195.483,-51.5683 265.239,-33.716 310.814,-22.0522"/>
<polygon fill="midnightblue" stroke="midnightblue" points="311.894,-25.3889 320.714,-19.5188 310.158,-18.6074 311.894,-25.3889"/>
</g>
<!-- Node11&#45;&gt;Node2 -->
<g id="edge30" class="edge"><title>Node11&#45;&gt;Node2</title>
<path fill="none" stroke="midnightblue" d="M47.6567,-56.324C60.9163,-47.9002 81.268,-34.9709 96.8462,-25.0741"/>
<polygon fill="midnightblue" stroke="midnightblue" points="98.8133,-27.9711 105.377,-19.6545 95.0596,-22.0626 98.8133,-27.9711"/>
</g>
</g>
</svg>
        <g id="navigator" transform="translate(0 0)" fill="#404254">
                <rect fill="#f2f5e9" fill-opacity="0.5" stroke="#606060" stroke-width=".5" x="0" y="0" width="60" height="60"/>
                <use id="zoomplus" xlink:href="#zoomPlus" x="17" y="9" onmousedown="handleZoom(evt,'in')"/>
                <use id="zoomminus" xlink:href="#zoomMin" x="42" y="9" onmousedown="handleZoom(evt,'out')"/>
                <use id="reset" xlink:href="#resetDef" x="30" y="36" onmousedown="handleReset()"/>
                <g id="arrowUp" xlink:href="#dirArrow" transform="translate(30 24)" onmousedown="handlePan(0,-1)">
                  <use xlink:href="#rim" fill="#404040">
                        <set attributeName="fill" to="#808080" begin="arrowUp.mouseover" end="arrowUp.mouseout"/>
                  </use>
                  <path fill="none" stroke="white" stroke-width="1.5" d="M0,-3.0v7 M-2.5,-0.5L0,-3.0L2.5,-0.5"/>
                </g>
                <g id="arrowRight" xlink:href="#dirArrow" transform="rotate(90) translate(36 -43)" onmousedown="handlePan(1,0)">
                  <use xlink:href="#rim" fill="#404040">
                        <set attributeName="fill" to="#808080" begin="arrowRight.mouseover" end="arrowRight.mouseout"/>
                  </use>
                  <path fill="none" stroke="white" stroke-width="1.5" d="M0,-3.0v7 M-2.5,-0.5L0,-3.0L2.5,-0.5"/>
                </g>
                <g id="arrowDown" xlink:href="#dirArrow" transform="rotate(180) translate(-30 -48)" onmousedown="handlePan(0,1)">
                  <use xlink:href="#rim" fill="#404040">
                        <set attributeName="fill" to="#808080" begin="arrowDown.mouseover" end="arrowDown.mouseout"/>
                  </use>
                  <path fill="none" stroke="white" stroke-width="1.5" d="M0,-3.0v7 M-2.5,-0.5L0,-3.0L2.5,-0.5"/>
                </g>
                <g id="arrowLeft" xlink:href="#dirArrow" transform="rotate(270) translate(-36 17)" onmousedown="handlePan(-1,0)">
                  <use xlink:href="#rim" fill="#404040">
                        <set attributeName="fill" to="#808080" begin="arrowLeft.mouseover" end="arrowLeft.mouseout"/>
                  </use>
                  <path fill="none" stroke="white" stroke-width="1.5" d="M0,-3.0v7 M-2.5,-0.5L0,-3.0L2.5,-0.5"/>
                </g>
        </g>
</svg>
