<?xml version="1.0" encoding="UTF-8" standalone="no"?>
<!DOCTYPE svg PUBLIC "-//W3C//DTD SVG 1.1//EN"
 "http://www.w3.org/Graphics/SVG/1.1/DTD/svg11.dtd">
<!-- Generated by graphviz version 2.28.0 (20111211.2114)
 -->
<!-- Title: G Pages: 1 -->
<!--zoomable-->
<svg id="main" version="1.1" xmlns="http://www.w3.org/2000/svg" xmlns:xlink="http://www.w3.org/1999/xlink" xml:space="preserve" onload="init(evt)">
        <defs>
                <circle id="rim" cx="0" cy="0" r="7"/>
                <circle id="rim2" cx="0" cy="0" r="3.5"/>
                <g id="zoomPlus">
                        <use xlink:href="#rim" fill="#404040">
                                <set attributeName="fill" to="#808080" begin="zoomplus.mouseover" end="zoomplus.mouseout"/>
                        </use>
                        <path d="M-4,0h8M0,-4v8" fill="none" stroke="white" stroke-width="1.5" pointer-events="none"/>
                </g>
                <g id="zoomMin">
                        <use xlink:href="#rim" fill="#404040">
                                <set attributeName="fill" to="#808080" begin="zoomminus.mouseover" end="zoomminus.mouseout"/>
                        </use>
                        <path d="M-4,0h8" fill="none" stroke="white" stroke-width="1.5" pointer-events="none"/>
                </g>
                <g id="dirArrow">
                        <path fill="none" stroke="white" stroke-width="1.5" d="M0,-3.0v7 M-2.5,-0.5L0,-3.0L2.5,-0.5"/>
                </g>
               <g id="resetDef">
                       <use xlink:href="#rim2" fill="#404040">
                               <set attributeName="fill" to="#808080" begin="reset.mouseover" end="reset.mouseout"/>
                       </use>
               </g>
        </defs>

<script type="text/javascript">
var viewWidth = 1140;
var viewHeight = 196;
var sectionId = 'dynsection-0';
</script>
<script xlink:href="svgpan.js"/>
<svg id="graph" class="graph">
<g id="viewport">
<title>G</title>
<!-- Node1 -->
<g id="node1" class="node"><title>Node1</title>
<polygon fill="#bfbfbf" stroke="black" points="593.5,-168.5 593.5,-187.5 876.5,-187.5 876.5,-168.5 593.5,-168.5"/>
<text text-anchor="middle" x="735" y="-175.5" font-family="Helvetica,sans-Serif" font-size="10.00">/home/pjm3/freeradius&#45;server/src/modules/rlm_otp/otp_pwe.c</text>
</g>
<!-- Node2 -->
<g id="node3" class="node"><title>Node2</title>
<polygon fill="none" stroke="#bfbfbf" points="419,-0.5 419,-19.5 537,-19.5 537,-0.5 419,-0.5"/>
<text text-anchor="middle" x="478" y="-7.5" font-family="Helvetica,sans-Serif" font-size="10.00">freeradius&#45;devel/ident.h</text>
</g>
<!-- Node1&#45;&gt;Node2 -->
<g id="edge2" class="edge"><title>Node1&#45;&gt;Node2</title>
<path fill="none" stroke="midnightblue" d="M723.91,-168.233C713.682,-159.748 698.533,-146.129 688,-132 665.308,-101.562 678.592,-79.7838 649,-56 620.376,-32.9947 581.165,-21.6635 547.51,-16.1194"/>
<polygon fill="midnightblue" stroke="midnightblue" points="547.672,-12.6044 537.262,-14.5781 546.63,-19.5265 547.672,-12.6044"/>
</g>
<!-- Node3 -->
<g id="node5" class="node"><title>Node3</title>
<polygon fill="none" stroke="#bfbfbf" points="0,-56.5 0,-75.5 128,-75.5 128,-56.5 0,-56.5"/>
<text text-anchor="middle" x="64" y="-63.5" font-family="Helvetica,sans-Serif" font-size="10.00">freeradius&#45;devel/radiusd.h</text>
</g>
<!-- Node1&#45;&gt;Node3 -->
<g id="edge4" class="edge"><title>Node1&#45;&gt;Node3</title>
<path fill="none" stroke="midnightblue" d="M638.84,-168.466C561.354,-160.918 449.761,-148.535 353,-132 264.714,-116.914 162.796,-92.2705 106.654,-78.0561"/>
<polygon fill="midnightblue" stroke="midnightblue" points="107.272,-74.6019 96.718,-75.528 105.546,-81.3858 107.272,-74.6019"/>
</g>
<!-- Node4 -->
<g id="node7" class="node"><title>Node4</title>
<polygon fill="none" stroke="#bfbfbf" points="496.5,-112.5 496.5,-131.5 639.5,-131.5 639.5,-112.5 496.5,-112.5"/>
<text text-anchor="middle" x="568" y="-119.5" font-family="Helvetica,sans-Serif" font-size="10.00">freeradius&#45;devel/rad_assert.h</text>
</g>
<!-- Node1&#45;&gt;Node4 -->
<g id="edge6" class="edge"><title>Node1&#45;&gt;Node4</title>
<path fill="none" stroke="midnightblue" d="M708.538,-168.444C680.322,-159.32 635.46,-144.813 604.032,-134.651"/>
<polygon fill="midnightblue" stroke="midnightblue" points="604.93,-131.263 594.338,-131.516 602.776,-137.923 604.93,-131.263"/>
</g>
<!-- Node5 -->
<g id="node9" class="node"><title>Node5</title>
<a xlink:href="extern_8h.html" target="_top" xlink:title="extern.h">
<polygon fill="none" stroke="black" points="362,-112.5 362,-131.5 414,-131.5 414,-112.5 362,-112.5"/>
<text text-anchor="middle" x="388" y="-119.5" font-family="Helvetica,sans-Serif" font-size="10.00">extern.h</text>
</a>
</g>
<!-- Node1&#45;&gt;Node5 -->
<g id="edge8" class="edge"><title>Node1&#45;&gt;Node5</title>
<path fill="none" stroke="midnightblue" d="M680.017,-168.444C608.298,-157.283 484.825,-138.068 424.001,-128.602"/>
<polygon fill="midnightblue" stroke="midnightblue" points="424.515,-125.14 414.096,-127.061 423.439,-132.057 424.515,-125.14"/>
</g>
<!-- Node11 -->
<g id="node25" class="node"><title>Node11</title>
<polygon fill="none" stroke="#bfbfbf" points="696.5,-112.5 696.5,-131.5 773.5,-131.5 773.5,-112.5 696.5,-112.5"/>
<text text-anchor="middle" x="735" y="-119.5" font-family="Helvetica,sans-Serif" font-size="10.00">openssl/des.h</text>
</g>
<!-- Node1&#45;&gt;Node11 -->
<g id="edge28" class="edge"><title>Node1&#45;&gt;Node11</title>
<path fill="none" stroke="midnightblue" d="M735,-168.083C735,-161.006 735,-150.861 735,-141.986"/>
<polygon fill="midnightblue" stroke="midnightblue" points="738.5,-141.751 735,-131.751 731.5,-141.751 738.5,-141.751"/>
</g>
<!-- Node12 -->
<g id="node27" class="node"><title>Node12</title>
<polygon fill="none" stroke="#bfbfbf" points="792,-112.5 792,-131.5 872,-131.5 872,-112.5 792,-112.5"/>
<text text-anchor="middle" x="832" y="-119.5" font-family="Helvetica,sans-Serif" font-size="10.00">openssl/md4.h</text>
</g>
<!-- Node1&#45;&gt;Node12 -->
<g id="edge30" class="edge"><title>Node1&#45;&gt;Node12</title>
<path fill="none" stroke="midnightblue" d="M750.585,-168.324C765.999,-159.743 789.812,-146.486 807.71,-136.522"/>
<polygon fill="midnightblue" stroke="midnightblue" points="809.419,-139.577 816.454,-131.655 806.014,-133.461 809.419,-139.577"/>
</g>
<!-- Node13 -->
<g id="node29" class="node"><title>Node13</title>
<polygon fill="none" stroke="#bfbfbf" points="890,-112.5 890,-131.5 970,-131.5 970,-112.5 890,-112.5"/>
<text text-anchor="middle" x="930" y="-119.5" font-family="Helvetica,sans-Serif" font-size="10.00">openssl/md5.h</text>
</g>
<!-- Node1&#45;&gt;Node13 -->
<g id="edge32" class="edge"><title>Node1&#45;&gt;Node13</title>
<path fill="none" stroke="midnightblue" d="M765.898,-168.444C799.274,-159.201 852.594,-144.436 889.349,-134.257"/>
<polygon fill="midnightblue" stroke="midnightblue" points="890.543,-137.558 899.246,-131.516 888.675,-130.812 890.543,-137.558"/>
</g>
<!-- Node14 -->
<g id="node31" class="node"><title>Node14</title>
<polygon fill="none" stroke="#bfbfbf" points="988.5,-112.5 988.5,-131.5 1065.5,-131.5 1065.5,-112.5 988.5,-112.5"/>
<text text-anchor="middle" x="1027" y="-119.5" font-family="Helvetica,sans-Serif" font-size="10.00">openssl/sha.h</text>
</g>
<!-- Node1&#45;&gt;Node14 -->
<g id="edge34" class="edge"><title>Node1&#45;&gt;Node14</title>
<path fill="none" stroke="midnightblue" d="M781.33,-168.498C828.307,-159.867 903.384,-146.049 978.39,-132.109"/>
<polygon fill="midnightblue" stroke="midnightblue" points="979.298,-135.5 988.489,-130.231 978.018,-128.618 979.298,-135.5"/>
</g>
<!-- Node15 -->
<g id="node33" class="node"><title>Node15</title>
<polygon fill="none" stroke="#bfbfbf" points="1083.5,-112.5 1083.5,-131.5 1132.5,-131.5 1132.5,-112.5 1083.5,-112.5"/>
<text text-anchor="middle" x="1108" y="-119.5" font-family="Helvetica,sans-Serif" font-size="10.00">string.h</text>
</g>
<!-- Node1&#45;&gt;Node15 -->
<g id="edge36" class="edge"><title>Node1&#45;&gt;Node15</title>
<path fill="none" stroke="midnightblue" d="M822.237,-168.497C888.583,-161.317 982.252,-149.654 1073.27,-131.916"/>
<polygon fill="midnightblue" stroke="midnightblue" points="1074.07,-135.325 1083.2,-129.953 1072.71,-128.458 1074.07,-135.325"/>
</g>
<!-- Node5&#45;&gt;Node2 -->
<g id="edge10" class="edge"><title>Node5&#45;&gt;Node2</title>
<path fill="none" stroke="midnightblue" d="M408.928,-112.369C424.564,-104.91 445.339,-92.6898 458,-76 468.248,-62.4914 473.292,-43.6837 475.746,-29.7734"/>
<polygon fill="midnightblue" stroke="midnightblue" points="479.211,-30.2661 477.208,-19.8623 472.286,-29.2441 479.211,-30.2661"/>
</g>
<!-- Node5&#45;&gt;Node3 -->
<g id="edge14" class="edge"><title>Node5&#45;&gt;Node3</title>
<path fill="none" stroke="midnightblue" d="M361.76,-116.627C310.642,-108.107 196.503,-89.0838 125.324,-77.2206"/>
<polygon fill="midnightblue" stroke="midnightblue" points="125.585,-73.716 115.146,-75.5243 124.435,-80.6208 125.585,-73.716"/>
</g>
<!-- Node6 -->
<g id="node12" class="node"><title>Node6</title>
<polygon fill="none" stroke="#bfbfbf" points="506,-56.5 506,-75.5 640,-75.5 640,-56.5 506,-56.5"/>
<text text-anchor="middle" x="573" y="-63.5" font-family="Helvetica,sans-Serif" font-size="10.00">freeradius&#45;devel/autoconf.h</text>
</g>
<!-- Node5&#45;&gt;Node6 -->
<g id="edge12" class="edge"><title>Node5&#45;&gt;Node6</title>
<path fill="none" stroke="midnightblue" d="M414.114,-113.378C445.341,-104.263 497.902,-88.9205 533.96,-78.3954"/>
<polygon fill="midnightblue" stroke="midnightblue" points="535.043,-81.7255 543.661,-75.5637 533.081,-75.0059 535.043,-81.7255"/>
</g>
<!-- Node7 -->
<g id="node15" class="node"><title>Node7</title>
<polygon fill="none" stroke="#bfbfbf" points="184,-56.5 184,-75.5 318,-75.5 318,-56.5 184,-56.5"/>
<text text-anchor="middle" x="251" y="-63.5" font-family="Helvetica,sans-Serif" font-size="10.00">freeradius&#45;devel/modules.h</text>
</g>
<!-- Node5&#45;&gt;Node7 -->
<g id="edge16" class="edge"><title>Node5&#45;&gt;Node7</title>
<path fill="none" stroke="midnightblue" d="M366.292,-112.444C343.645,-103.517 307.928,-89.4387 282.248,-79.3168"/>
<polygon fill="midnightblue" stroke="midnightblue" points="283.193,-75.9273 272.606,-75.5164 280.626,-82.4397 283.193,-75.9273"/>
</g>
<!-- Node8 -->
<g id="node17" class="node"><title>Node8</title>
<polygon fill="none" stroke="#bfbfbf" points="221,-0.5 221,-19.5 289,-19.5 289,-0.5 221,-0.5"/>
<text text-anchor="middle" x="255" y="-7.5" font-family="Helvetica,sans-Serif" font-size="10.00">sys/types.h</text>
</g>
<!-- Node5&#45;&gt;Node8 -->
<g id="edge18" class="edge"><title>Node5&#45;&gt;Node8</title>
<path fill="none" stroke="midnightblue" d="M361.833,-119.456C310.218,-115.808 198.268,-104.697 175,-76 157.533,-54.4571 190.535,-35.1755 219.3,-23.3127"/>
<polygon fill="midnightblue" stroke="midnightblue" points="220.782,-26.4911 228.814,-19.5816 218.226,-19.9744 220.782,-26.4911"/>
</g>
<!-- Node9 -->
<g id="node19" class="node"><title>Node9</title>
<polygon fill="none" stroke="#bfbfbf" points="392.5,-56.5 392.5,-75.5 449.5,-75.5 449.5,-56.5 392.5,-56.5"/>
<text text-anchor="middle" x="421" y="-63.5" font-family="Helvetica,sans-Serif" font-size="10.00">pthread.h</text>
</g>
<!-- Node5&#45;&gt;Node9 -->
<g id="edge20" class="edge"><title>Node5&#45;&gt;Node9</title>
<path fill="none" stroke="midnightblue" d="M393.449,-112.083C398.014,-104.613 404.668,-93.7244 410.293,-84.5199"/>
<polygon fill="midnightblue" stroke="midnightblue" points="413.424,-86.109 415.652,-75.7511 407.451,-82.4588 413.424,-86.109"/>
</g>
<!-- Node10 -->
<g id="node21" class="node"><title>Node10</title>
<a xlink:href="otp_8h.html" target="_top" xlink:title="otp.h">
<polygon fill="none" stroke="black" points="336,-56.5 336,-75.5 374,-75.5 374,-56.5 336,-56.5"/>
<text text-anchor="middle" x="355" y="-63.5" font-family="Helvetica,sans-Serif" font-size="10.00">otp.h</text>
</a>
</g>
<!-- Node5&#45;&gt;Node10 -->
<g id="edge22" class="edge"><title>Node5&#45;&gt;Node10</title>
<path fill="none" stroke="midnightblue" d="M382.551,-112.083C377.986,-104.613 371.332,-93.7244 365.707,-84.5199"/>
<polygon fill="midnightblue" stroke="midnightblue" points="368.549,-82.4588 360.348,-75.7511 362.576,-86.109 368.549,-82.4588"/>
</g>
<!-- Node10&#45;&gt;Node2 -->
<g id="edge24" class="edge"><title>Node10&#45;&gt;Node2</title>
<path fill="none" stroke="midnightblue" d="M374.219,-56.5625C394.32,-47.7377 426.1,-33.7853 449.201,-23.6436"/>
<polygon fill="midnightblue" stroke="midnightblue" points="450.761,-26.7812 458.51,-19.5565 447.947,-20.3717 450.761,-26.7812"/>
</g>
<!-- Node10&#45;&gt;Node8 -->
<g id="edge26" class="edge"><title>Node10&#45;&gt;Node8</title>
<path fill="none" stroke="midnightblue" d="M338.933,-56.324C323.042,-47.7428 298.493,-34.486 280.042,-24.5224"/>
<polygon fill="midnightblue" stroke="midnightblue" points="281.489,-21.3264 271.027,-19.6545 278.163,-27.4857 281.489,-21.3264"/>
</g>
</g>
</svg>
        <g id="navigator" transform="translate(0 0)" fill="#404254">
                <rect fill="#f2f5e9" fill-opacity="0.5" stroke="#606060" stroke-width=".5" x="0" y="0" width="60" height="60"/>
                <use id="zoomplus" xlink:href="#zoomPlus" x="17" y="9" onmousedown="handleZoom(evt,'in')"/>
                <use id="zoomminus" xlink:href="#zoomMin" x="42" y="9" onmousedown="handleZoom(evt,'out')"/>
                <use id="reset" xlink:href="#resetDef" x="30" y="36" onmousedown="handleReset()"/>
                <g id="arrowUp" xlink:href="#dirArrow" transform="translate(30 24)" onmousedown="handlePan(0,-1)">
                  <use xlink:href="#rim" fill="#404040">
                        <set attributeName="fill" to="#808080" begin="arrowUp.mouseover" end="arrowUp.mouseout"/>
                  </use>
                  <path fill="none" stroke="white" stroke-width="1.5" d="M0,-3.0v7 M-2.5,-0.5L0,-3.0L2.5,-0.5"/>
                </g>
                <g id="arrowRight" xlink:href="#dirArrow" transform="rotate(90) translate(36 -43)" onmousedown="handlePan(1,0)">
                  <use xlink:href="#rim" fill="#404040">
                        <set attributeName="fill" to="#808080" begin="arrowRight.mouseover" end="arrowRight.mouseout"/>
                  </use>
                  <path fill="none" stroke="white" stroke-width="1.5" d="M0,-3.0v7 M-2.5,-0.5L0,-3.0L2.5,-0.5"/>
                </g>
                <g id="arrowDown" xlink:href="#dirArrow" transform="rotate(180) translate(-30 -48)" onmousedown="handlePan(0,1)">
                  <use xlink:href="#rim" fill="#404040">
                        <set attributeName="fill" to="#808080" begin="arrowDown.mouseover" end="arrowDown.mouseout"/>
                  </use>
                  <path fill="none" stroke="white" stroke-width="1.5" d="M0,-3.0v7 M-2.5,-0.5L0,-3.0L2.5,-0.5"/>
                </g>
                <g id="arrowLeft" xlink:href="#dirArrow" transform="rotate(270) translate(-36 17)" onmousedown="handlePan(-1,0)">
                  <use xlink:href="#rim" fill="#404040">
                        <set attributeName="fill" to="#808080" begin="arrowLeft.mouseover" end="arrowLeft.mouseout"/>
                  </use>
                  <path fill="none" stroke="white" stroke-width="1.5" d="M0,-3.0v7 M-2.5,-0.5L0,-3.0L2.5,-0.5"/>
                </g>
        </g>
</svg>
