<?xml version="1.0" encoding="UTF-8" standalone="no"?>
<!DOCTYPE svg PUBLIC "-//W3C//DTD SVG 1.1//EN"
 "http://www.w3.org/Graphics/SVG/1.1/DTD/svg11.dtd">
<!-- Generated by graphviz version 2.28.0 (20111211.2114)
 -->
<!-- Title: G Pages: 1 -->
<!--zoomable-->
<svg id="main" version="1.1" xmlns="http://www.w3.org/2000/svg" xmlns:xlink="http://www.w3.org/1999/xlink" xml:space="preserve" onload="init(evt)">
        <defs>
                <circle id="rim" cx="0" cy="0" r="7"/>
                <circle id="rim2" cx="0" cy="0" r="3.5"/>
                <g id="zoomPlus">
                        <use xlink:href="#rim" fill="#404040">
                                <set attributeName="fill" to="#808080" begin="zoomplus.mouseover" end="zoomplus.mouseout"/>
                        </use>
                        <path d="M-4,0h8M0,-4v8" fill="none" stroke="white" stroke-width="1.5" pointer-events="none"/>
                </g>
                <g id="zoomMin">
                        <use xlink:href="#rim" fill="#404040">
                                <set attributeName="fill" to="#808080" begin="zoomminus.mouseover" end="zoomminus.mouseout"/>
                        </use>
                        <path d="M-4,0h8" fill="none" stroke="white" stroke-width="1.5" pointer-events="none"/>
                </g>
                <g id="dirArrow">
                        <path fill="none" stroke="white" stroke-width="1.5" d="M0,-3.0v7 M-2.5,-0.5L0,-3.0L2.5,-0.5"/>
                </g>
               <g id="resetDef">
                       <use xlink:href="#rim2" fill="#404040">
                               <set attributeName="fill" to="#808080" begin="reset.mouseover" end="reset.mouseout"/>
                       </use>
               </g>
        </defs>

<script type="text/javascript">
var viewWidth = 667;
var viewHeight = 196;
var sectionId = 'dynsection-0';
</script>
<script xlink:href="svgpan.js"/>
<svg id="graph" class="graph">
<g id="viewport">
<title>G</title>
<!-- Node1 -->
<g id="node1" class="node"><title>Node1</title>
<polygon fill="#bfbfbf" stroke="black" points="44.772,-168.5 44.772,-187.5 322.772,-187.5 322.772,-168.5 44.772,-168.5"/>
<text text-anchor="middle" x="183.772" y="-175.5" font-family="Helvetica,sans-Serif" font-size="10.00">/home/pjm3/freeradius&#45;server/src/modules/rlm_otp/otp_rlm.c</text>
</g>
<!-- Node2 -->
<g id="node3" class="node"><title>Node2</title>
<polygon fill="none" stroke="#bfbfbf" points="124.772,-0.5 124.772,-19.5 242.772,-19.5 242.772,-0.5 124.772,-0.5"/>
<text text-anchor="middle" x="183.772" y="-7.5" font-family="Helvetica,sans-Serif" font-size="10.00">freeradius&#45;devel/ident.h</text>
</g>
<!-- Node1&#45;&gt;Node2 -->
<g id="edge2" class="edge"><title>Node1&#45;&gt;Node2</title>
<path fill="none" stroke="midnightblue" d="M147.986,-168.437C85.4005,-151.783 -33.3657,-111.713 9.77198,-56 22.8587,-39.0982 71.7805,-27.3981 114.43,-20.1733"/>
<polygon fill="midnightblue" stroke="midnightblue" points="115.239,-23.5875 124.544,-18.5215 114.111,-16.679 115.239,-23.5875"/>
</g>
<!-- Node3 -->
<g id="node5" class="node"><title>Node3</title>
<polygon fill="none" stroke="#bfbfbf" points="18.772,-56.5 18.772,-75.5 146.772,-75.5 146.772,-56.5 18.772,-56.5"/>
<text text-anchor="middle" x="82.772" y="-63.5" font-family="Helvetica,sans-Serif" font-size="10.00">freeradius&#45;devel/radiusd.h</text>
</g>
<!-- Node1&#45;&gt;Node3 -->
<g id="edge4" class="edge"><title>Node1&#45;&gt;Node3</title>
<path fill="none" stroke="midnightblue" d="M175.847,-168.368C158.958,-149.974 119.197,-106.671 97.5105,-83.0519"/>
<polygon fill="midnightblue" stroke="midnightblue" points="100.002,-80.5903 90.6605,-75.5914 94.8457,-85.3246 100.002,-80.5903"/>
</g>
<!-- Node4 -->
<g id="node7" class="node"><title>Node4</title>
<polygon fill="none" stroke="#bfbfbf" points="524.772,-56.5 524.772,-75.5 658.772,-75.5 658.772,-56.5 524.772,-56.5"/>
<text text-anchor="middle" x="591.772" y="-63.5" font-family="Helvetica,sans-Serif" font-size="10.00">freeradius&#45;devel/modules.h</text>
</g>
<!-- Node1&#45;&gt;Node4 -->
<g id="edge6" class="edge"><title>Node1&#45;&gt;Node4</title>
<path fill="none" stroke="midnightblue" d="M215.448,-168.46C288.509,-148.762 468.802,-100.154 550.432,-78.1455"/>
<polygon fill="midnightblue" stroke="midnightblue" points="551.372,-81.5171 560.117,-75.5345 549.55,-74.7584 551.372,-81.5171"/>
</g>
<!-- Node5 -->
<g id="node9" class="node"><title>Node5</title>
<a xlink:href="extern_8h.html" target="_top" xlink:title="extern.h">
<polygon fill="none" stroke="black" points="255.772,-112.5 255.772,-131.5 307.772,-131.5 307.772,-112.5 255.772,-112.5"/>
<text text-anchor="middle" x="281.772" y="-119.5" font-family="Helvetica,sans-Serif" font-size="10.00">extern.h</text>
</a>
</g>
<!-- Node1&#45;&gt;Node5 -->
<g id="edge8" class="edge"><title>Node1&#45;&gt;Node5</title>
<path fill="none" stroke="midnightblue" d="M199.517,-168.324C215.091,-159.743 239.149,-146.486 257.231,-136.522"/>
<polygon fill="midnightblue" stroke="midnightblue" points="258.996,-139.546 266.066,-131.655 255.618,-133.415 258.996,-139.546"/>
</g>
<!-- Node9 -->
<g id="node20" class="node"><title>Node9</title>
<a xlink:href="otp_8h.html" target="_top" xlink:title="otp.h">
<polygon fill="none" stroke="black" points="164.772,-56.5 164.772,-75.5 202.772,-75.5 202.772,-56.5 164.772,-56.5"/>
<text text-anchor="middle" x="183.772" y="-63.5" font-family="Helvetica,sans-Serif" font-size="10.00">otp.h</text>
</a>
</g>
<!-- Node1&#45;&gt;Node9 -->
<g id="edge28" class="edge"><title>Node1&#45;&gt;Node9</title>
<path fill="none" stroke="midnightblue" d="M183.772,-168.368C183.772,-150.617 183.772,-109.666 183.772,-85.5974"/>
<polygon fill="midnightblue" stroke="midnightblue" points="187.272,-85.5914 183.772,-75.5914 180.272,-85.5915 187.272,-85.5914"/>
</g>
<!-- Node5&#45;&gt;Node2 -->
<g id="edge10" class="edge"><title>Node5&#45;&gt;Node2</title>
<path fill="none" stroke="midnightblue" d="M274.082,-112.368C257.766,-94.0547 219.452,-51.0489 198.349,-27.3624"/>
<polygon fill="midnightblue" stroke="midnightblue" points="200.692,-24.7298 191.426,-19.5914 195.465,-29.3863 200.692,-24.7298"/>
</g>
<!-- Node5&#45;&gt;Node3 -->
<g id="edge14" class="edge"><title>Node5&#45;&gt;Node3</title>
<path fill="none" stroke="midnightblue" d="M255.756,-113.94C222.32,-104.867 163.869,-89.0061 124.262,-78.2586"/>
<polygon fill="midnightblue" stroke="midnightblue" points="124.944,-74.8171 114.376,-75.576 123.111,-81.5728 124.944,-74.8171"/>
</g>
<!-- Node5&#45;&gt;Node4 -->
<g id="edge16" class="edge"><title>Node5&#45;&gt;Node4</title>
<path fill="none" stroke="midnightblue" d="M307.935,-116.443C357.294,-107.845 465.258,-89.0379 532.889,-77.2571"/>
<polygon fill="midnightblue" stroke="midnightblue" points="533.721,-80.6649 542.972,-75.5007 532.519,-73.7688 533.721,-80.6649"/>
</g>
<!-- Node6 -->
<g id="node12" class="node"><title>Node6</title>
<polygon fill="none" stroke="#bfbfbf" points="258.772,-56.5 258.772,-75.5 392.772,-75.5 392.772,-56.5 258.772,-56.5"/>
<text text-anchor="middle" x="325.772" y="-63.5" font-family="Helvetica,sans-Serif" font-size="10.00">freeradius&#45;devel/autoconf.h</text>
</g>
<!-- Node5&#45;&gt;Node6 -->
<g id="edge12" class="edge"><title>Node5&#45;&gt;Node6</title>
<path fill="none" stroke="midnightblue" d="M289.038,-112.083C295.317,-104.377 304.56,-93.0333 312.203,-83.6531"/>
<polygon fill="midnightblue" stroke="midnightblue" points="315.038,-85.7143 318.641,-75.7511 309.611,-81.2926 315.038,-85.7143"/>
</g>
<!-- Node7 -->
<g id="node16" class="node"><title>Node7</title>
<polygon fill="none" stroke="#bfbfbf" points="323.772,-0.5 323.772,-19.5 391.772,-19.5 391.772,-0.5 323.772,-0.5"/>
<text text-anchor="middle" x="357.772" y="-7.5" font-family="Helvetica,sans-Serif" font-size="10.00">sys/types.h</text>
</g>
<!-- Node5&#45;&gt;Node7 -->
<g id="edge18" class="edge"><title>Node5&#45;&gt;Node7</title>
<path fill="none" stroke="midnightblue" d="M307.781,-119.51C336.257,-116.326 380.671,-106.449 401.772,-76 413.603,-58.9272 395.746,-39.1409 379.36,-25.9254"/>
<polygon fill="midnightblue" stroke="midnightblue" points="381.175,-22.9098 371.09,-19.6626 376.949,-28.4901 381.175,-22.9098"/>
</g>
<!-- Node8 -->
<g id="node18" class="node"><title>Node8</title>
<polygon fill="none" stroke="#bfbfbf" points="449.272,-56.5 449.272,-75.5 506.272,-75.5 506.272,-56.5 449.272,-56.5"/>
<text text-anchor="middle" x="477.772" y="-63.5" font-family="Helvetica,sans-Serif" font-size="10.00">pthread.h</text>
</g>
<!-- Node5&#45;&gt;Node8 -->
<g id="edge20" class="edge"><title>Node5&#45;&gt;Node8</title>
<path fill="none" stroke="midnightblue" d="M307.799,-113.829C341.447,-104.559 400.323,-88.338 439.182,-77.6318"/>
<polygon fill="midnightblue" stroke="midnightblue" points="440.377,-80.9331 449.088,-74.9027 438.518,-74.1846 440.377,-80.9331"/>
</g>
<!-- Node5&#45;&gt;Node9 -->
<g id="edge22" class="edge"><title>Node5&#45;&gt;Node9</title>
<path fill="none" stroke="midnightblue" d="M266.027,-112.324C250.453,-103.743 226.395,-90.486 208.313,-80.5224"/>
<polygon fill="midnightblue" stroke="midnightblue" points="209.926,-77.4152 199.478,-75.6545 206.548,-83.546 209.926,-77.4152"/>
</g>
<!-- Node9&#45;&gt;Node2 -->
<g id="edge24" class="edge"><title>Node9&#45;&gt;Node2</title>
<path fill="none" stroke="midnightblue" d="M183.772,-56.083C183.772,-49.0059 183.772,-38.8611 183.772,-29.9865"/>
<polygon fill="midnightblue" stroke="midnightblue" points="187.272,-29.751 183.772,-19.7511 180.272,-29.7511 187.272,-29.751"/>
</g>
<!-- Node9&#45;&gt;Node7 -->
<g id="edge26" class="edge"><title>Node9&#45;&gt;Node7</title>
<path fill="none" stroke="midnightblue" d="M203.058,-59.0147C231.284,-50.2548 284.398,-33.7712 320.429,-22.5892"/>
<polygon fill="midnightblue" stroke="midnightblue" points="321.59,-25.8936 330.104,-19.5868 319.515,-19.2081 321.59,-25.8936"/>
</g>
</g>
</svg>
        <g id="navigator" transform="translate(0 0)" fill="#404254">
                <rect fill="#f2f5e9" fill-opacity="0.5" stroke="#606060" stroke-width=".5" x="0" y="0" width="60" height="60"/>
                <use id="zoomplus" xlink:href="#zoomPlus" x="17" y="9" onmousedown="handleZoom(evt,'in')"/>
                <use id="zoomminus" xlink:href="#zoomMin" x="42" y="9" onmousedown="handleZoom(evt,'out')"/>
                <use id="reset" xlink:href="#resetDef" x="30" y="36" onmousedown="handleReset()"/>
                <g id="arrowUp" xlink:href="#dirArrow" transform="translate(30 24)" onmousedown="handlePan(0,-1)">
                  <use xlink:href="#rim" fill="#404040">
                        <set attributeName="fill" to="#808080" begin="arrowUp.mouseover" end="arrowUp.mouseout"/>
                  </use>
                  <path fill="none" stroke="white" stroke-width="1.5" d="M0,-3.0v7 M-2.5,-0.5L0,-3.0L2.5,-0.5"/>
                </g>
                <g id="arrowRight" xlink:href="#dirArrow" transform="rotate(90) translate(36 -43)" onmousedown="handlePan(1,0)">
                  <use xlink:href="#rim" fill="#404040">
                        <set attributeName="fill" to="#808080" begin="arrowRight.mouseover" end="arrowRight.mouseout"/>
                  </use>
                  <path fill="none" stroke="white" stroke-width="1.5" d="M0,-3.0v7 M-2.5,-0.5L0,-3.0L2.5,-0.5"/>
                </g>
                <g id="arrowDown" xlink:href="#dirArrow" transform="rotate(180) translate(-30 -48)" onmousedown="handlePan(0,1)">
                  <use xlink:href="#rim" fill="#404040">
                        <set attributeName="fill" to="#808080" begin="arrowDown.mouseover" end="arrowDown.mouseout"/>
                  </use>
                  <path fill="none" stroke="white" stroke-width="1.5" d="M0,-3.0v7 M-2.5,-0.5L0,-3.0L2.5,-0.5"/>
                </g>
                <g id="arrowLeft" xlink:href="#dirArrow" transform="rotate(270) translate(-36 17)" onmousedown="handlePan(-1,0)">
                  <use xlink:href="#rim" fill="#404040">
                        <set attributeName="fill" to="#808080" begin="arrowLeft.mouseover" end="arrowLeft.mouseout"/>
                  </use>
                  <path fill="none" stroke="white" stroke-width="1.5" d="M0,-3.0v7 M-2.5,-0.5L0,-3.0L2.5,-0.5"/>
                </g>
        </g>
</svg>
