<?xml version="1.0" encoding="UTF-8" standalone="no"?>
<!DOCTYPE svg PUBLIC "-//W3C//DTD SVG 1.1//EN"
 "http://www.w3.org/Graphics/SVG/1.1/DTD/svg11.dtd">
<!-- Generated by graphviz version 2.28.0 (20111211.2114)
 -->
<!-- Title: G Pages: 1 -->
<!--zoomable-->
<svg id="main" version="1.1" xmlns="http://www.w3.org/2000/svg" xmlns:xlink="http://www.w3.org/1999/xlink" xml:space="preserve" onload="init(evt)">
        <defs>
                <circle id="rim" cx="0" cy="0" r="7"/>
                <circle id="rim2" cx="0" cy="0" r="3.5"/>
                <g id="zoomPlus">
                        <use xlink:href="#rim" fill="#404040">
                                <set attributeName="fill" to="#808080" begin="zoomplus.mouseover" end="zoomplus.mouseout"/>
                        </use>
                        <path d="M-4,0h8M0,-4v8" fill="none" stroke="white" stroke-width="1.5" pointer-events="none"/>
                </g>
                <g id="zoomMin">
                        <use xlink:href="#rim" fill="#404040">
                                <set attributeName="fill" to="#808080" begin="zoomminus.mouseover" end="zoomminus.mouseout"/>
                        </use>
                        <path d="M-4,0h8" fill="none" stroke="white" stroke-width="1.5" pointer-events="none"/>
                </g>
                <g id="dirArrow">
                        <path fill="none" stroke="white" stroke-width="1.5" d="M0,-3.0v7 M-2.5,-0.5L0,-3.0L2.5,-0.5"/>
                </g>
               <g id="resetDef">
                       <use xlink:href="#rim2" fill="#404040">
                               <set attributeName="fill" to="#808080" begin="reset.mouseover" end="reset.mouseout"/>
                       </use>
               </g>
        </defs>

<script type="text/javascript">
var viewWidth = 1884;
var viewHeight = 196;
var sectionId = 'dynsection-1';
</script>
<script xlink:href="svgpan.js"/>
<svg id="graph" class="graph">
<g id="viewport">
<title>G</title>
<!-- Node1 -->
<g id="node1" class="node"><title>Node1</title>
<polygon fill="#bfbfbf" stroke="black" points="343.998,-168.5 343.998,-187.5 603.998,-187.5 603.998,-168.5 343.998,-168.5"/>
<text text-anchor="middle" x="473.998" y="-175.5" font-family="Helvetica,sans-Serif" font-size="10.00">/home/pjm3/freeradius&#45;server/src/modules/rlm_otp/otp.h</text>
</g>
<!-- Node2 -->
<g id="node3" class="node"><title>Node2</title>
<a xlink:href="extern_8h.html" target="_top" xlink:title="/home/pjm3/freeradius&#45;server/src/modules/rlm_otp/extern.h">
<polygon fill="none" stroke="black" points="602.498,-112.5 602.498,-131.5 875.498,-131.5 875.498,-112.5 602.498,-112.5"/>
<text text-anchor="middle" x="738.998" y="-119.5" font-family="Helvetica,sans-Serif" font-size="10.00">/home/pjm3/freeradius&#45;server/src/modules/rlm_otp/extern.h</text>
</a>
</g>
<!-- Node1&#45;&gt;Node2 -->
<g id="edge2" class="edge"><title>Node1&#45;&gt;Node2</title>
<path fill="none" stroke="midnightblue" d="M525.969,-166.41C576.052,-156.204 650.862,-140.96 697.204,-131.516"/>
<polygon fill="midnightblue" stroke="midnightblue" points="525.088,-163.017 515.988,-168.444 526.485,-169.876 525.088,-163.017"/>
</g>
<!-- Node3 -->
<g id="node5" class="node"><title>Node3</title>
<a xlink:href="otp__mppe_8c.html" target="_top" xlink:title="/home/pjm3/freeradius&#45;server/src/modules/rlm_otp/otp_mppe.c">
<polygon fill="none" stroke="black" points="15.4978,-56.5 15.4978,-75.5 304.498,-75.5 304.498,-56.5 15.4978,-56.5"/>
<text text-anchor="middle" x="159.998" y="-63.5" font-family="Helvetica,sans-Serif" font-size="10.00">/home/pjm3/freeradius&#45;server/src/modules/rlm_otp/otp_mppe.c</text>
</a>
</g>
<!-- Node1&#45;&gt;Node3 -->
<g id="edge20" class="edge"><title>Node1&#45;&gt;Node3</title>
<path fill="none" stroke="midnightblue" d="M440.04,-165.104C376.333,-142.786 240.301,-95.1318 184.577,-75.6104"/>
<polygon fill="midnightblue" stroke="midnightblue" points="439.025,-168.457 449.62,-168.46 441.34,-161.851 439.025,-168.457"/>
</g>
<!-- Node4 -->
<g id="node7" class="node"><title>Node4</title>
<a xlink:href="otp__pw__valid_8c.html" target="_top" xlink:title="/home/pjm3/freeradius&#45;server/src/modules/rlm_otp/otp_pw_valid.c">
<polygon fill="none" stroke="black" points="322.498,-0.5 322.498,-19.5 625.498,-19.5 625.498,-0.5 322.498,-0.5"/>
<text text-anchor="middle" x="473.998" y="-7.5" font-family="Helvetica,sans-Serif" font-size="10.00">/home/pjm3/freeradius&#45;server/src/modules/rlm_otp/otp_pw_valid.c</text>
</a>
</g>
<!-- Node1&#45;&gt;Node4 -->
<g id="edge22" class="edge"><title>Node1&#45;&gt;Node4</title>
<path fill="none" stroke="midnightblue" d="M373.231,-167.376C220.928,-150.851 -44.9865,-113.234 6.99779,-56 28.1673,-32.6926 194.135,-21.1238 322.261,-15.6163"/>
<polygon fill="midnightblue" stroke="midnightblue" points="373.228,-170.896 383.545,-168.482 373.975,-163.936 373.228,-170.896"/>
</g>
<!-- Node5 -->
<g id="node9" class="node"><title>Node5</title>
<a xlink:href="otp__pw__valid_8h.html" target="_top" xlink:title="/home/pjm3/freeradius&#45;server/src/modules/rlm_otp/otp_pw_valid.h">
<polygon fill="none" stroke="black" points="322.498,-56.5 322.498,-75.5 625.498,-75.5 625.498,-56.5 322.498,-56.5"/>
<text text-anchor="middle" x="473.998" y="-63.5" font-family="Helvetica,sans-Serif" font-size="10.00">/home/pjm3/freeradius&#45;server/src/modules/rlm_otp/otp_pw_valid.h</text>
</a>
</g>
<!-- Node1&#45;&gt;Node5 -->
<g id="edge24" class="edge"><title>Node1&#45;&gt;Node5</title>
<path fill="none" stroke="midnightblue" d="M473.998,-158.348C473.998,-134.254 473.998,-93.3079 473.998,-75.5914"/>
<polygon fill="midnightblue" stroke="midnightblue" points="470.498,-158.368 473.998,-168.368 477.498,-158.369 470.498,-158.368"/>
</g>
<!-- Node8 -->
<g id="node16" class="node"><title>Node8</title>
<a xlink:href="otp__rlm_8c.html" target="_top" xlink:title="/home/pjm3/freeradius&#45;server/src/modules/rlm_otp/otp_rlm.c">
<polygon fill="none" stroke="black" points="1598,-56.5 1598,-75.5 1876,-75.5 1876,-56.5 1598,-56.5"/>
<text text-anchor="middle" x="1737" y="-63.5" font-family="Helvetica,sans-Serif" font-size="10.00">/home/pjm3/freeradius&#45;server/src/modules/rlm_otp/otp_rlm.c</text>
</a>
</g>
<!-- Node1&#45;&gt;Node8 -->
<g id="edge26" class="edge"><title>Node1&#45;&gt;Node8</title>
<path fill="none" stroke="midnightblue" d="M582.012,-167.593C824.164,-146.503 1407.36,-95.7099 1639.39,-75.5014"/>
<polygon fill="midnightblue" stroke="midnightblue" points="581.449,-164.128 571.79,-168.483 582.056,-171.102 581.449,-164.128"/>
</g>
<!-- Node2&#45;&gt;Node3 -->
<g id="edge4" class="edge"><title>Node2&#45;&gt;Node3</title>
<path fill="none" stroke="midnightblue" d="M637.541,-111.538C528.425,-101.361 356.487,-85.3254 251.42,-75.5264"/>
<polygon fill="midnightblue" stroke="midnightblue" points="637.291,-115.03 647.573,-112.473 637.941,-108.06 637.291,-115.03"/>
</g>
<!-- Node2&#45;&gt;Node4 -->
<g id="edge6" class="edge"><title>Node2&#45;&gt;Node4</title>
<path fill="none" stroke="midnightblue" d="M719.463,-106.571C699.043,-92.0621 665.626,-69.9061 633.998,-56 595.696,-39.1595 549.452,-26.9594 516.551,-19.5457"/>
<polygon fill="midnightblue" stroke="midnightblue" points="717.468,-109.448 727.627,-112.458 721.563,-103.77 717.468,-109.448"/>
</g>
<!-- Node2&#45;&gt;Node5 -->
<g id="edge8" class="edge"><title>Node2&#45;&gt;Node5</title>
<path fill="none" stroke="midnightblue" d="M687.026,-110.41C636.944,-100.204 562.134,-84.9597 515.791,-75.5164"/>
<polygon fill="midnightblue" stroke="midnightblue" points="686.51,-113.876 697.008,-112.444 687.908,-107.017 686.51,-113.876"/>
</g>
<!-- Node6 -->
<g id="node12" class="node"><title>Node6</title>
<a xlink:href="otp__pwe_8c.html" target="_top" xlink:title="/home/pjm3/freeradius&#45;server/src/modules/rlm_otp/otp_pwe.c">
<polygon fill="none" stroke="black" points="682.498,-56.5 682.498,-75.5 965.498,-75.5 965.498,-56.5 682.498,-56.5"/>
<text text-anchor="middle" x="823.998" y="-63.5" font-family="Helvetica,sans-Serif" font-size="10.00">/home/pjm3/freeradius&#45;server/src/modules/rlm_otp/otp_pwe.c</text>
</a>
</g>
<!-- Node2&#45;&gt;Node6 -->
<g id="edge12" class="edge"><title>Node2&#45;&gt;Node6</title>
<path fill="none" stroke="midnightblue" d="M761.191,-106.901C776.778,-96.9986 797.127,-84.0705 810.375,-75.6545"/>
<polygon fill="midnightblue" stroke="midnightblue" points="759.218,-104.007 752.655,-112.324 762.972,-109.916 759.218,-104.007"/>
</g>
<!-- Node7 -->
<g id="node14" class="node"><title>Node7</title>
<a xlink:href="otp__radstate_8c.html" target="_top" xlink:title="/home/pjm3/freeradius&#45;server/src/modules/rlm_otp/otp_radstate.c">
<polygon fill="none" stroke="black" points="983.998,-56.5 983.998,-75.5 1284,-75.5 1284,-56.5 983.998,-56.5"/>
<text text-anchor="middle" x="1134" y="-63.5" font-family="Helvetica,sans-Serif" font-size="10.00">/home/pjm3/freeradius&#45;server/src/modules/rlm_otp/otp_radstate.c</text>
</a>
</g>
<!-- Node2&#45;&gt;Node7 -->
<g id="edge14" class="edge"><title>Node2&#45;&gt;Node7</title>
<path fill="none" stroke="midnightblue" d="M811.838,-111.042C886.441,-100.843 1001.18,-85.1569 1071.7,-75.5164"/>
<polygon fill="midnightblue" stroke="midnightblue" points="811.02,-107.621 801.587,-112.444 811.969,-114.557 811.02,-107.621"/>
</g>
<!-- Node2&#45;&gt;Node8 -->
<g id="edge16" class="edge"><title>Node2&#45;&gt;Node8</title>
<path fill="none" stroke="midnightblue" d="M885.795,-113.579C1055.24,-104.931 1342.3,-90.0309 1589,-76 1591.95,-75.8319 1594.94,-75.6607 1597.95,-75.4871"/>
<polygon fill="midnightblue" stroke="midnightblue" points="885.367,-110.096 875.559,-114.101 885.724,-117.087 885.367,-110.096"/>
</g>
<!-- Node9 -->
<g id="node18" class="node"><title>Node9</title>
<a xlink:href="otp__util_8c.html" target="_top" xlink:title="/home/pjm3/freeradius&#45;server/src/modules/rlm_otp/otp_util.c">
<polygon fill="none" stroke="black" points="1302,-56.5 1302,-75.5 1580,-75.5 1580,-56.5 1302,-56.5"/>
<text text-anchor="middle" x="1441" y="-63.5" font-family="Helvetica,sans-Serif" font-size="10.00">/home/pjm3/freeradius&#45;server/src/modules/rlm_otp/otp_util.c</text>
</a>
</g>
<!-- Node2&#45;&gt;Node9 -->
<g id="edge18" class="edge"><title>Node2&#45;&gt;Node9</title>
<path fill="none" stroke="midnightblue" d="M860.022,-111.69C992.31,-101.514 1202.45,-85.3502 1330.44,-75.5042"/>
<polygon fill="midnightblue" stroke="midnightblue" points="859.546,-108.217 849.844,-112.473 860.083,-115.196 859.546,-108.217"/>
</g>
<!-- Node5&#45;&gt;Node4 -->
<g id="edge10" class="edge"><title>Node5&#45;&gt;Node4</title>
<path fill="none" stroke="midnightblue" d="M473.998,-45.8045C473.998,-36.9102 473.998,-26.7798 473.998,-19.7511"/>
<polygon fill="midnightblue" stroke="midnightblue" points="470.498,-46.083 473.998,-56.083 477.498,-46.083 470.498,-46.083"/>
</g>
</g>
</svg>
        <g id="navigator" transform="translate(0 0)" fill="#404254">
                <rect fill="#f2f5e9" fill-opacity="0.5" stroke="#606060" stroke-width=".5" x="0" y="0" width="60" height="60"/>
                <use id="zoomplus" xlink:href="#zoomPlus" x="17" y="9" onmousedown="handleZoom(evt,'in')"/>
                <use id="zoomminus" xlink:href="#zoomMin" x="42" y="9" onmousedown="handleZoom(evt,'out')"/>
                <use id="reset" xlink:href="#resetDef" x="30" y="36" onmousedown="handleReset()"/>
                <g id="arrowUp" xlink:href="#dirArrow" transform="translate(30 24)" onmousedown="handlePan(0,-1)">
                  <use xlink:href="#rim" fill="#404040">
                        <set attributeName="fill" to="#808080" begin="arrowUp.mouseover" end="arrowUp.mouseout"/>
                  </use>
                  <path fill="none" stroke="white" stroke-width="1.5" d="M0,-3.0v7 M-2.5,-0.5L0,-3.0L2.5,-0.5"/>
                </g>
                <g id="arrowRight" xlink:href="#dirArrow" transform="rotate(90) translate(36 -43)" onmousedown="handlePan(1,0)">
                  <use xlink:href="#rim" fill="#404040">
                        <set attributeName="fill" to="#808080" begin="arrowRight.mouseover" end="arrowRight.mouseout"/>
                  </use>
                  <path fill="none" stroke="white" stroke-width="1.5" d="M0,-3.0v7 M-2.5,-0.5L0,-3.0L2.5,-0.5"/>
                </g>
                <g id="arrowDown" xlink:href="#dirArrow" transform="rotate(180) translate(-30 -48)" onmousedown="handlePan(0,1)">
                  <use xlink:href="#rim" fill="#404040">
                        <set attributeName="fill" to="#808080" begin="arrowDown.mouseover" end="arrowDown.mouseout"/>
                  </use>
                  <path fill="none" stroke="white" stroke-width="1.5" d="M0,-3.0v7 M-2.5,-0.5L0,-3.0L2.5,-0.5"/>
                </g>
                <g id="arrowLeft" xlink:href="#dirArrow" transform="rotate(270) translate(-36 17)" onmousedown="handlePan(-1,0)">
                  <use xlink:href="#rim" fill="#404040">
                        <set attributeName="fill" to="#808080" begin="arrowLeft.mouseover" end="arrowLeft.mouseout"/>
                  </use>
                  <path fill="none" stroke="white" stroke-width="1.5" d="M0,-3.0v7 M-2.5,-0.5L0,-3.0L2.5,-0.5"/>
                </g>
        </g>
</svg>
