<?xml version="1.0" encoding="UTF-8" standalone="no"?>
<!DOCTYPE svg PUBLIC "-//W3C//DTD SVG 1.1//EN"
 "http://www.w3.org/Graphics/SVG/1.1/DTD/svg11.dtd">
<!-- Generated by graphviz version 2.28.0 (20111211.2114)
 -->
<!-- Title: G Pages: 1 -->
<!--zoomable-->
<svg id="main" version="1.1" xmlns="http://www.w3.org/2000/svg" xmlns:xlink="http://www.w3.org/1999/xlink" xml:space="preserve" onload="init(evt)">
        <defs>
                <circle id="rim" cx="0" cy="0" r="7"/>
                <circle id="rim2" cx="0" cy="0" r="3.5"/>
                <g id="zoomPlus">
                        <use xlink:href="#rim" fill="#404040">
                                <set attributeName="fill" to="#808080" begin="zoomplus.mouseover" end="zoomplus.mouseout"/>
                        </use>
                        <path d="M-4,0h8M0,-4v8" fill="none" stroke="white" stroke-width="1.5" pointer-events="none"/>
                </g>
                <g id="zoomMin">
                        <use xlink:href="#rim" fill="#404040">
                                <set attributeName="fill" to="#808080" begin="zoomminus.mouseover" end="zoomminus.mouseout"/>
                        </use>
                        <path d="M-4,0h8" fill="none" stroke="white" stroke-width="1.5" pointer-events="none"/>
                </g>
                <g id="dirArrow">
                        <path fill="none" stroke="white" stroke-width="1.5" d="M0,-3.0v7 M-2.5,-0.5L0,-3.0L2.5,-0.5"/>
                </g>
               <g id="resetDef">
                       <use xlink:href="#rim2" fill="#404040">
                               <set attributeName="fill" to="#808080" begin="reset.mouseover" end="reset.mouseout"/>
                       </use>
               </g>
        </defs>

<script type="text/javascript">
var viewWidth = 1033;
var viewHeight = 196;
var sectionId = 'dynsection-0';
</script>
<script xlink:href="svgpan.js"/>
<svg id="graph" class="graph">
<g id="viewport">
<title>G</title>
<!-- Node1 -->
<g id="node1" class="node"><title>Node1</title>
<polygon fill="#bfbfbf" stroke="black" points="593.021,-168.5 593.021,-187.5 893.021,-187.5 893.021,-168.5 593.021,-168.5"/>
<text text-anchor="middle" x="743.021" y="-175.5" font-family="Helvetica,sans-Serif" font-size="10.00">/home/pjm3/freeradius&#45;server/src/modules/rlm_otp/otp_radstate.c</text>
</g>
<!-- Node2 -->
<g id="node3" class="node"><title>Node2</title>
<polygon fill="none" stroke="#bfbfbf" points="553.021,-0.5 553.021,-19.5 671.021,-19.5 671.021,-0.5 553.021,-0.5"/>
<text text-anchor="middle" x="612.021" y="-7.5" font-family="Helvetica,sans-Serif" font-size="10.00">freeradius&#45;devel/ident.h</text>
</g>
<!-- Node1&#45;&gt;Node2 -->
<g id="edge2" class="edge"><title>Node1&#45;&gt;Node2</title>
<path fill="none" stroke="midnightblue" d="M722.876,-168.476C706.855,-160.861 684.759,-148.38 670.021,-132 642.332,-101.226 625.137,-54.8721 617.209,-29.3964"/>
<polygon fill="midnightblue" stroke="midnightblue" points="620.495,-28.1669 614.294,-19.5763 613.784,-30.1588 620.495,-28.1669"/>
</g>
<!-- Node3 -->
<g id="node5" class="node"><title>Node3</title>
<a xlink:href="extern_8h.html" target="_top" xlink:title="extern.h">
<polygon fill="none" stroke="black" points="411.021,-112.5 411.021,-131.5 463.021,-131.5 463.021,-112.5 411.021,-112.5"/>
<text text-anchor="middle" x="437.021" y="-119.5" font-family="Helvetica,sans-Serif" font-size="10.00">extern.h</text>
</a>
</g>
<!-- Node1&#45;&gt;Node3 -->
<g id="edge4" class="edge"><title>Node1&#45;&gt;Node3</title>
<path fill="none" stroke="midnightblue" d="M694.535,-168.444C632.949,-157.575 528.086,-139.07 473.101,-129.367"/>
<polygon fill="midnightblue" stroke="midnightblue" points="473.572,-125.896 463.116,-127.605 472.356,-132.79 473.572,-125.896"/>
</g>
<!-- Node10 -->
<g id="node22" class="node"><title>Node10</title>
<polygon fill="none" stroke="#bfbfbf" points="678.521,-112.5 678.521,-131.5 727.521,-131.5 727.521,-112.5 678.521,-112.5"/>
<text text-anchor="middle" x="703.021" y="-119.5" font-family="Helvetica,sans-Serif" font-size="10.00">string.h</text>
</g>
<!-- Node1&#45;&gt;Node10 -->
<g id="edge24" class="edge"><title>Node1&#45;&gt;Node10</title>
<path fill="none" stroke="midnightblue" d="M736.416,-168.083C730.766,-160.455 722.477,-149.264 715.57,-139.941"/>
<polygon fill="midnightblue" stroke="midnightblue" points="718.268,-137.703 709.504,-131.751 712.644,-141.87 718.268,-137.703"/>
</g>
<!-- Node11 -->
<g id="node24" class="node"><title>Node11</title>
<polygon fill="none" stroke="#bfbfbf" points="745.521,-112.5 745.521,-131.5 822.521,-131.5 822.521,-112.5 745.521,-112.5"/>
<text text-anchor="middle" x="784.021" y="-119.5" font-family="Helvetica,sans-Serif" font-size="10.00">openssl/des.h</text>
</g>
<!-- Node1&#45;&gt;Node11 -->
<g id="edge26" class="edge"><title>Node1&#45;&gt;Node11</title>
<path fill="none" stroke="midnightblue" d="M749.792,-168.083C755.583,-160.455 764.08,-149.264 771.159,-139.941"/>
<polygon fill="midnightblue" stroke="midnightblue" points="774.118,-141.832 777.377,-131.751 768.542,-137.599 774.118,-141.832"/>
</g>
<!-- Node12 -->
<g id="node26" class="node"><title>Node12</title>
<polygon fill="none" stroke="#bfbfbf" points="841.021,-112.5 841.021,-131.5 921.021,-131.5 921.021,-112.5 841.021,-112.5"/>
<text text-anchor="middle" x="881.021" y="-119.5" font-family="Helvetica,sans-Serif" font-size="10.00">openssl/md5.h</text>
</g>
<!-- Node1&#45;&gt;Node12 -->
<g id="edge28" class="edge"><title>Node1&#45;&gt;Node12</title>
<path fill="none" stroke="midnightblue" d="M764.888,-168.444C787.801,-159.478 823.997,-145.314 849.888,-135.183"/>
<polygon fill="midnightblue" stroke="midnightblue" points="851.22,-138.42 859.257,-131.516 848.669,-131.901 851.22,-138.42"/>
</g>
<!-- Node13 -->
<g id="node28" class="node"><title>Node13</title>
<polygon fill="none" stroke="#bfbfbf" points="939.021,-112.5 939.021,-131.5 1025.02,-131.5 1025.02,-112.5 939.021,-112.5"/>
<text text-anchor="middle" x="982.021" y="-119.5" font-family="Helvetica,sans-Serif" font-size="10.00">openssl/hmac.h</text>
</g>
<!-- Node1&#45;&gt;Node13 -->
<g id="edge30" class="edge"><title>Node1&#45;&gt;Node13</title>
<path fill="none" stroke="midnightblue" d="M780.892,-168.444C822.497,-159.043 889.391,-143.929 934.49,-133.739"/>
<polygon fill="midnightblue" stroke="midnightblue" points="935.346,-137.134 944.328,-131.516 933.803,-130.306 935.346,-137.134"/>
</g>
<!-- Node3&#45;&gt;Node2 -->
<g id="edge6" class="edge"><title>Node3&#45;&gt;Node2</title>
<path fill="none" stroke="midnightblue" d="M463.258,-120.666C497.473,-118.795 557.072,-110.397 592.021,-76 604.239,-63.9758 609.031,-44.6833 610.891,-30.2344"/>
<polygon fill="midnightblue" stroke="midnightblue" points="614.409,-30.1949 611.84,-19.9165 607.439,-29.554 614.409,-30.1949"/>
</g>
<!-- Node4 -->
<g id="node8" class="node"><title>Node4</title>
<polygon fill="none" stroke="#bfbfbf" points="20.0214,-56.5 20.0214,-75.5 154.021,-75.5 154.021,-56.5 20.0214,-56.5"/>
<text text-anchor="middle" x="87.0214" y="-63.5" font-family="Helvetica,sans-Serif" font-size="10.00">freeradius&#45;devel/autoconf.h</text>
</g>
<!-- Node3&#45;&gt;Node4 -->
<g id="edge8" class="edge"><title>Node3&#45;&gt;Node4</title>
<path fill="none" stroke="midnightblue" d="M411,-116.985C356.797,-108.623 230.365,-89.1158 152.44,-77.0931"/>
<polygon fill="midnightblue" stroke="midnightblue" points="152.665,-73.5865 142.248,-75.5207 151.597,-80.5046 152.665,-73.5865"/>
</g>
<!-- Node5 -->
<g id="node10" class="node"><title>Node5</title>
<polygon fill="none" stroke="#bfbfbf" points="172.021,-56.5 172.021,-75.5 300.021,-75.5 300.021,-56.5 172.021,-56.5"/>
<text text-anchor="middle" x="236.021" y="-63.5" font-family="Helvetica,sans-Serif" font-size="10.00">freeradius&#45;devel/radiusd.h</text>
</g>
<!-- Node3&#45;&gt;Node5 -->
<g id="edge10" class="edge"><title>Node3&#45;&gt;Node5</title>
<path fill="none" stroke="midnightblue" d="M410.744,-113.94C376.9,-104.848 317.682,-88.9387 277.674,-78.1902"/>
<polygon fill="midnightblue" stroke="midnightblue" points="278.509,-74.7905 267.943,-75.576 276.693,-81.5508 278.509,-74.7905"/>
</g>
<!-- Node6 -->
<g id="node12" class="node"><title>Node6</title>
<polygon fill="none" stroke="#bfbfbf" points="318.021,-56.5 318.021,-75.5 452.021,-75.5 452.021,-56.5 318.021,-56.5"/>
<text text-anchor="middle" x="385.021" y="-63.5" font-family="Helvetica,sans-Serif" font-size="10.00">freeradius&#45;devel/modules.h</text>
</g>
<!-- Node3&#45;&gt;Node6 -->
<g id="edge12" class="edge"><title>Node3&#45;&gt;Node6</title>
<path fill="none" stroke="midnightblue" d="M428.435,-112.083C420.862,-104.22 409.643,-92.5688 400.507,-83.0813"/>
<polygon fill="midnightblue" stroke="midnightblue" points="402.906,-80.5266 393.448,-75.7511 397.864,-85.3821 402.906,-80.5266"/>
</g>
<!-- Node7 -->
<g id="node14" class="node"><title>Node7</title>
<polygon fill="none" stroke="#bfbfbf" points="206.021,-0.5 206.021,-19.5 274.021,-19.5 274.021,-0.5 206.021,-0.5"/>
<text text-anchor="middle" x="240.021" y="-7.5" font-family="Helvetica,sans-Serif" font-size="10.00">sys/types.h</text>
</g>
<!-- Node3&#45;&gt;Node7 -->
<g id="edge14" class="edge"><title>Node3&#45;&gt;Node7</title>
<path fill="none" stroke="midnightblue" d="M410.73,-120.224C322.033,-117.338 37.8546,-105.817 11.0214,-76 -42.3567,-16.6864 115.05,-9.86876 195.649,-10.1004"/>
<polygon fill="midnightblue" stroke="midnightblue" points="195.991,-13.6027 206.014,-10.1702 196.038,-6.60288 195.991,-13.6027"/>
</g>
<!-- Node8 -->
<g id="node16" class="node"><title>Node8</title>
<polygon fill="none" stroke="#bfbfbf" points="526.521,-56.5 526.521,-75.5 583.521,-75.5 583.521,-56.5 526.521,-56.5"/>
<text text-anchor="middle" x="555.021" y="-63.5" font-family="Helvetica,sans-Serif" font-size="10.00">pthread.h</text>
</g>
<!-- Node3&#45;&gt;Node8 -->
<g id="edge16" class="edge"><title>Node3&#45;&gt;Node8</title>
<path fill="none" stroke="midnightblue" d="M455.719,-112.444C474.966,-103.636 505.174,-89.8116 527.222,-79.722"/>
<polygon fill="midnightblue" stroke="midnightblue" points="528.775,-82.8603 536.411,-75.5164 525.862,-76.4951 528.775,-82.8603"/>
</g>
<!-- Node9 -->
<g id="node18" class="node"><title>Node9</title>
<a xlink:href="otp_8h.html" target="_top" xlink:title="otp.h">
<polygon fill="none" stroke="black" points="470.021,-56.5 470.021,-75.5 508.021,-75.5 508.021,-56.5 470.021,-56.5"/>
<text text-anchor="middle" x="489.021" y="-63.5" font-family="Helvetica,sans-Serif" font-size="10.00">otp.h</text>
</a>
</g>
<!-- Node3&#45;&gt;Node9 -->
<g id="edge18" class="edge"><title>Node3&#45;&gt;Node9</title>
<path fill="none" stroke="midnightblue" d="M445.608,-112.083C453.18,-104.22 464.4,-92.5688 473.536,-83.0813"/>
<polygon fill="midnightblue" stroke="midnightblue" points="476.179,-85.3821 480.594,-75.7511 471.137,-80.5266 476.179,-85.3821"/>
</g>
<!-- Node9&#45;&gt;Node2 -->
<g id="edge20" class="edge"><title>Node9&#45;&gt;Node2</title>
<path fill="none" stroke="midnightblue" d="M508.24,-56.5625C528.341,-47.7377 560.122,-33.7853 583.222,-23.6436"/>
<polygon fill="midnightblue" stroke="midnightblue" points="584.782,-26.7812 592.532,-19.5565 581.968,-20.3717 584.782,-26.7812"/>
</g>
<!-- Node9&#45;&gt;Node7 -->
<g id="edge22" class="edge"><title>Node9&#45;&gt;Node7</title>
<path fill="none" stroke="midnightblue" d="M469.824,-58.522C466.891,-57.6217 463.886,-56.7497 461.021,-56 400.401,-40.1371 329.207,-26.5214 284.349,-18.5424"/>
<polygon fill="midnightblue" stroke="midnightblue" points="284.82,-15.0714 274.364,-16.7821 283.604,-21.9651 284.82,-15.0714"/>
</g>
</g>
</svg>
        <g id="navigator" transform="translate(0 0)" fill="#404254">
                <rect fill="#f2f5e9" fill-opacity="0.5" stroke="#606060" stroke-width=".5" x="0" y="0" width="60" height="60"/>
                <use id="zoomplus" xlink:href="#zoomPlus" x="17" y="9" onmousedown="handleZoom(evt,'in')"/>
                <use id="zoomminus" xlink:href="#zoomMin" x="42" y="9" onmousedown="handleZoom(evt,'out')"/>
                <use id="reset" xlink:href="#resetDef" x="30" y="36" onmousedown="handleReset()"/>
                <g id="arrowUp" xlink:href="#dirArrow" transform="translate(30 24)" onmousedown="handlePan(0,-1)">
                  <use xlink:href="#rim" fill="#404040">
                        <set attributeName="fill" to="#808080" begin="arrowUp.mouseover" end="arrowUp.mouseout"/>
                  </use>
                  <path fill="none" stroke="white" stroke-width="1.5" d="M0,-3.0v7 M-2.5,-0.5L0,-3.0L2.5,-0.5"/>
                </g>
                <g id="arrowRight" xlink:href="#dirArrow" transform="rotate(90) translate(36 -43)" onmousedown="handlePan(1,0)">
                  <use xlink:href="#rim" fill="#404040">
                        <set attributeName="fill" to="#808080" begin="arrowRight.mouseover" end="arrowRight.mouseout"/>
                  </use>
                  <path fill="none" stroke="white" stroke-width="1.5" d="M0,-3.0v7 M-2.5,-0.5L0,-3.0L2.5,-0.5"/>
                </g>
                <g id="arrowDown" xlink:href="#dirArrow" transform="rotate(180) translate(-30 -48)" onmousedown="handlePan(0,1)">
                  <use xlink:href="#rim" fill="#404040">
                        <set attributeName="fill" to="#808080" begin="arrowDown.mouseover" end="arrowDown.mouseout"/>
                  </use>
                  <path fill="none" stroke="white" stroke-width="1.5" d="M0,-3.0v7 M-2.5,-0.5L0,-3.0L2.5,-0.5"/>
                </g>
                <g id="arrowLeft" xlink:href="#dirArrow" transform="rotate(270) translate(-36 17)" onmousedown="handlePan(-1,0)">
                  <use xlink:href="#rim" fill="#404040">
                        <set attributeName="fill" to="#808080" begin="arrowLeft.mouseover" end="arrowLeft.mouseout"/>
                  </use>
                  <path fill="none" stroke="white" stroke-width="1.5" d="M0,-3.0v7 M-2.5,-0.5L0,-3.0L2.5,-0.5"/>
                </g>
        </g>
</svg>
