<?xml version="1.0" encoding="UTF-8" standalone="no"?>
<!DOCTYPE svg PUBLIC "-//W3C//DTD SVG 1.1//EN"
 "http://www.w3.org/Graphics/SVG/1.1/DTD/svg11.dtd">
<!-- Generated by graphviz version 2.28.0 (20111211.2114)
 -->
<!-- Title: G Pages: 1 -->
<!--zoomable-->
<svg id="main" version="1.1" xmlns="http://www.w3.org/2000/svg" xmlns:xlink="http://www.w3.org/1999/xlink" xml:space="preserve" onload="init(evt)">
        <defs>
                <circle id="rim" cx="0" cy="0" r="7"/>
                <circle id="rim2" cx="0" cy="0" r="3.5"/>
                <g id="zoomPlus">
                        <use xlink:href="#rim" fill="#404040">
                                <set attributeName="fill" to="#808080" begin="zoomplus.mouseover" end="zoomplus.mouseout"/>
                        </use>
                        <path d="M-4,0h8M0,-4v8" fill="none" stroke="white" stroke-width="1.5" pointer-events="none"/>
                </g>
                <g id="zoomMin">
                        <use xlink:href="#rim" fill="#404040">
                                <set attributeName="fill" to="#808080" begin="zoomminus.mouseover" end="zoomminus.mouseout"/>
                        </use>
                        <path d="M-4,0h8" fill="none" stroke="white" stroke-width="1.5" pointer-events="none"/>
                </g>
                <g id="dirArrow">
                        <path fill="none" stroke="white" stroke-width="1.5" d="M0,-3.0v7 M-2.5,-0.5L0,-3.0L2.5,-0.5"/>
                </g>
               <g id="resetDef">
                       <use xlink:href="#rim2" fill="#404040">
                               <set attributeName="fill" to="#808080" begin="reset.mouseover" end="reset.mouseout"/>
                       </use>
               </g>
        </defs>

<script type="text/javascript">
var viewWidth = 946;
var viewHeight = 196;
var sectionId = 'dynsection-0';
</script>
<script xlink:href="svgpan.js"/>
<svg id="graph" class="graph">
<g id="viewport">
<title>G</title>
<!-- Node1 -->
<g id="node1" class="node"><title>Node1</title>
<polygon fill="#bfbfbf" stroke="black" points="578,-168.5 578,-187.5 856,-187.5 856,-168.5 578,-168.5"/>
<text text-anchor="middle" x="717" y="-175.5" font-family="Helvetica,sans-Serif" font-size="10.00">/home/pjm3/freeradius&#45;server/src/modules/rlm_otp/otp_util.c</text>
</g>
<!-- Node2 -->
<g id="node3" class="node"><title>Node2</title>
<polygon fill="none" stroke="#bfbfbf" points="0,-0.5 0,-19.5 118,-19.5 118,-0.5 0,-0.5"/>
<text text-anchor="middle" x="59" y="-7.5" font-family="Helvetica,sans-Serif" font-size="10.00">freeradius&#45;devel/ident.h</text>
</g>
<!-- Node1&#45;&gt;Node2 -->
<g id="edge2" class="edge"><title>Node1&#45;&gt;Node2</title>
<path fill="none" stroke="midnightblue" d="M577.907,-175.638C405.813,-170.7 127.339,-150.97 61,-76 50.0299,-63.6027 50.97,-44.0835 53.7759,-29.6676"/>
<polygon fill="midnightblue" stroke="midnightblue" points="57.2041,-30.3799 56.1188,-19.8408 50.3949,-28.7564 57.2041,-30.3799"/>
</g>
<!-- Node3 -->
<g id="node5" class="node"><title>Node3</title>
<a xlink:href="extern_8h.html" target="_top" xlink:title="extern.h">
<polygon fill="none" stroke="black" points="478,-112.5 478,-131.5 530,-131.5 530,-112.5 478,-112.5"/>
<text text-anchor="middle" x="504" y="-119.5" font-family="Helvetica,sans-Serif" font-size="10.00">extern.h</text>
</a>
</g>
<!-- Node1&#45;&gt;Node3 -->
<g id="edge4" class="edge"><title>Node1&#45;&gt;Node3</title>
<path fill="none" stroke="midnightblue" d="M683.25,-168.444C644.186,-158.54 580.108,-142.295 540.08,-132.147"/>
<polygon fill="midnightblue" stroke="midnightblue" points="540.76,-128.709 530.206,-129.644 539.04,-135.494 540.76,-128.709"/>
</g>
<!-- Node7 -->
<g id="node14" class="node"><title>Node7</title>
<polygon fill="none" stroke="#bfbfbf" points="569,-0.5 569,-19.5 637,-19.5 637,-0.5 569,-0.5"/>
<text text-anchor="middle" x="603" y="-7.5" font-family="Helvetica,sans-Serif" font-size="10.00">sys/types.h</text>
</g>
<!-- Node1&#45;&gt;Node7 -->
<g id="edge28" class="edge"><title>Node1&#45;&gt;Node7</title>
<path fill="none" stroke="midnightblue" d="M718.088,-168.35C720.296,-146.947 723.081,-90.7339 697,-56 684.752,-39.6886 665.062,-29.0165 646.859,-22.1803"/>
<polygon fill="midnightblue" stroke="midnightblue" points="647.836,-18.8147 637.241,-18.8556 645.549,-25.4306 647.836,-18.8147"/>
</g>
<!-- Node8 -->
<g id="node16" class="node"><title>Node8</title>
<polygon fill="none" stroke="#bfbfbf" points="631.5,-56.5 631.5,-75.5 688.5,-75.5 688.5,-56.5 631.5,-56.5"/>
<text text-anchor="middle" x="660" y="-63.5" font-family="Helvetica,sans-Serif" font-size="10.00">pthread.h</text>
</g>
<!-- Node1&#45;&gt;Node8 -->
<g id="edge26" class="edge"><title>Node1&#45;&gt;Node8</title>
<path fill="none" stroke="midnightblue" d="M712.527,-168.368C703.204,-150.376 681.531,-108.55 669.134,-84.6267"/>
<polygon fill="midnightblue" stroke="midnightblue" points="672.16,-82.8599 664.452,-75.5914 665.945,-86.0805 672.16,-82.8599"/>
</g>
<!-- Node10 -->
<g id="node22" class="node"><title>Node10</title>
<polygon fill="none" stroke="#bfbfbf" points="745.5,-112.5 745.5,-131.5 804.5,-131.5 804.5,-112.5 745.5,-112.5"/>
<text text-anchor="middle" x="775" y="-119.5" font-family="Helvetica,sans-Serif" font-size="10.00">inttypes.h</text>
</g>
<!-- Node1&#45;&gt;Node10 -->
<g id="edge24" class="edge"><title>Node1&#45;&gt;Node10</title>
<path fill="none" stroke="midnightblue" d="M726.319,-168.324C734.893,-160.341 747.812,-148.313 758.188,-138.653"/>
<polygon fill="midnightblue" stroke="midnightblue" points="760.578,-141.21 765.512,-131.834 755.808,-136.086 760.578,-141.21"/>
</g>
<!-- Node11 -->
<g id="node26" class="node"><title>Node11</title>
<polygon fill="none" stroke="#bfbfbf" points="823,-112.5 823,-131.5 871,-131.5 871,-112.5 823,-112.5"/>
<text text-anchor="middle" x="847" y="-119.5" font-family="Helvetica,sans-Serif" font-size="10.00">stdlib.h</text>
</g>
<!-- Node1&#45;&gt;Node11 -->
<g id="edge30" class="edge"><title>Node1&#45;&gt;Node11</title>
<path fill="none" stroke="midnightblue" d="M737.599,-168.444C758.993,-159.557 792.681,-145.563 817.024,-135.451"/>
<polygon fill="midnightblue" stroke="midnightblue" points="818.605,-138.585 826.497,-131.516 815.92,-132.12 818.605,-138.585"/>
</g>
<!-- Node12 -->
<g id="node28" class="node"><title>Node12</title>
<polygon fill="none" stroke="#bfbfbf" points="889.5,-112.5 889.5,-131.5 938.5,-131.5 938.5,-112.5 889.5,-112.5"/>
<text text-anchor="middle" x="914" y="-119.5" font-family="Helvetica,sans-Serif" font-size="10.00">string.h</text>
</g>
<!-- Node1&#45;&gt;Node12 -->
<g id="edge32" class="edge"><title>Node1&#45;&gt;Node12</title>
<path fill="none" stroke="midnightblue" d="M748.215,-168.444C784.016,-158.63 842.531,-142.591 879.612,-132.426"/>
<polygon fill="midnightblue" stroke="midnightblue" points="880.747,-135.744 889.466,-129.725 878.896,-128.993 880.747,-135.744"/>
</g>
<!-- Node3&#45;&gt;Node2 -->
<g id="edge6" class="edge"><title>Node3&#45;&gt;Node2</title>
<path fill="none" stroke="midnightblue" d="M477.696,-119.906C389.603,-116.014 108.752,-101.684 78,-76 64.6251,-64.8296 60.3687,-44.8049 59.1554,-29.9234"/>
<polygon fill="midnightblue" stroke="midnightblue" points="62.6456,-29.6185 58.7201,-19.7778 55.6521,-29.9186 62.6456,-29.6185"/>
</g>
<!-- Node4 -->
<g id="node8" class="node"><title>Node4</title>
<polygon fill="none" stroke="#bfbfbf" points="87,-56.5 87,-75.5 221,-75.5 221,-56.5 87,-56.5"/>
<text text-anchor="middle" x="154" y="-63.5" font-family="Helvetica,sans-Serif" font-size="10.00">freeradius&#45;devel/autoconf.h</text>
</g>
<!-- Node3&#45;&gt;Node4 -->
<g id="edge8" class="edge"><title>Node3&#45;&gt;Node4</title>
<path fill="none" stroke="midnightblue" d="M477.979,-116.985C423.776,-108.623 297.343,-89.1158 219.418,-77.0931"/>
<polygon fill="midnightblue" stroke="midnightblue" points="219.643,-73.5865 209.227,-75.5207 218.576,-80.5046 219.643,-73.5865"/>
</g>
<!-- Node5 -->
<g id="node10" class="node"><title>Node5</title>
<polygon fill="none" stroke="#bfbfbf" points="239,-56.5 239,-75.5 367,-75.5 367,-56.5 239,-56.5"/>
<text text-anchor="middle" x="303" y="-63.5" font-family="Helvetica,sans-Serif" font-size="10.00">freeradius&#45;devel/radiusd.h</text>
</g>
<!-- Node3&#45;&gt;Node5 -->
<g id="edge10" class="edge"><title>Node3&#45;&gt;Node5</title>
<path fill="none" stroke="midnightblue" d="M477.723,-113.94C443.878,-104.848 384.661,-88.9387 344.653,-78.1902"/>
<polygon fill="midnightblue" stroke="midnightblue" points="345.488,-74.7905 334.922,-75.576 343.671,-81.5508 345.488,-74.7905"/>
</g>
<!-- Node6 -->
<g id="node12" class="node"><title>Node6</title>
<polygon fill="none" stroke="#bfbfbf" points="385,-56.5 385,-75.5 519,-75.5 519,-56.5 385,-56.5"/>
<text text-anchor="middle" x="452" y="-63.5" font-family="Helvetica,sans-Serif" font-size="10.00">freeradius&#45;devel/modules.h</text>
</g>
<!-- Node3&#45;&gt;Node6 -->
<g id="edge12" class="edge"><title>Node3&#45;&gt;Node6</title>
<path fill="none" stroke="midnightblue" d="M495.413,-112.083C487.841,-104.22 476.622,-92.5688 467.486,-83.0813"/>
<polygon fill="midnightblue" stroke="midnightblue" points="469.885,-80.5266 460.427,-75.7511 464.842,-85.3821 469.885,-80.5266"/>
</g>
<!-- Node3&#45;&gt;Node7 -->
<g id="edge14" class="edge"><title>Node3&#45;&gt;Node7</title>
<path fill="none" stroke="midnightblue" d="M529.843,-112.414C547.497,-105.288 570.122,-93.4673 584,-76 594.619,-62.6353 599.304,-43.5228 601.371,-29.4809"/>
<polygon fill="midnightblue" stroke="midnightblue" points="604.851,-29.8507 602.53,-19.5133 597.898,-29.042 604.851,-29.8507"/>
</g>
<!-- Node3&#45;&gt;Node8 -->
<g id="edge16" class="edge"><title>Node3&#45;&gt;Node8</title>
<path fill="none" stroke="midnightblue" d="M528.719,-112.444C554.848,-103.399 596.259,-89.064 625.576,-78.9158"/>
<polygon fill="midnightblue" stroke="midnightblue" points="627.092,-82.0951 635.397,-75.5164 624.802,-75.4801 627.092,-82.0951"/>
</g>
<!-- Node9 -->
<g id="node18" class="node"><title>Node9</title>
<a xlink:href="otp_8h.html" target="_top" xlink:title="otp.h">
<polygon fill="none" stroke="black" points="537,-56.5 537,-75.5 575,-75.5 575,-56.5 537,-56.5"/>
<text text-anchor="middle" x="556" y="-63.5" font-family="Helvetica,sans-Serif" font-size="10.00">otp.h</text>
</a>
</g>
<!-- Node3&#45;&gt;Node9 -->
<g id="edge18" class="edge"><title>Node3&#45;&gt;Node9</title>
<path fill="none" stroke="midnightblue" d="M512.587,-112.083C520.159,-104.22 531.378,-92.5688 540.514,-83.0813"/>
<polygon fill="midnightblue" stroke="midnightblue" points="543.158,-85.3821 547.573,-75.7511 538.115,-80.5266 543.158,-85.3821"/>
</g>
<!-- Node9&#45;&gt;Node2 -->
<g id="edge20" class="edge"><title>Node9&#45;&gt;Node2</title>
<path fill="none" stroke="midnightblue" d="M536.866,-58.2498C533.924,-57.387 530.901,-56.598 528,-56 387.85,-27.1043 220.229,-16.6868 128.132,-12.9867"/>
<polygon fill="midnightblue" stroke="midnightblue" points="128.226,-9.4878 118.098,-12.5983 127.955,-16.4826 128.226,-9.4878"/>
</g>
<!-- Node9&#45;&gt;Node7 -->
<g id="edge22" class="edge"><title>Node9&#45;&gt;Node7</title>
<path fill="none" stroke="midnightblue" d="M563.761,-56.083C570.537,-48.2982 580.543,-36.8015 588.755,-27.3665"/>
<polygon fill="midnightblue" stroke="midnightblue" points="591.458,-29.592 595.383,-19.7511 586.178,-24.9963 591.458,-29.592"/>
</g>
</g>
</svg>
        <g id="navigator" transform="translate(0 0)" fill="#404254">
                <rect fill="#f2f5e9" fill-opacity="0.5" stroke="#606060" stroke-width=".5" x="0" y="0" width="60" height="60"/>
                <use id="zoomplus" xlink:href="#zoomPlus" x="17" y="9" onmousedown="handleZoom(evt,'in')"/>
                <use id="zoomminus" xlink:href="#zoomMin" x="42" y="9" onmousedown="handleZoom(evt,'out')"/>
                <use id="reset" xlink:href="#resetDef" x="30" y="36" onmousedown="handleReset()"/>
                <g id="arrowUp" xlink:href="#dirArrow" transform="translate(30 24)" onmousedown="handlePan(0,-1)">
                  <use xlink:href="#rim" fill="#404040">
                        <set attributeName="fill" to="#808080" begin="arrowUp.mouseover" end="arrowUp.mouseout"/>
                  </use>
                  <path fill="none" stroke="white" stroke-width="1.5" d="M0,-3.0v7 M-2.5,-0.5L0,-3.0L2.5,-0.5"/>
                </g>
                <g id="arrowRight" xlink:href="#dirArrow" transform="rotate(90) translate(36 -43)" onmousedown="handlePan(1,0)">
                  <use xlink:href="#rim" fill="#404040">
                        <set attributeName="fill" to="#808080" begin="arrowRight.mouseover" end="arrowRight.mouseout"/>
                  </use>
                  <path fill="none" stroke="white" stroke-width="1.5" d="M0,-3.0v7 M-2.5,-0.5L0,-3.0L2.5,-0.5"/>
                </g>
                <g id="arrowDown" xlink:href="#dirArrow" transform="rotate(180) translate(-30 -48)" onmousedown="handlePan(0,1)">
                  <use xlink:href="#rim" fill="#404040">
                        <set attributeName="fill" to="#808080" begin="arrowDown.mouseover" end="arrowDown.mouseout"/>
                  </use>
                  <path fill="none" stroke="white" stroke-width="1.5" d="M0,-3.0v7 M-2.5,-0.5L0,-3.0L2.5,-0.5"/>
                </g>
                <g id="arrowLeft" xlink:href="#dirArrow" transform="rotate(270) translate(-36 17)" onmousedown="handlePan(-1,0)">
                  <use xlink:href="#rim" fill="#404040">
                        <set attributeName="fill" to="#808080" begin="arrowLeft.mouseover" end="arrowLeft.mouseout"/>
                  </use>
                  <path fill="none" stroke="white" stroke-width="1.5" d="M0,-3.0v7 M-2.5,-0.5L0,-3.0L2.5,-0.5"/>
                </g>
        </g>
</svg>
