<?xml version="1.0" encoding="UTF-8" standalone="no"?>
<!DOCTYPE svg PUBLIC "-//W3C//DTD SVG 1.1//EN"
 "http://www.w3.org/Graphics/SVG/1.1/DTD/svg11.dtd">
<!-- Generated by graphviz version 2.28.0 (20111211.2114)
 -->
<!-- Title: G Pages: 1 -->
<svg width="294pt" height="140pt"
 viewBox="0.00 0.00 294.00 140.00" xmlns="http://www.w3.org/2000/svg" xmlns:xlink="http://www.w3.org/1999/xlink">
<g id="graph1" class="graph" transform="scale(1 1) rotate(0) translate(4 136)">
<title>G</title>
<!-- Node1 -->
<g id="node1" class="node"><title>Node1</title>
<polygon fill="#bfbfbf" stroke="black" points="0,-112.5 0,-131.5 286,-131.5 286,-112.5 0,-112.5"/>
<text text-anchor="middle" x="143" y="-119.5" font-family="Helvetica,sans-Serif" font-size="10.00">/home/pjm3/freeradius&#45;server/src/modules/rlm_expr/paircmp.c</text>
</g>
<!-- Node2 -->
<g id="node3" class="node"><title>Node2</title>
<polygon fill="none" stroke="#bfbfbf" points="94,-0.5 94,-19.5 212,-19.5 212,-0.5 94,-0.5"/>
<text text-anchor="middle" x="153" y="-7.5" font-family="Helvetica,sans-Serif" font-size="10.00">freeradius&#45;devel/ident.h</text>
</g>
<!-- Node1&#45;&gt;Node2 -->
<g id="edge2" class="edge"><title>Node1&#45;&gt;Node2</title>
<path fill="none" stroke="midnightblue" d="M118.824,-112.314C92.2763,-101.318 55.2426,-80.7879 70,-56 79.0965,-40.7208 95.3884,-30.3102 111.144,-23.3857"/>
<polygon fill="midnightblue" stroke="midnightblue" points="112.833,-26.4794 120.815,-19.5124 110.231,-19.9811 112.833,-26.4794"/>
</g>
<!-- Node3 -->
<g id="node5" class="node"><title>Node3</title>
<polygon fill="none" stroke="#bfbfbf" points="79,-56.5 79,-75.5 207,-75.5 207,-56.5 79,-56.5"/>
<text text-anchor="middle" x="143" y="-63.5" font-family="Helvetica,sans-Serif" font-size="10.00">freeradius&#45;devel/radiusd.h</text>
</g>
<!-- Node1&#45;&gt;Node3 -->
<g id="edge4" class="edge"><title>Node1&#45;&gt;Node3</title>
<path fill="none" stroke="midnightblue" d="M143,-112.083C143,-105.006 143,-94.8611 143,-85.9865"/>
<polygon fill="midnightblue" stroke="midnightblue" points="146.5,-85.751 143,-75.7511 139.5,-85.7511 146.5,-85.751"/>
</g>
<!-- Node4 -->
<g id="node7" class="node"><title>Node4</title>
<a xlink:href="rlm__expr_8h.html" target="_top" xlink:title="rlm_expr.h">
<polygon fill="none" stroke="black" points="225,-56.5 225,-75.5 287,-75.5 287,-56.5 225,-56.5"/>
<text text-anchor="middle" x="256" y="-63.5" font-family="Helvetica,sans-Serif" font-size="10.00">rlm_expr.h</text>
</a>
</g>
<!-- Node1&#45;&gt;Node4 -->
<g id="edge6" class="edge"><title>Node1&#45;&gt;Node4</title>
<path fill="none" stroke="midnightblue" d="M160.905,-112.444C179.254,-103.675 208.005,-89.9355 229.094,-79.8579"/>
<polygon fill="midnightblue" stroke="midnightblue" points="230.665,-82.9862 238.179,-75.5164 227.647,-76.6703 230.665,-82.9862"/>
</g>
<!-- Node4&#45;&gt;Node2 -->
<g id="edge8" class="edge"><title>Node4&#45;&gt;Node2</title>
<path fill="none" stroke="midnightblue" d="M239.451,-56.324C223.008,-47.7034 197.565,-34.3643 178.532,-24.3855"/>
<polygon fill="midnightblue" stroke="midnightblue" points="179.989,-21.198 169.508,-19.6545 176.739,-27.3977 179.989,-21.198"/>
</g>
</g>
</svg>
