<?xml version="1.0" encoding="UTF-8" standalone="no"?>
<!DOCTYPE svg PUBLIC "-//W3C//DTD SVG 1.1//EN"
 "http://www.w3.org/Graphics/SVG/1.1/DTD/svg11.dtd">
<!-- Generated by graphviz version 2.28.0 (20111211.2114)
 -->
<!-- Title: G Pages: 1 -->
<!--zoomable-->
<svg id="main" version="1.1" xmlns="http://www.w3.org/2000/svg" xmlns:xlink="http://www.w3.org/1999/xlink" xml:space="preserve" onload="init(evt)">
        <defs>
                <circle id="rim" cx="0" cy="0" r="7"/>
                <circle id="rim2" cx="0" cy="0" r="3.5"/>
                <g id="zoomPlus">
                        <use xlink:href="#rim" fill="#404040">
                                <set attributeName="fill" to="#808080" begin="zoomplus.mouseover" end="zoomplus.mouseout"/>
                        </use>
                        <path d="M-4,0h8M0,-4v8" fill="none" stroke="white" stroke-width="1.5" pointer-events="none"/>
                </g>
                <g id="zoomMin">
                        <use xlink:href="#rim" fill="#404040">
                                <set attributeName="fill" to="#808080" begin="zoomminus.mouseover" end="zoomminus.mouseout"/>
                        </use>
                        <path d="M-4,0h8" fill="none" stroke="white" stroke-width="1.5" pointer-events="none"/>
                </g>
                <g id="dirArrow">
                        <path fill="none" stroke="white" stroke-width="1.5" d="M0,-3.0v7 M-2.5,-0.5L0,-3.0L2.5,-0.5"/>
                </g>
               <g id="resetDef">
                       <use xlink:href="#rim2" fill="#404040">
                               <set attributeName="fill" to="#808080" begin="reset.mouseover" end="reset.mouseout"/>
                       </use>
               </g>
        </defs>

<script type="text/javascript">
var viewWidth = 735;
var viewHeight = 140;
var sectionId = 'dynsection-0';
</script>
<script xlink:href="svgpan.js"/>
<svg id="graph" class="graph">
<g id="viewport">
<title>G</title>
<!-- Node1 -->
<g id="node1" class="node"><title>Node1</title>
<polygon fill="#bfbfbf" stroke="black" points="307.086,-112.5 307.086,-131.5 539.086,-131.5 539.086,-112.5 307.086,-112.5"/>
<text text-anchor="middle" x="423.086" y="-119.5" font-family="Helvetica,sans-Serif" font-size="10.00">/home/pjm3/freeradius&#45;server/src/main/radclient.c</text>
</g>
<!-- Node2 -->
<g id="node3" class="node"><title>Node2</title>
<polygon fill="none" stroke="#bfbfbf" points="562.086,-0.5 562.086,-19.5 680.086,-19.5 680.086,-0.5 562.086,-0.5"/>
<text text-anchor="middle" x="621.086" y="-7.5" font-family="Helvetica,sans-Serif" font-size="10.00">freeradius&#45;devel/ident.h</text>
</g>
<!-- Node1&#45;&gt;Node2 -->
<g id="edge2" class="edge"><title>Node1&#45;&gt;Node2</title>
<path fill="none" stroke="midnightblue" d="M306.997,-119.588C169.136,-115.824 -37.126,-102.489 6.08557,-56 42.6005,-16.7156 398.8,-11.3599 551.814,-10.8867"/>
<polygon fill="midnightblue" stroke="midnightblue" points="552.042,-14.3862 562.034,-10.8615 552.025,-7.38626 552.042,-14.3862"/>
</g>
<!-- Node3 -->
<g id="node5" class="node"><title>Node3</title>
<polygon fill="none" stroke="#bfbfbf" points="15.5856,-56.5 15.5856,-75.5 148.586,-75.5 148.586,-56.5 15.5856,-56.5"/>
<text text-anchor="middle" x="82.0856" y="-63.5" font-family="Helvetica,sans-Serif" font-size="10.00">freeradius&#45;devel/libradius.h</text>
</g>
<!-- Node1&#45;&gt;Node3 -->
<g id="edge4" class="edge"><title>Node1&#45;&gt;Node3</title>
<path fill="none" stroke="midnightblue" d="M369.053,-112.444C308.444,-102.846 210.223,-87.2916 145.889,-77.1037"/>
<polygon fill="midnightblue" stroke="midnightblue" points="146.29,-73.6237 135.865,-75.5164 145.195,-80.5375 146.29,-73.6237"/>
</g>
<!-- Node4 -->
<g id="node7" class="node"><title>Node4</title>
<polygon fill="none" stroke="#bfbfbf" points="167.086,-56.5 167.086,-75.5 283.086,-75.5 283.086,-56.5 167.086,-56.5"/>
<text text-anchor="middle" x="225.086" y="-63.5" font-family="Helvetica,sans-Serif" font-size="10.00">freeradius&#45;devel/conf.h</text>
</g>
<!-- Node1&#45;&gt;Node4 -->
<g id="edge6" class="edge"><title>Node1&#45;&gt;Node4</title>
<path fill="none" stroke="midnightblue" d="M391.712,-112.444C357.823,-103.201 303.683,-88.4356 266.362,-78.2572"/>
<polygon fill="midnightblue" stroke="midnightblue" points="266.881,-74.771 256.312,-75.5164 265.039,-81.5243 266.881,-74.771"/>
</g>
<!-- Node5 -->
<g id="node9" class="node"><title>Node5</title>
<polygon fill="none" stroke="#bfbfbf" points="301.086,-56.5 301.086,-75.5 435.086,-75.5 435.086,-56.5 301.086,-56.5"/>
<text text-anchor="middle" x="368.086" y="-63.5" font-family="Helvetica,sans-Serif" font-size="10.00">freeradius&#45;devel/radpaths.h</text>
</g>
<!-- Node1&#45;&gt;Node5 -->
<g id="edge8" class="edge"><title>Node1&#45;&gt;Node5</title>
<path fill="none" stroke="midnightblue" d="M414.003,-112.083C405.914,-104.141 393.89,-92.3354 384.175,-82.7973"/>
<polygon fill="midnightblue" stroke="midnightblue" points="386.586,-80.2595 376.999,-75.7511 381.682,-85.2545 386.586,-80.2595"/>
</g>
<!-- Node6 -->
<g id="node11" class="node"><title>Node6</title>
<polygon fill="none" stroke="#bfbfbf" points="453.586,-56.5 453.586,-75.5 502.586,-75.5 502.586,-56.5 453.586,-56.5"/>
<text text-anchor="middle" x="478.086" y="-63.5" font-family="Helvetica,sans-Serif" font-size="10.00">ctype.h</text>
</g>
<!-- Node1&#45;&gt;Node6 -->
<g id="edge10" class="edge"><title>Node1&#45;&gt;Node6</title>
<path fill="none" stroke="midnightblue" d="M432.168,-112.083C440.257,-104.141 452.281,-92.3354 461.996,-82.7973"/>
<polygon fill="midnightblue" stroke="midnightblue" points="464.489,-85.2545 469.172,-75.7511 459.585,-80.2595 464.489,-85.2545"/>
</g>
<!-- Node7 -->
<g id="node13" class="node"><title>Node7</title>
<polygon fill="none" stroke="#bfbfbf" points="521.086,-56.5 521.086,-75.5 573.086,-75.5 573.086,-56.5 521.086,-56.5"/>
<text text-anchor="middle" x="547.086" y="-63.5" font-family="Helvetica,sans-Serif" font-size="10.00">assert.h</text>
</g>
<!-- Node1&#45;&gt;Node7 -->
<g id="edge12" class="edge"><title>Node1&#45;&gt;Node7</title>
<path fill="none" stroke="midnightblue" d="M442.734,-112.444C463.05,-103.596 494.988,-89.6875 518.183,-79.5865"/>
<polygon fill="midnightblue" stroke="midnightblue" points="519.758,-82.7181 527.529,-75.5164 516.964,-76.3002 519.758,-82.7181"/>
</g>
<!-- Node8 -->
<g id="node15" class="node"><title>Node8</title>
<a xlink:href="smbdes_8h.html" target="_top" xlink:title="smbdes.h">
<polygon fill="none" stroke="black" points="591.586,-56.5 591.586,-75.5 650.586,-75.5 650.586,-56.5 591.586,-56.5"/>
<text text-anchor="middle" x="621.086" y="-63.5" font-family="Helvetica,sans-Serif" font-size="10.00">smbdes.h</text>
</a>
</g>
<!-- Node1&#45;&gt;Node8 -->
<g id="edge14" class="edge"><title>Node1&#45;&gt;Node8</title>
<path fill="none" stroke="midnightblue" d="M454.459,-112.444C488.847,-103.065 544.085,-88.0001 581.445,-77.8112"/>
<polygon fill="midnightblue" stroke="midnightblue" points="582.749,-81.0834 591.476,-75.0755 580.907,-74.33 582.749,-81.0834"/>
</g>
<!-- Node9 -->
<g id="node18" class="node"><title>Node9</title>
<a xlink:href="mschap_8h.html" target="_top" xlink:title="mschap.h">
<polygon fill="none" stroke="black" points="668.586,-56.5 668.586,-75.5 727.586,-75.5 727.586,-56.5 668.586,-56.5"/>
<text text-anchor="middle" x="698.086" y="-63.5" font-family="Helvetica,sans-Serif" font-size="10.00">mschap.h</text>
</a>
</g>
<!-- Node1&#45;&gt;Node9 -->
<g id="edge18" class="edge"><title>Node1&#45;&gt;Node9</title>
<path fill="none" stroke="midnightblue" d="M470.656,-112.483C516.25,-104.196 587.251,-90.968 658.281,-76.105"/>
<polygon fill="midnightblue" stroke="midnightblue" points="659.236,-79.4808 668.301,-73.9972 657.795,-72.6307 659.236,-79.4808"/>
</g>
<!-- Node8&#45;&gt;Node2 -->
<g id="edge16" class="edge"><title>Node8&#45;&gt;Node2</title>
<path fill="none" stroke="midnightblue" d="M621.086,-56.083C621.086,-49.0059 621.086,-38.8611 621.086,-29.9865"/>
<polygon fill="midnightblue" stroke="midnightblue" points="624.586,-29.751 621.086,-19.7511 617.586,-29.7511 624.586,-29.751"/>
</g>
<!-- Node9&#45;&gt;Node2 -->
<g id="edge20" class="edge"><title>Node9&#45;&gt;Node2</title>
<path fill="none" stroke="midnightblue" d="M685.714,-56.324C673.927,-48.0577 655.953,-35.4527 641.95,-25.6322"/>
<polygon fill="midnightblue" stroke="midnightblue" points="643.623,-22.5307 633.426,-19.6545 639.604,-28.2619 643.623,-22.5307"/>
</g>
</g>
</svg>
        <g id="navigator" transform="translate(0 0)" fill="#404254">
                <rect fill="#f2f5e9" fill-opacity="0.5" stroke="#606060" stroke-width=".5" x="0" y="0" width="60" height="60"/>
                <use id="zoomplus" xlink:href="#zoomPlus" x="17" y="9" onmousedown="handleZoom(evt,'in')"/>
                <use id="zoomminus" xlink:href="#zoomMin" x="42" y="9" onmousedown="handleZoom(evt,'out')"/>
                <use id="reset" xlink:href="#resetDef" x="30" y="36" onmousedown="handleReset()"/>
                <g id="arrowUp" xlink:href="#dirArrow" transform="translate(30 24)" onmousedown="handlePan(0,-1)">
                  <use xlink:href="#rim" fill="#404040">
                        <set attributeName="fill" to="#808080" begin="arrowUp.mouseover" end="arrowUp.mouseout"/>
                  </use>
                  <path fill="none" stroke="white" stroke-width="1.5" d="M0,-3.0v7 M-2.5,-0.5L0,-3.0L2.5,-0.5"/>
                </g>
                <g id="arrowRight" xlink:href="#dirArrow" transform="rotate(90) translate(36 -43)" onmousedown="handlePan(1,0)">
                  <use xlink:href="#rim" fill="#404040">
                        <set attributeName="fill" to="#808080" begin="arrowRight.mouseover" end="arrowRight.mouseout"/>
                  </use>
                  <path fill="none" stroke="white" stroke-width="1.5" d="M0,-3.0v7 M-2.5,-0.5L0,-3.0L2.5,-0.5"/>
                </g>
                <g id="arrowDown" xlink:href="#dirArrow" transform="rotate(180) translate(-30 -48)" onmousedown="handlePan(0,1)">
                  <use xlink:href="#rim" fill="#404040">
                        <set attributeName="fill" to="#808080" begin="arrowDown.mouseover" end="arrowDown.mouseout"/>
                  </use>
                  <path fill="none" stroke="white" stroke-width="1.5" d="M0,-3.0v7 M-2.5,-0.5L0,-3.0L2.5,-0.5"/>
                </g>
                <g id="arrowLeft" xlink:href="#dirArrow" transform="rotate(270) translate(-36 17)" onmousedown="handlePan(-1,0)">
                  <use xlink:href="#rim" fill="#404040">
                        <set attributeName="fill" to="#808080" begin="arrowLeft.mouseover" end="arrowLeft.mouseout"/>
                  </use>
                  <path fill="none" stroke="white" stroke-width="1.5" d="M0,-3.0v7 M-2.5,-0.5L0,-3.0L2.5,-0.5"/>
                </g>
        </g>
</svg>
