<?xml version="1.0" encoding="UTF-8" standalone="no"?>
<!DOCTYPE svg PUBLIC "-//W3C//DTD SVG 1.1//EN"
 "http://www.w3.org/Graphics/SVG/1.1/DTD/svg11.dtd">
<!-- Generated by graphviz version 2.28.0 (20111211.2114)
 -->
<!-- Title: G Pages: 1 -->
<!--zoomable-->
<svg id="main" version="1.1" xmlns="http://www.w3.org/2000/svg" xmlns:xlink="http://www.w3.org/1999/xlink" xml:space="preserve" onload="init(evt)">
        <defs>
                <circle id="rim" cx="0" cy="0" r="7"/>
                <circle id="rim2" cx="0" cy="0" r="3.5"/>
                <g id="zoomPlus">
                        <use xlink:href="#rim" fill="#404040">
                                <set attributeName="fill" to="#808080" begin="zoomplus.mouseover" end="zoomplus.mouseout"/>
                        </use>
                        <path d="M-4,0h8M0,-4v8" fill="none" stroke="white" stroke-width="1.5" pointer-events="none"/>
                </g>
                <g id="zoomMin">
                        <use xlink:href="#rim" fill="#404040">
                                <set attributeName="fill" to="#808080" begin="zoomminus.mouseover" end="zoomminus.mouseout"/>
                        </use>
                        <path d="M-4,0h8" fill="none" stroke="white" stroke-width="1.5" pointer-events="none"/>
                </g>
                <g id="dirArrow">
                        <path fill="none" stroke="white" stroke-width="1.5" d="M0,-3.0v7 M-2.5,-0.5L0,-3.0L2.5,-0.5"/>
                </g>
               <g id="resetDef">
                       <use xlink:href="#rim2" fill="#404040">
                               <set attributeName="fill" to="#808080" begin="reset.mouseover" end="reset.mouseout"/>
                       </use>
               </g>
        </defs>

<script type="text/javascript">
var viewWidth = 936;
var viewHeight = 196;
var sectionId = 'dynsection-0';
</script>
<script xlink:href="svgpan.js"/>
<svg id="graph" class="graph">
<g id="viewport">
<title>G</title>
<!-- Node1 -->
<g id="node1" class="node"><title>Node1</title>
<polygon fill="#bfbfbf" stroke="black" points="210.195,-168.5 210.195,-187.5 511.195,-187.5 511.195,-168.5 210.195,-168.5"/>
<text text-anchor="middle" x="360.695" y="-175.5" font-family="Helvetica,sans-Serif" font-size="10.00">/home/pjm3/freeradius&#45;server/src/modules/rlm_eap/radeapclient.c</text>
</g>
<!-- Node2 -->
<g id="node3" class="node"><title>Node2</title>
<polygon fill="none" stroke="#bfbfbf" points="511.695,-0.5 511.695,-19.5 629.695,-19.5 629.695,-0.5 511.695,-0.5"/>
<text text-anchor="middle" x="570.695" y="-7.5" font-family="Helvetica,sans-Serif" font-size="10.00">freeradius&#45;devel/ident.h</text>
</g>
<!-- Node1&#45;&gt;Node2 -->
<g id="edge2" class="edge"><title>Node1&#45;&gt;Node2</title>
<path fill="none" stroke="midnightblue" d="M210.081,-171.216C99.964,-163.991 -25.329,-147.857 4.69548,-112 67.3066,-37.2272 364.115,-17.7572 501.107,-12.7294"/>
<polygon fill="midnightblue" stroke="midnightblue" points="501.61,-16.214 511.481,-12.3651 501.364,-9.21829 501.61,-16.214"/>
</g>
<!-- Node3 -->
<g id="node5" class="node"><title>Node3</title>
<polygon fill="none" stroke="#bfbfbf" points="14.1955,-112.5 14.1955,-131.5 147.195,-131.5 147.195,-112.5 14.1955,-112.5"/>
<text text-anchor="middle" x="80.6955" y="-119.5" font-family="Helvetica,sans-Serif" font-size="10.00">freeradius&#45;devel/libradius.h</text>
</g>
<!-- Node1&#45;&gt;Node3 -->
<g id="edge4" class="edge"><title>Node1&#45;&gt;Node3</title>
<path fill="none" stroke="midnightblue" d="M316.329,-168.444C267.074,-158.944 187.567,-143.611 134.724,-133.42"/>
<polygon fill="midnightblue" stroke="midnightblue" points="135.337,-129.974 124.855,-131.516 134.011,-136.847 135.337,-129.974"/>
</g>
<!-- Node4 -->
<g id="node7" class="node"><title>Node4</title>
<polygon fill="none" stroke="#bfbfbf" points="165.195,-112.5 165.195,-131.5 214.195,-131.5 214.195,-112.5 165.195,-112.5"/>
<text text-anchor="middle" x="189.695" y="-119.5" font-family="Helvetica,sans-Serif" font-size="10.00">ctype.h</text>
</g>
<!-- Node1&#45;&gt;Node4 -->
<g id="edge6" class="edge"><title>Node1&#45;&gt;Node4</title>
<path fill="none" stroke="midnightblue" d="M333.6,-168.444C304.028,-159.105 256.6,-144.128 224.342,-133.941"/>
<polygon fill="midnightblue" stroke="midnightblue" points="225.033,-130.489 214.443,-130.815 222.925,-137.164 225.033,-130.489"/>
</g>
<!-- Node5 -->
<g id="node9" class="node"><title>Node5</title>
<polygon fill="none" stroke="#bfbfbf" points="231.695,-112.5 231.695,-131.5 347.695,-131.5 347.695,-112.5 231.695,-112.5"/>
<text text-anchor="middle" x="289.695" y="-119.5" font-family="Helvetica,sans-Serif" font-size="10.00">freeradius&#45;devel/conf.h</text>
</g>
<!-- Node1&#45;&gt;Node5 -->
<g id="edge8" class="edge"><title>Node1&#45;&gt;Node5</title>
<path fill="none" stroke="midnightblue" d="M349.288,-168.324C338.587,-160.185 322.355,-147.839 309.533,-138.087"/>
<polygon fill="midnightblue" stroke="midnightblue" points="311.389,-135.102 301.31,-131.834 307.151,-140.673 311.389,-135.102"/>
</g>
<!-- Node6 -->
<g id="node11" class="node"><title>Node6</title>
<polygon fill="none" stroke="#bfbfbf" points="365.695,-112.5 365.695,-131.5 499.695,-131.5 499.695,-112.5 365.695,-112.5"/>
<text text-anchor="middle" x="432.695" y="-119.5" font-family="Helvetica,sans-Serif" font-size="10.00">freeradius&#45;devel/radpaths.h</text>
</g>
<!-- Node1&#45;&gt;Node6 -->
<g id="edge10" class="edge"><title>Node1&#45;&gt;Node6</title>
<path fill="none" stroke="midnightblue" d="M372.264,-168.324C383.116,-160.185 399.576,-147.839 412.579,-138.087"/>
<polygon fill="midnightblue" stroke="midnightblue" points="415.017,-140.634 420.917,-131.834 410.817,-135.034 415.017,-140.634"/>
</g>
<!-- Node7 -->
<g id="node13" class="node"><title>Node7</title>
<polygon fill="none" stroke="#bfbfbf" points="517.695,-112.5 517.695,-131.5 633.695,-131.5 633.695,-112.5 517.695,-112.5"/>
<text text-anchor="middle" x="575.695" y="-119.5" font-family="Helvetica,sans-Serif" font-size="10.00">freeradius&#45;devel/md5.h</text>
</g>
<!-- Node1&#45;&gt;Node7 -->
<g id="edge12" class="edge"><title>Node1&#45;&gt;Node7</title>
<path fill="none" stroke="midnightblue" d="M394.763,-168.444C431.876,-159.122 491.357,-144.183 531.91,-133.997"/>
<polygon fill="midnightblue" stroke="midnightblue" points="532.941,-137.347 541.787,-131.516 531.236,-130.558 532.941,-137.347"/>
</g>
<!-- Node8 -->
<g id="node15" class="node"><title>Node8</title>
<a xlink:href="eap__types_8h.html" target="_top" xlink:title="eap_types.h">
<polygon fill="none" stroke="black" points="676.695,-56.5 676.695,-75.5 746.695,-75.5 746.695,-56.5 676.695,-56.5"/>
<text text-anchor="middle" x="711.695" y="-63.5" font-family="Helvetica,sans-Serif" font-size="10.00">eap_types.h</text>
</a>
</g>
<!-- Node1&#45;&gt;Node8 -->
<g id="edge14" class="edge"><title>Node1&#45;&gt;Node8</title>
<path fill="none" stroke="midnightblue" d="M498.886,-168.483C594.304,-161.151 706.645,-149.043 721.695,-132 732.885,-119.329 727.786,-99.5715 721.497,-85.1637"/>
<polygon fill="midnightblue" stroke="midnightblue" points="724.456,-83.2463 716.924,-75.7958 718.166,-86.3176 724.456,-83.2463"/>
</g>
<!-- Node11 -->
<g id="node22" class="node"><title>Node11</title>
<a xlink:href="eap__sim_8h.html" target="_top" xlink:title="eap_sim.h">
<polygon fill="none" stroke="black" points="651.695,-112.5 651.695,-131.5 713.695,-131.5 713.695,-112.5 651.695,-112.5"/>
<text text-anchor="middle" x="682.695" y="-119.5" font-family="Helvetica,sans-Serif" font-size="10.00">eap_sim.h</text>
</a>
</g>
<!-- Node1&#45;&gt;Node11 -->
<g id="edge22" class="edge"><title>Node1&#45;&gt;Node11</title>
<path fill="none" stroke="midnightblue" d="M420.345,-168.46C475.119,-160.389 558.76,-147.488 641.332,-131.97"/>
<polygon fill="midnightblue" stroke="midnightblue" points="642.22,-135.364 651.394,-130.064 640.918,-128.486 642.22,-135.364"/>
</g>
<!-- Node8&#45;&gt;Node2 -->
<g id="edge16" class="edge"><title>Node8&#45;&gt;Node2</title>
<path fill="none" stroke="midnightblue" d="M689.354,-56.4435C665.943,-47.4776 628.96,-33.314 602.506,-23.1827"/>
<polygon fill="midnightblue" stroke="midnightblue" points="603.523,-19.8245 592.933,-19.5164 601.02,-26.3615 603.523,-19.8245"/>
</g>
<!-- Node9 -->
<g id="node18" class="node"><title>Node9</title>
<polygon fill="none" stroke="#bfbfbf" points="647.695,-0.5 647.695,-19.5 775.695,-19.5 775.695,-0.5 647.695,-0.5"/>
<text text-anchor="middle" x="711.695" y="-7.5" font-family="Helvetica,sans-Serif" font-size="10.00">freeradius&#45;devel/radiusd.h</text>
</g>
<!-- Node8&#45;&gt;Node9 -->
<g id="edge18" class="edge"><title>Node8&#45;&gt;Node9</title>
<path fill="none" stroke="midnightblue" d="M711.695,-56.083C711.695,-49.0059 711.695,-38.8611 711.695,-29.9865"/>
<polygon fill="midnightblue" stroke="midnightblue" points="715.196,-29.751 711.695,-19.7511 708.196,-29.7511 715.196,-29.751"/>
</g>
<!-- Node10 -->
<g id="node20" class="node"><title>Node10</title>
<polygon fill="none" stroke="#bfbfbf" points="793.695,-0.5 793.695,-19.5 927.695,-19.5 927.695,-0.5 793.695,-0.5"/>
<text text-anchor="middle" x="860.695" y="-7.5" font-family="Helvetica,sans-Serif" font-size="10.00">freeradius&#45;devel/modules.h</text>
</g>
<!-- Node8&#45;&gt;Node10 -->
<g id="edge20" class="edge"><title>Node8&#45;&gt;Node10</title>
<path fill="none" stroke="midnightblue" d="M735.305,-56.4435C760.153,-47.4381 799.47,-33.1891 827.449,-23.049"/>
<polygon fill="midnightblue" stroke="midnightblue" points="828.987,-26.2144 837.196,-19.5164 826.602,-19.6332 828.987,-26.2144"/>
</g>
<!-- Node11&#45;&gt;Node2 -->
<g id="edge24" class="edge"><title>Node11&#45;&gt;Node2</title>
<path fill="none" stroke="midnightblue" d="M673.907,-112.368C655.097,-93.8941 610.702,-50.2926 586.725,-26.7436"/>
<polygon fill="midnightblue" stroke="midnightblue" points="589.03,-24.1015 579.443,-19.5914 584.125,-29.0956 589.03,-24.1015"/>
</g>
<!-- Node11&#45;&gt;Node8 -->
<g id="edge26" class="edge"><title>Node11&#45;&gt;Node8</title>
<path fill="none" stroke="midnightblue" d="M687.484,-112.083C691.454,-104.691 697.221,-93.9533 702.13,-84.8111"/>
<polygon fill="midnightblue" stroke="midnightblue" points="705.348,-86.217 706.996,-75.7511 699.181,-82.9051 705.348,-86.217"/>
</g>
</g>
</svg>
        <g id="navigator" transform="translate(0 0)" fill="#404254">
                <rect fill="#f2f5e9" fill-opacity="0.5" stroke="#606060" stroke-width=".5" x="0" y="0" width="60" height="60"/>
                <use id="zoomplus" xlink:href="#zoomPlus" x="17" y="9" onmousedown="handleZoom(evt,'in')"/>
                <use id="zoomminus" xlink:href="#zoomMin" x="42" y="9" onmousedown="handleZoom(evt,'out')"/>
                <use id="reset" xlink:href="#resetDef" x="30" y="36" onmousedown="handleReset()"/>
                <g id="arrowUp" xlink:href="#dirArrow" transform="translate(30 24)" onmousedown="handlePan(0,-1)">
                  <use xlink:href="#rim" fill="#404040">
                        <set attributeName="fill" to="#808080" begin="arrowUp.mouseover" end="arrowUp.mouseout"/>
                  </use>
                  <path fill="none" stroke="white" stroke-width="1.5" d="M0,-3.0v7 M-2.5,-0.5L0,-3.0L2.5,-0.5"/>
                </g>
                <g id="arrowRight" xlink:href="#dirArrow" transform="rotate(90) translate(36 -43)" onmousedown="handlePan(1,0)">
                  <use xlink:href="#rim" fill="#404040">
                        <set attributeName="fill" to="#808080" begin="arrowRight.mouseover" end="arrowRight.mouseout"/>
                  </use>
                  <path fill="none" stroke="white" stroke-width="1.5" d="M0,-3.0v7 M-2.5,-0.5L0,-3.0L2.5,-0.5"/>
                </g>
                <g id="arrowDown" xlink:href="#dirArrow" transform="rotate(180) translate(-30 -48)" onmousedown="handlePan(0,1)">
                  <use xlink:href="#rim" fill="#404040">
                        <set attributeName="fill" to="#808080" begin="arrowDown.mouseover" end="arrowDown.mouseout"/>
                  </use>
                  <path fill="none" stroke="white" stroke-width="1.5" d="M0,-3.0v7 M-2.5,-0.5L0,-3.0L2.5,-0.5"/>
                </g>
                <g id="arrowLeft" xlink:href="#dirArrow" transform="rotate(270) translate(-36 17)" onmousedown="handlePan(-1,0)">
                  <use xlink:href="#rim" fill="#404040">
                        <set attributeName="fill" to="#808080" begin="arrowLeft.mouseover" end="arrowLeft.mouseout"/>
                  </use>
                  <path fill="none" stroke="white" stroke-width="1.5" d="M0,-3.0v7 M-2.5,-0.5L0,-3.0L2.5,-0.5"/>
                </g>
        </g>
</svg>
