<?xml version="1.0" encoding="UTF-8" standalone="no"?>
<!DOCTYPE svg PUBLIC "-//W3C//DTD SVG 1.1//EN"
 "http://www.w3.org/Graphics/SVG/1.1/DTD/svg11.dtd">
<!-- Generated by graphviz version 2.28.0 (20111211.2114)
 -->
<!-- Title: G Pages: 1 -->
<!--zoomable-->
<svg id="main" version="1.1" xmlns="http://www.w3.org/2000/svg" xmlns:xlink="http://www.w3.org/1999/xlink" xml:space="preserve" onload="init(evt)">
        <defs>
                <circle id="rim" cx="0" cy="0" r="7"/>
                <circle id="rim2" cx="0" cy="0" r="3.5"/>
                <g id="zoomPlus">
                        <use xlink:href="#rim" fill="#404040">
                                <set attributeName="fill" to="#808080" begin="zoomplus.mouseover" end="zoomplus.mouseout"/>
                        </use>
                        <path d="M-4,0h8M0,-4v8" fill="none" stroke="white" stroke-width="1.5" pointer-events="none"/>
                </g>
                <g id="zoomMin">
                        <use xlink:href="#rim" fill="#404040">
                                <set attributeName="fill" to="#808080" begin="zoomminus.mouseover" end="zoomminus.mouseout"/>
                        </use>
                        <path d="M-4,0h8" fill="none" stroke="white" stroke-width="1.5" pointer-events="none"/>
                </g>
                <g id="dirArrow">
                        <path fill="none" stroke="white" stroke-width="1.5" d="M0,-3.0v7 M-2.5,-0.5L0,-3.0L2.5,-0.5"/>
                </g>
               <g id="resetDef">
                       <use xlink:href="#rim2" fill="#404040">
                               <set attributeName="fill" to="#808080" begin="reset.mouseover" end="reset.mouseout"/>
                       </use>
               </g>
        </defs>

<script type="text/javascript">
var viewWidth = 862;
var viewHeight = 140;
var sectionId = 'dynsection-0';
</script>
<script xlink:href="svgpan.js"/>
<svg id="graph" class="graph">
<g id="viewport">
<title>G</title>
<!-- Node1 -->
<g id="node1" class="node"><title>Node1</title>
<polygon fill="#bfbfbf" stroke="black" points="177.352,-112.5 177.352,-131.5 443.352,-131.5 443.352,-112.5 177.352,-112.5"/>
<text text-anchor="middle" x="310.352" y="-119.5" font-family="Helvetica,sans-Serif" font-size="10.00">/home/pjm3/freeradius&#45;server/src/modules/rlm_rest/rest.c</text>
</g>
<!-- Node2 -->
<g id="node3" class="node"><title>Node2</title>
<polygon fill="none" stroke="#bfbfbf" points="238.352,-0.5 238.352,-19.5 356.352,-19.5 356.352,-0.5 238.352,-0.5"/>
<text text-anchor="middle" x="297.352" y="-7.5" font-family="Helvetica,sans-Serif" font-size="10.00">freeradius&#45;devel/ident.h</text>
</g>
<!-- Node1&#45;&gt;Node2 -->
<g id="edge2" class="edge"><title>Node1&#45;&gt;Node2</title>
<path fill="none" stroke="midnightblue" d="M177.104,-118.197C105.417,-113.563 27.1224,-102.364 4.35227,-76 -1.45792,-69.2729 -1.43643,-62.7456 4.35227,-56 32.5783,-23.108 150.504,-14.0182 227.872,-11.6482"/>
<polygon fill="midnightblue" stroke="midnightblue" points="228.137,-15.1423 238.036,-11.368 227.944,-8.14496 228.137,-15.1423"/>
</g>
<!-- Node3 -->
<g id="node5" class="node"><title>Node3</title>
<polygon fill="none" stroke="#bfbfbf" points="13.3523,-56.5 13.3523,-75.5 65.3523,-75.5 65.3523,-56.5 13.3523,-56.5"/>
<text text-anchor="middle" x="39.3523" y="-63.5" font-family="Helvetica,sans-Serif" font-size="10.00">assert.h</text>
</g>
<!-- Node1&#45;&gt;Node3 -->
<g id="edge4" class="edge"><title>Node1&#45;&gt;Node3</title>
<path fill="none" stroke="midnightblue" d="M261.582,-112.48C216.08,-104.347 146.083,-91.3682 75.604,-75.9482"/>
<polygon fill="midnightblue" stroke="midnightblue" points="76.1773,-72.4906 65.6584,-73.7564 74.6708,-79.3266 76.1773,-72.4906"/>
</g>
<!-- Node4 -->
<g id="node7" class="node"><title>Node4</title>
<polygon fill="none" stroke="#bfbfbf" points="83.8523,-56.5 83.8523,-75.5 132.852,-75.5 132.852,-56.5 83.8523,-56.5"/>
<text text-anchor="middle" x="108.352" y="-63.5" font-family="Helvetica,sans-Serif" font-size="10.00">ctype.h</text>
</g>
<!-- Node1&#45;&gt;Node4 -->
<g id="edge6" class="edge"><title>Node1&#45;&gt;Node4</title>
<path fill="none" stroke="midnightblue" d="M278.345,-112.444C241.432,-102.576 180.97,-86.4126 142.983,-76.2577"/>
<polygon fill="midnightblue" stroke="midnightblue" points="143.468,-72.7644 132.903,-73.5631 141.66,-79.527 143.468,-72.7644"/>
</g>
<!-- Node5 -->
<g id="node9" class="node"><title>Node5</title>
<polygon fill="none" stroke="#bfbfbf" points="150.852,-56.5 150.852,-75.5 199.852,-75.5 199.852,-56.5 150.852,-56.5"/>
<text text-anchor="middle" x="175.352" y="-63.5" font-family="Helvetica,sans-Serif" font-size="10.00">string.h</text>
</g>
<!-- Node1&#45;&gt;Node5 -->
<g id="edge8" class="edge"><title>Node1&#45;&gt;Node5</title>
<path fill="none" stroke="midnightblue" d="M288.961,-112.444C266.645,-103.517 231.449,-89.4387 206.144,-79.3168"/>
<polygon fill="midnightblue" stroke="midnightblue" points="207.228,-75.9807 196.643,-75.5164 204.628,-82.4801 207.228,-75.9807"/>
</g>
<!-- Node6 -->
<g id="node11" class="node"><title>Node6</title>
<polygon fill="none" stroke="#bfbfbf" points="218.352,-56.5 218.352,-75.5 262.352,-75.5 262.352,-56.5 218.352,-56.5"/>
<text text-anchor="middle" x="240.352" y="-63.5" font-family="Helvetica,sans-Serif" font-size="10.00">time.h</text>
</g>
<!-- Node1&#45;&gt;Node6 -->
<g id="edge10" class="edge"><title>Node1&#45;&gt;Node6</title>
<path fill="none" stroke="midnightblue" d="M299.106,-112.324C288.555,-104.185 272.552,-91.8395 259.91,-82.0874"/>
<polygon fill="midnightblue" stroke="midnightblue" points="261.859,-79.1707 251.804,-75.8339 257.584,-84.7132 261.859,-79.1707"/>
</g>
<!-- Node7 -->
<g id="node13" class="node"><title>Node7</title>
<polygon fill="none" stroke="#bfbfbf" points="280.852,-56.5 280.852,-75.5 339.852,-75.5 339.852,-56.5 280.852,-56.5"/>
<text text-anchor="middle" x="310.352" y="-63.5" font-family="Helvetica,sans-Serif" font-size="10.00">curl/curl.h</text>
</g>
<!-- Node1&#45;&gt;Node7 -->
<g id="edge12" class="edge"><title>Node1&#45;&gt;Node7</title>
<path fill="none" stroke="midnightblue" d="M310.352,-112.083C310.352,-105.006 310.352,-94.8611 310.352,-85.9865"/>
<polygon fill="midnightblue" stroke="midnightblue" points="313.852,-85.751 310.352,-75.7511 306.852,-85.7511 313.852,-85.751"/>
</g>
<!-- Node8 -->
<g id="node15" class="node"><title>Node8</title>
<polygon fill="none" stroke="#bfbfbf" points="358.352,-56.5 358.352,-75.5 422.352,-75.5 422.352,-56.5 358.352,-56.5"/>
<text text-anchor="middle" x="390.352" y="-63.5" font-family="Helvetica,sans-Serif" font-size="10.00">json/json.h</text>
</g>
<!-- Node1&#45;&gt;Node8 -->
<g id="edge14" class="edge"><title>Node1&#45;&gt;Node8</title>
<path fill="none" stroke="midnightblue" d="M323.206,-112.324C335.569,-103.979 354.482,-91.2122 369.089,-81.3524"/>
<polygon fill="midnightblue" stroke="midnightblue" points="371.2,-84.1503 377.531,-75.6545 367.284,-78.3483 371.2,-84.1503"/>
</g>
<!-- Node9 -->
<g id="node17" class="node"><title>Node9</title>
<polygon fill="none" stroke="#bfbfbf" points="440.352,-56.5 440.352,-75.5 568.352,-75.5 568.352,-56.5 440.352,-56.5"/>
<text text-anchor="middle" x="504.352" y="-63.5" font-family="Helvetica,sans-Serif" font-size="10.00">freeradius&#45;devel/radiusd.h</text>
</g>
<!-- Node1&#45;&gt;Node9 -->
<g id="edge16" class="edge"><title>Node1&#45;&gt;Node9</title>
<path fill="none" stroke="midnightblue" d="M341.092,-112.444C374.296,-103.201 427.343,-88.4356 463.91,-78.2572"/>
<polygon fill="midnightblue" stroke="midnightblue" points="465.061,-81.5699 473.756,-75.5164 463.184,-74.8262 465.061,-81.5699"/>
</g>
<!-- Node10 -->
<g id="node19" class="node"><title>Node10</title>
<polygon fill="none" stroke="#bfbfbf" points="586.852,-56.5 586.852,-75.5 719.852,-75.5 719.852,-56.5 586.852,-56.5"/>
<text text-anchor="middle" x="653.352" y="-63.5" font-family="Helvetica,sans-Serif" font-size="10.00">freeradius&#45;devel/libradius.h</text>
</g>
<!-- Node1&#45;&gt;Node10 -->
<g id="edge18" class="edge"><title>Node1&#45;&gt;Node10</title>
<path fill="none" stroke="midnightblue" d="M364.702,-112.444C425.666,-102.846 524.463,-87.2916 589.175,-77.1037"/>
<polygon fill="midnightblue" stroke="midnightblue" points="589.923,-80.5291 599.257,-75.5164 588.834,-73.6143 589.923,-80.5291"/>
</g>
<!-- Node11 -->
<g id="node21" class="node"><title>Node11</title>
<polygon fill="none" stroke="#bfbfbf" points="710.352,-0.5 710.352,-19.5 854.352,-19.5 854.352,-0.5 710.352,-0.5"/>
<text text-anchor="middle" x="782.352" y="-7.5" font-family="Helvetica,sans-Serif" font-size="10.00">freeradius&#45;devel/connection.h</text>
</g>
<!-- Node1&#45;&gt;Node11 -->
<g id="edge20" class="edge"><title>Node1&#45;&gt;Node11</title>
<path fill="none" stroke="midnightblue" d="M443.518,-117.458C576.533,-112.51 764.485,-101.126 787.352,-76 798.632,-63.6065 795.191,-43.8058 790.285,-29.3119"/>
<polygon fill="midnightblue" stroke="midnightblue" points="793.509,-27.9461 786.643,-19.8778 786.979,-30.4673 793.509,-27.9461"/>
</g>
<!-- Node12 -->
<g id="node23" class="node"><title>Node12</title>
<a xlink:href="rest_8h.html" target="_top" xlink:title="Function prototypes datatypes for the REST (HTTP) transport.">
<polygon fill="none" stroke="black" points="737.852,-56.5 737.852,-75.5 778.852,-75.5 778.852,-56.5 737.852,-56.5"/>
<text text-anchor="middle" x="758.352" y="-63.5" font-family="Helvetica,sans-Serif" font-size="10.00">rest.h</text>
</a>
</g>
<!-- Node1&#45;&gt;Node12 -->
<g id="edge22" class="edge"><title>Node1&#45;&gt;Node12</title>
<path fill="none" stroke="midnightblue" d="M443.558,-112.946C523.481,-106.615 627.163,-95.7705 727.782,-75.7349"/>
<polygon fill="midnightblue" stroke="midnightblue" points="728.715,-79.1169 737.822,-73.7026 727.326,-72.2561 728.715,-79.1169"/>
</g>
<!-- Node12&#45;&gt;Node2 -->
<g id="edge24" class="edge"><title>Node12&#45;&gt;Node2</title>
<path fill="none" stroke="midnightblue" d="M737.824,-58.2885C734.676,-57.4204 731.445,-56.6196 728.352,-56 602.176,-30.719 452.2,-19.1319 366.556,-14.2256"/>
<polygon fill="midnightblue" stroke="midnightblue" points="366.616,-10.7236 356.436,-13.6599 366.225,-17.7127 366.616,-10.7236"/>
</g>
<!-- Node12&#45;&gt;Node11 -->
<g id="edge26" class="edge"><title>Node12&#45;&gt;Node11</title>
<path fill="none" stroke="midnightblue" d="M762.315,-56.083C765.566,-48.77 770.272,-38.1814 774.306,-29.1034"/>
<polygon fill="midnightblue" stroke="midnightblue" points="777.6,-30.3107 778.463,-19.7511 771.203,-27.4677 777.6,-30.3107"/>
</g>
</g>
</svg>
        <g id="navigator" transform="translate(0 0)" fill="#404254">
                <rect fill="#f2f5e9" fill-opacity="0.5" stroke="#606060" stroke-width=".5" x="0" y="0" width="60" height="60"/>
                <use id="zoomplus" xlink:href="#zoomPlus" x="17" y="9" onmousedown="handleZoom(evt,'in')"/>
                <use id="zoomminus" xlink:href="#zoomMin" x="42" y="9" onmousedown="handleZoom(evt,'out')"/>
                <use id="reset" xlink:href="#resetDef" x="30" y="36" onmousedown="handleReset()"/>
                <g id="arrowUp" xlink:href="#dirArrow" transform="translate(30 24)" onmousedown="handlePan(0,-1)">
                  <use xlink:href="#rim" fill="#404040">
                        <set attributeName="fill" to="#808080" begin="arrowUp.mouseover" end="arrowUp.mouseout"/>
                  </use>
                  <path fill="none" stroke="white" stroke-width="1.5" d="M0,-3.0v7 M-2.5,-0.5L0,-3.0L2.5,-0.5"/>
                </g>
                <g id="arrowRight" xlink:href="#dirArrow" transform="rotate(90) translate(36 -43)" onmousedown="handlePan(1,0)">
                  <use xlink:href="#rim" fill="#404040">
                        <set attributeName="fill" to="#808080" begin="arrowRight.mouseover" end="arrowRight.mouseout"/>
                  </use>
                  <path fill="none" stroke="white" stroke-width="1.5" d="M0,-3.0v7 M-2.5,-0.5L0,-3.0L2.5,-0.5"/>
                </g>
                <g id="arrowDown" xlink:href="#dirArrow" transform="rotate(180) translate(-30 -48)" onmousedown="handlePan(0,1)">
                  <use xlink:href="#rim" fill="#404040">
                        <set attributeName="fill" to="#808080" begin="arrowDown.mouseover" end="arrowDown.mouseout"/>
                  </use>
                  <path fill="none" stroke="white" stroke-width="1.5" d="M0,-3.0v7 M-2.5,-0.5L0,-3.0L2.5,-0.5"/>
                </g>
                <g id="arrowLeft" xlink:href="#dirArrow" transform="rotate(270) translate(-36 17)" onmousedown="handlePan(-1,0)">
                  <use xlink:href="#rim" fill="#404040">
                        <set attributeName="fill" to="#808080" begin="arrowLeft.mouseover" end="arrowLeft.mouseout"/>
                  </use>
                  <path fill="none" stroke="white" stroke-width="1.5" d="M0,-3.0v7 M-2.5,-0.5L0,-3.0L2.5,-0.5"/>
                </g>
        </g>
</svg>
