<?xml version="1.0" encoding="UTF-8" standalone="no"?>
<!DOCTYPE svg PUBLIC "-//W3C//DTD SVG 1.1//EN"
 "http://www.w3.org/Graphics/SVG/1.1/DTD/svg11.dtd">
<!-- Generated by graphviz version 2.28.0 (20111211.2114)
 -->
<!-- Title: G Pages: 1 -->
<svg width="328pt" height="140pt"
 viewBox="0.00 0.00 328.00 140.00" xmlns="http://www.w3.org/2000/svg" xmlns:xlink="http://www.w3.org/1999/xlink">
<g id="graph1" class="graph" transform="scale(1 1) rotate(0) translate(4 136)">
<title>G</title>
<!-- Node1 -->
<g id="node1" class="node"><title>Node1</title>
<polygon fill="#bfbfbf" stroke="black" points="0,-112.5 0,-131.5 292,-131.5 292,-112.5 0,-112.5"/>
<text text-anchor="middle" x="146" y="-119.5" font-family="Helvetica,sans-Serif" font-size="10.00">/home/pjm3/freeradius&#45;server/src/modules/rlm_smb/rfcnb&#45;priv.h</text>
</g>
<!-- Node2 -->
<g id="node3" class="node"><title>Node2</title>
<polygon fill="none" stroke="#bfbfbf" points="87,-0.5 87,-19.5 205,-19.5 205,-0.5 87,-0.5"/>
<text text-anchor="middle" x="146" y="-7.5" font-family="Helvetica,sans-Serif" font-size="10.00">freeradius&#45;devel/ident.h</text>
</g>
<!-- Node1&#45;&gt;Node2 -->
<g id="edge2" class="edge"><title>Node1&#45;&gt;Node2</title>
<path fill="none" stroke="midnightblue" d="M112.615,-112.484C79.8119,-102.348 36.9677,-83.2917 54,-56 63.7579,-40.3644 80.6971,-30.013 97.4023,-23.2301"/>
<polygon fill="midnightblue" stroke="midnightblue" points="98.9823,-26.378 107.155,-19.6357 96.5615,-19.8098 98.9823,-26.378"/>
</g>
<!-- Node3 -->
<g id="node5" class="node"><title>Node3</title>
<a xlink:href="rfcnb-error_8h.html" target="_top" xlink:title="rfcnb&#45;error.h">
<polygon fill="none" stroke="black" points="63.5,-56.5 63.5,-75.5 132.5,-75.5 132.5,-56.5 63.5,-56.5"/>
<text text-anchor="middle" x="98" y="-63.5" font-family="Helvetica,sans-Serif" font-size="10.00">rfcnb&#45;error.h</text>
</a>
</g>
<!-- Node1&#45;&gt;Node3 -->
<g id="edge4" class="edge"><title>Node1&#45;&gt;Node3</title>
<path fill="none" stroke="midnightblue" d="M138.074,-112.083C131.154,-104.298 120.935,-92.8015 112.548,-83.3665"/>
<polygon fill="midnightblue" stroke="midnightblue" points="115.038,-80.8999 105.779,-75.7511 109.806,-85.5505 115.038,-80.8999"/>
</g>
<!-- Node4 -->
<g id="node8" class="node"><title>Node4</title>
<a xlink:href="rfcnb-common_8h.html" target="_top" xlink:title="rfcnb&#45;common.h">
<polygon fill="none" stroke="black" points="150.5,-56.5 150.5,-75.5 237.5,-75.5 237.5,-56.5 150.5,-56.5"/>
<text text-anchor="middle" x="194" y="-63.5" font-family="Helvetica,sans-Serif" font-size="10.00">rfcnb&#45;common.h</text>
</a>
</g>
<!-- Node1&#45;&gt;Node4 -->
<g id="edge8" class="edge"><title>Node1&#45;&gt;Node4</title>
<path fill="none" stroke="midnightblue" d="M153.926,-112.083C160.846,-104.298 171.065,-92.8015 179.452,-83.3665"/>
<polygon fill="midnightblue" stroke="midnightblue" points="182.194,-85.5505 186.221,-75.7511 176.962,-80.8999 182.194,-85.5505"/>
</g>
<!-- Node5 -->
<g id="node11" class="node"><title>Node5</title>
<a xlink:href="byteorder_8h.html" target="_top" xlink:title="byteorder.h">
<polygon fill="none" stroke="black" points="255.5,-56.5 255.5,-75.5 320.5,-75.5 320.5,-56.5 255.5,-56.5"/>
<text text-anchor="middle" x="288" y="-63.5" font-family="Helvetica,sans-Serif" font-size="10.00">byteorder.h</text>
</a>
</g>
<!-- Node1&#45;&gt;Node5 -->
<g id="edge12" class="edge"><title>Node1&#45;&gt;Node5</title>
<path fill="none" stroke="midnightblue" d="M168.5,-112.444C192.077,-103.478 229.322,-89.314 255.964,-79.1827"/>
<polygon fill="midnightblue" stroke="midnightblue" points="257.502,-82.3424 265.605,-75.5164 255.014,-75.7995 257.502,-82.3424"/>
</g>
<!-- Node3&#45;&gt;Node2 -->
<g id="edge6" class="edge"><title>Node3&#45;&gt;Node2</title>
<path fill="none" stroke="midnightblue" d="M105.926,-56.083C112.846,-48.2982 123.065,-36.8015 131.452,-27.3665"/>
<polygon fill="midnightblue" stroke="midnightblue" points="134.194,-29.5505 138.221,-19.7511 128.962,-24.8999 134.194,-29.5505"/>
</g>
<!-- Node4&#45;&gt;Node2 -->
<g id="edge10" class="edge"><title>Node4&#45;&gt;Node2</title>
<path fill="none" stroke="midnightblue" d="M186.074,-56.083C179.154,-48.2982 168.935,-36.8015 160.548,-27.3665"/>
<polygon fill="midnightblue" stroke="midnightblue" points="163.038,-24.8999 153.779,-19.7511 157.806,-29.5505 163.038,-24.8999"/>
</g>
<!-- Node5&#45;&gt;Node2 -->
<g id="edge14" class="edge"><title>Node5&#45;&gt;Node2</title>
<path fill="none" stroke="midnightblue" d="M265.5,-56.4435C241.923,-47.4776 204.678,-33.314 178.036,-23.1827"/>
<polygon fill="midnightblue" stroke="midnightblue" points="178.986,-19.7995 168.395,-19.5164 176.498,-26.3424 178.986,-19.7995"/>
</g>
</g>
</svg>
