<?xml version="1.0" encoding="UTF-8" standalone="no"?>
<!DOCTYPE svg PUBLIC "-//W3C//DTD SVG 1.1//EN"
 "http://www.w3.org/Graphics/SVG/1.1/DTD/svg11.dtd">
<!-- Generated by graphviz version 2.28.0 (20111211.2114)
 -->
<!-- Title: G Pages: 1 -->
<!--zoomable-->
<svg id="main" version="1.1" xmlns="http://www.w3.org/2000/svg" xmlns:xlink="http://www.w3.org/1999/xlink" xml:space="preserve" onload="init(evt)">
        <defs>
                <circle id="rim" cx="0" cy="0" r="7"/>
                <circle id="rim2" cx="0" cy="0" r="3.5"/>
                <g id="zoomPlus">
                        <use xlink:href="#rim" fill="#404040">
                                <set attributeName="fill" to="#808080" begin="zoomplus.mouseover" end="zoomplus.mouseout"/>
                        </use>
                        <path d="M-4,0h8M0,-4v8" fill="none" stroke="white" stroke-width="1.5" pointer-events="none"/>
                </g>
                <g id="zoomMin">
                        <use xlink:href="#rim" fill="#404040">
                                <set attributeName="fill" to="#808080" begin="zoomminus.mouseover" end="zoomminus.mouseout"/>
                        </use>
                        <path d="M-4,0h8" fill="none" stroke="white" stroke-width="1.5" pointer-events="none"/>
                </g>
                <g id="dirArrow">
                        <path fill="none" stroke="white" stroke-width="1.5" d="M0,-3.0v7 M-2.5,-0.5L0,-3.0L2.5,-0.5"/>
                </g>
               <g id="resetDef">
                       <use xlink:href="#rim2" fill="#404040">
                               <set attributeName="fill" to="#808080" begin="reset.mouseover" end="reset.mouseout"/>
                       </use>
               </g>
        </defs>

<script type="text/javascript">
var viewWidth = 748;
var viewHeight = 196;
var sectionId = 'dynsection-0';
</script>
<script xlink:href="svgpan.js"/>
<svg id="graph" class="graph">
<g id="viewport">
<title>G</title>
<!-- Node1 -->
<g id="node1" class="node"><title>Node1</title>
<polygon fill="#bfbfbf" stroke="black" points="127.438,-168.5 127.438,-187.5 416.438,-187.5 416.438,-168.5 127.438,-168.5"/>
<text text-anchor="middle" x="271.938" y="-175.5" font-family="Helvetica,sans-Serif" font-size="10.00">/home/pjm3/freeradius&#45;server/src/modules/rlm_smb/rfcnb&#45;util.c</text>
</g>
<!-- Node2 -->
<g id="node3" class="node"><title>Node2</title>
<polygon fill="none" stroke="#bfbfbf" points="444.938,-0.5 444.938,-19.5 562.938,-19.5 562.938,-0.5 444.938,-0.5"/>
<text text-anchor="middle" x="503.938" y="-7.5" font-family="Helvetica,sans-Serif" font-size="10.00">freeradius&#45;devel/ident.h</text>
</g>
<!-- Node1&#45;&gt;Node2 -->
<g id="edge2" class="edge"><title>Node1&#45;&gt;Node2</title>
<path fill="none" stroke="midnightblue" d="M127.108,-168.834C74.289,-162.574 23.4229,-151.52 6.93827,-132 -12.1522,-109.394 12.4144,-70.519 32.9383,-56 64.9806,-33.3326 311.712,-19.4289 434.702,-13.8378"/>
<polygon fill="midnightblue" stroke="midnightblue" points="434.941,-17.3307 444.774,-13.386 434.627,-10.3377 434.941,-17.3307"/>
</g>
<!-- Node3 -->
<g id="node5" class="node"><title>Node3</title>
<polygon fill="none" stroke="#bfbfbf" points="15.4383,-112.5 15.4383,-131.5 64.4383,-131.5 64.4383,-112.5 15.4383,-112.5"/>
<text text-anchor="middle" x="39.9383" y="-119.5" font-family="Helvetica,sans-Serif" font-size="10.00">string.h</text>
</g>
<!-- Node1&#45;&gt;Node3 -->
<g id="edge4" class="edge"><title>Node1&#45;&gt;Node3</title>
<path fill="none" stroke="midnightblue" d="M231.794,-168.464C193.64,-160.23 134.416,-147.139 74.7409,-132.379"/>
<polygon fill="midnightblue" stroke="midnightblue" points="75.3232,-128.917 64.774,-129.899 73.6329,-135.71 75.3232,-128.917"/>
</g>
<!-- Node4 -->
<g id="node7" class="node"><title>Node4</title>
<polygon fill="none" stroke="#bfbfbf" points="82.4383,-112.5 82.4383,-131.5 215.438,-131.5 215.438,-112.5 82.4383,-112.5"/>
<text text-anchor="middle" x="148.938" y="-119.5" font-family="Helvetica,sans-Serif" font-size="10.00">freeradius&#45;devel/libradius.h</text>
</g>
<!-- Node1&#45;&gt;Node4 -->
<g id="edge6" class="edge"><title>Node1&#45;&gt;Node4</title>
<path fill="none" stroke="midnightblue" d="M252.449,-168.444C232.296,-159.596 200.615,-145.687 177.607,-135.586"/>
<polygon fill="midnightblue" stroke="midnightblue" points="178.9,-132.332 168.337,-131.516 176.086,-138.741 178.9,-132.332"/>
</g>
<!-- Node5 -->
<g id="node9" class="node"><title>Node5</title>
<a xlink:href="std-includes_8h.html" target="_top" xlink:title="std&#45;includes.h">
<polygon fill="none" stroke="black" points="233.438,-112.5 233.438,-131.5 310.438,-131.5 310.438,-112.5 233.438,-112.5"/>
<text text-anchor="middle" x="271.938" y="-119.5" font-family="Helvetica,sans-Serif" font-size="10.00">std&#45;includes.h</text>
</a>
</g>
<!-- Node1&#45;&gt;Node5 -->
<g id="edge8" class="edge"><title>Node1&#45;&gt;Node5</title>
<path fill="none" stroke="midnightblue" d="M271.938,-168.083C271.938,-161.006 271.938,-150.861 271.938,-141.986"/>
<polygon fill="midnightblue" stroke="midnightblue" points="275.438,-141.751 271.938,-131.751 268.438,-141.751 275.438,-141.751"/>
</g>
<!-- Node11 -->
<g id="node22" class="node"><title>Node11</title>
<a xlink:href="rfcnb-priv_8h.html" target="_top" xlink:title="rfcnb&#45;priv.h">
<polygon fill="none" stroke="black" points="423.438,-112.5 423.438,-131.5 488.438,-131.5 488.438,-112.5 423.438,-112.5"/>
<text text-anchor="middle" x="455.938" y="-119.5" font-family="Helvetica,sans-Serif" font-size="10.00">rfcnb&#45;priv.h</text>
</a>
</g>
<!-- Node1&#45;&gt;Node11 -->
<g id="edge22" class="edge"><title>Node1&#45;&gt;Node11</title>
<path fill="none" stroke="midnightblue" d="M301.094,-168.444C332.452,-159.241 382.469,-144.562 417.135,-134.388"/>
<polygon fill="midnightblue" stroke="midnightblue" points="418.31,-137.691 426.919,-131.516 416.338,-130.974 418.31,-137.691"/>
</g>
<!-- Node15 -->
<g id="node34" class="node"><title>Node15</title>
<a xlink:href="rfcnb-util_8h.html" target="_top" xlink:title="rfcnb&#45;util.h">
<polygon fill="none" stroke="black" points="538.938,-112.5 538.938,-131.5 600.938,-131.5 600.938,-112.5 538.938,-112.5"/>
<text text-anchor="middle" x="569.938" y="-119.5" font-family="Helvetica,sans-Serif" font-size="10.00">rfcnb&#45;util.h</text>
</a>
</g>
<!-- Node1&#45;&gt;Node15 -->
<g id="edge38" class="edge"><title>Node1&#45;&gt;Node15</title>
<path fill="none" stroke="midnightblue" d="M319.157,-168.444C376.975,-157.967 473.959,-140.392 528.836,-130.448"/>
<polygon fill="midnightblue" stroke="midnightblue" points="529.685,-133.851 538.9,-128.624 528.436,-126.964 529.685,-133.851"/>
</g>
<!-- Node16 -->
<g id="node37" class="node"><title>Node16</title>
<a xlink:href="rfcnb-io_8h.html" target="_top" xlink:title="rfcnb&#45;io.h">
<polygon fill="none" stroke="black" points="683.438,-112.5 683.438,-131.5 740.438,-131.5 740.438,-112.5 683.438,-112.5"/>
<text text-anchor="middle" x="711.938" y="-119.5" font-family="Helvetica,sans-Serif" font-size="10.00">rfcnb&#45;io.h</text>
</a>
</g>
<!-- Node1&#45;&gt;Node16 -->
<g id="edge42" class="edge"><title>Node1&#45;&gt;Node16</title>
<path fill="none" stroke="midnightblue" d="M341.658,-168.444C435.313,-156.95 598.569,-136.914 672.979,-127.781"/>
<polygon fill="midnightblue" stroke="midnightblue" points="673.795,-131.208 683.295,-126.515 672.943,-124.26 673.795,-131.208"/>
</g>
<!-- Node5&#45;&gt;Node2 -->
<g id="edge10" class="edge"><title>Node5&#45;&gt;Node2</title>
<path fill="none" stroke="midnightblue" d="M233.43,-113.657C167.914,-101.143 41.7076,-76.9337 40.9383,-76 35.2856,-69.14 34.9646,-62.5824 40.9383,-56 66.8714,-27.4242 312.156,-16.4344 434.806,-12.6995"/>
<polygon fill="midnightblue" stroke="midnightblue" points="434.96,-16.1966 444.852,-12.4015 434.752,-9.19969 434.96,-16.1966"/>
</g>
<!-- Node6 -->
<g id="node12" class="node"><title>Node6</title>
<polygon fill="none" stroke="#bfbfbf" points="49.4383,-56.5 49.4383,-75.5 100.438,-75.5 100.438,-56.5 49.4383,-56.5"/>
<text text-anchor="middle" x="74.9383" y="-63.5" font-family="Helvetica,sans-Serif" font-size="10.00">config.h</text>
</g>
<!-- Node5&#45;&gt;Node6 -->
<g id="edge12" class="edge"><title>Node5&#45;&gt;Node6</title>
<path fill="none" stroke="midnightblue" d="M240.723,-112.444C205.319,-102.739 147.701,-86.9452 110.567,-76.7661"/>
<polygon fill="midnightblue" stroke="midnightblue" points="111.241,-73.3219 100.671,-74.0537 109.39,-80.0729 111.241,-73.3219"/>
</g>
<!-- Node7 -->
<g id="node14" class="node"><title>Node7</title>
<polygon fill="none" stroke="#bfbfbf" points="118.938,-56.5 118.938,-75.5 168.938,-75.5 168.938,-56.5 118.938,-56.5"/>
<text text-anchor="middle" x="143.938" y="-63.5" font-family="Helvetica,sans-Serif" font-size="10.00">signal.h</text>
</g>
<!-- Node5&#45;&gt;Node7 -->
<g id="edge14" class="edge"><title>Node5&#45;&gt;Node7</title>
<path fill="none" stroke="midnightblue" d="M251.656,-112.444C230.591,-103.557 197.421,-89.5632 173.453,-79.4514"/>
<polygon fill="midnightblue" stroke="midnightblue" points="174.699,-76.1787 164.125,-75.5164 171.979,-82.6283 174.699,-76.1787"/>
</g>
<!-- Node8 -->
<g id="node16" class="node"><title>Node8</title>
<polygon fill="none" stroke="#bfbfbf" points="187.438,-56.5 187.438,-75.5 234.438,-75.5 234.438,-56.5 187.438,-56.5"/>
<text text-anchor="middle" x="210.938" y="-63.5" font-family="Helvetica,sans-Serif" font-size="10.00">errno.h</text>
</g>
<!-- Node5&#45;&gt;Node8 -->
<g id="edge16" class="edge"><title>Node5&#45;&gt;Node8</title>
<path fill="none" stroke="midnightblue" d="M262.138,-112.324C253.12,-104.341 239.532,-92.3128 228.62,-82.6529"/>
<polygon fill="midnightblue" stroke="midnightblue" points="230.725,-79.8416 220.917,-75.8339 226.085,-85.083 230.725,-79.8416"/>
</g>
<!-- Node9 -->
<g id="node18" class="node"><title>Node9</title>
<polygon fill="none" stroke="#bfbfbf" points="252.938,-56.5 252.938,-75.5 298.938,-75.5 298.938,-56.5 252.938,-56.5"/>
<text text-anchor="middle" x="275.938" y="-63.5" font-family="Helvetica,sans-Serif" font-size="10.00">stdio.h</text>
</g>
<!-- Node5&#45;&gt;Node9 -->
<g id="edge18" class="edge"><title>Node5&#45;&gt;Node9</title>
<path fill="none" stroke="midnightblue" d="M272.599,-112.083C273.123,-105.006 273.874,-94.8611 274.532,-85.9865"/>
<polygon fill="midnightblue" stroke="midnightblue" points="278.042,-85.9823 275.29,-75.7511 271.061,-85.4652 278.042,-85.9823"/>
</g>
<!-- Node10 -->
<g id="node20" class="node"><title>Node10</title>
<polygon fill="none" stroke="#bfbfbf" points="316.938,-56.5 316.938,-75.5 364.938,-75.5 364.938,-56.5 316.938,-56.5"/>
<text text-anchor="middle" x="340.938" y="-63.5" font-family="Helvetica,sans-Serif" font-size="10.00">stdlib.h</text>
</g>
<!-- Node5&#45;&gt;Node10 -->
<g id="edge20" class="edge"><title>Node5&#45;&gt;Node10</title>
<path fill="none" stroke="midnightblue" d="M283.024,-112.324C293.424,-104.185 309.199,-91.8395 321.66,-82.0874"/>
<polygon fill="midnightblue" stroke="midnightblue" points="323.933,-84.7533 329.651,-75.8339 319.618,-79.2407 323.933,-84.7533"/>
</g>
<!-- Node11&#45;&gt;Node2 -->
<g id="edge24" class="edge"><title>Node11&#45;&gt;Node2</title>
<path fill="none" stroke="midnightblue" d="M442.597,-112.305C425.385,-99.9644 399.096,-76.5777 411.938,-56 421.696,-40.3644 438.635,-30.013 455.341,-23.2301"/>
<polygon fill="midnightblue" stroke="midnightblue" points="456.921,-26.378 465.093,-19.6357 454.5,-19.8098 456.921,-26.378"/>
</g>
<!-- Node12 -->
<g id="node25" class="node"><title>Node12</title>
<a xlink:href="rfcnb-error_8h.html" target="_top" xlink:title="rfcnb&#45;error.h">
<polygon fill="none" stroke="black" points="421.438,-56.5 421.438,-75.5 490.438,-75.5 490.438,-56.5 421.438,-56.5"/>
<text text-anchor="middle" x="455.938" y="-63.5" font-family="Helvetica,sans-Serif" font-size="10.00">rfcnb&#45;error.h</text>
</a>
</g>
<!-- Node11&#45;&gt;Node12 -->
<g id="edge26" class="edge"><title>Node11&#45;&gt;Node12</title>
<path fill="none" stroke="midnightblue" d="M455.938,-112.083C455.938,-105.006 455.938,-94.8611 455.938,-85.9865"/>
<polygon fill="midnightblue" stroke="midnightblue" points="459.438,-85.751 455.938,-75.7511 452.438,-85.7511 459.438,-85.751"/>
</g>
<!-- Node13 -->
<g id="node28" class="node"><title>Node13</title>
<a xlink:href="rfcnb-common_8h.html" target="_top" xlink:title="rfcnb&#45;common.h">
<polygon fill="none" stroke="black" points="508.438,-56.5 508.438,-75.5 595.438,-75.5 595.438,-56.5 508.438,-56.5"/>
<text text-anchor="middle" x="551.938" y="-63.5" font-family="Helvetica,sans-Serif" font-size="10.00">rfcnb&#45;common.h</text>
</a>
</g>
<!-- Node11&#45;&gt;Node13 -->
<g id="edge30" class="edge"><title>Node11&#45;&gt;Node13</title>
<path fill="none" stroke="midnightblue" d="M471.362,-112.324C486.478,-103.822 509.754,-90.7288 527.409,-80.7975"/>
<polygon fill="midnightblue" stroke="midnightblue" points="529.553,-83.6077 536.552,-75.6545 526.121,-77.5066 529.553,-83.6077"/>
</g>
<!-- Node14 -->
<g id="node31" class="node"><title>Node14</title>
<a xlink:href="byteorder_8h.html" target="_top" xlink:title="byteorder.h">
<polygon fill="none" stroke="black" points="613.438,-56.5 613.438,-75.5 678.438,-75.5 678.438,-56.5 613.438,-56.5"/>
<text text-anchor="middle" x="645.938" y="-63.5" font-family="Helvetica,sans-Serif" font-size="10.00">byteorder.h</text>
</a>
</g>
<!-- Node11&#45;&gt;Node14 -->
<g id="edge34" class="edge"><title>Node11&#45;&gt;Node14</title>
<path fill="none" stroke="midnightblue" d="M486.044,-112.444C518.564,-103.201 570.517,-88.4356 606.33,-78.2572"/>
<polygon fill="midnightblue" stroke="midnightblue" points="607.311,-81.617 615.973,-75.5164 605.397,-74.8837 607.311,-81.617"/>
</g>
<!-- Node12&#45;&gt;Node2 -->
<g id="edge28" class="edge"><title>Node12&#45;&gt;Node2</title>
<path fill="none" stroke="midnightblue" d="M463.864,-56.083C470.784,-48.2982 481.004,-36.8015 489.39,-27.3665"/>
<polygon fill="midnightblue" stroke="midnightblue" points="492.132,-29.5505 496.16,-19.7511 486.9,-24.8999 492.132,-29.5505"/>
</g>
<!-- Node13&#45;&gt;Node2 -->
<g id="edge32" class="edge"><title>Node13&#45;&gt;Node2</title>
<path fill="none" stroke="midnightblue" d="M544.012,-56.083C537.092,-48.2982 526.873,-36.8015 518.486,-27.3665"/>
<polygon fill="midnightblue" stroke="midnightblue" points="520.977,-24.8999 511.717,-19.7511 515.745,-29.5505 520.977,-24.8999"/>
</g>
<!-- Node14&#45;&gt;Node2 -->
<g id="edge36" class="edge"><title>Node14&#45;&gt;Node2</title>
<path fill="none" stroke="midnightblue" d="M623.438,-56.4435C599.861,-47.4776 562.616,-33.314 535.974,-23.1827"/>
<polygon fill="midnightblue" stroke="midnightblue" points="536.924,-19.7995 526.333,-19.5164 534.436,-26.3424 536.924,-19.7995"/>
</g>
<!-- Node15&#45;&gt;Node2 -->
<g id="edge40" class="edge"><title>Node15&#45;&gt;Node2</title>
<path fill="none" stroke="midnightblue" d="M601.217,-115.987C644.036,-107.784 712.814,-89.0092 686.938,-56 672.741,-37.8884 618.886,-26.0934 573.246,-19.142"/>
<polygon fill="midnightblue" stroke="midnightblue" points="573.753,-15.6791 563.351,-17.6895 572.736,-22.6048 573.753,-15.6791"/>
</g>
<!-- Node16&#45;&gt;Node2 -->
<g id="edge44" class="edge"><title>Node16&#45;&gt;Node2</title>
<path fill="none" stroke="midnightblue" d="M713.729,-112.147C715.971,-98.3012 717.982,-71.5059 703.938,-56 686.467,-36.7105 623.684,-24.7741 573.063,-18.0848"/>
<polygon fill="midnightblue" stroke="midnightblue" points="573.481,-14.6098 563.118,-16.8163 572.595,-21.5535 573.481,-14.6098"/>
</g>
</g>
</svg>
        <g id="navigator" transform="translate(0 0)" fill="#404254">
                <rect fill="#f2f5e9" fill-opacity="0.5" stroke="#606060" stroke-width=".5" x="0" y="0" width="60" height="60"/>
                <use id="zoomplus" xlink:href="#zoomPlus" x="17" y="9" onmousedown="handleZoom(evt,'in')"/>
                <use id="zoomminus" xlink:href="#zoomMin" x="42" y="9" onmousedown="handleZoom(evt,'out')"/>
                <use id="reset" xlink:href="#resetDef" x="30" y="36" onmousedown="handleReset()"/>
                <g id="arrowUp" xlink:href="#dirArrow" transform="translate(30 24)" onmousedown="handlePan(0,-1)">
                  <use xlink:href="#rim" fill="#404040">
                        <set attributeName="fill" to="#808080" begin="arrowUp.mouseover" end="arrowUp.mouseout"/>
                  </use>
                  <path fill="none" stroke="white" stroke-width="1.5" d="M0,-3.0v7 M-2.5,-0.5L0,-3.0L2.5,-0.5"/>
                </g>
                <g id="arrowRight" xlink:href="#dirArrow" transform="rotate(90) translate(36 -43)" onmousedown="handlePan(1,0)">
                  <use xlink:href="#rim" fill="#404040">
                        <set attributeName="fill" to="#808080" begin="arrowRight.mouseover" end="arrowRight.mouseout"/>
                  </use>
                  <path fill="none" stroke="white" stroke-width="1.5" d="M0,-3.0v7 M-2.5,-0.5L0,-3.0L2.5,-0.5"/>
                </g>
                <g id="arrowDown" xlink:href="#dirArrow" transform="rotate(180) translate(-30 -48)" onmousedown="handlePan(0,1)">
                  <use xlink:href="#rim" fill="#404040">
                        <set attributeName="fill" to="#808080" begin="arrowDown.mouseover" end="arrowDown.mouseout"/>
                  </use>
                  <path fill="none" stroke="white" stroke-width="1.5" d="M0,-3.0v7 M-2.5,-0.5L0,-3.0L2.5,-0.5"/>
                </g>
                <g id="arrowLeft" xlink:href="#dirArrow" transform="rotate(270) translate(-36 17)" onmousedown="handlePan(-1,0)">
                  <use xlink:href="#rim" fill="#404040">
                        <set attributeName="fill" to="#808080" begin="arrowLeft.mouseover" end="arrowLeft.mouseout"/>
                  </use>
                  <path fill="none" stroke="white" stroke-width="1.5" d="M0,-3.0v7 M-2.5,-0.5L0,-3.0L2.5,-0.5"/>
                </g>
        </g>
</svg>
