<?xml version="1.0" encoding="UTF-8" standalone="no"?>
<!DOCTYPE svg PUBLIC "-//W3C//DTD SVG 1.1//EN"
 "http://www.w3.org/Graphics/SVG/1.1/DTD/svg11.dtd">
<!-- Generated by graphviz version 2.28.0 (20111211.2114)
 -->
<!-- Title: G Pages: 1 -->
<!--zoomable-->
<svg id="main" version="1.1" xmlns="http://www.w3.org/2000/svg" xmlns:xlink="http://www.w3.org/1999/xlink" xml:space="preserve" onload="init(evt)">
        <defs>
                <circle id="rim" cx="0" cy="0" r="7"/>
                <circle id="rim2" cx="0" cy="0" r="3.5"/>
                <g id="zoomPlus">
                        <use xlink:href="#rim" fill="#404040">
                                <set attributeName="fill" to="#808080" begin="zoomplus.mouseover" end="zoomplus.mouseout"/>
                        </use>
                        <path d="M-4,0h8M0,-4v8" fill="none" stroke="white" stroke-width="1.5" pointer-events="none"/>
                </g>
                <g id="zoomMin">
                        <use xlink:href="#rim" fill="#404040">
                                <set attributeName="fill" to="#808080" begin="zoomminus.mouseover" end="zoomminus.mouseout"/>
                        </use>
                        <path d="M-4,0h8" fill="none" stroke="white" stroke-width="1.5" pointer-events="none"/>
                </g>
                <g id="dirArrow">
                        <path fill="none" stroke="white" stroke-width="1.5" d="M0,-3.0v7 M-2.5,-0.5L0,-3.0L2.5,-0.5"/>
                </g>
               <g id="resetDef">
                       <use xlink:href="#rim2" fill="#404040">
                               <set attributeName="fill" to="#808080" begin="reset.mouseover" end="reset.mouseout"/>
                       </use>
               </g>
        </defs>

<script type="text/javascript">
var viewWidth = 1515;
var viewHeight = 140;
var sectionId = 'dynsection-1';
</script>
<script xlink:href="svgpan.js"/>
<svg id="graph" class="graph">
<g id="viewport">
<title>G</title>
<!-- Node1 -->
<g id="node1" class="node"><title>Node1</title>
<polygon fill="#bfbfbf" stroke="black" points="758,-112.5 758,-131.5 1054,-131.5 1054,-112.5 758,-112.5"/>
<text text-anchor="middle" x="906" y="-119.5" font-family="Helvetica,sans-Serif" font-size="10.00">/home/pjm3/freeradius&#45;server/src/modules/rlm_smb/rfcnb&#45;error.h</text>
</g>
<!-- Node2 -->
<g id="node3" class="node"><title>Node2</title>
<a xlink:href="rfcnb-priv_8h.html" target="_top" xlink:title="/home/pjm3/freeradius&#45;server/src/modules/rlm_smb/rfcnb&#45;priv.h">
<polygon fill="none" stroke="black" points="453,-56.5 453,-75.5 745,-75.5 745,-56.5 453,-56.5"/>
<text text-anchor="middle" x="599" y="-63.5" font-family="Helvetica,sans-Serif" font-size="10.00">/home/pjm3/freeradius&#45;server/src/modules/rlm_smb/rfcnb&#45;priv.h</text>
</a>
</g>
<!-- Node1&#45;&gt;Node2 -->
<g id="edge2" class="edge"><title>Node1&#45;&gt;Node2</title>
<path fill="none" stroke="midnightblue" d="M847.239,-110.664C789.222,-100.459 701.553,-85.0386 647.417,-75.5164"/>
<polygon fill="midnightblue" stroke="midnightblue" points="846.9,-114.158 857.355,-112.444 848.112,-107.264 846.9,-114.158"/>
</g>
<!-- Node6 -->
<g id="node11" class="node"><title>Node6</title>
<a xlink:href="rfcnb_8h.html" target="_top" xlink:title="/home/pjm3/freeradius&#45;server/src/modules/rlm_smb/rfcnb.h">
<polygon fill="none" stroke="black" points="924.5,-56.5 924.5,-75.5 1197.5,-75.5 1197.5,-56.5 924.5,-56.5"/>
<text text-anchor="middle" x="1061" y="-63.5" font-family="Helvetica,sans-Serif" font-size="10.00">/home/pjm3/freeradius&#45;server/src/modules/rlm_smb/rfcnb.h</text>
</a>
</g>
<!-- Node1&#45;&gt;Node6 -->
<g id="edge10" class="edge"><title>Node1&#45;&gt;Node6</title>
<path fill="none" stroke="midnightblue" d="M940.332,-109.039C969.497,-98.8786 1010.64,-84.5457 1036.55,-75.5164"/>
<polygon fill="midnightblue" stroke="midnightblue" points="938.852,-105.848 930.56,-112.444 941.155,-112.459 938.852,-105.848"/>
</g>
<!-- Node3 -->
<g id="node5" class="node"><title>Node3</title>
<a xlink:href="rfcnb-io_8c.html" target="_top" xlink:title="/home/pjm3/freeradius&#45;server/src/modules/rlm_smb/rfcnb&#45;io.c">
<polygon fill="none" stroke="black" points="0,-0.5 0,-19.5 284,-19.5 284,-0.5 0,-0.5"/>
<text text-anchor="middle" x="142" y="-7.5" font-family="Helvetica,sans-Serif" font-size="10.00">/home/pjm3/freeradius&#45;server/src/modules/rlm_smb/rfcnb&#45;io.c</text>
</a>
</g>
<!-- Node2&#45;&gt;Node3 -->
<g id="edge4" class="edge"><title>Node2&#45;&gt;Node3</title>
<path fill="none" stroke="midnightblue" d="M516.83,-55.2906C430.613,-45.1031 296.419,-29.2464 214.159,-19.5264"/>
<polygon fill="midnightblue" stroke="midnightblue" points="516.498,-58.7756 526.839,-56.4733 517.319,-51.824 516.498,-58.7756"/>
</g>
<!-- Node4 -->
<g id="node7" class="node"><title>Node4</title>
<a xlink:href="rfcnb-util_8c.html" target="_top" xlink:title="/home/pjm3/freeradius&#45;server/src/modules/rlm_smb/rfcnb&#45;util.c">
<polygon fill="none" stroke="black" points="302.5,-0.5 302.5,-19.5 591.5,-19.5 591.5,-0.5 302.5,-0.5"/>
<text text-anchor="middle" x="447" y="-7.5" font-family="Helvetica,sans-Serif" font-size="10.00">/home/pjm3/freeradius&#45;server/src/modules/rlm_smb/rfcnb&#45;util.c</text>
</a>
</g>
<!-- Node2&#45;&gt;Node4 -->
<g id="edge6" class="edge"><title>Node2&#45;&gt;Node4</title>
<path fill="none" stroke="midnightblue" d="M565.332,-53.0392C536.732,-42.8786 496.388,-28.5457 470.972,-19.5164"/>
<polygon fill="midnightblue" stroke="midnightblue" points="564.32,-56.3939 574.915,-56.4435 566.664,-49.7978 564.32,-56.3939"/>
</g>
<!-- Node5 -->
<g id="node9" class="node"><title>Node5</title>
<a xlink:href="modules_2rlm__smb_2session_8c.html" target="_top" xlink:title="/home/pjm3/freeradius&#45;server/src/modules/rlm_smb/session.c">
<polygon fill="none" stroke="black" points="609.5,-0.5 609.5,-19.5 894.5,-19.5 894.5,-0.5 609.5,-0.5"/>
<text text-anchor="middle" x="752" y="-7.5" font-family="Helvetica,sans-Serif" font-size="10.00">/home/pjm3/freeradius&#45;server/src/modules/rlm_smb/session.c</text>
</a>
</g>
<!-- Node2&#45;&gt;Node5 -->
<g id="edge8" class="edge"><title>Node2&#45;&gt;Node5</title>
<path fill="none" stroke="midnightblue" d="M632.889,-53.0392C661.677,-42.8786 702.287,-28.5457 727.87,-19.5164"/>
<polygon fill="midnightblue" stroke="midnightblue" points="631.508,-49.8148 623.243,-56.4435 633.838,-56.4157 631.508,-49.8148"/>
</g>
<!-- Node7 -->
<g id="node13" class="node"><title>Node7</title>
<a xlink:href="smblib-util_8c.html" target="_top" xlink:title="/home/pjm3/freeradius&#45;server/src/modules/rlm_smb/smblib&#45;util.c">
<polygon fill="none" stroke="black" points="913,-0.5 913,-19.5 1209,-19.5 1209,-0.5 913,-0.5"/>
<text text-anchor="middle" x="1061" y="-7.5" font-family="Helvetica,sans-Serif" font-size="10.00">/home/pjm3/freeradius&#45;server/src/modules/rlm_smb/smblib&#45;util.c</text>
</a>
</g>
<!-- Node6&#45;&gt;Node7 -->
<g id="edge12" class="edge"><title>Node6&#45;&gt;Node7</title>
<path fill="none" stroke="midnightblue" d="M1061,-45.8045C1061,-36.9102 1061,-26.7798 1061,-19.7511"/>
<polygon fill="midnightblue" stroke="midnightblue" points="1057.5,-46.083 1061,-56.083 1064.5,-46.083 1057.5,-46.083"/>
</g>
<!-- Node8 -->
<g id="node15" class="node"><title>Node8</title>
<a xlink:href="smblib_8c.html" target="_top" xlink:title="/home/pjm3/freeradius&#45;server/src/modules/rlm_smb/smblib.c">
<polygon fill="none" stroke="black" points="1227,-0.5 1227,-19.5 1507,-19.5 1507,-0.5 1227,-0.5"/>
<text text-anchor="middle" x="1367" y="-7.5" font-family="Helvetica,sans-Serif" font-size="10.00">/home/pjm3/freeradius&#45;server/src/modules/rlm_smb/smblib.c</text>
</a>
</g>
<!-- Node6&#45;&gt;Node8 -->
<g id="edge14" class="edge"><title>Node6&#45;&gt;Node8</title>
<path fill="none" stroke="midnightblue" d="M1119.57,-54.6642C1177.4,-44.4592 1264.78,-29.0386 1318.74,-19.5164"/>
<polygon fill="midnightblue" stroke="midnightblue" points="1118.73,-51.2589 1109.49,-56.4435 1119.94,-58.1523 1118.73,-51.2589"/>
</g>
</g>
</svg>
        <g id="navigator" transform="translate(0 0)" fill="#404254">
                <rect fill="#f2f5e9" fill-opacity="0.5" stroke="#606060" stroke-width=".5" x="0" y="0" width="60" height="60"/>
                <use id="zoomplus" xlink:href="#zoomPlus" x="17" y="9" onmousedown="handleZoom(evt,'in')"/>
                <use id="zoomminus" xlink:href="#zoomMin" x="42" y="9" onmousedown="handleZoom(evt,'out')"/>
                <use id="reset" xlink:href="#resetDef" x="30" y="36" onmousedown="handleReset()"/>
                <g id="arrowUp" xlink:href="#dirArrow" transform="translate(30 24)" onmousedown="handlePan(0,-1)">
                  <use xlink:href="#rim" fill="#404040">
                        <set attributeName="fill" to="#808080" begin="arrowUp.mouseover" end="arrowUp.mouseout"/>
                  </use>
                  <path fill="none" stroke="white" stroke-width="1.5" d="M0,-3.0v7 M-2.5,-0.5L0,-3.0L2.5,-0.5"/>
                </g>
                <g id="arrowRight" xlink:href="#dirArrow" transform="rotate(90) translate(36 -43)" onmousedown="handlePan(1,0)">
                  <use xlink:href="#rim" fill="#404040">
                        <set attributeName="fill" to="#808080" begin="arrowRight.mouseover" end="arrowRight.mouseout"/>
                  </use>
                  <path fill="none" stroke="white" stroke-width="1.5" d="M0,-3.0v7 M-2.5,-0.5L0,-3.0L2.5,-0.5"/>
                </g>
                <g id="arrowDown" xlink:href="#dirArrow" transform="rotate(180) translate(-30 -48)" onmousedown="handlePan(0,1)">
                  <use xlink:href="#rim" fill="#404040">
                        <set attributeName="fill" to="#808080" begin="arrowDown.mouseover" end="arrowDown.mouseout"/>
                  </use>
                  <path fill="none" stroke="white" stroke-width="1.5" d="M0,-3.0v7 M-2.5,-0.5L0,-3.0L2.5,-0.5"/>
                </g>
                <g id="arrowLeft" xlink:href="#dirArrow" transform="rotate(270) translate(-36 17)" onmousedown="handlePan(-1,0)">
                  <use xlink:href="#rim" fill="#404040">
                        <set attributeName="fill" to="#808080" begin="arrowLeft.mouseover" end="arrowLeft.mouseout"/>
                  </use>
                  <path fill="none" stroke="white" stroke-width="1.5" d="M0,-3.0v7 M-2.5,-0.5L0,-3.0L2.5,-0.5"/>
                </g>
        </g>
</svg>
