<?xml version="1.0" encoding="UTF-8" standalone="no"?>
<!DOCTYPE svg PUBLIC "-//W3C//DTD SVG 1.1//EN"
 "http://www.w3.org/Graphics/SVG/1.1/DTD/svg11.dtd">
<!-- Generated by graphviz version 2.28.0 (20111211.2114)
 -->
<!-- Title: G Pages: 1 -->
<!--zoomable-->
<svg id="main" version="1.1" xmlns="http://www.w3.org/2000/svg" xmlns:xlink="http://www.w3.org/1999/xlink" xml:space="preserve" onload="init(evt)">
        <defs>
                <circle id="rim" cx="0" cy="0" r="7"/>
                <circle id="rim2" cx="0" cy="0" r="3.5"/>
                <g id="zoomPlus">
                        <use xlink:href="#rim" fill="#404040">
                                <set attributeName="fill" to="#808080" begin="zoomplus.mouseover" end="zoomplus.mouseout"/>
                        </use>
                        <path d="M-4,0h8M0,-4v8" fill="none" stroke="white" stroke-width="1.5" pointer-events="none"/>
                </g>
                <g id="zoomMin">
                        <use xlink:href="#rim" fill="#404040">
                                <set attributeName="fill" to="#808080" begin="zoomminus.mouseover" end="zoomminus.mouseout"/>
                        </use>
                        <path d="M-4,0h8" fill="none" stroke="white" stroke-width="1.5" pointer-events="none"/>
                </g>
                <g id="dirArrow">
                        <path fill="none" stroke="white" stroke-width="1.5" d="M0,-3.0v7 M-2.5,-0.5L0,-3.0L2.5,-0.5"/>
                </g>
               <g id="resetDef">
                       <use xlink:href="#rim2" fill="#404040">
                               <set attributeName="fill" to="#808080" begin="reset.mouseover" end="reset.mouseout"/>
                       </use>
               </g>
        </defs>

<script type="text/javascript">
var viewWidth = 742;
var viewHeight = 196;
var sectionId = 'dynsection-0';
</script>
<script xlink:href="svgpan.js"/>
<svg id="graph" class="graph">
<g id="viewport">
<title>G</title>
<!-- Node1 -->
<g id="node1" class="node"><title>Node1</title>
<polygon fill="#bfbfbf" stroke="black" points="378.223,-168.5 378.223,-187.5 662.223,-187.5 662.223,-168.5 378.223,-168.5"/>
<text text-anchor="middle" x="520.223" y="-175.5" font-family="Helvetica,sans-Serif" font-size="10.00">/home/pjm3/freeradius&#45;server/src/modules/rlm_smb/rfcnb&#45;io.c</text>
</g>
<!-- Node2 -->
<g id="node3" class="node"><title>Node2</title>
<polygon fill="none" stroke="#bfbfbf" points="420.223,-0.5 420.223,-19.5 538.223,-19.5 538.223,-0.5 420.223,-0.5"/>
<text text-anchor="middle" x="479.223" y="-7.5" font-family="Helvetica,sans-Serif" font-size="10.00">freeradius&#45;devel/ident.h</text>
</g>
<!-- Node1&#45;&gt;Node2 -->
<g id="edge2" class="edge"><title>Node1&#45;&gt;Node2</title>
<path fill="none" stroke="midnightblue" d="M378.217,-170.975C240.046,-161.53 45.1093,-137.401 4.22251,-76 -0.704237,-68.6014 -1.75914,-62.5751 4.22251,-56 30.9588,-26.6111 284.409,-15.9979 409.739,-12.5245"/>
<polygon fill="midnightblue" stroke="midnightblue" points="410.096,-16.0163 419.998,-12.2482 409.907,-9.01879 410.096,-16.0163"/>
</g>
<!-- Node3 -->
<g id="node5" class="node"><title>Node3</title>
<a xlink:href="std-includes_8h.html" target="_top" xlink:title="std&#45;includes.h">
<polygon fill="none" stroke="black" points="147.723,-112.5 147.723,-131.5 224.723,-131.5 224.723,-112.5 147.723,-112.5"/>
<text text-anchor="middle" x="186.223" y="-119.5" font-family="Helvetica,sans-Serif" font-size="10.00">std&#45;includes.h</text>
</a>
</g>
<!-- Node1&#45;&gt;Node3 -->
<g id="edge4" class="edge"><title>Node1&#45;&gt;Node3</title>
<path fill="none" stroke="midnightblue" d="M467.299,-168.444C403.352,-158.105 296.658,-140.855 234.749,-130.846"/>
<polygon fill="midnightblue" stroke="midnightblue" points="235.272,-127.385 224.841,-129.244 234.154,-134.295 235.272,-127.385"/>
</g>
<!-- Node9 -->
<g id="node18" class="node"><title>Node9</title>
<a xlink:href="rfcnb-priv_8h.html" target="_top" xlink:title="rfcnb&#45;priv.h">
<polygon fill="none" stroke="black" points="446.723,-112.5 446.723,-131.5 511.723,-131.5 511.723,-112.5 446.723,-112.5"/>
<text text-anchor="middle" x="479.223" y="-119.5" font-family="Helvetica,sans-Serif" font-size="10.00">rfcnb&#45;priv.h</text>
</a>
</g>
<!-- Node1&#45;&gt;Node9 -->
<g id="edge18" class="edge"><title>Node1&#45;&gt;Node9</title>
<path fill="none" stroke="midnightblue" d="M513.452,-168.083C507.661,-160.455 499.164,-149.264 492.085,-139.941"/>
<polygon fill="midnightblue" stroke="midnightblue" points="494.702,-137.599 485.867,-131.751 489.126,-141.832 494.702,-137.599"/>
</g>
<!-- Node13 -->
<g id="node30" class="node"><title>Node13</title>
<a xlink:href="rfcnb-util_8h.html" target="_top" xlink:title="rfcnb&#45;util.h">
<polygon fill="none" stroke="black" points="530.223,-112.5 530.223,-131.5 592.223,-131.5 592.223,-112.5 530.223,-112.5"/>
<text text-anchor="middle" x="561.223" y="-119.5" font-family="Helvetica,sans-Serif" font-size="10.00">rfcnb&#45;util.h</text>
</a>
</g>
<!-- Node1&#45;&gt;Node13 -->
<g id="edge34" class="edge"><title>Node1&#45;&gt;Node13</title>
<path fill="none" stroke="midnightblue" d="M526.993,-168.083C532.784,-160.455 541.281,-149.264 548.36,-139.941"/>
<polygon fill="midnightblue" stroke="midnightblue" points="551.319,-141.832 554.578,-131.751 545.743,-137.599 551.319,-141.832"/>
</g>
<!-- Node14 -->
<g id="node33" class="node"><title>Node14</title>
<a xlink:href="rfcnb-io_8h.html" target="_top" xlink:title="rfcnb&#45;io.h">
<polygon fill="none" stroke="black" points="610.723,-112.5 610.723,-131.5 667.723,-131.5 667.723,-112.5 610.723,-112.5"/>
<text text-anchor="middle" x="639.223" y="-119.5" font-family="Helvetica,sans-Serif" font-size="10.00">rfcnb&#45;io.h</text>
</a>
</g>
<!-- Node1&#45;&gt;Node14 -->
<g id="edge38" class="edge"><title>Node1&#45;&gt;Node14</title>
<path fill="none" stroke="midnightblue" d="M539.078,-168.444C558.489,-159.636 588.953,-145.812 611.187,-135.722"/>
<polygon fill="midnightblue" stroke="midnightblue" points="612.795,-138.836 620.455,-131.516 609.902,-132.462 612.795,-138.836"/>
</g>
<!-- Node15 -->
<g id="node36" class="node"><title>Node15</title>
<polygon fill="none" stroke="#bfbfbf" points="685.723,-112.5 685.723,-131.5 734.723,-131.5 734.723,-112.5 685.723,-112.5"/>
<text text-anchor="middle" x="710.223" y="-119.5" font-family="Helvetica,sans-Serif" font-size="10.00">string.h</text>
</g>
<!-- Node1&#45;&gt;Node15 -->
<g id="edge42" class="edge"><title>Node1&#45;&gt;Node15</title>
<path fill="none" stroke="midnightblue" d="M550.329,-168.444C584.424,-158.753 639.88,-142.992 675.701,-132.811"/>
<polygon fill="midnightblue" stroke="midnightblue" points="677.033,-136.072 685.695,-129.971 675.119,-129.338 677.033,-136.072"/>
</g>
<!-- Node3&#45;&gt;Node2 -->
<g id="edge6" class="edge"><title>Node3&#45;&gt;Node2</title>
<path fill="none" stroke="midnightblue" d="M147.669,-118.952C86.1103,-114.347 -23.5927,-99.8725 16.2225,-56 42.1556,-27.4242 287.44,-16.4344 410.09,-12.6995"/>
<polygon fill="midnightblue" stroke="midnightblue" points="410.244,-16.1966 420.136,-12.4015 410.037,-9.19969 410.244,-16.1966"/>
</g>
<!-- Node4 -->
<g id="node8" class="node"><title>Node4</title>
<polygon fill="none" stroke="#bfbfbf" points="24.7225,-56.5 24.7225,-75.5 75.7225,-75.5 75.7225,-56.5 24.7225,-56.5"/>
<text text-anchor="middle" x="50.2225" y="-63.5" font-family="Helvetica,sans-Serif" font-size="10.00">config.h</text>
</g>
<!-- Node3&#45;&gt;Node4 -->
<g id="edge8" class="edge"><title>Node3&#45;&gt;Node4</title>
<path fill="none" stroke="midnightblue" d="M164.673,-112.444C142.191,-103.517 106.735,-89.4387 81.2427,-79.3168"/>
<polygon fill="midnightblue" stroke="midnightblue" points="82.2571,-75.9539 71.6713,-75.5164 79.6738,-82.4598 82.2571,-75.9539"/>
</g>
<!-- Node5 -->
<g id="node10" class="node"><title>Node5</title>
<polygon fill="none" stroke="#bfbfbf" points="94.2225,-56.5 94.2225,-75.5 144.223,-75.5 144.223,-56.5 94.2225,-56.5"/>
<text text-anchor="middle" x="119.223" y="-63.5" font-family="Helvetica,sans-Serif" font-size="10.00">signal.h</text>
</g>
<!-- Node3&#45;&gt;Node5 -->
<g id="edge10" class="edge"><title>Node3&#45;&gt;Node5</title>
<path fill="none" stroke="midnightblue" d="M175.458,-112.324C165.456,-104.263 150.336,-92.0765 138.292,-82.3695"/>
<polygon fill="midnightblue" stroke="midnightblue" points="140.165,-79.3841 130.183,-75.8339 135.773,-84.8343 140.165,-79.3841"/>
</g>
<!-- Node6 -->
<g id="node12" class="node"><title>Node6</title>
<polygon fill="none" stroke="#bfbfbf" points="162.723,-56.5 162.723,-75.5 209.723,-75.5 209.723,-56.5 162.723,-56.5"/>
<text text-anchor="middle" x="186.223" y="-63.5" font-family="Helvetica,sans-Serif" font-size="10.00">errno.h</text>
</g>
<!-- Node3&#45;&gt;Node6 -->
<g id="edge12" class="edge"><title>Node3&#45;&gt;Node6</title>
<path fill="none" stroke="midnightblue" d="M186.223,-112.083C186.223,-105.006 186.223,-94.8611 186.223,-85.9865"/>
<polygon fill="midnightblue" stroke="midnightblue" points="189.723,-85.751 186.223,-75.7511 182.723,-85.7511 189.723,-85.751"/>
</g>
<!-- Node7 -->
<g id="node14" class="node"><title>Node7</title>
<polygon fill="none" stroke="#bfbfbf" points="228.223,-56.5 228.223,-75.5 274.223,-75.5 274.223,-56.5 228.223,-56.5"/>
<text text-anchor="middle" x="251.223" y="-63.5" font-family="Helvetica,sans-Serif" font-size="10.00">stdio.h</text>
</g>
<!-- Node3&#45;&gt;Node7 -->
<g id="edge14" class="edge"><title>Node3&#45;&gt;Node7</title>
<path fill="none" stroke="midnightblue" d="M196.666,-112.324C206.369,-104.263 221.038,-92.0765 232.722,-82.3695"/>
<polygon fill="midnightblue" stroke="midnightblue" points="235.134,-84.9163 240.589,-75.8339 230.661,-79.532 235.134,-84.9163"/>
</g>
<!-- Node8 -->
<g id="node16" class="node"><title>Node8</title>
<polygon fill="none" stroke="#bfbfbf" points="292.223,-56.5 292.223,-75.5 340.223,-75.5 340.223,-56.5 292.223,-56.5"/>
<text text-anchor="middle" x="316.223" y="-63.5" font-family="Helvetica,sans-Serif" font-size="10.00">stdlib.h</text>
</g>
<!-- Node3&#45;&gt;Node8 -->
<g id="edge16" class="edge"><title>Node3&#45;&gt;Node8</title>
<path fill="none" stroke="midnightblue" d="M206.821,-112.444C228.216,-103.557 261.904,-89.5632 286.247,-79.4514"/>
<polygon fill="midnightblue" stroke="midnightblue" points="287.828,-82.5848 295.72,-75.5164 285.142,-76.1203 287.828,-82.5848"/>
</g>
<!-- Node9&#45;&gt;Node2 -->
<g id="edge20" class="edge"><title>Node9&#45;&gt;Node2</title>
<path fill="none" stroke="midnightblue" d="M446.434,-112.668C413.558,-102.58 370.087,-83.4576 387.223,-56 396.98,-40.3644 413.92,-30.013 430.625,-23.2301"/>
<polygon fill="midnightblue" stroke="midnightblue" points="432.205,-26.378 440.377,-19.6357 429.784,-19.8098 432.205,-26.378"/>
</g>
<!-- Node10 -->
<g id="node21" class="node"><title>Node10</title>
<a xlink:href="rfcnb-error_8h.html" target="_top" xlink:title="rfcnb&#45;error.h">
<polygon fill="none" stroke="black" points="396.723,-56.5 396.723,-75.5 465.723,-75.5 465.723,-56.5 396.723,-56.5"/>
<text text-anchor="middle" x="431.223" y="-63.5" font-family="Helvetica,sans-Serif" font-size="10.00">rfcnb&#45;error.h</text>
</a>
</g>
<!-- Node9&#45;&gt;Node10 -->
<g id="edge22" class="edge"><title>Node9&#45;&gt;Node10</title>
<path fill="none" stroke="midnightblue" d="M471.296,-112.083C464.376,-104.298 454.157,-92.8015 445.771,-83.3665"/>
<polygon fill="midnightblue" stroke="midnightblue" points="448.261,-80.8999 439.001,-75.7511 443.029,-85.5505 448.261,-80.8999"/>
</g>
<!-- Node11 -->
<g id="node24" class="node"><title>Node11</title>
<a xlink:href="rfcnb-common_8h.html" target="_top" xlink:title="rfcnb&#45;common.h">
<polygon fill="none" stroke="black" points="483.723,-56.5 483.723,-75.5 570.723,-75.5 570.723,-56.5 483.723,-56.5"/>
<text text-anchor="middle" x="527.223" y="-63.5" font-family="Helvetica,sans-Serif" font-size="10.00">rfcnb&#45;common.h</text>
</a>
</g>
<!-- Node9&#45;&gt;Node11 -->
<g id="edge26" class="edge"><title>Node9&#45;&gt;Node11</title>
<path fill="none" stroke="midnightblue" d="M487.149,-112.083C494.069,-104.298 504.288,-92.8015 512.674,-83.3665"/>
<polygon fill="midnightblue" stroke="midnightblue" points="515.416,-85.5505 519.444,-75.7511 510.184,-80.8999 515.416,-85.5505"/>
</g>
<!-- Node12 -->
<g id="node27" class="node"><title>Node12</title>
<a xlink:href="byteorder_8h.html" target="_top" xlink:title="byteorder.h">
<polygon fill="none" stroke="black" points="588.723,-56.5 588.723,-75.5 653.723,-75.5 653.723,-56.5 588.723,-56.5"/>
<text text-anchor="middle" x="621.223" y="-63.5" font-family="Helvetica,sans-Serif" font-size="10.00">byteorder.h</text>
</a>
</g>
<!-- Node9&#45;&gt;Node12 -->
<g id="edge30" class="edge"><title>Node9&#45;&gt;Node12</title>
<path fill="none" stroke="midnightblue" d="M501.723,-112.444C525.3,-103.478 562.545,-89.314 589.187,-79.1827"/>
<polygon fill="midnightblue" stroke="midnightblue" points="590.725,-82.3424 598.827,-75.5164 588.236,-75.7995 590.725,-82.3424"/>
</g>
<!-- Node10&#45;&gt;Node2 -->
<g id="edge24" class="edge"><title>Node10&#45;&gt;Node2</title>
<path fill="none" stroke="midnightblue" d="M439.149,-56.083C446.069,-48.2982 456.288,-36.8015 464.674,-27.3665"/>
<polygon fill="midnightblue" stroke="midnightblue" points="467.416,-29.5505 471.444,-19.7511 462.184,-24.8999 467.416,-29.5505"/>
</g>
<!-- Node11&#45;&gt;Node2 -->
<g id="edge28" class="edge"><title>Node11&#45;&gt;Node2</title>
<path fill="none" stroke="midnightblue" d="M519.296,-56.083C512.376,-48.2982 502.157,-36.8015 493.771,-27.3665"/>
<polygon fill="midnightblue" stroke="midnightblue" points="496.261,-24.8999 487.001,-19.7511 491.029,-29.5505 496.261,-24.8999"/>
</g>
<!-- Node12&#45;&gt;Node2 -->
<g id="edge32" class="edge"><title>Node12&#45;&gt;Node2</title>
<path fill="none" stroke="midnightblue" d="M598.722,-56.4435C575.145,-47.4776 537.9,-33.314 511.258,-23.1827"/>
<polygon fill="midnightblue" stroke="midnightblue" points="512.209,-19.7995 501.618,-19.5164 509.72,-26.3424 512.209,-19.7995"/>
</g>
<!-- Node13&#45;&gt;Node2 -->
<g id="edge36" class="edge"><title>Node13&#45;&gt;Node2</title>
<path fill="none" stroke="midnightblue" d="M592.24,-114.138C629.588,-104.435 684.671,-84.6371 662.223,-56 648.025,-37.8884 594.17,-26.0934 548.53,-19.142"/>
<polygon fill="midnightblue" stroke="midnightblue" points="549.037,-15.6791 538.635,-17.6895 548.02,-22.6048 549.037,-15.6791"/>
</g>
<!-- Node14&#45;&gt;Node2 -->
<g id="edge40" class="edge"><title>Node14&#45;&gt;Node2</title>
<path fill="none" stroke="midnightblue" d="M651.132,-112.323C667.44,-99.3963 693.093,-74.6082 678.223,-56 662.053,-35.7656 599.41,-23.9639 548.671,-17.5638"/>
<polygon fill="midnightblue" stroke="midnightblue" points="549.048,-14.0839 538.699,-16.3549 548.206,-21.033 549.048,-14.0839"/>
</g>
</g>
</svg>
        <g id="navigator" transform="translate(0 0)" fill="#404254">
                <rect fill="#f2f5e9" fill-opacity="0.5" stroke="#606060" stroke-width=".5" x="0" y="0" width="60" height="60"/>
                <use id="zoomplus" xlink:href="#zoomPlus" x="17" y="9" onmousedown="handleZoom(evt,'in')"/>
                <use id="zoomminus" xlink:href="#zoomMin" x="42" y="9" onmousedown="handleZoom(evt,'out')"/>
                <use id="reset" xlink:href="#resetDef" x="30" y="36" onmousedown="handleReset()"/>
                <g id="arrowUp" xlink:href="#dirArrow" transform="translate(30 24)" onmousedown="handlePan(0,-1)">
                  <use xlink:href="#rim" fill="#404040">
                        <set attributeName="fill" to="#808080" begin="arrowUp.mouseover" end="arrowUp.mouseout"/>
                  </use>
                  <path fill="none" stroke="white" stroke-width="1.5" d="M0,-3.0v7 M-2.5,-0.5L0,-3.0L2.5,-0.5"/>
                </g>
                <g id="arrowRight" xlink:href="#dirArrow" transform="rotate(90) translate(36 -43)" onmousedown="handlePan(1,0)">
                  <use xlink:href="#rim" fill="#404040">
                        <set attributeName="fill" to="#808080" begin="arrowRight.mouseover" end="arrowRight.mouseout"/>
                  </use>
                  <path fill="none" stroke="white" stroke-width="1.5" d="M0,-3.0v7 M-2.5,-0.5L0,-3.0L2.5,-0.5"/>
                </g>
                <g id="arrowDown" xlink:href="#dirArrow" transform="rotate(180) translate(-30 -48)" onmousedown="handlePan(0,1)">
                  <use xlink:href="#rim" fill="#404040">
                        <set attributeName="fill" to="#808080" begin="arrowDown.mouseover" end="arrowDown.mouseout"/>
                  </use>
                  <path fill="none" stroke="white" stroke-width="1.5" d="M0,-3.0v7 M-2.5,-0.5L0,-3.0L2.5,-0.5"/>
                </g>
                <g id="arrowLeft" xlink:href="#dirArrow" transform="rotate(270) translate(-36 17)" onmousedown="handlePan(-1,0)">
                  <use xlink:href="#rim" fill="#404040">
                        <set attributeName="fill" to="#808080" begin="arrowLeft.mouseover" end="arrowLeft.mouseout"/>
                  </use>
                  <path fill="none" stroke="white" stroke-width="1.5" d="M0,-3.0v7 M-2.5,-0.5L0,-3.0L2.5,-0.5"/>
                </g>
        </g>
</svg>
