<?xml version="1.0" encoding="UTF-8" standalone="no"?>
<!DOCTYPE svg PUBLIC "-//W3C//DTD SVG 1.1//EN"
 "http://www.w3.org/Graphics/SVG/1.1/DTD/svg11.dtd">
<!-- Generated by graphviz version 2.28.0 (20111211.2114)
 -->
<!-- Title: G Pages: 1 -->
<svg width="451pt" height="196pt"
 viewBox="0.00 0.00 451.00 196.00" xmlns="http://www.w3.org/2000/svg" xmlns:xlink="http://www.w3.org/1999/xlink">
<g id="graph1" class="graph" transform="scale(1 1) rotate(0) translate(4 192)">
<title>G</title>
<!-- Node1 -->
<g id="node1" class="node"><title>Node1</title>
<polygon fill="#bfbfbf" stroke="black" points="4.5,-168.5 4.5,-187.5 287.5,-187.5 287.5,-168.5 4.5,-168.5"/>
<text text-anchor="middle" x="146" y="-175.5" font-family="Helvetica,sans-Serif" font-size="10.00">/home/pjm3/freeradius&#45;server/src/modules/rlm_eap/rlm_eap.h</text>
</g>
<!-- Node2 -->
<g id="node3" class="node"><title>Node2</title>
<polygon fill="none" stroke="#bfbfbf" points="0,-0.5 0,-19.5 118,-19.5 118,-0.5 0,-0.5"/>
<text text-anchor="middle" x="59" y="-7.5" font-family="Helvetica,sans-Serif" font-size="10.00">freeradius&#45;devel/ident.h</text>
</g>
<!-- Node1&#45;&gt;Node2 -->
<g id="edge2" class="edge"><title>Node1&#45;&gt;Node2</title>
<path fill="none" stroke="midnightblue" d="M135.628,-168.271C117.363,-152.189 79.892,-115.863 64,-76 58.1649,-61.3634 57.1976,-43.4229 57.5293,-30.1007"/>
<polygon fill="midnightblue" stroke="midnightblue" points="61.0418,-29.9494 58.0656,-19.7812 54.0513,-29.5861 61.0418,-29.9494"/>
</g>
<!-- Node3 -->
<g id="node5" class="node"><title>Node3</title>
<polygon fill="none" stroke="#bfbfbf" points="209.5,-112.5 209.5,-131.5 340.5,-131.5 340.5,-112.5 209.5,-112.5"/>
<text text-anchor="middle" x="275" y="-119.5" font-family="Helvetica,sans-Serif" font-size="10.00">freeradius&#45;devel/modpriv.h</text>
</g>
<!-- Node1&#45;&gt;Node3 -->
<g id="edge4" class="edge"><title>Node1&#45;&gt;Node3</title>
<path fill="none" stroke="midnightblue" d="M166.44,-168.444C187.67,-159.557 221.099,-145.563 245.255,-135.451"/>
<polygon fill="midnightblue" stroke="midnightblue" points="246.782,-138.606 254.655,-131.516 244.079,-132.149 246.782,-138.606"/>
</g>
<!-- Node4 -->
<g id="node7" class="node"><title>Node4</title>
<a xlink:href="eap_8h.html" target="_top" xlink:title="eap.h">
<polygon fill="none" stroke="black" points="150.5,-112.5 150.5,-131.5 191.5,-131.5 191.5,-112.5 150.5,-112.5"/>
<text text-anchor="middle" x="171" y="-119.5" font-family="Helvetica,sans-Serif" font-size="10.00">eap.h</text>
</a>
</g>
<!-- Node1&#45;&gt;Node4 -->
<g id="edge6" class="edge"><title>Node1&#45;&gt;Node4</title>
<path fill="none" stroke="midnightblue" d="M150.128,-168.083C153.514,-160.77 158.416,-150.181 162.619,-141.103"/>
<polygon fill="midnightblue" stroke="midnightblue" points="165.923,-142.296 166.949,-131.751 159.571,-139.355 165.923,-142.296"/>
</g>
<!-- Node8 -->
<g id="node16" class="node"><title>Node8</title>
<a xlink:href="eap__types_8h.html" target="_top" xlink:title="eap_types.h">
<polygon fill="none" stroke="black" points="87,-56.5 87,-75.5 157,-75.5 157,-56.5 87,-56.5"/>
<text text-anchor="middle" x="122" y="-63.5" font-family="Helvetica,sans-Serif" font-size="10.00">eap_types.h</text>
</a>
</g>
<!-- Node1&#45;&gt;Node8 -->
<g id="edge24" class="edge"><title>Node1&#45;&gt;Node8</title>
<path fill="none" stroke="midnightblue" d="M144.117,-168.368C140.244,-150.617 131.309,-109.666 126.058,-85.5974"/>
<polygon fill="midnightblue" stroke="midnightblue" points="129.426,-84.6155 123.874,-75.5914 122.587,-86.1077 129.426,-84.6155"/>
</g>
<!-- Node4&#45;&gt;Node2 -->
<g id="edge8" class="edge"><title>Node4&#45;&gt;Node2</title>
<path fill="none" stroke="midnightblue" d="M150.183,-116.226C129.026,-110.31 96.7694,-98.1819 78,-76 66.974,-62.9693 62.3432,-43.812 60.4002,-29.6687"/>
<polygon fill="midnightblue" stroke="midnightblue" points="63.8699,-29.1949 59.3474,-19.6138 56.9079,-29.9239 63.8699,-29.1949"/>
</g>
<!-- Node5 -->
<g id="node10" class="node"><title>Node5</title>
<polygon fill="none" stroke="#bfbfbf" points="154,-0.5 154,-19.5 282,-19.5 282,-0.5 154,-0.5"/>
<text text-anchor="middle" x="218" y="-7.5" font-family="Helvetica,sans-Serif" font-size="10.00">freeradius&#45;devel/radiusd.h</text>
</g>
<!-- Node4&#45;&gt;Node5 -->
<g id="edge10" class="edge"><title>Node4&#45;&gt;Node5</title>
<path fill="none" stroke="midnightblue" d="M191.576,-114.546C194.403,-113.679 197.271,-112.81 200,-112 256.243,-95.3041 291.621,-122.801 327,-76 346.636,-50.0237 307.271,-32.3764 270.484,-22.0989"/>
<polygon fill="midnightblue" stroke="midnightblue" points="271.291,-18.6918 260.728,-19.5195 269.501,-25.4593 271.291,-18.6918"/>
</g>
<!-- Node6 -->
<g id="node12" class="node"><title>Node6</title>
<polygon fill="none" stroke="#bfbfbf" points="309,-0.5 309,-19.5 443,-19.5 443,-0.5 309,-0.5"/>
<text text-anchor="middle" x="376" y="-7.5" font-family="Helvetica,sans-Serif" font-size="10.00">freeradius&#45;devel/modules.h</text>
</g>
<!-- Node4&#45;&gt;Node6 -->
<g id="edge12" class="edge"><title>Node4&#45;&gt;Node6</title>
<path fill="none" stroke="midnightblue" d="M191.553,-114.466C194.384,-113.611 197.259,-112.767 200,-112 263.527,-94.2164 292.669,-117.438 344,-76 358.506,-64.2897 366.942,-44.3503 371.474,-29.6363"/>
<polygon fill="midnightblue" stroke="midnightblue" points="374.949,-30.1951 374.214,-19.6258 368.198,-28.3468 374.949,-30.1951"/>
</g>
<!-- Node7 -->
<g id="node14" class="node"><title>Node7</title>
<polygon fill="none" stroke="#bfbfbf" points="175.5,-56.5 175.5,-75.5 318.5,-75.5 318.5,-56.5 175.5,-56.5"/>
<text text-anchor="middle" x="247" y="-63.5" font-family="Helvetica,sans-Serif" font-size="10.00">freeradius&#45;devel/rad_assert.h</text>
</g>
<!-- Node4&#45;&gt;Node7 -->
<g id="edge14" class="edge"><title>Node4&#45;&gt;Node7</title>
<path fill="none" stroke="midnightblue" d="M183.211,-112.324C194.776,-104.107 212.375,-91.6017 226.161,-81.8069"/>
<polygon fill="midnightblue" stroke="midnightblue" points="228.443,-84.4791 234.567,-75.8339 224.388,-78.7729 228.443,-84.4791"/>
</g>
<!-- Node4&#45;&gt;Node8 -->
<g id="edge16" class="edge"><title>Node4&#45;&gt;Node8</title>
<path fill="none" stroke="midnightblue" d="M162.909,-112.083C155.845,-104.298 145.412,-92.8015 136.851,-83.3665"/>
<polygon fill="midnightblue" stroke="midnightblue" points="139.253,-80.8047 129.941,-75.7511 134.069,-85.5087 139.253,-80.8047"/>
</g>
<!-- Node8&#45;&gt;Node2 -->
<g id="edge18" class="edge"><title>Node8&#45;&gt;Node2</title>
<path fill="none" stroke="midnightblue" d="M111.878,-56.324C102.474,-48.2631 88.2559,-36.0765 76.931,-26.3695"/>
<polygon fill="midnightblue" stroke="midnightblue" points="79.1766,-23.6844 69.3062,-19.8339 74.621,-28.9993 79.1766,-23.6844"/>
</g>
<!-- Node8&#45;&gt;Node5 -->
<g id="edge20" class="edge"><title>Node8&#45;&gt;Node5</title>
<path fill="none" stroke="midnightblue" d="M137.424,-56.324C152.54,-47.8215 175.815,-34.7288 193.471,-24.7975"/>
<polygon fill="midnightblue" stroke="midnightblue" points="195.614,-27.6077 202.614,-19.6545 192.183,-21.5066 195.614,-27.6077"/>
</g>
<!-- Node8&#45;&gt;Node6 -->
<g id="edge22" class="edge"><title>Node8&#45;&gt;Node6</title>
<path fill="none" stroke="midnightblue" d="M157.051,-57.5482C200.849,-48.2368 276.094,-32.2399 325.948,-21.6411"/>
<polygon fill="midnightblue" stroke="midnightblue" points="326.818,-25.0344 335.871,-19.5313 325.362,-18.1874 326.818,-25.0344"/>
</g>
</g>
</svg>
