<?xml version="1.0" encoding="UTF-8" standalone="no"?>
<!DOCTYPE svg PUBLIC "-//W3C//DTD SVG 1.1//EN"
 "http://www.w3.org/Graphics/SVG/1.1/DTD/svg11.dtd">
<!-- Generated by graphviz version 2.28.0 (20111211.2114)
 -->
<!-- Title: G Pages: 1 -->
<!--zoomable-->
<svg id="main" version="1.1" xmlns="http://www.w3.org/2000/svg" xmlns:xlink="http://www.w3.org/1999/xlink" xml:space="preserve" onload="init(evt)">
        <defs>
                <circle id="rim" cx="0" cy="0" r="7"/>
                <circle id="rim2" cx="0" cy="0" r="3.5"/>
                <g id="zoomPlus">
                        <use xlink:href="#rim" fill="#404040">
                                <set attributeName="fill" to="#808080" begin="zoomplus.mouseover" end="zoomplus.mouseout"/>
                        </use>
                        <path d="M-4,0h8M0,-4v8" fill="none" stroke="white" stroke-width="1.5" pointer-events="none"/>
                </g>
                <g id="zoomMin">
                        <use xlink:href="#rim" fill="#404040">
                                <set attributeName="fill" to="#808080" begin="zoomminus.mouseover" end="zoomminus.mouseout"/>
                        </use>
                        <path d="M-4,0h8" fill="none" stroke="white" stroke-width="1.5" pointer-events="none"/>
                </g>
                <g id="dirArrow">
                        <path fill="none" stroke="white" stroke-width="1.5" d="M0,-3.0v7 M-2.5,-0.5L0,-3.0L2.5,-0.5"/>
                </g>
               <g id="resetDef">
                       <use xlink:href="#rim2" fill="#404040">
                               <set attributeName="fill" to="#808080" begin="reset.mouseover" end="reset.mouseout"/>
                       </use>
               </g>
        </defs>

<script type="text/javascript">
var viewWidth = 586;
var viewHeight = 196;
var sectionId = 'dynsection-0';
</script>
<script xlink:href="svgpan.js"/>
<svg id="graph" class="graph">
<g id="viewport">
<title>G</title>
<!-- Node1 -->
<g id="node1" class="node"><title>Node1</title>
<polygon fill="#bfbfbf" stroke="black" points="0,-168.5 0,-187.5 302,-187.5 302,-168.5 0,-168.5"/>
<text text-anchor="middle" x="151" y="-175.5" font-family="Helvetica,sans-Serif" font-size="10.00">/home/pjm3/freeradius&#45;server/src/modules/rlm_smb/smbencrypt.c</text>
</g>
<!-- Node2 -->
<g id="node3" class="node"><title>Node2</title>
<polygon fill="none" stroke="#bfbfbf" points="126,-0.5 126,-19.5 244,-19.5 244,-0.5 126,-0.5"/>
<text text-anchor="middle" x="185" y="-7.5" font-family="Helvetica,sans-Serif" font-size="10.00">freeradius&#45;devel/ident.h</text>
</g>
<!-- Node1&#45;&gt;Node2 -->
<g id="edge2" class="edge"><title>Node1&#45;&gt;Node2</title>
<path fill="none" stroke="midnightblue" d="M141.98,-168.34C133.928,-159.932 122.702,-146.363 118,-132 115.234,-123.552 115.836,-120.621 118,-112 126.523,-78.0436 152.267,-45.5633 169.249,-26.9833"/>
<polygon fill="midnightblue" stroke="midnightblue" points="171.813,-29.365 176.128,-19.6882 166.721,-24.5627 171.813,-29.365"/>
</g>
<!-- Node3 -->
<g id="node5" class="node"><title>Node3</title>
<polygon fill="none" stroke="#bfbfbf" points="126.5,-112.5 126.5,-131.5 175.5,-131.5 175.5,-112.5 126.5,-112.5"/>
<text text-anchor="middle" x="151" y="-119.5" font-family="Helvetica,sans-Serif" font-size="10.00">string.h</text>
</g>
<!-- Node1&#45;&gt;Node3 -->
<g id="edge4" class="edge"><title>Node1&#45;&gt;Node3</title>
<path fill="none" stroke="midnightblue" d="M151,-168.083C151,-161.006 151,-150.861 151,-141.986"/>
<polygon fill="midnightblue" stroke="midnightblue" points="154.5,-141.751 151,-131.751 147.5,-141.751 154.5,-141.751"/>
</g>
<!-- Node4 -->
<g id="node7" class="node"><title>Node4</title>
<a xlink:href="smblib-priv_8h.html" target="_top" xlink:title="smblib&#45;priv.h">
<polygon fill="none" stroke="black" points="194,-112.5 194,-131.5 266,-131.5 266,-112.5 194,-112.5"/>
<text text-anchor="middle" x="230" y="-119.5" font-family="Helvetica,sans-Serif" font-size="10.00">smblib&#45;priv.h</text>
</a>
</g>
<!-- Node1&#45;&gt;Node4 -->
<g id="edge6" class="edge"><title>Node1&#45;&gt;Node4</title>
<path fill="none" stroke="midnightblue" d="M163.693,-168.324C175.901,-159.979 194.578,-147.212 209.003,-137.352"/>
<polygon fill="midnightblue" stroke="midnightblue" points="211.058,-140.187 217.339,-131.655 207.108,-134.408 211.058,-140.187"/>
</g>
<!-- Node4&#45;&gt;Node2 -->
<g id="edge8" class="edge"><title>Node4&#45;&gt;Node2</title>
<path fill="none" stroke="midnightblue" d="M202.718,-112.453C185.706,-105.548 165.175,-93.9707 155,-76 145.872,-59.8783 157.545,-40.4932 168.891,-27.1111"/>
<polygon fill="midnightblue" stroke="midnightblue" points="171.559,-29.3796 175.723,-19.6375 166.393,-24.6563 171.559,-29.3796"/>
</g>
<!-- Node5 -->
<g id="node10" class="node"><title>Node5</title>
<a xlink:href="std-includes_8h.html" target="_top" xlink:title="std&#45;includes.h">
<polygon fill="none" stroke="black" points="359.5,-56.5 359.5,-75.5 436.5,-75.5 436.5,-56.5 359.5,-56.5"/>
<text text-anchor="middle" x="398" y="-63.5" font-family="Helvetica,sans-Serif" font-size="10.00">std&#45;includes.h</text>
</a>
</g>
<!-- Node4&#45;&gt;Node5 -->
<g id="edge10" class="edge"><title>Node4&#45;&gt;Node5</title>
<path fill="none" stroke="midnightblue" d="M256.62,-112.444C285.006,-103.32 330.137,-88.8133 361.753,-78.6509"/>
<polygon fill="midnightblue" stroke="midnightblue" points="363.055,-81.9087 371.504,-75.5164 360.913,-75.2445 363.055,-81.9087"/>
</g>
<!-- Node11 -->
<g id="node23" class="node"><title>Node11</title>
<a xlink:href="smblib-common_8h.html" target="_top" xlink:title="smblib&#45;common.h">
<polygon fill="none" stroke="black" points="164,-56.5 164,-75.5 258,-75.5 258,-56.5 164,-56.5"/>
<text text-anchor="middle" x="211" y="-63.5" font-family="Helvetica,sans-Serif" font-size="10.00">smblib&#45;common.h</text>
</a>
</g>
<!-- Node4&#45;&gt;Node11 -->
<g id="edge24" class="edge"><title>Node4&#45;&gt;Node11</title>
<path fill="none" stroke="midnightblue" d="M226.863,-112.083C224.317,-104.849 220.644,-94.4087 217.473,-85.3968"/>
<polygon fill="midnightblue" stroke="midnightblue" points="220.7,-84.0225 214.079,-75.7511 214.097,-86.3459 220.7,-84.0225"/>
</g>
<!-- Node12 -->
<g id="node26" class="node"><title>Node12</title>
<a xlink:href="byteorder_8h.html" target="_top" xlink:title="byteorder.h">
<polygon fill="none" stroke="black" points="276.5,-56.5 276.5,-75.5 341.5,-75.5 341.5,-56.5 276.5,-56.5"/>
<text text-anchor="middle" x="309" y="-63.5" font-family="Helvetica,sans-Serif" font-size="10.00">byteorder.h</text>
</a>
</g>
<!-- Node4&#45;&gt;Node12 -->
<g id="edge28" class="edge"><title>Node4&#45;&gt;Node12</title>
<path fill="none" stroke="midnightblue" d="M242.693,-112.324C254.901,-103.979 273.578,-91.2122 288.003,-81.3524"/>
<polygon fill="midnightblue" stroke="midnightblue" points="290.058,-84.1871 296.339,-75.6545 286.108,-78.4082 290.058,-84.1871"/>
</g>
<!-- Node5&#45;&gt;Node2 -->
<g id="edge12" class="edge"><title>Node5&#45;&gt;Node2</title>
<path fill="none" stroke="midnightblue" d="M364.25,-56.4435C327.482,-47.1221 268.554,-32.1828 228.378,-21.9972"/>
<polygon fill="midnightblue" stroke="midnightblue" points="229.146,-18.5813 218.593,-19.5164 227.426,-25.3666 229.146,-18.5813"/>
</g>
<!-- Node6 -->
<g id="node13" class="node"><title>Node6</title>
<polygon fill="none" stroke="#bfbfbf" points="262.5,-0.5 262.5,-19.5 313.5,-19.5 313.5,-0.5 262.5,-0.5"/>
<text text-anchor="middle" x="288" y="-7.5" font-family="Helvetica,sans-Serif" font-size="10.00">config.h</text>
</g>
<!-- Node5&#45;&gt;Node6 -->
<g id="edge14" class="edge"><title>Node5&#45;&gt;Node6</title>
<path fill="none" stroke="midnightblue" d="M380.327,-56.324C362.606,-47.6247 335.097,-34.1202 314.712,-24.113"/>
<polygon fill="midnightblue" stroke="midnightblue" points="316.149,-20.9195 305.63,-19.6545 313.064,-27.2031 316.149,-20.9195"/>
</g>
<!-- Node7 -->
<g id="node15" class="node"><title>Node7</title>
<polygon fill="none" stroke="#bfbfbf" points="332,-0.5 332,-19.5 382,-19.5 382,-0.5 332,-0.5"/>
<text text-anchor="middle" x="357" y="-7.5" font-family="Helvetica,sans-Serif" font-size="10.00">signal.h</text>
</g>
<!-- Node5&#45;&gt;Node7 -->
<g id="edge16" class="edge"><title>Node5&#45;&gt;Node7</title>
<path fill="none" stroke="midnightblue" d="M391.23,-56.083C385.438,-48.4554 376.942,-37.2645 369.862,-27.9408"/>
<polygon fill="midnightblue" stroke="midnightblue" points="372.479,-25.5991 363.644,-19.7511 366.904,-29.8321 372.479,-25.5991"/>
</g>
<!-- Node8 -->
<g id="node17" class="node"><title>Node8</title>
<polygon fill="none" stroke="#bfbfbf" points="400.5,-0.5 400.5,-19.5 447.5,-19.5 447.5,-0.5 400.5,-0.5"/>
<text text-anchor="middle" x="424" y="-7.5" font-family="Helvetica,sans-Serif" font-size="10.00">errno.h</text>
</g>
<!-- Node5&#45;&gt;Node8 -->
<g id="edge18" class="edge"><title>Node5&#45;&gt;Node8</title>
<path fill="none" stroke="midnightblue" d="M402.293,-56.083C405.852,-48.6913 411.022,-37.9533 415.424,-28.8111"/>
<polygon fill="midnightblue" stroke="midnightblue" points="418.602,-30.2795 419.787,-19.7511 412.295,-27.2427 418.602,-30.2795"/>
</g>
<!-- Node9 -->
<g id="node19" class="node"><title>Node9</title>
<polygon fill="none" stroke="#bfbfbf" points="466,-0.5 466,-19.5 512,-19.5 512,-0.5 466,-0.5"/>
<text text-anchor="middle" x="489" y="-7.5" font-family="Helvetica,sans-Serif" font-size="10.00">stdio.h</text>
</g>
<!-- Node5&#45;&gt;Node9 -->
<g id="edge20" class="edge"><title>Node5&#45;&gt;Node9</title>
<path fill="none" stroke="midnightblue" d="M412.621,-56.324C426.949,-47.8215 449.013,-34.7288 465.749,-24.7975"/>
<polygon fill="midnightblue" stroke="midnightblue" points="467.602,-27.7677 474.416,-19.6545 464.03,-21.7478 467.602,-27.7677"/>
</g>
<!-- Node10 -->
<g id="node21" class="node"><title>Node10</title>
<polygon fill="none" stroke="#bfbfbf" points="530,-0.5 530,-19.5 578,-19.5 578,-0.5 530,-0.5"/>
<text text-anchor="middle" x="554" y="-7.5" font-family="Helvetica,sans-Serif" font-size="10.00">stdlib.h</text>
</g>
<!-- Node5&#45;&gt;Node10 -->
<g id="edge22" class="edge"><title>Node5&#45;&gt;Node10</title>
<path fill="none" stroke="midnightblue" d="M422.719,-56.4435C449.002,-47.3454 490.747,-32.8952 520.093,-22.7372"/>
<polygon fill="midnightblue" stroke="midnightblue" points="521.605,-25.9176 529.91,-19.339 519.315,-19.3027 521.605,-25.9176"/>
</g>
<!-- Node11&#45;&gt;Node2 -->
<g id="edge26" class="edge"><title>Node11&#45;&gt;Node2</title>
<path fill="none" stroke="midnightblue" d="M206.707,-56.083C203.148,-48.6913 197.978,-37.9533 193.576,-28.8111"/>
<polygon fill="midnightblue" stroke="midnightblue" points="196.705,-27.2427 189.213,-19.7511 190.398,-30.2795 196.705,-27.2427"/>
</g>
<!-- Node12&#45;&gt;Node2 -->
<g id="edge30" class="edge"><title>Node12&#45;&gt;Node2</title>
<path fill="none" stroke="midnightblue" d="M289.352,-56.4435C269.035,-47.5961 237.097,-33.6875 213.902,-23.5865"/>
<polygon fill="midnightblue" stroke="midnightblue" points="215.122,-20.3002 204.556,-19.5164 212.327,-26.7181 215.122,-20.3002"/>
</g>
</g>
</svg>
        <g id="navigator" transform="translate(0 0)" fill="#404254">
                <rect fill="#f2f5e9" fill-opacity="0.5" stroke="#606060" stroke-width=".5" x="0" y="0" width="60" height="60"/>
                <use id="zoomplus" xlink:href="#zoomPlus" x="17" y="9" onmousedown="handleZoom(evt,'in')"/>
                <use id="zoomminus" xlink:href="#zoomMin" x="42" y="9" onmousedown="handleZoom(evt,'out')"/>
                <use id="reset" xlink:href="#resetDef" x="30" y="36" onmousedown="handleReset()"/>
                <g id="arrowUp" xlink:href="#dirArrow" transform="translate(30 24)" onmousedown="handlePan(0,-1)">
                  <use xlink:href="#rim" fill="#404040">
                        <set attributeName="fill" to="#808080" begin="arrowUp.mouseover" end="arrowUp.mouseout"/>
                  </use>
                  <path fill="none" stroke="white" stroke-width="1.5" d="M0,-3.0v7 M-2.5,-0.5L0,-3.0L2.5,-0.5"/>
                </g>
                <g id="arrowRight" xlink:href="#dirArrow" transform="rotate(90) translate(36 -43)" onmousedown="handlePan(1,0)">
                  <use xlink:href="#rim" fill="#404040">
                        <set attributeName="fill" to="#808080" begin="arrowRight.mouseover" end="arrowRight.mouseout"/>
                  </use>
                  <path fill="none" stroke="white" stroke-width="1.5" d="M0,-3.0v7 M-2.5,-0.5L0,-3.0L2.5,-0.5"/>
                </g>
                <g id="arrowDown" xlink:href="#dirArrow" transform="rotate(180) translate(-30 -48)" onmousedown="handlePan(0,1)">
                  <use xlink:href="#rim" fill="#404040">
                        <set attributeName="fill" to="#808080" begin="arrowDown.mouseover" end="arrowDown.mouseout"/>
                  </use>
                  <path fill="none" stroke="white" stroke-width="1.5" d="M0,-3.0v7 M-2.5,-0.5L0,-3.0L2.5,-0.5"/>
                </g>
                <g id="arrowLeft" xlink:href="#dirArrow" transform="rotate(270) translate(-36 17)" onmousedown="handlePan(-1,0)">
                  <use xlink:href="#rim" fill="#404040">
                        <set attributeName="fill" to="#808080" begin="arrowLeft.mouseover" end="arrowLeft.mouseout"/>
                  </use>
                  <path fill="none" stroke="white" stroke-width="1.5" d="M0,-3.0v7 M-2.5,-0.5L0,-3.0L2.5,-0.5"/>
                </g>
        </g>
</svg>
