<?xml version="1.0" encoding="UTF-8" standalone="no"?>
<!DOCTYPE svg PUBLIC "-//W3C//DTD SVG 1.1//EN"
 "http://www.w3.org/Graphics/SVG/1.1/DTD/svg11.dtd">
<!-- Generated by graphviz version 2.28.0 (20111211.2114)
 -->
<!-- Title: G Pages: 1 -->
<!--zoomable-->
<svg id="main" version="1.1" xmlns="http://www.w3.org/2000/svg" xmlns:xlink="http://www.w3.org/1999/xlink" xml:space="preserve" onload="init(evt)">
        <defs>
                <circle id="rim" cx="0" cy="0" r="7"/>
                <circle id="rim2" cx="0" cy="0" r="3.5"/>
                <g id="zoomPlus">
                        <use xlink:href="#rim" fill="#404040">
                                <set attributeName="fill" to="#808080" begin="zoomplus.mouseover" end="zoomplus.mouseout"/>
                        </use>
                        <path d="M-4,0h8M0,-4v8" fill="none" stroke="white" stroke-width="1.5" pointer-events="none"/>
                </g>
                <g id="zoomMin">
                        <use xlink:href="#rim" fill="#404040">
                                <set attributeName="fill" to="#808080" begin="zoomminus.mouseover" end="zoomminus.mouseout"/>
                        </use>
                        <path d="M-4,0h8" fill="none" stroke="white" stroke-width="1.5" pointer-events="none"/>
                </g>
                <g id="dirArrow">
                        <path fill="none" stroke="white" stroke-width="1.5" d="M0,-3.0v7 M-2.5,-0.5L0,-3.0L2.5,-0.5"/>
                </g>
               <g id="resetDef">
                       <use xlink:href="#rim2" fill="#404040">
                               <set attributeName="fill" to="#808080" begin="reset.mouseover" end="reset.mouseout"/>
                       </use>
               </g>
        </defs>

<script type="text/javascript">
var viewWidth = 1653;
var viewHeight = 196;
var sectionId = 'dynsection-0';
</script>
<script xlink:href="svgpan.js"/>
<svg id="graph" class="graph">
<g id="viewport">
<title>G</title>
<!-- Node1 -->
<g id="node1" class="node"><title>Node1</title>
<polygon fill="#bfbfbf" stroke="black" points="461.5,-168.5 461.5,-187.5 738.5,-187.5 738.5,-168.5 461.5,-168.5"/>
<text text-anchor="middle" x="600" y="-175.5" font-family="Helvetica,sans-Serif" font-size="10.00">/home/pjm3/freeradius&#45;server/src/modules/rlm_unix/config.h</text>
</g>
<!-- Node2 -->
<g id="node3" class="node"><title>Node2</title>
<a xlink:href="rlm__radutmp2_8c.html" target="_top" xlink:title="/home/pjm3/freeradius&#45;server/src/modules/rlm_radutmp/rlm_radutmp2.c">
<polygon fill="none" stroke="black" points="102.5,-112.5 102.5,-131.5 429.5,-131.5 429.5,-112.5 102.5,-112.5"/>
<text text-anchor="middle" x="266" y="-119.5" font-family="Helvetica,sans-Serif" font-size="10.00">/home/pjm3/freeradius&#45;server/src/modules/rlm_radutmp/rlm_radutmp2.c</text>
</a>
</g>
<!-- Node1&#45;&gt;Node2 -->
<g id="edge2" class="edge"><title>Node1&#45;&gt;Node2</title>
<path fill="none" stroke="midnightblue" d="M536.853,-166.791C473.742,-156.587 377.816,-141.078 318.676,-131.516"/>
<polygon fill="midnightblue" stroke="midnightblue" points="536.646,-170.303 547.077,-168.444 537.764,-163.392 536.646,-170.303"/>
</g>
<!-- Node3 -->
<g id="node5" class="node"><title>Node3</title>
<a xlink:href="std-includes_8h.html" target="_top" xlink:title="/home/pjm3/freeradius&#45;server/src/modules/rlm_smb/std&#45;includes.h">
<polygon fill="none" stroke="black" points="448,-112.5 448,-131.5 752,-131.5 752,-112.5 448,-112.5"/>
<text text-anchor="middle" x="600" y="-119.5" font-family="Helvetica,sans-Serif" font-size="10.00">/home/pjm3/freeradius&#45;server/src/modules/rlm_smb/std&#45;includes.h</text>
</a>
</g>
<!-- Node1&#45;&gt;Node3 -->
<g id="edge4" class="edge"><title>Node1&#45;&gt;Node3</title>
<path fill="none" stroke="midnightblue" d="M600,-157.805C600,-148.91 600,-138.78 600,-131.751"/>
<polygon fill="midnightblue" stroke="midnightblue" points="596.5,-158.083 600,-168.083 603.5,-158.083 596.5,-158.083"/>
</g>
<!-- Node12 -->
<g id="node23" class="node"><title>Node12</title>
<a xlink:href="rlm__unix_8c.html" target="_top" xlink:title="/home/pjm3/freeradius&#45;server/src/modules/rlm_unix/rlm_unix.c">
<polygon fill="none" stroke="black" points="770.5,-112.5 770.5,-131.5 1057.5,-131.5 1057.5,-112.5 770.5,-112.5"/>
<text text-anchor="middle" x="914" y="-119.5" font-family="Helvetica,sans-Serif" font-size="10.00">/home/pjm3/freeradius&#45;server/src/modules/rlm_unix/rlm_unix.c</text>
</a>
</g>
<!-- Node1&#45;&gt;Node12 -->
<g id="edge22" class="edge"><title>Node1&#45;&gt;Node12</title>
<path fill="none" stroke="midnightblue" d="M659.733,-166.727C719.07,-156.523 808.994,-141.058 864.479,-131.516"/>
<polygon fill="midnightblue" stroke="midnightblue" points="659.016,-163.299 649.754,-168.444 660.203,-170.198 659.016,-163.299"/>
</g>
<!-- Node4 -->
<g id="node7" class="node"><title>Node4</title>
<a xlink:href="rfcnb-io_8c.html" target="_top" xlink:title="/home/pjm3/freeradius&#45;server/src/modules/rlm_smb/rfcnb&#45;io.c">
<polygon fill="none" stroke="black" points="0,-56.5 0,-75.5 284,-75.5 284,-56.5 0,-56.5"/>
<text text-anchor="middle" x="142" y="-63.5" font-family="Helvetica,sans-Serif" font-size="10.00">/home/pjm3/freeradius&#45;server/src/modules/rlm_smb/rfcnb&#45;io.c</text>
</a>
</g>
<!-- Node3&#45;&gt;Node4 -->
<g id="edge6" class="edge"><title>Node3&#45;&gt;Node4</title>
<path fill="none" stroke="midnightblue" d="M517.65,-111.291C431.245,-101.103 296.757,-85.2464 214.317,-75.5264"/>
<polygon fill="midnightblue" stroke="midnightblue" points="517.34,-114.778 527.681,-112.473 518.16,-107.826 517.34,-114.778"/>
</g>
<!-- Node5 -->
<g id="node9" class="node"><title>Node5</title>
<a xlink:href="rfcnb-util_8c.html" target="_top" xlink:title="/home/pjm3/freeradius&#45;server/src/modules/rlm_smb/rfcnb&#45;util.c">
<polygon fill="none" stroke="black" points="302.5,-56.5 302.5,-75.5 591.5,-75.5 591.5,-56.5 302.5,-56.5"/>
<text text-anchor="middle" x="447" y="-63.5" font-family="Helvetica,sans-Serif" font-size="10.00">/home/pjm3/freeradius&#45;server/src/modules/rlm_smb/rfcnb&#45;util.c</text>
</a>
</g>
<!-- Node3&#45;&gt;Node5 -->
<g id="edge8" class="edge"><title>Node3&#45;&gt;Node5</title>
<path fill="none" stroke="midnightblue" d="M566.111,-109.039C537.323,-98.8786 496.713,-84.5457 471.13,-75.5164"/>
<polygon fill="midnightblue" stroke="midnightblue" points="565.162,-112.416 575.757,-112.444 567.492,-105.815 565.162,-112.416"/>
</g>
<!-- Node6 -->
<g id="node11" class="node"><title>Node6</title>
<a xlink:href="modules_2rlm__smb_2session_8c.html" target="_top" xlink:title="/home/pjm3/freeradius&#45;server/src/modules/rlm_smb/session.c">
<polygon fill="none" stroke="black" points="609.5,-56.5 609.5,-75.5 894.5,-75.5 894.5,-56.5 609.5,-56.5"/>
<text text-anchor="middle" x="752" y="-63.5" font-family="Helvetica,sans-Serif" font-size="10.00">/home/pjm3/freeradius&#45;server/src/modules/rlm_smb/session.c</text>
</a>
</g>
<!-- Node3&#45;&gt;Node6 -->
<g id="edge10" class="edge"><title>Node3&#45;&gt;Node6</title>
<path fill="none" stroke="midnightblue" d="M633.668,-109.039C662.268,-98.8786 702.612,-84.5457 728.028,-75.5164"/>
<polygon fill="midnightblue" stroke="midnightblue" points="632.336,-105.798 624.085,-112.444 634.68,-112.394 632.336,-105.798"/>
</g>
<!-- Node7 -->
<g id="node13" class="node"><title>Node7</title>
<a xlink:href="smblib-priv_8h.html" target="_top" xlink:title="/home/pjm3/freeradius&#45;server/src/modules/rlm_smb/smblib&#45;priv.h">
<polygon fill="none" stroke="black" points="912.5,-56.5 912.5,-75.5 1211.5,-75.5 1211.5,-56.5 912.5,-56.5"/>
<text text-anchor="middle" x="1062" y="-63.5" font-family="Helvetica,sans-Serif" font-size="10.00">/home/pjm3/freeradius&#45;server/src/modules/rlm_smb/smblib&#45;priv.h</text>
</a>
</g>
<!-- Node3&#45;&gt;Node7 -->
<g id="edge12" class="edge"><title>Node3&#45;&gt;Node7</title>
<path fill="none" stroke="midnightblue" d="M683.069,-111.291C770.229,-101.103 905.892,-85.2464 989.052,-75.5264"/>
<polygon fill="midnightblue" stroke="midnightblue" points="682.476,-107.836 672.95,-112.473 683.289,-114.789 682.476,-107.836"/>
</g>
<!-- Node8 -->
<g id="node15" class="node"><title>Node8</title>
<a xlink:href="rlm__smb_2smbencrypt_8c.html" target="_top" xlink:title="/home/pjm3/freeradius&#45;server/src/modules/rlm_smb/smbencrypt.c">
<polygon fill="none" stroke="black" points="441,-0.5 441,-19.5 743,-19.5 743,-0.5 441,-0.5"/>
<text text-anchor="middle" x="592" y="-7.5" font-family="Helvetica,sans-Serif" font-size="10.00">/home/pjm3/freeradius&#45;server/src/modules/rlm_smb/smbencrypt.c</text>
</a>
</g>
<!-- Node7&#45;&gt;Node8 -->
<g id="edge14" class="edge"><title>Node7&#45;&gt;Node8</title>
<path fill="none" stroke="midnightblue" d="M977.763,-55.3216C889.104,-45.1353 750.897,-29.2563 666.212,-19.5264"/>
<polygon fill="midnightblue" stroke="midnightblue" points="977.452,-58.8089 987.786,-56.4733 978.251,-51.8547 977.452,-58.8089"/>
</g>
<!-- Node9 -->
<g id="node17" class="node"><title>Node9</title>
<a xlink:href="smblib-util_8c.html" target="_top" xlink:title="/home/pjm3/freeradius&#45;server/src/modules/rlm_smb/smblib&#45;util.c">
<polygon fill="none" stroke="black" points="761,-0.5 761,-19.5 1057,-19.5 1057,-0.5 761,-0.5"/>
<text text-anchor="middle" x="909" y="-7.5" font-family="Helvetica,sans-Serif" font-size="10.00">/home/pjm3/freeradius&#45;server/src/modules/rlm_smb/smblib&#45;util.c</text>
</a>
</g>
<!-- Node7&#45;&gt;Node9 -->
<g id="edge16" class="edge"><title>Node7&#45;&gt;Node9</title>
<path fill="none" stroke="midnightblue" d="M1028.11,-53.0392C999.323,-42.8786 958.713,-28.5457 933.13,-19.5164"/>
<polygon fill="midnightblue" stroke="midnightblue" points="1027.16,-56.4157 1037.76,-56.4435 1029.49,-49.8148 1027.16,-56.4157"/>
</g>
<!-- Node10 -->
<g id="node19" class="node"><title>Node10</title>
<a xlink:href="smblib_8c.html" target="_top" xlink:title="/home/pjm3/freeradius&#45;server/src/modules/rlm_smb/smblib.c">
<polygon fill="none" stroke="black" points="1075,-0.5 1075,-19.5 1355,-19.5 1355,-0.5 1075,-0.5"/>
<text text-anchor="middle" x="1215" y="-7.5" font-family="Helvetica,sans-Serif" font-size="10.00">/home/pjm3/freeradius&#45;server/src/modules/rlm_smb/smblib.c</text>
</a>
</g>
<!-- Node7&#45;&gt;Node10 -->
<g id="edge18" class="edge"><title>Node7&#45;&gt;Node10</title>
<path fill="none" stroke="midnightblue" d="M1095.89,-53.0392C1124.68,-42.8786 1165.29,-28.5457 1190.87,-19.5164"/>
<polygon fill="midnightblue" stroke="midnightblue" points="1094.51,-49.8148 1086.24,-56.4435 1096.84,-56.4157 1094.51,-49.8148"/>
</g>
<!-- Node11 -->
<g id="node21" class="node"><title>Node11</title>
<a xlink:href="valid_8c.html" target="_top" xlink:title="/home/pjm3/freeradius&#45;server/src/modules/rlm_smb/valid.c">
<polygon fill="none" stroke="black" points="1373,-0.5 1373,-19.5 1645,-19.5 1645,-0.5 1373,-0.5"/>
<text text-anchor="middle" x="1509" y="-7.5" font-family="Helvetica,sans-Serif" font-size="10.00">/home/pjm3/freeradius&#45;server/src/modules/rlm_smb/valid.c</text>
</a>
</g>
<!-- Node7&#45;&gt;Node11 -->
<g id="edge20" class="edge"><title>Node7&#45;&gt;Node11</title>
<path fill="none" stroke="midnightblue" d="M1142.88,-55.2291C1227.26,-45.0359 1358.21,-29.216 1438.5,-19.5164"/>
<polygon fill="midnightblue" stroke="midnightblue" points="1142.34,-51.7694 1132.83,-56.4435 1143.18,-58.7189 1142.34,-51.7694"/>
</g>
</g>
</svg>
        <g id="navigator" transform="translate(0 0)" fill="#404254">
                <rect fill="#f2f5e9" fill-opacity="0.5" stroke="#606060" stroke-width=".5" x="0" y="0" width="60" height="60"/>
                <use id="zoomplus" xlink:href="#zoomPlus" x="17" y="9" onmousedown="handleZoom(evt,'in')"/>
                <use id="zoomminus" xlink:href="#zoomMin" x="42" y="9" onmousedown="handleZoom(evt,'out')"/>
                <use id="reset" xlink:href="#resetDef" x="30" y="36" onmousedown="handleReset()"/>
                <g id="arrowUp" xlink:href="#dirArrow" transform="translate(30 24)" onmousedown="handlePan(0,-1)">
                  <use xlink:href="#rim" fill="#404040">
                        <set attributeName="fill" to="#808080" begin="arrowUp.mouseover" end="arrowUp.mouseout"/>
                  </use>
                  <path fill="none" stroke="white" stroke-width="1.5" d="M0,-3.0v7 M-2.5,-0.5L0,-3.0L2.5,-0.5"/>
                </g>
                <g id="arrowRight" xlink:href="#dirArrow" transform="rotate(90) translate(36 -43)" onmousedown="handlePan(1,0)">
                  <use xlink:href="#rim" fill="#404040">
                        <set attributeName="fill" to="#808080" begin="arrowRight.mouseover" end="arrowRight.mouseout"/>
                  </use>
                  <path fill="none" stroke="white" stroke-width="1.5" d="M0,-3.0v7 M-2.5,-0.5L0,-3.0L2.5,-0.5"/>
                </g>
                <g id="arrowDown" xlink:href="#dirArrow" transform="rotate(180) translate(-30 -48)" onmousedown="handlePan(0,1)">
                  <use xlink:href="#rim" fill="#404040">
                        <set attributeName="fill" to="#808080" begin="arrowDown.mouseover" end="arrowDown.mouseout"/>
                  </use>
                  <path fill="none" stroke="white" stroke-width="1.5" d="M0,-3.0v7 M-2.5,-0.5L0,-3.0L2.5,-0.5"/>
                </g>
                <g id="arrowLeft" xlink:href="#dirArrow" transform="rotate(270) translate(-36 17)" onmousedown="handlePan(-1,0)">
                  <use xlink:href="#rim" fill="#404040">
                        <set attributeName="fill" to="#808080" begin="arrowLeft.mouseover" end="arrowLeft.mouseout"/>
                  </use>
                  <path fill="none" stroke="white" stroke-width="1.5" d="M0,-3.0v7 M-2.5,-0.5L0,-3.0L2.5,-0.5"/>
                </g>
        </g>
</svg>
