<?xml version="1.0" encoding="UTF-8" standalone="no"?>
<!DOCTYPE svg PUBLIC "-//W3C//DTD SVG 1.1//EN"
 "http://www.w3.org/Graphics/SVG/1.1/DTD/svg11.dtd">
<!-- Generated by graphviz version 2.28.0 (20111211.2114)
 -->
<!-- Title: G Pages: 1 -->
<!--zoomable-->
<svg id="main" version="1.1" xmlns="http://www.w3.org/2000/svg" xmlns:xlink="http://www.w3.org/1999/xlink" xml:space="preserve" onload="init(evt)">
        <defs>
                <circle id="rim" cx="0" cy="0" r="7"/>
                <circle id="rim2" cx="0" cy="0" r="3.5"/>
                <g id="zoomPlus">
                        <use xlink:href="#rim" fill="#404040">
                                <set attributeName="fill" to="#808080" begin="zoomplus.mouseover" end="zoomplus.mouseout"/>
                        </use>
                        <path d="M-4,0h8M0,-4v8" fill="none" stroke="white" stroke-width="1.5" pointer-events="none"/>
                </g>
                <g id="zoomMin">
                        <use xlink:href="#rim" fill="#404040">
                                <set attributeName="fill" to="#808080" begin="zoomminus.mouseover" end="zoomminus.mouseout"/>
                        </use>
                        <path d="M-4,0h8" fill="none" stroke="white" stroke-width="1.5" pointer-events="none"/>
                </g>
                <g id="dirArrow">
                        <path fill="none" stroke="white" stroke-width="1.5" d="M0,-3.0v7 M-2.5,-0.5L0,-3.0L2.5,-0.5"/>
                </g>
               <g id="resetDef">
                       <use xlink:href="#rim2" fill="#404040">
                               <set attributeName="fill" to="#808080" begin="reset.mouseover" end="reset.mouseout"/>
                       </use>
               </g>
        </defs>

<script type="text/javascript">
var viewWidth = 703;
var viewHeight = 140;
var sectionId = 'dynsection-0';
</script>
<script xlink:href="svgpan.js"/>
<svg id="graph" class="graph">
<g id="viewport">
<title>G</title>
<!-- Node1 -->
<g id="node1" class="node"><title>Node1</title>
<polygon fill="#bfbfbf" stroke="black" points="198.395,-112.5 198.395,-131.5 516.395,-131.5 516.395,-112.5 198.395,-112.5"/>
<text text-anchor="middle" x="357.395" y="-119.5" font-family="Helvetica,sans-Serif" font-size="10.00">/home/pjm3/freeradius&#45;server/src/modules/rlm_mschap/smbencrypt.c</text>
</g>
<!-- Node2 -->
<g id="node3" class="node"><title>Node2</title>
<polygon fill="none" stroke="#bfbfbf" points="266.395,-0.5 266.395,-19.5 384.395,-19.5 384.395,-0.5 266.395,-0.5"/>
<text text-anchor="middle" x="325.395" y="-7.5" font-family="Helvetica,sans-Serif" font-size="10.00">freeradius&#45;devel/ident.h</text>
</g>
<!-- Node1&#45;&gt;Node2 -->
<g id="edge2" class="edge"><title>Node1&#45;&gt;Node2</title>
<path fill="none" stroke="midnightblue" d="M224.683,-112.474C130.863,-105.054 19.2219,-92.8365 4.39548,-76 -1.47908,-69.329 -1.43732,-62.7075 4.39548,-56 36.3311,-19.2751 171.653,-11.634 256.074,-10.5408"/>
<polygon fill="midnightblue" stroke="midnightblue" points="256.143,-14.0404 266.107,-10.4384 256.072,-7.04072 256.143,-14.0404"/>
</g>
<!-- Node3 -->
<g id="node5" class="node"><title>Node3</title>
<polygon fill="none" stroke="#bfbfbf" points="13.8955,-56.5 13.8955,-75.5 146.895,-75.5 146.895,-56.5 13.8955,-56.5"/>
<text text-anchor="middle" x="80.3955" y="-63.5" font-family="Helvetica,sans-Serif" font-size="10.00">freeradius&#45;devel/libradius.h</text>
</g>
<!-- Node1&#45;&gt;Node3 -->
<g id="edge4" class="edge"><title>Node1&#45;&gt;Node3</title>
<path fill="none" stroke="midnightblue" d="M313.504,-112.444C264.878,-102.964 186.449,-87.6747 134.172,-77.4835"/>
<polygon fill="midnightblue" stroke="midnightblue" points="134.567,-73.9946 124.082,-75.5164 133.227,-80.8653 134.567,-73.9946"/>
</g>
<!-- Node4 -->
<g id="node7" class="node"><title>Node4</title>
<polygon fill="none" stroke="#bfbfbf" points="165.395,-56.5 165.395,-75.5 281.395,-75.5 281.395,-56.5 165.395,-56.5"/>
<text text-anchor="middle" x="223.395" y="-63.5" font-family="Helvetica,sans-Serif" font-size="10.00">freeradius&#45;devel/md4.h</text>
</g>
<!-- Node1&#45;&gt;Node4 -->
<g id="edge6" class="edge"><title>Node1&#45;&gt;Node4</title>
<path fill="none" stroke="midnightblue" d="M336.163,-112.444C314.012,-103.517 279.077,-89.4387 253.959,-79.3168"/>
<polygon fill="midnightblue" stroke="midnightblue" points="255.112,-76.0079 244.529,-75.5164 252.496,-82.5006 255.112,-76.0079"/>
</g>
<!-- Node5 -->
<g id="node9" class="node"><title>Node5</title>
<polygon fill="none" stroke="#bfbfbf" points="299.395,-56.5 299.395,-75.5 415.395,-75.5 415.395,-56.5 299.395,-56.5"/>
<text text-anchor="middle" x="357.395" y="-63.5" font-family="Helvetica,sans-Serif" font-size="10.00">freeradius&#45;devel/md5.h</text>
</g>
<!-- Node1&#45;&gt;Node5 -->
<g id="edge8" class="edge"><title>Node1&#45;&gt;Node5</title>
<path fill="none" stroke="midnightblue" d="M357.395,-112.083C357.395,-105.006 357.395,-94.8611 357.395,-85.9865"/>
<polygon fill="midnightblue" stroke="midnightblue" points="360.896,-85.751 357.395,-75.7511 353.896,-85.7511 360.896,-85.751"/>
</g>
<!-- Node6 -->
<g id="node11" class="node"><title>Node6</title>
<polygon fill="none" stroke="#bfbfbf" points="433.395,-56.5 433.395,-75.5 551.395,-75.5 551.395,-56.5 433.395,-56.5"/>
<text text-anchor="middle" x="492.395" y="-63.5" font-family="Helvetica,sans-Serif" font-size="10.00">freeradius&#45;devel/sha1.h</text>
</g>
<!-- Node1&#45;&gt;Node6 -->
<g id="edge10" class="edge"><title>Node1&#45;&gt;Node6</title>
<path fill="none" stroke="midnightblue" d="M378.787,-112.444C401.103,-103.517 436.299,-89.4387 461.603,-79.3168"/>
<polygon fill="midnightblue" stroke="midnightblue" points="463.12,-82.4801 471.104,-75.5164 460.52,-75.9807 463.12,-82.4801"/>
</g>
<!-- Node7 -->
<g id="node13" class="node"><title>Node7</title>
<polygon fill="none" stroke="#bfbfbf" points="569.895,-56.5 569.895,-75.5 618.895,-75.5 618.895,-56.5 569.895,-56.5"/>
<text text-anchor="middle" x="594.395" y="-63.5" font-family="Helvetica,sans-Serif" font-size="10.00">ctype.h</text>
</g>
<!-- Node1&#45;&gt;Node7 -->
<g id="edge12" class="edge"><title>Node1&#45;&gt;Node7</title>
<path fill="none" stroke="midnightblue" d="M398.335,-112.435C437.328,-104.164 497.904,-91.0203 559.629,-76.1108"/>
<polygon fill="midnightblue" stroke="midnightblue" points="560.651,-79.4645 569.543,-73.7033 558.999,-72.6622 560.651,-79.4645"/>
</g>
<!-- Node8 -->
<g id="node15" class="node"><title>Node8</title>
<a xlink:href="smbdes_8h.html" target="_top" xlink:title="smbdes.h">
<polygon fill="none" stroke="black" points="636.895,-56.5 636.895,-75.5 695.895,-75.5 695.895,-56.5 636.895,-56.5"/>
<text text-anchor="middle" x="666.395" y="-63.5" font-family="Helvetica,sans-Serif" font-size="10.00">smbdes.h</text>
</a>
</g>
<!-- Node1&#45;&gt;Node8 -->
<g id="edge14" class="edge"><title>Node1&#45;&gt;Node8</title>
<path fill="none" stroke="midnightblue" d="M414.731,-112.494C467.268,-104.462 547.424,-91.6127 626.489,-76.0769"/>
<polygon fill="midnightblue" stroke="midnightblue" points="627.496,-79.4455 636.626,-74.0689 626.136,-72.5789 627.496,-79.4455"/>
</g>
<!-- Node8&#45;&gt;Node2 -->
<g id="edge16" class="edge"><title>Node8&#45;&gt;Node2</title>
<path fill="none" stroke="midnightblue" d="M636.636,-57.8779C633.523,-57.2091 630.399,-56.5695 627.395,-56 547.966,-40.9415 455.993,-27.8541 394.612,-19.7337"/>
<polygon fill="midnightblue" stroke="midnightblue" points="395.024,-16.2577 384.653,-18.4242 394.111,-23.198 395.024,-16.2577"/>
</g>
</g>
</svg>
        <g id="navigator" transform="translate(0 0)" fill="#404254">
                <rect fill="#f2f5e9" fill-opacity="0.5" stroke="#606060" stroke-width=".5" x="0" y="0" width="60" height="60"/>
                <use id="zoomplus" xlink:href="#zoomPlus" x="17" y="9" onmousedown="handleZoom(evt,'in')"/>
                <use id="zoomminus" xlink:href="#zoomMin" x="42" y="9" onmousedown="handleZoom(evt,'out')"/>
                <use id="reset" xlink:href="#resetDef" x="30" y="36" onmousedown="handleReset()"/>
                <g id="arrowUp" xlink:href="#dirArrow" transform="translate(30 24)" onmousedown="handlePan(0,-1)">
                  <use xlink:href="#rim" fill="#404040">
                        <set attributeName="fill" to="#808080" begin="arrowUp.mouseover" end="arrowUp.mouseout"/>
                  </use>
                  <path fill="none" stroke="white" stroke-width="1.5" d="M0,-3.0v7 M-2.5,-0.5L0,-3.0L2.5,-0.5"/>
                </g>
                <g id="arrowRight" xlink:href="#dirArrow" transform="rotate(90) translate(36 -43)" onmousedown="handlePan(1,0)">
                  <use xlink:href="#rim" fill="#404040">
                        <set attributeName="fill" to="#808080" begin="arrowRight.mouseover" end="arrowRight.mouseout"/>
                  </use>
                  <path fill="none" stroke="white" stroke-width="1.5" d="M0,-3.0v7 M-2.5,-0.5L0,-3.0L2.5,-0.5"/>
                </g>
                <g id="arrowDown" xlink:href="#dirArrow" transform="rotate(180) translate(-30 -48)" onmousedown="handlePan(0,1)">
                  <use xlink:href="#rim" fill="#404040">
                        <set attributeName="fill" to="#808080" begin="arrowDown.mouseover" end="arrowDown.mouseout"/>
                  </use>
                  <path fill="none" stroke="white" stroke-width="1.5" d="M0,-3.0v7 M-2.5,-0.5L0,-3.0L2.5,-0.5"/>
                </g>
                <g id="arrowLeft" xlink:href="#dirArrow" transform="rotate(270) translate(-36 17)" onmousedown="handlePan(-1,0)">
                  <use xlink:href="#rim" fill="#404040">
                        <set attributeName="fill" to="#808080" begin="arrowLeft.mouseover" end="arrowLeft.mouseout"/>
                  </use>
                  <path fill="none" stroke="white" stroke-width="1.5" d="M0,-3.0v7 M-2.5,-0.5L0,-3.0L2.5,-0.5"/>
                </g>
        </g>
</svg>
