<?xml version="1.0" encoding="UTF-8" standalone="no"?>
<!DOCTYPE svg PUBLIC "-//W3C//DTD SVG 1.1//EN"
 "http://www.w3.org/Graphics/SVG/1.1/DTD/svg11.dtd">
<!-- Generated by graphviz version 2.28.0 (20111211.2114)
 -->
<!-- Title: G Pages: 1 -->
<!--zoomable-->
<svg id="main" version="1.1" xmlns="http://www.w3.org/2000/svg" xmlns:xlink="http://www.w3.org/1999/xlink" xml:space="preserve" onload="init(evt)">
        <defs>
                <circle id="rim" cx="0" cy="0" r="7"/>
                <circle id="rim2" cx="0" cy="0" r="3.5"/>
                <g id="zoomPlus">
                        <use xlink:href="#rim" fill="#404040">
                                <set attributeName="fill" to="#808080" begin="zoomplus.mouseover" end="zoomplus.mouseout"/>
                        </use>
                        <path d="M-4,0h8M0,-4v8" fill="none" stroke="white" stroke-width="1.5" pointer-events="none"/>
                </g>
                <g id="zoomMin">
                        <use xlink:href="#rim" fill="#404040">
                                <set attributeName="fill" to="#808080" begin="zoomminus.mouseover" end="zoomminus.mouseout"/>
                        </use>
                        <path d="M-4,0h8" fill="none" stroke="white" stroke-width="1.5" pointer-events="none"/>
                </g>
                <g id="dirArrow">
                        <path fill="none" stroke="white" stroke-width="1.5" d="M0,-3.0v7 M-2.5,-0.5L0,-3.0L2.5,-0.5"/>
                </g>
               <g id="resetDef">
                       <use xlink:href="#rim2" fill="#404040">
                               <set attributeName="fill" to="#808080" begin="reset.mouseover" end="reset.mouseout"/>
                       </use>
               </g>
        </defs>

<script type="text/javascript">
var viewWidth = 1345;
var viewHeight = 252;
var sectionId = 'dynsection-0';
</script>
<script xlink:href="svgpan.js"/>
<svg id="graph" class="graph">
<g id="viewport">
<title>G</title>
<!-- Node1 -->
<g id="node1" class="node"><title>Node1</title>
<polygon fill="#bfbfbf" stroke="black" points="847.665,-224.5 847.665,-243.5 1226.67,-243.5 1226.67,-224.5 847.665,-224.5"/>
<text text-anchor="middle" x="1037.17" y="-231.5" font-family="Helvetica,sans-Serif" font-size="10.00">/home/pjm3/freeradius&#45;server/src/modules/rlm_eap/types/rlm_eap_tls/rlm_eap_tls.h</text>
</g>
<!-- Node2 -->
<g id="node3" class="node"><title>Node2</title>
<polygon fill="none" stroke="#bfbfbf" points="755.165,-0.5 755.165,-19.5 873.165,-19.5 873.165,-0.5 755.165,-0.5"/>
<text text-anchor="middle" x="814.165" y="-7.5" font-family="Helvetica,sans-Serif" font-size="10.00">freeradius&#45;devel/ident.h</text>
</g>
<!-- Node1&#45;&gt;Node2 -->
<g id="edge2" class="edge"><title>Node1&#45;&gt;Node2</title>
<path fill="none" stroke="midnightblue" d="M847.588,-227.836C566.474,-218.196 66.1393,-192.651 11.1652,-132 -89.6177,-20.8088 532.536,-10.8721 744.941,-10.6788"/>
<polygon fill="midnightblue" stroke="midnightblue" points="745.043,-14.1788 755.043,-10.6767 745.042,-7.17883 745.043,-14.1788"/>
</g>
<!-- Node3 -->
<g id="node5" class="node"><title>Node3</title>
<polygon fill="none" stroke="#bfbfbf" points="1098.17,-0.5 1098.17,-19.5 1226.17,-19.5 1226.17,-0.5 1098.17,-0.5"/>
<text text-anchor="middle" x="1162.17" y="-7.5" font-family="Helvetica,sans-Serif" font-size="10.00">freeradius&#45;devel/radiusd.h</text>
</g>
<!-- Node1&#45;&gt;Node3 -->
<g id="edge4" class="edge"><title>Node1&#45;&gt;Node3</title>
<path fill="none" stroke="midnightblue" d="M1164.06,-224.489C1223.83,-218.046 1286.86,-206.933 1309.17,-188 1335.71,-165.468 1344.84,-142.564 1328.17,-112 1302.19,-64.3966 1243.39,-36.753 1203.22,-22.772"/>
<polygon fill="midnightblue" stroke="midnightblue" points="1204.29,-19.4385 1193.7,-19.5888 1202.07,-26.0777 1204.29,-19.4385"/>
</g>
<!-- Node4 -->
<g id="node7" class="node"><title>Node4</title>
<polygon fill="none" stroke="#bfbfbf" points="946.165,-0.5 946.165,-19.5 1080.17,-19.5 1080.17,-0.5 946.165,-0.5"/>
<text text-anchor="middle" x="1013.17" y="-7.5" font-family="Helvetica,sans-Serif" font-size="10.00">freeradius&#45;devel/modules.h</text>
</g>
<!-- Node1&#45;&gt;Node4 -->
<g id="edge6" class="edge"><title>Node1&#45;&gt;Node4</title>
<path fill="none" stroke="midnightblue" d="M1133.33,-224.466C1230.28,-211.849 1359.01,-181.673 1309.17,-112 1280.59,-72.061 1144.63,-38.1388 1067.29,-21.6695"/>
<polygon fill="midnightblue" stroke="midnightblue" points="1067.75,-18.1895 1057.24,-19.5577 1066.31,-25.0399 1067.75,-18.1895"/>
</g>
<!-- Node5 -->
<g id="node9" class="node"><title>Node5</title>
<a xlink:href="eap__tls_8h.html" target="_top" xlink:title="eap_tls.h">
<polygon fill="none" stroke="black" points="718.165,-168.5 718.165,-187.5 774.165,-187.5 774.165,-168.5 718.165,-168.5"/>
<text text-anchor="middle" x="746.165" y="-175.5" font-family="Helvetica,sans-Serif" font-size="10.00">eap_tls.h</text>
</a>
</g>
<!-- Node1&#45;&gt;Node5 -->
<g id="edge8" class="edge"><title>Node1&#45;&gt;Node5</title>
<path fill="none" stroke="midnightblue" d="M991.055,-224.444C933.962,-213.849 837.759,-195.997 784.513,-186.116"/>
<polygon fill="midnightblue" stroke="midnightblue" points="784.931,-182.634 774.46,-184.251 783.654,-189.517 784.931,-182.634"/>
</g>
<!-- Node5&#45;&gt;Node2 -->
<g id="edge10" class="edge"><title>Node5&#45;&gt;Node2</title>
<path fill="none" stroke="midnightblue" d="M774.223,-173.4C816.598,-167.322 893.739,-153.54 910.165,-132 915.555,-124.932 915.554,-119.069 910.165,-112 873.561,-63.9796 815.769,-124.02 779.165,-76 767.234,-60.3473 782.21,-40.0847 796.106,-26.3749"/>
<polygon fill="midnightblue" stroke="midnightblue" points="798.572,-28.8624 803.538,-19.5034 793.819,-23.7229 798.572,-28.8624"/>
</g>
<!-- Node5&#45;&gt;Node3 -->
<g id="edge40" class="edge"><title>Node5&#45;&gt;Node3</title>
<path fill="none" stroke="midnightblue" d="M774.411,-175.39C843.771,-171.079 1020.64,-157.806 1073.17,-132 1116.33,-110.792 1143.5,-57.3366 1155.31,-29.1079"/>
<polygon fill="midnightblue" stroke="midnightblue" points="1158.63,-30.229 1159.09,-19.644 1152.13,-27.6342 1158.63,-30.229"/>
</g>
<!-- Node6 -->
<g id="node12" class="node"><title>Node6</title>
<polygon fill="none" stroke="#bfbfbf" points="1018.17,-112.5 1018.17,-131.5 1064.17,-131.5 1064.17,-112.5 1018.17,-112.5"/>
<text text-anchor="middle" x="1041.17" y="-119.5" font-family="Helvetica,sans-Serif" font-size="10.00">stdio.h</text>
</g>
<!-- Node5&#45;&gt;Node6 -->
<g id="edge12" class="edge"><title>Node5&#45;&gt;Node6</title>
<path fill="none" stroke="midnightblue" d="M774.256,-173.082C822.405,-166.164 923.681,-150.73 1008.17,-132 1008.27,-131.978 1008.37,-131.955 1008.47,-131.932"/>
<polygon fill="midnightblue" stroke="midnightblue" points="1009.27,-135.341 1018.16,-129.578 1007.61,-128.539 1009.27,-135.341"/>
</g>
<!-- Node7 -->
<g id="node14" class="node"><title>Node7</title>
<polygon fill="none" stroke="#bfbfbf" points="1120.17,-112.5 1120.17,-131.5 1168.17,-131.5 1168.17,-112.5 1120.17,-112.5"/>
<text text-anchor="middle" x="1144.17" y="-119.5" font-family="Helvetica,sans-Serif" font-size="10.00">stdlib.h</text>
</g>
<!-- Node5&#45;&gt;Node7 -->
<g id="edge14" class="edge"><title>Node5&#45;&gt;Node7</title>
<path fill="none" stroke="midnightblue" d="M774.329,-174.526C835.198,-168.95 983.433,-154.138 1106.17,-132 1107.44,-131.77 1108.74,-131.524 1110.05,-131.266"/>
<polygon fill="midnightblue" stroke="midnightblue" points="1111.08,-134.624 1120.12,-129.108 1109.61,-127.779 1111.08,-134.624"/>
</g>
<!-- Node8 -->
<g id="node16" class="node"><title>Node8</title>
<polygon fill="none" stroke="#bfbfbf" points="1186.67,-112.5 1186.67,-131.5 1235.67,-131.5 1235.67,-112.5 1186.67,-112.5"/>
<text text-anchor="middle" x="1211.17" y="-119.5" font-family="Helvetica,sans-Serif" font-size="10.00">string.h</text>
</g>
<!-- Node5&#45;&gt;Node8 -->
<g id="edge16" class="edge"><title>Node5&#45;&gt;Node8</title>
<path fill="none" stroke="midnightblue" d="M774.365,-175.569C842.085,-171.813 1019.29,-160.081 1176.53,-131.83"/>
<polygon fill="midnightblue" stroke="midnightblue" points="1177.17,-135.272 1186.38,-130.034 1175.92,-128.385 1177.17,-135.272"/>
</g>
<!-- Node9 -->
<g id="node18" class="node"><title>Node9</title>
<polygon fill="none" stroke="#bfbfbf" points="1253.67,-112.5 1253.67,-131.5 1300.67,-131.5 1300.67,-112.5 1253.67,-112.5"/>
<text text-anchor="middle" x="1277.17" y="-119.5" font-family="Helvetica,sans-Serif" font-size="10.00">errno.h</text>
</g>
<!-- Node5&#45;&gt;Node9 -->
<g id="edge18" class="edge"><title>Node5&#45;&gt;Node9</title>
<path fill="none" stroke="midnightblue" d="M774.202,-176.195C848.998,-173.683 1059.52,-164.229 1243.63,-131.759"/>
<polygon fill="midnightblue" stroke="midnightblue" points="1244.26,-135.202 1253.49,-129.994 1243.03,-128.312 1244.26,-135.202"/>
</g>
<!-- Node10 -->
<g id="node20" class="node"><title>Node10</title>
<polygon fill="none" stroke="#bfbfbf" points="20.1652,-112.5 20.1652,-131.5 88.1652,-131.5 88.1652,-112.5 20.1652,-112.5"/>
<text text-anchor="middle" x="54.1652" y="-119.5" font-family="Helvetica,sans-Serif" font-size="10.00">sys/types.h</text>
</g>
<!-- Node5&#45;&gt;Node10 -->
<g id="edge20" class="edge"><title>Node5&#45;&gt;Node10</title>
<path fill="none" stroke="midnightblue" d="M717.874,-176.422C628.426,-174.303 343.668,-165.329 98.5291,-131.998"/>
<polygon fill="midnightblue" stroke="midnightblue" points="98.7426,-128.495 88.3587,-130.598 97.7879,-135.429 98.7426,-128.495"/>
</g>
<!-- Node11 -->
<g id="node22" class="node"><title>Node11</title>
<polygon fill="none" stroke="#bfbfbf" points="106.665,-112.5 106.665,-131.5 179.665,-131.5 179.665,-112.5 106.665,-112.5"/>
<text text-anchor="middle" x="143.165" y="-119.5" font-family="Helvetica,sans-Serif" font-size="10.00">sys/socket.h</text>
</g>
<!-- Node5&#45;&gt;Node11 -->
<g id="edge22" class="edge"><title>Node5&#45;&gt;Node11</title>
<path fill="none" stroke="midnightblue" d="M717.876,-175.889C637.03,-172.466 397.93,-160.621 190.126,-132.133"/>
<polygon fill="midnightblue" stroke="midnightblue" points="190.329,-128.627 179.942,-130.72 189.366,-135.561 190.329,-128.627"/>
</g>
<!-- Node12 -->
<g id="node24" class="node"><title>Node12</title>
<polygon fill="none" stroke="#bfbfbf" points="197.665,-112.5 197.665,-131.5 262.665,-131.5 262.665,-112.5 197.665,-112.5"/>
<text text-anchor="middle" x="230.165" y="-119.5" font-family="Helvetica,sans-Serif" font-size="10.00">netinet/in.h</text>
</g>
<!-- Node5&#45;&gt;Node12 -->
<g id="edge24" class="edge"><title>Node5&#45;&gt;Node12</title>
<path fill="none" stroke="midnightblue" d="M717.908,-175.526C645.501,-171.493 447.29,-158.851 272.899,-132.106"/>
<polygon fill="midnightblue" stroke="midnightblue" points="273.19,-128.609 262.771,-130.532 272.115,-135.526 273.19,-128.609"/>
</g>
<!-- Node13 -->
<g id="node26" class="node"><title>Node13</title>
<polygon fill="none" stroke="#bfbfbf" points="280.665,-112.5 280.665,-131.5 351.665,-131.5 351.665,-112.5 280.665,-112.5"/>
<text text-anchor="middle" x="316.165" y="-119.5" font-family="Helvetica,sans-Serif" font-size="10.00">netinet/tcp.h</text>
</g>
<!-- Node5&#45;&gt;Node13 -->
<g id="edge26" class="edge"><title>Node5&#45;&gt;Node13</title>
<path fill="none" stroke="midnightblue" d="M718.04,-174.501C655.805,-168.802 501.56,-153.755 362.001,-132.012"/>
<polygon fill="midnightblue" stroke="midnightblue" points="362.402,-128.532 351.98,-130.435 361.314,-135.447 362.402,-128.532"/>
</g>
<!-- Node14 -->
<g id="node28" class="node"><title>Node14</title>
<polygon fill="none" stroke="#bfbfbf" points="369.665,-112.5 369.665,-131.5 418.665,-131.5 418.665,-112.5 369.665,-112.5"/>
<text text-anchor="middle" x="394.165" y="-119.5" font-family="Helvetica,sans-Serif" font-size="10.00">netdb.h</text>
</g>
<!-- Node5&#45;&gt;Node14 -->
<g id="edge28" class="edge"><title>Node5&#45;&gt;Node14</title>
<path fill="none" stroke="midnightblue" d="M717.899,-174.136C663.72,-168.402 541.377,-154.286 428.786,-131.906"/>
<polygon fill="midnightblue" stroke="midnightblue" points="429.462,-128.472 418.968,-129.928 428.08,-135.334 429.462,-128.472"/>
</g>
<!-- Node15 -->
<g id="node30" class="node"><title>Node15</title>
<polygon fill="none" stroke="#bfbfbf" points="437.165,-112.5 437.165,-131.5 481.165,-131.5 481.165,-112.5 437.165,-112.5"/>
<text text-anchor="middle" x="459.165" y="-119.5" font-family="Helvetica,sans-Serif" font-size="10.00">fcntl.h</text>
</g>
<!-- Node5&#45;&gt;Node15 -->
<g id="edge30" class="edge"><title>Node5&#45;&gt;Node15</title>
<path fill="none" stroke="midnightblue" d="M717.931,-173.062C672.256,-166.471 579.186,-152.132 491.299,-132.062"/>
<polygon fill="midnightblue" stroke="midnightblue" points="491.972,-128.625 481.44,-129.781 490.394,-135.445 491.972,-128.625"/>
</g>
<!-- Node16 -->
<g id="node32" class="node"><title>Node16</title>
<polygon fill="none" stroke="#bfbfbf" points="499.165,-112.5 499.165,-131.5 549.165,-131.5 549.165,-112.5 499.165,-112.5"/>
<text text-anchor="middle" x="524.165" y="-119.5" font-family="Helvetica,sans-Serif" font-size="10.00">signal.h</text>
</g>
<!-- Node5&#45;&gt;Node16 -->
<g id="edge32" class="edge"><title>Node5&#45;&gt;Node16</title>
<path fill="none" stroke="midnightblue" d="M717.936,-170.351C681.294,-161.688 615.385,-145.992 559.165,-132 559.066,-131.975 558.967,-131.951 558.868,-131.926"/>
<polygon fill="midnightblue" stroke="midnightblue" points="559.941,-128.587 549.388,-129.536 558.229,-135.375 559.941,-128.587"/>
</g>
<!-- Node17 -->
<g id="node34" class="node"><title>Node17</title>
<polygon fill="none" stroke="#bfbfbf" points="567.665,-112.5 567.665,-131.5 616.665,-131.5 616.665,-112.5 567.665,-112.5"/>
<text text-anchor="middle" x="592.165" y="-119.5" font-family="Helvetica,sans-Serif" font-size="10.00">ctype.h</text>
</g>
<!-- Node5&#45;&gt;Node17 -->
<g id="edge34" class="edge"><title>Node5&#45;&gt;Node17</title>
<path fill="none" stroke="midnightblue" d="M721.763,-168.444C695.969,-159.399 655.089,-145.064 626.147,-134.916"/>
<polygon fill="midnightblue" stroke="midnightblue" points="627.048,-131.523 616.453,-131.516 624.731,-138.128 627.048,-131.523"/>
</g>
<!-- Node18 -->
<g id="node36" class="node"><title>Node18</title>
<polygon fill="none" stroke="#bfbfbf" points="635.165,-112.5 635.165,-131.5 697.165,-131.5 697.165,-112.5 635.165,-112.5"/>
<text text-anchor="middle" x="666.165" y="-119.5" font-family="Helvetica,sans-Serif" font-size="10.00">sys/time.h</text>
</g>
<!-- Node5&#45;&gt;Node18 -->
<g id="edge36" class="edge"><title>Node5&#45;&gt;Node18</title>
<path fill="none" stroke="midnightblue" d="M733.312,-168.324C720.949,-159.979 702.035,-147.212 687.428,-137.352"/>
<polygon fill="midnightblue" stroke="midnightblue" points="689.233,-134.348 678.987,-131.655 685.317,-140.15 689.233,-134.348"/>
</g>
<!-- Node19 -->
<g id="node38" class="node"><title>Node19</title>
<polygon fill="none" stroke="#bfbfbf" points="715.165,-112.5 715.165,-131.5 777.165,-131.5 777.165,-112.5 715.165,-112.5"/>
<text text-anchor="middle" x="746.165" y="-119.5" font-family="Helvetica,sans-Serif" font-size="10.00">arpa/inet.h</text>
</g>
<!-- Node5&#45;&gt;Node19 -->
<g id="edge38" class="edge"><title>Node5&#45;&gt;Node19</title>
<path fill="none" stroke="midnightblue" d="M746.165,-168.083C746.165,-161.006 746.165,-150.861 746.165,-141.986"/>
<polygon fill="midnightblue" stroke="midnightblue" points="749.665,-141.751 746.165,-131.751 742.665,-141.751 749.665,-141.751"/>
</g>
<!-- Node20 -->
<g id="node41" class="node"><title>Node20</title>
<polygon fill="none" stroke="#bfbfbf" points="794.665,-112.5 794.665,-131.5 901.665,-131.5 901.665,-112.5 794.665,-112.5"/>
<text text-anchor="middle" x="848.165" y="-119.5" font-family="Helvetica,sans-Serif" font-size="10.00">freeradius&#45;devel/tls.h</text>
</g>
<!-- Node5&#45;&gt;Node20 -->
<g id="edge42" class="edge"><title>Node5&#45;&gt;Node20</title>
<path fill="none" stroke="midnightblue" d="M762.553,-168.324C778.836,-159.703 804.033,-146.364 822.881,-136.386"/>
<polygon fill="midnightblue" stroke="midnightblue" points="824.618,-139.427 831.818,-131.655 821.342,-133.24 824.618,-139.427"/>
</g>
<!-- Node21 -->
<g id="node43" class="node"><title>Node21</title>
<a xlink:href="eap_8h.html" target="_top" xlink:title="eap.h">
<polygon fill="none" stroke="black" points="958.665,-112.5 958.665,-131.5 999.665,-131.5 999.665,-112.5 958.665,-112.5"/>
<text text-anchor="middle" x="979.165" y="-119.5" font-family="Helvetica,sans-Serif" font-size="10.00">eap.h</text>
</a>
</g>
<!-- Node5&#45;&gt;Node21 -->
<g id="edge44" class="edge"><title>Node5&#45;&gt;Node21</title>
<path fill="none" stroke="midnightblue" d="M774.422,-170.841C812.892,-162.396 883.865,-146.602 944.165,-132 945.613,-131.649 947.094,-131.286 948.589,-130.916"/>
<polygon fill="midnightblue" stroke="midnightblue" points="949.62,-134.266 958.461,-128.427 947.909,-127.478 949.62,-134.266"/>
</g>
<!-- Node21&#45;&gt;Node2 -->
<g id="edge46" class="edge"><title>Node21&#45;&gt;Node2</title>
<path fill="none" stroke="midnightblue" d="M976.089,-112.11C970.846,-98.2145 958.891,-71.3518 940.165,-56 920.203,-39.6352 893.83,-28.9986 870.372,-22.2006"/>
<polygon fill="midnightblue" stroke="midnightblue" points="871.093,-18.7695 860.525,-19.5167 869.253,-25.5232 871.093,-18.7695"/>
</g>
<!-- Node21&#45;&gt;Node3 -->
<g id="edge48" class="edge"><title>Node21&#45;&gt;Node3</title>
<path fill="none" stroke="midnightblue" d="M999.734,-114.285C1033.09,-103.302 1096.18,-82.1042 1105.17,-76 1123.9,-63.2655 1140.36,-42.9517 1150.71,-28.423"/>
<polygon fill="midnightblue" stroke="midnightblue" points="1153.82,-30.0744 1156.6,-19.8487 1148.05,-26.1136 1153.82,-30.0744"/>
</g>
<!-- Node21&#45;&gt;Node4 -->
<g id="edge50" class="edge"><title>Node21&#45;&gt;Node4</title>
<path fill="none" stroke="midnightblue" d="M981.833,-112.368C987.345,-94.5366 1000.09,-53.2953 1007.52,-29.2717"/>
<polygon fill="midnightblue" stroke="midnightblue" points="1010.9,-30.179 1010.51,-19.5914 1004.21,-28.1119 1010.9,-30.179"/>
</g>
<!-- Node22 -->
<g id="node48" class="node"><title>Node22</title>
<polygon fill="none" stroke="#bfbfbf" points="788.665,-56.5 788.665,-75.5 931.665,-75.5 931.665,-56.5 788.665,-56.5"/>
<text text-anchor="middle" x="860.165" y="-63.5" font-family="Helvetica,sans-Serif" font-size="10.00">freeradius&#45;devel/rad_assert.h</text>
</g>
<!-- Node21&#45;&gt;Node22 -->
<g id="edge52" class="edge"><title>Node21&#45;&gt;Node22</title>
<path fill="none" stroke="midnightblue" d="M960.309,-112.444C940.899,-103.636 910.435,-89.8116 888.201,-79.722"/>
<polygon fill="midnightblue" stroke="midnightblue" points="889.485,-76.4615 878.933,-75.5164 886.593,-82.836 889.485,-76.4615"/>
</g>
<!-- Node23 -->
<g id="node50" class="node"><title>Node23</title>
<a xlink:href="eap__types_8h.html" target="_top" xlink:title="eap_types.h">
<polygon fill="none" stroke="black" points="1026.17,-56.5 1026.17,-75.5 1096.17,-75.5 1096.17,-56.5 1026.17,-56.5"/>
<text text-anchor="middle" x="1061.17" y="-63.5" font-family="Helvetica,sans-Serif" font-size="10.00">eap_types.h</text>
</a>
</g>
<!-- Node21&#45;&gt;Node23 -->
<g id="edge54" class="edge"><title>Node21&#45;&gt;Node23</title>
<path fill="none" stroke="midnightblue" d="M992.34,-112.324C1005.01,-103.979 1024.4,-91.2122 1039.37,-81.3524"/>
<polygon fill="midnightblue" stroke="midnightblue" points="1041.6,-84.0776 1048.02,-75.6545 1037.75,-78.2313 1041.6,-84.0776"/>
</g>
<!-- Node23&#45;&gt;Node2 -->
<g id="edge56" class="edge"><title>Node23&#45;&gt;Node2</title>
<path fill="none" stroke="midnightblue" d="M1026.04,-57.3205C983.389,-47.9962 911.21,-32.2163 863.122,-21.7032"/>
<polygon fill="midnightblue" stroke="midnightblue" points="863.763,-18.2606 853.246,-19.544 862.268,-25.0991 863.763,-18.2606"/>
</g>
<!-- Node23&#45;&gt;Node3 -->
<g id="edge58" class="edge"><title>Node23&#45;&gt;Node3</title>
<path fill="none" stroke="midnightblue" d="M1077.39,-56.324C1093.52,-47.7034 1118.47,-34.3643 1137.13,-24.3855"/>
<polygon fill="midnightblue" stroke="midnightblue" points="1138.81,-27.456 1145.98,-19.6545 1135.51,-21.283 1138.81,-27.456"/>
</g>
<!-- Node23&#45;&gt;Node4 -->
<g id="edge60" class="edge"><title>Node23&#45;&gt;Node4</title>
<path fill="none" stroke="midnightblue" d="M1053.24,-56.083C1046.32,-48.2982 1036.1,-36.8015 1027.71,-27.3665"/>
<polygon fill="midnightblue" stroke="midnightblue" points="1030.2,-24.8999 1020.94,-19.7511 1024.97,-29.5505 1030.2,-24.8999"/>
</g>
</g>
</svg>
        <g id="navigator" transform="translate(0 0)" fill="#404254">
                <rect fill="#f2f5e9" fill-opacity="0.5" stroke="#606060" stroke-width=".5" x="0" y="0" width="60" height="60"/>
                <use id="zoomplus" xlink:href="#zoomPlus" x="17" y="9" onmousedown="handleZoom(evt,'in')"/>
                <use id="zoomminus" xlink:href="#zoomMin" x="42" y="9" onmousedown="handleZoom(evt,'out')"/>
                <use id="reset" xlink:href="#resetDef" x="30" y="36" onmousedown="handleReset()"/>
                <g id="arrowUp" xlink:href="#dirArrow" transform="translate(30 24)" onmousedown="handlePan(0,-1)">
                  <use xlink:href="#rim" fill="#404040">
                        <set attributeName="fill" to="#808080" begin="arrowUp.mouseover" end="arrowUp.mouseout"/>
                  </use>
                  <path fill="none" stroke="white" stroke-width="1.5" d="M0,-3.0v7 M-2.5,-0.5L0,-3.0L2.5,-0.5"/>
                </g>
                <g id="arrowRight" xlink:href="#dirArrow" transform="rotate(90) translate(36 -43)" onmousedown="handlePan(1,0)">
                  <use xlink:href="#rim" fill="#404040">
                        <set attributeName="fill" to="#808080" begin="arrowRight.mouseover" end="arrowRight.mouseout"/>
                  </use>
                  <path fill="none" stroke="white" stroke-width="1.5" d="M0,-3.0v7 M-2.5,-0.5L0,-3.0L2.5,-0.5"/>
                </g>
                <g id="arrowDown" xlink:href="#dirArrow" transform="rotate(180) translate(-30 -48)" onmousedown="handlePan(0,1)">
                  <use xlink:href="#rim" fill="#404040">
                        <set attributeName="fill" to="#808080" begin="arrowDown.mouseover" end="arrowDown.mouseout"/>
                  </use>
                  <path fill="none" stroke="white" stroke-width="1.5" d="M0,-3.0v7 M-2.5,-0.5L0,-3.0L2.5,-0.5"/>
                </g>
                <g id="arrowLeft" xlink:href="#dirArrow" transform="rotate(270) translate(-36 17)" onmousedown="handlePan(-1,0)">
                  <use xlink:href="#rim" fill="#404040">
                        <set attributeName="fill" to="#808080" begin="arrowLeft.mouseover" end="arrowLeft.mouseout"/>
                  </use>
                  <path fill="none" stroke="white" stroke-width="1.5" d="M0,-3.0v7 M-2.5,-0.5L0,-3.0L2.5,-0.5"/>
                </g>
        </g>
</svg>
