<?xml version="1.0" encoding="UTF-8" standalone="no"?>
<!DOCTYPE svg PUBLIC "-//W3C//DTD SVG 1.1//EN"
 "http://www.w3.org/Graphics/SVG/1.1/DTD/svg11.dtd">
<!-- Generated by graphviz version 2.28.0 (20111211.2114)
 -->
<!-- Title: G Pages: 1 -->
<!--zoomable-->
<svg id="main" version="1.1" xmlns="http://www.w3.org/2000/svg" xmlns:xlink="http://www.w3.org/1999/xlink" xml:space="preserve" onload="init(evt)">
        <defs>
                <circle id="rim" cx="0" cy="0" r="7"/>
                <circle id="rim2" cx="0" cy="0" r="3.5"/>
                <g id="zoomPlus">
                        <use xlink:href="#rim" fill="#404040">
                                <set attributeName="fill" to="#808080" begin="zoomplus.mouseover" end="zoomplus.mouseout"/>
                        </use>
                        <path d="M-4,0h8M0,-4v8" fill="none" stroke="white" stroke-width="1.5" pointer-events="none"/>
                </g>
                <g id="zoomMin">
                        <use xlink:href="#rim" fill="#404040">
                                <set attributeName="fill" to="#808080" begin="zoomminus.mouseover" end="zoomminus.mouseout"/>
                        </use>
                        <path d="M-4,0h8" fill="none" stroke="white" stroke-width="1.5" pointer-events="none"/>
                </g>
                <g id="dirArrow">
                        <path fill="none" stroke="white" stroke-width="1.5" d="M0,-3.0v7 M-2.5,-0.5L0,-3.0L2.5,-0.5"/>
                </g>
               <g id="resetDef">
                       <use xlink:href="#rim2" fill="#404040">
                               <set attributeName="fill" to="#808080" begin="reset.mouseover" end="reset.mouseout"/>
                       </use>
               </g>
        </defs>

<script type="text/javascript">
var viewWidth = 1683;
var viewHeight = 308;
var sectionId = 'dynsection-0';
</script>
<script xlink:href="svgpan.js"/>
<svg id="graph" class="graph">
<g id="viewport">
<title>G</title>
<!-- Node1 -->
<g id="node1" class="node"><title>Node1</title>
<polygon fill="#bfbfbf" stroke="black" points="1296.5,-280.5 1296.5,-299.5 1675.5,-299.5 1675.5,-280.5 1296.5,-280.5"/>
<text text-anchor="middle" x="1486" y="-287.5" font-family="Helvetica,sans-Serif" font-size="10.00">/home/pjm3/freeradius&#45;server/src/modules/rlm_eap/types/rlm_eap_tls/rlm_eap_tls.c</text>
</g>
<!-- Node2 -->
<g id="node3" class="node"><title>Node2</title>
<polygon fill="none" stroke="#bfbfbf" points="1266,-0.5 1266,-19.5 1384,-19.5 1384,-0.5 1266,-0.5"/>
<text text-anchor="middle" x="1325" y="-7.5" font-family="Helvetica,sans-Serif" font-size="10.00">freeradius&#45;devel/ident.h</text>
</g>
<!-- Node1&#45;&gt;Node2 -->
<g id="edge2" class="edge"><title>Node1&#45;&gt;Node2</title>
<path fill="none" stroke="midnightblue" d="M1479.46,-280.413C1466.55,-262.56 1439,-219.704 1439,-179 1439,-179 1439,-179 1439,-121 1439,-74.1149 1388.45,-40.8944 1354.67,-23.9302"/>
<polygon fill="midnightblue" stroke="midnightblue" points="1356.17,-20.7687 1345.64,-19.5787 1353.13,-27.0742 1356.17,-20.7687"/>
</g>
<!-- Node3 -->
<g id="node5" class="node"><title>Node3</title>
<polygon fill="none" stroke="#bfbfbf" points="1467,-224.5 1467,-243.5 1601,-243.5 1601,-224.5 1467,-224.5"/>
<text text-anchor="middle" x="1534" y="-231.5" font-family="Helvetica,sans-Serif" font-size="10.00">freeradius&#45;devel/autoconf.h</text>
</g>
<!-- Node1&#45;&gt;Node3 -->
<g id="edge4" class="edge"><title>Node1&#45;&gt;Node3</title>
<path fill="none" stroke="midnightblue" d="M1493.93,-280.083C1500.85,-272.298 1511.07,-260.801 1519.45,-251.367"/>
<polygon fill="midnightblue" stroke="midnightblue" points="1522.19,-253.55 1526.22,-243.751 1516.96,-248.9 1522.19,-253.55"/>
</g>
<!-- Node4 -->
<g id="node7" class="node"><title>Node4</title>
<a xlink:href="rlm__eap__tls_8h.html" target="_top" xlink:title="rlm_eap_tls.h">
<polygon fill="none" stroke="black" points="1325.5,-224.5 1325.5,-243.5 1400.5,-243.5 1400.5,-224.5 1325.5,-224.5"/>
<text text-anchor="middle" x="1363" y="-231.5" font-family="Helvetica,sans-Serif" font-size="10.00">rlm_eap_tls.h</text>
</a>
</g>
<!-- Node1&#45;&gt;Node4 -->
<g id="edge6" class="edge"><title>Node1&#45;&gt;Node4</title>
<path fill="none" stroke="midnightblue" d="M1466.51,-280.444C1446.36,-271.596 1414.68,-257.687 1391.67,-247.586"/>
<polygon fill="midnightblue" stroke="midnightblue" points="1392.96,-244.332 1382.4,-243.516 1390.15,-250.741 1392.96,-244.332"/>
</g>
<!-- Node26 -->
<g id="node60" class="node"><title>Node26</title>
<polygon fill="none" stroke="#bfbfbf" points="1619.5,-224.5 1619.5,-243.5 1670.5,-243.5 1670.5,-224.5 1619.5,-224.5"/>
<text text-anchor="middle" x="1645" y="-231.5" font-family="Helvetica,sans-Serif" font-size="10.00">config.h</text>
</g>
<!-- Node1&#45;&gt;Node26 -->
<g id="edge68" class="edge"><title>Node1&#45;&gt;Node26</title>
<path fill="none" stroke="midnightblue" d="M1511.19,-280.444C1537.94,-271.359 1580.4,-256.939 1610.31,-246.783"/>
<polygon fill="midnightblue" stroke="midnightblue" points="1611.58,-250.046 1619.92,-243.516 1609.33,-243.418 1611.58,-250.046"/>
</g>
<!-- Node4&#45;&gt;Node2 -->
<g id="edge8" class="edge"><title>Node4&#45;&gt;Node2</title>
<path fill="none" stroke="midnightblue" d="M1366.6,-224.222C1370.06,-215.285 1375.03,-200.942 1377,-188 1382.07,-154.606 1384.95,-144.828 1377,-112 1369.3,-80.2088 1349.75,-47.2162 1336.94,-27.9236"/>
<polygon fill="midnightblue" stroke="midnightblue" points="1339.8,-25.9062 1331.27,-19.6185 1334.01,-29.8516 1339.8,-25.9062"/>
</g>
<!-- Node5 -->
<g id="node10" class="node"><title>Node5</title>
<polygon fill="none" stroke="#bfbfbf" points="0,-0.5 0,-19.5 128,-19.5 128,-0.5 0,-0.5"/>
<text text-anchor="middle" x="64" y="-7.5" font-family="Helvetica,sans-Serif" font-size="10.00">freeradius&#45;devel/radiusd.h</text>
</g>
<!-- Node4&#45;&gt;Node5 -->
<g id="edge10" class="edge"><title>Node4&#45;&gt;Node5</title>
<path fill="none" stroke="midnightblue" d="M1325.3,-232.748C1122.01,-231.043 161.98,-218.431 66,-132 37.7329,-106.545 48.4489,-56.5722 57.1459,-29.4943"/>
<polygon fill="midnightblue" stroke="midnightblue" points="60.562,-30.3246 60.5185,-19.7299 53.9455,-28.0393 60.562,-30.3246"/>
</g>
<!-- Node6 -->
<g id="node12" class="node"><title>Node6</title>
<polygon fill="none" stroke="#bfbfbf" points="146,-0.5 146,-19.5 280,-19.5 280,-0.5 146,-0.5"/>
<text text-anchor="middle" x="213" y="-7.5" font-family="Helvetica,sans-Serif" font-size="10.00">freeradius&#45;devel/modules.h</text>
</g>
<!-- Node4&#45;&gt;Node6 -->
<g id="edge12" class="edge"><title>Node4&#45;&gt;Node6</title>
<path fill="none" stroke="midnightblue" d="M1361.79,-224.426C1358.07,-201.658 1344.58,-139.546 1305,-112 1222.04,-54.2635 525.395,-22.8185 290.203,-13.7727"/>
<polygon fill="midnightblue" stroke="midnightblue" points="290.15,-10.2682 280.023,-13.3842 289.883,-17.2632 290.15,-10.2682"/>
</g>
<!-- Node7 -->
<g id="node14" class="node"><title>Node7</title>
<a xlink:href="eap__tls_8h.html" target="_top" xlink:title="eap_tls.h">
<polygon fill="none" stroke="black" points="700,-168.5 700,-187.5 756,-187.5 756,-168.5 700,-168.5"/>
<text text-anchor="middle" x="728" y="-175.5" font-family="Helvetica,sans-Serif" font-size="10.00">eap_tls.h</text>
</a>
</g>
<!-- Node4&#45;&gt;Node7 -->
<g id="edge14" class="edge"><title>Node4&#45;&gt;Node7</title>
<path fill="none" stroke="midnightblue" d="M1325.18,-229.784C1212.53,-220.205 880.054,-191.931 766.513,-182.275"/>
<polygon fill="midnightblue" stroke="midnightblue" points="766.484,-178.76 756.224,-181.4 765.891,-185.735 766.484,-178.76"/>
</g>
<!-- Node7&#45;&gt;Node2 -->
<g id="edge16" class="edge"><title>Node7&#45;&gt;Node2</title>
<path fill="none" stroke="midnightblue" d="M756.23,-176.801C866.516,-175.756 1264.23,-169.404 1305,-132 1333.28,-106.053 1331.65,-56.6581 1328.21,-29.6978"/>
<polygon fill="midnightblue" stroke="midnightblue" points="1331.65,-29.0228 1326.71,-19.6508 1324.73,-30.0586 1331.65,-29.0228"/>
</g>
<!-- Node7&#45;&gt;Node5 -->
<g id="edge46" class="edge"><title>Node7&#45;&gt;Node5</title>
<path fill="none" stroke="midnightblue" d="M699.721,-177.058C581.26,-177.034 128.959,-174.163 83,-132 54.756,-106.089 56.8659,-56.679 60.5874,-29.7071"/>
<polygon fill="midnightblue" stroke="midnightblue" points="64.0717,-30.0831 62.1972,-19.6554 57.1598,-28.9761 64.0717,-30.0831"/>
</g>
<!-- Node8 -->
<g id="node17" class="node"><title>Node8</title>
<polygon fill="none" stroke="#bfbfbf" points="573,-112.5 573,-131.5 619,-131.5 619,-112.5 573,-112.5"/>
<text text-anchor="middle" x="596" y="-119.5" font-family="Helvetica,sans-Serif" font-size="10.00">stdio.h</text>
</g>
<!-- Node7&#45;&gt;Node8 -->
<g id="edge18" class="edge"><title>Node7&#45;&gt;Node8</title>
<path fill="none" stroke="midnightblue" d="M707.084,-168.444C685.264,-159.517 650.85,-145.439 626.108,-135.317"/>
<polygon fill="midnightblue" stroke="midnightblue" points="627.399,-132.063 616.818,-131.516 624.748,-138.542 627.399,-132.063"/>
</g>
<!-- Node9 -->
<g id="node19" class="node"><title>Node9</title>
<polygon fill="none" stroke="#bfbfbf" points="637,-112.5 637,-131.5 685,-131.5 685,-112.5 637,-112.5"/>
<text text-anchor="middle" x="661" y="-119.5" font-family="Helvetica,sans-Serif" font-size="10.00">stdlib.h</text>
</g>
<!-- Node7&#45;&gt;Node9 -->
<g id="edge20" class="edge"><title>Node7&#45;&gt;Node9</title>
<path fill="none" stroke="midnightblue" d="M717.235,-168.324C707.234,-160.263 692.113,-148.077 680.07,-138.369"/>
<polygon fill="midnightblue" stroke="midnightblue" points="681.943,-135.384 671.961,-131.834 677.55,-140.834 681.943,-135.384"/>
</g>
<!-- Node10 -->
<g id="node21" class="node"><title>Node10</title>
<polygon fill="none" stroke="#bfbfbf" points="703.5,-112.5 703.5,-131.5 752.5,-131.5 752.5,-112.5 703.5,-112.5"/>
<text text-anchor="middle" x="728" y="-119.5" font-family="Helvetica,sans-Serif" font-size="10.00">string.h</text>
</g>
<!-- Node7&#45;&gt;Node10 -->
<g id="edge22" class="edge"><title>Node7&#45;&gt;Node10</title>
<path fill="none" stroke="midnightblue" d="M728,-168.083C728,-161.006 728,-150.861 728,-141.986"/>
<polygon fill="midnightblue" stroke="midnightblue" points="731.5,-141.751 728,-131.751 724.5,-141.751 731.5,-141.751"/>
</g>
<!-- Node11 -->
<g id="node23" class="node"><title>Node11</title>
<polygon fill="none" stroke="#bfbfbf" points="770.5,-112.5 770.5,-131.5 817.5,-131.5 817.5,-112.5 770.5,-112.5"/>
<text text-anchor="middle" x="794" y="-119.5" font-family="Helvetica,sans-Serif" font-size="10.00">errno.h</text>
</g>
<!-- Node7&#45;&gt;Node11 -->
<g id="edge24" class="edge"><title>Node7&#45;&gt;Node11</title>
<path fill="none" stroke="midnightblue" d="M738.604,-168.324C748.456,-160.263 763.351,-148.077 775.215,-138.369"/>
<polygon fill="midnightblue" stroke="midnightblue" points="777.68,-140.875 783.203,-131.834 773.247,-135.457 777.68,-140.875"/>
</g>
<!-- Node12 -->
<g id="node25" class="node"><title>Node12</title>
<polygon fill="none" stroke="#bfbfbf" points="836,-112.5 836,-131.5 904,-131.5 904,-112.5 836,-112.5"/>
<text text-anchor="middle" x="870" y="-119.5" font-family="Helvetica,sans-Serif" font-size="10.00">sys/types.h</text>
</g>
<!-- Node7&#45;&gt;Node12 -->
<g id="edge26" class="edge"><title>Node7&#45;&gt;Node12</title>
<path fill="none" stroke="midnightblue" d="M750.5,-168.444C774.077,-159.478 811.322,-145.314 837.964,-135.183"/>
<polygon fill="midnightblue" stroke="midnightblue" points="839.502,-138.342 847.605,-131.516 837.014,-131.8 839.502,-138.342"/>
</g>
<!-- Node13 -->
<g id="node27" class="node"><title>Node13</title>
<polygon fill="none" stroke="#bfbfbf" points="922.5,-112.5 922.5,-131.5 995.5,-131.5 995.5,-112.5 922.5,-112.5"/>
<text text-anchor="middle" x="959" y="-119.5" font-family="Helvetica,sans-Serif" font-size="10.00">sys/socket.h</text>
</g>
<!-- Node7&#45;&gt;Node13 -->
<g id="edge28" class="edge"><title>Node7&#45;&gt;Node13</title>
<path fill="none" stroke="midnightblue" d="M756.325,-170.379C795.272,-161.274 865.838,-144.778 912.566,-133.855"/>
<polygon fill="midnightblue" stroke="midnightblue" points="913.504,-137.23 922.445,-131.545 911.911,-130.414 913.504,-137.23"/>
</g>
<!-- Node14 -->
<g id="node29" class="node"><title>Node14</title>
<polygon fill="none" stroke="#bfbfbf" points="1013.5,-112.5 1013.5,-131.5 1078.5,-131.5 1078.5,-112.5 1013.5,-112.5"/>
<text text-anchor="middle" x="1046" y="-119.5" font-family="Helvetica,sans-Serif" font-size="10.00">netinet/in.h</text>
</g>
<!-- Node7&#45;&gt;Node14 -->
<g id="edge30" class="edge"><title>Node7&#45;&gt;Node14</title>
<path fill="none" stroke="midnightblue" d="M756.291,-172.86C804.703,-165.673 906.757,-150.082 1003.52,-132.007"/>
<polygon fill="midnightblue" stroke="midnightblue" points="1004.29,-135.424 1013.47,-130.136 1003,-128.545 1004.29,-135.424"/>
</g>
<!-- Node15 -->
<g id="node31" class="node"><title>Node15</title>
<polygon fill="none" stroke="#bfbfbf" points="1096.5,-112.5 1096.5,-131.5 1167.5,-131.5 1167.5,-112.5 1096.5,-112.5"/>
<text text-anchor="middle" x="1132" y="-119.5" font-family="Helvetica,sans-Serif" font-size="10.00">netinet/tcp.h</text>
</g>
<!-- Node7&#45;&gt;Node15 -->
<g id="edge32" class="edge"><title>Node7&#45;&gt;Node15</title>
<path fill="none" stroke="midnightblue" d="M756.029,-174.188C815.079,-168.114 956.797,-152.75 1086.1,-132.037"/>
<polygon fill="midnightblue" stroke="midnightblue" points="1086.87,-135.459 1096.18,-130.408 1085.75,-128.549 1086.87,-135.459"/>
</g>
<!-- Node16 -->
<g id="node33" class="node"><title>Node16</title>
<polygon fill="none" stroke="#bfbfbf" points="1185.5,-112.5 1185.5,-131.5 1234.5,-131.5 1234.5,-112.5 1185.5,-112.5"/>
<text text-anchor="middle" x="1210" y="-119.5" font-family="Helvetica,sans-Serif" font-size="10.00">netdb.h</text>
</g>
<!-- Node7&#45;&gt;Node16 -->
<g id="edge34" class="edge"><title>Node7&#45;&gt;Node16</title>
<path fill="none" stroke="midnightblue" d="M756.001,-175.733C825.382,-172.268 1010.89,-161.006 1174.94,-131.898"/>
<polygon fill="midnightblue" stroke="midnightblue" points="1176,-135.264 1185.22,-130.046 1174.76,-128.375 1176,-135.264"/>
</g>
<!-- Node17 -->
<g id="node35" class="node"><title>Node17</title>
<polygon fill="none" stroke="#bfbfbf" points="1253,-112.5 1253,-131.5 1297,-131.5 1297,-112.5 1253,-112.5"/>
<text text-anchor="middle" x="1275" y="-119.5" font-family="Helvetica,sans-Serif" font-size="10.00">fcntl.h</text>
</g>
<!-- Node7&#45;&gt;Node17 -->
<g id="edge36" class="edge"><title>Node7&#45;&gt;Node17</title>
<path fill="none" stroke="midnightblue" d="M756.158,-176.385C832.821,-174.322 1051.7,-165.84 1242.8,-131.64"/>
<polygon fill="midnightblue" stroke="midnightblue" points="1243.53,-135.065 1252.75,-129.833 1242.28,-128.178 1243.53,-135.065"/>
</g>
<!-- Node18 -->
<g id="node37" class="node"><title>Node18</title>
<polygon fill="none" stroke="#bfbfbf" points="152,-112.5 152,-131.5 202,-131.5 202,-112.5 152,-112.5"/>
<text text-anchor="middle" x="177" y="-119.5" font-family="Helvetica,sans-Serif" font-size="10.00">signal.h</text>
</g>
<!-- Node7&#45;&gt;Node18 -->
<g id="edge38" class="edge"><title>Node7&#45;&gt;Node18</title>
<path fill="none" stroke="midnightblue" d="M699.826,-176.172C621.778,-173.528 396.365,-163.522 212,-132 211.9,-131.983 211.799,-131.965 211.698,-131.948"/>
<polygon fill="midnightblue" stroke="midnightblue" points="212.627,-128.566 202.128,-129.989 211.223,-135.423 212.627,-128.566"/>
</g>
<!-- Node19 -->
<g id="node39" class="node"><title>Node19</title>
<polygon fill="none" stroke="#bfbfbf" points="220.5,-112.5 220.5,-131.5 269.5,-131.5 269.5,-112.5 220.5,-112.5"/>
<text text-anchor="middle" x="245" y="-119.5" font-family="Helvetica,sans-Serif" font-size="10.00">ctype.h</text>
</g>
<!-- Node7&#45;&gt;Node19 -->
<g id="edge40" class="edge"><title>Node7&#45;&gt;Node19</title>
<path fill="none" stroke="midnightblue" d="M699.937,-175.739C630.4,-172.286 444.476,-161.05 280.077,-131.901"/>
<polygon fill="midnightblue" stroke="midnightblue" points="280.242,-128.374 269.78,-130.046 279.001,-135.264 280.242,-128.374"/>
</g>
<!-- Node20 -->
<g id="node41" class="node"><title>Node20</title>
<polygon fill="none" stroke="#bfbfbf" points="288,-112.5 288,-131.5 350,-131.5 350,-112.5 288,-112.5"/>
<text text-anchor="middle" x="319" y="-119.5" font-family="Helvetica,sans-Serif" font-size="10.00">sys/time.h</text>
</g>
<!-- Node7&#45;&gt;Node20 -->
<g id="edge42" class="edge"><title>Node7&#45;&gt;Node20</title>
<path fill="none" stroke="midnightblue" d="M699.62,-174.515C639.074,-169.005 492.615,-154.57 360.29,-132.077"/>
<polygon fill="midnightblue" stroke="midnightblue" points="360.832,-128.618 350.384,-130.373 359.646,-135.517 360.832,-128.618"/>
</g>
<!-- Node21 -->
<g id="node43" class="node"><title>Node21</title>
<polygon fill="none" stroke="#bfbfbf" points="368,-112.5 368,-131.5 430,-131.5 430,-112.5 368,-112.5"/>
<text text-anchor="middle" x="399" y="-119.5" font-family="Helvetica,sans-Serif" font-size="10.00">arpa/inet.h</text>
</g>
<!-- Node7&#45;&gt;Node21 -->
<g id="edge44" class="edge"><title>Node7&#45;&gt;Node21</title>
<path fill="none" stroke="midnightblue" d="M699.995,-173.274C649.925,-166.475 541.561,-151.146 440.474,-132.18"/>
<polygon fill="midnightblue" stroke="midnightblue" points="440.878,-128.695 430.402,-130.274 439.576,-135.573 440.878,-128.695"/>
</g>
<!-- Node22 -->
<g id="node46" class="node"><title>Node22</title>
<polygon fill="none" stroke="#bfbfbf" points="447.5,-112.5 447.5,-131.5 554.5,-131.5 554.5,-112.5 447.5,-112.5"/>
<text text-anchor="middle" x="501" y="-119.5" font-family="Helvetica,sans-Serif" font-size="10.00">freeradius&#45;devel/tls.h</text>
</g>
<!-- Node7&#45;&gt;Node22 -->
<g id="edge48" class="edge"><title>Node7&#45;&gt;Node22</title>
<path fill="none" stroke="midnightblue" d="M699.709,-170.27C661.368,-161.149 592.455,-144.756 546.717,-133.875"/>
<polygon fill="midnightblue" stroke="midnightblue" points="547.299,-130.416 536.76,-131.507 545.679,-137.226 547.299,-130.416"/>
</g>
<!-- Node23 -->
<g id="node48" class="node"><title>Node23</title>
<a xlink:href="eap_8h.html" target="_top" xlink:title="eap.h">
<polygon fill="none" stroke="black" points="92.5,-112.5 92.5,-131.5 133.5,-131.5 133.5,-112.5 92.5,-112.5"/>
<text text-anchor="middle" x="113" y="-119.5" font-family="Helvetica,sans-Serif" font-size="10.00">eap.h</text>
</a>
</g>
<!-- Node7&#45;&gt;Node23 -->
<g id="edge50" class="edge"><title>Node7&#45;&gt;Node23</title>
<path fill="none" stroke="midnightblue" d="M699.714,-176.965C615.983,-176.412 362.14,-171.501 143.566,-131.65"/>
<polygon fill="midnightblue" stroke="midnightblue" points="143.984,-128.167 133.514,-129.787 142.709,-135.05 143.984,-128.167"/>
</g>
<!-- Node23&#45;&gt;Node2 -->
<g id="edge52" class="edge"><title>Node23&#45;&gt;Node2</title>
<path fill="none" stroke="midnightblue" d="M133.518,-114.236C136.668,-113.375 139.902,-112.591 143,-112 358.956,-70.837 1036.74,-28.0887 1255.9,-15.0256"/>
<polygon fill="midnightblue" stroke="midnightblue" points="1256.21,-18.5133 1265.99,-14.4261 1255.8,-11.5257 1256.21,-18.5133"/>
</g>
<!-- Node23&#45;&gt;Node5 -->
<g id="edge54" class="edge"><title>Node23&#45;&gt;Node5</title>
<path fill="none" stroke="midnightblue" d="M109.155,-112.368C101.176,-94.4563 82.6749,-52.9233 71.9951,-28.9482"/>
<polygon fill="midnightblue" stroke="midnightblue" points="75.0934,-27.3019 67.8271,-19.5914 68.6991,-30.1503 75.0934,-27.3019"/>
</g>
<!-- Node23&#45;&gt;Node6 -->
<g id="edge56" class="edge"><title>Node23&#45;&gt;Node6</title>
<path fill="none" stroke="midnightblue" d="M118.028,-112.478C125.878,-99.5363 141.924,-74.4791 159,-56 169.326,-44.8261 182.401,-33.8629 193.099,-25.5554"/>
<polygon fill="midnightblue" stroke="midnightblue" points="195.219,-28.3407 201.071,-19.509 190.989,-22.7634 195.219,-28.3407"/>
</g>
<!-- Node24 -->
<g id="node53" class="node"><title>Node24</title>
<polygon fill="none" stroke="#bfbfbf" points="256.5,-56.5 256.5,-75.5 399.5,-75.5 399.5,-56.5 256.5,-56.5"/>
<text text-anchor="middle" x="328" y="-63.5" font-family="Helvetica,sans-Serif" font-size="10.00">freeradius&#45;devel/rad_assert.h</text>
</g>
<!-- Node23&#45;&gt;Node24 -->
<g id="edge58" class="edge"><title>Node23&#45;&gt;Node24</title>
<path fill="none" stroke="midnightblue" d="M133.616,-114.659C136.752,-113.74 139.956,-112.826 143,-112 189.363,-99.4163 242.71,-86.6169 280.168,-77.9025"/>
<polygon fill="midnightblue" stroke="midnightblue" points="281.341,-81.2235 290.293,-75.5565 279.761,-74.4042 281.341,-81.2235"/>
</g>
<!-- Node25 -->
<g id="node55" class="node"><title>Node25</title>
<a xlink:href="eap__types_8h.html" target="_top" xlink:title="eap_types.h">
<polygon fill="none" stroke="black" points="168,-56.5 168,-75.5 238,-75.5 238,-56.5 168,-56.5"/>
<text text-anchor="middle" x="203" y="-63.5" font-family="Helvetica,sans-Serif" font-size="10.00">eap_types.h</text>
</a>
</g>
<!-- Node23&#45;&gt;Node25 -->
<g id="edge60" class="edge"><title>Node23&#45;&gt;Node25</title>
<path fill="none" stroke="midnightblue" d="M127.46,-112.324C141.5,-103.9 163.048,-90.9709 179.543,-81.0741"/>
<polygon fill="midnightblue" stroke="midnightblue" points="181.802,-83.8007 188.576,-75.6545 178.2,-77.7983 181.802,-83.8007"/>
</g>
<!-- Node25&#45;&gt;Node2 -->
<g id="edge62" class="edge"><title>Node25&#45;&gt;Node2</title>
<path fill="none" stroke="midnightblue" d="M238.461,-57.2391C241.341,-56.7639 244.214,-56.3409 247,-56 443.442,-31.9661 1050.05,-16.949 1255.87,-12.4381"/>
<polygon fill="midnightblue" stroke="midnightblue" points="1256.02,-15.9357 1265.94,-12.2187 1255.87,-8.93734 1256.02,-15.9357"/>
</g>
<!-- Node25&#45;&gt;Node5 -->
<g id="edge64" class="edge"><title>Node25&#45;&gt;Node5</title>
<path fill="none" stroke="midnightblue" d="M180.975,-56.4435C157.896,-47.4776 121.438,-33.314 95.3591,-23.1827"/>
<polygon fill="midnightblue" stroke="midnightblue" points="96.5107,-19.8753 85.9219,-19.5164 93.9758,-26.4002 96.5107,-19.8753"/>
</g>
<!-- Node25&#45;&gt;Node6 -->
<g id="edge66" class="edge"><title>Node25&#45;&gt;Node6</title>
<path fill="none" stroke="midnightblue" d="M204.651,-56.083C205.976,-48.9272 207.882,-38.6353 209.539,-29.6911"/>
<polygon fill="midnightblue" stroke="midnightblue" points="213,-30.2212 211.379,-19.7511 206.117,-28.9466 213,-30.2212"/>
</g>
</g>
</svg>
        <g id="navigator" transform="translate(0 0)" fill="#404254">
                <rect fill="#f2f5e9" fill-opacity="0.5" stroke="#606060" stroke-width=".5" x="0" y="0" width="60" height="60"/>
                <use id="zoomplus" xlink:href="#zoomPlus" x="17" y="9" onmousedown="handleZoom(evt,'in')"/>
                <use id="zoomminus" xlink:href="#zoomMin" x="42" y="9" onmousedown="handleZoom(evt,'out')"/>
                <use id="reset" xlink:href="#resetDef" x="30" y="36" onmousedown="handleReset()"/>
                <g id="arrowUp" xlink:href="#dirArrow" transform="translate(30 24)" onmousedown="handlePan(0,-1)">
                  <use xlink:href="#rim" fill="#404040">
                        <set attributeName="fill" to="#808080" begin="arrowUp.mouseover" end="arrowUp.mouseout"/>
                  </use>
                  <path fill="none" stroke="white" stroke-width="1.5" d="M0,-3.0v7 M-2.5,-0.5L0,-3.0L2.5,-0.5"/>
                </g>
                <g id="arrowRight" xlink:href="#dirArrow" transform="rotate(90) translate(36 -43)" onmousedown="handlePan(1,0)">
                  <use xlink:href="#rim" fill="#404040">
                        <set attributeName="fill" to="#808080" begin="arrowRight.mouseover" end="arrowRight.mouseout"/>
                  </use>
                  <path fill="none" stroke="white" stroke-width="1.5" d="M0,-3.0v7 M-2.5,-0.5L0,-3.0L2.5,-0.5"/>
                </g>
                <g id="arrowDown" xlink:href="#dirArrow" transform="rotate(180) translate(-30 -48)" onmousedown="handlePan(0,1)">
                  <use xlink:href="#rim" fill="#404040">
                        <set attributeName="fill" to="#808080" begin="arrowDown.mouseover" end="arrowDown.mouseout"/>
                  </use>
                  <path fill="none" stroke="white" stroke-width="1.5" d="M0,-3.0v7 M-2.5,-0.5L0,-3.0L2.5,-0.5"/>
                </g>
                <g id="arrowLeft" xlink:href="#dirArrow" transform="rotate(270) translate(-36 17)" onmousedown="handlePan(-1,0)">
                  <use xlink:href="#rim" fill="#404040">
                        <set attributeName="fill" to="#808080" begin="arrowLeft.mouseover" end="arrowLeft.mouseout"/>
                  </use>
                  <path fill="none" stroke="white" stroke-width="1.5" d="M0,-3.0v7 M-2.5,-0.5L0,-3.0L2.5,-0.5"/>
                </g>
        </g>
</svg>
