<?xml version="1.0" encoding="UTF-8" standalone="no"?>
<!DOCTYPE svg PUBLIC "-//W3C//DTD SVG 1.1//EN"
 "http://www.w3.org/Graphics/SVG/1.1/DTD/svg11.dtd">
<!-- Generated by graphviz version 2.28.0 (20111211.2114)
 -->
<!-- Title: G Pages: 1 -->
<!--zoomable-->
<svg id="main" version="1.1" xmlns="http://www.w3.org/2000/svg" xmlns:xlink="http://www.w3.org/1999/xlink" xml:space="preserve" onload="init(evt)">
        <defs>
                <circle id="rim" cx="0" cy="0" r="7"/>
                <circle id="rim2" cx="0" cy="0" r="3.5"/>
                <g id="zoomPlus">
                        <use xlink:href="#rim" fill="#404040">
                                <set attributeName="fill" to="#808080" begin="zoomplus.mouseover" end="zoomplus.mouseout"/>
                        </use>
                        <path d="M-4,0h8M0,-4v8" fill="none" stroke="white" stroke-width="1.5" pointer-events="none"/>
                </g>
                <g id="zoomMin">
                        <use xlink:href="#rim" fill="#404040">
                                <set attributeName="fill" to="#808080" begin="zoomminus.mouseover" end="zoomminus.mouseout"/>
                        </use>
                        <path d="M-4,0h8" fill="none" stroke="white" stroke-width="1.5" pointer-events="none"/>
                </g>
                <g id="dirArrow">
                        <path fill="none" stroke="white" stroke-width="1.5" d="M0,-3.0v7 M-2.5,-0.5L0,-3.0L2.5,-0.5"/>
                </g>
               <g id="resetDef">
                       <use xlink:href="#rim2" fill="#404040">
                               <set attributeName="fill" to="#808080" begin="reset.mouseover" end="reset.mouseout"/>
                       </use>
               </g>
        </defs>

<script type="text/javascript">
var viewWidth = 580;
var viewHeight = 252;
var sectionId = 'dynsection-0';
</script>
<script xlink:href="svgpan.js"/>
<svg id="graph" class="graph">
<g id="viewport">
<title>G</title>
<!-- Node1 -->
<g id="node1" class="node"><title>Node1</title>
<polygon fill="#bfbfbf" stroke="black" points="302,-224.5 302,-243.5 572,-243.5 572,-224.5 302,-224.5"/>
<text text-anchor="middle" x="437" y="-231.5" font-family="Helvetica,sans-Serif" font-size="10.00">/home/pjm3/freeradius&#45;server/src/modules/rlm_eap/mem.c</text>
</g>
<!-- Node2 -->
<g id="node3" class="node"><title>Node2</title>
<polygon fill="none" stroke="#bfbfbf" points="334,-0.5 334,-19.5 452,-19.5 452,-0.5 334,-0.5"/>
<text text-anchor="middle" x="393" y="-7.5" font-family="Helvetica,sans-Serif" font-size="10.00">freeradius&#45;devel/ident.h</text>
</g>
<!-- Node1&#45;&gt;Node2 -->
<g id="edge2" class="edge"><title>Node1&#45;&gt;Node2</title>
<path fill="none" stroke="midnightblue" d="M435.275,-224.297C428.801,-191.633 405.856,-75.8661 396.757,-29.9573"/>
<polygon fill="midnightblue" stroke="midnightblue" points="400.138,-29.0125 394.761,-19.8837 393.272,-30.3734 400.138,-29.0125"/>
</g>
<!-- Node3 -->
<g id="node5" class="node"><title>Node3</title>
<polygon fill="none" stroke="#bfbfbf" points="465,-168.5 465,-187.5 511,-187.5 511,-168.5 465,-168.5"/>
<text text-anchor="middle" x="488" y="-175.5" font-family="Helvetica,sans-Serif" font-size="10.00">stdio.h</text>
</g>
<!-- Node1&#45;&gt;Node3 -->
<g id="edge4" class="edge"><title>Node1&#45;&gt;Node3</title>
<path fill="none" stroke="midnightblue" d="M445.422,-224.083C452.848,-216.22 463.852,-204.569 472.812,-195.081"/>
<polygon fill="midnightblue" stroke="midnightblue" points="475.413,-197.424 479.735,-187.751 470.324,-192.618 475.413,-197.424"/>
</g>
<!-- Node4 -->
<g id="node7" class="node"><title>Node4</title>
<a xlink:href="rlm__eap_8h.html" target="_top" xlink:title="rlm_eap.h">
<polygon fill="none" stroke="black" points="331.5,-168.5 331.5,-187.5 390.5,-187.5 390.5,-168.5 331.5,-168.5"/>
<text text-anchor="middle" x="361" y="-175.5" font-family="Helvetica,sans-Serif" font-size="10.00">rlm_eap.h</text>
</a>
</g>
<!-- Node1&#45;&gt;Node4 -->
<g id="edge6" class="edge"><title>Node1&#45;&gt;Node4</title>
<path fill="none" stroke="midnightblue" d="M424.789,-224.324C413.224,-216.107 395.625,-203.602 381.839,-193.807"/>
<polygon fill="midnightblue" stroke="midnightblue" points="383.612,-190.773 373.433,-187.834 379.557,-196.479 383.612,-190.773"/>
</g>
<!-- Node4&#45;&gt;Node2 -->
<g id="edge8" class="edge"><title>Node4&#45;&gt;Node2</title>
<path fill="none" stroke="midnightblue" d="M362.72,-168.075C367.758,-141.945 382.55,-65.2106 389.419,-29.577"/>
<polygon fill="midnightblue" stroke="midnightblue" points="392.892,-30.0499 391.348,-19.5681 386.019,-28.7248 392.892,-30.0499"/>
</g>
<!-- Node5 -->
<g id="node10" class="node"><title>Node5</title>
<polygon fill="none" stroke="#bfbfbf" points="201.5,-112.5 201.5,-131.5 332.5,-131.5 332.5,-112.5 201.5,-112.5"/>
<text text-anchor="middle" x="267" y="-119.5" font-family="Helvetica,sans-Serif" font-size="10.00">freeradius&#45;devel/modpriv.h</text>
</g>
<!-- Node4&#45;&gt;Node5 -->
<g id="edge10" class="edge"><title>Node4&#45;&gt;Node5</title>
<path fill="none" stroke="midnightblue" d="M345.897,-168.324C331.097,-159.822 308.306,-146.729 291.018,-136.797"/>
<polygon fill="midnightblue" stroke="midnightblue" points="292.48,-133.601 282.065,-131.655 288.993,-139.671 292.48,-133.601"/>
</g>
<!-- Node6 -->
<g id="node12" class="node"><title>Node6</title>
<a xlink:href="eap_8h.html" target="_top" xlink:title="eap.h">
<polygon fill="none" stroke="black" points="142.5,-112.5 142.5,-131.5 183.5,-131.5 183.5,-112.5 142.5,-112.5"/>
<text text-anchor="middle" x="163" y="-119.5" font-family="Helvetica,sans-Serif" font-size="10.00">eap.h</text>
</a>
</g>
<!-- Node4&#45;&gt;Node6 -->
<g id="edge12" class="edge"><title>Node4&#45;&gt;Node6</title>
<path fill="none" stroke="midnightblue" d="M331.287,-169.478C299.37,-161.314 246.946,-147.658 193.246,-132.283"/>
<polygon fill="midnightblue" stroke="midnightblue" points="194.142,-128.898 183.564,-129.495 192.206,-135.625 194.142,-128.898"/>
</g>
<!-- Node10 -->
<g id="node21" class="node"><title>Node10</title>
<a xlink:href="eap__types_8h.html" target="_top" xlink:title="eap_types.h">
<polygon fill="none" stroke="black" points="263,-56.5 263,-75.5 333,-75.5 333,-56.5 263,-56.5"/>
<text text-anchor="middle" x="298" y="-63.5" font-family="Helvetica,sans-Serif" font-size="10.00">eap_types.h</text>
</a>
</g>
<!-- Node4&#45;&gt;Node10 -->
<g id="edge30" class="edge"><title>Node4&#45;&gt;Node10</title>
<path fill="none" stroke="midnightblue" d="M359.679,-168.492C357.395,-155.568 351.874,-130.534 341,-112 334.536,-100.982 324.872,-90.5436 316.342,-82.4992"/>
<polygon fill="midnightblue" stroke="midnightblue" points="318.427,-79.6673 308.653,-75.5793 313.745,-84.8705 318.427,-79.6673"/>
</g>
<!-- Node6&#45;&gt;Node2 -->
<g id="edge14" class="edge"><title>Node6&#45;&gt;Node2</title>
<path fill="none" stroke="midnightblue" d="M183.546,-114.442C186.378,-113.591 189.255,-112.754 192,-112 258.108,-93.8298 284.299,-113.027 342,-76 360.419,-64.1803 374.999,-43.3602 383.773,-28.467"/>
<polygon fill="midnightblue" stroke="midnightblue" points="386.855,-30.1262 388.682,-19.69 380.746,-26.7089 386.855,-30.1262"/>
</g>
<!-- Node7 -->
<g id="node15" class="node"><title>Node7</title>
<polygon fill="none" stroke="#bfbfbf" points="177,-0.5 177,-19.5 305,-19.5 305,-0.5 177,-0.5"/>
<text text-anchor="middle" x="241" y="-7.5" font-family="Helvetica,sans-Serif" font-size="10.00">freeradius&#45;devel/radiusd.h</text>
</g>
<!-- Node6&#45;&gt;Node7 -->
<g id="edge16" class="edge"><title>Node6&#45;&gt;Node7</title>
<path fill="none" stroke="midnightblue" d="M176.107,-112.393C187.682,-104.218 204.333,-90.9748 215,-76 225.127,-61.7839 232.074,-43.0625 236.222,-29.3643"/>
<polygon fill="midnightblue" stroke="midnightblue" points="239.619,-30.2115 238.956,-19.6375 232.88,-28.3175 239.619,-30.2115"/>
</g>
<!-- Node8 -->
<g id="node17" class="node"><title>Node8</title>
<polygon fill="none" stroke="#bfbfbf" points="0,-0.5 0,-19.5 134,-19.5 134,-0.5 0,-0.5"/>
<text text-anchor="middle" x="67" y="-7.5" font-family="Helvetica,sans-Serif" font-size="10.00">freeradius&#45;devel/modules.h</text>
</g>
<!-- Node6&#45;&gt;Node8 -->
<g id="edge18" class="edge"><title>Node6&#45;&gt;Node8</title>
<path fill="none" stroke="midnightblue" d="M142.267,-119.16C116.549,-115.639 73.6944,-105.438 54,-76 44.6282,-61.9918 50.2339,-42.7382 56.7475,-28.8254"/>
<polygon fill="midnightblue" stroke="midnightblue" points="59.938,-30.2764 61.4498,-19.79 53.7285,-27.0448 59.938,-30.2764"/>
</g>
<!-- Node9 -->
<g id="node19" class="node"><title>Node9</title>
<polygon fill="none" stroke="#bfbfbf" points="63.5,-56.5 63.5,-75.5 206.5,-75.5 206.5,-56.5 63.5,-56.5"/>
<text text-anchor="middle" x="135" y="-63.5" font-family="Helvetica,sans-Serif" font-size="10.00">freeradius&#45;devel/rad_assert.h</text>
</g>
<!-- Node6&#45;&gt;Node9 -->
<g id="edge20" class="edge"><title>Node6&#45;&gt;Node9</title>
<path fill="none" stroke="midnightblue" d="M158.376,-112.083C154.544,-104.691 148.976,-93.9533 144.235,-84.8111"/>
<polygon fill="midnightblue" stroke="midnightblue" points="147.248,-83.0175 139.538,-75.7511 141.034,-86.2398 147.248,-83.0175"/>
</g>
<!-- Node6&#45;&gt;Node10 -->
<g id="edge22" class="edge"><title>Node6&#45;&gt;Node10</title>
<path fill="none" stroke="midnightblue" d="M183.504,-112.799C205.644,-103.943 241.175,-89.73 266.787,-79.4851"/>
<polygon fill="midnightblue" stroke="midnightblue" points="268.423,-82.6004 276.408,-75.6367 265.824,-76.101 268.423,-82.6004"/>
</g>
<!-- Node10&#45;&gt;Node2 -->
<g id="edge24" class="edge"><title>Node10&#45;&gt;Node2</title>
<path fill="none" stroke="midnightblue" d="M313.263,-56.324C328.221,-47.8215 351.255,-34.7288 368.727,-24.7975"/>
<polygon fill="midnightblue" stroke="midnightblue" points="370.81,-27.639 377.774,-19.6545 367.351,-21.5534 370.81,-27.639"/>
</g>
<!-- Node10&#45;&gt;Node7 -->
<g id="edge26" class="edge"><title>Node10&#45;&gt;Node7</title>
<path fill="none" stroke="midnightblue" d="M288.842,-56.324C280.499,-48.4196 267.968,-36.5482 257.823,-26.9377"/>
<polygon fill="midnightblue" stroke="midnightblue" points="259.991,-24.1705 250.325,-19.8339 255.177,-29.2522 259.991,-24.1705"/>
</g>
<!-- Node10&#45;&gt;Node8 -->
<g id="edge28" class="edge"><title>Node10&#45;&gt;Node8</title>
<path fill="none" stroke="midnightblue" d="M262.916,-56.7986C222.987,-47.4646 157.604,-32.1802 113.466,-21.8622"/>
<polygon fill="midnightblue" stroke="midnightblue" points="114.095,-18.4149 103.561,-19.5467 112.502,-25.2312 114.095,-18.4149"/>
</g>
</g>
</svg>
        <g id="navigator" transform="translate(0 0)" fill="#404254">
                <rect fill="#f2f5e9" fill-opacity="0.5" stroke="#606060" stroke-width=".5" x="0" y="0" width="60" height="60"/>
                <use id="zoomplus" xlink:href="#zoomPlus" x="17" y="9" onmousedown="handleZoom(evt,'in')"/>
                <use id="zoomminus" xlink:href="#zoomMin" x="42" y="9" onmousedown="handleZoom(evt,'out')"/>
                <use id="reset" xlink:href="#resetDef" x="30" y="36" onmousedown="handleReset()"/>
                <g id="arrowUp" xlink:href="#dirArrow" transform="translate(30 24)" onmousedown="handlePan(0,-1)">
                  <use xlink:href="#rim" fill="#404040">
                        <set attributeName="fill" to="#808080" begin="arrowUp.mouseover" end="arrowUp.mouseout"/>
                  </use>
                  <path fill="none" stroke="white" stroke-width="1.5" d="M0,-3.0v7 M-2.5,-0.5L0,-3.0L2.5,-0.5"/>
                </g>
                <g id="arrowRight" xlink:href="#dirArrow" transform="rotate(90) translate(36 -43)" onmousedown="handlePan(1,0)">
                  <use xlink:href="#rim" fill="#404040">
                        <set attributeName="fill" to="#808080" begin="arrowRight.mouseover" end="arrowRight.mouseout"/>
                  </use>
                  <path fill="none" stroke="white" stroke-width="1.5" d="M0,-3.0v7 M-2.5,-0.5L0,-3.0L2.5,-0.5"/>
                </g>
                <g id="arrowDown" xlink:href="#dirArrow" transform="rotate(180) translate(-30 -48)" onmousedown="handlePan(0,1)">
                  <use xlink:href="#rim" fill="#404040">
                        <set attributeName="fill" to="#808080" begin="arrowDown.mouseover" end="arrowDown.mouseout"/>
                  </use>
                  <path fill="none" stroke="white" stroke-width="1.5" d="M0,-3.0v7 M-2.5,-0.5L0,-3.0L2.5,-0.5"/>
                </g>
                <g id="arrowLeft" xlink:href="#dirArrow" transform="rotate(270) translate(-36 17)" onmousedown="handlePan(-1,0)">
                  <use xlink:href="#rim" fill="#404040">
                        <set attributeName="fill" to="#808080" begin="arrowLeft.mouseover" end="arrowLeft.mouseout"/>
                  </use>
                  <path fill="none" stroke="white" stroke-width="1.5" d="M0,-3.0v7 M-2.5,-0.5L0,-3.0L2.5,-0.5"/>
                </g>
        </g>
</svg>
