<?xml version="1.0" encoding="UTF-8" standalone="no"?>
<!DOCTYPE svg PUBLIC "-//W3C//DTD SVG 1.1//EN"
 "http://www.w3.org/Graphics/SVG/1.1/DTD/svg11.dtd">
<!-- Generated by graphviz version 2.28.0 (20111211.2114)
 -->
<!-- Title: G Pages: 1 -->
<svg width="315pt" height="140pt"
 viewBox="0.00 0.00 315.00 140.00" xmlns="http://www.w3.org/2000/svg" xmlns:xlink="http://www.w3.org/1999/xlink">
<g id="graph1" class="graph" transform="scale(1 1) rotate(0) translate(4 136)">
<title>G</title>
<!-- Node1 -->
<g id="node1" class="node"><title>Node1</title>
<polygon fill="#bfbfbf" stroke="black" points="0,-112.5 0,-131.5 302,-131.5 302,-112.5 0,-112.5"/>
<text text-anchor="middle" x="151" y="-119.5" font-family="Helvetica,sans-Serif" font-size="10.00">/home/pjm3/freeradius&#45;server/src/modules/rlm_mschap/smbdes.c</text>
</g>
<!-- Node2 -->
<g id="node3" class="node"><title>Node2</title>
<polygon fill="none" stroke="#bfbfbf" points="81,-0.5 81,-19.5 199,-19.5 199,-0.5 81,-0.5"/>
<text text-anchor="middle" x="140" y="-7.5" font-family="Helvetica,sans-Serif" font-size="10.00">freeradius&#45;devel/ident.h</text>
</g>
<!-- Node1&#45;&gt;Node2 -->
<g id="edge2" class="edge"><title>Node1&#45;&gt;Node2</title>
<path fill="none" stroke="midnightblue" d="M78.7403,-112.424C56.5824,-106.016 34.5069,-94.9687 21,-76 1.55184,-48.6876 40.5799,-31.6463 79.0359,-21.9014"/>
<polygon fill="midnightblue" stroke="midnightblue" points="79.8504,-25.3054 88.7645,-19.5793 78.2252,-18.4967 79.8504,-25.3054"/>
</g>
<!-- Node3 -->
<g id="node5" class="node"><title>Node3</title>
<polygon fill="none" stroke="#bfbfbf" points="30.5,-56.5 30.5,-75.5 163.5,-75.5 163.5,-56.5 30.5,-56.5"/>
<text text-anchor="middle" x="97" y="-63.5" font-family="Helvetica,sans-Serif" font-size="10.00">freeradius&#45;devel/libradius.h</text>
</g>
<!-- Node1&#45;&gt;Node3 -->
<g id="edge4" class="edge"><title>Node1&#45;&gt;Node3</title>
<path fill="none" stroke="midnightblue" d="M142.083,-112.083C134.22,-104.22 122.569,-92.5688 113.081,-83.0813"/>
<polygon fill="midnightblue" stroke="midnightblue" points="115.297,-80.3473 105.751,-75.7511 110.347,-85.2971 115.297,-80.3473"/>
</g>
<!-- Node4 -->
<g id="node7" class="node"><title>Node4</title>
<polygon fill="none" stroke="#bfbfbf" points="181.5,-56.5 181.5,-75.5 230.5,-75.5 230.5,-56.5 181.5,-56.5"/>
<text text-anchor="middle" x="206" y="-63.5" font-family="Helvetica,sans-Serif" font-size="10.00">ctype.h</text>
</g>
<!-- Node1&#45;&gt;Node4 -->
<g id="edge6" class="edge"><title>Node1&#45;&gt;Node4</title>
<path fill="none" stroke="midnightblue" d="M160.082,-112.083C168.171,-104.141 180.195,-92.3354 189.91,-82.7973"/>
<polygon fill="midnightblue" stroke="midnightblue" points="192.403,-85.2545 197.087,-75.7511 187.499,-80.2595 192.403,-85.2545"/>
</g>
<!-- Node5 -->
<g id="node9" class="node"><title>Node5</title>
<a xlink:href="smbdes_8h.html" target="_top" xlink:title="smbdes.h">
<polygon fill="none" stroke="black" points="248.5,-56.5 248.5,-75.5 307.5,-75.5 307.5,-56.5 248.5,-56.5"/>
<text text-anchor="middle" x="278" y="-63.5" font-family="Helvetica,sans-Serif" font-size="10.00">smbdes.h</text>
</a>
</g>
<!-- Node1&#45;&gt;Node5 -->
<g id="edge8" class="edge"><title>Node1&#45;&gt;Node5</title>
<path fill="none" stroke="midnightblue" d="M171.124,-112.444C192.024,-103.557 224.935,-89.5632 248.716,-79.4514"/>
<polygon fill="midnightblue" stroke="midnightblue" points="250.138,-82.6504 257.971,-75.5164 247.398,-76.2085 250.138,-82.6504"/>
</g>
<!-- Node5&#45;&gt;Node2 -->
<g id="edge10" class="edge"><title>Node5&#45;&gt;Node2</title>
<path fill="none" stroke="midnightblue" d="M256.133,-56.4435C233.221,-47.4776 197.025,-33.314 171.134,-23.1827"/>
<polygon fill="midnightblue" stroke="midnightblue" points="172.352,-19.9011 161.764,-19.5164 169.801,-26.4198 172.352,-19.9011"/>
</g>
</g>
</svg>
