<?xml version="1.0" encoding="UTF-8" standalone="no"?>
<!DOCTYPE svg PUBLIC "-//W3C//DTD SVG 1.1//EN"
 "http://www.w3.org/Graphics/SVG/1.1/DTD/svg11.dtd">
<!-- Generated by graphviz version 2.28.0 (20111211.2114)
 -->
<!-- Title: G Pages: 1 -->
<!--zoomable-->
<svg id="main" version="1.1" xmlns="http://www.w3.org/2000/svg" xmlns:xlink="http://www.w3.org/1999/xlink" xml:space="preserve" onload="init(evt)">
        <defs>
                <circle id="rim" cx="0" cy="0" r="7"/>
                <circle id="rim2" cx="0" cy="0" r="3.5"/>
                <g id="zoomPlus">
                        <use xlink:href="#rim" fill="#404040">
                                <set attributeName="fill" to="#808080" begin="zoomplus.mouseover" end="zoomplus.mouseout"/>
                        </use>
                        <path d="M-4,0h8M0,-4v8" fill="none" stroke="white" stroke-width="1.5" pointer-events="none"/>
                </g>
                <g id="zoomMin">
                        <use xlink:href="#rim" fill="#404040">
                                <set attributeName="fill" to="#808080" begin="zoomminus.mouseover" end="zoomminus.mouseout"/>
                        </use>
                        <path d="M-4,0h8" fill="none" stroke="white" stroke-width="1.5" pointer-events="none"/>
                </g>
                <g id="dirArrow">
                        <path fill="none" stroke="white" stroke-width="1.5" d="M0,-3.0v7 M-2.5,-0.5L0,-3.0L2.5,-0.5"/>
                </g>
               <g id="resetDef">
                       <use xlink:href="#rim2" fill="#404040">
                               <set attributeName="fill" to="#808080" begin="reset.mouseover" end="reset.mouseout"/>
                       </use>
               </g>
        </defs>

<script type="text/javascript">
var viewWidth = 572;
var viewHeight = 252;
var sectionId = 'dynsection-0';
</script>
<script xlink:href="svgpan.js"/>
<svg id="graph" class="graph">
<g id="viewport">
<title>G</title>
<!-- Node1 -->
<g id="node1" class="node"><title>Node1</title>
<polygon fill="#bfbfbf" stroke="black" points="85,-224.5 85,-243.5 489,-243.5 489,-224.5 85,-224.5"/>
<text text-anchor="middle" x="287" y="-231.5" font-family="Helvetica,sans-Serif" font-size="10.00">/home/pjm3/freeradius&#45;server/src/modules/rlm_eap/types/rlm_eap_ikev2/rlm_eap_ikev2.c</text>
</g>
<!-- Node2 -->
<g id="node3" class="node"><title>Node2</title>
<polygon fill="none" stroke="#bfbfbf" points="436,-0.5 436,-19.5 564,-19.5 564,-0.5 436,-0.5"/>
<text text-anchor="middle" x="500" y="-7.5" font-family="Helvetica,sans-Serif" font-size="10.00">freeradius&#45;devel/radiusd.h</text>
</g>
<!-- Node1&#45;&gt;Node2 -->
<g id="edge2" class="edge"><title>Node1&#45;&gt;Node2</title>
<path fill="none" stroke="midnightblue" d="M357.3,-224.465C406.394,-217.156 466.35,-205.085 485,-188 529.307,-147.41 514.858,-66.0734 505.427,-29.5283"/>
<polygon fill="midnightblue" stroke="midnightblue" points="508.756,-28.4346 502.731,-19.7195 502.006,-30.2894 508.756,-28.4346"/>
</g>
<!-- Node3 -->
<g id="node5" class="node"><title>Node3</title>
<a xlink:href="eap_8h.html" target="_top" xlink:title="eap.h">
<polygon fill="none" stroke="black" points="275.5,-112.5 275.5,-131.5 316.5,-131.5 316.5,-112.5 275.5,-112.5"/>
<text text-anchor="middle" x="296" y="-119.5" font-family="Helvetica,sans-Serif" font-size="10.00">eap.h</text>
</a>
</g>
<!-- Node1&#45;&gt;Node3 -->
<g id="edge4" class="edge"><title>Node1&#45;&gt;Node3</title>
<path fill="none" stroke="midnightblue" d="M250.995,-224.499C216.347,-214.487 171.707,-195.639 190,-168 206.606,-142.909 240.323,-131.767 265.292,-126.845"/>
<polygon fill="midnightblue" stroke="midnightblue" points="266.128,-130.252 275.382,-125.093 264.931,-123.355 266.128,-130.252"/>
</g>
<!-- Node6 -->
<g id="node12" class="node"><title>Node6</title>
<polygon fill="none" stroke="#bfbfbf" points="-0.5,-56.5 -0.5,-75.5 142.5,-75.5 142.5,-56.5 -0.5,-56.5"/>
<text text-anchor="middle" x="71" y="-63.5" font-family="Helvetica,sans-Serif" font-size="10.00">freeradius&#45;devel/rad_assert.h</text>
</g>
<!-- Node1&#45;&gt;Node6 -->
<g id="edge28" class="edge"><title>Node1&#45;&gt;Node6</title>
<path fill="none" stroke="midnightblue" d="M173.4,-224.474C122.618,-218.067 70.6622,-206.992 55,-188 30.6014,-158.414 48.6957,-110.188 61.3966,-84.4622"/>
<polygon fill="midnightblue" stroke="midnightblue" points="64.5471,-85.9898 66.0574,-75.5032 58.3372,-82.7592 64.5471,-85.9898"/>
</g>
<!-- Node8 -->
<g id="node19" class="node"><title>Node8</title>
<polygon fill="none" stroke="#bfbfbf" points="199,-168.5 199,-187.5 245,-187.5 245,-168.5 199,-168.5"/>
<text text-anchor="middle" x="222" y="-175.5" font-family="Helvetica,sans-Serif" font-size="10.00">stdio.h</text>
</g>
<!-- Node1&#45;&gt;Node8 -->
<g id="edge22" class="edge"><title>Node1&#45;&gt;Node8</title>
<path fill="none" stroke="midnightblue" d="M276.557,-224.324C266.854,-216.263 252.185,-204.077 240.5,-194.369"/>
<polygon fill="midnightblue" stroke="midnightblue" points="242.562,-191.532 232.633,-187.834 238.089,-196.916 242.562,-191.532"/>
</g>
<!-- Node9 -->
<g id="node21" class="node"><title>Node9</title>
<polygon fill="none" stroke="#bfbfbf" points="263,-168.5 263,-187.5 311,-187.5 311,-168.5 263,-168.5"/>
<text text-anchor="middle" x="287" y="-175.5" font-family="Helvetica,sans-Serif" font-size="10.00">stdlib.h</text>
</g>
<!-- Node1&#45;&gt;Node9 -->
<g id="edge24" class="edge"><title>Node1&#45;&gt;Node9</title>
<path fill="none" stroke="midnightblue" d="M287,-224.083C287,-217.006 287,-206.861 287,-197.986"/>
<polygon fill="midnightblue" stroke="midnightblue" points="290.5,-197.751 287,-187.751 283.5,-197.751 290.5,-197.751"/>
</g>
<!-- Node10 -->
<g id="node23" class="node"><title>Node10</title>
<polygon fill="none" stroke="#bfbfbf" points="329,-168.5 329,-187.5 381,-187.5 381,-168.5 329,-168.5"/>
<text text-anchor="middle" x="355" y="-175.5" font-family="Helvetica,sans-Serif" font-size="10.00">assert.h</text>
</g>
<!-- Node1&#45;&gt;Node10 -->
<g id="edge26" class="edge"><title>Node1&#45;&gt;Node10</title>
<path fill="none" stroke="midnightblue" d="M297.925,-224.324C308.175,-216.185 323.721,-203.839 336.001,-194.087"/>
<polygon fill="midnightblue" stroke="midnightblue" points="338.221,-196.794 343.876,-187.834 333.868,-191.312 338.221,-196.794"/>
</g>
<!-- Node11 -->
<g id="node26" class="node"><title>Node11</title>
<a xlink:href="logging__impl_8h.html" target="_top" xlink:title="logging_impl.h">
<polygon fill="none" stroke="black" points="63.5,-168.5 63.5,-187.5 142.5,-187.5 142.5,-168.5 63.5,-168.5"/>
<text text-anchor="middle" x="103" y="-175.5" font-family="Helvetica,sans-Serif" font-size="10.00">logging_impl.h</text>
</a>
</g>
<!-- Node1&#45;&gt;Node11 -->
<g id="edge30" class="edge"><title>Node1&#45;&gt;Node11</title>
<path fill="none" stroke="midnightblue" d="M257.845,-224.444C226.487,-215.241 176.469,-200.562 141.803,-190.388"/>
<polygon fill="midnightblue" stroke="midnightblue" points="142.6,-186.974 132.019,-187.516 140.629,-193.691 142.6,-186.974"/>
</g>
<!-- Node13 -->
<g id="node30" class="node"><title>Node13</title>
<polygon fill="none" stroke="#bfbfbf" points="376,-112.5 376,-131.5 494,-131.5 494,-112.5 376,-112.5"/>
<text text-anchor="middle" x="435" y="-119.5" font-family="Helvetica,sans-Serif" font-size="10.00">EAPIKEv2/connector.h</text>
</g>
<!-- Node1&#45;&gt;Node13 -->
<g id="edge34" class="edge"><title>Node1&#45;&gt;Node13</title>
<path fill="none" stroke="midnightblue" d="M358.047,-224.479C402.974,-217.464 455.106,-205.748 469,-188 481.055,-172.601 466.414,-152.288 452.766,-138.497"/>
<polygon fill="midnightblue" stroke="midnightblue" points="455.129,-135.914 445.462,-131.579 450.315,-140.997 455.129,-135.914"/>
</g>
<!-- Node14 -->
<g id="node32" class="node"><title>Node14</title>
<a xlink:href="ike__conf_8h.html" target="_top" xlink:title="ike_conf.h">
<polygon fill="none" stroke="black" points="399,-168.5 399,-187.5 461,-187.5 461,-168.5 399,-168.5"/>
<text text-anchor="middle" x="430" y="-175.5" font-family="Helvetica,sans-Serif" font-size="10.00">ike_conf.h</text>
</a>
</g>
<!-- Node1&#45;&gt;Node14 -->
<g id="edge36" class="edge"><title>Node1&#45;&gt;Node14</title>
<path fill="none" stroke="midnightblue" d="M309.659,-224.444C333.402,-215.478 370.909,-201.314 397.738,-191.183"/>
<polygon fill="midnightblue" stroke="midnightblue" points="399.329,-194.324 407.447,-187.516 396.856,-187.775 399.329,-194.324"/>
</g>
<!-- Node3&#45;&gt;Node2 -->
<g id="edge8" class="edge"><title>Node3&#45;&gt;Node2</title>
<path fill="none" stroke="midnightblue" d="M312.008,-112.368C347.461,-93.2515 432.812,-47.229 475.221,-24.361"/>
<polygon fill="midnightblue" stroke="midnightblue" points="476.926,-27.4183 484.067,-19.5914 473.604,-21.2569 476.926,-27.4183"/>
</g>
<!-- Node4 -->
<g id="node7" class="node"><title>Node4</title>
<polygon fill="none" stroke="#bfbfbf" points="300,-0.5 300,-19.5 418,-19.5 418,-0.5 300,-0.5"/>
<text text-anchor="middle" x="359" y="-7.5" font-family="Helvetica,sans-Serif" font-size="10.00">freeradius&#45;devel/ident.h</text>
</g>
<!-- Node3&#45;&gt;Node4 -->
<g id="edge6" class="edge"><title>Node3&#45;&gt;Node4</title>
<path fill="none" stroke="midnightblue" d="M307.343,-112.179C317.307,-103.859 331.504,-90.5244 340,-76 348.44,-61.5704 353.366,-43.1178 356.078,-29.5626"/>
<polygon fill="midnightblue" stroke="midnightblue" points="359.558,-29.9822 357.863,-19.5238 352.666,-28.7564 359.558,-29.9822"/>
</g>
<!-- Node5 -->
<g id="node10" class="node"><title>Node5</title>
<polygon fill="none" stroke="#bfbfbf" points="148,-0.5 148,-19.5 282,-19.5 282,-0.5 148,-0.5"/>
<text text-anchor="middle" x="215" y="-7.5" font-family="Helvetica,sans-Serif" font-size="10.00">freeradius&#45;devel/modules.h</text>
</g>
<!-- Node3&#45;&gt;Node5 -->
<g id="edge10" class="edge"><title>Node3&#45;&gt;Node5</title>
<path fill="none" stroke="midnightblue" d="M286.161,-112.327C276.716,-103.697 262.39,-89.7869 252,-76 240.79,-61.1258 230.526,-42.5137 223.668,-29.022"/>
<polygon fill="midnightblue" stroke="midnightblue" points="226.7,-27.2589 219.127,-19.8496 220.427,-30.3644 226.7,-27.2589"/>
</g>
<!-- Node3&#45;&gt;Node6 -->
<g id="edge12" class="edge"><title>Node3&#45;&gt;Node6</title>
<path fill="none" stroke="midnightblue" d="M275.236,-116.017C239.383,-107.412 165.068,-89.5763 116.659,-77.9581"/>
<polygon fill="midnightblue" stroke="midnightblue" points="117.286,-74.5093 106.745,-75.5788 115.652,-81.316 117.286,-74.5093"/>
</g>
<!-- Node7 -->
<g id="node14" class="node"><title>Node7</title>
<a xlink:href="eap__types_8h.html" target="_top" xlink:title="eap_types.h">
<polygon fill="none" stroke="black" points="261,-56.5 261,-75.5 331,-75.5 331,-56.5 261,-56.5"/>
<text text-anchor="middle" x="296" y="-63.5" font-family="Helvetica,sans-Serif" font-size="10.00">eap_types.h</text>
</a>
</g>
<!-- Node3&#45;&gt;Node7 -->
<g id="edge14" class="edge"><title>Node3&#45;&gt;Node7</title>
<path fill="none" stroke="midnightblue" d="M296,-112.083C296,-105.006 296,-94.8611 296,-85.9865"/>
<polygon fill="midnightblue" stroke="midnightblue" points="299.5,-85.751 296,-75.7511 292.5,-85.7511 299.5,-85.751"/>
</g>
<!-- Node7&#45;&gt;Node2 -->
<g id="edge18" class="edge"><title>Node7&#45;&gt;Node2</title>
<path fill="none" stroke="midnightblue" d="M328.324,-56.4435C363.389,-47.1616 419.498,-32.3093 457.965,-22.127"/>
<polygon fill="midnightblue" stroke="midnightblue" points="459.055,-25.4589 467.827,-19.5164 457.264,-18.692 459.055,-25.4589"/>
</g>
<!-- Node7&#45;&gt;Node4 -->
<g id="edge16" class="edge"><title>Node7&#45;&gt;Node4</title>
<path fill="none" stroke="midnightblue" d="M306.122,-56.324C315.526,-48.2631 329.744,-36.0765 341.069,-26.3695"/>
<polygon fill="midnightblue" stroke="midnightblue" points="343.379,-28.9993 348.694,-19.8339 338.823,-23.6844 343.379,-28.9993"/>
</g>
<!-- Node7&#45;&gt;Node5 -->
<g id="edge20" class="edge"><title>Node7&#45;&gt;Node5</title>
<path fill="none" stroke="midnightblue" d="M282.986,-56.324C270.468,-47.979 251.318,-35.2122 236.529,-25.3524"/>
<polygon fill="midnightblue" stroke="midnightblue" points="238.244,-22.2894 227.982,-19.6545 234.361,-28.1137 238.244,-22.2894"/>
</g>
<!-- Node12 -->
<g id="node28" class="node"><title>Node12</title>
<polygon fill="none" stroke="#bfbfbf" points="77,-112.5 77,-131.5 129,-131.5 129,-112.5 77,-112.5"/>
<text text-anchor="middle" x="103" y="-119.5" font-family="Helvetica,sans-Serif" font-size="10.00">stdarg.h</text>
</g>
<!-- Node11&#45;&gt;Node12 -->
<g id="edge32" class="edge"><title>Node11&#45;&gt;Node12</title>
<path fill="none" stroke="midnightblue" d="M103,-168.083C103,-161.006 103,-150.861 103,-141.986"/>
<polygon fill="midnightblue" stroke="midnightblue" points="106.5,-141.751 103,-131.751 99.5001,-141.751 106.5,-141.751"/>
</g>
<!-- Node14&#45;&gt;Node3 -->
<g id="edge40" class="edge"><title>Node14&#45;&gt;Node3</title>
<path fill="none" stroke="midnightblue" d="M408.767,-168.444C386.486,-159.465 351.27,-145.273 326.122,-135.139"/>
<polygon fill="midnightblue" stroke="midnightblue" points="327.276,-131.83 316.693,-131.339 324.66,-138.323 327.276,-131.83"/>
</g>
<!-- Node14&#45;&gt;Node13 -->
<g id="edge38" class="edge"><title>Node14&#45;&gt;Node13</title>
<path fill="none" stroke="midnightblue" d="M430.826,-168.083C431.481,-161.006 432.42,-150.861 433.242,-141.986"/>
<polygon fill="midnightblue" stroke="midnightblue" points="436.753,-142.031 434.19,-131.751 429.783,-141.386 436.753,-142.031"/>
</g>
</g>
</svg>
        <g id="navigator" transform="translate(0 0)" fill="#404254">
                <rect fill="#f2f5e9" fill-opacity="0.5" stroke="#606060" stroke-width=".5" x="0" y="0" width="60" height="60"/>
                <use id="zoomplus" xlink:href="#zoomPlus" x="17" y="9" onmousedown="handleZoom(evt,'in')"/>
                <use id="zoomminus" xlink:href="#zoomMin" x="42" y="9" onmousedown="handleZoom(evt,'out')"/>
                <use id="reset" xlink:href="#resetDef" x="30" y="36" onmousedown="handleReset()"/>
                <g id="arrowUp" xlink:href="#dirArrow" transform="translate(30 24)" onmousedown="handlePan(0,-1)">
                  <use xlink:href="#rim" fill="#404040">
                        <set attributeName="fill" to="#808080" begin="arrowUp.mouseover" end="arrowUp.mouseout"/>
                  </use>
                  <path fill="none" stroke="white" stroke-width="1.5" d="M0,-3.0v7 M-2.5,-0.5L0,-3.0L2.5,-0.5"/>
                </g>
                <g id="arrowRight" xlink:href="#dirArrow" transform="rotate(90) translate(36 -43)" onmousedown="handlePan(1,0)">
                  <use xlink:href="#rim" fill="#404040">
                        <set attributeName="fill" to="#808080" begin="arrowRight.mouseover" end="arrowRight.mouseout"/>
                  </use>
                  <path fill="none" stroke="white" stroke-width="1.5" d="M0,-3.0v7 M-2.5,-0.5L0,-3.0L2.5,-0.5"/>
                </g>
                <g id="arrowDown" xlink:href="#dirArrow" transform="rotate(180) translate(-30 -48)" onmousedown="handlePan(0,1)">
                  <use xlink:href="#rim" fill="#404040">
                        <set attributeName="fill" to="#808080" begin="arrowDown.mouseover" end="arrowDown.mouseout"/>
                  </use>
                  <path fill="none" stroke="white" stroke-width="1.5" d="M0,-3.0v7 M-2.5,-0.5L0,-3.0L2.5,-0.5"/>
                </g>
                <g id="arrowLeft" xlink:href="#dirArrow" transform="rotate(270) translate(-36 17)" onmousedown="handlePan(-1,0)">
                  <use xlink:href="#rim" fill="#404040">
                        <set attributeName="fill" to="#808080" begin="arrowLeft.mouseover" end="arrowLeft.mouseout"/>
                  </use>
                  <path fill="none" stroke="white" stroke-width="1.5" d="M0,-3.0v7 M-2.5,-0.5L0,-3.0L2.5,-0.5"/>
                </g>
        </g>
</svg>
