<?xml version="1.0" encoding="UTF-8" standalone="no"?>
<!DOCTYPE svg PUBLIC "-//W3C//DTD SVG 1.1//EN"
 "http://www.w3.org/Graphics/SVG/1.1/DTD/svg11.dtd">
<!-- Generated by graphviz version 2.28.0 (20111211.2114)
 -->
<!-- Title: G Pages: 1 -->
<!--zoomable-->
<svg id="main" version="1.1" xmlns="http://www.w3.org/2000/svg" xmlns:xlink="http://www.w3.org/1999/xlink" xml:space="preserve" onload="init(evt)">
        <defs>
                <circle id="rim" cx="0" cy="0" r="7"/>
                <circle id="rim2" cx="0" cy="0" r="3.5"/>
                <g id="zoomPlus">
                        <use xlink:href="#rim" fill="#404040">
                                <set attributeName="fill" to="#808080" begin="zoomplus.mouseover" end="zoomplus.mouseout"/>
                        </use>
                        <path d="M-4,0h8M0,-4v8" fill="none" stroke="white" stroke-width="1.5" pointer-events="none"/>
                </g>
                <g id="zoomMin">
                        <use xlink:href="#rim" fill="#404040">
                                <set attributeName="fill" to="#808080" begin="zoomminus.mouseover" end="zoomminus.mouseout"/>
                        </use>
                        <path d="M-4,0h8" fill="none" stroke="white" stroke-width="1.5" pointer-events="none"/>
                </g>
                <g id="dirArrow">
                        <path fill="none" stroke="white" stroke-width="1.5" d="M0,-3.0v7 M-2.5,-0.5L0,-3.0L2.5,-0.5"/>
                </g>
               <g id="resetDef">
                       <use xlink:href="#rim2" fill="#404040">
                               <set attributeName="fill" to="#808080" begin="reset.mouseover" end="reset.mouseout"/>
                       </use>
               </g>
        </defs>

<script type="text/javascript">
var viewWidth = 582;
var viewHeight = 140;
var sectionId = 'dynsection-0';
</script>
<script xlink:href="svgpan.js"/>
<svg id="graph" class="graph">
<g id="viewport">
<title>G</title>
<!-- Node1 -->
<g id="node1" class="node"><title>Node1</title>
<polygon fill="#bfbfbf" stroke="black" points="143.817,-112.5 143.817,-131.5 432.817,-131.5 432.817,-112.5 143.817,-112.5"/>
<text text-anchor="middle" x="288.317" y="-119.5" font-family="Helvetica,sans-Serif" font-size="10.00">/home/pjm3/freeradius&#45;server/src/modules/rlm_expr/rlm_expr.c</text>
</g>
<!-- Node2 -->
<g id="node3" class="node"><title>Node2</title>
<polygon fill="none" stroke="#bfbfbf" points="205.317,-0.5 205.317,-19.5 323.317,-19.5 323.317,-0.5 205.317,-0.5"/>
<text text-anchor="middle" x="264.317" y="-7.5" font-family="Helvetica,sans-Serif" font-size="10.00">freeradius&#45;devel/ident.h</text>
</g>
<!-- Node1&#45;&gt;Node2 -->
<g id="edge2" class="edge"><title>Node1&#45;&gt;Node2</title>
<path fill="none" stroke="midnightblue" d="M143.666,-115.137C83.4543,-109.37 23.1613,-98.0648 4.31743,-76 -1.45523,-69.2406 -1.40697,-62.8003 4.31743,-56 28.2393,-27.5821 126.195,-17.1102 194.783,-13.2514"/>
<polygon fill="midnightblue" stroke="midnightblue" points="195.298,-16.7292 205.1,-12.7079 194.93,-9.73894 195.298,-16.7292"/>
</g>
<!-- Node3 -->
<g id="node5" class="node"><title>Node3</title>
<polygon fill="none" stroke="#bfbfbf" points="13.3174,-56.5 13.3174,-75.5 141.317,-75.5 141.317,-56.5 13.3174,-56.5"/>
<text text-anchor="middle" x="77.3174" y="-63.5" font-family="Helvetica,sans-Serif" font-size="10.00">freeradius&#45;devel/radiusd.h</text>
</g>
<!-- Node1&#45;&gt;Node3 -->
<g id="edge4" class="edge"><title>Node1&#45;&gt;Node3</title>
<path fill="none" stroke="midnightblue" d="M254.884,-112.444C218.461,-103.122 160.087,-88.1828 120.288,-77.9972"/>
<polygon fill="midnightblue" stroke="midnightblue" points="121.15,-74.6051 110.595,-75.5164 119.415,-81.3866 121.15,-74.6051"/>
</g>
<!-- Node4 -->
<g id="node7" class="node"><title>Node4</title>
<polygon fill="none" stroke="#bfbfbf" points="159.317,-56.5 159.317,-75.5 275.317,-75.5 275.317,-56.5 159.317,-56.5"/>
<text text-anchor="middle" x="217.317" y="-63.5" font-family="Helvetica,sans-Serif" font-size="10.00">freeradius&#45;devel/md5.h</text>
</g>
<!-- Node1&#45;&gt;Node4 -->
<g id="edge6" class="edge"><title>Node1&#45;&gt;Node4</title>
<path fill="none" stroke="midnightblue" d="M276.91,-112.324C266.209,-104.185 249.977,-91.8395 237.155,-82.0874"/>
<polygon fill="midnightblue" stroke="midnightblue" points="239.011,-79.1018 228.932,-75.8339 234.773,-84.6734 239.011,-79.1018"/>
</g>
<!-- Node5 -->
<g id="node9" class="node"><title>Node5</title>
<polygon fill="none" stroke="#bfbfbf" points="293.317,-56.5 293.317,-75.5 427.317,-75.5 427.317,-56.5 293.317,-56.5"/>
<text text-anchor="middle" x="360.317" y="-63.5" font-family="Helvetica,sans-Serif" font-size="10.00">freeradius&#45;devel/modules.h</text>
</g>
<!-- Node1&#45;&gt;Node5 -->
<g id="edge8" class="edge"><title>Node1&#45;&gt;Node5</title>
<path fill="none" stroke="midnightblue" d="M299.885,-112.324C310.738,-104.185 327.198,-91.8395 340.201,-82.0874"/>
<polygon fill="midnightblue" stroke="midnightblue" points="342.639,-84.6339 348.539,-75.8339 338.439,-79.0339 342.639,-84.6339"/>
</g>
<!-- Node6 -->
<g id="node11" class="node"><title>Node6</title>
<polygon fill="none" stroke="#bfbfbf" points="445.817,-56.5 445.817,-75.5 494.817,-75.5 494.817,-56.5 445.817,-56.5"/>
<text text-anchor="middle" x="470.317" y="-63.5" font-family="Helvetica,sans-Serif" font-size="10.00">ctype.h</text>
</g>
<!-- Node1&#45;&gt;Node6 -->
<g id="edge10" class="edge"><title>Node1&#45;&gt;Node6</title>
<path fill="none" stroke="midnightblue" d="M317.156,-112.444C349.45,-102.862 401.752,-87.3435 436.092,-77.1548"/>
<polygon fill="midnightblue" stroke="midnightblue" points="437.108,-80.5041 445.7,-74.3042 435.117,-73.7933 437.108,-80.5041"/>
</g>
<!-- Node7 -->
<g id="node13" class="node"><title>Node7</title>
<a xlink:href="rlm__expr_8h.html" target="_top" xlink:title="rlm_expr.h">
<polygon fill="none" stroke="black" points="513.317,-56.5 513.317,-75.5 575.317,-75.5 575.317,-56.5 513.317,-56.5"/>
<text text-anchor="middle" x="544.317" y="-63.5" font-family="Helvetica,sans-Serif" font-size="10.00">rlm_expr.h</text>
</a>
</g>
<!-- Node1&#45;&gt;Node7 -->
<g id="edge12" class="edge"><title>Node1&#45;&gt;Node7</title>
<path fill="none" stroke="midnightblue" d="M329.56,-112.493C370.83,-103.951 436.403,-90.3058 503.134,-76.0223"/>
<polygon fill="midnightblue" stroke="midnightblue" points="503.941,-79.4289 512.985,-73.9108 502.474,-72.5844 503.941,-79.4289"/>
</g>
<!-- Node7&#45;&gt;Node2 -->
<g id="edge14" class="edge"><title>Node7&#45;&gt;Node2</title>
<path fill="none" stroke="midnightblue" d="M512.999,-58.0239C509.732,-57.3267 506.459,-56.6405 503.317,-56 441.519,-43.4024 370.467,-30.185 322.001,-21.3603"/>
<polygon fill="midnightblue" stroke="midnightblue" points="322.478,-17.8896 312.013,-19.5456 321.226,-24.7769 322.478,-17.8896"/>
</g>
</g>
</svg>
        <g id="navigator" transform="translate(0 0)" fill="#404254">
                <rect fill="#f2f5e9" fill-opacity="0.5" stroke="#606060" stroke-width=".5" x="0" y="0" width="60" height="60"/>
                <use id="zoomplus" xlink:href="#zoomPlus" x="17" y="9" onmousedown="handleZoom(evt,'in')"/>
                <use id="zoomminus" xlink:href="#zoomMin" x="42" y="9" onmousedown="handleZoom(evt,'out')"/>
                <use id="reset" xlink:href="#resetDef" x="30" y="36" onmousedown="handleReset()"/>
                <g id="arrowUp" xlink:href="#dirArrow" transform="translate(30 24)" onmousedown="handlePan(0,-1)">
                  <use xlink:href="#rim" fill="#404040">
                        <set attributeName="fill" to="#808080" begin="arrowUp.mouseover" end="arrowUp.mouseout"/>
                  </use>
                  <path fill="none" stroke="white" stroke-width="1.5" d="M0,-3.0v7 M-2.5,-0.5L0,-3.0L2.5,-0.5"/>
                </g>
                <g id="arrowRight" xlink:href="#dirArrow" transform="rotate(90) translate(36 -43)" onmousedown="handlePan(1,0)">
                  <use xlink:href="#rim" fill="#404040">
                        <set attributeName="fill" to="#808080" begin="arrowRight.mouseover" end="arrowRight.mouseout"/>
                  </use>
                  <path fill="none" stroke="white" stroke-width="1.5" d="M0,-3.0v7 M-2.5,-0.5L0,-3.0L2.5,-0.5"/>
                </g>
                <g id="arrowDown" xlink:href="#dirArrow" transform="rotate(180) translate(-30 -48)" onmousedown="handlePan(0,1)">
                  <use xlink:href="#rim" fill="#404040">
                        <set attributeName="fill" to="#808080" begin="arrowDown.mouseover" end="arrowDown.mouseout"/>
                  </use>
                  <path fill="none" stroke="white" stroke-width="1.5" d="M0,-3.0v7 M-2.5,-0.5L0,-3.0L2.5,-0.5"/>
                </g>
                <g id="arrowLeft" xlink:href="#dirArrow" transform="rotate(270) translate(-36 17)" onmousedown="handlePan(-1,0)">
                  <use xlink:href="#rim" fill="#404040">
                        <set attributeName="fill" to="#808080" begin="arrowLeft.mouseover" end="arrowLeft.mouseout"/>
                  </use>
                  <path fill="none" stroke="white" stroke-width="1.5" d="M0,-3.0v7 M-2.5,-0.5L0,-3.0L2.5,-0.5"/>
                </g>
        </g>
</svg>
