<?xml version="1.0" encoding="UTF-8" standalone="no"?>
<!DOCTYPE svg PUBLIC "-//W3C//DTD SVG 1.1//EN"
 "http://www.w3.org/Graphics/SVG/1.1/DTD/svg11.dtd">
<!-- Generated by graphviz version 2.28.0 (20111211.2114)
 -->
<!-- Title: G Pages: 1 -->
<!--zoomable-->
<svg id="main" version="1.1" xmlns="http://www.w3.org/2000/svg" xmlns:xlink="http://www.w3.org/1999/xlink" xml:space="preserve" onload="init(evt)">
        <defs>
                <circle id="rim" cx="0" cy="0" r="7"/>
                <circle id="rim2" cx="0" cy="0" r="3.5"/>
                <g id="zoomPlus">
                        <use xlink:href="#rim" fill="#404040">
                                <set attributeName="fill" to="#808080" begin="zoomplus.mouseover" end="zoomplus.mouseout"/>
                        </use>
                        <path d="M-4,0h8M0,-4v8" fill="none" stroke="white" stroke-width="1.5" pointer-events="none"/>
                </g>
                <g id="zoomMin">
                        <use xlink:href="#rim" fill="#404040">
                                <set attributeName="fill" to="#808080" begin="zoomminus.mouseover" end="zoomminus.mouseout"/>
                        </use>
                        <path d="M-4,0h8" fill="none" stroke="white" stroke-width="1.5" pointer-events="none"/>
                </g>
                <g id="dirArrow">
                        <path fill="none" stroke="white" stroke-width="1.5" d="M0,-3.0v7 M-2.5,-0.5L0,-3.0L2.5,-0.5"/>
                </g>
               <g id="resetDef">
                       <use xlink:href="#rim2" fill="#404040">
                               <set attributeName="fill" to="#808080" begin="reset.mouseover" end="reset.mouseout"/>
                       </use>
               </g>
        </defs>

<script type="text/javascript">
var viewWidth = 770;
var viewHeight = 252;
var sectionId = 'dynsection-0';
</script>
<script xlink:href="svgpan.js"/>
<svg id="graph" class="graph">
<g id="viewport">
<title>G</title>
<!-- Node1 -->
<g id="node1" class="node"><title>Node1</title>
<polygon fill="#bfbfbf" stroke="black" points="0,-224.5 0,-243.5 394,-243.5 394,-224.5 0,-224.5"/>
<text text-anchor="middle" x="197" y="-231.5" font-family="Helvetica,sans-Serif" font-size="10.00">/home/pjm3/freeradius&#45;server/src/modules/rlm_eap/types/rlm_eap_pwd/rlm_eap_pwd.h</text>
</g>
<!-- Node2 -->
<g id="node3" class="node"><title>Node2</title>
<a xlink:href="eap__pwd_8h.html" target="_top" xlink:title="eap_pwd.h">
<polygon fill="none" stroke="black" points="451,-168.5 451,-187.5 515,-187.5 515,-168.5 451,-168.5"/>
<text text-anchor="middle" x="483" y="-175.5" font-family="Helvetica,sans-Serif" font-size="10.00">eap_pwd.h</text>
</a>
</g>
<!-- Node1&#45;&gt;Node2 -->
<g id="edge2" class="edge"><title>Node1&#45;&gt;Node2</title>
<path fill="none" stroke="midnightblue" d="M242.318,-224.444C296.806,-214.156 387.538,-197.024 440.663,-186.994"/>
<polygon fill="midnightblue" stroke="midnightblue" points="441.587,-190.381 450.764,-185.086 440.289,-183.503 441.587,-190.381"/>
</g>
<!-- Node5 -->
<g id="node10" class="node"><title>Node5</title>
<polygon fill="none" stroke="#bfbfbf" points="270,-0.5 270,-19.5 398,-19.5 398,-0.5 270,-0.5"/>
<text text-anchor="middle" x="334" y="-7.5" font-family="Helvetica,sans-Serif" font-size="10.00">freeradius&#45;devel/radiusd.h</text>
</g>
<!-- Node1&#45;&gt;Node5 -->
<g id="edge34" class="edge"><title>Node1&#45;&gt;Node5</title>
<path fill="none" stroke="midnightblue" d="M196.407,-224.439C195.363,-203.704 195.014,-149.722 216,-112 237.908,-72.6217 281.495,-41.6163 309.123,-24.8321"/>
<polygon fill="midnightblue" stroke="midnightblue" points="310.995,-27.7917 317.826,-19.6938 307.436,-21.7639 310.995,-27.7917"/>
</g>
<!-- Node6 -->
<g id="node12" class="node"><title>Node6</title>
<polygon fill="none" stroke="#bfbfbf" points="118,-0.5 118,-19.5 252,-19.5 252,-0.5 118,-0.5"/>
<text text-anchor="middle" x="185" y="-7.5" font-family="Helvetica,sans-Serif" font-size="10.00">freeradius&#45;devel/modules.h</text>
</g>
<!-- Node1&#45;&gt;Node6 -->
<g id="edge36" class="edge"><title>Node1&#45;&gt;Node6</title>
<path fill="none" stroke="midnightblue" d="M193.4,-224.222C189.944,-215.285 184.967,-200.942 183,-188 174.324,-130.905 179.463,-62.2555 182.81,-29.7812"/>
<polygon fill="midnightblue" stroke="midnightblue" points="186.322,-29.8642 183.933,-19.5421 179.364,-29.1009 186.322,-29.8642"/>
</g>
<!-- Node3 -->
<g id="node5" class="node"><title>Node3</title>
<polygon fill="none" stroke="#bfbfbf" points="529,-0.5 529,-19.5 647,-19.5 647,-0.5 529,-0.5"/>
<text text-anchor="middle" x="588" y="-7.5" font-family="Helvetica,sans-Serif" font-size="10.00">freeradius&#45;devel/ident.h</text>
</g>
<!-- Node2&#45;&gt;Node3 -->
<g id="edge4" class="edge"><title>Node2&#45;&gt;Node3</title>
<path fill="none" stroke="midnightblue" d="M515.462,-176.579C580.262,-174.979 722.017,-167.416 752,-132 794.123,-82.2454 690.667,-41.4334 629.361,-22.4634"/>
<polygon fill="midnightblue" stroke="midnightblue" points="630.131,-19.04 619.546,-19.5005 628.108,-25.7412 630.131,-19.04"/>
</g>
<!-- Node4 -->
<g id="node7" class="node"><title>Node4</title>
<a xlink:href="eap_8h.html" target="_top" xlink:title="eap.h">
<polygon fill="none" stroke="black" points="425.5,-112.5 425.5,-131.5 466.5,-131.5 466.5,-112.5 425.5,-112.5"/>
<text text-anchor="middle" x="446" y="-119.5" font-family="Helvetica,sans-Serif" font-size="10.00">eap.h</text>
</a>
</g>
<!-- Node2&#45;&gt;Node4 -->
<g id="edge6" class="edge"><title>Node2&#45;&gt;Node4</title>
<path fill="none" stroke="midnightblue" d="M476.89,-168.083C471.718,-160.534 464.154,-149.495 457.806,-140.23"/>
<polygon fill="midnightblue" stroke="midnightblue" points="460.536,-138.022 451.996,-131.751 454.761,-141.979 460.536,-138.022"/>
</g>
<!-- Node9 -->
<g id="node21" class="node"><title>Node9</title>
<polygon fill="none" stroke="#bfbfbf" points="485,-112.5 485,-131.5 557,-131.5 557,-112.5 485,-112.5"/>
<text text-anchor="middle" x="521" y="-119.5" font-family="Helvetica,sans-Serif" font-size="10.00">openssl/bn.h</text>
</g>
<!-- Node2&#45;&gt;Node9 -->
<g id="edge24" class="edge"><title>Node2&#45;&gt;Node9</title>
<path fill="none" stroke="midnightblue" d="M489.275,-168.083C494.642,-160.455 502.518,-149.264 509.079,-139.941"/>
<polygon fill="midnightblue" stroke="midnightblue" points="511.949,-141.943 514.842,-131.751 506.225,-137.915 511.949,-141.943"/>
</g>
<!-- Node10 -->
<g id="node23" class="node"><title>Node10</title>
<polygon fill="none" stroke="#bfbfbf" points="575.5,-112.5 575.5,-131.5 652.5,-131.5 652.5,-112.5 575.5,-112.5"/>
<text text-anchor="middle" x="614" y="-119.5" font-family="Helvetica,sans-Serif" font-size="10.00">openssl/sha.h</text>
</g>
<!-- Node2&#45;&gt;Node10 -->
<g id="edge26" class="edge"><title>Node2&#45;&gt;Node10</title>
<path fill="none" stroke="midnightblue" d="M503.757,-168.444C525.316,-159.557 559.263,-145.563 583.794,-135.451"/>
<polygon fill="midnightblue" stroke="midnightblue" points="585.428,-138.563 593.34,-131.516 582.761,-132.092 585.428,-138.563"/>
</g>
<!-- Node11 -->
<g id="node25" class="node"><title>Node11</title>
<polygon fill="none" stroke="#bfbfbf" points="671,-112.5 671,-131.5 743,-131.5 743,-112.5 671,-112.5"/>
<text text-anchor="middle" x="707" y="-119.5" font-family="Helvetica,sans-Serif" font-size="10.00">openssl/ec.h</text>
</g>
<!-- Node2&#45;&gt;Node11 -->
<g id="edge28" class="edge"><title>Node2&#45;&gt;Node11</title>
<path fill="none" stroke="midnightblue" d="M515.094,-169.263C553.589,-159.983 618.362,-144.368 661.88,-133.877"/>
<polygon fill="midnightblue" stroke="midnightblue" points="662.739,-137.271 671.64,-131.524 661.098,-130.465 662.739,-137.271"/>
</g>
<!-- Node12 -->
<g id="node27" class="node"><title>Node12</title>
<polygon fill="none" stroke="#bfbfbf" points="225.5,-112.5 225.5,-131.5 302.5,-131.5 302.5,-112.5 225.5,-112.5"/>
<text text-anchor="middle" x="264" y="-119.5" font-family="Helvetica,sans-Serif" font-size="10.00">openssl/evp.h</text>
</g>
<!-- Node2&#45;&gt;Node12 -->
<g id="edge30" class="edge"><title>Node2&#45;&gt;Node12</title>
<path fill="none" stroke="midnightblue" d="M450.686,-169.032C413.014,-159.743 350.544,-144.34 308.351,-133.936"/>
<polygon fill="midnightblue" stroke="midnightblue" points="309.165,-130.532 298.618,-131.536 307.489,-137.328 309.165,-130.532"/>
</g>
<!-- Node13 -->
<g id="node29" class="node"><title>Node13</title>
<polygon fill="none" stroke="#bfbfbf" points="321,-112.5 321,-131.5 407,-131.5 407,-112.5 321,-112.5"/>
<text text-anchor="middle" x="364" y="-119.5" font-family="Helvetica,sans-Serif" font-size="10.00">openssl/hmac.h</text>
</g>
<!-- Node2&#45;&gt;Node13 -->
<g id="edge32" class="edge"><title>Node2&#45;&gt;Node13</title>
<path fill="none" stroke="midnightblue" d="M464.144,-168.444C444.734,-159.636 414.27,-145.812 392.035,-135.722"/>
<polygon fill="midnightblue" stroke="midnightblue" points="393.32,-132.462 382.768,-131.516 390.428,-138.836 393.32,-132.462"/>
</g>
<!-- Node4&#45;&gt;Node3 -->
<g id="edge8" class="edge"><title>Node4&#45;&gt;Node3</title>
<path fill="none" stroke="midnightblue" d="M466.758,-114.456C499.651,-103.924 560.784,-83.6237 568,-76 579.784,-63.5508 584.635,-44.3154 586.626,-29.9955"/>
<polygon fill="midnightblue" stroke="midnightblue" points="590.134,-30.0971 587.688,-19.7886 583.172,-29.3728 590.134,-30.0971"/>
</g>
<!-- Node4&#45;&gt;Node5 -->
<g id="edge10" class="edge"><title>Node4&#45;&gt;Node5</title>
<path fill="none" stroke="midnightblue" d="M437.212,-112.368C418.401,-93.8941 374.007,-50.2926 350.03,-26.7436"/>
<polygon fill="midnightblue" stroke="midnightblue" points="352.335,-24.1015 342.748,-19.5914 347.43,-29.0956 352.335,-24.1015"/>
</g>
<!-- Node4&#45;&gt;Node6 -->
<g id="edge12" class="edge"><title>Node4&#45;&gt;Node6</title>
<path fill="none" stroke="midnightblue" d="M425.368,-114.719C422.234,-113.792 419.034,-112.86 416,-112 356.254,-95.0763 337.498,-101.767 281,-76 251.753,-62.6612 221.635,-40.6677 203.116,-26.0094"/>
<polygon fill="midnightblue" stroke="midnightblue" points="205.221,-23.2112 195.239,-19.6605 200.828,-28.6611 205.221,-23.2112"/>
</g>
<!-- Node7 -->
<g id="node14" class="node"><title>Node7</title>
<polygon fill="none" stroke="#bfbfbf" points="416.5,-56.5 416.5,-75.5 559.5,-75.5 559.5,-56.5 416.5,-56.5"/>
<text text-anchor="middle" x="488" y="-63.5" font-family="Helvetica,sans-Serif" font-size="10.00">freeradius&#45;devel/rad_assert.h</text>
</g>
<!-- Node4&#45;&gt;Node7 -->
<g id="edge14" class="edge"><title>Node4&#45;&gt;Node7</title>
<path fill="none" stroke="midnightblue" d="M452.935,-112.083C458.929,-104.377 467.752,-93.0333 475.048,-83.6531"/>
<polygon fill="midnightblue" stroke="midnightblue" points="477.817,-85.7934 481.194,-75.7511 472.291,-81.4958 477.817,-85.7934"/>
</g>
<!-- Node8 -->
<g id="node16" class="node"><title>Node8</title>
<a xlink:href="eap__types_8h.html" target="_top" xlink:title="eap_types.h">
<polygon fill="none" stroke="black" points="290,-56.5 290,-75.5 360,-75.5 360,-56.5 290,-56.5"/>
<text text-anchor="middle" x="325" y="-63.5" font-family="Helvetica,sans-Serif" font-size="10.00">eap_types.h</text>
</a>
</g>
<!-- Node4&#45;&gt;Node8 -->
<g id="edge16" class="edge"><title>Node4&#45;&gt;Node8</title>
<path fill="none" stroke="midnightblue" d="M426.827,-112.444C407.091,-103.636 376.115,-89.8116 353.507,-79.722"/>
<polygon fill="midnightblue" stroke="midnightblue" points="354.641,-76.3957 344.083,-75.5164 351.789,-82.788 354.641,-76.3957"/>
</g>
<!-- Node8&#45;&gt;Node3 -->
<g id="edge18" class="edge"><title>Node8&#45;&gt;Node3</title>
<path fill="none" stroke="midnightblue" d="M360.196,-57.7734C405.468,-48.478 484.45,-32.2612 536.486,-21.5771"/>
<polygon fill="midnightblue" stroke="midnightblue" points="537.424,-24.9575 546.516,-19.5177 536.016,-18.1006 537.424,-24.9575"/>
</g>
<!-- Node8&#45;&gt;Node5 -->
<g id="edge20" class="edge"><title>Node8&#45;&gt;Node5</title>
<path fill="none" stroke="midnightblue" d="M326.486,-56.083C327.679,-48.9272 329.394,-38.6353 330.885,-29.6911"/>
<polygon fill="midnightblue" stroke="midnightblue" points="334.35,-30.1904 332.541,-19.7511 327.445,-29.0396 334.35,-30.1904"/>
</g>
<!-- Node8&#45;&gt;Node6 -->
<g id="edge22" class="edge"><title>Node8&#45;&gt;Node6</title>
<path fill="none" stroke="midnightblue" d="M302.817,-56.4435C279.572,-47.4776 242.851,-33.314 216.585,-23.1827"/>
<polygon fill="midnightblue" stroke="midnightblue" points="217.669,-19.8497 207.08,-19.5164 215.15,-26.3807 217.669,-19.8497"/>
</g>
</g>
</svg>
        <g id="navigator" transform="translate(0 0)" fill="#404254">
                <rect fill="#f2f5e9" fill-opacity="0.5" stroke="#606060" stroke-width=".5" x="0" y="0" width="60" height="60"/>
                <use id="zoomplus" xlink:href="#zoomPlus" x="17" y="9" onmousedown="handleZoom(evt,'in')"/>
                <use id="zoomminus" xlink:href="#zoomMin" x="42" y="9" onmousedown="handleZoom(evt,'out')"/>
                <use id="reset" xlink:href="#resetDef" x="30" y="36" onmousedown="handleReset()"/>
                <g id="arrowUp" xlink:href="#dirArrow" transform="translate(30 24)" onmousedown="handlePan(0,-1)">
                  <use xlink:href="#rim" fill="#404040">
                        <set attributeName="fill" to="#808080" begin="arrowUp.mouseover" end="arrowUp.mouseout"/>
                  </use>
                  <path fill="none" stroke="white" stroke-width="1.5" d="M0,-3.0v7 M-2.5,-0.5L0,-3.0L2.5,-0.5"/>
                </g>
                <g id="arrowRight" xlink:href="#dirArrow" transform="rotate(90) translate(36 -43)" onmousedown="handlePan(1,0)">
                  <use xlink:href="#rim" fill="#404040">
                        <set attributeName="fill" to="#808080" begin="arrowRight.mouseover" end="arrowRight.mouseout"/>
                  </use>
                  <path fill="none" stroke="white" stroke-width="1.5" d="M0,-3.0v7 M-2.5,-0.5L0,-3.0L2.5,-0.5"/>
                </g>
                <g id="arrowDown" xlink:href="#dirArrow" transform="rotate(180) translate(-30 -48)" onmousedown="handlePan(0,1)">
                  <use xlink:href="#rim" fill="#404040">
                        <set attributeName="fill" to="#808080" begin="arrowDown.mouseover" end="arrowDown.mouseout"/>
                  </use>
                  <path fill="none" stroke="white" stroke-width="1.5" d="M0,-3.0v7 M-2.5,-0.5L0,-3.0L2.5,-0.5"/>
                </g>
                <g id="arrowLeft" xlink:href="#dirArrow" transform="rotate(270) translate(-36 17)" onmousedown="handlePan(-1,0)">
                  <use xlink:href="#rim" fill="#404040">
                        <set attributeName="fill" to="#808080" begin="arrowLeft.mouseover" end="arrowLeft.mouseout"/>
                  </use>
                  <path fill="none" stroke="white" stroke-width="1.5" d="M0,-3.0v7 M-2.5,-0.5L0,-3.0L2.5,-0.5"/>
                </g>
        </g>
</svg>
