<?xml version="1.0" encoding="UTF-8" standalone="no"?>
<!DOCTYPE svg PUBLIC "-//W3C//DTD SVG 1.1//EN"
 "http://www.w3.org/Graphics/SVG/1.1/DTD/svg11.dtd">
<!-- Generated by graphviz version 2.28.0 (20111211.2114)
 -->
<!-- Title: G Pages: 1 -->
<!--zoomable-->
<svg id="main" version="1.1" xmlns="http://www.w3.org/2000/svg" xmlns:xlink="http://www.w3.org/1999/xlink" xml:space="preserve" onload="init(evt)">
        <defs>
                <circle id="rim" cx="0" cy="0" r="7"/>
                <circle id="rim2" cx="0" cy="0" r="3.5"/>
                <g id="zoomPlus">
                        <use xlink:href="#rim" fill="#404040">
                                <set attributeName="fill" to="#808080" begin="zoomplus.mouseover" end="zoomplus.mouseout"/>
                        </use>
                        <path d="M-4,0h8M0,-4v8" fill="none" stroke="white" stroke-width="1.5" pointer-events="none"/>
                </g>
                <g id="zoomMin">
                        <use xlink:href="#rim" fill="#404040">
                                <set attributeName="fill" to="#808080" begin="zoomminus.mouseover" end="zoomminus.mouseout"/>
                        </use>
                        <path d="M-4,0h8" fill="none" stroke="white" stroke-width="1.5" pointer-events="none"/>
                </g>
                <g id="dirArrow">
                        <path fill="none" stroke="white" stroke-width="1.5" d="M0,-3.0v7 M-2.5,-0.5L0,-3.0L2.5,-0.5"/>
                </g>
               <g id="resetDef">
                       <use xlink:href="#rim2" fill="#404040">
                               <set attributeName="fill" to="#808080" begin="reset.mouseover" end="reset.mouseout"/>
                       </use>
               </g>
        </defs>

<script type="text/javascript">
var viewWidth = 1428;
var viewHeight = 308;
var sectionId = 'dynsection-0';
</script>
<script xlink:href="svgpan.js"/>
<svg id="graph" class="graph">
<g id="viewport">
<title>G</title>
<!-- Node1 -->
<g id="node1" class="node"><title>Node1</title>
<polygon fill="#bfbfbf" stroke="black" points="1035.01,-280.5 1035.01,-299.5 1420.01,-299.5 1420.01,-280.5 1035.01,-280.5"/>
<text text-anchor="middle" x="1227.51" y="-287.5" font-family="Helvetica,sans-Serif" font-size="10.00">/home/pjm3/freeradius&#45;server/src/modules/rlm_eap/types/rlm_eap_ttls/rlm_eap_ttls.c</text>
</g>
<!-- Node2 -->
<g id="node3" class="node"><title>Node2</title>
<polygon fill="none" stroke="#bfbfbf" points="1187.51,-0.5 1187.51,-19.5 1305.51,-19.5 1305.51,-0.5 1187.51,-0.5"/>
<text text-anchor="middle" x="1246.51" y="-7.5" font-family="Helvetica,sans-Serif" font-size="10.00">freeradius&#45;devel/ident.h</text>
</g>
<!-- Node1&#45;&gt;Node2 -->
<g id="edge2" class="edge"><title>Node1&#45;&gt;Node2</title>
<path fill="none" stroke="midnightblue" d="M1251.36,-280.408C1268.23,-273.162 1290.16,-261.197 1303.51,-244 1321.97,-220.228 1322.51,-209.098 1322.51,-179 1322.51,-179 1322.51,-179 1322.51,-121 1322.51,-81.2757 1288.55,-45.5045 1266.03,-26.1536"/>
<polygon fill="midnightblue" stroke="midnightblue" points="1267.99,-23.2364 1258.05,-19.5672 1263.53,-28.6337 1267.99,-23.2364"/>
</g>
<!-- Node3 -->
<g id="node5" class="node"><title>Node3</title>
<polygon fill="none" stroke="#bfbfbf" points="1160.51,-224.5 1160.51,-243.5 1294.51,-243.5 1294.51,-224.5 1160.51,-224.5"/>
<text text-anchor="middle" x="1227.51" y="-231.5" font-family="Helvetica,sans-Serif" font-size="10.00">freeradius&#45;devel/autoconf.h</text>
</g>
<!-- Node1&#45;&gt;Node3 -->
<g id="edge4" class="edge"><title>Node1&#45;&gt;Node3</title>
<path fill="none" stroke="midnightblue" d="M1227.51,-280.083C1227.51,-273.006 1227.51,-262.861 1227.51,-253.986"/>
<polygon fill="midnightblue" stroke="midnightblue" points="1231.01,-253.751 1227.51,-243.751 1224.01,-253.751 1231.01,-253.751"/>
</g>
<!-- Node4 -->
<g id="node7" class="node"><title>Node4</title>
<a xlink:href="eap__ttls_8h.html" target="_top" xlink:title="eap_ttls.h">
<polygon fill="none" stroke="black" points="1083.01,-224.5 1083.01,-243.5 1142.01,-243.5 1142.01,-224.5 1083.01,-224.5"/>
<text text-anchor="middle" x="1112.51" y="-231.5" font-family="Helvetica,sans-Serif" font-size="10.00">eap_ttls.h</text>
</a>
</g>
<!-- Node1&#45;&gt;Node4 -->
<g id="edge6" class="edge"><title>Node1&#45;&gt;Node4</title>
<path fill="none" stroke="midnightblue" d="M1209.29,-280.444C1190.61,-271.675 1161.35,-257.935 1139.89,-247.858"/>
<polygon fill="midnightblue" stroke="midnightblue" points="1141.19,-244.599 1130.65,-243.516 1138.21,-250.935 1141.19,-244.599"/>
</g>
<!-- Node4&#45;&gt;Node2 -->
<g id="edge8" class="edge"><title>Node4&#45;&gt;Node2</title>
<path fill="none" stroke="midnightblue" d="M1130.18,-224.416C1158.95,-209.554 1215.89,-176.319 1247.51,-132 1267.67,-103.743 1272.4,-90.022 1265.51,-56 1263.62,-46.6493 1259.72,-36.8267 1255.94,-28.7526"/>
<polygon fill="midnightblue" stroke="midnightblue" points="1258.99,-27.0106 1251.39,-19.6279 1252.72,-30.1381 1258.99,-27.0106"/>
</g>
<!-- Node5 -->
<g id="node10" class="node"><title>Node5</title>
<a xlink:href="eap__tls_8h.html" target="_top" xlink:title="eap_tls.h">
<polygon fill="none" stroke="black" points="622.51,-168.5 622.51,-187.5 678.51,-187.5 678.51,-168.5 622.51,-168.5"/>
<text text-anchor="middle" x="650.51" y="-175.5" font-family="Helvetica,sans-Serif" font-size="10.00">eap_tls.h</text>
</a>
</g>
<!-- Node4&#45;&gt;Node5 -->
<g id="edge10" class="edge"><title>Node4&#45;&gt;Node5</title>
<path fill="none" stroke="midnightblue" d="M1082.91,-229.54C1002.26,-220.113 778.679,-193.981 688.726,-183.467"/>
<polygon fill="midnightblue" stroke="midnightblue" points="689.025,-179.978 678.687,-182.293 688.213,-186.931 689.025,-179.978"/>
</g>
<!-- Node5&#45;&gt;Node2 -->
<g id="edge12" class="edge"><title>Node5&#45;&gt;Node2</title>
<path fill="none" stroke="midnightblue" d="M678.691,-176.797C788.787,-175.739 1185.82,-169.342 1226.51,-132 1254.79,-106.052 1253.16,-56.6569 1249.72,-29.6973"/>
<polygon fill="midnightblue" stroke="midnightblue" points="1253.16,-29.0226 1248.22,-19.6505 1246.24,-30.0583 1253.16,-29.0226"/>
</g>
<!-- Node6 -->
<g id="node13" class="node"><title>Node6</title>
<polygon fill="none" stroke="#bfbfbf" points="13.5104,-112.5 13.5104,-131.5 59.5104,-131.5 59.5104,-112.5 13.5104,-112.5"/>
<text text-anchor="middle" x="36.5104" y="-119.5" font-family="Helvetica,sans-Serif" font-size="10.00">stdio.h</text>
</g>
<!-- Node5&#45;&gt;Node6 -->
<g id="edge14" class="edge"><title>Node5&#45;&gt;Node6</title>
<path fill="none" stroke="midnightblue" d="M622.4,-176.782C539.182,-175.725 286.85,-169.561 69.7885,-131.884"/>
<polygon fill="midnightblue" stroke="midnightblue" points="70.2618,-128.414 59.806,-130.125 69.0466,-135.307 70.2618,-128.414"/>
</g>
<!-- Node7 -->
<g id="node15" class="node"><title>Node7</title>
<polygon fill="none" stroke="#bfbfbf" points="77.5104,-112.5 77.5104,-131.5 125.51,-131.5 125.51,-112.5 77.5104,-112.5"/>
<text text-anchor="middle" x="101.51" y="-119.5" font-family="Helvetica,sans-Serif" font-size="10.00">stdlib.h</text>
</g>
<!-- Node5&#45;&gt;Node7 -->
<g id="edge16" class="edge"><title>Node5&#45;&gt;Node7</title>
<path fill="none" stroke="midnightblue" d="M622.379,-176.236C544.452,-173.755 319.406,-164.128 135.51,-132 135.409,-131.982 135.307,-131.964 135.205,-131.946"/>
<polygon fill="midnightblue" stroke="midnightblue" points="136.05,-128.548 125.543,-129.908 134.605,-135.397 136.05,-128.548"/>
</g>
<!-- Node8 -->
<g id="node17" class="node"><title>Node8</title>
<polygon fill="none" stroke="#bfbfbf" points="144.01,-112.5 144.01,-131.5 193.01,-131.5 193.01,-112.5 144.01,-112.5"/>
<text text-anchor="middle" x="168.51" y="-119.5" font-family="Helvetica,sans-Serif" font-size="10.00">string.h</text>
</g>
<!-- Node5&#45;&gt;Node8 -->
<g id="edge18" class="edge"><title>Node5&#45;&gt;Node8</title>
<path fill="none" stroke="midnightblue" d="M622.434,-175.81C552.868,-172.519 366.881,-161.626 203.505,-132.107"/>
<polygon fill="midnightblue" stroke="midnightblue" points="203.742,-128.592 193.274,-130.229 202.478,-135.477 203.742,-128.592"/>
</g>
<!-- Node9 -->
<g id="node19" class="node"><title>Node9</title>
<polygon fill="none" stroke="#bfbfbf" points="211.01,-112.5 211.01,-131.5 258.01,-131.5 258.01,-112.5 211.01,-112.5"/>
<text text-anchor="middle" x="234.51" y="-119.5" font-family="Helvetica,sans-Serif" font-size="10.00">errno.h</text>
</g>
<!-- Node5&#45;&gt;Node9 -->
<g id="edge20" class="edge"><title>Node5&#45;&gt;Node9</title>
<path fill="none" stroke="midnightblue" d="M622.417,-175.143C560.276,-170.728 406.4,-158.11 268.131,-131.832"/>
<polygon fill="midnightblue" stroke="midnightblue" points="268.686,-128.375 258.204,-129.917 267.359,-135.248 268.686,-128.375"/>
</g>
<!-- Node10 -->
<g id="node21" class="node"><title>Node10</title>
<polygon fill="none" stroke="#bfbfbf" points="276.51,-112.5 276.51,-131.5 344.51,-131.5 344.51,-112.5 276.51,-112.5"/>
<text text-anchor="middle" x="310.51" y="-119.5" font-family="Helvetica,sans-Serif" font-size="10.00">sys/types.h</text>
</g>
<!-- Node5&#45;&gt;Node10 -->
<g id="edge22" class="edge"><title>Node5&#45;&gt;Node10</title>
<path fill="none" stroke="midnightblue" d="M622.167,-173.244C570.885,-166.332 459.072,-150.733 354.808,-132.153"/>
<polygon fill="midnightblue" stroke="midnightblue" points="355.205,-128.668 344.744,-130.345 353.968,-135.558 355.205,-128.668"/>
</g>
<!-- Node11 -->
<g id="node23" class="node"><title>Node11</title>
<polygon fill="none" stroke="#bfbfbf" points="363.01,-112.5 363.01,-131.5 436.01,-131.5 436.01,-112.5 363.01,-112.5"/>
<text text-anchor="middle" x="399.51" y="-119.5" font-family="Helvetica,sans-Serif" font-size="10.00">sys/socket.h</text>
</g>
<!-- Node5&#45;&gt;Node11 -->
<g id="edge24" class="edge"><title>Node5&#45;&gt;Node11</title>
<path fill="none" stroke="midnightblue" d="M622.205,-170.91C579.416,-161.705 497.785,-144.143 446.132,-133.03"/>
<polygon fill="midnightblue" stroke="midnightblue" points="446.735,-129.58 436.222,-130.898 445.262,-136.423 446.735,-129.58"/>
</g>
<!-- Node12 -->
<g id="node25" class="node"><title>Node12</title>
<polygon fill="none" stroke="#bfbfbf" points="454.01,-112.5 454.01,-131.5 519.01,-131.5 519.01,-112.5 454.01,-112.5"/>
<text text-anchor="middle" x="486.51" y="-119.5" font-family="Helvetica,sans-Serif" font-size="10.00">netinet/in.h</text>
</g>
<!-- Node5&#45;&gt;Node12 -->
<g id="edge26" class="edge"><title>Node5&#45;&gt;Node12</title>
<path fill="none" stroke="midnightblue" d="M624.524,-168.444C596.814,-159.32 552.758,-144.813 521.895,-134.651"/>
<polygon fill="midnightblue" stroke="midnightblue" points="522.968,-131.32 512.375,-131.516 520.779,-137.968 522.968,-131.32"/>
</g>
<!-- Node13 -->
<g id="node27" class="node"><title>Node13</title>
<polygon fill="none" stroke="#bfbfbf" points="537.01,-112.5 537.01,-131.5 608.01,-131.5 608.01,-112.5 537.01,-112.5"/>
<text text-anchor="middle" x="572.51" y="-119.5" font-family="Helvetica,sans-Serif" font-size="10.00">netinet/tcp.h</text>
</g>
<!-- Node5&#45;&gt;Node13 -->
<g id="edge28" class="edge"><title>Node5&#45;&gt;Node13</title>
<path fill="none" stroke="midnightblue" d="M637.978,-168.324C625.924,-159.979 607.484,-147.212 593.242,-137.352"/>
<polygon fill="midnightblue" stroke="midnightblue" points="595.226,-134.469 585.011,-131.655 591.241,-140.224 595.226,-134.469"/>
</g>
<!-- Node14 -->
<g id="node29" class="node"><title>Node14</title>
<polygon fill="none" stroke="#bfbfbf" points="626.01,-112.5 626.01,-131.5 675.01,-131.5 675.01,-112.5 626.01,-112.5"/>
<text text-anchor="middle" x="650.51" y="-119.5" font-family="Helvetica,sans-Serif" font-size="10.00">netdb.h</text>
</g>
<!-- Node5&#45;&gt;Node14 -->
<g id="edge30" class="edge"><title>Node5&#45;&gt;Node14</title>
<path fill="none" stroke="midnightblue" d="M650.51,-168.083C650.51,-161.006 650.51,-150.861 650.51,-141.986"/>
<polygon fill="midnightblue" stroke="midnightblue" points="654.01,-141.751 650.51,-131.751 647.01,-141.751 654.01,-141.751"/>
</g>
<!-- Node15 -->
<g id="node31" class="node"><title>Node15</title>
<polygon fill="none" stroke="#bfbfbf" points="693.51,-112.5 693.51,-131.5 737.51,-131.5 737.51,-112.5 693.51,-112.5"/>
<text text-anchor="middle" x="715.51" y="-119.5" font-family="Helvetica,sans-Serif" font-size="10.00">fcntl.h</text>
</g>
<!-- Node5&#45;&gt;Node15 -->
<g id="edge32" class="edge"><title>Node5&#45;&gt;Node15</title>
<path fill="none" stroke="midnightblue" d="M660.954,-168.324C670.657,-160.263 685.326,-148.077 697.01,-138.369"/>
<polygon fill="midnightblue" stroke="midnightblue" points="699.422,-140.916 704.877,-131.834 694.948,-135.532 699.422,-140.916"/>
</g>
<!-- Node16 -->
<g id="node33" class="node"><title>Node16</title>
<polygon fill="none" stroke="#bfbfbf" points="755.51,-112.5 755.51,-131.5 805.51,-131.5 805.51,-112.5 755.51,-112.5"/>
<text text-anchor="middle" x="780.51" y="-119.5" font-family="Helvetica,sans-Serif" font-size="10.00">signal.h</text>
</g>
<!-- Node5&#45;&gt;Node16 -->
<g id="edge34" class="edge"><title>Node5&#45;&gt;Node16</title>
<path fill="none" stroke="midnightblue" d="M671.109,-168.444C692.504,-159.557 726.192,-145.563 750.535,-135.451"/>
<polygon fill="midnightblue" stroke="midnightblue" points="752.116,-138.585 760.008,-131.516 749.43,-132.12 752.116,-138.585"/>
</g>
<!-- Node17 -->
<g id="node35" class="node"><title>Node17</title>
<polygon fill="none" stroke="#bfbfbf" points="824.01,-112.5 824.01,-131.5 873.01,-131.5 873.01,-112.5 824.01,-112.5"/>
<text text-anchor="middle" x="848.51" y="-119.5" font-family="Helvetica,sans-Serif" font-size="10.00">ctype.h</text>
</g>
<!-- Node5&#45;&gt;Node17 -->
<g id="edge36" class="edge"><title>Node5&#45;&gt;Node17</title>
<path fill="none" stroke="midnightblue" d="M678.879,-169.263C714.609,-159.519 775.951,-142.789 814.257,-132.342"/>
<polygon fill="midnightblue" stroke="midnightblue" points="815.213,-135.709 823.94,-129.701 813.371,-128.956 815.213,-135.709"/>
</g>
<!-- Node18 -->
<g id="node37" class="node"><title>Node18</title>
<polygon fill="none" stroke="#bfbfbf" points="891.51,-112.5 891.51,-131.5 953.51,-131.5 953.51,-112.5 891.51,-112.5"/>
<text text-anchor="middle" x="922.51" y="-119.5" font-family="Helvetica,sans-Serif" font-size="10.00">sys/time.h</text>
</g>
<!-- Node5&#45;&gt;Node18 -->
<g id="edge38" class="edge"><title>Node5&#45;&gt;Node18</title>
<path fill="none" stroke="midnightblue" d="M678.645,-171.742C720.4,-163.89 801.486,-148.458 880.997,-132.064"/>
<polygon fill="midnightblue" stroke="midnightblue" points="882.104,-135.409 891.187,-129.956 880.686,-128.554 882.104,-135.409"/>
</g>
<!-- Node19 -->
<g id="node39" class="node"><title>Node19</title>
<polygon fill="none" stroke="#bfbfbf" points="971.51,-112.5 971.51,-131.5 1033.51,-131.5 1033.51,-112.5 971.51,-112.5"/>
<text text-anchor="middle" x="1002.51" y="-119.5" font-family="Helvetica,sans-Serif" font-size="10.00">arpa/inet.h</text>
</g>
<!-- Node5&#45;&gt;Node19 -->
<g id="edge40" class="edge"><title>Node5&#45;&gt;Node19</title>
<path fill="none" stroke="midnightblue" d="M678.923,-173.588C732.152,-167.047 850.702,-151.769 961.234,-131.923"/>
<polygon fill="midnightblue" stroke="midnightblue" points="962.003,-135.341 971.218,-130.113 960.754,-128.453 962.003,-135.341"/>
</g>
<!-- Node20 -->
<g id="node41" class="node"><title>Node20</title>
<polygon fill="none" stroke="#bfbfbf" points="818.51,-0.5 818.51,-19.5 946.51,-19.5 946.51,-0.5 818.51,-0.5"/>
<text text-anchor="middle" x="882.51" y="-7.5" font-family="Helvetica,sans-Serif" font-size="10.00">freeradius&#45;devel/radiusd.h</text>
</g>
<!-- Node5&#45;&gt;Node20 -->
<g id="edge42" class="edge"><title>Node5&#45;&gt;Node20</title>
<path fill="none" stroke="midnightblue" d="M622.41,-177.239C503.666,-177.962 47.166,-177.73 4.51037,-132 -1.5527,-125.5 -1.40498,-118.635 4.51037,-112 57.7028,-52.3379 606.021,-22.8847 808.185,-13.9912"/>
<polygon fill="midnightblue" stroke="midnightblue" points="808.573,-17.4777 818.411,-13.5459 808.268,-10.4844 808.573,-17.4777"/>
</g>
<!-- Node21 -->
<g id="node43" class="node"><title>Node21</title>
<polygon fill="none" stroke="#bfbfbf" points="1111.01,-112.5 1111.01,-131.5 1218.01,-131.5 1218.01,-112.5 1111.01,-112.5"/>
<text text-anchor="middle" x="1164.51" y="-119.5" font-family="Helvetica,sans-Serif" font-size="10.00">freeradius&#45;devel/tls.h</text>
</g>
<!-- Node5&#45;&gt;Node21 -->
<g id="edge44" class="edge"><title>Node5&#45;&gt;Node21</title>
<path fill="none" stroke="midnightblue" d="M678.528,-174.621C748.058,-168.629 934.299,-152.036 1100.98,-132.015"/>
<polygon fill="midnightblue" stroke="midnightblue" points="1101.41,-135.489 1110.91,-130.814 1100.57,-128.539 1101.41,-135.489"/>
</g>
<!-- Node22 -->
<g id="node45" class="node"><title>Node22</title>
<a xlink:href="eap_8h.html" target="_top" xlink:title="eap.h">
<polygon fill="none" stroke="black" points="1052.01,-112.5 1052.01,-131.5 1093.01,-131.5 1093.01,-112.5 1052.01,-112.5"/>
<text text-anchor="middle" x="1072.51" y="-119.5" font-family="Helvetica,sans-Serif" font-size="10.00">eap.h</text>
</a>
</g>
<!-- Node5&#45;&gt;Node22 -->
<g id="edge46" class="edge"><title>Node5&#45;&gt;Node22</title>
<path fill="none" stroke="midnightblue" d="M678.736,-175.383C743.432,-171.322 907.201,-159.026 1041.51,-132 1041.72,-131.957 1041.94,-131.914 1042.15,-131.869"/>
<polygon fill="midnightblue" stroke="midnightblue" points="1043.06,-135.25 1051.95,-129.491 1041.41,-128.448 1043.06,-135.25"/>
</g>
<!-- Node22&#45;&gt;Node2 -->
<g id="edge48" class="edge"><title>Node22&#45;&gt;Node2</title>
<path fill="none" stroke="midnightblue" d="M1093.08,-114.419C1122.13,-104.9 1173.45,-87.205 1189.51,-76 1208.09,-63.0402 1224.58,-42.7668 1234.98,-28.3091"/>
<polygon fill="midnightblue" stroke="midnightblue" points="1238.07,-29.9943 1240.9,-19.7836 1232.32,-26.0029 1238.07,-29.9943"/>
</g>
<!-- Node22&#45;&gt;Node20 -->
<g id="edge50" class="edge"><title>Node22&#45;&gt;Node20</title>
<path fill="none" stroke="midnightblue" d="M1051.87,-114.825C1013.72,-103.363 935.585,-79.6292 930.51,-76 913.266,-63.6681 899.654,-43.2441 891.395,-28.5796"/>
<polygon fill="midnightblue" stroke="midnightblue" points="894.353,-26.6886 886.554,-19.5176 888.179,-29.9871 894.353,-26.6886"/>
</g>
<!-- Node23 -->
<g id="node49" class="node"><title>Node23</title>
<polygon fill="none" stroke="#bfbfbf" points="999.51,-0.5 999.51,-19.5 1133.51,-19.5 1133.51,-0.5 999.51,-0.5"/>
<text text-anchor="middle" x="1066.51" y="-7.5" font-family="Helvetica,sans-Serif" font-size="10.00">freeradius&#45;devel/modules.h</text>
</g>
<!-- Node22&#45;&gt;Node23 -->
<g id="edge52" class="edge"><title>Node22&#45;&gt;Node23</title>
<path fill="none" stroke="midnightblue" d="M1051.8,-114.685C1015.27,-103.451 942.903,-80.7289 939.51,-76 919.437,-48.0177 958.629,-31.2574 998.632,-21.7834"/>
<polygon fill="midnightblue" stroke="midnightblue" points="999.509,-25.1739 1008.51,-19.5863 997.989,-18.3409 999.509,-25.1739"/>
</g>
<!-- Node24 -->
<g id="node51" class="node"><title>Node24</title>
<polygon fill="none" stroke="#bfbfbf" points="949.01,-56.5 949.01,-75.5 1092.01,-75.5 1092.01,-56.5 949.01,-56.5"/>
<text text-anchor="middle" x="1020.51" y="-63.5" font-family="Helvetica,sans-Serif" font-size="10.00">freeradius&#45;devel/rad_assert.h</text>
</g>
<!-- Node22&#45;&gt;Node24 -->
<g id="edge54" class="edge"><title>Node22&#45;&gt;Node24</title>
<path fill="none" stroke="midnightblue" d="M1063.92,-112.083C1056.35,-104.22 1045.13,-92.5688 1036,-83.0813"/>
<polygon fill="midnightblue" stroke="midnightblue" points="1038.39,-80.5266 1028.94,-75.7511 1033.35,-85.3821 1038.39,-80.5266"/>
</g>
<!-- Node25 -->
<g id="node53" class="node"><title>Node25</title>
<a xlink:href="eap__types_8h.html" target="_top" xlink:title="eap_types.h">
<polygon fill="none" stroke="black" points="1110.51,-56.5 1110.51,-75.5 1180.51,-75.5 1180.51,-56.5 1110.51,-56.5"/>
<text text-anchor="middle" x="1145.51" y="-63.5" font-family="Helvetica,sans-Serif" font-size="10.00">eap_types.h</text>
</a>
</g>
<!-- Node22&#45;&gt;Node25 -->
<g id="edge56" class="edge"><title>Node22&#45;&gt;Node25</title>
<path fill="none" stroke="midnightblue" d="M1084.24,-112.324C1095.35,-104.107 1112.25,-91.6017 1125.49,-81.8069"/>
<polygon fill="midnightblue" stroke="midnightblue" points="1127.61,-84.5948 1133.57,-75.8339 1123.45,-78.9671 1127.61,-84.5948"/>
</g>
<!-- Node25&#45;&gt;Node2 -->
<g id="edge58" class="edge"><title>Node25&#45;&gt;Node2</title>
<path fill="none" stroke="midnightblue" d="M1161.74,-56.324C1177.86,-47.7034 1202.81,-34.3643 1221.47,-24.3855"/>
<polygon fill="midnightblue" stroke="midnightblue" points="1223.15,-27.456 1230.32,-19.6545 1219.85,-21.283 1223.15,-27.456"/>
</g>
<!-- Node25&#45;&gt;Node20 -->
<g id="edge60" class="edge"><title>Node25&#45;&gt;Node20</title>
<path fill="none" stroke="midnightblue" d="M1110.31,-57.7734C1065.04,-48.478 986.06,-32.2612 934.025,-21.5771"/>
<polygon fill="midnightblue" stroke="midnightblue" points="934.494,-18.1006 923.995,-19.5177 933.086,-24.9575 934.494,-18.1006"/>
</g>
<!-- Node25&#45;&gt;Node23 -->
<g id="edge62" class="edge"><title>Node25&#45;&gt;Node23</title>
<path fill="none" stroke="midnightblue" d="M1132.82,-56.324C1120.61,-47.979 1101.93,-35.2122 1087.51,-25.3524"/>
<polygon fill="midnightblue" stroke="midnightblue" points="1089.4,-22.4082 1079.17,-19.6545 1085.45,-28.1871 1089.4,-22.4082"/>
</g>
</g>
</svg>
        <g id="navigator" transform="translate(0 0)" fill="#404254">
                <rect fill="#f2f5e9" fill-opacity="0.5" stroke="#606060" stroke-width=".5" x="0" y="0" width="60" height="60"/>
                <use id="zoomplus" xlink:href="#zoomPlus" x="17" y="9" onmousedown="handleZoom(evt,'in')"/>
                <use id="zoomminus" xlink:href="#zoomMin" x="42" y="9" onmousedown="handleZoom(evt,'out')"/>
                <use id="reset" xlink:href="#resetDef" x="30" y="36" onmousedown="handleReset()"/>
                <g id="arrowUp" xlink:href="#dirArrow" transform="translate(30 24)" onmousedown="handlePan(0,-1)">
                  <use xlink:href="#rim" fill="#404040">
                        <set attributeName="fill" to="#808080" begin="arrowUp.mouseover" end="arrowUp.mouseout"/>
                  </use>
                  <path fill="none" stroke="white" stroke-width="1.5" d="M0,-3.0v7 M-2.5,-0.5L0,-3.0L2.5,-0.5"/>
                </g>
                <g id="arrowRight" xlink:href="#dirArrow" transform="rotate(90) translate(36 -43)" onmousedown="handlePan(1,0)">
                  <use xlink:href="#rim" fill="#404040">
                        <set attributeName="fill" to="#808080" begin="arrowRight.mouseover" end="arrowRight.mouseout"/>
                  </use>
                  <path fill="none" stroke="white" stroke-width="1.5" d="M0,-3.0v7 M-2.5,-0.5L0,-3.0L2.5,-0.5"/>
                </g>
                <g id="arrowDown" xlink:href="#dirArrow" transform="rotate(180) translate(-30 -48)" onmousedown="handlePan(0,1)">
                  <use xlink:href="#rim" fill="#404040">
                        <set attributeName="fill" to="#808080" begin="arrowDown.mouseover" end="arrowDown.mouseout"/>
                  </use>
                  <path fill="none" stroke="white" stroke-width="1.5" d="M0,-3.0v7 M-2.5,-0.5L0,-3.0L2.5,-0.5"/>
                </g>
                <g id="arrowLeft" xlink:href="#dirArrow" transform="rotate(270) translate(-36 17)" onmousedown="handlePan(-1,0)">
                  <use xlink:href="#rim" fill="#404040">
                        <set attributeName="fill" to="#808080" begin="arrowLeft.mouseover" end="arrowLeft.mouseout"/>
                  </use>
                  <path fill="none" stroke="white" stroke-width="1.5" d="M0,-3.0v7 M-2.5,-0.5L0,-3.0L2.5,-0.5"/>
                </g>
        </g>
</svg>
