<?xml version="1.0" encoding="UTF-8" standalone="no"?>
<!DOCTYPE svg PUBLIC "-//W3C//DTD SVG 1.1//EN"
 "http://www.w3.org/Graphics/SVG/1.1/DTD/svg11.dtd">
<!-- Generated by graphviz version 2.28.0 (20111211.2114)
 -->
<!-- Title: G Pages: 1 -->
<!--zoomable-->
<svg id="main" version="1.1" xmlns="http://www.w3.org/2000/svg" xmlns:xlink="http://www.w3.org/1999/xlink" xml:space="preserve" onload="init(evt)">
        <defs>
                <circle id="rim" cx="0" cy="0" r="7"/>
                <circle id="rim2" cx="0" cy="0" r="3.5"/>
                <g id="zoomPlus">
                        <use xlink:href="#rim" fill="#404040">
                                <set attributeName="fill" to="#808080" begin="zoomplus.mouseover" end="zoomplus.mouseout"/>
                        </use>
                        <path d="M-4,0h8M0,-4v8" fill="none" stroke="white" stroke-width="1.5" pointer-events="none"/>
                </g>
                <g id="zoomMin">
                        <use xlink:href="#rim" fill="#404040">
                                <set attributeName="fill" to="#808080" begin="zoomminus.mouseover" end="zoomminus.mouseout"/>
                        </use>
                        <path d="M-4,0h8" fill="none" stroke="white" stroke-width="1.5" pointer-events="none"/>
                </g>
                <g id="dirArrow">
                        <path fill="none" stroke="white" stroke-width="1.5" d="M0,-3.0v7 M-2.5,-0.5L0,-3.0L2.5,-0.5"/>
                </g>
               <g id="resetDef">
                       <use xlink:href="#rim2" fill="#404040">
                               <set attributeName="fill" to="#808080" begin="reset.mouseover" end="reset.mouseout"/>
                       </use>
               </g>
        </defs>

<script type="text/javascript">
var viewWidth = 894;
var viewHeight = 252;
var sectionId = 'dynsection-0';
</script>
<script xlink:href="svgpan.js"/>
<svg id="graph" class="graph">
<g id="viewport">
<title>G</title>
<!-- Node1 -->
<g id="node1" class="node"><title>Node1</title>
<polygon fill="#bfbfbf" stroke="black" points="410.5,-224.5 410.5,-243.5 795.5,-243.5 795.5,-224.5 410.5,-224.5"/>
<text text-anchor="middle" x="603" y="-231.5" font-family="Helvetica,sans-Serif" font-size="10.00">/home/pjm3/freeradius&#45;server/src/modules/rlm_eap/types/rlm_eap_tnc/rlm_eap_tnc.c</text>
</g>
<!-- Node2 -->
<g id="node3" class="node"><title>Node2</title>
<polygon fill="none" stroke="#bfbfbf" points="298,-0.5 298,-19.5 416,-19.5 416,-0.5 298,-0.5"/>
<text text-anchor="middle" x="357" y="-7.5" font-family="Helvetica,sans-Serif" font-size="10.00">freeradius&#45;devel/ident.h</text>
</g>
<!-- Node1&#45;&gt;Node2 -->
<g id="edge2" class="edge"><title>Node1&#45;&gt;Node2</title>
<path fill="none" stroke="midnightblue" d="M542.749,-224.496C518.182,-218.178 491.31,-207.172 473,-188 430.749,-143.761 471.728,-104.154 434,-56 422.771,-41.6676 405.61,-31.0072 390.337,-23.6696"/>
<polygon fill="midnightblue" stroke="midnightblue" points="391.697,-20.4433 381.142,-19.5272 388.822,-26.8256 391.697,-20.4433"/>
</g>
<!-- Node3 -->
<g id="node5" class="node"><title>Node3</title>
<polygon fill="none" stroke="#bfbfbf" points="482,-168.5 482,-187.5 616,-187.5 616,-168.5 482,-168.5"/>
<text text-anchor="middle" x="549" y="-175.5" font-family="Helvetica,sans-Serif" font-size="10.00">freeradius&#45;devel/autoconf.h</text>
</g>
<!-- Node1&#45;&gt;Node3 -->
<g id="edge4" class="edge"><title>Node1&#45;&gt;Node3</title>
<path fill="none" stroke="midnightblue" d="M594.083,-224.083C586.22,-216.22 574.569,-204.569 565.081,-195.081"/>
<polygon fill="midnightblue" stroke="midnightblue" points="567.297,-192.347 557.751,-187.751 562.347,-197.297 567.297,-192.347"/>
</g>
<!-- Node4 -->
<g id="node7" class="node"><title>Node4</title>
<polygon fill="none" stroke="#bfbfbf" points="634,-168.5 634,-187.5 680,-187.5 680,-168.5 634,-168.5"/>
<text text-anchor="middle" x="657" y="-175.5" font-family="Helvetica,sans-Serif" font-size="10.00">stdio.h</text>
</g>
<!-- Node1&#45;&gt;Node4 -->
<g id="edge6" class="edge"><title>Node1&#45;&gt;Node4</title>
<path fill="none" stroke="midnightblue" d="M611.917,-224.083C619.78,-216.22 631.431,-204.569 640.919,-195.081"/>
<polygon fill="midnightblue" stroke="midnightblue" points="643.653,-197.297 648.249,-187.751 638.703,-192.347 643.653,-197.297"/>
</g>
<!-- Node5 -->
<g id="node9" class="node"><title>Node5</title>
<polygon fill="none" stroke="#bfbfbf" points="698,-168.5 698,-187.5 746,-187.5 746,-168.5 698,-168.5"/>
<text text-anchor="middle" x="722" y="-175.5" font-family="Helvetica,sans-Serif" font-size="10.00">stdlib.h</text>
</g>
<!-- Node1&#45;&gt;Node5 -->
<g id="edge8" class="edge"><title>Node1&#45;&gt;Node5</title>
<path fill="none" stroke="midnightblue" d="M621.856,-224.444C641.266,-215.636 671.73,-201.812 693.965,-191.722"/>
<polygon fill="midnightblue" stroke="midnightblue" points="695.572,-194.836 703.232,-187.516 692.68,-188.462 695.572,-194.836"/>
</g>
<!-- Node6 -->
<g id="node11" class="node"><title>Node6</title>
<a xlink:href="tncs__connect_8h.html" target="_top" xlink:title="tncs_connect.h">
<polygon fill="none" stroke="black" points="802.5,-168.5 802.5,-187.5 885.5,-187.5 885.5,-168.5 802.5,-168.5"/>
<text text-anchor="middle" x="844" y="-175.5" font-family="Helvetica,sans-Serif" font-size="10.00">tncs_connect.h</text>
</a>
</g>
<!-- Node1&#45;&gt;Node6 -->
<g id="edge10" class="edge"><title>Node1&#45;&gt;Node6</title>
<path fill="none" stroke="midnightblue" d="M641.187,-224.444C683.141,-215.043 750.594,-199.929 796.071,-189.739"/>
<polygon fill="midnightblue" stroke="midnightblue" points="796.999,-193.118 805.991,-187.516 795.468,-186.288 796.999,-193.118"/>
</g>
<!-- Node7 -->
<g id="node13" class="node"><title>Node7</title>
<a xlink:href="tncs_8h.html" target="_top" xlink:title="tncs.h">
<polygon fill="none" stroke="black" points="787,-112.5 787,-131.5 831,-131.5 831,-112.5 787,-112.5"/>
<text text-anchor="middle" x="809" y="-119.5" font-family="Helvetica,sans-Serif" font-size="10.00">tncs.h</text>
</a>
</g>
<!-- Node1&#45;&gt;Node7 -->
<g id="edge34" class="edge"><title>Node1&#45;&gt;Node7</title>
<path fill="none" stroke="midnightblue" d="M659.834,-224.424C689.953,-217.924 726.505,-206.779 755,-188 773.691,-175.682 789.284,-154.958 798.833,-140.223"/>
<polygon fill="midnightblue" stroke="midnightblue" points="801.913,-141.897 804.206,-131.554 795.963,-138.209 801.913,-141.897"/>
</g>
<!-- Node8 -->
<g id="node15" class="node"><title>Node8</title>
<a xlink:href="eap__tnc_8h.html" target="_top" xlink:title="eap_tnc.h">
<polygon fill="none" stroke="black" points="267.5,-168.5 267.5,-187.5 326.5,-187.5 326.5,-168.5 267.5,-168.5"/>
<text text-anchor="middle" x="297" y="-175.5" font-family="Helvetica,sans-Serif" font-size="10.00">eap_tnc.h</text>
</a>
</g>
<!-- Node1&#45;&gt;Node8 -->
<g id="edge14" class="edge"><title>Node1&#45;&gt;Node8</title>
<path fill="none" stroke="midnightblue" d="M554.513,-224.444C494.227,-213.805 392.471,-195.848 336.627,-185.993"/>
<polygon fill="midnightblue" stroke="midnightblue" points="337.21,-182.542 326.754,-184.251 335.993,-189.435 337.21,-182.542"/>
</g>
<!-- Node12 -->
<g id="node24" class="node"><title>Node12</title>
<polygon fill="none" stroke="#bfbfbf" points="282.5,-56.5 282.5,-75.5 425.5,-75.5 425.5,-56.5 282.5,-56.5"/>
<text text-anchor="middle" x="354" y="-63.5" font-family="Helvetica,sans-Serif" font-size="10.00">freeradius&#45;devel/rad_assert.h</text>
</g>
<!-- Node1&#45;&gt;Node12 -->
<g id="edge36" class="edge"><title>Node1&#45;&gt;Node12</title>
<path fill="none" stroke="midnightblue" d="M533.077,-224.465C502.421,-218.13 467.289,-207.119 440,-188 401.614,-161.107 374.366,-111.36 361.803,-84.8011"/>
<polygon fill="midnightblue" stroke="midnightblue" points="364.92,-83.2022 357.584,-75.5581 358.552,-86.1086 364.92,-83.2022"/>
</g>
<!-- Node6&#45;&gt;Node7 -->
<g id="edge12" class="edge"><title>Node6&#45;&gt;Node7</title>
<path fill="none" stroke="midnightblue" d="M838.22,-168.083C833.328,-160.534 826.173,-149.495 820.167,-140.23"/>
<polygon fill="midnightblue" stroke="midnightblue" points="823.048,-138.239 814.672,-131.751 817.174,-142.046 823.048,-138.239"/>
</g>
<!-- Node9 -->
<g id="node17" class="node"><title>Node9</title>
<a xlink:href="eap_8h.html" target="_top" xlink:title="eap.h">
<polygon fill="none" stroke="black" points="214.5,-112.5 214.5,-131.5 255.5,-131.5 255.5,-112.5 214.5,-112.5"/>
<text text-anchor="middle" x="235" y="-119.5" font-family="Helvetica,sans-Serif" font-size="10.00">eap.h</text>
</a>
</g>
<!-- Node8&#45;&gt;Node9 -->
<g id="edge16" class="edge"><title>Node8&#45;&gt;Node9</title>
<path fill="none" stroke="midnightblue" d="M287.039,-168.324C277.873,-160.341 264.063,-148.313 252.972,-138.653"/>
<polygon fill="midnightblue" stroke="midnightblue" points="254.982,-135.762 245.143,-131.834 250.385,-141.041 254.982,-135.762"/>
</g>
<!-- Node9&#45;&gt;Node2 -->
<g id="edge18" class="edge"><title>Node9&#45;&gt;Node2</title>
<path fill="none" stroke="midnightblue" d="M238.216,-112.427C243.626,-98.966 255.679,-72.6878 273,-56 287.541,-41.9905 307.309,-31.1111 324.016,-23.5614"/>
<polygon fill="midnightblue" stroke="midnightblue" points="325.637,-26.6739 333.436,-19.5025 322.867,-20.2453 325.637,-26.6739"/>
</g>
<!-- Node10 -->
<g id="node20" class="node"><title>Node10</title>
<polygon fill="none" stroke="#bfbfbf" points="152,-0.5 152,-19.5 280,-19.5 280,-0.5 152,-0.5"/>
<text text-anchor="middle" x="216" y="-7.5" font-family="Helvetica,sans-Serif" font-size="10.00">freeradius&#45;devel/radiusd.h</text>
</g>
<!-- Node9&#45;&gt;Node10 -->
<g id="edge20" class="edge"><title>Node9&#45;&gt;Node10</title>
<path fill="none" stroke="midnightblue" d="M233.509,-112.368C230.443,-94.617 223.37,-53.6664 219.212,-29.5974"/>
<polygon fill="midnightblue" stroke="midnightblue" points="222.635,-28.8498 217.484,-19.5914 215.737,-30.0413 222.635,-28.8498"/>
</g>
<!-- Node11 -->
<g id="node22" class="node"><title>Node11</title>
<polygon fill="none" stroke="#bfbfbf" points="0,-0.5 0,-19.5 134,-19.5 134,-0.5 0,-0.5"/>
<text text-anchor="middle" x="67" y="-7.5" font-family="Helvetica,sans-Serif" font-size="10.00">freeradius&#45;devel/modules.h</text>
</g>
<!-- Node9&#45;&gt;Node11 -->
<g id="edge22" class="edge"><title>Node9&#45;&gt;Node11</title>
<path fill="none" stroke="midnightblue" d="M214.249,-117.833C187.503,-112.869 140.678,-101.101 109,-76 93.4084,-63.6455 81.8027,-43.8388 74.7879,-29.3327"/>
<polygon fill="midnightblue" stroke="midnightblue" points="77.8213,-27.5476 70.5,-19.8893 71.4476,-30.4417 77.8213,-27.5476"/>
</g>
<!-- Node9&#45;&gt;Node12 -->
<g id="edge24" class="edge"><title>Node9&#45;&gt;Node12</title>
<path fill="none" stroke="midnightblue" d="M253.856,-112.444C273.266,-103.636 303.73,-89.8116 325.965,-79.722"/>
<polygon fill="midnightblue" stroke="midnightblue" points="327.572,-82.836 335.232,-75.5164 324.68,-76.4615 327.572,-82.836"/>
</g>
<!-- Node13 -->
<g id="node26" class="node"><title>Node13</title>
<a xlink:href="eap__types_8h.html" target="_top" xlink:title="eap_types.h">
<polygon fill="none" stroke="black" points="118,-56.5 118,-75.5 188,-75.5 188,-56.5 118,-56.5"/>
<text text-anchor="middle" x="153" y="-63.5" font-family="Helvetica,sans-Serif" font-size="10.00">eap_types.h</text>
</a>
</g>
<!-- Node9&#45;&gt;Node13 -->
<g id="edge26" class="edge"><title>Node9&#45;&gt;Node13</title>
<path fill="none" stroke="midnightblue" d="M221.825,-112.324C209.153,-103.979 189.767,-91.2122 174.794,-81.3524"/>
<polygon fill="midnightblue" stroke="midnightblue" points="176.419,-78.2313 166.142,-75.6545 172.569,-84.0776 176.419,-78.2313"/>
</g>
<!-- Node13&#45;&gt;Node2 -->
<g id="edge28" class="edge"><title>Node13&#45;&gt;Node2</title>
<path fill="none" stroke="midnightblue" d="M185.324,-56.4435C220.389,-47.1616 276.498,-32.3093 314.965,-22.127"/>
<polygon fill="midnightblue" stroke="midnightblue" points="316.055,-25.4589 324.827,-19.5164 314.264,-18.692 316.055,-25.4589"/>
</g>
<!-- Node13&#45;&gt;Node10 -->
<g id="edge30" class="edge"><title>Node13&#45;&gt;Node10</title>
<path fill="none" stroke="midnightblue" d="M163.122,-56.324C172.526,-48.2631 186.744,-36.0765 198.069,-26.3695"/>
<polygon fill="midnightblue" stroke="midnightblue" points="200.379,-28.9993 205.694,-19.8339 195.823,-23.6844 200.379,-28.9993"/>
</g>
<!-- Node13&#45;&gt;Node11 -->
<g id="edge32" class="edge"><title>Node13&#45;&gt;Node11</title>
<path fill="none" stroke="midnightblue" d="M139.183,-56.324C125.767,-47.9002 105.176,-34.9709 89.4144,-25.0741"/>
<polygon fill="midnightblue" stroke="midnightblue" points="91.1132,-22.0081 80.7831,-19.6545 87.3908,-27.9364 91.1132,-22.0081"/>
</g>
</g>
</svg>
        <g id="navigator" transform="translate(0 0)" fill="#404254">
                <rect fill="#f2f5e9" fill-opacity="0.5" stroke="#606060" stroke-width=".5" x="0" y="0" width="60" height="60"/>
                <use id="zoomplus" xlink:href="#zoomPlus" x="17" y="9" onmousedown="handleZoom(evt,'in')"/>
                <use id="zoomminus" xlink:href="#zoomMin" x="42" y="9" onmousedown="handleZoom(evt,'out')"/>
                <use id="reset" xlink:href="#resetDef" x="30" y="36" onmousedown="handleReset()"/>
                <g id="arrowUp" xlink:href="#dirArrow" transform="translate(30 24)" onmousedown="handlePan(0,-1)">
                  <use xlink:href="#rim" fill="#404040">
                        <set attributeName="fill" to="#808080" begin="arrowUp.mouseover" end="arrowUp.mouseout"/>
                  </use>
                  <path fill="none" stroke="white" stroke-width="1.5" d="M0,-3.0v7 M-2.5,-0.5L0,-3.0L2.5,-0.5"/>
                </g>
                <g id="arrowRight" xlink:href="#dirArrow" transform="rotate(90) translate(36 -43)" onmousedown="handlePan(1,0)">
                  <use xlink:href="#rim" fill="#404040">
                        <set attributeName="fill" to="#808080" begin="arrowRight.mouseover" end="arrowRight.mouseout"/>
                  </use>
                  <path fill="none" stroke="white" stroke-width="1.5" d="M0,-3.0v7 M-2.5,-0.5L0,-3.0L2.5,-0.5"/>
                </g>
                <g id="arrowDown" xlink:href="#dirArrow" transform="rotate(180) translate(-30 -48)" onmousedown="handlePan(0,1)">
                  <use xlink:href="#rim" fill="#404040">
                        <set attributeName="fill" to="#808080" begin="arrowDown.mouseover" end="arrowDown.mouseout"/>
                  </use>
                  <path fill="none" stroke="white" stroke-width="1.5" d="M0,-3.0v7 M-2.5,-0.5L0,-3.0L2.5,-0.5"/>
                </g>
                <g id="arrowLeft" xlink:href="#dirArrow" transform="rotate(270) translate(-36 17)" onmousedown="handlePan(-1,0)">
                  <use xlink:href="#rim" fill="#404040">
                        <set attributeName="fill" to="#808080" begin="arrowLeft.mouseover" end="arrowLeft.mouseout"/>
                  </use>
                  <path fill="none" stroke="white" stroke-width="1.5" d="M0,-3.0v7 M-2.5,-0.5L0,-3.0L2.5,-0.5"/>
                </g>
        </g>
</svg>
