<?xml version="1.0" encoding="UTF-8" standalone="no"?>
<!DOCTYPE svg PUBLIC "-//W3C//DTD SVG 1.1//EN"
 "http://www.w3.org/Graphics/SVG/1.1/DTD/svg11.dtd">
<!-- Generated by graphviz version 2.28.0 (20111211.2114)
 -->
<!-- Title: G Pages: 1 -->
<svg width="367pt" height="140pt"
 viewBox="0.00 0.00 366.57 140.00" xmlns="http://www.w3.org/2000/svg" xmlns:xlink="http://www.w3.org/1999/xlink">
<g id="graph1" class="graph" transform="scale(1 1) rotate(0) translate(4 136)">
<title>G</title>
<!-- Node1 -->
<g id="node1" class="node"><title>Node1</title>
<polygon fill="#bfbfbf" stroke="black" points="9.07201,-112.5 9.07201,-131.5 298.072,-131.5 298.072,-112.5 9.07201,-112.5"/>
<text text-anchor="middle" x="153.572" y="-119.5" font-family="Helvetica,sans-Serif" font-size="10.00">/home/pjm3/freeradius&#45;server/src/modules/rlm_smb/rlm_smb.c</text>
</g>
<!-- Node2 -->
<g id="node3" class="node"><title>Node2</title>
<polygon fill="none" stroke="#bfbfbf" points="102.572,-0.5 102.572,-19.5 220.572,-19.5 220.572,-0.5 102.572,-0.5"/>
<text text-anchor="middle" x="161.572" y="-7.5" font-family="Helvetica,sans-Serif" font-size="10.00">freeradius&#45;devel/ident.h</text>
</g>
<!-- Node1&#45;&gt;Node2 -->
<g id="edge2" class="edge"><title>Node1&#45;&gt;Node2</title>
<path fill="none" stroke="midnightblue" d="M76.9274,-112.481C29.9389,-103.985 -17.0546,-87.4616 6.57201,-56 17.9249,-40.8823 60.376,-29.1989 97.9862,-21.5297"/>
<polygon fill="midnightblue" stroke="midnightblue" points="98.793,-24.9381 107.927,-19.5703 97.4393,-18.0702 98.793,-24.9381"/>
</g>
<!-- Node3 -->
<g id="node5" class="node"><title>Node3</title>
<polygon fill="none" stroke="#bfbfbf" points="15.572,-56.5 15.572,-75.5 143.572,-75.5 143.572,-56.5 15.572,-56.5"/>
<text text-anchor="middle" x="79.572" y="-63.5" font-family="Helvetica,sans-Serif" font-size="10.00">freeradius&#45;devel/radiusd.h</text>
</g>
<!-- Node1&#45;&gt;Node3 -->
<g id="edge4" class="edge"><title>Node1&#45;&gt;Node3</title>
<path fill="none" stroke="midnightblue" d="M141.683,-112.324C130.422,-104.107 113.285,-91.6017 99.8629,-81.8069"/>
<polygon fill="midnightblue" stroke="midnightblue" points="101.819,-78.9014 91.6777,-75.8339 97.6925,-84.5559 101.819,-78.9014"/>
</g>
<!-- Node4 -->
<g id="node7" class="node"><title>Node4</title>
<polygon fill="none" stroke="#bfbfbf" points="161.572,-56.5 161.572,-75.5 295.572,-75.5 295.572,-56.5 161.572,-56.5"/>
<text text-anchor="middle" x="228.572" y="-63.5" font-family="Helvetica,sans-Serif" font-size="10.00">freeradius&#45;devel/modules.h</text>
</g>
<!-- Node1&#45;&gt;Node4 -->
<g id="edge6" class="edge"><title>Node1&#45;&gt;Node4</title>
<path fill="none" stroke="midnightblue" d="M165.622,-112.324C177.035,-104.107 194.403,-91.6017 208.007,-81.8069"/>
<polygon fill="midnightblue" stroke="midnightblue" points="210.232,-84.5174 216.303,-75.8339 206.142,-78.8366 210.232,-84.5174"/>
</g>
<!-- Node5 -->
<g id="node9" class="node"><title>Node5</title>
<a xlink:href="valid_8h.html" target="_top" xlink:title="valid.h">
<polygon fill="none" stroke="black" points="314.072,-56.5 314.072,-75.5 359.072,-75.5 359.072,-56.5 314.072,-56.5"/>
<text text-anchor="middle" x="336.572" y="-63.5" font-family="Helvetica,sans-Serif" font-size="10.00">valid.h</text>
</a>
</g>
<!-- Node1&#45;&gt;Node5 -->
<g id="edge8" class="edge"><title>Node1&#45;&gt;Node5</title>
<path fill="none" stroke="midnightblue" d="M182.569,-112.444C215.632,-102.687 269.552,-86.7764 304.027,-76.6036"/>
<polygon fill="midnightblue" stroke="midnightblue" points="305.456,-79.831 314.057,-73.6439 303.475,-73.1172 305.456,-79.831"/>
</g>
<!-- Node5&#45;&gt;Node2 -->
<g id="edge10" class="edge"><title>Node5&#45;&gt;Node2</title>
<path fill="none" stroke="midnightblue" d="M314.052,-58.051C284.981,-49.0805 233.987,-33.3452 199.036,-22.5603"/>
<polygon fill="midnightblue" stroke="midnightblue" points="199.779,-19.1267 189.191,-19.5225 197.715,-25.8155 199.779,-19.1267"/>
</g>
</g>
</svg>
