<?xml version="1.0" encoding="UTF-8" standalone="no"?>
<!DOCTYPE svg PUBLIC "-//W3C//DTD SVG 1.1//EN"
 "http://www.w3.org/Graphics/SVG/1.1/DTD/svg11.dtd">
<!-- Generated by graphviz version 2.28.0 (20111211.2114)
 -->
<!-- Title: G Pages: 1 -->
<!--zoomable-->
<svg id="main" version="1.1" xmlns="http://www.w3.org/2000/svg" xmlns:xlink="http://www.w3.org/1999/xlink" xml:space="preserve" onload="init(evt)">
        <defs>
                <circle id="rim" cx="0" cy="0" r="7"/>
                <circle id="rim2" cx="0" cy="0" r="3.5"/>
                <g id="zoomPlus">
                        <use xlink:href="#rim" fill="#404040">
                                <set attributeName="fill" to="#808080" begin="zoomplus.mouseover" end="zoomplus.mouseout"/>
                        </use>
                        <path d="M-4,0h8M0,-4v8" fill="none" stroke="white" stroke-width="1.5" pointer-events="none"/>
                </g>
                <g id="zoomMin">
                        <use xlink:href="#rim" fill="#404040">
                                <set attributeName="fill" to="#808080" begin="zoomminus.mouseover" end="zoomminus.mouseout"/>
                        </use>
                        <path d="M-4,0h8" fill="none" stroke="white" stroke-width="1.5" pointer-events="none"/>
                </g>
                <g id="dirArrow">
                        <path fill="none" stroke="white" stroke-width="1.5" d="M0,-3.0v7 M-2.5,-0.5L0,-3.0L2.5,-0.5"/>
                </g>
               <g id="resetDef">
                       <use xlink:href="#rim2" fill="#404040">
                               <set attributeName="fill" to="#808080" begin="reset.mouseover" end="reset.mouseout"/>
                       </use>
               </g>
        </defs>

<script type="text/javascript">
var viewWidth = 565;
var viewHeight = 252;
var sectionId = 'dynsection-0';
</script>
<script xlink:href="svgpan.js"/>
<svg id="graph" class="graph">
<g id="viewport">
<title>G</title>
<!-- Node1 -->
<g id="node1" class="node"><title>Node1</title>
<polygon fill="#bfbfbf" stroke="black" points="114.5,-224.5 114.5,-243.5 509.5,-243.5 509.5,-224.5 114.5,-224.5"/>
<text text-anchor="middle" x="312" y="-231.5" font-family="Helvetica,sans-Serif" font-size="10.00">/home/pjm3/freeradius&#45;server/src/modules/rlm_eap/types/rlm_eap_md5/rlm_eap_md5.c</text>
</g>
<!-- Node2 -->
<g id="node3" class="node"><title>Node2</title>
<polygon fill="none" stroke="#bfbfbf" points="0,-0.5 0,-19.5 118,-19.5 118,-0.5 0,-0.5"/>
<text text-anchor="middle" x="59" y="-7.5" font-family="Helvetica,sans-Serif" font-size="10.00">freeradius&#45;devel/ident.h</text>
</g>
<!-- Node1&#45;&gt;Node2 -->
<g id="edge2" class="edge"><title>Node1&#45;&gt;Node2</title>
<path fill="none" stroke="midnightblue" d="M250.306,-224.472C221.343,-218.101 187.639,-207.057 162,-188 106.402,-146.675 75.77,-65.722 64.3072,-29.4024"/>
<polygon fill="midnightblue" stroke="midnightblue" points="67.6047,-28.215 61.3588,-19.657 60.9046,-30.2421 67.6047,-28.215"/>
</g>
<!-- Node3 -->
<g id="node5" class="node"><title>Node3</title>
<polygon fill="none" stroke="#bfbfbf" points="293,-168.5 293,-187.5 427,-187.5 427,-168.5 293,-168.5"/>
<text text-anchor="middle" x="360" y="-175.5" font-family="Helvetica,sans-Serif" font-size="10.00">freeradius&#45;devel/autoconf.h</text>
</g>
<!-- Node1&#45;&gt;Node3 -->
<g id="edge4" class="edge"><title>Node1&#45;&gt;Node3</title>
<path fill="none" stroke="midnightblue" d="M319.926,-224.083C326.846,-216.298 337.065,-204.801 345.452,-195.367"/>
<polygon fill="midnightblue" stroke="midnightblue" points="348.194,-197.55 352.221,-187.751 342.962,-192.9 348.194,-197.55"/>
</g>
<!-- Node4 -->
<g id="node7" class="node"><title>Node4</title>
<polygon fill="none" stroke="#bfbfbf" points="445,-168.5 445,-187.5 491,-187.5 491,-168.5 445,-168.5"/>
<text text-anchor="middle" x="468" y="-175.5" font-family="Helvetica,sans-Serif" font-size="10.00">stdio.h</text>
</g>
<!-- Node1&#45;&gt;Node4 -->
<g id="edge6" class="edge"><title>Node1&#45;&gt;Node4</title>
<path fill="none" stroke="midnightblue" d="M336.719,-224.444C363.31,-215.239 405.726,-200.556 435.117,-190.383"/>
<polygon fill="midnightblue" stroke="midnightblue" points="436.618,-193.567 444.923,-186.988 434.328,-186.952 436.618,-193.567"/>
</g>
<!-- Node5 -->
<g id="node9" class="node"><title>Node5</title>
<polygon fill="none" stroke="#bfbfbf" points="509,-168.5 509,-187.5 557,-187.5 557,-168.5 509,-168.5"/>
<text text-anchor="middle" x="533" y="-175.5" font-family="Helvetica,sans-Serif" font-size="10.00">stdlib.h</text>
</g>
<!-- Node1&#45;&gt;Node5 -->
<g id="edge8" class="edge"><title>Node1&#45;&gt;Node5</title>
<path fill="none" stroke="midnightblue" d="M349.183,-224.462C385.092,-216.136 441.252,-202.905 498.863,-188.234"/>
<polygon fill="midnightblue" stroke="midnightblue" points="500.052,-191.543 508.873,-185.674 498.317,-184.761 500.052,-191.543"/>
</g>
<!-- Node6 -->
<g id="node11" class="node"><title>Node6</title>
<a xlink:href="eap__md5_8h.html" target="_top" xlink:title="eap_md5.h">
<polygon fill="none" stroke="black" points="171.5,-168.5 171.5,-187.5 236.5,-187.5 236.5,-168.5 171.5,-168.5"/>
<text text-anchor="middle" x="204" y="-175.5" font-family="Helvetica,sans-Serif" font-size="10.00">eap_md5.h</text>
</a>
</g>
<!-- Node1&#45;&gt;Node6 -->
<g id="edge10" class="edge"><title>Node1&#45;&gt;Node6</title>
<path fill="none" stroke="midnightblue" d="M294.648,-224.324C277.328,-215.664 250.485,-202.242 230.498,-192.249"/>
<polygon fill="midnightblue" stroke="midnightblue" points="231.819,-188.996 221.309,-187.655 228.688,-195.257 231.819,-188.996"/>
</g>
<!-- Node10 -->
<g id="node21" class="node"><title>Node10</title>
<polygon fill="none" stroke="#bfbfbf" points="308.5,-56.5 308.5,-75.5 451.5,-75.5 451.5,-56.5 308.5,-56.5"/>
<text text-anchor="middle" x="380" y="-63.5" font-family="Helvetica,sans-Serif" font-size="10.00">freeradius&#45;devel/rad_assert.h</text>
</g>
<!-- Node1&#45;&gt;Node10 -->
<g id="edge32" class="edge"><title>Node1&#45;&gt;Node10</title>
<path fill="none" stroke="midnightblue" d="M303.526,-224.231C292.593,-211.802 275.887,-188.311 284,-168 298.959,-130.548 335.144,-99.0445 358.567,-81.6232"/>
<polygon fill="midnightblue" stroke="midnightblue" points="360.784,-84.3399 366.849,-75.6528 356.69,-78.6617 360.784,-84.3399"/>
</g>
<!-- Node6&#45;&gt;Node2 -->
<g id="edge12" class="edge"><title>Node6&#45;&gt;Node2</title>
<path fill="none" stroke="midnightblue" d="M195.174,-168.398C177.828,-151.345 138.342,-111.805 108,-76 94.6381,-60.2321 80.551,-41.2661 70.9283,-27.9023"/>
<polygon fill="midnightblue" stroke="midnightblue" points="73.7004,-25.7615 65.0434,-19.6536 68.002,-29.827 73.7004,-25.7615"/>
</g>
<!-- Node7 -->
<g id="node14" class="node"><title>Node7</title>
<a xlink:href="eap_8h.html" target="_top" xlink:title="eap.h">
<polygon fill="none" stroke="black" points="189.5,-112.5 189.5,-131.5 230.5,-131.5 230.5,-112.5 189.5,-112.5"/>
<text text-anchor="middle" x="210" y="-119.5" font-family="Helvetica,sans-Serif" font-size="10.00">eap.h</text>
</a>
</g>
<!-- Node6&#45;&gt;Node7 -->
<g id="edge14" class="edge"><title>Node6&#45;&gt;Node7</title>
<path fill="none" stroke="midnightblue" d="M204.991,-168.083C205.786,-160.927 206.929,-150.635 207.923,-141.691"/>
<polygon fill="midnightblue" stroke="midnightblue" points="211.402,-142.076 209.028,-131.751 204.445,-141.303 211.402,-142.076"/>
</g>
<!-- Node7&#45;&gt;Node2 -->
<g id="edge16" class="edge"><title>Node7&#45;&gt;Node2</title>
<path fill="none" stroke="midnightblue" d="M194.002,-112.428C178.476,-103.874 154.471,-90.0178 135,-76 113.363,-60.4225 90.3371,-40.1448 75.3745,-26.411"/>
<polygon fill="midnightblue" stroke="midnightblue" points="77.6633,-23.7602 67.9514,-19.5258 72.9029,-28.8924 77.6633,-23.7602"/>
</g>
<!-- Node8 -->
<g id="node17" class="node"><title>Node8</title>
<polygon fill="none" stroke="#bfbfbf" points="288,-0.5 288,-19.5 416,-19.5 416,-0.5 288,-0.5"/>
<text text-anchor="middle" x="352" y="-7.5" font-family="Helvetica,sans-Serif" font-size="10.00">freeradius&#45;devel/radiusd.h</text>
</g>
<!-- Node7&#45;&gt;Node8 -->
<g id="edge18" class="edge"><title>Node7&#45;&gt;Node8</title>
<path fill="none" stroke="midnightblue" d="M221.143,-112.368C245.302,-93.6531 302.751,-49.1509 332.853,-25.8324"/>
<polygon fill="midnightblue" stroke="midnightblue" points="335.147,-28.4824 340.909,-19.5914 330.86,-22.9485 335.147,-28.4824"/>
</g>
<!-- Node9 -->
<g id="node19" class="node"><title>Node9</title>
<polygon fill="none" stroke="#bfbfbf" points="136,-0.5 136,-19.5 270,-19.5 270,-0.5 136,-0.5"/>
<text text-anchor="middle" x="203" y="-7.5" font-family="Helvetica,sans-Serif" font-size="10.00">freeradius&#45;devel/modules.h</text>
</g>
<!-- Node7&#45;&gt;Node9 -->
<g id="edge20" class="edge"><title>Node7&#45;&gt;Node9</title>
<path fill="none" stroke="midnightblue" d="M214.069,-112.155C219.306,-99.6357 227.252,-76.0384 223,-56 221.003,-46.5915 216.899,-36.7618 212.925,-28.6981"/>
<polygon fill="midnightblue" stroke="midnightblue" points="215.887,-26.8101 208.13,-19.5932 209.693,-30.0721 215.887,-26.8101"/>
</g>
<!-- Node7&#45;&gt;Node10 -->
<g id="edge22" class="edge"><title>Node7&#45;&gt;Node10</title>
<path fill="none" stroke="midnightblue" d="M230.506,-114.486C258.396,-105.627 308.761,-89.6289 343.261,-78.67"/>
<polygon fill="midnightblue" stroke="midnightblue" points="344.506,-81.947 352.977,-75.5837 342.387,-75.2755 344.506,-81.947"/>
</g>
<!-- Node11 -->
<g id="node23" class="node"><title>Node11</title>
<a xlink:href="eap__types_8h.html" target="_top" xlink:title="eap_types.h">
<polygon fill="none" stroke="black" points="144,-56.5 144,-75.5 214,-75.5 214,-56.5 144,-56.5"/>
<text text-anchor="middle" x="179" y="-63.5" font-family="Helvetica,sans-Serif" font-size="10.00">eap_types.h</text>
</a>
</g>
<!-- Node7&#45;&gt;Node11 -->
<g id="edge24" class="edge"><title>Node7&#45;&gt;Node11</title>
<path fill="none" stroke="midnightblue" d="M204.881,-112.083C200.592,-104.613 194.342,-93.7244 189.058,-84.5199"/>
<polygon fill="midnightblue" stroke="midnightblue" points="192.038,-82.6811 184.024,-75.7511 185.967,-86.1662 192.038,-82.6811"/>
</g>
<!-- Node11&#45;&gt;Node2 -->
<g id="edge26" class="edge"><title>Node11&#45;&gt;Node2</title>
<path fill="none" stroke="midnightblue" d="M159.986,-56.4435C140.412,-47.6356 109.692,-33.8116 87.2711,-23.722"/>
<polygon fill="midnightblue" stroke="midnightblue" points="88.4809,-20.4284 77.9254,-19.5164 85.6083,-26.8119 88.4809,-20.4284"/>
</g>
<!-- Node11&#45;&gt;Node8 -->
<g id="edge28" class="edge"><title>Node11&#45;&gt;Node8</title>
<path fill="none" stroke="midnightblue" d="M206.412,-56.4435C235.769,-47.2801 282.519,-32.6876 315.096,-22.5192"/>
<polygon fill="midnightblue" stroke="midnightblue" points="316.213,-25.8371 324.716,-19.5164 314.127,-19.1551 316.213,-25.8371"/>
</g>
<!-- Node11&#45;&gt;Node9 -->
<g id="edge30" class="edge"><title>Node11&#45;&gt;Node9</title>
<path fill="none" stroke="midnightblue" d="M182.963,-56.083C186.213,-48.77 190.919,-38.1814 194.954,-29.1034"/>
<polygon fill="midnightblue" stroke="midnightblue" points="198.248,-30.3107 199.111,-19.7511 191.851,-27.4677 198.248,-30.3107"/>
</g>
</g>
</svg>
        <g id="navigator" transform="translate(0 0)" fill="#404254">
                <rect fill="#f2f5e9" fill-opacity="0.5" stroke="#606060" stroke-width=".5" x="0" y="0" width="60" height="60"/>
                <use id="zoomplus" xlink:href="#zoomPlus" x="17" y="9" onmousedown="handleZoom(evt,'in')"/>
                <use id="zoomminus" xlink:href="#zoomMin" x="42" y="9" onmousedown="handleZoom(evt,'out')"/>
                <use id="reset" xlink:href="#resetDef" x="30" y="36" onmousedown="handleReset()"/>
                <g id="arrowUp" xlink:href="#dirArrow" transform="translate(30 24)" onmousedown="handlePan(0,-1)">
                  <use xlink:href="#rim" fill="#404040">
                        <set attributeName="fill" to="#808080" begin="arrowUp.mouseover" end="arrowUp.mouseout"/>
                  </use>
                  <path fill="none" stroke="white" stroke-width="1.5" d="M0,-3.0v7 M-2.5,-0.5L0,-3.0L2.5,-0.5"/>
                </g>
                <g id="arrowRight" xlink:href="#dirArrow" transform="rotate(90) translate(36 -43)" onmousedown="handlePan(1,0)">
                  <use xlink:href="#rim" fill="#404040">
                        <set attributeName="fill" to="#808080" begin="arrowRight.mouseover" end="arrowRight.mouseout"/>
                  </use>
                  <path fill="none" stroke="white" stroke-width="1.5" d="M0,-3.0v7 M-2.5,-0.5L0,-3.0L2.5,-0.5"/>
                </g>
                <g id="arrowDown" xlink:href="#dirArrow" transform="rotate(180) translate(-30 -48)" onmousedown="handlePan(0,1)">
                  <use xlink:href="#rim" fill="#404040">
                        <set attributeName="fill" to="#808080" begin="arrowDown.mouseover" end="arrowDown.mouseout"/>
                  </use>
                  <path fill="none" stroke="white" stroke-width="1.5" d="M0,-3.0v7 M-2.5,-0.5L0,-3.0L2.5,-0.5"/>
                </g>
                <g id="arrowLeft" xlink:href="#dirArrow" transform="rotate(270) translate(-36 17)" onmousedown="handlePan(-1,0)">
                  <use xlink:href="#rim" fill="#404040">
                        <set attributeName="fill" to="#808080" begin="arrowLeft.mouseover" end="arrowLeft.mouseout"/>
                  </use>
                  <path fill="none" stroke="white" stroke-width="1.5" d="M0,-3.0v7 M-2.5,-0.5L0,-3.0L2.5,-0.5"/>
                </g>
        </g>
</svg>
