<?xml version="1.0" encoding="UTF-8" standalone="no"?>
<!DOCTYPE svg PUBLIC "-//W3C//DTD SVG 1.1//EN"
 "http://www.w3.org/Graphics/SVG/1.1/DTD/svg11.dtd">
<!-- Generated by graphviz version 2.28.0 (20111211.2114)
 -->
<!-- Title: G Pages: 1 -->
<svg width="499pt" height="140pt"
 viewBox="0.00 0.00 499.00 140.00" xmlns="http://www.w3.org/2000/svg" xmlns:xlink="http://www.w3.org/1999/xlink">
<g id="graph1" class="graph" transform="scale(1 1) rotate(0) translate(4 136)">
<title>G</title>
<!-- Node1 -->
<g id="node1" class="node"><title>Node1</title>
<polygon fill="#bfbfbf" stroke="black" points="40,-112.5 40,-131.5 368,-131.5 368,-112.5 40,-112.5"/>
<text text-anchor="middle" x="204" y="-119.5" font-family="Helvetica,sans-Serif" font-size="10.00">/home/pjm3/freeradius&#45;server/src/modules/rlm_sqlippool/rlm_sqlippool.c</text>
</g>
<!-- Node2 -->
<g id="node3" class="node"><title>Node2</title>
<polygon fill="none" stroke="#bfbfbf" points="0,-0.5 0,-19.5 118,-19.5 118,-0.5 0,-0.5"/>
<text text-anchor="middle" x="59" y="-7.5" font-family="Helvetica,sans-Serif" font-size="10.00">freeradius&#45;devel/ident.h</text>
</g>
<!-- Node1&#45;&gt;Node2 -->
<g id="edge2" class="edge"><title>Node1&#45;&gt;Node2</title>
<path fill="none" stroke="midnightblue" d="M146.833,-112.439C122.668,-106.102 96.008,-95.0962 78,-76 66.289,-63.5813 61.7502,-44.3418 60.0152,-30.0127"/>
<polygon fill="midnightblue" stroke="midnightblue" points="63.4811,-29.4631 59.1414,-19.7978 56.5065,-30.0598 63.4811,-29.4631"/>
</g>
<!-- Node3 -->
<g id="node5" class="node"><title>Node3</title>
<polygon fill="none" stroke="#bfbfbf" points="87,-56.5 87,-75.5 215,-75.5 215,-56.5 87,-56.5"/>
<text text-anchor="middle" x="151" y="-63.5" font-family="Helvetica,sans-Serif" font-size="10.00">freeradius&#45;devel/radiusd.h</text>
</g>
<!-- Node1&#45;&gt;Node3 -->
<g id="edge4" class="edge"><title>Node1&#45;&gt;Node3</title>
<path fill="none" stroke="midnightblue" d="M195.248,-112.083C187.53,-104.22 176.095,-92.5688 166.783,-83.0813"/>
<polygon fill="midnightblue" stroke="midnightblue" points="169.092,-80.4363 159.589,-75.7511 164.096,-85.3396 169.092,-80.4363"/>
</g>
<!-- Node4 -->
<g id="node7" class="node"><title>Node4</title>
<polygon fill="none" stroke="#bfbfbf" points="233.5,-56.5 233.5,-75.5 282.5,-75.5 282.5,-56.5 233.5,-56.5"/>
<text text-anchor="middle" x="258" y="-63.5" font-family="Helvetica,sans-Serif" font-size="10.00">ctype.h</text>
</g>
<!-- Node1&#45;&gt;Node4 -->
<g id="edge6" class="edge"><title>Node1&#45;&gt;Node4</title>
<path fill="none" stroke="midnightblue" d="M212.917,-112.083C220.78,-104.22 232.431,-92.5688 241.919,-83.0813"/>
<polygon fill="midnightblue" stroke="midnightblue" points="244.653,-85.2971 249.249,-75.7511 239.703,-80.3473 244.653,-85.2971"/>
</g>
<!-- Node5 -->
<g id="node9" class="node"><title>Node5</title>
<a xlink:href="rlm__sql_8h.html" target="_top" xlink:title="rlm_sql.h">
<polygon fill="none" stroke="black" points="301,-56.5 301,-75.5 357,-75.5 357,-56.5 301,-56.5"/>
<text text-anchor="middle" x="329" y="-63.5" font-family="Helvetica,sans-Serif" font-size="10.00">rlm_sql.h</text>
</a>
</g>
<!-- Node1&#45;&gt;Node5 -->
<g id="edge8" class="edge"><title>Node1&#45;&gt;Node5</title>
<path fill="none" stroke="midnightblue" d="M223.807,-112.444C244.287,-103.596 276.483,-89.6875 299.865,-79.5865"/>
<polygon fill="midnightblue" stroke="midnightblue" points="301.494,-82.6953 309.286,-75.5164 298.718,-76.2692 301.494,-82.6953"/>
</g>
<!-- Node5&#45;&gt;Node2 -->
<g id="edge10" class="edge"><title>Node5&#45;&gt;Node2</title>
<path fill="none" stroke="midnightblue" d="M300.807,-58.1871C297.506,-57.4295 294.181,-56.685 291,-56 231.586,-43.2076 163.252,-30.1526 116.214,-21.422"/>
<polygon fill="midnightblue" stroke="midnightblue" points="116.685,-17.9499 106.215,-19.5719 115.411,-24.8331 116.685,-17.9499"/>
</g>
<!-- Node6 -->
<g id="node12" class="node"><title>Node6</title>
<polygon fill="none" stroke="#bfbfbf" points="136,-0.5 136,-19.5 280,-19.5 280,-0.5 136,-0.5"/>
<text text-anchor="middle" x="208" y="-7.5" font-family="Helvetica,sans-Serif" font-size="10.00">freeradius&#45;devel/connection.h</text>
</g>
<!-- Node5&#45;&gt;Node6 -->
<g id="edge12" class="edge"><title>Node5&#45;&gt;Node6</title>
<path fill="none" stroke="midnightblue" d="M309.827,-56.4435C290.091,-47.6356 259.115,-33.8116 236.507,-23.722"/>
<polygon fill="midnightblue" stroke="midnightblue" points="237.641,-20.3957 227.083,-19.5164 234.789,-26.788 237.641,-20.3957"/>
</g>
<!-- Node7 -->
<g id="node14" class="node"><title>Node7</title>
<polygon fill="none" stroke="#bfbfbf" points="298.5,-0.5 298.5,-19.5 429.5,-19.5 429.5,-0.5 298.5,-0.5"/>
<text text-anchor="middle" x="364" y="-7.5" font-family="Helvetica,sans-Serif" font-size="10.00">freeradius&#45;devel/modpriv.h</text>
</g>
<!-- Node5&#45;&gt;Node7 -->
<g id="edge14" class="edge"><title>Node5&#45;&gt;Node7</title>
<path fill="none" stroke="midnightblue" d="M334.78,-56.083C339.672,-48.5341 346.827,-37.4948 352.833,-28.2298"/>
<polygon fill="midnightblue" stroke="midnightblue" points="355.826,-30.0463 358.328,-19.7511 349.952,-26.239 355.826,-30.0463"/>
</g>
<!-- Node8 -->
<g id="node16" class="node"><title>Node8</title>
<polygon fill="none" stroke="#bfbfbf" points="448,-0.5 448,-19.5 492,-19.5 492,-0.5 448,-0.5"/>
<text text-anchor="middle" x="470" y="-7.5" font-family="Helvetica,sans-Serif" font-size="10.00">conf.h</text>
</g>
<!-- Node5&#45;&gt;Node8 -->
<g id="edge16" class="edge"><title>Node5&#45;&gt;Node8</title>
<path fill="none" stroke="midnightblue" d="M351.342,-56.4435C374.753,-47.4776 411.736,-33.314 438.19,-23.1827"/>
<polygon fill="midnightblue" stroke="midnightblue" points="439.676,-26.3615 447.763,-19.5164 437.172,-19.8245 439.676,-26.3615"/>
</g>
</g>
</svg>
