<?xml version="1.0" encoding="UTF-8" standalone="no"?>
<!DOCTYPE svg PUBLIC "-//W3C//DTD SVG 1.1//EN"
 "http://www.w3.org/Graphics/SVG/1.1/DTD/svg11.dtd">
<!-- Generated by graphviz version 2.28.0 (20111211.2114)
 -->
<!-- Title: G Pages: 1 -->
<svg width="412pt" height="140pt"
 viewBox="0.00 0.00 412.00 140.00" xmlns="http://www.w3.org/2000/svg" xmlns:xlink="http://www.w3.org/1999/xlink">
<g id="graph1" class="graph" transform="scale(1 1) rotate(0) translate(4 136)">
<title>G</title>
<!-- Node1 -->
<g id="node1" class="node"><title>Node1</title>
<polygon fill="#bfbfbf" stroke="black" points="5.5,-112.5 5.5,-131.5 334.5,-131.5 334.5,-112.5 5.5,-112.5"/>
<text text-anchor="middle" x="170" y="-119.5" font-family="Helvetica,sans-Serif" font-size="10.00">/home/pjm3/freeradius&#45;server/src/modules/rlm_rediswho/rlm_rediswho.c</text>
</g>
<!-- Node2 -->
<g id="node3" class="node"><title>Node2</title>
<polygon fill="none" stroke="#bfbfbf" points="0,-0.5 0,-19.5 118,-19.5 118,-0.5 0,-0.5"/>
<text text-anchor="middle" x="59" y="-7.5" font-family="Helvetica,sans-Serif" font-size="10.00">freeradius&#45;devel/ident.h</text>
</g>
<!-- Node1&#45;&gt;Node2 -->
<g id="edge2" class="edge"><title>Node1&#45;&gt;Node2</title>
<path fill="none" stroke="midnightblue" d="M101.894,-112.482C79.7554,-106.117 57.4475,-95.0821 44,-76 34.2295,-62.1357 40.5473,-42.8613 47.7433,-28.9044"/>
<polygon fill="midnightblue" stroke="midnightblue" points="51.0027,-30.2545 52.9209,-19.8348 44.9235,-26.7841 51.0027,-30.2545"/>
</g>
<!-- Node3 -->
<g id="node5" class="node"><title>Node3</title>
<polygon fill="none" stroke="#bfbfbf" points="53,-56.5 53,-75.5 181,-75.5 181,-56.5 53,-56.5"/>
<text text-anchor="middle" x="117" y="-63.5" font-family="Helvetica,sans-Serif" font-size="10.00">freeradius&#45;devel/radiusd.h</text>
</g>
<!-- Node1&#45;&gt;Node3 -->
<g id="edge4" class="edge"><title>Node1&#45;&gt;Node3</title>
<path fill="none" stroke="midnightblue" d="M161.248,-112.083C153.53,-104.22 142.095,-92.5688 132.783,-83.0813"/>
<polygon fill="midnightblue" stroke="midnightblue" points="135.092,-80.4363 125.589,-75.7511 130.096,-85.3396 135.092,-80.4363"/>
</g>
<!-- Node4 -->
<g id="node7" class="node"><title>Node4</title>
<polygon fill="none" stroke="#bfbfbf" points="199.5,-56.5 199.5,-75.5 248.5,-75.5 248.5,-56.5 199.5,-56.5"/>
<text text-anchor="middle" x="224" y="-63.5" font-family="Helvetica,sans-Serif" font-size="10.00">ctype.h</text>
</g>
<!-- Node1&#45;&gt;Node4 -->
<g id="edge6" class="edge"><title>Node1&#45;&gt;Node4</title>
<path fill="none" stroke="midnightblue" d="M178.917,-112.083C186.78,-104.22 198.431,-92.5688 207.919,-83.0813"/>
<polygon fill="midnightblue" stroke="midnightblue" points="210.653,-85.2971 215.249,-75.7511 205.703,-80.3473 210.653,-85.2971"/>
</g>
<!-- Node5 -->
<g id="node9" class="node"><title>Node5</title>
<a xlink:href="rlm__redis_8h.html" target="_top" xlink:title="rlm_redis.h">
<polygon fill="none" stroke="black" points="266.5,-56.5 266.5,-75.5 331.5,-75.5 331.5,-56.5 266.5,-56.5"/>
<text text-anchor="middle" x="299" y="-63.5" font-family="Helvetica,sans-Serif" font-size="10.00">rlm_redis.h</text>
</a>
</g>
<!-- Node1&#45;&gt;Node5 -->
<g id="edge8" class="edge"><title>Node1&#45;&gt;Node5</title>
<path fill="none" stroke="midnightblue" d="M190.44,-112.444C211.67,-103.557 245.099,-89.5632 269.255,-79.4514"/>
<polygon fill="midnightblue" stroke="midnightblue" points="270.782,-82.6064 278.655,-75.5164 268.079,-76.1493 270.782,-82.6064"/>
</g>
<!-- Node5&#45;&gt;Node2 -->
<g id="edge10" class="edge"><title>Node5&#45;&gt;Node2</title>
<path fill="none" stroke="midnightblue" d="M266.383,-57.6611C225.308,-48.4193 154.4,-32.465 107.1,-21.8226"/>
<polygon fill="midnightblue" stroke="midnightblue" points="107.615,-18.351 97.0909,-19.5704 106.079,-25.1803 107.615,-18.351"/>
</g>
<!-- Node6 -->
<g id="node12" class="node"><title>Node6</title>
<polygon fill="none" stroke="#bfbfbf" points="170.5,-0.5 170.5,-19.5 301.5,-19.5 301.5,-0.5 170.5,-0.5"/>
<text text-anchor="middle" x="236" y="-7.5" font-family="Helvetica,sans-Serif" font-size="10.00">freeradius&#45;devel/modpriv.h</text>
</g>
<!-- Node5&#45;&gt;Node6 -->
<g id="edge12" class="edge"><title>Node5&#45;&gt;Node6</title>
<path fill="none" stroke="midnightblue" d="M288.878,-56.324C279.474,-48.2631 265.256,-36.0765 253.931,-26.3695"/>
<polygon fill="midnightblue" stroke="midnightblue" points="256.177,-23.6844 246.306,-19.8339 251.621,-28.9993 256.177,-23.6844"/>
</g>
<!-- Node7 -->
<g id="node14" class="node"><title>Node7</title>
<polygon fill="none" stroke="#bfbfbf" points="319.5,-0.5 319.5,-19.5 404.5,-19.5 404.5,-0.5 319.5,-0.5"/>
<text text-anchor="middle" x="362" y="-7.5" font-family="Helvetica,sans-Serif" font-size="10.00">hiredis/hiredis.h</text>
</g>
<!-- Node5&#45;&gt;Node7 -->
<g id="edge14" class="edge"><title>Node5&#45;&gt;Node7</title>
<path fill="none" stroke="midnightblue" d="M309.122,-56.324C318.526,-48.2631 332.744,-36.0765 344.069,-26.3695"/>
<polygon fill="midnightblue" stroke="midnightblue" points="346.379,-28.9993 351.694,-19.8339 341.823,-23.6844 346.379,-28.9993"/>
</g>
</g>
</svg>
