<?xml version="1.0" encoding="UTF-8" standalone="no"?>
<!DOCTYPE svg PUBLIC "-//W3C//DTD SVG 1.1//EN"
 "http://www.w3.org/Graphics/SVG/1.1/DTD/svg11.dtd">
<!-- Generated by graphviz version 2.28.0 (20111211.2114)
 -->
<!-- Title: G Pages: 1 -->
<!--zoomable-->
<svg id="main" version="1.1" xmlns="http://www.w3.org/2000/svg" xmlns:xlink="http://www.w3.org/1999/xlink" xml:space="preserve" onload="init(evt)">
        <defs>
                <circle id="rim" cx="0" cy="0" r="7"/>
                <circle id="rim2" cx="0" cy="0" r="3.5"/>
                <g id="zoomPlus">
                        <use xlink:href="#rim" fill="#404040">
                                <set attributeName="fill" to="#808080" begin="zoomplus.mouseover" end="zoomplus.mouseout"/>
                        </use>
                        <path d="M-4,0h8M0,-4v8" fill="none" stroke="white" stroke-width="1.5" pointer-events="none"/>
                </g>
                <g id="zoomMin">
                        <use xlink:href="#rim" fill="#404040">
                                <set attributeName="fill" to="#808080" begin="zoomminus.mouseover" end="zoomminus.mouseout"/>
                        </use>
                        <path d="M-4,0h8" fill="none" stroke="white" stroke-width="1.5" pointer-events="none"/>
                </g>
                <g id="dirArrow">
                        <path fill="none" stroke="white" stroke-width="1.5" d="M0,-3.0v7 M-2.5,-0.5L0,-3.0L2.5,-0.5"/>
                </g>
               <g id="resetDef">
                       <use xlink:href="#rim2" fill="#404040">
                               <set attributeName="fill" to="#808080" begin="reset.mouseover" end="reset.mouseout"/>
                       </use>
               </g>
        </defs>

<script type="text/javascript">
var viewWidth = 667;
var viewHeight = 196;
var sectionId = 'dynsection-0';
</script>
<script xlink:href="svgpan.js"/>
<svg id="graph" class="graph">
<g id="viewport">
<title>G</title>
<!-- Node1 -->
<g id="node1" class="node"><title>Node1</title>
<polygon fill="#bfbfbf" stroke="black" points="104.663,-168.5 104.663,-187.5 493.663,-187.5 493.663,-168.5 104.663,-168.5"/>
<text text-anchor="middle" x="299.163" y="-175.5" font-family="Helvetica,sans-Serif" font-size="10.00">/home/pjm3/freeradius&#45;server/src/modules/rlm_eap/types/rlm_eap_sim/rlm_eap_sim.c</text>
</g>
<!-- Node2 -->
<g id="node3" class="node"><title>Node2</title>
<polygon fill="none" stroke="#bfbfbf" points="243.163,-0.5 243.163,-19.5 361.163,-19.5 361.163,-0.5 243.163,-0.5"/>
<text text-anchor="middle" x="302.163" y="-7.5" font-family="Helvetica,sans-Serif" font-size="10.00">freeradius&#45;devel/ident.h</text>
</g>
<!-- Node1&#45;&gt;Node2 -->
<g id="edge2" class="edge"><title>Node1&#45;&gt;Node2</title>
<path fill="none" stroke="midnightblue" d="M129.162,-168.495C77.7161,-162.128 30.4746,-151.089 14.1632,-132 -50.9609,-55.7863 128.111,-26.5487 232.689,-16.1835"/>
<polygon fill="midnightblue" stroke="midnightblue" points="233.255,-19.6455 242.876,-15.2098 232.589,-12.6772 233.255,-19.6455"/>
</g>
<!-- Node3 -->
<g id="node5" class="node"><title>Node3</title>
<polygon fill="none" stroke="#bfbfbf" points="23.1632,-112.5 23.1632,-131.5 157.163,-131.5 157.163,-112.5 23.1632,-112.5"/>
<text text-anchor="middle" x="90.1632" y="-119.5" font-family="Helvetica,sans-Serif" font-size="10.00">freeradius&#45;devel/autoconf.h</text>
</g>
<!-- Node1&#45;&gt;Node3 -->
<g id="edge4" class="edge"><title>Node1&#45;&gt;Node3</title>
<path fill="none" stroke="midnightblue" d="M266.047,-168.444C230.046,-159.142 172.393,-144.246 132.977,-134.062"/>
<polygon fill="midnightblue" stroke="midnightblue" points="133.683,-130.629 123.125,-131.516 131.931,-137.407 133.683,-130.629"/>
</g>
<!-- Node4 -->
<g id="node7" class="node"><title>Node4</title>
<polygon fill="none" stroke="#bfbfbf" points="175.163,-112.5 175.163,-131.5 221.163,-131.5 221.163,-112.5 175.163,-112.5"/>
<text text-anchor="middle" x="198.163" y="-119.5" font-family="Helvetica,sans-Serif" font-size="10.00">stdio.h</text>
</g>
<!-- Node1&#45;&gt;Node4 -->
<g id="edge6" class="edge"><title>Node1&#45;&gt;Node4</title>
<path fill="none" stroke="midnightblue" d="M282.936,-168.324C266.812,-159.703 241.863,-146.364 223.199,-136.386"/>
<polygon fill="midnightblue" stroke="midnightblue" points="224.819,-133.283 214.35,-131.655 221.519,-139.456 224.819,-133.283"/>
</g>
<!-- Node5 -->
<g id="node9" class="node"><title>Node5</title>
<polygon fill="none" stroke="#bfbfbf" points="239.163,-112.5 239.163,-131.5 287.163,-131.5 287.163,-112.5 239.163,-112.5"/>
<text text-anchor="middle" x="263.163" y="-119.5" font-family="Helvetica,sans-Serif" font-size="10.00">stdlib.h</text>
</g>
<!-- Node1&#45;&gt;Node5 -->
<g id="edge8" class="edge"><title>Node1&#45;&gt;Node5</title>
<path fill="none" stroke="midnightblue" d="M293.219,-168.083C288.186,-160.534 280.826,-149.495 274.65,-140.23"/>
<polygon fill="midnightblue" stroke="midnightblue" points="277.456,-138.13 268.997,-131.751 271.632,-142.013 277.456,-138.13"/>
</g>
<!-- Node6 -->
<g id="node11" class="node"><title>Node6</title>
<polygon fill="none" stroke="#bfbfbf" points="305.663,-112.5 305.663,-131.5 364.663,-131.5 364.663,-112.5 305.663,-112.5"/>
<text text-anchor="middle" x="335.163" y="-119.5" font-family="Helvetica,sans-Serif" font-size="10.00">../../eap.h</text>
</g>
<!-- Node1&#45;&gt;Node6 -->
<g id="edge10" class="edge"><title>Node1&#45;&gt;Node6</title>
<path fill="none" stroke="midnightblue" d="M305.108,-168.083C310.141,-160.534 317.5,-149.495 323.677,-140.23"/>
<polygon fill="midnightblue" stroke="midnightblue" points="326.694,-142.013 329.329,-131.751 320.87,-138.13 326.694,-142.013"/>
</g>
<!-- Node7 -->
<g id="node13" class="node"><title>Node7</title>
<a xlink:href="eap__types_8h.html" target="_top" xlink:title="eap_types.h">
<polygon fill="none" stroke="black" points="408.163,-56.5 408.163,-75.5 478.163,-75.5 478.163,-56.5 408.163,-56.5"/>
<text text-anchor="middle" x="443.163" y="-63.5" font-family="Helvetica,sans-Serif" font-size="10.00">eap_types.h</text>
</a>
</g>
<!-- Node1&#45;&gt;Node7 -->
<g id="edge12" class="edge"><title>Node1&#45;&gt;Node7</title>
<path fill="none" stroke="midnightblue" d="M352.064,-168.46C391.595,-160.872 440.842,-148.437 453.163,-132 463.303,-118.473 458.368,-98.8504 452.405,-84.7076"/>
<polygon fill="midnightblue" stroke="midnightblue" points="455.514,-83.0943 448.082,-75.5436 449.183,-86.0811 455.514,-83.0943"/>
</g>
<!-- Node10 -->
<g id="node20" class="node"><title>Node10</title>
<a xlink:href="eap__sim_8h.html" target="_top" xlink:title="eap_sim.h">
<polygon fill="none" stroke="black" points="383.163,-112.5 383.163,-131.5 445.163,-131.5 445.163,-112.5 383.163,-112.5"/>
<text text-anchor="middle" x="414.163" y="-119.5" font-family="Helvetica,sans-Serif" font-size="10.00">eap_sim.h</text>
</a>
</g>
<!-- Node1&#45;&gt;Node10 -->
<g id="edge20" class="edge"><title>Node1&#45;&gt;Node10</title>
<path fill="none" stroke="midnightblue" d="M317.385,-168.444C336.059,-159.675 365.319,-145.935 386.781,-135.858"/>
<polygon fill="midnightblue" stroke="midnightblue" points="388.462,-138.935 396.026,-131.516 385.487,-132.599 388.462,-138.935"/>
</g>
<!-- Node11 -->
<g id="node24" class="node"><title>Node11</title>
<polygon fill="none" stroke="#bfbfbf" points="501.663,-112.5 501.663,-131.5 644.663,-131.5 644.663,-112.5 501.663,-112.5"/>
<text text-anchor="middle" x="573.163" y="-119.5" font-family="Helvetica,sans-Serif" font-size="10.00">freeradius&#45;devel/rad_assert.h</text>
</g>
<!-- Node1&#45;&gt;Node11 -->
<g id="edge26" class="edge"><title>Node1&#45;&gt;Node11</title>
<path fill="none" stroke="midnightblue" d="M342.579,-168.444C390.679,-158.964 468.258,-143.675 519.969,-133.483"/>
<polygon fill="midnightblue" stroke="midnightblue" points="520.816,-136.884 529.95,-131.516 519.462,-130.016 520.816,-136.884"/>
</g>
<!-- Node7&#45;&gt;Node2 -->
<g id="edge14" class="edge"><title>Node7&#45;&gt;Node2</title>
<path fill="none" stroke="midnightblue" d="M420.821,-56.4435C397.41,-47.4776 360.428,-33.314 333.974,-23.1827"/>
<polygon fill="midnightblue" stroke="midnightblue" points="334.991,-19.8245 324.401,-19.5164 332.487,-26.3615 334.991,-19.8245"/>
</g>
<!-- Node8 -->
<g id="node16" class="node"><title>Node8</title>
<polygon fill="none" stroke="#bfbfbf" points="379.163,-0.5 379.163,-19.5 507.163,-19.5 507.163,-0.5 379.163,-0.5"/>
<text text-anchor="middle" x="443.163" y="-7.5" font-family="Helvetica,sans-Serif" font-size="10.00">freeradius&#45;devel/radiusd.h</text>
</g>
<!-- Node7&#45;&gt;Node8 -->
<g id="edge16" class="edge"><title>Node7&#45;&gt;Node8</title>
<path fill="none" stroke="midnightblue" d="M443.163,-56.083C443.163,-49.0059 443.163,-38.8611 443.163,-29.9865"/>
<polygon fill="midnightblue" stroke="midnightblue" points="446.663,-29.751 443.163,-19.7511 439.663,-29.7511 446.663,-29.751"/>
</g>
<!-- Node9 -->
<g id="node18" class="node"><title>Node9</title>
<polygon fill="none" stroke="#bfbfbf" points="525.163,-0.5 525.163,-19.5 659.163,-19.5 659.163,-0.5 525.163,-0.5"/>
<text text-anchor="middle" x="592.163" y="-7.5" font-family="Helvetica,sans-Serif" font-size="10.00">freeradius&#45;devel/modules.h</text>
</g>
<!-- Node7&#45;&gt;Node9 -->
<g id="edge18" class="edge"><title>Node7&#45;&gt;Node9</title>
<path fill="none" stroke="midnightblue" d="M466.773,-56.4435C491.621,-47.4381 530.938,-33.1891 558.917,-23.049"/>
<polygon fill="midnightblue" stroke="midnightblue" points="560.455,-26.2144 568.664,-19.5164 558.07,-19.6332 560.455,-26.2144"/>
</g>
<!-- Node10&#45;&gt;Node2 -->
<g id="edge22" class="edge"><title>Node10&#45;&gt;Node2</title>
<path fill="none" stroke="midnightblue" d="M405.375,-112.368C386.564,-93.8941 342.17,-50.2926 318.193,-26.7436"/>
<polygon fill="midnightblue" stroke="midnightblue" points="320.498,-24.1015 310.911,-19.5914 315.593,-29.0956 320.498,-24.1015"/>
</g>
<!-- Node10&#45;&gt;Node7 -->
<g id="edge24" class="edge"><title>Node10&#45;&gt;Node7</title>
<path fill="none" stroke="midnightblue" d="M418.952,-112.083C422.922,-104.691 428.688,-93.9533 433.598,-84.8111"/>
<polygon fill="midnightblue" stroke="midnightblue" points="436.816,-86.217 438.464,-75.7511 430.649,-82.9051 436.816,-86.217"/>
</g>
</g>
</svg>
        <g id="navigator" transform="translate(0 0)" fill="#404254">
                <rect fill="#f2f5e9" fill-opacity="0.5" stroke="#606060" stroke-width=".5" x="0" y="0" width="60" height="60"/>
                <use id="zoomplus" xlink:href="#zoomPlus" x="17" y="9" onmousedown="handleZoom(evt,'in')"/>
                <use id="zoomminus" xlink:href="#zoomMin" x="42" y="9" onmousedown="handleZoom(evt,'out')"/>
                <use id="reset" xlink:href="#resetDef" x="30" y="36" onmousedown="handleReset()"/>
                <g id="arrowUp" xlink:href="#dirArrow" transform="translate(30 24)" onmousedown="handlePan(0,-1)">
                  <use xlink:href="#rim" fill="#404040">
                        <set attributeName="fill" to="#808080" begin="arrowUp.mouseover" end="arrowUp.mouseout"/>
                  </use>
                  <path fill="none" stroke="white" stroke-width="1.5" d="M0,-3.0v7 M-2.5,-0.5L0,-3.0L2.5,-0.5"/>
                </g>
                <g id="arrowRight" xlink:href="#dirArrow" transform="rotate(90) translate(36 -43)" onmousedown="handlePan(1,0)">
                  <use xlink:href="#rim" fill="#404040">
                        <set attributeName="fill" to="#808080" begin="arrowRight.mouseover" end="arrowRight.mouseout"/>
                  </use>
                  <path fill="none" stroke="white" stroke-width="1.5" d="M0,-3.0v7 M-2.5,-0.5L0,-3.0L2.5,-0.5"/>
                </g>
                <g id="arrowDown" xlink:href="#dirArrow" transform="rotate(180) translate(-30 -48)" onmousedown="handlePan(0,1)">
                  <use xlink:href="#rim" fill="#404040">
                        <set attributeName="fill" to="#808080" begin="arrowDown.mouseover" end="arrowDown.mouseout"/>
                  </use>
                  <path fill="none" stroke="white" stroke-width="1.5" d="M0,-3.0v7 M-2.5,-0.5L0,-3.0L2.5,-0.5"/>
                </g>
                <g id="arrowLeft" xlink:href="#dirArrow" transform="rotate(270) translate(-36 17)" onmousedown="handlePan(-1,0)">
                  <use xlink:href="#rim" fill="#404040">
                        <set attributeName="fill" to="#808080" begin="arrowLeft.mouseover" end="arrowLeft.mouseout"/>
                  </use>
                  <path fill="none" stroke="white" stroke-width="1.5" d="M0,-3.0v7 M-2.5,-0.5L0,-3.0L2.5,-0.5"/>
                </g>
        </g>
</svg>
