<?xml version="1.0" encoding="UTF-8" standalone="no"?>
<!DOCTYPE svg PUBLIC "-//W3C//DTD SVG 1.1//EN"
 "http://www.w3.org/Graphics/SVG/1.1/DTD/svg11.dtd">
<!-- Generated by graphviz version 2.28.0 (20111211.2114)
 -->
<!-- Title: G Pages: 1 -->
<svg width="457pt" height="140pt"
 viewBox="0.00 0.00 457.26 140.00" xmlns="http://www.w3.org/2000/svg" xmlns:xlink="http://www.w3.org/1999/xlink">
<g id="graph1" class="graph" transform="scale(1 1) rotate(0) translate(4 136)">
<title>G</title>
<!-- Node1 -->
<g id="node1" class="node"><title>Node1</title>
<polygon fill="#bfbfbf" stroke="black" points="4.75697,-112.5 4.75697,-131.5 297.757,-131.5 297.757,-112.5 4.75697,-112.5"/>
<text text-anchor="middle" x="151.257" y="-119.5" font-family="Helvetica,sans-Serif" font-size="10.00">/home/pjm3/freeradius&#45;server/src/modules/rlm_redis/rlm_redis.c</text>
</g>
<!-- Node2 -->
<g id="node3" class="node"><title>Node2</title>
<polygon fill="none" stroke="#bfbfbf" points="2.25697,-0.5 2.25697,-19.5 120.257,-19.5 120.257,-0.5 2.25697,-0.5"/>
<text text-anchor="middle" x="61.257" y="-7.5" font-family="Helvetica,sans-Serif" font-size="10.00">freeradius&#45;devel/ident.h</text>
</g>
<!-- Node1&#45;&gt;Node2 -->
<g id="edge2" class="edge"><title>Node1&#45;&gt;Node2</title>
<path fill="none" stroke="midnightblue" d="M61.7038,-112.466C39.4661,-105.845 18.0655,-94.6682 4.25697,-76 -9.56652,-57.3116 14.198,-37.4454 35.1298,-24.6664"/>
<polygon fill="midnightblue" stroke="midnightblue" points="36.9044,-27.6833 43.8094,-19.6477 33.4004,-21.6234 36.9044,-27.6833"/>
</g>
<!-- Node3 -->
<g id="node5" class="node"><title>Node3</title>
<polygon fill="none" stroke="#bfbfbf" points="13.257,-56.5 13.257,-75.5 141.257,-75.5 141.257,-56.5 13.257,-56.5"/>
<text text-anchor="middle" x="77.257" y="-63.5" font-family="Helvetica,sans-Serif" font-size="10.00">freeradius&#45;devel/radiusd.h</text>
</g>
<!-- Node1&#45;&gt;Node3 -->
<g id="edge4" class="edge"><title>Node1&#45;&gt;Node3</title>
<path fill="none" stroke="midnightblue" d="M139.368,-112.324C128.107,-104.107 110.97,-91.6017 97.5478,-81.8069"/>
<polygon fill="midnightblue" stroke="midnightblue" points="99.5038,-78.9014 89.3627,-75.8339 95.3775,-84.5559 99.5038,-78.9014"/>
</g>
<!-- Node4 -->
<g id="node7" class="node"><title>Node4</title>
<polygon fill="none" stroke="#bfbfbf" points="159.257,-56.5 159.257,-75.5 293.257,-75.5 293.257,-56.5 159.257,-56.5"/>
<text text-anchor="middle" x="226.257" y="-63.5" font-family="Helvetica,sans-Serif" font-size="10.00">freeradius&#45;devel/modules.h</text>
</g>
<!-- Node1&#45;&gt;Node4 -->
<g id="edge6" class="edge"><title>Node1&#45;&gt;Node4</title>
<path fill="none" stroke="midnightblue" d="M163.307,-112.324C174.72,-104.107 192.088,-91.6017 205.692,-81.8069"/>
<polygon fill="midnightblue" stroke="midnightblue" points="207.917,-84.5174 213.988,-75.8339 203.827,-78.8366 207.917,-84.5174"/>
</g>
<!-- Node5 -->
<g id="node9" class="node"><title>Node5</title>
<a xlink:href="rlm__redis_8h.html" target="_top" xlink:title="rlm_redis.h">
<polygon fill="none" stroke="black" points="311.757,-56.5 311.757,-75.5 376.757,-75.5 376.757,-56.5 311.757,-56.5"/>
<text text-anchor="middle" x="344.257" y="-63.5" font-family="Helvetica,sans-Serif" font-size="10.00">rlm_redis.h</text>
</a>
</g>
<!-- Node1&#45;&gt;Node5 -->
<g id="edge8" class="edge"><title>Node1&#45;&gt;Node5</title>
<path fill="none" stroke="midnightblue" d="M181.838,-112.444C214.872,-103.201 267.645,-88.4356 304.023,-78.2572"/>
<polygon fill="midnightblue" stroke="midnightblue" points="305.132,-81.5815 313.819,-75.5164 303.245,-74.8404 305.132,-81.5815"/>
</g>
<!-- Node5&#45;&gt;Node2 -->
<g id="edge10" class="edge"><title>Node5&#45;&gt;Node2</title>
<path fill="none" stroke="midnightblue" d="M311.715,-57.9378C308.522,-57.2715 305.328,-56.6156 302.257,-56 239.723,-43.4641 167.828,-30.1862 118.953,-21.3298"/>
<polygon fill="midnightblue" stroke="midnightblue" points="119.349,-17.8445 108.885,-19.5089 118.103,-24.7328 119.349,-17.8445"/>
</g>
<!-- Node6 -->
<g id="node12" class="node"><title>Node6</title>
<polygon fill="none" stroke="#bfbfbf" points="215.757,-0.5 215.757,-19.5 346.757,-19.5 346.757,-0.5 215.757,-0.5"/>
<text text-anchor="middle" x="281.257" y="-7.5" font-family="Helvetica,sans-Serif" font-size="10.00">freeradius&#45;devel/modpriv.h</text>
</g>
<!-- Node5&#45;&gt;Node6 -->
<g id="edge12" class="edge"><title>Node5&#45;&gt;Node6</title>
<path fill="none" stroke="midnightblue" d="M334.135,-56.324C324.731,-48.2631 310.513,-36.0765 299.188,-26.3695"/>
<polygon fill="midnightblue" stroke="midnightblue" points="301.434,-23.6844 291.563,-19.8339 296.878,-28.9993 301.434,-23.6844"/>
</g>
<!-- Node7 -->
<g id="node14" class="node"><title>Node7</title>
<polygon fill="none" stroke="#bfbfbf" points="364.757,-0.5 364.757,-19.5 449.757,-19.5 449.757,-0.5 364.757,-0.5"/>
<text text-anchor="middle" x="407.257" y="-7.5" font-family="Helvetica,sans-Serif" font-size="10.00">hiredis/hiredis.h</text>
</g>
<!-- Node5&#45;&gt;Node7 -->
<g id="edge14" class="edge"><title>Node5&#45;&gt;Node7</title>
<path fill="none" stroke="midnightblue" d="M354.379,-56.324C363.783,-48.2631 378.001,-36.0765 389.326,-26.3695"/>
<polygon fill="midnightblue" stroke="midnightblue" points="391.636,-28.9993 396.951,-19.8339 387.08,-23.6844 391.636,-28.9993"/>
</g>
</g>
</svg>
