<?xml version="1.0" encoding="UTF-8" standalone="no"?>
<!DOCTYPE svg PUBLIC "-//W3C//DTD SVG 1.1//EN"
 "http://www.w3.org/Graphics/SVG/1.1/DTD/svg11.dtd">
<!-- Generated by graphviz version 2.28.0 (20111211.2114)
 -->
<!-- Title: G Pages: 1 -->
<svg width="335pt" height="84pt"
 viewBox="0.00 0.00 335.00 84.00" xmlns="http://www.w3.org/2000/svg" xmlns:xlink="http://www.w3.org/1999/xlink">
<g id="graph1" class="graph" transform="scale(1 1) rotate(0) translate(4 80)">
<title>G</title>
<!-- Node1 -->
<g id="node1" class="node"><title>Node1</title>
<polygon fill="#bfbfbf" stroke="black" points="19,-56.5 19,-75.5 327,-75.5 327,-56.5 19,-56.5"/>
<text text-anchor="middle" x="173" y="-63.5" font-family="Helvetica,sans-Serif" font-size="10.00">/home/pjm3/freeradius&#45;server/src/modules/rlm_dbm/rlm_dbm_cat.c</text>
</g>
<!-- Node2 -->
<g id="node3" class="node"><title>Node2</title>
<polygon fill="none" stroke="#bfbfbf" points="-0.5,-0.5 -0.5,-19.5 132.5,-19.5 132.5,-0.5 -0.5,-0.5"/>
<text text-anchor="middle" x="66" y="-7.5" font-family="Helvetica,sans-Serif" font-size="10.00">freeradius&#45;devel/libradius.h</text>
</g>
<!-- Node1&#45;&gt;Node2 -->
<g id="edge2" class="edge"><title>Node1&#45;&gt;Node2</title>
<path fill="none" stroke="midnightblue" d="M155.809,-56.324C138.649,-47.6641 112.054,-34.2424 92.2527,-24.249"/>
<polygon fill="midnightblue" stroke="midnightblue" points="93.6532,-21.0354 83.1487,-19.6545 90.4993,-27.2847 93.6532,-21.0354"/>
</g>
<!-- Node3 -->
<g id="node5" class="node"><title>Node3</title>
<polygon fill="none" stroke="#bfbfbf" points="151,-0.5 151,-19.5 195,-19.5 195,-0.5 151,-0.5"/>
<text text-anchor="middle" x="173" y="-7.5" font-family="Helvetica,sans-Serif" font-size="10.00">fcntl.h</text>
</g>
<!-- Node1&#45;&gt;Node3 -->
<g id="edge4" class="edge"><title>Node1&#45;&gt;Node3</title>
<path fill="none" stroke="midnightblue" d="M173,-56.083C173,-49.0059 173,-38.8611 173,-29.9865"/>
<polygon fill="midnightblue" stroke="midnightblue" points="176.5,-29.751 173,-19.7511 169.5,-29.7511 176.5,-29.751"/>
</g>
<!-- Node4 -->
<g id="node7" class="node"><title>Node4</title>
<polygon fill="none" stroke="#bfbfbf" points="213.5,-0.5 213.5,-19.5 262.5,-19.5 262.5,-0.5 213.5,-0.5"/>
<text text-anchor="middle" x="238" y="-7.5" font-family="Helvetica,sans-Serif" font-size="10.00">ctype.h</text>
</g>
<!-- Node1&#45;&gt;Node4 -->
<g id="edge6" class="edge"><title>Node1&#45;&gt;Node4</title>
<path fill="none" stroke="midnightblue" d="M183.443,-56.324C193.146,-48.2631 207.815,-36.0765 219.5,-26.3695"/>
<polygon fill="midnightblue" stroke="midnightblue" points="221.911,-28.9163 227.367,-19.8339 217.438,-23.532 221.911,-28.9163"/>
</g>
</g>
</svg>
