<?xml version="1.0" encoding="UTF-8" standalone="no"?>
<!DOCTYPE svg PUBLIC "-//W3C//DTD SVG 1.1//EN"
 "http://www.w3.org/Graphics/SVG/1.1/DTD/svg11.dtd">
<!-- Generated by graphviz version 2.28.0 (20111211.2114)
 -->
<!-- Title: G Pages: 1 -->
<!--zoomable-->
<svg id="main" version="1.1" xmlns="http://www.w3.org/2000/svg" xmlns:xlink="http://www.w3.org/1999/xlink" xml:space="preserve" onload="init(evt)">
        <defs>
                <circle id="rim" cx="0" cy="0" r="7"/>
                <circle id="rim2" cx="0" cy="0" r="3.5"/>
                <g id="zoomPlus">
                        <use xlink:href="#rim" fill="#404040">
                                <set attributeName="fill" to="#808080" begin="zoomplus.mouseover" end="zoomplus.mouseout"/>
                        </use>
                        <path d="M-4,0h8M0,-4v8" fill="none" stroke="white" stroke-width="1.5" pointer-events="none"/>
                </g>
                <g id="zoomMin">
                        <use xlink:href="#rim" fill="#404040">
                                <set attributeName="fill" to="#808080" begin="zoomminus.mouseover" end="zoomminus.mouseout"/>
                        </use>
                        <path d="M-4,0h8" fill="none" stroke="white" stroke-width="1.5" pointer-events="none"/>
                </g>
                <g id="dirArrow">
                        <path fill="none" stroke="white" stroke-width="1.5" d="M0,-3.0v7 M-2.5,-0.5L0,-3.0L2.5,-0.5"/>
                </g>
               <g id="resetDef">
                       <use xlink:href="#rim2" fill="#404040">
                               <set attributeName="fill" to="#808080" begin="reset.mouseover" end="reset.mouseout"/>
                       </use>
               </g>
        </defs>

<script type="text/javascript">
var viewWidth = 5778;
var viewHeight = 140;
var sectionId = 'dynsection-1';
</script>
<script xlink:href="svgpan.js"/>
<svg id="graph" class="graph">
<g id="viewport">
<title>G</title>
<!-- Node1 -->
<g id="node1" class="node"><title>Node1</title>
<polygon fill="#bfbfbf" stroke="black" points="2871.5,-112.5 2871.5,-131.5 3148.5,-131.5 3148.5,-112.5 2871.5,-112.5"/>
<text text-anchor="middle" x="3010" y="-119.5" font-family="Helvetica,sans-Serif" font-size="10.00">/home/pjm3/freeradius&#45;server/src/modules/rlm_sql/rlm_sql.h</text>
</g>
<!-- Node2 -->
<g id="node3" class="node"><title>Node2</title>
<a xlink:href="sql__db2_8c.html" target="_top" xlink:title="/home/pjm3/freeradius&#45;server/src/modules/rlm_sql/drivers/rlm_sql_db2/sql_db2.c">
<polygon fill="none" stroke="black" points="-0.5,-56.5 -0.5,-75.5 366.5,-75.5 366.5,-56.5 -0.5,-56.5"/>
<text text-anchor="middle" x="183" y="-63.5" font-family="Helvetica,sans-Serif" font-size="10.00">/home/pjm3/freeradius&#45;server/src/modules/rlm_sql/drivers/rlm_sql_db2/sql_db2.c</text>
</a>
</g>
<!-- Node1&#45;&gt;Node2 -->
<g id="edge2" class="edge"><title>Node1&#45;&gt;Node2</title>
<path fill="none" stroke="midnightblue" d="M2861.25,-119.996C2460.04,-116.956 1322.1,-106.134 376,-76 371.139,-75.8452 366.209,-75.679 361.234,-75.5033"/>
<polygon fill="midnightblue" stroke="midnightblue" points="2861.43,-123.498 2871.46,-120.073 2861.48,-116.498 2861.43,-123.498"/>
</g>
<!-- Node3 -->
<g id="node5" class="node"><title>Node3</title>
<a xlink:href="sql__fbapi_8h.html" target="_top" xlink:title="/home/pjm3/freeradius&#45;server/src/modules/rlm_sql/drivers/rlm_sql_firebird/sql_fbapi.h">
<polygon fill="none" stroke="black" points="385,-56.5 385,-75.5 771,-75.5 771,-56.5 385,-56.5"/>
<text text-anchor="middle" x="578" y="-63.5" font-family="Helvetica,sans-Serif" font-size="10.00">/home/pjm3/freeradius&#45;server/src/modules/rlm_sql/drivers/rlm_sql_firebird/sql_fbapi.h</text>
</a>
</g>
<!-- Node1&#45;&gt;Node3 -->
<g id="edge4" class="edge"><title>Node1&#45;&gt;Node3</title>
<path fill="none" stroke="midnightblue" d="M2861.23,-119.236C2503.04,-114.717 1564.35,-101.269 781,-76 776.152,-75.8436 771.239,-75.6781 766.282,-75.5048"/>
<polygon fill="midnightblue" stroke="midnightblue" points="2861.36,-122.737 2871.4,-119.364 2861.45,-115.738 2861.36,-122.737"/>
</g>
<!-- Node6 -->
<g id="node11" class="node"><title>Node6</title>
<a xlink:href="sql__freetds_8c.html" target="_top" xlink:title="/home/pjm3/freeradius&#45;server/src/modules/rlm_sql/drivers/rlm_sql_freetds/sql_freetds.c">
<polygon fill="none" stroke="black" points="789.5,-56.5 789.5,-75.5 1184.5,-75.5 1184.5,-56.5 789.5,-56.5"/>
<text text-anchor="middle" x="987" y="-63.5" font-family="Helvetica,sans-Serif" font-size="10.00">/home/pjm3/freeradius&#45;server/src/modules/rlm_sql/drivers/rlm_sql_freetds/sql_freetds.c</text>
</a>
</g>
<!-- Node1&#45;&gt;Node6 -->
<g id="edge10" class="edge"><title>Node1&#45;&gt;Node6</title>
<path fill="none" stroke="midnightblue" d="M2860.88,-118.247C2550.59,-112.312 1812.82,-97.118 1194,-76 1189.33,-75.8405 1184.59,-75.674 1179.82,-75.5016"/>
<polygon fill="midnightblue" stroke="midnightblue" points="2861.22,-121.754 2871.29,-118.446 2861.35,-114.756 2861.22,-121.754"/>
</g>
<!-- Node7 -->
<g id="node13" class="node"><title>Node7</title>
<a xlink:href="sql__iodbc_8c.html" target="_top" xlink:title="/home/pjm3/freeradius&#45;server/src/modules/rlm_sql/drivers/rlm_sql_iodbc/sql_iodbc.c">
<polygon fill="none" stroke="black" points="1203,-56.5 1203,-75.5 1585,-75.5 1585,-56.5 1203,-56.5"/>
<text text-anchor="middle" x="1394" y="-63.5" font-family="Helvetica,sans-Serif" font-size="10.00">/home/pjm3/freeradius&#45;server/src/modules/rlm_sql/drivers/rlm_sql_iodbc/sql_iodbc.c</text>
</a>
</g>
<!-- Node1&#45;&gt;Node7 -->
<g id="edge12" class="edge"><title>Node1&#45;&gt;Node7</title>
<path fill="none" stroke="midnightblue" d="M2861.11,-116.915C2603.06,-109.69 2056.03,-93.7365 1594,-76 1589.83,-75.84 1585.62,-75.6752 1581.36,-75.5065"/>
<polygon fill="midnightblue" stroke="midnightblue" points="2861.2,-120.419 2871.3,-117.2 2861.4,-113.421 2861.2,-120.419"/>
</g>
<!-- Node8 -->
<g id="node15" class="node"><title>Node8</title>
<a xlink:href="sql__mysql_8c.html" target="_top" xlink:title="/home/pjm3/freeradius&#45;server/src/modules/rlm_sql/drivers/rlm_sql_mysql/sql_mysql.c">
<polygon fill="none" stroke="black" points="1603,-56.5 1603,-75.5 1991,-75.5 1991,-56.5 1603,-56.5"/>
<text text-anchor="middle" x="1797" y="-63.5" font-family="Helvetica,sans-Serif" font-size="10.00">/home/pjm3/freeradius&#45;server/src/modules/rlm_sql/drivers/rlm_sql_mysql/sql_mysql.c</text>
</a>
</g>
<!-- Node1&#45;&gt;Node8 -->
<g id="edge14" class="edge"><title>Node1&#45;&gt;Node8</title>
<path fill="none" stroke="midnightblue" d="M2861.45,-114.387C2641.73,-104.605 2230.07,-86.2792 1988.13,-75.5086"/>
<polygon fill="midnightblue" stroke="midnightblue" points="2861.3,-117.884 2871.44,-114.832 2861.61,-110.89 2861.3,-117.884"/>
</g>
<!-- Node9 -->
<g id="node17" class="node"><title>Node9</title>
<a xlink:href="sql__null_8c.html" target="_top" xlink:title="/home/pjm3/freeradius&#45;server/src/modules/rlm_sql/drivers/rlm_sql_null/sql_null.c">
<polygon fill="none" stroke="black" points="2008.5,-56.5 2008.5,-75.5 2373.5,-75.5 2373.5,-56.5 2008.5,-56.5"/>
<text text-anchor="middle" x="2191" y="-63.5" font-family="Helvetica,sans-Serif" font-size="10.00">/home/pjm3/freeradius&#45;server/src/modules/rlm_sql/drivers/rlm_sql_null/sql_null.c</text>
</a>
</g>
<!-- Node1&#45;&gt;Node9 -->
<g id="edge16" class="edge"><title>Node1&#45;&gt;Node9</title>
<path fill="none" stroke="midnightblue" d="M2870.66,-111.812C2716.44,-101.644 2469.91,-85.3896 2319.98,-75.5042"/>
<polygon fill="midnightblue" stroke="midnightblue" points="2870.47,-115.308 2880.68,-112.473 2870.93,-108.323 2870.47,-115.308"/>
</g>
<!-- Node10 -->
<g id="node19" class="node"><title>Node10</title>
<a xlink:href="sql__oracle_8c.html" target="_top" xlink:title="/home/pjm3/freeradius&#45;server/src/modules/rlm_sql/drivers/rlm_sql_oracle/sql_oracle.c">
<polygon fill="none" stroke="black" points="2391,-56.5 2391,-75.5 2779,-75.5 2779,-56.5 2391,-56.5"/>
<text text-anchor="middle" x="2585" y="-63.5" font-family="Helvetica,sans-Serif" font-size="10.00">/home/pjm3/freeradius&#45;server/src/modules/rlm_sql/drivers/rlm_sql_oracle/sql_oracle.c</text>
</a>
</g>
<!-- Node1&#45;&gt;Node10 -->
<g id="edge18" class="edge"><title>Node1&#45;&gt;Node10</title>
<path fill="none" stroke="midnightblue" d="M2932.61,-111.167C2852.37,-100.972 2728.21,-85.1963 2652.03,-75.5164"/>
<polygon fill="midnightblue" stroke="midnightblue" points="2932.3,-114.655 2942.66,-112.444 2933.18,-107.711 2932.3,-114.655"/>
</g>
<!-- Node11 -->
<g id="node21" class="node"><title>Node11</title>
<a xlink:href="sql__postgresql_8c.html" target="_top" xlink:title="/home/pjm3/freeradius&#45;server/src/modules/rlm_sql/drivers/rlm_sql_postgresql/sql_postgresql.c">
<polygon fill="none" stroke="black" points="2797.5,-56.5 2797.5,-75.5 3222.5,-75.5 3222.5,-56.5 2797.5,-56.5"/>
<text text-anchor="middle" x="3010" y="-63.5" font-family="Helvetica,sans-Serif" font-size="10.00">/home/pjm3/freeradius&#45;server/src/modules/rlm_sql/drivers/rlm_sql_postgresql/sql_postgresql.c</text>
</a>
</g>
<!-- Node1&#45;&gt;Node11 -->
<g id="edge20" class="edge"><title>Node1&#45;&gt;Node11</title>
<path fill="none" stroke="midnightblue" d="M3010,-101.805C3010,-92.9102 3010,-82.7798 3010,-75.7511"/>
<polygon fill="midnightblue" stroke="midnightblue" points="3006.5,-102.083 3010,-112.083 3013.5,-102.083 3006.5,-102.083"/>
</g>
<!-- Node12 -->
<g id="node23" class="node"><title>Node12</title>
<a xlink:href="sql__sqlite_8c.html" target="_top" xlink:title="/home/pjm3/freeradius&#45;server/src/modules/rlm_sql/drivers/rlm_sql_sqlite/sql_sqlite.c">
<polygon fill="none" stroke="black" points="3241,-56.5 3241,-75.5 3623,-75.5 3623,-56.5 3241,-56.5"/>
<text text-anchor="middle" x="3432" y="-63.5" font-family="Helvetica,sans-Serif" font-size="10.00">/home/pjm3/freeradius&#45;server/src/modules/rlm_sql/drivers/rlm_sql_sqlite/sql_sqlite.c</text>
</a>
</g>
<!-- Node1&#45;&gt;Node12 -->
<g id="edge22" class="edge"><title>Node1&#45;&gt;Node12</title>
<path fill="none" stroke="midnightblue" d="M3086.84,-111.167C3166.52,-100.972 3289.8,-85.1963 3365.45,-75.5164"/>
<polygon fill="midnightblue" stroke="midnightblue" points="3086.34,-107.702 3076.87,-112.444 3087.23,-114.646 3086.34,-107.702"/>
</g>
<!-- Node13 -->
<g id="node25" class="node"><title>Node13</title>
<a xlink:href="sql__sybase_8c.html" target="_top" xlink:title="/home/pjm3/freeradius&#45;server/src/modules/rlm_sql/drivers/rlm_sql_sybase/sql_sybase.c">
<polygon fill="none" stroke="black" points="3641,-56.5 3641,-75.5 4039,-75.5 4039,-56.5 3641,-56.5"/>
<text text-anchor="middle" x="3840" y="-63.5" font-family="Helvetica,sans-Serif" font-size="10.00">/home/pjm3/freeradius&#45;server/src/modules/rlm_sql/drivers/rlm_sql_sybase/sql_sybase.c</text>
</a>
</g>
<!-- Node1&#45;&gt;Node13 -->
<g id="edge24" class="edge"><title>Node1&#45;&gt;Node13</title>
<path fill="none" stroke="midnightblue" d="M3151.22,-111.812C3307.51,-101.644 3557.34,-85.3896 3709.29,-75.5042"/>
<polygon fill="midnightblue" stroke="midnightblue" points="3150.81,-108.331 3141.06,-112.473 3151.26,-115.317 3150.81,-108.331"/>
</g>
<!-- Node14 -->
<g id="node27" class="node"><title>Node14</title>
<a xlink:href="sql__unixodbc_8c.html" target="_top" xlink:title="/home/pjm3/freeradius&#45;server/src/modules/rlm_sql/drivers/rlm_sql_unixodbc/sql_unixodbc.c">
<polygon fill="none" stroke="black" points="4057.5,-56.5 4057.5,-75.5 4470.5,-75.5 4470.5,-56.5 4057.5,-56.5"/>
<text text-anchor="middle" x="4264" y="-63.5" font-family="Helvetica,sans-Serif" font-size="10.00">/home/pjm3/freeradius&#45;server/src/modules/rlm_sql/drivers/rlm_sql_unixodbc/sql_unixodbc.c</text>
</a>
</g>
<!-- Node1&#45;&gt;Node14 -->
<g id="edge26" class="edge"><title>Node1&#45;&gt;Node14</title>
<path fill="none" stroke="midnightblue" d="M3158.96,-114.585C3384.92,-104.855 3814.59,-86.3526 4066.41,-75.5088"/>
<polygon fill="midnightblue" stroke="midnightblue" points="3158.53,-111.101 3148.69,-115.028 3158.83,-118.094 3158.53,-111.101"/>
</g>
<!-- Node15 -->
<g id="node29" class="node"><title>Node15</title>
<a xlink:href="rlm__sql_8c.html" target="_top" xlink:title="/home/pjm3/freeradius&#45;server/src/modules/rlm_sql/rlm_sql.c">
<polygon fill="none" stroke="black" points="4488.5,-56.5 4488.5,-75.5 4765.5,-75.5 4765.5,-56.5 4488.5,-56.5"/>
<text text-anchor="middle" x="4627" y="-63.5" font-family="Helvetica,sans-Serif" font-size="10.00">/home/pjm3/freeradius&#45;server/src/modules/rlm_sql/rlm_sql.c</text>
</a>
</g>
<!-- Node1&#45;&gt;Node15 -->
<g id="edge28" class="edge"><title>Node1&#45;&gt;Node15</title>
<path fill="none" stroke="midnightblue" d="M3158.61,-117.926C3423.87,-112.11 3996.3,-98.065 4479,-76 4482.47,-75.8413 4485.99,-75.6743 4489.54,-75.5004"/>
<polygon fill="midnightblue" stroke="midnightblue" points="3158.46,-114.429 3148.53,-118.147 3158.61,-121.427 3158.46,-114.429"/>
</g>
<!-- Node16 -->
<g id="node31" class="node"><title>Node16</title>
<a xlink:href="sql_8c.html" target="_top" xlink:title="/home/pjm3/freeradius&#45;server/src/modules/rlm_sql/sql.c">
<polygon fill="none" stroke="black" points="4784,-56.5 4784,-75.5 5042,-75.5 5042,-56.5 4784,-56.5"/>
<text text-anchor="middle" x="4913" y="-63.5" font-family="Helvetica,sans-Serif" font-size="10.00">/home/pjm3/freeradius&#45;server/src/modules/rlm_sql/sql.c</text>
</a>
</g>
<!-- Node1&#45;&gt;Node16 -->
<g id="edge30" class="edge"><title>Node1&#45;&gt;Node16</title>
<path fill="none" stroke="midnightblue" d="M3158.9,-119.168C3462.69,-114.997 4175.79,-102.986 4774,-76 4777.38,-75.8474 4780.81,-75.6846 4784.27,-75.5132"/>
<polygon fill="midnightblue" stroke="midnightblue" points="3158.66,-115.671 3148.71,-119.307 3158.76,-122.671 3158.66,-115.671"/>
</g>
<!-- Node17 -->
<g id="node33" class="node"><title>Node17</title>
<a xlink:href="rlm__sqlhpwippool_8c.html" target="_top" xlink:title="/home/pjm3/freeradius&#45;server/src/modules/rlm_sqlhpwippool/rlm_sqlhpwippool.c">
<polygon fill="none" stroke="black" points="5060,-56.5 5060,-75.5 5424,-75.5 5424,-56.5 5060,-56.5"/>
<text text-anchor="middle" x="5242" y="-63.5" font-family="Helvetica,sans-Serif" font-size="10.00">/home/pjm3/freeradius&#45;server/src/modules/rlm_sqlhpwippool/rlm_sqlhpwippool.c</text>
</a>
</g>
<!-- Node1&#45;&gt;Node17 -->
<g id="edge32" class="edge"><title>Node1&#45;&gt;Node17</title>
<path fill="none" stroke="midnightblue" d="M3158.93,-118.994C3495.94,-114.173 4342.82,-100.488 5051,-76 5055.56,-75.8423 5060.18,-75.6755 5064.85,-75.5011"/>
<polygon fill="midnightblue" stroke="midnightblue" points="3158.57,-115.498 3148.62,-119.141 3158.67,-122.498 3158.57,-115.498"/>
</g>
<!-- Node18 -->
<g id="node35" class="node"><title>Node18</title>
<a xlink:href="rlm__sqlippool_8c.html" target="_top" xlink:title="/home/pjm3/freeradius&#45;server/src/modules/rlm_sqlippool/rlm_sqlippool.c">
<polygon fill="none" stroke="black" points="5442,-56.5 5442,-75.5 5770,-75.5 5770,-56.5 5442,-56.5"/>
<text text-anchor="middle" x="5606" y="-63.5" font-family="Helvetica,sans-Serif" font-size="10.00">/home/pjm3/freeradius&#45;server/src/modules/rlm_sqlippool/rlm_sqlippool.c</text>
</a>
</g>
<!-- Node1&#45;&gt;Node18 -->
<g id="edge34" class="edge"><title>Node1&#45;&gt;Node18</title>
<path fill="none" stroke="midnightblue" d="M3158.89,-119.965C3538.25,-116.951 4572.05,-106.381 5433,-76 5437.36,-75.8462 5441.78,-75.681 5446.24,-75.5061"/>
<polygon fill="midnightblue" stroke="midnightblue" points="3158.65,-116.466 3148.68,-120.045 3158.7,-123.466 3158.65,-116.466"/>
</g>
<!-- Node4 -->
<g id="node7" class="node"><title>Node4</title>
<a xlink:href="sql__fbapi_8c.html" target="_top" xlink:title="/home/pjm3/freeradius&#45;server/src/modules/rlm_sql/drivers/rlm_sql_firebird/sql_fbapi.c">
<polygon fill="none" stroke="black" points="181,-0.5 181,-19.5 567,-19.5 567,-0.5 181,-0.5"/>
<text text-anchor="middle" x="374" y="-7.5" font-family="Helvetica,sans-Serif" font-size="10.00">/home/pjm3/freeradius&#45;server/src/modules/rlm_sql/drivers/rlm_sql_firebird/sql_fbapi.c</text>
</a>
</g>
<!-- Node3&#45;&gt;Node4 -->
<g id="edge6" class="edge"><title>Node3&#45;&gt;Node4</title>
<path fill="none" stroke="midnightblue" d="M535.799,-53.8291C497.282,-43.6333 441.178,-28.7823 406.173,-19.5164"/>
<polygon fill="midnightblue" stroke="midnightblue" points="535.113,-57.268 545.676,-56.4435 536.904,-50.5011 535.113,-57.268"/>
</g>
<!-- Node5 -->
<g id="node9" class="node"><title>Node5</title>
<a xlink:href="sql__firebird_8c.html" target="_top" xlink:title="/home/pjm3/freeradius&#45;server/src/modules/rlm_sql/drivers/rlm_sql_firebird/sql_firebird.c">
<polygon fill="none" stroke="black" points="585,-0.5 585,-19.5 979,-19.5 979,-0.5 585,-0.5"/>
<text text-anchor="middle" x="782" y="-7.5" font-family="Helvetica,sans-Serif" font-size="10.00">/home/pjm3/freeradius&#45;server/src/modules/rlm_sql/drivers/rlm_sql_firebird/sql_firebird.c</text>
</a>
</g>
<!-- Node3&#45;&gt;Node5 -->
<g id="edge8" class="edge"><title>Node3&#45;&gt;Node5</title>
<path fill="none" stroke="midnightblue" d="M620.201,-53.8291C658.718,-43.6333 714.822,-28.7823 749.827,-19.5164"/>
<polygon fill="midnightblue" stroke="midnightblue" points="619.096,-50.5011 610.324,-56.4435 620.887,-57.268 619.096,-50.5011"/>
</g>
</g>
</svg>
        <g id="navigator" transform="translate(0 0)" fill="#404254">
                <rect fill="#f2f5e9" fill-opacity="0.5" stroke="#606060" stroke-width=".5" x="0" y="0" width="60" height="60"/>
                <use id="zoomplus" xlink:href="#zoomPlus" x="17" y="9" onmousedown="handleZoom(evt,'in')"/>
                <use id="zoomminus" xlink:href="#zoomMin" x="42" y="9" onmousedown="handleZoom(evt,'out')"/>
                <use id="reset" xlink:href="#resetDef" x="30" y="36" onmousedown="handleReset()"/>
                <g id="arrowUp" xlink:href="#dirArrow" transform="translate(30 24)" onmousedown="handlePan(0,-1)">
                  <use xlink:href="#rim" fill="#404040">
                        <set attributeName="fill" to="#808080" begin="arrowUp.mouseover" end="arrowUp.mouseout"/>
                  </use>
                  <path fill="none" stroke="white" stroke-width="1.5" d="M0,-3.0v7 M-2.5,-0.5L0,-3.0L2.5,-0.5"/>
                </g>
                <g id="arrowRight" xlink:href="#dirArrow" transform="rotate(90) translate(36 -43)" onmousedown="handlePan(1,0)">
                  <use xlink:href="#rim" fill="#404040">
                        <set attributeName="fill" to="#808080" begin="arrowRight.mouseover" end="arrowRight.mouseout"/>
                  </use>
                  <path fill="none" stroke="white" stroke-width="1.5" d="M0,-3.0v7 M-2.5,-0.5L0,-3.0L2.5,-0.5"/>
                </g>
                <g id="arrowDown" xlink:href="#dirArrow" transform="rotate(180) translate(-30 -48)" onmousedown="handlePan(0,1)">
                  <use xlink:href="#rim" fill="#404040">
                        <set attributeName="fill" to="#808080" begin="arrowDown.mouseover" end="arrowDown.mouseout"/>
                  </use>
                  <path fill="none" stroke="white" stroke-width="1.5" d="M0,-3.0v7 M-2.5,-0.5L0,-3.0L2.5,-0.5"/>
                </g>
                <g id="arrowLeft" xlink:href="#dirArrow" transform="rotate(270) translate(-36 17)" onmousedown="handlePan(-1,0)">
                  <use xlink:href="#rim" fill="#404040">
                        <set attributeName="fill" to="#808080" begin="arrowLeft.mouseover" end="arrowLeft.mouseout"/>
                  </use>
                  <path fill="none" stroke="white" stroke-width="1.5" d="M0,-3.0v7 M-2.5,-0.5L0,-3.0L2.5,-0.5"/>
                </g>
        </g>
</svg>
