<?xml version="1.0" encoding="UTF-8" standalone="no"?>
<!DOCTYPE svg PUBLIC "-//W3C//DTD SVG 1.1//EN"
 "http://www.w3.org/Graphics/SVG/1.1/DTD/svg11.dtd">
<!-- Generated by graphviz version 2.28.0 (20111211.2114)
 -->
<!-- Title: G Pages: 1 -->
<!--zoomable-->
<svg id="main" version="1.1" xmlns="http://www.w3.org/2000/svg" xmlns:xlink="http://www.w3.org/1999/xlink" xml:space="preserve" onload="init(evt)">
        <defs>
                <circle id="rim" cx="0" cy="0" r="7"/>
                <circle id="rim2" cx="0" cy="0" r="3.5"/>
                <g id="zoomPlus">
                        <use xlink:href="#rim" fill="#404040">
                                <set attributeName="fill" to="#808080" begin="zoomplus.mouseover" end="zoomplus.mouseout"/>
                        </use>
                        <path d="M-4,0h8M0,-4v8" fill="none" stroke="white" stroke-width="1.5" pointer-events="none"/>
                </g>
                <g id="zoomMin">
                        <use xlink:href="#rim" fill="#404040">
                                <set attributeName="fill" to="#808080" begin="zoomminus.mouseover" end="zoomminus.mouseout"/>
                        </use>
                        <path d="M-4,0h8" fill="none" stroke="white" stroke-width="1.5" pointer-events="none"/>
                </g>
                <g id="dirArrow">
                        <path fill="none" stroke="white" stroke-width="1.5" d="M0,-3.0v7 M-2.5,-0.5L0,-3.0L2.5,-0.5"/>
                </g>
               <g id="resetDef">
                       <use xlink:href="#rim2" fill="#404040">
                               <set attributeName="fill" to="#808080" begin="reset.mouseover" end="reset.mouseout"/>
                       </use>
               </g>
        </defs>

<script type="text/javascript">
var viewWidth = 684;
var viewHeight = 308;
var sectionId = 'dynsection-0';
</script>
<script xlink:href="svgpan.js"/>
<svg id="graph" class="graph">
<g id="viewport">
<title>G</title>
<!-- Node1 -->
<g id="node1" class="node"><title>Node1</title>
<polygon fill="#bfbfbf" stroke="black" points="172,-280.5 172,-299.5 566,-299.5 566,-280.5 172,-280.5"/>
<text text-anchor="middle" x="369" y="-287.5" font-family="Helvetica,sans-Serif" font-size="10.00">/home/pjm3/freeradius&#45;server/src/modules/rlm_eap/types/rlm_eap_pwd/rlm_eap_pwd.c</text>
</g>
<!-- Node2 -->
<g id="node3" class="node"><title>Node2</title>
<polygon fill="none" stroke="#bfbfbf" points="108,-0.5 108,-19.5 226,-19.5 226,-0.5 108,-0.5"/>
<text text-anchor="middle" x="167" y="-7.5" font-family="Helvetica,sans-Serif" font-size="10.00">freeradius&#45;devel/ident.h</text>
</g>
<!-- Node1&#45;&gt;Node2 -->
<g id="edge2" class="edge"><title>Node1&#45;&gt;Node2</title>
<path fill="none" stroke="midnightblue" d="M281.552,-280.499C172.434,-267.418 0,-237.492 0,-179 0,-179 0,-179 0,-121 0,-65.2971 65.5988,-36.2083 114.569,-22.2536"/>
<polygon fill="midnightblue" stroke="midnightblue" points="115.691,-25.5759 124.427,-19.5812 113.859,-18.8198 115.691,-25.5759"/>
</g>
<!-- Node3 -->
<g id="node5" class="node"><title>Node3</title>
<polygon fill="none" stroke="#bfbfbf" points="464,-224.5 464,-243.5 598,-243.5 598,-224.5 464,-224.5"/>
<text text-anchor="middle" x="531" y="-231.5" font-family="Helvetica,sans-Serif" font-size="10.00">freeradius&#45;devel/autoconf.h</text>
</g>
<!-- Node1&#45;&gt;Node3 -->
<g id="edge4" class="edge"><title>Node1&#45;&gt;Node3</title>
<path fill="none" stroke="midnightblue" d="M394.669,-280.444C421.923,-271.359 465.184,-256.939 495.651,-246.783"/>
<polygon fill="midnightblue" stroke="midnightblue" points="497.071,-249.999 505.451,-243.516 494.857,-243.358 497.071,-249.999"/>
</g>
<!-- Node4 -->
<g id="node7" class="node"><title>Node4</title>
<a xlink:href="rlm__eap__pwd_8h.html" target="_top" xlink:title="rlm_eap_pwd.h">
<polygon fill="none" stroke="black" points="362.5,-224.5 362.5,-243.5 445.5,-243.5 445.5,-224.5 362.5,-224.5"/>
<text text-anchor="middle" x="404" y="-231.5" font-family="Helvetica,sans-Serif" font-size="10.00">rlm_eap_pwd.h</text>
</a>
</g>
<!-- Node1&#45;&gt;Node4 -->
<g id="edge6" class="edge"><title>Node1&#45;&gt;Node4</title>
<path fill="none" stroke="midnightblue" d="M374.78,-280.083C379.672,-272.534 386.827,-261.495 392.833,-252.23"/>
<polygon fill="midnightblue" stroke="midnightblue" points="395.826,-254.046 398.328,-243.751 389.952,-250.239 395.826,-254.046"/>
</g>
<!-- Node5 -->
<g id="node9" class="node"><title>Node5</title>
<a xlink:href="eap__pwd_8h.html" target="_top" xlink:title="eap_pwd.h">
<polygon fill="none" stroke="black" points="302,-168.5 302,-187.5 366,-187.5 366,-168.5 302,-168.5"/>
<text text-anchor="middle" x="334" y="-175.5" font-family="Helvetica,sans-Serif" font-size="10.00">eap_pwd.h</text>
</a>
</g>
<!-- Node1&#45;&gt;Node5 -->
<g id="edge44" class="edge"><title>Node1&#45;&gt;Node5</title>
<path fill="none" stroke="midnightblue" d="M365.785,-280.423C362.445,-271.406 357.136,-256.78 353,-244 347.966,-228.445 342.794,-210.609 339.12,-197.56"/>
<polygon fill="midnightblue" stroke="midnightblue" points="342.479,-196.573 336.422,-187.88 335.736,-198.453 342.479,-196.573"/>
</g>
<!-- Node4&#45;&gt;Node5 -->
<g id="edge8" class="edge"><title>Node4&#45;&gt;Node5</title>
<path fill="none" stroke="midnightblue" d="M392.753,-224.324C382.203,-216.185 366.199,-203.839 353.558,-194.087"/>
<polygon fill="midnightblue" stroke="midnightblue" points="355.507,-191.171 345.451,-187.834 351.231,-196.713 355.507,-191.171"/>
</g>
<!-- Node7 -->
<g id="node15" class="node"><title>Node7</title>
<polygon fill="none" stroke="#bfbfbf" points="548,-0.5 548,-19.5 676,-19.5 676,-0.5 548,-0.5"/>
<text text-anchor="middle" x="612" y="-7.5" font-family="Helvetica,sans-Serif" font-size="10.00">freeradius&#45;devel/radiusd.h</text>
</g>
<!-- Node4&#45;&gt;Node7 -->
<g id="edge40" class="edge"><title>Node4&#45;&gt;Node7</title>
<path fill="none" stroke="midnightblue" d="M443.656,-224.463C483.725,-215.355 542.428,-200.54 562,-188 589.601,-170.316 598.373,-162.649 610,-132 622.995,-97.7444 619.214,-54.0123 615.482,-29.609"/>
<polygon fill="midnightblue" stroke="midnightblue" points="618.905,-28.8564 613.78,-19.5835 612.003,-30.0284 618.905,-28.8564"/>
</g>
<!-- Node8 -->
<g id="node17" class="node"><title>Node8</title>
<polygon fill="none" stroke="#bfbfbf" points="396,-0.5 396,-19.5 530,-19.5 530,-0.5 396,-0.5"/>
<text text-anchor="middle" x="463" y="-7.5" font-family="Helvetica,sans-Serif" font-size="10.00">freeradius&#45;devel/modules.h</text>
</g>
<!-- Node4&#45;&gt;Node8 -->
<g id="edge42" class="edge"><title>Node4&#45;&gt;Node8</title>
<path fill="none" stroke="midnightblue" d="M443.647,-224.447C488.651,-212.385 559.961,-185.582 592,-132 620.688,-84.022 543.337,-43.0903 496.255,-23.4464"/>
<polygon fill="midnightblue" stroke="midnightblue" points="497.299,-20.0932 486.717,-19.5828 494.671,-26.5811 497.299,-20.0932"/>
</g>
<!-- Node5&#45;&gt;Node2 -->
<g id="edge10" class="edge"><title>Node5&#45;&gt;Node2</title>
<path fill="none" stroke="midnightblue" d="M301.668,-173.964C253.341,-168.682 165.909,-155.999 147,-132 123.269,-101.88 142.825,-54.2556 156.508,-28.6614"/>
<polygon fill="midnightblue" stroke="midnightblue" points="159.682,-30.1581 161.532,-19.726 153.58,-26.7274 159.682,-30.1581"/>
</g>
<!-- Node6 -->
<g id="node12" class="node"><title>Node6</title>
<a xlink:href="eap_8h.html" target="_top" xlink:title="eap.h">
<polygon fill="none" stroke="black" points="542.5,-112.5 542.5,-131.5 583.5,-131.5 583.5,-112.5 542.5,-112.5"/>
<text text-anchor="middle" x="563" y="-119.5" font-family="Helvetica,sans-Serif" font-size="10.00">eap.h</text>
</a>
</g>
<!-- Node5&#45;&gt;Node6 -->
<g id="edge12" class="edge"><title>Node5&#45;&gt;Node6</title>
<path fill="none" stroke="midnightblue" d="M366.219,-170.43C403.784,-162.613 467.933,-148.782 532.459,-131.994"/>
<polygon fill="midnightblue" stroke="midnightblue" points="533.613,-135.31 542.396,-129.385 531.835,-128.539 533.613,-135.31"/>
</g>
<!-- Node11 -->
<g id="node26" class="node"><title>Node11</title>
<polygon fill="none" stroke="#bfbfbf" points="28,-112.5 28,-131.5 100,-131.5 100,-112.5 28,-112.5"/>
<text text-anchor="middle" x="64" y="-119.5" font-family="Helvetica,sans-Serif" font-size="10.00">openssl/bn.h</text>
</g>
<!-- Node5&#45;&gt;Node11 -->
<g id="edge30" class="edge"><title>Node5&#45;&gt;Node11</title>
<path fill="none" stroke="midnightblue" d="M301.967,-170.593C254.462,-161.092 165.076,-143.215 110.404,-132.281"/>
<polygon fill="midnightblue" stroke="midnightblue" points="110.779,-128.786 100.286,-130.257 109.406,-135.651 110.779,-128.786"/>
</g>
<!-- Node12 -->
<g id="node28" class="node"><title>Node12</title>
<polygon fill="none" stroke="#bfbfbf" points="156.5,-112.5 156.5,-131.5 233.5,-131.5 233.5,-112.5 156.5,-112.5"/>
<text text-anchor="middle" x="195" y="-119.5" font-family="Helvetica,sans-Serif" font-size="10.00">openssl/sha.h</text>
</g>
<!-- Node5&#45;&gt;Node12 -->
<g id="edge32" class="edge"><title>Node5&#45;&gt;Node12</title>
<path fill="none" stroke="midnightblue" d="M311.975,-168.444C288.896,-159.478 252.438,-145.314 226.359,-135.183"/>
<polygon fill="midnightblue" stroke="midnightblue" points="227.511,-131.875 216.922,-131.516 224.976,-138.4 227.511,-131.875"/>
</g>
<!-- Node13 -->
<g id="node30" class="node"><title>Node13</title>
<polygon fill="none" stroke="#bfbfbf" points="252,-112.5 252,-131.5 324,-131.5 324,-112.5 252,-112.5"/>
<text text-anchor="middle" x="288" y="-119.5" font-family="Helvetica,sans-Serif" font-size="10.00">openssl/ec.h</text>
</g>
<!-- Node5&#45;&gt;Node13 -->
<g id="edge34" class="edge"><title>Node5&#45;&gt;Node13</title>
<path fill="none" stroke="midnightblue" d="M326.404,-168.083C319.773,-160.298 309.979,-148.801 301.942,-139.367"/>
<polygon fill="midnightblue" stroke="midnightblue" points="304.604,-137.094 295.455,-131.751 299.275,-141.633 304.604,-137.094"/>
</g>
<!-- Node14 -->
<g id="node32" class="node"><title>Node14</title>
<polygon fill="none" stroke="#bfbfbf" points="342.5,-112.5 342.5,-131.5 419.5,-131.5 419.5,-112.5 342.5,-112.5"/>
<text text-anchor="middle" x="381" y="-119.5" font-family="Helvetica,sans-Serif" font-size="10.00">openssl/evp.h</text>
</g>
<!-- Node5&#45;&gt;Node14 -->
<g id="edge36" class="edge"><title>Node5&#45;&gt;Node14</title>
<path fill="none" stroke="midnightblue" d="M341.761,-168.083C348.537,-160.298 358.543,-148.801 366.755,-139.367"/>
<polygon fill="midnightblue" stroke="midnightblue" points="369.458,-141.592 373.383,-131.751 364.178,-136.996 369.458,-141.592"/>
</g>
<!-- Node15 -->
<g id="node34" class="node"><title>Node15</title>
<polygon fill="none" stroke="#bfbfbf" points="438,-112.5 438,-131.5 524,-131.5 524,-112.5 438,-112.5"/>
<text text-anchor="middle" x="481" y="-119.5" font-family="Helvetica,sans-Serif" font-size="10.00">openssl/hmac.h</text>
</g>
<!-- Node5&#45;&gt;Node15 -->
<g id="edge38" class="edge"><title>Node5&#45;&gt;Node15</title>
<path fill="none" stroke="midnightblue" d="M357.293,-168.444C381.807,-159.438 420.596,-145.189 448.2,-135.049"/>
<polygon fill="midnightblue" stroke="midnightblue" points="449.637,-138.25 457.816,-131.516 447.223,-131.679 449.637,-138.25"/>
</g>
<!-- Node6&#45;&gt;Node2 -->
<g id="edge14" class="edge"><title>Node6&#45;&gt;Node2</title>
<path fill="none" stroke="midnightblue" d="M542.445,-114.414C539.3,-113.529 536.077,-112.69 533,-112 428.18,-88.5073 396.258,-108.9 294,-76 254.903,-63.4211 213.172,-39.8672 188.622,-24.8332"/>
<polygon fill="midnightblue" stroke="midnightblue" points="190.436,-21.8393 180.096,-19.529 186.738,-27.7831 190.436,-21.8393"/>
</g>
<!-- Node6&#45;&gt;Node7 -->
<g id="edge16" class="edge"><title>Node6&#45;&gt;Node7</title>
<path fill="none" stroke="midnightblue" d="M566.845,-112.368C574.824,-94.4563 593.325,-52.9233 604.005,-28.9482"/>
<polygon fill="midnightblue" stroke="midnightblue" points="607.301,-30.1503 608.173,-19.5914 600.907,-27.3019 607.301,-30.1503"/>
</g>
<!-- Node6&#45;&gt;Node8 -->
<g id="edge18" class="edge"><title>Node6&#45;&gt;Node8</title>
<path fill="none" stroke="midnightblue" d="M542.44,-114.434C539.297,-113.546 536.075,-112.701 533,-112 482.987,-100.604 338.322,-114.997 305,-76 276.761,-42.9521 332.636,-26.4401 385.573,-18.3619"/>
<polygon fill="midnightblue" stroke="midnightblue" points="386.346,-21.7869 395.748,-16.9029 385.353,-14.8577 386.346,-21.7869"/>
</g>
<!-- Node9 -->
<g id="node19" class="node"><title>Node9</title>
<polygon fill="none" stroke="#bfbfbf" points="314.5,-56.5 314.5,-75.5 457.5,-75.5 457.5,-56.5 314.5,-56.5"/>
<text text-anchor="middle" x="386" y="-63.5" font-family="Helvetica,sans-Serif" font-size="10.00">freeradius&#45;devel/rad_assert.h</text>
</g>
<!-- Node6&#45;&gt;Node9 -->
<g id="edge20" class="edge"><title>Node6&#45;&gt;Node9</title>
<path fill="none" stroke="midnightblue" d="M542.349,-114.7C513.342,-105.85 460.029,-89.5851 423.808,-78.5347"/>
<polygon fill="midnightblue" stroke="midnightblue" points="424.666,-75.1372 414.08,-75.5667 422.623,-81.8325 424.666,-75.1372"/>
</g>
<!-- Node10 -->
<g id="node21" class="node"><title>Node10</title>
<a xlink:href="eap__types_8h.html" target="_top" xlink:title="eap_types.h">
<polygon fill="none" stroke="black" points="476,-56.5 476,-75.5 546,-75.5 546,-56.5 476,-56.5"/>
<text text-anchor="middle" x="511" y="-63.5" font-family="Helvetica,sans-Serif" font-size="10.00">eap_types.h</text>
</a>
</g>
<!-- Node6&#45;&gt;Node10 -->
<g id="edge22" class="edge"><title>Node6&#45;&gt;Node10</title>
<path fill="none" stroke="midnightblue" d="M554.413,-112.083C546.841,-104.22 535.622,-92.5688 526.486,-83.0813"/>
<polygon fill="midnightblue" stroke="midnightblue" points="528.885,-80.5266 519.427,-75.7511 523.842,-85.3821 528.885,-80.5266"/>
</g>
<!-- Node10&#45;&gt;Node2 -->
<g id="edge24" class="edge"><title>Node10&#45;&gt;Node2</title>
<path fill="none" stroke="midnightblue" d="M475.657,-57.7648C472.396,-57.1475 469.139,-56.5498 466,-56 387.548,-42.2595 297.063,-28.9996 236.365,-20.4771"/>
<polygon fill="midnightblue" stroke="midnightblue" points="236.526,-16.9657 226.137,-19.0464 235.556,-23.8982 236.526,-16.9657"/>
</g>
<!-- Node10&#45;&gt;Node7 -->
<g id="edge26" class="edge"><title>Node10&#45;&gt;Node7</title>
<path fill="none" stroke="midnightblue" d="M527.227,-56.324C543.351,-47.7034 568.3,-34.3643 586.964,-24.3855"/>
<polygon fill="midnightblue" stroke="midnightblue" points="588.644,-27.456 595.813,-19.6545 585.344,-21.283 588.644,-27.456"/>
</g>
<!-- Node10&#45;&gt;Node8 -->
<g id="edge28" class="edge"><title>Node10&#45;&gt;Node8</title>
<path fill="none" stroke="midnightblue" d="M503.074,-56.083C496.154,-48.2982 485.935,-36.8015 477.548,-27.3665"/>
<polygon fill="midnightblue" stroke="midnightblue" points="480.038,-24.8999 470.779,-19.7511 474.806,-29.5505 480.038,-24.8999"/>
</g>
</g>
</svg>
        <g id="navigator" transform="translate(0 0)" fill="#404254">
                <rect fill="#f2f5e9" fill-opacity="0.5" stroke="#606060" stroke-width=".5" x="0" y="0" width="60" height="60"/>
                <use id="zoomplus" xlink:href="#zoomPlus" x="17" y="9" onmousedown="handleZoom(evt,'in')"/>
                <use id="zoomminus" xlink:href="#zoomMin" x="42" y="9" onmousedown="handleZoom(evt,'out')"/>
                <use id="reset" xlink:href="#resetDef" x="30" y="36" onmousedown="handleReset()"/>
                <g id="arrowUp" xlink:href="#dirArrow" transform="translate(30 24)" onmousedown="handlePan(0,-1)">
                  <use xlink:href="#rim" fill="#404040">
                        <set attributeName="fill" to="#808080" begin="arrowUp.mouseover" end="arrowUp.mouseout"/>
                  </use>
                  <path fill="none" stroke="white" stroke-width="1.5" d="M0,-3.0v7 M-2.5,-0.5L0,-3.0L2.5,-0.5"/>
                </g>
                <g id="arrowRight" xlink:href="#dirArrow" transform="rotate(90) translate(36 -43)" onmousedown="handlePan(1,0)">
                  <use xlink:href="#rim" fill="#404040">
                        <set attributeName="fill" to="#808080" begin="arrowRight.mouseover" end="arrowRight.mouseout"/>
                  </use>
                  <path fill="none" stroke="white" stroke-width="1.5" d="M0,-3.0v7 M-2.5,-0.5L0,-3.0L2.5,-0.5"/>
                </g>
                <g id="arrowDown" xlink:href="#dirArrow" transform="rotate(180) translate(-30 -48)" onmousedown="handlePan(0,1)">
                  <use xlink:href="#rim" fill="#404040">
                        <set attributeName="fill" to="#808080" begin="arrowDown.mouseover" end="arrowDown.mouseout"/>
                  </use>
                  <path fill="none" stroke="white" stroke-width="1.5" d="M0,-3.0v7 M-2.5,-0.5L0,-3.0L2.5,-0.5"/>
                </g>
                <g id="arrowLeft" xlink:href="#dirArrow" transform="rotate(270) translate(-36 17)" onmousedown="handlePan(-1,0)">
                  <use xlink:href="#rim" fill="#404040">
                        <set attributeName="fill" to="#808080" begin="arrowLeft.mouseover" end="arrowLeft.mouseout"/>
                  </use>
                  <path fill="none" stroke="white" stroke-width="1.5" d="M0,-3.0v7 M-2.5,-0.5L0,-3.0L2.5,-0.5"/>
                </g>
        </g>
</svg>
