<?xml version="1.0" encoding="UTF-8" standalone="no"?>
<!DOCTYPE svg PUBLIC "-//W3C//DTD SVG 1.1//EN"
 "http://www.w3.org/Graphics/SVG/1.1/DTD/svg11.dtd">
<!-- Generated by graphviz version 2.28.0 (20111211.2114)
 -->
<!-- Title: G Pages: 1 -->
<!--zoomable-->
<svg id="main" version="1.1" xmlns="http://www.w3.org/2000/svg" xmlns:xlink="http://www.w3.org/1999/xlink" xml:space="preserve" onload="init(evt)">
        <defs>
                <circle id="rim" cx="0" cy="0" r="7"/>
                <circle id="rim2" cx="0" cy="0" r="3.5"/>
                <g id="zoomPlus">
                        <use xlink:href="#rim" fill="#404040">
                                <set attributeName="fill" to="#808080" begin="zoomplus.mouseover" end="zoomplus.mouseout"/>
                        </use>
                        <path d="M-4,0h8M0,-4v8" fill="none" stroke="white" stroke-width="1.5" pointer-events="none"/>
                </g>
                <g id="zoomMin">
                        <use xlink:href="#rim" fill="#404040">
                                <set attributeName="fill" to="#808080" begin="zoomminus.mouseover" end="zoomminus.mouseout"/>
                        </use>
                        <path d="M-4,0h8" fill="none" stroke="white" stroke-width="1.5" pointer-events="none"/>
                </g>
                <g id="dirArrow">
                        <path fill="none" stroke="white" stroke-width="1.5" d="M0,-3.0v7 M-2.5,-0.5L0,-3.0L2.5,-0.5"/>
                </g>
               <g id="resetDef">
                       <use xlink:href="#rim2" fill="#404040">
                               <set attributeName="fill" to="#808080" begin="reset.mouseover" end="reset.mouseout"/>
                       </use>
               </g>
        </defs>

<script type="text/javascript">
var viewWidth = 591;
var viewHeight = 252;
var sectionId = 'dynsection-0';
</script>
<script xlink:href="svgpan.js"/>
<svg id="graph" class="graph">
<g id="viewport">
<title>G</title>
<!-- Node1 -->
<g id="node1" class="node"><title>Node1</title>
<polygon fill="#bfbfbf" stroke="black" points="261.22,-224.5 261.22,-243.5 544.22,-243.5 544.22,-224.5 261.22,-224.5"/>
<text text-anchor="middle" x="402.72" y="-231.5" font-family="Helvetica,sans-Serif" font-size="10.00">/home/pjm3/freeradius&#45;server/src/modules/rlm_eap/rlm_eap.c</text>
</g>
<!-- Node2 -->
<g id="node3" class="node"><title>Node2</title>
<polygon fill="none" stroke="#bfbfbf" points="73.7196,-0.5 73.7196,-19.5 191.72,-19.5 191.72,-0.5 73.7196,-0.5"/>
<text text-anchor="middle" x="132.72" y="-7.5" font-family="Helvetica,sans-Serif" font-size="10.00">freeradius&#45;devel/ident.h</text>
</g>
<!-- Node1&#45;&gt;Node2 -->
<g id="edge2" class="edge"><title>Node1&#45;&gt;Node2</title>
<path fill="none" stroke="midnightblue" d="M326.444,-224.469C223.174,-211.168 47.3026,-181.721 8.71958,-132 -25.3673,-88.073 54.4254,-44.4946 101.411,-23.6646"/>
<polygon fill="midnightblue" stroke="midnightblue" points="103.093,-26.7506 110.886,-19.5731 100.318,-20.3242 103.093,-26.7506"/>
</g>
<!-- Node3 -->
<g id="node5" class="node"><title>Node3</title>
<polygon fill="none" stroke="#bfbfbf" points="302.72,-0.5 302.72,-19.5 430.72,-19.5 430.72,-0.5 302.72,-0.5"/>
<text text-anchor="middle" x="366.72" y="-7.5" font-family="Helvetica,sans-Serif" font-size="10.00">freeradius&#45;devel/radiusd.h</text>
</g>
<!-- Node1&#45;&gt;Node3 -->
<g id="edge4" class="edge"><title>Node1&#45;&gt;Node3</title>
<path fill="none" stroke="midnightblue" d="M410.32,-224.248C432.751,-197.311 494.896,-113.966 458.72,-56 448.962,-40.3644 432.022,-30.013 415.317,-23.2301"/>
<polygon fill="midnightblue" stroke="midnightblue" points="416.158,-19.8098 405.565,-19.6357 413.737,-26.378 416.158,-19.8098"/>
</g>
<!-- Node4 -->
<g id="node7" class="node"><title>Node4</title>
<polygon fill="none" stroke="#bfbfbf" points="448.72,-0.5 448.72,-19.5 582.72,-19.5 582.72,-0.5 448.72,-0.5"/>
<text text-anchor="middle" x="515.72" y="-7.5" font-family="Helvetica,sans-Serif" font-size="10.00">freeradius&#45;devel/modules.h</text>
</g>
<!-- Node1&#45;&gt;Node4 -->
<g id="edge6" class="edge"><title>Node1&#45;&gt;Node4</title>
<path fill="none" stroke="midnightblue" d="M417.108,-224.258C429.357,-216.179 446.676,-203.156 457.72,-188 494.162,-137.987 508.531,-63.8387 513.464,-29.5862"/>
<polygon fill="midnightblue" stroke="midnightblue" points="516.944,-29.9663 514.793,-19.5921 510.005,-29.0433 516.944,-29.9663"/>
</g>
<!-- Node5 -->
<g id="node9" class="node"><title>Node5</title>
<a xlink:href="rlm__eap_8h.html" target="_top" xlink:title="rlm_eap.h">
<polygon fill="none" stroke="black" points="260.22,-168.5 260.22,-187.5 319.22,-187.5 319.22,-168.5 260.22,-168.5"/>
<text text-anchor="middle" x="289.72" y="-175.5" font-family="Helvetica,sans-Serif" font-size="10.00">rlm_eap.h</text>
</a>
</g>
<!-- Node1&#45;&gt;Node5 -->
<g id="edge8" class="edge"><title>Node1&#45;&gt;Node5</title>
<path fill="none" stroke="midnightblue" d="M384.814,-224.444C366.466,-215.675 337.714,-201.935 316.626,-191.858"/>
<polygon fill="midnightblue" stroke="midnightblue" points="318.073,-188.67 307.541,-187.516 315.055,-194.986 318.073,-188.67"/>
</g>
<!-- Node5&#45;&gt;Node2 -->
<g id="edge10" class="edge"><title>Node5&#45;&gt;Node2</title>
<path fill="none" stroke="midnightblue" d="M277.346,-168.321C254.718,-152.042 205.939,-115.03 172.72,-76 160.264,-61.366 149.083,-42.4511 141.73,-28.8027"/>
<polygon fill="midnightblue" stroke="midnightblue" points="144.629,-26.7926 136.896,-19.5503 138.425,-30.0343 144.629,-26.7926"/>
</g>
<!-- Node6 -->
<g id="node12" class="node"><title>Node6</title>
<polygon fill="none" stroke="#bfbfbf" points="18.2196,-112.5 18.2196,-131.5 149.22,-131.5 149.22,-112.5 18.2196,-112.5"/>
<text text-anchor="middle" x="83.7196" y="-119.5" font-family="Helvetica,sans-Serif" font-size="10.00">freeradius&#45;devel/modpriv.h</text>
</g>
<!-- Node5&#45;&gt;Node6 -->
<g id="edge12" class="edge"><title>Node5&#45;&gt;Node6</title>
<path fill="none" stroke="midnightblue" d="M260.205,-169.263C225.027,-160.042 165.986,-144.565 125.975,-134.077"/>
<polygon fill="midnightblue" stroke="midnightblue" points="126.799,-130.674 116.238,-131.524 125.024,-137.446 126.799,-130.674"/>
</g>
<!-- Node7 -->
<g id="node14" class="node"><title>Node7</title>
<a xlink:href="eap_8h.html" target="_top" xlink:title="eap.h">
<polygon fill="none" stroke="black" points="269.22,-112.5 269.22,-131.5 310.22,-131.5 310.22,-112.5 269.22,-112.5"/>
<text text-anchor="middle" x="289.72" y="-119.5" font-family="Helvetica,sans-Serif" font-size="10.00">eap.h</text>
</a>
</g>
<!-- Node5&#45;&gt;Node7 -->
<g id="edge14" class="edge"><title>Node5&#45;&gt;Node7</title>
<path fill="none" stroke="midnightblue" d="M289.72,-168.083C289.72,-161.006 289.72,-150.861 289.72,-141.986"/>
<polygon fill="midnightblue" stroke="midnightblue" points="293.22,-141.751 289.72,-131.751 286.22,-141.751 293.22,-141.751"/>
</g>
<!-- Node9 -->
<g id="node21" class="node"><title>Node9</title>
<a xlink:href="eap__types_8h.html" target="_top" xlink:title="eap_types.h">
<polygon fill="none" stroke="black" points="379.72,-56.5 379.72,-75.5 449.72,-75.5 449.72,-56.5 379.72,-56.5"/>
<text text-anchor="middle" x="414.72" y="-63.5" font-family="Helvetica,sans-Serif" font-size="10.00">eap_types.h</text>
</a>
</g>
<!-- Node5&#45;&gt;Node9 -->
<g id="edge32" class="edge"><title>Node5&#45;&gt;Node9</title>
<path fill="none" stroke="midnightblue" d="M299.528,-168.368C320.613,-149.814 370.5,-105.913 397.177,-82.4376"/>
<polygon fill="midnightblue" stroke="midnightblue" points="399.762,-84.8252 404.957,-75.5914 395.137,-79.5702 399.762,-84.8252"/>
</g>
<!-- Node7&#45;&gt;Node2 -->
<g id="edge16" class="edge"><title>Node7&#45;&gt;Node2</title>
<path fill="none" stroke="midnightblue" d="M268.96,-112.593C250.275,-104.552 222.49,-91.3946 200.72,-76 180.432,-61.6545 160.242,-41.4026 147.198,-27.3313"/>
<polygon fill="midnightblue" stroke="midnightblue" points="149.714,-24.8961 140.397,-19.852 144.535,-29.6053 149.714,-24.8961"/>
</g>
<!-- Node7&#45;&gt;Node3 -->
<g id="edge18" class="edge"><title>Node7&#45;&gt;Node3</title>
<path fill="none" stroke="midnightblue" d="M268.867,-114.582C238.772,-104.234 188.839,-82.3339 208.72,-56 220.275,-40.694 263.292,-29.0508 301.527,-21.446"/>
<polygon fill="midnightblue" stroke="midnightblue" points="302.476,-24.8277 311.636,-19.5043 301.156,-17.9534 302.476,-24.8277"/>
</g>
<!-- Node7&#45;&gt;Node4 -->
<g id="edge20" class="edge"><title>Node7&#45;&gt;Node4</title>
<path fill="none" stroke="midnightblue" d="M310.224,-119.4C343.629,-115.989 410.867,-105.705 458.72,-76 478.176,-63.9219 494.688,-43.1514 504.854,-28.3404"/>
<polygon fill="midnightblue" stroke="midnightblue" points="508.018,-29.8986 510.585,-19.6194 502.168,-26.0542 508.018,-29.8986"/>
</g>
<!-- Node8 -->
<g id="node19" class="node"><title>Node8</title>
<polygon fill="none" stroke="#bfbfbf" points="218.22,-56.5 218.22,-75.5 361.22,-75.5 361.22,-56.5 218.22,-56.5"/>
<text text-anchor="middle" x="289.72" y="-63.5" font-family="Helvetica,sans-Serif" font-size="10.00">freeradius&#45;devel/rad_assert.h</text>
</g>
<!-- Node7&#45;&gt;Node8 -->
<g id="edge22" class="edge"><title>Node7&#45;&gt;Node8</title>
<path fill="none" stroke="midnightblue" d="M289.72,-112.083C289.72,-105.006 289.72,-94.8611 289.72,-85.9865"/>
<polygon fill="midnightblue" stroke="midnightblue" points="293.22,-85.751 289.72,-75.7511 286.22,-85.7511 293.22,-85.751"/>
</g>
<!-- Node7&#45;&gt;Node9 -->
<g id="edge24" class="edge"><title>Node7&#45;&gt;Node9</title>
<path fill="none" stroke="midnightblue" d="M309.526,-112.444C330.006,-103.596 362.202,-89.6875 385.584,-79.5865"/>
<polygon fill="midnightblue" stroke="midnightblue" points="387.214,-82.6953 395.006,-75.5164 384.438,-76.2692 387.214,-82.6953"/>
</g>
<!-- Node9&#45;&gt;Node2 -->
<g id="edge26" class="edge"><title>Node9&#45;&gt;Node2</title>
<path fill="none" stroke="midnightblue" d="M379.353,-57.8928C376.097,-57.2487 372.848,-56.6097 369.72,-56 307.74,-43.9182 236.557,-30.4583 188.512,-21.4345"/>
<polygon fill="midnightblue" stroke="midnightblue" points="189.096,-17.9832 178.622,-19.5784 187.805,-24.8631 189.096,-17.9832"/>
</g>
<!-- Node9&#45;&gt;Node3 -->
<g id="edge28" class="edge"><title>Node9&#45;&gt;Node3</title>
<path fill="none" stroke="midnightblue" d="M406.793,-56.083C399.874,-48.2982 389.654,-36.8015 381.268,-27.3665"/>
<polygon fill="midnightblue" stroke="midnightblue" points="383.758,-24.8999 374.498,-19.7511 378.526,-29.5505 383.758,-24.8999"/>
</g>
<!-- Node9&#45;&gt;Node4 -->
<g id="edge30" class="edge"><title>Node9&#45;&gt;Node4</title>
<path fill="none" stroke="midnightblue" d="M430.947,-56.324C447.071,-47.7034 472.02,-34.3643 490.684,-24.3855"/>
<polygon fill="midnightblue" stroke="midnightblue" points="492.364,-27.456 499.532,-19.6545 489.064,-21.283 492.364,-27.456"/>
</g>
</g>
</svg>
        <g id="navigator" transform="translate(0 0)" fill="#404254">
                <rect fill="#f2f5e9" fill-opacity="0.5" stroke="#606060" stroke-width=".5" x="0" y="0" width="60" height="60"/>
                <use id="zoomplus" xlink:href="#zoomPlus" x="17" y="9" onmousedown="handleZoom(evt,'in')"/>
                <use id="zoomminus" xlink:href="#zoomMin" x="42" y="9" onmousedown="handleZoom(evt,'out')"/>
                <use id="reset" xlink:href="#resetDef" x="30" y="36" onmousedown="handleReset()"/>
                <g id="arrowUp" xlink:href="#dirArrow" transform="translate(30 24)" onmousedown="handlePan(0,-1)">
                  <use xlink:href="#rim" fill="#404040">
                        <set attributeName="fill" to="#808080" begin="arrowUp.mouseover" end="arrowUp.mouseout"/>
                  </use>
                  <path fill="none" stroke="white" stroke-width="1.5" d="M0,-3.0v7 M-2.5,-0.5L0,-3.0L2.5,-0.5"/>
                </g>
                <g id="arrowRight" xlink:href="#dirArrow" transform="rotate(90) translate(36 -43)" onmousedown="handlePan(1,0)">
                  <use xlink:href="#rim" fill="#404040">
                        <set attributeName="fill" to="#808080" begin="arrowRight.mouseover" end="arrowRight.mouseout"/>
                  </use>
                  <path fill="none" stroke="white" stroke-width="1.5" d="M0,-3.0v7 M-2.5,-0.5L0,-3.0L2.5,-0.5"/>
                </g>
                <g id="arrowDown" xlink:href="#dirArrow" transform="rotate(180) translate(-30 -48)" onmousedown="handlePan(0,1)">
                  <use xlink:href="#rim" fill="#404040">
                        <set attributeName="fill" to="#808080" begin="arrowDown.mouseover" end="arrowDown.mouseout"/>
                  </use>
                  <path fill="none" stroke="white" stroke-width="1.5" d="M0,-3.0v7 M-2.5,-0.5L0,-3.0L2.5,-0.5"/>
                </g>
                <g id="arrowLeft" xlink:href="#dirArrow" transform="rotate(270) translate(-36 17)" onmousedown="handlePan(-1,0)">
                  <use xlink:href="#rim" fill="#404040">
                        <set attributeName="fill" to="#808080" begin="arrowLeft.mouseover" end="arrowLeft.mouseout"/>
                  </use>
                  <path fill="none" stroke="white" stroke-width="1.5" d="M0,-3.0v7 M-2.5,-0.5L0,-3.0L2.5,-0.5"/>
                </g>
        </g>
</svg>
