<?xml version="1.0" encoding="UTF-8" standalone="no"?>
<!DOCTYPE svg PUBLIC "-//W3C//DTD SVG 1.1//EN"
 "http://www.w3.org/Graphics/SVG/1.1/DTD/svg11.dtd">
<!-- Generated by graphviz version 2.28.0 (20111211.2114)
 -->
<!-- Title: G Pages: 1 -->
<!--zoomable-->
<svg id="main" version="1.1" xmlns="http://www.w3.org/2000/svg" xmlns:xlink="http://www.w3.org/1999/xlink" xml:space="preserve" onload="init(evt)">
        <defs>
                <circle id="rim" cx="0" cy="0" r="7"/>
                <circle id="rim2" cx="0" cy="0" r="3.5"/>
                <g id="zoomPlus">
                        <use xlink:href="#rim" fill="#404040">
                                <set attributeName="fill" to="#808080" begin="zoomplus.mouseover" end="zoomplus.mouseout"/>
                        </use>
                        <path d="M-4,0h8M0,-4v8" fill="none" stroke="white" stroke-width="1.5" pointer-events="none"/>
                </g>
                <g id="zoomMin">
                        <use xlink:href="#rim" fill="#404040">
                                <set attributeName="fill" to="#808080" begin="zoomminus.mouseover" end="zoomminus.mouseout"/>
                        </use>
                        <path d="M-4,0h8" fill="none" stroke="white" stroke-width="1.5" pointer-events="none"/>
                </g>
                <g id="dirArrow">
                        <path fill="none" stroke="white" stroke-width="1.5" d="M0,-3.0v7 M-2.5,-0.5L0,-3.0L2.5,-0.5"/>
                </g>
               <g id="resetDef">
                       <use xlink:href="#rim2" fill="#404040">
                               <set attributeName="fill" to="#808080" begin="reset.mouseover" end="reset.mouseout"/>
                       </use>
               </g>
        </defs>

<script type="text/javascript">
var viewWidth = 927;
var viewHeight = 140;
var sectionId = 'dynsection-0';
</script>
<script xlink:href="svgpan.js"/>
<svg id="graph" class="graph">
<g id="viewport">
<title>G</title>
<!-- Node1 -->
<g id="node1" class="node"><title>Node1</title>
<polygon fill="#bfbfbf" stroke="black" points="234.247,-112.5 234.247,-131.5 511.247,-131.5 511.247,-112.5 234.247,-112.5"/>
<text text-anchor="middle" x="372.747" y="-119.5" font-family="Helvetica,sans-Serif" font-size="10.00">/home/pjm3/freeradius&#45;server/src/modules/rlm_sql/rlm_sql.c</text>
</g>
<!-- Node2 -->
<g id="node3" class="node"><title>Node2</title>
<polygon fill="none" stroke="#bfbfbf" points="179.747,-0.5 179.747,-19.5 297.747,-19.5 297.747,-0.5 179.747,-0.5"/>
<text text-anchor="middle" x="238.747" y="-7.5" font-family="Helvetica,sans-Serif" font-size="10.00">freeradius&#45;devel/ident.h</text>
</g>
<!-- Node1&#45;&gt;Node2 -->
<g id="edge2" class="edge"><title>Node1&#45;&gt;Node2</title>
<path fill="none" stroke="midnightblue" d="M234.175,-112.508C138.493,-105.189 25.841,-93.0869 10.7467,-76 -36.7328,-22.2529 86.029,-11.5572 169.294,-10.208"/>
<polygon fill="midnightblue" stroke="midnightblue" points="169.534,-13.7054 179.491,-10.0855 169.45,-6.70594 169.534,-13.7054"/>
</g>
<!-- Node3 -->
<g id="node5" class="node"><title>Node3</title>
<polygon fill="none" stroke="#bfbfbf" points="19.2467,-56.5 19.2467,-75.5 68.2467,-75.5 68.2467,-56.5 19.2467,-56.5"/>
<text text-anchor="middle" x="43.7467" y="-63.5" font-family="Helvetica,sans-Serif" font-size="10.00">ctype.h</text>
</g>
<!-- Node1&#45;&gt;Node3 -->
<g id="edge4" class="edge"><title>Node1&#45;&gt;Node3</title>
<path fill="none" stroke="midnightblue" d="M302.632,-112.461C244.966,-104.945 160.957,-92.8673 78.5905,-75.9797"/>
<polygon fill="midnightblue" stroke="midnightblue" points="79.0586,-72.5023 68.5559,-73.8964 77.6356,-79.3562 79.0586,-72.5023"/>
</g>
<!-- Node4 -->
<g id="node7" class="node"><title>Node4</title>
<polygon fill="none" stroke="#bfbfbf" points="86.7467,-56.5 86.7467,-75.5 214.747,-75.5 214.747,-56.5 86.7467,-56.5"/>
<text text-anchor="middle" x="150.747" y="-63.5" font-family="Helvetica,sans-Serif" font-size="10.00">freeradius&#45;devel/radiusd.h</text>
</g>
<!-- Node1&#45;&gt;Node4 -->
<g id="edge6" class="edge"><title>Node1&#45;&gt;Node4</title>
<path fill="none" stroke="midnightblue" d="M337.57,-112.444C299.168,-103.102 237.571,-88.1194 195.692,-77.9326"/>
<polygon fill="midnightblue" stroke="midnightblue" points="196.303,-74.4792 185.759,-75.5164 194.648,-81.2809 196.303,-74.4792"/>
</g>
<!-- Node5 -->
<g id="node9" class="node"><title>Node5</title>
<polygon fill="none" stroke="#bfbfbf" points="232.747,-56.5 232.747,-75.5 366.747,-75.5 366.747,-56.5 232.747,-56.5"/>
<text text-anchor="middle" x="299.747" y="-63.5" font-family="Helvetica,sans-Serif" font-size="10.00">freeradius&#45;devel/modules.h</text>
</g>
<!-- Node1&#45;&gt;Node5 -->
<g id="edge8" class="edge"><title>Node1&#45;&gt;Node5</title>
<path fill="none" stroke="midnightblue" d="M361.018,-112.324C349.909,-104.107 333.005,-91.6017 319.763,-81.8069"/>
<polygon fill="midnightblue" stroke="midnightblue" points="321.81,-78.9671 311.689,-75.8339 317.647,-84.5948 321.81,-78.9671"/>
</g>
<!-- Node6 -->
<g id="node11" class="node"><title>Node6</title>
<polygon fill="none" stroke="#bfbfbf" points="385.247,-56.5 385.247,-75.5 506.247,-75.5 506.247,-56.5 385.247,-56.5"/>
<text text-anchor="middle" x="445.747" y="-63.5" font-family="Helvetica,sans-Serif" font-size="10.00">freeradius&#45;devel/token.h</text>
</g>
<!-- Node1&#45;&gt;Node6 -->
<g id="edge10" class="edge"><title>Node1&#45;&gt;Node6</title>
<path fill="none" stroke="midnightblue" d="M384.475,-112.324C395.584,-104.107 412.489,-91.6017 425.73,-81.8069"/>
<polygon fill="midnightblue" stroke="midnightblue" points="427.847,-84.5948 433.805,-75.8339 423.684,-78.9671 427.847,-84.5948"/>
</g>
<!-- Node7 -->
<g id="node13" class="node"><title>Node7</title>
<polygon fill="none" stroke="#bfbfbf" points="524.247,-56.5 524.247,-75.5 667.247,-75.5 667.247,-56.5 524.247,-56.5"/>
<text text-anchor="middle" x="595.747" y="-63.5" font-family="Helvetica,sans-Serif" font-size="10.00">freeradius&#45;devel/rad_assert.h</text>
</g>
<!-- Node1&#45;&gt;Node7 -->
<g id="edge12" class="edge"><title>Node1&#45;&gt;Node7</title>
<path fill="none" stroke="midnightblue" d="M408.082,-112.444C446.657,-103.102 508.531,-88.1194 550.599,-77.9326"/>
<polygon fill="midnightblue" stroke="midnightblue" points="551.682,-81.2717 560.577,-75.5164 550.034,-74.4683 551.682,-81.2717"/>
</g>
<!-- Node8 -->
<g id="node15" class="node"><title>Node8</title>
<polygon fill="none" stroke="#bfbfbf" points="685.747,-56.5 685.747,-75.5 745.747,-75.5 745.747,-56.5 685.747,-56.5"/>
<text text-anchor="middle" x="715.747" y="-63.5" font-family="Helvetica,sans-Serif" font-size="10.00">sys/stat.h</text>
</g>
<!-- Node1&#45;&gt;Node8 -->
<g id="edge14" class="edge"><title>Node1&#45;&gt;Node8</title>
<path fill="none" stroke="midnightblue" d="M439.779,-112.491C501.335,-104.335 594.974,-91.0635 675.747,-76 675.847,-75.9812 675.948,-75.9624 676.049,-75.9435"/>
<polygon fill="midnightblue" stroke="midnightblue" points="676.536,-79.4154 685.655,-74.0208 675.163,-72.5516 676.536,-79.4154"/>
</g>
<!-- Node9 -->
<g id="node17" class="node"><title>Node9</title>
<a xlink:href="rlm__sql_8h.html" target="_top" xlink:title="rlm_sql.h">
<polygon fill="none" stroke="black" points="763.747,-56.5 763.747,-75.5 819.747,-75.5 819.747,-56.5 763.747,-56.5"/>
<text text-anchor="middle" x="791.747" y="-63.5" font-family="Helvetica,sans-Serif" font-size="10.00">rlm_sql.h</text>
</a>
</g>
<!-- Node1&#45;&gt;Node9 -->
<g id="edge16" class="edge"><title>Node1&#45;&gt;Node9</title>
<path fill="none" stroke="midnightblue" d="M471.481,-112.482C548.667,-105.066 658.481,-92.8499 753.747,-76 753.847,-75.9823 753.947,-75.9645 754.047,-75.9466"/>
<polygon fill="midnightblue" stroke="midnightblue" points="754.475,-79.4302 763.6,-74.0469 753.109,-72.5647 754.475,-79.4302"/>
</g>
<!-- Node9&#45;&gt;Node2 -->
<g id="edge18" class="edge"><title>Node9&#45;&gt;Node2</title>
<path fill="none" stroke="midnightblue" d="M763.616,-57.8565C760.303,-57.1582 756.959,-56.518 753.747,-56 595.428,-30.4739 407.23,-18.6585 307.985,-13.8498"/>
<polygon fill="midnightblue" stroke="midnightblue" points="307.943,-10.344 297.788,-13.3653 307.611,-17.3361 307.943,-10.344"/>
</g>
<!-- Node10 -->
<g id="node20" class="node"><title>Node10</title>
<polygon fill="none" stroke="#bfbfbf" points="563.747,-0.5 563.747,-19.5 707.747,-19.5 707.747,-0.5 563.747,-0.5"/>
<text text-anchor="middle" x="635.747" y="-7.5" font-family="Helvetica,sans-Serif" font-size="10.00">freeradius&#45;devel/connection.h</text>
</g>
<!-- Node9&#45;&gt;Node10 -->
<g id="edge20" class="edge"><title>Node9&#45;&gt;Node10</title>
<path fill="none" stroke="midnightblue" d="M767.028,-56.4435C740.898,-47.3986 699.487,-33.064 670.17,-22.9158"/>
<polygon fill="midnightblue" stroke="midnightblue" points="670.944,-19.4801 660.35,-19.5164 668.655,-26.0951 670.944,-19.4801"/>
</g>
<!-- Node11 -->
<g id="node22" class="node"><title>Node11</title>
<polygon fill="none" stroke="#bfbfbf" points="726.247,-0.5 726.247,-19.5 857.247,-19.5 857.247,-0.5 726.247,-0.5"/>
<text text-anchor="middle" x="791.747" y="-7.5" font-family="Helvetica,sans-Serif" font-size="10.00">freeradius&#45;devel/modpriv.h</text>
</g>
<!-- Node9&#45;&gt;Node11 -->
<g id="edge22" class="edge"><title>Node9&#45;&gt;Node11</title>
<path fill="none" stroke="midnightblue" d="M791.747,-56.083C791.747,-49.0059 791.747,-38.8611 791.747,-29.9865"/>
<polygon fill="midnightblue" stroke="midnightblue" points="795.247,-29.751 791.747,-19.7511 788.247,-29.7511 795.247,-29.751"/>
</g>
<!-- Node12 -->
<g id="node24" class="node"><title>Node12</title>
<polygon fill="none" stroke="#bfbfbf" points="875.747,-0.5 875.747,-19.5 919.747,-19.5 919.747,-0.5 875.747,-0.5"/>
<text text-anchor="middle" x="897.747" y="-7.5" font-family="Helvetica,sans-Serif" font-size="10.00">conf.h</text>
</g>
<!-- Node9&#45;&gt;Node12 -->
<g id="edge24" class="edge"><title>Node9&#45;&gt;Node12</title>
<path fill="none" stroke="midnightblue" d="M808.777,-56.324C825.776,-47.6641 852.123,-34.2424 871.739,-24.249"/>
<polygon fill="midnightblue" stroke="midnightblue" points="873.437,-27.3125 880.758,-19.6545 870.259,-21.0752 873.437,-27.3125"/>
</g>
</g>
</svg>
        <g id="navigator" transform="translate(0 0)" fill="#404254">
                <rect fill="#f2f5e9" fill-opacity="0.5" stroke="#606060" stroke-width=".5" x="0" y="0" width="60" height="60"/>
                <use id="zoomplus" xlink:href="#zoomPlus" x="17" y="9" onmousedown="handleZoom(evt,'in')"/>
                <use id="zoomminus" xlink:href="#zoomMin" x="42" y="9" onmousedown="handleZoom(evt,'out')"/>
                <use id="reset" xlink:href="#resetDef" x="30" y="36" onmousedown="handleReset()"/>
                <g id="arrowUp" xlink:href="#dirArrow" transform="translate(30 24)" onmousedown="handlePan(0,-1)">
                  <use xlink:href="#rim" fill="#404040">
                        <set attributeName="fill" to="#808080" begin="arrowUp.mouseover" end="arrowUp.mouseout"/>
                  </use>
                  <path fill="none" stroke="white" stroke-width="1.5" d="M0,-3.0v7 M-2.5,-0.5L0,-3.0L2.5,-0.5"/>
                </g>
                <g id="arrowRight" xlink:href="#dirArrow" transform="rotate(90) translate(36 -43)" onmousedown="handlePan(1,0)">
                  <use xlink:href="#rim" fill="#404040">
                        <set attributeName="fill" to="#808080" begin="arrowRight.mouseover" end="arrowRight.mouseout"/>
                  </use>
                  <path fill="none" stroke="white" stroke-width="1.5" d="M0,-3.0v7 M-2.5,-0.5L0,-3.0L2.5,-0.5"/>
                </g>
                <g id="arrowDown" xlink:href="#dirArrow" transform="rotate(180) translate(-30 -48)" onmousedown="handlePan(0,1)">
                  <use xlink:href="#rim" fill="#404040">
                        <set attributeName="fill" to="#808080" begin="arrowDown.mouseover" end="arrowDown.mouseout"/>
                  </use>
                  <path fill="none" stroke="white" stroke-width="1.5" d="M0,-3.0v7 M-2.5,-0.5L0,-3.0L2.5,-0.5"/>
                </g>
                <g id="arrowLeft" xlink:href="#dirArrow" transform="rotate(270) translate(-36 17)" onmousedown="handlePan(-1,0)">
                  <use xlink:href="#rim" fill="#404040">
                        <set attributeName="fill" to="#808080" begin="arrowLeft.mouseover" end="arrowLeft.mouseout"/>
                  </use>
                  <path fill="none" stroke="white" stroke-width="1.5" d="M0,-3.0v7 M-2.5,-0.5L0,-3.0L2.5,-0.5"/>
                </g>
        </g>
</svg>
