<?xml version="1.0" encoding="UTF-8" standalone="no"?>
<!DOCTYPE svg PUBLIC "-//W3C//DTD SVG 1.1//EN"
 "http://www.w3.org/Graphics/SVG/1.1/DTD/svg11.dtd">
<!-- Generated by graphviz version 2.28.0 (20111211.2114)
 -->
<!-- Title: G Pages: 1 -->
<!--zoomable-->
<svg id="main" version="1.1" xmlns="http://www.w3.org/2000/svg" xmlns:xlink="http://www.w3.org/1999/xlink" xml:space="preserve" onload="init(evt)">
        <defs>
                <circle id="rim" cx="0" cy="0" r="7"/>
                <circle id="rim2" cx="0" cy="0" r="3.5"/>
                <g id="zoomPlus">
                        <use xlink:href="#rim" fill="#404040">
                                <set attributeName="fill" to="#808080" begin="zoomplus.mouseover" end="zoomplus.mouseout"/>
                        </use>
                        <path d="M-4,0h8M0,-4v8" fill="none" stroke="white" stroke-width="1.5" pointer-events="none"/>
                </g>
                <g id="zoomMin">
                        <use xlink:href="#rim" fill="#404040">
                                <set attributeName="fill" to="#808080" begin="zoomminus.mouseover" end="zoomminus.mouseout"/>
                        </use>
                        <path d="M-4,0h8" fill="none" stroke="white" stroke-width="1.5" pointer-events="none"/>
                </g>
                <g id="dirArrow">
                        <path fill="none" stroke="white" stroke-width="1.5" d="M0,-3.0v7 M-2.5,-0.5L0,-3.0L2.5,-0.5"/>
                </g>
               <g id="resetDef">
                       <use xlink:href="#rim2" fill="#404040">
                               <set attributeName="fill" to="#808080" begin="reset.mouseover" end="reset.mouseout"/>
                       </use>
               </g>
        </defs>

<script type="text/javascript">
var viewWidth = 692;
var viewHeight = 196;
var sectionId = 'dynsection-0';
</script>
<script xlink:href="svgpan.js"/>
<svg id="graph" class="graph">
<g id="viewport">
<title>G</title>
<!-- Node1 -->
<g id="node1" class="node"><title>Node1</title>
<polygon fill="#bfbfbf" stroke="black" points="365,-168.5 365,-187.5 645,-187.5 645,-168.5 365,-168.5"/>
<text text-anchor="middle" x="505" y="-175.5" font-family="Helvetica,sans-Serif" font-size="10.00">/home/pjm3/freeradius&#45;server/src/modules/rlm_smb/smblib.c</text>
</g>
<!-- Node2 -->
<g id="node3" class="node"><title>Node2</title>
<polygon fill="none" stroke="#bfbfbf" points="401,-0.5 401,-19.5 519,-19.5 519,-0.5 401,-0.5"/>
<text text-anchor="middle" x="460" y="-7.5" font-family="Helvetica,sans-Serif" font-size="10.00">freeradius&#45;devel/ident.h</text>
</g>
<!-- Node1&#45;&gt;Node2 -->
<g id="edge2" class="edge"><title>Node1&#45;&gt;Node2</title>
<path fill="none" stroke="midnightblue" d="M538.641,-168.448C599.546,-151.389 717.888,-110.076 674,-56 655.926,-33.7296 584.638,-22.0719 529.249,-16.2574"/>
<polygon fill="midnightblue" stroke="midnightblue" points="529.408,-12.7558 519.108,-15.2384 528.708,-19.7207 529.408,-12.7558"/>
</g>
<!-- Node3 -->
<g id="node5" class="node"><title>Node3</title>
<polygon fill="none" stroke="#bfbfbf" points="413.5,-112.5 413.5,-131.5 462.5,-131.5 462.5,-112.5 413.5,-112.5"/>
<text text-anchor="middle" x="438" y="-119.5" font-family="Helvetica,sans-Serif" font-size="10.00">ctype.h</text>
</g>
<!-- Node1&#45;&gt;Node3 -->
<g id="edge4" class="edge"><title>Node1&#45;&gt;Node3</title>
<path fill="none" stroke="midnightblue" d="M494.235,-168.324C484.234,-160.263 469.113,-148.077 457.07,-138.369"/>
<polygon fill="midnightblue" stroke="midnightblue" points="458.943,-135.384 448.961,-131.834 454.55,-140.834 458.943,-135.384"/>
</g>
<!-- Node4 -->
<g id="node7" class="node"><title>Node4</title>
<polygon fill="none" stroke="#bfbfbf" points="480.5,-112.5 480.5,-131.5 529.5,-131.5 529.5,-112.5 480.5,-112.5"/>
<text text-anchor="middle" x="505" y="-119.5" font-family="Helvetica,sans-Serif" font-size="10.00">string.h</text>
</g>
<!-- Node1&#45;&gt;Node4 -->
<g id="edge6" class="edge"><title>Node1&#45;&gt;Node4</title>
<path fill="none" stroke="midnightblue" d="M505,-168.083C505,-161.006 505,-150.861 505,-141.986"/>
<polygon fill="midnightblue" stroke="midnightblue" points="508.5,-141.751 505,-131.751 501.5,-141.751 508.5,-141.751"/>
</g>
<!-- Node5 -->
<g id="node9" class="node"><title>Node5</title>
<a xlink:href="smblib-priv_8h.html" target="_top" xlink:title="smblib&#45;priv.h">
<polygon fill="none" stroke="black" points="323,-112.5 323,-131.5 395,-131.5 395,-112.5 323,-112.5"/>
<text text-anchor="middle" x="359" y="-119.5" font-family="Helvetica,sans-Serif" font-size="10.00">smblib&#45;priv.h</text>
</a>
</g>
<!-- Node1&#45;&gt;Node5 -->
<g id="edge8" class="edge"><title>Node1&#45;&gt;Node5</title>
<path fill="none" stroke="midnightblue" d="M481.866,-168.444C457.518,-159.438 418.993,-145.189 391.577,-135.049"/>
<polygon fill="midnightblue" stroke="midnightblue" points="392.619,-131.703 382.026,-131.516 390.191,-138.268 392.619,-131.703"/>
</g>
<!-- Node14 -->
<g id="node31" class="node"><title>Node14</title>
<a xlink:href="rfcnb_8h.html" target="_top" xlink:title="rfcnb.h">
<polygon fill="none" stroke="black" points="547.5,-112.5 547.5,-131.5 594.5,-131.5 594.5,-112.5 547.5,-112.5"/>
<text text-anchor="middle" x="571" y="-119.5" font-family="Helvetica,sans-Serif" font-size="10.00">rfcnb.h</text>
</a>
</g>
<!-- Node1&#45;&gt;Node14 -->
<g id="edge34" class="edge"><title>Node1&#45;&gt;Node14</title>
<path fill="none" stroke="midnightblue" d="M515.604,-168.324C525.456,-160.263 540.351,-148.077 552.215,-138.369"/>
<polygon fill="midnightblue" stroke="midnightblue" points="554.68,-140.875 560.203,-131.834 550.247,-135.457 554.68,-140.875"/>
</g>
<!-- Node5&#45;&gt;Node2 -->
<g id="edge10" class="edge"><title>Node5&#45;&gt;Node2</title>
<path fill="none" stroke="midnightblue" d="M368.164,-112.227C377.401,-103.295 391.973,-88.9553 404,-76 418.964,-59.8817 435.296,-40.7328 446.44,-27.4116"/>
<polygon fill="midnightblue" stroke="midnightblue" points="449.242,-29.5155 452.947,-19.5895 443.861,-25.0387 449.242,-29.5155"/>
</g>
<!-- Node6 -->
<g id="node12" class="node"><title>Node6</title>
<a xlink:href="std-includes_8h.html" target="_top" xlink:title="std&#45;includes.h">
<polygon fill="none" stroke="black" points="122.5,-56.5 122.5,-75.5 199.5,-75.5 199.5,-56.5 122.5,-56.5"/>
<text text-anchor="middle" x="161" y="-63.5" font-family="Helvetica,sans-Serif" font-size="10.00">std&#45;includes.h</text>
</a>
</g>
<!-- Node5&#45;&gt;Node6 -->
<g id="edge12" class="edge"><title>Node5&#45;&gt;Node6</title>
<path fill="none" stroke="midnightblue" d="M327.626,-112.444C293.737,-103.201 239.597,-88.4356 202.276,-78.2572"/>
<polygon fill="midnightblue" stroke="midnightblue" points="202.795,-74.771 192.227,-75.5164 200.954,-81.5243 202.795,-74.771"/>
</g>
<!-- Node12 -->
<g id="node25" class="node"><title>Node12</title>
<a xlink:href="smblib-common_8h.html" target="_top" xlink:title="smblib&#45;common.h">
<polygon fill="none" stroke="black" points="218,-56.5 218,-75.5 312,-75.5 312,-56.5 218,-56.5"/>
<text text-anchor="middle" x="265" y="-63.5" font-family="Helvetica,sans-Serif" font-size="10.00">smblib&#45;common.h</text>
</a>
</g>
<!-- Node5&#45;&gt;Node12 -->
<g id="edge26" class="edge"><title>Node5&#45;&gt;Node12</title>
<path fill="none" stroke="midnightblue" d="M343.897,-112.324C329.097,-103.822 306.306,-90.7288 289.018,-80.7975"/>
<polygon fill="midnightblue" stroke="midnightblue" points="290.48,-77.6009 280.065,-75.6545 286.993,-83.6707 290.48,-77.6009"/>
</g>
<!-- Node13 -->
<g id="node28" class="node"><title>Node13</title>
<a xlink:href="byteorder_8h.html" target="_top" xlink:title="byteorder.h">
<polygon fill="none" stroke="black" points="330.5,-56.5 330.5,-75.5 395.5,-75.5 395.5,-56.5 330.5,-56.5"/>
<text text-anchor="middle" x="363" y="-63.5" font-family="Helvetica,sans-Serif" font-size="10.00">byteorder.h</text>
</a>
</g>
<!-- Node5&#45;&gt;Node13 -->
<g id="edge30" class="edge"><title>Node5&#45;&gt;Node13</title>
<path fill="none" stroke="midnightblue" d="M359.661,-112.083C360.185,-105.006 360.936,-94.8611 361.594,-85.9865"/>
<polygon fill="midnightblue" stroke="midnightblue" points="365.103,-85.9823 362.352,-75.7511 358.123,-85.4652 365.103,-85.9823"/>
</g>
<!-- Node6&#45;&gt;Node2 -->
<g id="edge14" class="edge"><title>Node6&#45;&gt;Node2</title>
<path fill="none" stroke="midnightblue" d="M199.507,-57.752C202.718,-57.1562 205.914,-56.5659 209,-56 274.996,-43.8971 350.824,-30.3524 401.71,-21.3151"/>
<polygon fill="midnightblue" stroke="midnightblue" points="402.627,-24.7072 411.861,-19.5133 401.403,-17.8149 402.627,-24.7072"/>
</g>
<!-- Node7 -->
<g id="node15" class="node"><title>Node7</title>
<polygon fill="none" stroke="#bfbfbf" points="-0.5,-0.5 -0.5,-19.5 50.5,-19.5 50.5,-0.5 -0.5,-0.5"/>
<text text-anchor="middle" x="25" y="-7.5" font-family="Helvetica,sans-Serif" font-size="10.00">config.h</text>
</g>
<!-- Node6&#45;&gt;Node7 -->
<g id="edge16" class="edge"><title>Node6&#45;&gt;Node7</title>
<path fill="none" stroke="midnightblue" d="M139.45,-56.4435C116.969,-47.5171 81.5123,-33.4387 56.0201,-23.3168"/>
<polygon fill="midnightblue" stroke="midnightblue" points="57.0346,-19.9539 46.4488,-19.5164 54.4513,-26.4598 57.0346,-19.9539"/>
</g>
<!-- Node8 -->
<g id="node17" class="node"><title>Node8</title>
<polygon fill="none" stroke="#bfbfbf" points="69,-0.5 69,-19.5 119,-19.5 119,-0.5 69,-0.5"/>
<text text-anchor="middle" x="94" y="-7.5" font-family="Helvetica,sans-Serif" font-size="10.00">signal.h</text>
</g>
<!-- Node6&#45;&gt;Node8 -->
<g id="edge18" class="edge"><title>Node6&#45;&gt;Node8</title>
<path fill="none" stroke="midnightblue" d="M150.235,-56.324C140.234,-48.2631 125.113,-36.0765 113.07,-26.3695"/>
<polygon fill="midnightblue" stroke="midnightblue" points="114.943,-23.3841 104.961,-19.8339 110.55,-28.8343 114.943,-23.3841"/>
</g>
<!-- Node9 -->
<g id="node19" class="node"><title>Node9</title>
<polygon fill="none" stroke="#bfbfbf" points="137.5,-0.5 137.5,-19.5 184.5,-19.5 184.5,-0.5 137.5,-0.5"/>
<text text-anchor="middle" x="161" y="-7.5" font-family="Helvetica,sans-Serif" font-size="10.00">errno.h</text>
</g>
<!-- Node6&#45;&gt;Node9 -->
<g id="edge20" class="edge"><title>Node6&#45;&gt;Node9</title>
<path fill="none" stroke="midnightblue" d="M161,-56.083C161,-49.0059 161,-38.8611 161,-29.9865"/>
<polygon fill="midnightblue" stroke="midnightblue" points="164.5,-29.751 161,-19.7511 157.5,-29.7511 164.5,-29.751"/>
</g>
<!-- Node10 -->
<g id="node21" class="node"><title>Node10</title>
<polygon fill="none" stroke="#bfbfbf" points="203,-0.5 203,-19.5 249,-19.5 249,-0.5 203,-0.5"/>
<text text-anchor="middle" x="226" y="-7.5" font-family="Helvetica,sans-Serif" font-size="10.00">stdio.h</text>
</g>
<!-- Node6&#45;&gt;Node10 -->
<g id="edge22" class="edge"><title>Node6&#45;&gt;Node10</title>
<path fill="none" stroke="midnightblue" d="M171.443,-56.324C181.146,-48.2631 195.815,-36.0765 207.5,-26.3695"/>
<polygon fill="midnightblue" stroke="midnightblue" points="209.911,-28.9163 215.367,-19.8339 205.438,-23.532 209.911,-28.9163"/>
</g>
<!-- Node11 -->
<g id="node23" class="node"><title>Node11</title>
<polygon fill="none" stroke="#bfbfbf" points="267,-0.5 267,-19.5 315,-19.5 315,-0.5 267,-0.5"/>
<text text-anchor="middle" x="291" y="-7.5" font-family="Helvetica,sans-Serif" font-size="10.00">stdlib.h</text>
</g>
<!-- Node6&#45;&gt;Node11 -->
<g id="edge24" class="edge"><title>Node6&#45;&gt;Node11</title>
<path fill="none" stroke="midnightblue" d="M181.599,-56.4435C202.993,-47.5566 236.681,-33.5632 261.024,-23.4514"/>
<polygon fill="midnightblue" stroke="midnightblue" points="262.605,-26.5848 270.497,-19.5164 259.92,-20.1203 262.605,-26.5848"/>
</g>
<!-- Node12&#45;&gt;Node2 -->
<g id="edge28" class="edge"><title>Node12&#45;&gt;Node2</title>
<path fill="none" stroke="midnightblue" d="M295.898,-56.4435C329.274,-47.2011 382.594,-32.4356 419.349,-22.2572"/>
<polygon fill="midnightblue" stroke="midnightblue" points="420.543,-25.5583 429.246,-19.5164 418.675,-18.8122 420.543,-25.5583"/>
</g>
<!-- Node13&#45;&gt;Node2 -->
<g id="edge32" class="edge"><title>Node13&#45;&gt;Node2</title>
<path fill="none" stroke="midnightblue" d="M378.585,-56.324C393.999,-47.7428 417.812,-34.486 435.71,-24.5224"/>
<polygon fill="midnightblue" stroke="midnightblue" points="437.419,-27.5767 444.454,-19.6545 434.014,-21.4606 437.419,-27.5767"/>
</g>
<!-- Node14&#45;&gt;Node2 -->
<g id="edge36" class="edge"><title>Node14&#45;&gt;Node2</title>
<path fill="none" stroke="midnightblue" d="M570.008,-112.4C568.043,-98.9008 562.508,-72.572 548,-56 534.961,-41.1062 515.804,-30.4977 498.69,-23.3366"/>
<polygon fill="midnightblue" stroke="midnightblue" points="499.5,-19.8952 488.912,-19.5124 496.95,-26.4143 499.5,-19.8952"/>
</g>
<!-- Node15 -->
<g id="node34" class="node"><title>Node15</title>
<a xlink:href="rfcnb-error_8h.html" target="_top" xlink:title="rfcnb&#45;error.h">
<polygon fill="none" stroke="black" points="596.5,-56.5 596.5,-75.5 665.5,-75.5 665.5,-56.5 596.5,-56.5"/>
<text text-anchor="middle" x="631" y="-63.5" font-family="Helvetica,sans-Serif" font-size="10.00">rfcnb&#45;error.h</text>
</a>
</g>
<!-- Node14&#45;&gt;Node15 -->
<g id="edge38" class="edge"><title>Node14&#45;&gt;Node15</title>
<path fill="none" stroke="midnightblue" d="M580.64,-112.324C589.51,-104.341 602.875,-92.3128 613.608,-82.6529"/>
<polygon fill="midnightblue" stroke="midnightblue" points="616.093,-85.1251 621.185,-75.8339 611.41,-79.922 616.093,-85.1251"/>
</g>
<!-- Node16 -->
<g id="node37" class="node"><title>Node16</title>
<a xlink:href="rfcnb-common_8h.html" target="_top" xlink:title="rfcnb&#45;common.h">
<polygon fill="none" stroke="black" points="452.5,-56.5 452.5,-75.5 539.5,-75.5 539.5,-56.5 452.5,-56.5"/>
<text text-anchor="middle" x="496" y="-63.5" font-family="Helvetica,sans-Serif" font-size="10.00">rfcnb&#45;common.h</text>
</a>
</g>
<!-- Node14&#45;&gt;Node16 -->
<g id="edge42" class="edge"><title>Node14&#45;&gt;Node16</title>
<path fill="none" stroke="midnightblue" d="M558.95,-112.324C547.537,-104.107 530.169,-91.6017 516.565,-81.8069"/>
<polygon fill="midnightblue" stroke="midnightblue" points="518.43,-78.8366 508.269,-75.8339 514.34,-84.5174 518.43,-78.8366"/>
</g>
<!-- Node15&#45;&gt;Node2 -->
<g id="edge40" class="edge"><title>Node15&#45;&gt;Node2</title>
<path fill="none" stroke="midnightblue" d="M603.905,-56.4435C575.012,-47.3196 529.075,-32.8133 496.895,-22.6509"/>
<polygon fill="midnightblue" stroke="midnightblue" points="497.559,-19.1903 486.969,-19.5164 495.451,-25.8654 497.559,-19.1903"/>
</g>
<!-- Node16&#45;&gt;Node2 -->
<g id="edge44" class="edge"><title>Node16&#45;&gt;Node2</title>
<path fill="none" stroke="midnightblue" d="M490.055,-56.083C485.023,-48.5341 477.663,-37.4948 471.487,-28.2298"/>
<polygon fill="midnightblue" stroke="midnightblue" points="474.293,-26.1301 465.834,-19.7511 468.469,-30.0131 474.293,-26.1301"/>
</g>
</g>
</svg>
        <g id="navigator" transform="translate(0 0)" fill="#404254">
                <rect fill="#f2f5e9" fill-opacity="0.5" stroke="#606060" stroke-width=".5" x="0" y="0" width="60" height="60"/>
                <use id="zoomplus" xlink:href="#zoomPlus" x="17" y="9" onmousedown="handleZoom(evt,'in')"/>
                <use id="zoomminus" xlink:href="#zoomMin" x="42" y="9" onmousedown="handleZoom(evt,'out')"/>
                <use id="reset" xlink:href="#resetDef" x="30" y="36" onmousedown="handleReset()"/>
                <g id="arrowUp" xlink:href="#dirArrow" transform="translate(30 24)" onmousedown="handlePan(0,-1)">
                  <use xlink:href="#rim" fill="#404040">
                        <set attributeName="fill" to="#808080" begin="arrowUp.mouseover" end="arrowUp.mouseout"/>
                  </use>
                  <path fill="none" stroke="white" stroke-width="1.5" d="M0,-3.0v7 M-2.5,-0.5L0,-3.0L2.5,-0.5"/>
                </g>
                <g id="arrowRight" xlink:href="#dirArrow" transform="rotate(90) translate(36 -43)" onmousedown="handlePan(1,0)">
                  <use xlink:href="#rim" fill="#404040">
                        <set attributeName="fill" to="#808080" begin="arrowRight.mouseover" end="arrowRight.mouseout"/>
                  </use>
                  <path fill="none" stroke="white" stroke-width="1.5" d="M0,-3.0v7 M-2.5,-0.5L0,-3.0L2.5,-0.5"/>
                </g>
                <g id="arrowDown" xlink:href="#dirArrow" transform="rotate(180) translate(-30 -48)" onmousedown="handlePan(0,1)">
                  <use xlink:href="#rim" fill="#404040">
                        <set attributeName="fill" to="#808080" begin="arrowDown.mouseover" end="arrowDown.mouseout"/>
                  </use>
                  <path fill="none" stroke="white" stroke-width="1.5" d="M0,-3.0v7 M-2.5,-0.5L0,-3.0L2.5,-0.5"/>
                </g>
                <g id="arrowLeft" xlink:href="#dirArrow" transform="rotate(270) translate(-36 17)" onmousedown="handlePan(-1,0)">
                  <use xlink:href="#rim" fill="#404040">
                        <set attributeName="fill" to="#808080" begin="arrowLeft.mouseover" end="arrowLeft.mouseout"/>
                  </use>
                  <path fill="none" stroke="white" stroke-width="1.5" d="M0,-3.0v7 M-2.5,-0.5L0,-3.0L2.5,-0.5"/>
                </g>
        </g>
</svg>
