<?xml version="1.0" encoding="UTF-8" standalone="no"?>
<!DOCTYPE svg PUBLIC "-//W3C//DTD SVG 1.1//EN"
 "http://www.w3.org/Graphics/SVG/1.1/DTD/svg11.dtd">
<!-- Generated by graphviz version 2.28.0 (20111211.2114)
 -->
<!-- Title: G Pages: 1 -->
<svg width="335pt" height="84pt"
 viewBox="0.00 0.00 335.00 84.00" xmlns="http://www.w3.org/2000/svg" xmlns:xlink="http://www.w3.org/1999/xlink">
<g id="graph1" class="graph" transform="scale(1 1) rotate(0) translate(4 80)">
<title>G</title>
<!-- Node1 -->
<g id="node1" class="node"><title>Node1</title>
<polygon fill="#bfbfbf" stroke="black" points="92,-56.5 92,-75.5 308,-75.5 308,-56.5 92,-56.5"/>
<text text-anchor="middle" x="200" y="-63.5" font-family="Helvetica,sans-Serif" font-size="10.00">/home/pjm3/freeradius&#45;server/src/lib/snprintf.h</text>
</g>
<!-- Node2 -->
<g id="node3" class="node"><title>Node2</title>
<polygon fill="none" stroke="#bfbfbf" points="0,-0.5 0,-19.5 118,-19.5 118,-0.5 0,-0.5"/>
<text text-anchor="middle" x="59" y="-7.5" font-family="Helvetica,sans-Serif" font-size="10.00">freeradius&#45;devel/ident.h</text>
</g>
<!-- Node1&#45;&gt;Node2 -->
<g id="edge2" class="edge"><title>Node1&#45;&gt;Node2</title>
<path fill="none" stroke="midnightblue" d="M177.658,-56.4435C154.247,-47.4776 117.264,-33.314 90.8104,-23.1827"/>
<polygon fill="midnightblue" stroke="midnightblue" points="91.8277,-19.8245 81.2373,-19.5164 89.3241,-26.3615 91.8277,-19.8245"/>
</g>
<!-- Node3 -->
<g id="node5" class="node"><title>Node3</title>
<polygon fill="none" stroke="#bfbfbf" points="136.5,-0.5 136.5,-19.5 193.5,-19.5 193.5,-0.5 136.5,-0.5"/>
<text text-anchor="middle" x="165" y="-7.5" font-family="Helvetica,sans-Serif" font-size="10.00">varargs.h</text>
</g>
<!-- Node1&#45;&gt;Node3 -->
<g id="edge4" class="edge"><title>Node1&#45;&gt;Node3</title>
<path fill="none" stroke="midnightblue" d="M194.22,-56.083C189.328,-48.5341 182.173,-37.4948 176.167,-28.2298"/>
<polygon fill="midnightblue" stroke="midnightblue" points="179.048,-26.239 170.672,-19.7511 173.174,-30.0463 179.048,-26.239"/>
</g>
<!-- Node4 -->
<g id="node7" class="node"><title>Node4</title>
<polygon fill="none" stroke="#bfbfbf" points="212,-0.5 212,-19.5 260,-19.5 260,-0.5 212,-0.5"/>
<text text-anchor="middle" x="236" y="-7.5" font-family="Helvetica,sans-Serif" font-size="10.00">stdlib.h</text>
</g>
<!-- Node1&#45;&gt;Node4 -->
<g id="edge6" class="edge"><title>Node1&#45;&gt;Node4</title>
<path fill="none" stroke="midnightblue" d="M205.945,-56.083C210.977,-48.5341 218.337,-37.4948 224.513,-28.2298"/>
<polygon fill="midnightblue" stroke="midnightblue" points="227.531,-30.0131 230.166,-19.7511 221.707,-26.1301 227.531,-30.0131"/>
</g>
<!-- Node5 -->
<g id="node9" class="node"><title>Node5</title>
<polygon fill="none" stroke="#bfbfbf" points="278.5,-0.5 278.5,-19.5 327.5,-19.5 327.5,-0.5 278.5,-0.5"/>
<text text-anchor="middle" x="303" y="-7.5" font-family="Helvetica,sans-Serif" font-size="10.00">ctype.h</text>
</g>
<!-- Node1&#45;&gt;Node5 -->
<g id="edge8" class="edge"><title>Node1&#45;&gt;Node5</title>
<path fill="none" stroke="midnightblue" d="M216.549,-56.324C232.992,-47.7034 258.435,-34.3643 277.468,-24.3855"/>
<polygon fill="midnightblue" stroke="midnightblue" points="279.261,-27.3977 286.492,-19.6545 276.011,-21.198 279.261,-27.3977"/>
</g>
</g>
</svg>
