<?xml version="1.0" encoding="UTF-8" standalone="no"?>
<!DOCTYPE svg PUBLIC "-//W3C//DTD SVG 1.1//EN"
 "http://www.w3.org/Graphics/SVG/1.1/DTD/svg11.dtd">
<!-- Generated by graphviz version 2.28.0 (20111211.2114)
 -->
<!-- Title: G Pages: 1 -->
<svg width="351pt" height="140pt"
 viewBox="0.00 0.00 351.00 140.00" xmlns="http://www.w3.org/2000/svg" xmlns:xlink="http://www.w3.org/1999/xlink">
<g id="graph1" class="graph" transform="scale(1 1) rotate(0) translate(4 136)">
<title>G</title>
<!-- Node1 -->
<g id="node1" class="node"><title>Node1</title>
<polygon fill="#bfbfbf" stroke="black" points="30,-112.5 30,-131.5 246,-131.5 246,-112.5 30,-112.5"/>
<text text-anchor="middle" x="138" y="-119.5" font-family="Helvetica,sans-Serif" font-size="10.00">/home/pjm3/freeradius&#45;server/src/lib/snprintf.c</text>
</g>
<!-- Node2 -->
<g id="node3" class="node"><title>Node2</title>
<polygon fill="none" stroke="#bfbfbf" points="0,-0.5 0,-19.5 118,-19.5 118,-0.5 0,-0.5"/>
<text text-anchor="middle" x="59" y="-7.5" font-family="Helvetica,sans-Serif" font-size="10.00">freeradius&#45;devel/ident.h</text>
</g>
<!-- Node1&#45;&gt;Node2 -->
<g id="edge2" class="edge"><title>Node1&#45;&gt;Node2</title>
<path fill="none" stroke="midnightblue" d="M110.639,-112.389C93.5204,-105.457 72.7426,-93.8743 62,-76 53.7257,-62.2326 53.7173,-43.7067 55.3453,-29.9553"/>
<polygon fill="midnightblue" stroke="midnightblue" points="58.8563,-30.1586 56.9522,-19.7363 51.9412,-29.0712 58.8563,-30.1586"/>
</g>
<!-- Node3 -->
<g id="node5" class="node"><title>Node3</title>
<polygon fill="none" stroke="#bfbfbf" points="71,-56.5 71,-75.5 205,-75.5 205,-56.5 71,-56.5"/>
<text text-anchor="middle" x="138" y="-63.5" font-family="Helvetica,sans-Serif" font-size="10.00">freeradius&#45;devel/autoconf.h</text>
</g>
<!-- Node1&#45;&gt;Node3 -->
<g id="edge4" class="edge"><title>Node1&#45;&gt;Node3</title>
<path fill="none" stroke="midnightblue" d="M138,-112.083C138,-105.006 138,-94.8611 138,-85.9865"/>
<polygon fill="midnightblue" stroke="midnightblue" points="141.5,-85.751 138,-75.7511 134.5,-85.7511 141.5,-85.751"/>
</g>
<!-- Node4 -->
<g id="node7" class="node"><title>Node4</title>
<a xlink:href="snprintf_8h.html" target="_top" xlink:title="snprintf.h">
<polygon fill="none" stroke="black" points="223.5,-56.5 223.5,-75.5 280.5,-75.5 280.5,-56.5 223.5,-56.5"/>
<text text-anchor="middle" x="252" y="-63.5" font-family="Helvetica,sans-Serif" font-size="10.00">snprintf.h</text>
</a>
</g>
<!-- Node1&#45;&gt;Node4 -->
<g id="edge6" class="edge"><title>Node1&#45;&gt;Node4</title>
<path fill="none" stroke="midnightblue" d="M156.064,-112.444C174.575,-103.675 203.581,-89.9355 224.855,-79.8579"/>
<polygon fill="midnightblue" stroke="midnightblue" points="226.482,-82.9604 234.021,-75.5164 223.485,-76.6343 226.482,-82.9604"/>
</g>
<!-- Node4&#45;&gt;Node2 -->
<g id="edge8" class="edge"><title>Node4&#45;&gt;Node2</title>
<path fill="none" stroke="midnightblue" d="M223.106,-56.9157C190.329,-47.7449 136.64,-32.7231 99.6484,-22.3731"/>
<polygon fill="midnightblue" stroke="midnightblue" points="100.262,-18.9105 89.6889,-19.5865 98.376,-25.6516 100.262,-18.9105"/>
</g>
<!-- Node5 -->
<g id="node10" class="node"><title>Node5</title>
<polygon fill="none" stroke="#bfbfbf" points="152.5,-0.5 152.5,-19.5 209.5,-19.5 209.5,-0.5 152.5,-0.5"/>
<text text-anchor="middle" x="181" y="-7.5" font-family="Helvetica,sans-Serif" font-size="10.00">varargs.h</text>
</g>
<!-- Node4&#45;&gt;Node5 -->
<g id="edge10" class="edge"><title>Node4&#45;&gt;Node5</title>
<path fill="none" stroke="midnightblue" d="M240.593,-56.324C229.891,-48.1849 213.659,-35.8395 200.837,-26.0874"/>
<polygon fill="midnightblue" stroke="midnightblue" points="202.693,-23.1018 192.615,-19.8339 198.456,-28.6734 202.693,-23.1018"/>
</g>
<!-- Node6 -->
<g id="node12" class="node"><title>Node6</title>
<polygon fill="none" stroke="#bfbfbf" points="228,-0.5 228,-19.5 276,-19.5 276,-0.5 228,-0.5"/>
<text text-anchor="middle" x="252" y="-7.5" font-family="Helvetica,sans-Serif" font-size="10.00">stdlib.h</text>
</g>
<!-- Node4&#45;&gt;Node6 -->
<g id="edge12" class="edge"><title>Node4&#45;&gt;Node6</title>
<path fill="none" stroke="midnightblue" d="M252,-56.083C252,-49.0059 252,-38.8611 252,-29.9865"/>
<polygon fill="midnightblue" stroke="midnightblue" points="255.5,-29.751 252,-19.7511 248.5,-29.7511 255.5,-29.751"/>
</g>
<!-- Node7 -->
<g id="node14" class="node"><title>Node7</title>
<polygon fill="none" stroke="#bfbfbf" points="294.5,-0.5 294.5,-19.5 343.5,-19.5 343.5,-0.5 294.5,-0.5"/>
<text text-anchor="middle" x="319" y="-7.5" font-family="Helvetica,sans-Serif" font-size="10.00">ctype.h</text>
</g>
<!-- Node4&#45;&gt;Node7 -->
<g id="edge14" class="edge"><title>Node4&#45;&gt;Node7</title>
<path fill="none" stroke="midnightblue" d="M262.765,-56.324C272.766,-48.2631 287.887,-36.0765 299.93,-26.3695"/>
<polygon fill="midnightblue" stroke="midnightblue" points="302.45,-28.8343 308.039,-19.8339 298.057,-23.3841 302.45,-28.8343"/>
</g>
</g>
</svg>
