<?xml version="1.0" encoding="UTF-8" standalone="no"?>
<!DOCTYPE svg PUBLIC "-//W3C//DTD SVG 1.1//EN"
 "http://www.w3.org/Graphics/SVG/1.1/DTD/svg11.dtd">
<!-- Generated by graphviz version 2.28.0 (20111211.2114)
 -->
<!-- Title: G Pages: 1 -->
<!--zoomable-->
<svg id="main" version="1.1" xmlns="http://www.w3.org/2000/svg" xmlns:xlink="http://www.w3.org/1999/xlink" xml:space="preserve" onload="init(evt)">
        <defs>
                <circle id="rim" cx="0" cy="0" r="7"/>
                <circle id="rim2" cx="0" cy="0" r="3.5"/>
                <g id="zoomPlus">
                        <use xlink:href="#rim" fill="#404040">
                                <set attributeName="fill" to="#808080" begin="zoomplus.mouseover" end="zoomplus.mouseout"/>
                        </use>
                        <path d="M-4,0h8M0,-4v8" fill="none" stroke="white" stroke-width="1.5" pointer-events="none"/>
                </g>
                <g id="zoomMin">
                        <use xlink:href="#rim" fill="#404040">
                                <set attributeName="fill" to="#808080" begin="zoomminus.mouseover" end="zoomminus.mouseout"/>
                        </use>
                        <path d="M-4,0h8" fill="none" stroke="white" stroke-width="1.5" pointer-events="none"/>
                </g>
                <g id="dirArrow">
                        <path fill="none" stroke="white" stroke-width="1.5" d="M0,-3.0v7 M-2.5,-0.5L0,-3.0L2.5,-0.5"/>
                </g>
               <g id="resetDef">
                       <use xlink:href="#rim2" fill="#404040">
                               <set attributeName="fill" to="#808080" begin="reset.mouseover" end="reset.mouseout"/>
                       </use>
               </g>
        </defs>

<script type="text/javascript">
var viewWidth = 664;
var viewHeight = 140;
var sectionId = 'dynsection-0';
</script>
<script xlink:href="svgpan.js"/>
<svg id="graph" class="graph">
<g id="viewport">
<title>G</title>
<!-- Node1 -->
<g id="node1" class="node"><title>Node1</title>
<polygon fill="#bfbfbf" stroke="black" points="20.3956,-112.5 20.3956,-131.5 445.396,-131.5 445.396,-112.5 20.3956,-112.5"/>
<text text-anchor="middle" x="232.896" y="-119.5" font-family="Helvetica,sans-Serif" font-size="10.00">/home/pjm3/freeradius&#45;server/src/modules/rlm_sql/drivers/rlm_sql_postgresql/sql_postgresql.c</text>
</g>
<!-- Node2 -->
<g id="node3" class="node"><title>Node2</title>
<polygon fill="none" stroke="#bfbfbf" points="164.896,-0.5 164.896,-19.5 282.896,-19.5 282.896,-0.5 164.896,-0.5"/>
<text text-anchor="middle" x="223.896" y="-7.5" font-family="Helvetica,sans-Serif" font-size="10.00">freeradius&#45;devel/ident.h</text>
</g>
<!-- Node1&#45;&gt;Node2 -->
<g id="edge2" class="edge"><title>Node1&#45;&gt;Node2</title>
<path fill="none" stroke="midnightblue" d="M127.931,-112.482C77.7834,-106.01 25.3414,-94.874 9.8956,-76 -32.1134,-24.667 77.2365,-12.8993 154.647,-10.751"/>
<polygon fill="midnightblue" stroke="midnightblue" points="154.946,-14.2452 164.864,-10.5171 154.786,-7.24703 154.946,-14.2452"/>
</g>
<!-- Node3 -->
<g id="node5" class="node"><title>Node3</title>
<polygon fill="none" stroke="#bfbfbf" points="18.8956,-56.5 18.8956,-75.5 146.896,-75.5 146.896,-56.5 18.8956,-56.5"/>
<text text-anchor="middle" x="82.8956" y="-63.5" font-family="Helvetica,sans-Serif" font-size="10.00">freeradius&#45;devel/radiusd.h</text>
</g>
<!-- Node1&#45;&gt;Node3 -->
<g id="edge4" class="edge"><title>Node1&#45;&gt;Node3</title>
<path fill="none" stroke="midnightblue" d="M209.128,-112.444C184.003,-103.399 144.185,-89.064 115.995,-78.9158"/>
<polygon fill="midnightblue" stroke="midnightblue" points="117.147,-75.6106 106.552,-75.5164 114.776,-82.1968 117.147,-75.6106"/>
</g>
<!-- Node4 -->
<g id="node7" class="node"><title>Node4</title>
<polygon fill="none" stroke="#bfbfbf" points="164.896,-56.5 164.896,-75.5 224.896,-75.5 224.896,-56.5 164.896,-56.5"/>
<text text-anchor="middle" x="194.896" y="-63.5" font-family="Helvetica,sans-Serif" font-size="10.00">sys/stat.h</text>
</g>
<!-- Node1&#45;&gt;Node4 -->
<g id="edge6" class="edge"><title>Node1&#45;&gt;Node4</title>
<path fill="none" stroke="midnightblue" d="M226.621,-112.083C221.253,-104.455 213.378,-93.2645 206.817,-83.9408"/>
<polygon fill="midnightblue" stroke="midnightblue" points="209.671,-81.9149 201.054,-75.7511 203.946,-85.9434 209.671,-81.9149"/>
</g>
<!-- Node5 -->
<g id="node9" class="node"><title>Node5</title>
<polygon fill="none" stroke="#bfbfbf" points="242.896,-56.5 242.896,-75.5 298.896,-75.5 298.896,-56.5 242.896,-56.5"/>
<text text-anchor="middle" x="270.896" y="-63.5" font-family="Helvetica,sans-Serif" font-size="10.00">libpq&#45;fe.h</text>
</g>
<!-- Node1&#45;&gt;Node5 -->
<g id="edge8" class="edge"><title>Node1&#45;&gt;Node5</title>
<path fill="none" stroke="midnightblue" d="M239.171,-112.083C244.538,-104.455 252.413,-93.2645 258.974,-83.9408"/>
<polygon fill="midnightblue" stroke="midnightblue" points="261.845,-85.9434 264.737,-75.7511 256.12,-81.9149 261.845,-85.9434"/>
</g>
<!-- Node6 -->
<g id="node11" class="node"><title>Node6</title>
<a xlink:href="rlm__sql_8h.html" target="_top" xlink:title="rlm_sql.h">
<polygon fill="none" stroke="black" points="422.896,-56.5 422.896,-75.5 478.896,-75.5 478.896,-56.5 422.896,-56.5"/>
<text text-anchor="middle" x="450.896" y="-63.5" font-family="Helvetica,sans-Serif" font-size="10.00">rlm_sql.h</text>
</a>
</g>
<!-- Node1&#45;&gt;Node6 -->
<g id="edge10" class="edge"><title>Node1&#45;&gt;Node6</title>
<path fill="none" stroke="midnightblue" d="M267.438,-112.444C307.061,-102.629 371.829,-86.5852 412.863,-76.421"/>
<polygon fill="midnightblue" stroke="midnightblue" points="413.888,-79.7728 422.754,-73.971 412.205,-72.9781 413.888,-79.7728"/>
</g>
<!-- Node10 -->
<g id="node20" class="node"><title>Node10</title>
<a xlink:href="sql__postgresql_8h.html" target="_top" xlink:title="sql_postgresql.h">
<polygon fill="none" stroke="black" points="316.896,-56.5 316.896,-75.5 404.896,-75.5 404.896,-56.5 316.896,-56.5"/>
<text text-anchor="middle" x="360.896" y="-63.5" font-family="Helvetica,sans-Serif" font-size="10.00">sql_postgresql.h</text>
</a>
</g>
<!-- Node1&#45;&gt;Node10 -->
<g id="edge20" class="edge"><title>Node1&#45;&gt;Node10</title>
<path fill="none" stroke="midnightblue" d="M253.178,-112.444C274.243,-103.557 307.412,-89.5632 331.381,-79.4514"/>
<polygon fill="midnightblue" stroke="midnightblue" points="332.855,-82.6283 340.709,-75.5164 330.134,-76.1787 332.855,-82.6283"/>
</g>
<!-- Node6&#45;&gt;Node2 -->
<g id="edge12" class="edge"><title>Node6&#45;&gt;Node2</title>
<path fill="none" stroke="midnightblue" d="M422.605,-58.27C384.264,-49.1492 315.351,-32.7558 269.613,-21.8754"/>
<polygon fill="midnightblue" stroke="midnightblue" points="270.195,-18.4163 259.656,-19.5069 268.575,-25.2262 270.195,-18.4163"/>
</g>
<!-- Node7 -->
<g id="node14" class="node"><title>Node7</title>
<polygon fill="none" stroke="#bfbfbf" points="300.896,-0.5 300.896,-19.5 444.896,-19.5 444.896,-0.5 300.896,-0.5"/>
<text text-anchor="middle" x="372.896" y="-7.5" font-family="Helvetica,sans-Serif" font-size="10.00">freeradius&#45;devel/connection.h</text>
</g>
<!-- Node6&#45;&gt;Node7 -->
<g id="edge14" class="edge"><title>Node6&#45;&gt;Node7</title>
<path fill="none" stroke="midnightblue" d="M438.364,-56.324C426.31,-47.979 407.869,-35.2122 393.627,-25.3524"/>
<polygon fill="midnightblue" stroke="midnightblue" points="395.611,-22.469 385.397,-19.6545 391.626,-28.2243 395.611,-22.469"/>
</g>
<!-- Node8 -->
<g id="node16" class="node"><title>Node8</title>
<polygon fill="none" stroke="#bfbfbf" points="463.396,-0.5 463.396,-19.5 594.396,-19.5 594.396,-0.5 463.396,-0.5"/>
<text text-anchor="middle" x="528.896" y="-7.5" font-family="Helvetica,sans-Serif" font-size="10.00">freeradius&#45;devel/modpriv.h</text>
</g>
<!-- Node6&#45;&gt;Node8 -->
<g id="edge16" class="edge"><title>Node6&#45;&gt;Node8</title>
<path fill="none" stroke="midnightblue" d="M463.428,-56.324C475.482,-47.979 493.922,-35.2122 508.164,-25.3524"/>
<polygon fill="midnightblue" stroke="midnightblue" points="510.165,-28.2243 516.395,-19.6545 506.18,-22.469 510.165,-28.2243"/>
</g>
<!-- Node9 -->
<g id="node18" class="node"><title>Node9</title>
<polygon fill="none" stroke="#bfbfbf" points="612.896,-0.5 612.896,-19.5 656.896,-19.5 656.896,-0.5 612.896,-0.5"/>
<text text-anchor="middle" x="634.896" y="-7.5" font-family="Helvetica,sans-Serif" font-size="10.00">conf.h</text>
</g>
<!-- Node6&#45;&gt;Node9 -->
<g id="edge18" class="edge"><title>Node6&#45;&gt;Node9</title>
<path fill="none" stroke="midnightblue" d="M479.242,-56.6808C512.731,-46.8526 568.292,-30.5468 603.183,-20.307"/>
<polygon fill="midnightblue" stroke="midnightblue" points="604.26,-23.6384 612.87,-17.464 602.289,-16.9217 604.26,-23.6384"/>
</g>
<!-- Node10&#45;&gt;Node2 -->
<g id="edge22" class="edge"><title>Node10&#45;&gt;Node2</title>
<path fill="none" stroke="midnightblue" d="M339.188,-56.4435C316.541,-47.5171 280.823,-33.4387 255.144,-23.3168"/>
<polygon fill="midnightblue" stroke="midnightblue" points="256.089,-19.9273 245.502,-19.5164 253.522,-26.4397 256.089,-19.9273"/>
</g>
</g>
</svg>
        <g id="navigator" transform="translate(0 0)" fill="#404254">
                <rect fill="#f2f5e9" fill-opacity="0.5" stroke="#606060" stroke-width=".5" x="0" y="0" width="60" height="60"/>
                <use id="zoomplus" xlink:href="#zoomPlus" x="17" y="9" onmousedown="handleZoom(evt,'in')"/>
                <use id="zoomminus" xlink:href="#zoomMin" x="42" y="9" onmousedown="handleZoom(evt,'out')"/>
                <use id="reset" xlink:href="#resetDef" x="30" y="36" onmousedown="handleReset()"/>
                <g id="arrowUp" xlink:href="#dirArrow" transform="translate(30 24)" onmousedown="handlePan(0,-1)">
                  <use xlink:href="#rim" fill="#404040">
                        <set attributeName="fill" to="#808080" begin="arrowUp.mouseover" end="arrowUp.mouseout"/>
                  </use>
                  <path fill="none" stroke="white" stroke-width="1.5" d="M0,-3.0v7 M-2.5,-0.5L0,-3.0L2.5,-0.5"/>
                </g>
                <g id="arrowRight" xlink:href="#dirArrow" transform="rotate(90) translate(36 -43)" onmousedown="handlePan(1,0)">
                  <use xlink:href="#rim" fill="#404040">
                        <set attributeName="fill" to="#808080" begin="arrowRight.mouseover" end="arrowRight.mouseout"/>
                  </use>
                  <path fill="none" stroke="white" stroke-width="1.5" d="M0,-3.0v7 M-2.5,-0.5L0,-3.0L2.5,-0.5"/>
                </g>
                <g id="arrowDown" xlink:href="#dirArrow" transform="rotate(180) translate(-30 -48)" onmousedown="handlePan(0,1)">
                  <use xlink:href="#rim" fill="#404040">
                        <set attributeName="fill" to="#808080" begin="arrowDown.mouseover" end="arrowDown.mouseout"/>
                  </use>
                  <path fill="none" stroke="white" stroke-width="1.5" d="M0,-3.0v7 M-2.5,-0.5L0,-3.0L2.5,-0.5"/>
                </g>
                <g id="arrowLeft" xlink:href="#dirArrow" transform="rotate(270) translate(-36 17)" onmousedown="handlePan(-1,0)">
                  <use xlink:href="#rim" fill="#404040">
                        <set attributeName="fill" to="#808080" begin="arrowLeft.mouseover" end="arrowLeft.mouseout"/>
                  </use>
                  <path fill="none" stroke="white" stroke-width="1.5" d="M0,-3.0v7 M-2.5,-0.5L0,-3.0L2.5,-0.5"/>
                </g>
        </g>
</svg>
