<?xml version="1.0" encoding="UTF-8" standalone="no"?>
<!DOCTYPE svg PUBLIC "-//W3C//DTD SVG 1.1//EN"
 "http://www.w3.org/Graphics/SVG/1.1/DTD/svg11.dtd">
<!-- Generated by graphviz version 2.28.0 (20111211.2114)
 -->
<!-- Title: G Pages: 1 -->
<!--zoomable-->
<svg id="main" version="1.1" xmlns="http://www.w3.org/2000/svg" xmlns:xlink="http://www.w3.org/1999/xlink" xml:space="preserve" onload="init(evt)">
        <defs>
                <circle id="rim" cx="0" cy="0" r="7"/>
                <circle id="rim2" cx="0" cy="0" r="3.5"/>
                <g id="zoomPlus">
                        <use xlink:href="#rim" fill="#404040">
                                <set attributeName="fill" to="#808080" begin="zoomplus.mouseover" end="zoomplus.mouseout"/>
                        </use>
                        <path d="M-4,0h8M0,-4v8" fill="none" stroke="white" stroke-width="1.5" pointer-events="none"/>
                </g>
                <g id="zoomMin">
                        <use xlink:href="#rim" fill="#404040">
                                <set attributeName="fill" to="#808080" begin="zoomminus.mouseover" end="zoomminus.mouseout"/>
                        </use>
                        <path d="M-4,0h8" fill="none" stroke="white" stroke-width="1.5" pointer-events="none"/>
                </g>
                <g id="dirArrow">
                        <path fill="none" stroke="white" stroke-width="1.5" d="M0,-3.0v7 M-2.5,-0.5L0,-3.0L2.5,-0.5"/>
                </g>
               <g id="resetDef">
                       <use xlink:href="#rim2" fill="#404040">
                               <set attributeName="fill" to="#808080" begin="reset.mouseover" end="reset.mouseout"/>
                       </use>
               </g>
        </defs>

<script type="text/javascript">
var viewWidth = 611;
var viewHeight = 140;
var sectionId = 'dynsection-0';
</script>
<script xlink:href="svgpan.js"/>
<svg id="graph" class="graph">
<g id="viewport">
<title>G</title>
<!-- Node1 -->
<g id="node1" class="node"><title>Node1</title>
<polygon fill="#bfbfbf" stroke="black" points="67.0528,-112.5 67.0528,-131.5 449.053,-131.5 449.053,-112.5 67.0528,-112.5"/>
<text text-anchor="middle" x="258.053" y="-119.5" font-family="Helvetica,sans-Serif" font-size="10.00">/home/pjm3/freeradius&#45;server/src/modules/rlm_sql/drivers/rlm_sql_iodbc/sql_iodbc.c</text>
</g>
<!-- Node2 -->
<g id="node3" class="node"><title>Node2</title>
<polygon fill="none" stroke="#bfbfbf" points="19.0528,-0.5 19.0528,-19.5 137.053,-19.5 137.053,-0.5 19.0528,-0.5"/>
<text text-anchor="middle" x="78.0528" y="-7.5" font-family="Helvetica,sans-Serif" font-size="10.00">freeradius&#45;devel/ident.h</text>
</g>
<!-- Node1&#45;&gt;Node2 -->
<g id="edge2" class="edge"><title>Node1&#45;&gt;Node2</title>
<path fill="none" stroke="midnightblue" d="M123.187,-112.481C71.5288,-106.157 21.0975,-95.1503 5.05281,-76 -12.0074,-55.6376 19.0936,-35.873 45.8343,-23.5891"/>
<polygon fill="midnightblue" stroke="midnightblue" points="47.2667,-26.7828 55.0249,-19.5674 44.4605,-20.3699 47.2667,-26.7828"/>
</g>
<!-- Node3 -->
<g id="node5" class="node"><title>Node3</title>
<polygon fill="none" stroke="#bfbfbf" points="14.0528,-56.5 14.0528,-75.5 142.053,-75.5 142.053,-56.5 14.0528,-56.5"/>
<text text-anchor="middle" x="78.0528" y="-63.5" font-family="Helvetica,sans-Serif" font-size="10.00">freeradius&#45;devel/radiusd.h</text>
</g>
<!-- Node1&#45;&gt;Node3 -->
<g id="edge4" class="edge"><title>Node1&#45;&gt;Node3</title>
<path fill="none" stroke="midnightblue" d="M229.531,-112.444C198.987,-103.28 150.345,-88.6876 116.45,-78.5192"/>
<polygon fill="midnightblue" stroke="midnightblue" points="117.025,-75.0376 106.441,-75.5164 115.013,-81.7424 117.025,-75.0376"/>
</g>
<!-- Node4 -->
<g id="node7" class="node"><title>Node4</title>
<polygon fill="none" stroke="#bfbfbf" points="160.053,-56.5 160.053,-75.5 220.053,-75.5 220.053,-56.5 160.053,-56.5"/>
<text text-anchor="middle" x="190.053" y="-63.5" font-family="Helvetica,sans-Serif" font-size="10.00">sys/stat.h</text>
</g>
<!-- Node1&#45;&gt;Node4 -->
<g id="edge6" class="edge"><title>Node1&#45;&gt;Node4</title>
<path fill="none" stroke="midnightblue" d="M247.127,-112.324C236.878,-104.185 221.332,-91.8395 209.052,-82.0874"/>
<polygon fill="midnightblue" stroke="midnightblue" points="211.185,-79.3119 201.177,-75.8339 206.832,-84.7937 211.185,-79.3119"/>
</g>
<!-- Node5 -->
<g id="node9" class="node"><title>Node5</title>
<polygon fill="none" stroke="#bfbfbf" points="238.053,-56.5 238.053,-75.5 278.053,-75.5 278.053,-56.5 238.053,-56.5"/>
<text text-anchor="middle" x="258.053" y="-63.5" font-family="Helvetica,sans-Serif" font-size="10.00">isql.h</text>
</g>
<!-- Node1&#45;&gt;Node5 -->
<g id="edge8" class="edge"><title>Node1&#45;&gt;Node5</title>
<path fill="none" stroke="midnightblue" d="M258.053,-112.083C258.053,-105.006 258.053,-94.8611 258.053,-85.9865"/>
<polygon fill="midnightblue" stroke="midnightblue" points="261.553,-85.751 258.053,-75.7511 254.553,-85.7511 261.553,-85.751"/>
</g>
<!-- Node6 -->
<g id="node11" class="node"><title>Node6</title>
<polygon fill="none" stroke="#bfbfbf" points="296.553,-56.5 296.553,-75.5 349.553,-75.5 349.553,-56.5 296.553,-56.5"/>
<text text-anchor="middle" x="323.053" y="-63.5" font-family="Helvetica,sans-Serif" font-size="10.00">isqlext.h</text>
</g>
<!-- Node1&#45;&gt;Node6 -->
<g id="edge10" class="edge"><title>Node1&#45;&gt;Node6</title>
<path fill="none" stroke="midnightblue" d="M268.496,-112.324C278.199,-104.263 292.868,-92.0765 304.553,-82.3695"/>
<polygon fill="midnightblue" stroke="midnightblue" points="306.964,-84.9163 312.419,-75.8339 302.491,-79.532 306.964,-84.9163"/>
</g>
<!-- Node7 -->
<g id="node13" class="node"><title>Node7</title>
<polygon fill="none" stroke="#bfbfbf" points="368.053,-56.5 368.053,-75.5 430.053,-75.5 430.053,-56.5 368.053,-56.5"/>
<text text-anchor="middle" x="399.053" y="-63.5" font-family="Helvetica,sans-Serif" font-size="10.00">sqltypes.h</text>
</g>
<!-- Node1&#45;&gt;Node7 -->
<g id="edge12" class="edge"><title>Node1&#45;&gt;Node7</title>
<path fill="none" stroke="midnightblue" d="M280.395,-112.444C303.806,-103.478 340.788,-89.314 367.242,-79.1827"/>
<polygon fill="midnightblue" stroke="midnightblue" points="368.729,-82.3615 376.815,-75.5164 366.225,-75.8245 368.729,-82.3615"/>
</g>
<!-- Node8 -->
<g id="node15" class="node"><title>Node8</title>
<a xlink:href="rlm__sql_8h.html" target="_top" xlink:title="rlm_sql.h">
<polygon fill="none" stroke="black" points="448.053,-56.5 448.053,-75.5 504.053,-75.5 504.053,-56.5 448.053,-56.5"/>
<text text-anchor="middle" x="476.053" y="-63.5" font-family="Helvetica,sans-Serif" font-size="10.00">rlm_sql.h</text>
</a>
</g>
<!-- Node1&#45;&gt;Node8 -->
<g id="edge14" class="edge"><title>Node1&#45;&gt;Node8</title>
<path fill="none" stroke="midnightblue" d="M292.596,-112.444C332.219,-102.629 396.987,-86.5852 438.02,-76.421"/>
<polygon fill="midnightblue" stroke="midnightblue" points="439.046,-79.7728 447.911,-73.971 437.363,-72.9781 439.046,-79.7728"/>
</g>
<!-- Node8&#45;&gt;Node2 -->
<g id="edge16" class="edge"><title>Node8&#45;&gt;Node2</title>
<path fill="none" stroke="midnightblue" d="M447.902,-57.9746C444.593,-57.2551 441.255,-56.5777 438.053,-56 337.558,-37.8733 219.966,-24.6578 147.236,-17.403"/>
<polygon fill="midnightblue" stroke="midnightblue" points="147.574,-13.9194 137.278,-16.419 146.885,-20.8855 147.574,-13.9194"/>
</g>
<!-- Node9 -->
<g id="node18" class="node"><title>Node9</title>
<polygon fill="none" stroke="#bfbfbf" points="248.053,-0.5 248.053,-19.5 392.053,-19.5 392.053,-0.5 248.053,-0.5"/>
<text text-anchor="middle" x="320.053" y="-7.5" font-family="Helvetica,sans-Serif" font-size="10.00">freeradius&#45;devel/connection.h</text>
</g>
<!-- Node8&#45;&gt;Node9 -->
<g id="edge18" class="edge"><title>Node8&#45;&gt;Node9</title>
<path fill="none" stroke="midnightblue" d="M451.334,-56.4435C425.204,-47.3986 383.793,-33.064 354.476,-22.9158"/>
<polygon fill="midnightblue" stroke="midnightblue" points="355.251,-19.4801 344.656,-19.5164 352.961,-26.0951 355.251,-19.4801"/>
</g>
<!-- Node10 -->
<g id="node20" class="node"><title>Node10</title>
<polygon fill="none" stroke="#bfbfbf" points="410.553,-0.5 410.553,-19.5 541.553,-19.5 541.553,-0.5 410.553,-0.5"/>
<text text-anchor="middle" x="476.053" y="-7.5" font-family="Helvetica,sans-Serif" font-size="10.00">freeradius&#45;devel/modpriv.h</text>
</g>
<!-- Node8&#45;&gt;Node10 -->
<g id="edge20" class="edge"><title>Node8&#45;&gt;Node10</title>
<path fill="none" stroke="midnightblue" d="M476.053,-56.083C476.053,-49.0059 476.053,-38.8611 476.053,-29.9865"/>
<polygon fill="midnightblue" stroke="midnightblue" points="479.553,-29.751 476.053,-19.7511 472.553,-29.7511 479.553,-29.751"/>
</g>
<!-- Node11 -->
<g id="node22" class="node"><title>Node11</title>
<polygon fill="none" stroke="#bfbfbf" points="560.053,-0.5 560.053,-19.5 604.053,-19.5 604.053,-0.5 560.053,-0.5"/>
<text text-anchor="middle" x="582.053" y="-7.5" font-family="Helvetica,sans-Serif" font-size="10.00">conf.h</text>
</g>
<!-- Node8&#45;&gt;Node11 -->
<g id="edge22" class="edge"><title>Node8&#45;&gt;Node11</title>
<path fill="none" stroke="midnightblue" d="M493.084,-56.324C510.083,-47.6641 536.429,-34.2424 556.045,-24.249"/>
<polygon fill="midnightblue" stroke="midnightblue" points="557.743,-27.3125 565.064,-19.6545 554.565,-21.0752 557.743,-27.3125"/>
</g>
</g>
</svg>
        <g id="navigator" transform="translate(0 0)" fill="#404254">
                <rect fill="#f2f5e9" fill-opacity="0.5" stroke="#606060" stroke-width=".5" x="0" y="0" width="60" height="60"/>
                <use id="zoomplus" xlink:href="#zoomPlus" x="17" y="9" onmousedown="handleZoom(evt,'in')"/>
                <use id="zoomminus" xlink:href="#zoomMin" x="42" y="9" onmousedown="handleZoom(evt,'out')"/>
                <use id="reset" xlink:href="#resetDef" x="30" y="36" onmousedown="handleReset()"/>
                <g id="arrowUp" xlink:href="#dirArrow" transform="translate(30 24)" onmousedown="handlePan(0,-1)">
                  <use xlink:href="#rim" fill="#404040">
                        <set attributeName="fill" to="#808080" begin="arrowUp.mouseover" end="arrowUp.mouseout"/>
                  </use>
                  <path fill="none" stroke="white" stroke-width="1.5" d="M0,-3.0v7 M-2.5,-0.5L0,-3.0L2.5,-0.5"/>
                </g>
                <g id="arrowRight" xlink:href="#dirArrow" transform="rotate(90) translate(36 -43)" onmousedown="handlePan(1,0)">
                  <use xlink:href="#rim" fill="#404040">
                        <set attributeName="fill" to="#808080" begin="arrowRight.mouseover" end="arrowRight.mouseout"/>
                  </use>
                  <path fill="none" stroke="white" stroke-width="1.5" d="M0,-3.0v7 M-2.5,-0.5L0,-3.0L2.5,-0.5"/>
                </g>
                <g id="arrowDown" xlink:href="#dirArrow" transform="rotate(180) translate(-30 -48)" onmousedown="handlePan(0,1)">
                  <use xlink:href="#rim" fill="#404040">
                        <set attributeName="fill" to="#808080" begin="arrowDown.mouseover" end="arrowDown.mouseout"/>
                  </use>
                  <path fill="none" stroke="white" stroke-width="1.5" d="M0,-3.0v7 M-2.5,-0.5L0,-3.0L2.5,-0.5"/>
                </g>
                <g id="arrowLeft" xlink:href="#dirArrow" transform="rotate(270) translate(-36 17)" onmousedown="handlePan(-1,0)">
                  <use xlink:href="#rim" fill="#404040">
                        <set attributeName="fill" to="#808080" begin="arrowLeft.mouseover" end="arrowLeft.mouseout"/>
                  </use>
                  <path fill="none" stroke="white" stroke-width="1.5" d="M0,-3.0v7 M-2.5,-0.5L0,-3.0L2.5,-0.5"/>
                </g>
        </g>
</svg>
