<?xml version="1.0" encoding="UTF-8" standalone="no"?>
<!DOCTYPE svg PUBLIC "-//W3C//DTD SVG 1.1//EN"
 "http://www.w3.org/Graphics/SVG/1.1/DTD/svg11.dtd">
<!-- Generated by graphviz version 2.28.0 (20111211.2114)
 -->
<!-- Title: G Pages: 1 -->
<!--zoomable-->
<svg id="main" version="1.1" xmlns="http://www.w3.org/2000/svg" xmlns:xlink="http://www.w3.org/1999/xlink" xml:space="preserve" onload="init(evt)">
        <defs>
                <circle id="rim" cx="0" cy="0" r="7"/>
                <circle id="rim2" cx="0" cy="0" r="3.5"/>
                <g id="zoomPlus">
                        <use xlink:href="#rim" fill="#404040">
                                <set attributeName="fill" to="#808080" begin="zoomplus.mouseover" end="zoomplus.mouseout"/>
                        </use>
                        <path d="M-4,0h8M0,-4v8" fill="none" stroke="white" stroke-width="1.5" pointer-events="none"/>
                </g>
                <g id="zoomMin">
                        <use xlink:href="#rim" fill="#404040">
                                <set attributeName="fill" to="#808080" begin="zoomminus.mouseover" end="zoomminus.mouseout"/>
                        </use>
                        <path d="M-4,0h8" fill="none" stroke="white" stroke-width="1.5" pointer-events="none"/>
                </g>
                <g id="dirArrow">
                        <path fill="none" stroke="white" stroke-width="1.5" d="M0,-3.0v7 M-2.5,-0.5L0,-3.0L2.5,-0.5"/>
                </g>
               <g id="resetDef">
                       <use xlink:href="#rim2" fill="#404040">
                               <set attributeName="fill" to="#808080" begin="reset.mouseover" end="reset.mouseout"/>
                       </use>
               </g>
        </defs>

<script type="text/javascript">
var viewWidth = 676;
var viewHeight = 140;
var sectionId = 'dynsection-0';
</script>
<script xlink:href="svgpan.js"/>
<svg id="graph" class="graph">
<g id="viewport">
<title>G</title>
<!-- Node1 -->
<g id="node1" class="node"><title>Node1</title>
<polygon fill="#bfbfbf" stroke="black" points="64.8798,-112.5 64.8798,-131.5 450.88,-131.5 450.88,-112.5 64.8798,-112.5"/>
<text text-anchor="middle" x="257.88" y="-119.5" font-family="Helvetica,sans-Serif" font-size="10.00">/home/pjm3/freeradius&#45;server/src/modules/rlm_sql/drivers/rlm_sql_firebird/sql_fbapi.h</text>
</g>
<!-- Node2 -->
<g id="node3" class="node"><title>Node2</title>
<polygon fill="none" stroke="#bfbfbf" points="51.8798,-0.5 51.8798,-19.5 169.88,-19.5 169.88,-0.5 51.8798,-0.5"/>
<text text-anchor="middle" x="110.88" y="-7.5" font-family="Helvetica,sans-Serif" font-size="10.00">freeradius&#45;devel/ident.h</text>
</g>
<!-- Node1&#45;&gt;Node2 -->
<g id="edge2" class="edge"><title>Node1&#45;&gt;Node2</title>
<path fill="none" stroke="midnightblue" d="M123.888,-112.459C72.3123,-106.13 21.8921,-95.125 5.87978,-76 -14.9665,-51.1014 25.6114,-32.9119 62.2266,-22.2084"/>
<polygon fill="midnightblue" stroke="midnightblue" points="63.2039,-25.5695 71.901,-19.5189 61.3289,-18.8253 63.2039,-25.5695"/>
</g>
<!-- Node3 -->
<g id="node5" class="node"><title>Node3</title>
<polygon fill="none" stroke="#bfbfbf" points="14.8798,-56.5 14.8798,-75.5 148.88,-75.5 148.88,-56.5 14.8798,-56.5"/>
<text text-anchor="middle" x="81.8798" y="-63.5" font-family="Helvetica,sans-Serif" font-size="10.00">freeradius&#45;devel/autoconf.h</text>
</g>
<!-- Node1&#45;&gt;Node3 -->
<g id="edge4" class="edge"><title>Node1&#45;&gt;Node3</title>
<path fill="none" stroke="midnightblue" d="M229.992,-112.444C200.126,-103.28 152.565,-88.6876 119.424,-78.5192"/>
<polygon fill="midnightblue" stroke="midnightblue" points="120.224,-75.1037 109.637,-75.5164 118.171,-81.7958 120.224,-75.1037"/>
</g>
<!-- Node4 -->
<g id="node7" class="node"><title>Node4</title>
<polygon fill="none" stroke="#bfbfbf" points="166.88,-56.5 166.88,-75.5 214.88,-75.5 214.88,-56.5 166.88,-56.5"/>
<text text-anchor="middle" x="190.88" y="-63.5" font-family="Helvetica,sans-Serif" font-size="10.00">stdlib.h</text>
</g>
<!-- Node1&#45;&gt;Node4 -->
<g id="edge6" class="edge"><title>Node1&#45;&gt;Node4</title>
<path fill="none" stroke="midnightblue" d="M247.115,-112.324C237.114,-104.263 221.993,-92.0765 209.949,-82.3695"/>
<polygon fill="midnightblue" stroke="midnightblue" points="211.823,-79.3841 201.84,-75.8339 207.43,-84.8343 211.823,-79.3841"/>
</g>
<!-- Node5 -->
<g id="node9" class="node"><title>Node5</title>
<polygon fill="none" stroke="#bfbfbf" points="233.38,-56.5 233.38,-75.5 282.38,-75.5 282.38,-56.5 233.38,-56.5"/>
<text text-anchor="middle" x="257.88" y="-63.5" font-family="Helvetica,sans-Serif" font-size="10.00">string.h</text>
</g>
<!-- Node1&#45;&gt;Node5 -->
<g id="edge8" class="edge"><title>Node1&#45;&gt;Node5</title>
<path fill="none" stroke="midnightblue" d="M257.88,-112.083C257.88,-105.006 257.88,-94.8611 257.88,-85.9865"/>
<polygon fill="midnightblue" stroke="midnightblue" points="261.38,-85.751 257.88,-75.7511 254.38,-85.7511 261.38,-85.751"/>
</g>
<!-- Node6 -->
<g id="node11" class="node"><title>Node6</title>
<polygon fill="none" stroke="#bfbfbf" points="300.88,-56.5 300.88,-75.5 348.88,-75.5 348.88,-56.5 300.88,-56.5"/>
<text text-anchor="middle" x="324.88" y="-63.5" font-family="Helvetica,sans-Serif" font-size="10.00">ibase.h</text>
</g>
<!-- Node1&#45;&gt;Node6 -->
<g id="edge10" class="edge"><title>Node1&#45;&gt;Node6</title>
<path fill="none" stroke="midnightblue" d="M268.644,-112.324C278.646,-104.263 293.766,-92.0765 305.81,-82.3695"/>
<polygon fill="midnightblue" stroke="midnightblue" points="308.33,-84.8343 313.919,-75.8339 303.937,-79.3841 308.33,-84.8343"/>
</g>
<!-- Node7 -->
<g id="node13" class="node"><title>Node7</title>
<polygon fill="none" stroke="#bfbfbf" points="366.88,-56.5 366.88,-75.5 494.88,-75.5 494.88,-56.5 366.88,-56.5"/>
<text text-anchor="middle" x="430.88" y="-63.5" font-family="Helvetica,sans-Serif" font-size="10.00">freeradius&#45;devel/radiusd.h</text>
</g>
<!-- Node1&#45;&gt;Node7 -->
<g id="edge12" class="edge"><title>Node1&#45;&gt;Node7</title>
<path fill="none" stroke="midnightblue" d="M285.292,-112.444C314.649,-103.28 361.399,-88.6876 393.976,-78.5192"/>
<polygon fill="midnightblue" stroke="midnightblue" points="395.093,-81.8371 403.596,-75.5164 393.007,-75.1551 395.093,-81.8371"/>
</g>
<!-- Node8 -->
<g id="node15" class="node"><title>Node8</title>
<a xlink:href="rlm__sql_8h.html" target="_top" xlink:title="rlm_sql.h">
<polygon fill="none" stroke="black" points="512.88,-56.5 512.88,-75.5 568.88,-75.5 568.88,-56.5 512.88,-56.5"/>
<text text-anchor="middle" x="540.88" y="-63.5" font-family="Helvetica,sans-Serif" font-size="10.00">rlm_sql.h</text>
</a>
</g>
<!-- Node1&#45;&gt;Node8 -->
<g id="edge14" class="edge"><title>Node1&#45;&gt;Node8</title>
<path fill="none" stroke="midnightblue" d="M309.406,-112.465C357.056,-104.371 430.072,-91.4642 502.433,-76.2147"/>
<polygon fill="midnightblue" stroke="midnightblue" points="503.582,-79.5489 512.636,-74.0476 502.127,-72.7016 503.582,-79.5489"/>
</g>
<!-- Node8&#45;&gt;Node2 -->
<g id="edge16" class="edge"><title>Node8&#45;&gt;Node2</title>
<path fill="none" stroke="midnightblue" d="M512.675,-57.7559C509.716,-57.1109 506.743,-56.5102 503.88,-56 391.454,-35.9705 259.269,-22.9752 180.427,-16.3267"/>
<polygon fill="midnightblue" stroke="midnightblue" points="180.393,-12.8118 170.137,-15.4695 179.812,-19.7876 180.393,-12.8118"/>
</g>
<!-- Node9 -->
<g id="node18" class="node"><title>Node9</title>
<polygon fill="none" stroke="#bfbfbf" points="312.88,-0.5 312.88,-19.5 456.88,-19.5 456.88,-0.5 312.88,-0.5"/>
<text text-anchor="middle" x="384.88" y="-7.5" font-family="Helvetica,sans-Serif" font-size="10.00">freeradius&#45;devel/connection.h</text>
</g>
<!-- Node8&#45;&gt;Node9 -->
<g id="edge18" class="edge"><title>Node8&#45;&gt;Node9</title>
<path fill="none" stroke="midnightblue" d="M516.161,-56.4435C490.031,-47.3986 448.62,-33.064 419.303,-22.9158"/>
<polygon fill="midnightblue" stroke="midnightblue" points="420.078,-19.4801 409.483,-19.5164 417.788,-26.0951 420.078,-19.4801"/>
</g>
<!-- Node10 -->
<g id="node20" class="node"><title>Node10</title>
<polygon fill="none" stroke="#bfbfbf" points="475.38,-0.5 475.38,-19.5 606.38,-19.5 606.38,-0.5 475.38,-0.5"/>
<text text-anchor="middle" x="540.88" y="-7.5" font-family="Helvetica,sans-Serif" font-size="10.00">freeradius&#45;devel/modpriv.h</text>
</g>
<!-- Node8&#45;&gt;Node10 -->
<g id="edge20" class="edge"><title>Node8&#45;&gt;Node10</title>
<path fill="none" stroke="midnightblue" d="M540.88,-56.083C540.88,-49.0059 540.88,-38.8611 540.88,-29.9865"/>
<polygon fill="midnightblue" stroke="midnightblue" points="544.38,-29.751 540.88,-19.7511 537.38,-29.7511 544.38,-29.751"/>
</g>
<!-- Node11 -->
<g id="node22" class="node"><title>Node11</title>
<polygon fill="none" stroke="#bfbfbf" points="624.88,-0.5 624.88,-19.5 668.88,-19.5 668.88,-0.5 624.88,-0.5"/>
<text text-anchor="middle" x="646.88" y="-7.5" font-family="Helvetica,sans-Serif" font-size="10.00">conf.h</text>
</g>
<!-- Node8&#45;&gt;Node11 -->
<g id="edge22" class="edge"><title>Node8&#45;&gt;Node11</title>
<path fill="none" stroke="midnightblue" d="M557.911,-56.324C574.91,-47.6641 601.256,-34.2424 620.872,-24.249"/>
<polygon fill="midnightblue" stroke="midnightblue" points="622.57,-27.3125 629.891,-19.6545 619.392,-21.0752 622.57,-27.3125"/>
</g>
</g>
</svg>
        <g id="navigator" transform="translate(0 0)" fill="#404254">
                <rect fill="#f2f5e9" fill-opacity="0.5" stroke="#606060" stroke-width=".5" x="0" y="0" width="60" height="60"/>
                <use id="zoomplus" xlink:href="#zoomPlus" x="17" y="9" onmousedown="handleZoom(evt,'in')"/>
                <use id="zoomminus" xlink:href="#zoomMin" x="42" y="9" onmousedown="handleZoom(evt,'out')"/>
                <use id="reset" xlink:href="#resetDef" x="30" y="36" onmousedown="handleReset()"/>
                <g id="arrowUp" xlink:href="#dirArrow" transform="translate(30 24)" onmousedown="handlePan(0,-1)">
                  <use xlink:href="#rim" fill="#404040">
                        <set attributeName="fill" to="#808080" begin="arrowUp.mouseover" end="arrowUp.mouseout"/>
                  </use>
                  <path fill="none" stroke="white" stroke-width="1.5" d="M0,-3.0v7 M-2.5,-0.5L0,-3.0L2.5,-0.5"/>
                </g>
                <g id="arrowRight" xlink:href="#dirArrow" transform="rotate(90) translate(36 -43)" onmousedown="handlePan(1,0)">
                  <use xlink:href="#rim" fill="#404040">
                        <set attributeName="fill" to="#808080" begin="arrowRight.mouseover" end="arrowRight.mouseout"/>
                  </use>
                  <path fill="none" stroke="white" stroke-width="1.5" d="M0,-3.0v7 M-2.5,-0.5L0,-3.0L2.5,-0.5"/>
                </g>
                <g id="arrowDown" xlink:href="#dirArrow" transform="rotate(180) translate(-30 -48)" onmousedown="handlePan(0,1)">
                  <use xlink:href="#rim" fill="#404040">
                        <set attributeName="fill" to="#808080" begin="arrowDown.mouseover" end="arrowDown.mouseout"/>
                  </use>
                  <path fill="none" stroke="white" stroke-width="1.5" d="M0,-3.0v7 M-2.5,-0.5L0,-3.0L2.5,-0.5"/>
                </g>
                <g id="arrowLeft" xlink:href="#dirArrow" transform="rotate(270) translate(-36 17)" onmousedown="handlePan(-1,0)">
                  <use xlink:href="#rim" fill="#404040">
                        <set attributeName="fill" to="#808080" begin="arrowLeft.mouseover" end="arrowLeft.mouseout"/>
                  </use>
                  <path fill="none" stroke="white" stroke-width="1.5" d="M0,-3.0v7 M-2.5,-0.5L0,-3.0L2.5,-0.5"/>
                </g>
        </g>
</svg>
