<?xml version="1.0" encoding="UTF-8" standalone="no"?>
<!DOCTYPE svg PUBLIC "-//W3C//DTD SVG 1.1//EN"
 "http://www.w3.org/Graphics/SVG/1.1/DTD/svg11.dtd">
<!-- Generated by graphviz version 2.28.0 (20111211.2114)
 -->
<!-- Title: G Pages: 1 -->
<!--zoomable-->
<svg id="main" version="1.1" xmlns="http://www.w3.org/2000/svg" xmlns:xlink="http://www.w3.org/1999/xlink" xml:space="preserve" onload="init(evt)">
        <defs>
                <circle id="rim" cx="0" cy="0" r="7"/>
                <circle id="rim2" cx="0" cy="0" r="3.5"/>
                <g id="zoomPlus">
                        <use xlink:href="#rim" fill="#404040">
                                <set attributeName="fill" to="#808080" begin="zoomplus.mouseover" end="zoomplus.mouseout"/>
                        </use>
                        <path d="M-4,0h8M0,-4v8" fill="none" stroke="white" stroke-width="1.5" pointer-events="none"/>
                </g>
                <g id="zoomMin">
                        <use xlink:href="#rim" fill="#404040">
                                <set attributeName="fill" to="#808080" begin="zoomminus.mouseover" end="zoomminus.mouseout"/>
                        </use>
                        <path d="M-4,0h8" fill="none" stroke="white" stroke-width="1.5" pointer-events="none"/>
                </g>
                <g id="dirArrow">
                        <path fill="none" stroke="white" stroke-width="1.5" d="M0,-3.0v7 M-2.5,-0.5L0,-3.0L2.5,-0.5"/>
                </g>
               <g id="resetDef">
                       <use xlink:href="#rim2" fill="#404040">
                               <set attributeName="fill" to="#808080" begin="reset.mouseover" end="reset.mouseout"/>
                       </use>
               </g>
        </defs>

<script type="text/javascript">
var viewWidth = 748;
var viewHeight = 196;
var sectionId = 'dynsection-0';
</script>
<script xlink:href="svgpan.js"/>
<svg id="graph" class="graph">
<g id="viewport">
<title>G</title>
<!-- Node1 -->
<g id="node1" class="node"><title>Node1</title>
<polygon fill="#bfbfbf" stroke="black" points="103,-168.5 103,-187.5 489,-187.5 489,-168.5 103,-168.5"/>
<text text-anchor="middle" x="296" y="-175.5" font-family="Helvetica,sans-Serif" font-size="10.00">/home/pjm3/freeradius&#45;server/src/modules/rlm_sql/drivers/rlm_sql_firebird/sql_fbapi.c</text>
</g>
<!-- Node2 -->
<g id="node3" class="node"><title>Node2</title>
<polygon fill="none" stroke="#bfbfbf" points="0,-0.5 0,-19.5 118,-19.5 118,-0.5 0,-0.5"/>
<text text-anchor="middle" x="59" y="-7.5" font-family="Helvetica,sans-Serif" font-size="10.00">freeradius&#45;devel/ident.h</text>
</g>
<!-- Node1&#45;&gt;Node2 -->
<g id="edge2" class="edge"><title>Node1&#45;&gt;Node2</title>
<path fill="none" stroke="midnightblue" d="M233.144,-168.481C178.05,-157.383 100.867,-132.239 62,-76 52.7765,-62.6539 52.9573,-43.8264 54.8937,-29.8673"/>
<polygon fill="midnightblue" stroke="midnightblue" points="58.3585,-30.3744 56.677,-19.9139 51.4682,-29.1399 58.3585,-30.3744"/>
</g>
<!-- Node3 -->
<g id="node5" class="node"><title>Node3</title>
<a xlink:href="sql__fbapi_8h.html" target="_top" xlink:title="sql_fbapi.h">
<polygon fill="none" stroke="black" points="264,-112.5 264,-131.5 328,-131.5 328,-112.5 264,-112.5"/>
<text text-anchor="middle" x="296" y="-119.5" font-family="Helvetica,sans-Serif" font-size="10.00">sql_fbapi.h</text>
</a>
</g>
<!-- Node1&#45;&gt;Node3 -->
<g id="edge4" class="edge"><title>Node1&#45;&gt;Node3</title>
<path fill="none" stroke="midnightblue" d="M296,-168.083C296,-161.006 296,-150.861 296,-141.986"/>
<polygon fill="midnightblue" stroke="midnightblue" points="299.5,-141.751 296,-131.751 292.5,-141.751 299.5,-141.751"/>
</g>
<!-- Node13 -->
<g id="node27" class="node"><title>Node13</title>
<polygon fill="none" stroke="#bfbfbf" points="346,-112.5 346,-131.5 398,-131.5 398,-112.5 346,-112.5"/>
<text text-anchor="middle" x="372" y="-119.5" font-family="Helvetica,sans-Serif" font-size="10.00">stdarg.h</text>
</g>
<!-- Node1&#45;&gt;Node13 -->
<g id="edge28" class="edge"><title>Node1&#45;&gt;Node13</title>
<path fill="none" stroke="midnightblue" d="M308.211,-168.324C319.776,-160.107 337.375,-147.602 351.161,-137.807"/>
<polygon fill="midnightblue" stroke="midnightblue" points="353.443,-140.479 359.567,-131.834 349.388,-134.773 353.443,-140.479"/>
</g>
<!-- Node3&#45;&gt;Node2 -->
<g id="edge6" class="edge"><title>Node3&#45;&gt;Node2</title>
<path fill="none" stroke="midnightblue" d="M263.68,-118.375C209.755,-113.352 104.703,-100.628 78,-76 65.1902,-64.1858 60.8445,-44.2629 59.4559,-29.5811"/>
<polygon fill="midnightblue" stroke="midnightblue" points="62.9501,-29.3781 58.8792,-19.5966 55.9617,-29.7818 62.9501,-29.3781"/>
</g>
<!-- Node4 -->
<g id="node8" class="node"><title>Node4</title>
<polygon fill="none" stroke="#bfbfbf" points="87,-56.5 87,-75.5 221,-75.5 221,-56.5 87,-56.5"/>
<text text-anchor="middle" x="154" y="-63.5" font-family="Helvetica,sans-Serif" font-size="10.00">freeradius&#45;devel/autoconf.h</text>
</g>
<!-- Node3&#45;&gt;Node4 -->
<g id="edge8" class="edge"><title>Node3&#45;&gt;Node4</title>
<path fill="none" stroke="midnightblue" d="M273.5,-112.444C249.923,-103.478 212.678,-89.314 186.036,-79.1827"/>
<polygon fill="midnightblue" stroke="midnightblue" points="186.986,-75.7995 176.395,-75.5164 184.498,-82.3424 186.986,-75.7995"/>
</g>
<!-- Node5 -->
<g id="node10" class="node"><title>Node5</title>
<polygon fill="none" stroke="#bfbfbf" points="239,-56.5 239,-75.5 287,-75.5 287,-56.5 239,-56.5"/>
<text text-anchor="middle" x="263" y="-63.5" font-family="Helvetica,sans-Serif" font-size="10.00">stdlib.h</text>
</g>
<!-- Node3&#45;&gt;Node5 -->
<g id="edge10" class="edge"><title>Node3&#45;&gt;Node5</title>
<path fill="none" stroke="midnightblue" d="M290.551,-112.083C285.986,-104.613 279.332,-93.7244 273.707,-84.5199"/>
<polygon fill="midnightblue" stroke="midnightblue" points="276.549,-82.4588 268.348,-75.7511 270.576,-86.109 276.549,-82.4588"/>
</g>
<!-- Node6 -->
<g id="node12" class="node"><title>Node6</title>
<polygon fill="none" stroke="#bfbfbf" points="305.5,-56.5 305.5,-75.5 354.5,-75.5 354.5,-56.5 305.5,-56.5"/>
<text text-anchor="middle" x="330" y="-63.5" font-family="Helvetica,sans-Serif" font-size="10.00">string.h</text>
</g>
<!-- Node3&#45;&gt;Node6 -->
<g id="edge12" class="edge"><title>Node3&#45;&gt;Node6</title>
<path fill="none" stroke="midnightblue" d="M301.614,-112.083C306.367,-104.534 313.318,-93.4948 319.152,-84.2298"/>
<polygon fill="midnightblue" stroke="midnightblue" points="322.124,-86.0783 324.49,-75.7511 316.2,-82.3486 322.124,-86.0783"/>
</g>
<!-- Node7 -->
<g id="node14" class="node"><title>Node7</title>
<polygon fill="none" stroke="#bfbfbf" points="373,-56.5 373,-75.5 421,-75.5 421,-56.5 373,-56.5"/>
<text text-anchor="middle" x="397" y="-63.5" font-family="Helvetica,sans-Serif" font-size="10.00">ibase.h</text>
</g>
<!-- Node3&#45;&gt;Node7 -->
<g id="edge14" class="edge"><title>Node3&#45;&gt;Node7</title>
<path fill="none" stroke="midnightblue" d="M312.227,-112.324C328.351,-103.703 353.3,-90.3643 371.964,-80.3855"/>
<polygon fill="midnightblue" stroke="midnightblue" points="373.644,-83.456 380.813,-75.6545 370.344,-77.283 373.644,-83.456"/>
</g>
<!-- Node8 -->
<g id="node16" class="node"><title>Node8</title>
<polygon fill="none" stroke="#bfbfbf" points="439,-56.5 439,-75.5 567,-75.5 567,-56.5 439,-56.5"/>
<text text-anchor="middle" x="503" y="-63.5" font-family="Helvetica,sans-Serif" font-size="10.00">freeradius&#45;devel/radiusd.h</text>
</g>
<!-- Node3&#45;&gt;Node8 -->
<g id="edge16" class="edge"><title>Node3&#45;&gt;Node8</title>
<path fill="none" stroke="midnightblue" d="M328.344,-112.562C363.909,-103.285 421.2,-88.3392 460.401,-78.1129"/>
<polygon fill="midnightblue" stroke="midnightblue" points="461.408,-81.4674 470.2,-75.5565 459.641,-74.6941 461.408,-81.4674"/>
</g>
<!-- Node9 -->
<g id="node18" class="node"><title>Node9</title>
<a xlink:href="rlm__sql_8h.html" target="_top" xlink:title="rlm_sql.h">
<polygon fill="none" stroke="black" points="585,-56.5 585,-75.5 641,-75.5 641,-56.5 585,-56.5"/>
<text text-anchor="middle" x="613" y="-63.5" font-family="Helvetica,sans-Serif" font-size="10.00">rlm_sql.h</text>
</a>
</g>
<!-- Node3&#45;&gt;Node9 -->
<g id="edge18" class="edge"><title>Node3&#45;&gt;Node9</title>
<path fill="none" stroke="midnightblue" d="M328.188,-113.722C331.162,-113.114 334.134,-112.53 337,-112 439.536,-93.0454 468.891,-96.4869 574.958,-76.0561"/>
<polygon fill="midnightblue" stroke="midnightblue" points="575.631,-79.4908 584.775,-74.1397 574.29,-72.6205 575.631,-79.4908"/>
</g>
<!-- Node9&#45;&gt;Node2 -->
<g id="edge20" class="edge"><title>Node9&#45;&gt;Node2</title>
<path fill="none" stroke="midnightblue" d="M584.809,-57.6757C581.847,-57.0463 578.87,-56.4712 576,-56 417.145,-29.9213 228.185,-18.3248 128.529,-13.6986"/>
<polygon fill="midnightblue" stroke="midnightblue" points="128.438,-10.1909 118.289,-13.2333 128.12,-17.1837 128.438,-10.1909"/>
</g>
<!-- Node10 -->
<g id="node21" class="node"><title>Node10</title>
<polygon fill="none" stroke="#bfbfbf" points="385,-0.5 385,-19.5 529,-19.5 529,-0.5 385,-0.5"/>
<text text-anchor="middle" x="457" y="-7.5" font-family="Helvetica,sans-Serif" font-size="10.00">freeradius&#45;devel/connection.h</text>
</g>
<!-- Node9&#45;&gt;Node10 -->
<g id="edge22" class="edge"><title>Node9&#45;&gt;Node10</title>
<path fill="none" stroke="midnightblue" d="M588.281,-56.4435C562.152,-47.3986 520.741,-33.064 491.424,-22.9158"/>
<polygon fill="midnightblue" stroke="midnightblue" points="492.198,-19.4801 481.603,-19.5164 489.908,-26.0951 492.198,-19.4801"/>
</g>
<!-- Node11 -->
<g id="node23" class="node"><title>Node11</title>
<polygon fill="none" stroke="#bfbfbf" points="547.5,-0.5 547.5,-19.5 678.5,-19.5 678.5,-0.5 547.5,-0.5"/>
<text text-anchor="middle" x="613" y="-7.5" font-family="Helvetica,sans-Serif" font-size="10.00">freeradius&#45;devel/modpriv.h</text>
</g>
<!-- Node9&#45;&gt;Node11 -->
<g id="edge24" class="edge"><title>Node9&#45;&gt;Node11</title>
<path fill="none" stroke="midnightblue" d="M613,-56.083C613,-49.0059 613,-38.8611 613,-29.9865"/>
<polygon fill="midnightblue" stroke="midnightblue" points="616.5,-29.751 613,-19.7511 609.5,-29.7511 616.5,-29.751"/>
</g>
<!-- Node12 -->
<g id="node25" class="node"><title>Node12</title>
<polygon fill="none" stroke="#bfbfbf" points="697,-0.5 697,-19.5 741,-19.5 741,-0.5 697,-0.5"/>
<text text-anchor="middle" x="719" y="-7.5" font-family="Helvetica,sans-Serif" font-size="10.00">conf.h</text>
</g>
<!-- Node9&#45;&gt;Node12 -->
<g id="edge26" class="edge"><title>Node9&#45;&gt;Node12</title>
<path fill="none" stroke="midnightblue" d="M630.031,-56.324C647.03,-47.6641 673.376,-34.2424 692.993,-24.249"/>
<polygon fill="midnightblue" stroke="midnightblue" points="694.69,-27.3125 702.012,-19.6545 691.512,-21.0752 694.69,-27.3125"/>
</g>
</g>
</svg>
        <g id="navigator" transform="translate(0 0)" fill="#404254">
                <rect fill="#f2f5e9" fill-opacity="0.5" stroke="#606060" stroke-width=".5" x="0" y="0" width="60" height="60"/>
                <use id="zoomplus" xlink:href="#zoomPlus" x="17" y="9" onmousedown="handleZoom(evt,'in')"/>
                <use id="zoomminus" xlink:href="#zoomMin" x="42" y="9" onmousedown="handleZoom(evt,'out')"/>
                <use id="reset" xlink:href="#resetDef" x="30" y="36" onmousedown="handleReset()"/>
                <g id="arrowUp" xlink:href="#dirArrow" transform="translate(30 24)" onmousedown="handlePan(0,-1)">
                  <use xlink:href="#rim" fill="#404040">
                        <set attributeName="fill" to="#808080" begin="arrowUp.mouseover" end="arrowUp.mouseout"/>
                  </use>
                  <path fill="none" stroke="white" stroke-width="1.5" d="M0,-3.0v7 M-2.5,-0.5L0,-3.0L2.5,-0.5"/>
                </g>
                <g id="arrowRight" xlink:href="#dirArrow" transform="rotate(90) translate(36 -43)" onmousedown="handlePan(1,0)">
                  <use xlink:href="#rim" fill="#404040">
                        <set attributeName="fill" to="#808080" begin="arrowRight.mouseover" end="arrowRight.mouseout"/>
                  </use>
                  <path fill="none" stroke="white" stroke-width="1.5" d="M0,-3.0v7 M-2.5,-0.5L0,-3.0L2.5,-0.5"/>
                </g>
                <g id="arrowDown" xlink:href="#dirArrow" transform="rotate(180) translate(-30 -48)" onmousedown="handlePan(0,1)">
                  <use xlink:href="#rim" fill="#404040">
                        <set attributeName="fill" to="#808080" begin="arrowDown.mouseover" end="arrowDown.mouseout"/>
                  </use>
                  <path fill="none" stroke="white" stroke-width="1.5" d="M0,-3.0v7 M-2.5,-0.5L0,-3.0L2.5,-0.5"/>
                </g>
                <g id="arrowLeft" xlink:href="#dirArrow" transform="rotate(270) translate(-36 17)" onmousedown="handlePan(-1,0)">
                  <use xlink:href="#rim" fill="#404040">
                        <set attributeName="fill" to="#808080" begin="arrowLeft.mouseover" end="arrowLeft.mouseout"/>
                  </use>
                  <path fill="none" stroke="white" stroke-width="1.5" d="M0,-3.0v7 M-2.5,-0.5L0,-3.0L2.5,-0.5"/>
                </g>
        </g>
</svg>
