<?xml version="1.0" encoding="UTF-8" standalone="no"?>
<!DOCTYPE svg PUBLIC "-//W3C//DTD SVG 1.1//EN"
 "http://www.w3.org/Graphics/SVG/1.1/DTD/svg11.dtd">
<!-- Generated by graphviz version 2.28.0 (20111211.2114)
 -->
<!-- Title: G Pages: 1 -->
<!--zoomable-->
<svg id="main" version="1.1" xmlns="http://www.w3.org/2000/svg" xmlns:xlink="http://www.w3.org/1999/xlink" xml:space="preserve" onload="init(evt)">
        <defs>
                <circle id="rim" cx="0" cy="0" r="7"/>
                <circle id="rim2" cx="0" cy="0" r="3.5"/>
                <g id="zoomPlus">
                        <use xlink:href="#rim" fill="#404040">
                                <set attributeName="fill" to="#808080" begin="zoomplus.mouseover" end="zoomplus.mouseout"/>
                        </use>
                        <path d="M-4,0h8M0,-4v8" fill="none" stroke="white" stroke-width="1.5" pointer-events="none"/>
                </g>
                <g id="zoomMin">
                        <use xlink:href="#rim" fill="#404040">
                                <set attributeName="fill" to="#808080" begin="zoomminus.mouseover" end="zoomminus.mouseout"/>
                        </use>
                        <path d="M-4,0h8" fill="none" stroke="white" stroke-width="1.5" pointer-events="none"/>
                </g>
                <g id="dirArrow">
                        <path fill="none" stroke="white" stroke-width="1.5" d="M0,-3.0v7 M-2.5,-0.5L0,-3.0L2.5,-0.5"/>
                </g>
               <g id="resetDef">
                       <use xlink:href="#rim2" fill="#404040">
                               <set attributeName="fill" to="#808080" begin="reset.mouseover" end="reset.mouseout"/>
                       </use>
               </g>
        </defs>

<script type="text/javascript">
var viewWidth = 629;
var viewHeight = 140;
var sectionId = 'dynsection-0';
</script>
<script xlink:href="svgpan.js"/>
<svg id="graph" class="graph">
<g id="viewport">
<title>G</title>
<!-- Node1 -->
<g id="node1" class="node"><title>Node1</title>
<polygon fill="#bfbfbf" stroke="black" points="62.7524,-112.5 62.7524,-131.5 457.752,-131.5 457.752,-112.5 62.7524,-112.5"/>
<text text-anchor="middle" x="260.252" y="-119.5" font-family="Helvetica,sans-Serif" font-size="10.00">/home/pjm3/freeradius&#45;server/src/modules/rlm_sql/drivers/rlm_sql_freetds/sql_freetds.c</text>
</g>
<!-- Node2 -->
<g id="node3" class="node"><title>Node2</title>
<polygon fill="none" stroke="#bfbfbf" points="28.2524,-0.5 28.2524,-19.5 146.252,-19.5 146.252,-0.5 28.2524,-0.5"/>
<text text-anchor="middle" x="87.2524" y="-7.5" font-family="Helvetica,sans-Serif" font-size="10.00">freeradius&#45;devel/ident.h</text>
</g>
<!-- Node1&#45;&gt;Node2 -->
<g id="edge2" class="edge"><title>Node1&#45;&gt;Node2</title>
<path fill="none" stroke="midnightblue" d="M123.284,-112.483C71.5851,-106.162 21.3248,-95.1569 5.25244,-76 -12.9218,-54.3377 21.3196,-34.9877 50.9556,-23.1466"/>
<polygon fill="midnightblue" stroke="midnightblue" points="52.2432,-26.4015 60.3436,-19.5725 49.7526,-19.8595 52.2432,-26.4015"/>
</g>
<!-- Node3 -->
<g id="node5" class="node"><title>Node3</title>
<polygon fill="none" stroke="#bfbfbf" points="14.2524,-56.5 14.2524,-75.5 142.252,-75.5 142.252,-56.5 14.2524,-56.5"/>
<text text-anchor="middle" x="78.2524" y="-63.5" font-family="Helvetica,sans-Serif" font-size="10.00">freeradius&#45;devel/radiusd.h</text>
</g>
<!-- Node1&#45;&gt;Node3 -->
<g id="edge4" class="edge"><title>Node1&#45;&gt;Node3</title>
<path fill="none" stroke="midnightblue" d="M231.414,-112.444C200.397,-103.241 150.923,-88.5617 116.634,-78.3879"/>
<polygon fill="midnightblue" stroke="midnightblue" points="117.538,-75.0055 106.956,-75.5164 115.547,-81.7164 117.538,-75.0055"/>
</g>
<!-- Node4 -->
<g id="node7" class="node"><title>Node4</title>
<polygon fill="none" stroke="#bfbfbf" points="160.752,-56.5 160.752,-75.5 211.752,-75.5 211.752,-56.5 160.752,-56.5"/>
<text text-anchor="middle" x="186.252" y="-63.5" font-family="Helvetica,sans-Serif" font-size="10.00">sybdb.h</text>
</g>
<!-- Node1&#45;&gt;Node4 -->
<g id="edge6" class="edge"><title>Node1&#45;&gt;Node4</title>
<path fill="none" stroke="midnightblue" d="M248.363,-112.324C237.102,-104.107 219.966,-91.6017 206.543,-81.8069"/>
<polygon fill="midnightblue" stroke="midnightblue" points="208.499,-78.9014 198.358,-75.8339 204.373,-84.5559 208.499,-78.9014"/>
</g>
<!-- Node5 -->
<g id="node9" class="node"><title>Node5</title>
<polygon fill="none" stroke="#bfbfbf" points="230.252,-56.5 230.252,-75.5 290.252,-75.5 290.252,-56.5 230.252,-56.5"/>
<text text-anchor="middle" x="260.252" y="-63.5" font-family="Helvetica,sans-Serif" font-size="10.00">sybfront.h</text>
</g>
<!-- Node1&#45;&gt;Node5 -->
<g id="edge8" class="edge"><title>Node1&#45;&gt;Node5</title>
<path fill="none" stroke="midnightblue" d="M260.252,-112.083C260.252,-105.006 260.252,-94.8611 260.252,-85.9865"/>
<polygon fill="midnightblue" stroke="midnightblue" points="263.753,-85.751 260.252,-75.7511 256.753,-85.7511 263.753,-85.751"/>
</g>
<!-- Node6 -->
<g id="node11" class="node"><title>Node6</title>
<polygon fill="none" stroke="#bfbfbf" points="308.252,-56.5 308.252,-75.5 370.252,-75.5 370.252,-56.5 308.252,-56.5"/>
<text text-anchor="middle" x="339.252" y="-63.5" font-family="Helvetica,sans-Serif" font-size="10.00">sys/time.h</text>
</g>
<!-- Node1&#45;&gt;Node6 -->
<g id="edge10" class="edge"><title>Node1&#45;&gt;Node6</title>
<path fill="none" stroke="midnightblue" d="M272.945,-112.324C285.154,-103.979 303.831,-91.2122 318.255,-81.3524"/>
<polygon fill="midnightblue" stroke="midnightblue" points="320.311,-84.1871 326.591,-75.6545 316.36,-78.4082 320.311,-84.1871"/>
</g>
<!-- Node7 -->
<g id="node13" class="node"><title>Node7</title>
<polygon fill="none" stroke="#bfbfbf" points="388.252,-56.5 388.252,-75.5 448.252,-75.5 448.252,-56.5 388.252,-56.5"/>
<text text-anchor="middle" x="418.252" y="-63.5" font-family="Helvetica,sans-Serif" font-size="10.00">sys/stat.h</text>
</g>
<!-- Node1&#45;&gt;Node7 -->
<g id="edge12" class="edge"><title>Node1&#45;&gt;Node7</title>
<path fill="none" stroke="midnightblue" d="M285.288,-112.444C311.868,-103.359 354.061,-88.9388 383.776,-78.7831"/>
<polygon fill="midnightblue" stroke="midnightblue" points="385.003,-82.0625 393.334,-75.5164 382.739,-75.4386 385.003,-82.0625"/>
</g>
<!-- Node8 -->
<g id="node15" class="node"><title>Node8</title>
<a xlink:href="rlm__sql_8h.html" target="_top" xlink:title="rlm_sql.h">
<polygon fill="none" stroke="black" points="466.252,-56.5 466.252,-75.5 522.252,-75.5 522.252,-56.5 466.252,-56.5"/>
<text text-anchor="middle" x="494.252" y="-63.5" font-family="Helvetica,sans-Serif" font-size="10.00">rlm_sql.h</text>
</a>
</g>
<!-- Node1&#45;&gt;Node8 -->
<g id="edge14" class="edge"><title>Node1&#45;&gt;Node8</title>
<path fill="none" stroke="midnightblue" d="M297.845,-112.45C337.314,-103.454 401.171,-88.8457 456.252,-76 456.351,-75.9769 456.451,-75.9538 456.55,-75.9306"/>
<polygon fill="midnightblue" stroke="midnightblue" points="457.099,-79.3968 466.036,-73.7057 455.501,-72.5818 457.099,-79.3968"/>
</g>
<!-- Node8&#45;&gt;Node2 -->
<g id="edge16" class="edge"><title>Node8&#45;&gt;Node2</title>
<path fill="none" stroke="midnightblue" d="M466.104,-57.9651C462.794,-57.2473 459.456,-56.5729 456.252,-56 352.497,-37.446 230.944,-24.2507 156.53,-17.1282"/>
<polygon fill="midnightblue" stroke="midnightblue" points="156.635,-13.6226 146.35,-16.1636 155.975,-20.5913 156.635,-13.6226"/>
</g>
<!-- Node9 -->
<g id="node18" class="node"><title>Node9</title>
<polygon fill="none" stroke="#bfbfbf" points="266.252,-0.5 266.252,-19.5 410.252,-19.5 410.252,-0.5 266.252,-0.5"/>
<text text-anchor="middle" x="338.252" y="-7.5" font-family="Helvetica,sans-Serif" font-size="10.00">freeradius&#45;devel/connection.h</text>
</g>
<!-- Node8&#45;&gt;Node9 -->
<g id="edge18" class="edge"><title>Node8&#45;&gt;Node9</title>
<path fill="none" stroke="midnightblue" d="M469.534,-56.4435C443.404,-47.3986 401.993,-33.064 372.676,-22.9158"/>
<polygon fill="midnightblue" stroke="midnightblue" points="373.45,-19.4801 362.855,-19.5164 371.16,-26.0951 373.45,-19.4801"/>
</g>
<!-- Node10 -->
<g id="node20" class="node"><title>Node10</title>
<polygon fill="none" stroke="#bfbfbf" points="428.752,-0.5 428.752,-19.5 559.752,-19.5 559.752,-0.5 428.752,-0.5"/>
<text text-anchor="middle" x="494.252" y="-7.5" font-family="Helvetica,sans-Serif" font-size="10.00">freeradius&#45;devel/modpriv.h</text>
</g>
<!-- Node8&#45;&gt;Node10 -->
<g id="edge20" class="edge"><title>Node8&#45;&gt;Node10</title>
<path fill="none" stroke="midnightblue" d="M494.252,-56.083C494.252,-49.0059 494.252,-38.8611 494.252,-29.9865"/>
<polygon fill="midnightblue" stroke="midnightblue" points="497.753,-29.751 494.252,-19.7511 490.753,-29.7511 497.753,-29.751"/>
</g>
<!-- Node11 -->
<g id="node22" class="node"><title>Node11</title>
<polygon fill="none" stroke="#bfbfbf" points="578.252,-0.5 578.252,-19.5 622.252,-19.5 622.252,-0.5 578.252,-0.5"/>
<text text-anchor="middle" x="600.252" y="-7.5" font-family="Helvetica,sans-Serif" font-size="10.00">conf.h</text>
</g>
<!-- Node8&#45;&gt;Node11 -->
<g id="edge22" class="edge"><title>Node8&#45;&gt;Node11</title>
<path fill="none" stroke="midnightblue" d="M511.283,-56.324C528.282,-47.6641 554.629,-34.2424 574.245,-24.249"/>
<polygon fill="midnightblue" stroke="midnightblue" points="575.942,-27.3125 583.264,-19.6545 572.765,-21.0752 575.942,-27.3125"/>
</g>
</g>
</svg>
        <g id="navigator" transform="translate(0 0)" fill="#404254">
                <rect fill="#f2f5e9" fill-opacity="0.5" stroke="#606060" stroke-width=".5" x="0" y="0" width="60" height="60"/>
                <use id="zoomplus" xlink:href="#zoomPlus" x="17" y="9" onmousedown="handleZoom(evt,'in')"/>
                <use id="zoomminus" xlink:href="#zoomMin" x="42" y="9" onmousedown="handleZoom(evt,'out')"/>
                <use id="reset" xlink:href="#resetDef" x="30" y="36" onmousedown="handleReset()"/>
                <g id="arrowUp" xlink:href="#dirArrow" transform="translate(30 24)" onmousedown="handlePan(0,-1)">
                  <use xlink:href="#rim" fill="#404040">
                        <set attributeName="fill" to="#808080" begin="arrowUp.mouseover" end="arrowUp.mouseout"/>
                  </use>
                  <path fill="none" stroke="white" stroke-width="1.5" d="M0,-3.0v7 M-2.5,-0.5L0,-3.0L2.5,-0.5"/>
                </g>
                <g id="arrowRight" xlink:href="#dirArrow" transform="rotate(90) translate(36 -43)" onmousedown="handlePan(1,0)">
                  <use xlink:href="#rim" fill="#404040">
                        <set attributeName="fill" to="#808080" begin="arrowRight.mouseover" end="arrowRight.mouseout"/>
                  </use>
                  <path fill="none" stroke="white" stroke-width="1.5" d="M0,-3.0v7 M-2.5,-0.5L0,-3.0L2.5,-0.5"/>
                </g>
                <g id="arrowDown" xlink:href="#dirArrow" transform="rotate(180) translate(-30 -48)" onmousedown="handlePan(0,1)">
                  <use xlink:href="#rim" fill="#404040">
                        <set attributeName="fill" to="#808080" begin="arrowDown.mouseover" end="arrowDown.mouseout"/>
                  </use>
                  <path fill="none" stroke="white" stroke-width="1.5" d="M0,-3.0v7 M-2.5,-0.5L0,-3.0L2.5,-0.5"/>
                </g>
                <g id="arrowLeft" xlink:href="#dirArrow" transform="rotate(270) translate(-36 17)" onmousedown="handlePan(-1,0)">
                  <use xlink:href="#rim" fill="#404040">
                        <set attributeName="fill" to="#808080" begin="arrowLeft.mouseover" end="arrowLeft.mouseout"/>
                  </use>
                  <path fill="none" stroke="white" stroke-width="1.5" d="M0,-3.0v7 M-2.5,-0.5L0,-3.0L2.5,-0.5"/>
                </g>
        </g>
</svg>
