<?xml version="1.0" encoding="UTF-8" standalone="no"?>
<!DOCTYPE svg PUBLIC "-//W3C//DTD SVG 1.1//EN"
 "http://www.w3.org/Graphics/SVG/1.1/DTD/svg11.dtd">
<!-- Generated by graphviz version 2.28.0 (20111211.2114)
 -->
<!-- Title: G Pages: 1 -->
<svg width="460pt" height="84pt"
 viewBox="0.00 0.00 460.00 84.00" xmlns="http://www.w3.org/2000/svg" xmlns:xlink="http://www.w3.org/1999/xlink">
<g id="graph1" class="graph" transform="scale(1 1) rotate(0) translate(4 80)">
<title>G</title>
<!-- Node1 -->
<g id="node1" class="node"><title>Node1</title>
<polygon fill="#bfbfbf" stroke="black" points="112,-56.5 112,-75.5 416,-75.5 416,-56.5 112,-56.5"/>
<text text-anchor="middle" x="264" y="-63.5" font-family="Helvetica,sans-Serif" font-size="10.00">/home/pjm3/freeradius&#45;server/src/modules/rlm_smb/std&#45;includes.h</text>
</g>
<!-- Node2 -->
<g id="node3" class="node"><title>Node2</title>
<polygon fill="none" stroke="#bfbfbf" points="0,-0.5 0,-19.5 118,-19.5 118,-0.5 0,-0.5"/>
<text text-anchor="middle" x="59" y="-7.5" font-family="Helvetica,sans-Serif" font-size="10.00">freeradius&#45;devel/ident.h</text>
</g>
<!-- Node1&#45;&gt;Node2 -->
<g id="edge2" class="edge"><title>Node1&#45;&gt;Node2</title>
<path fill="none" stroke="midnightblue" d="M231.517,-56.4435C196.28,-47.1616 139.896,-32.3093 101.241,-22.127"/>
<polygon fill="midnightblue" stroke="midnightblue" points="101.893,-18.6792 91.3309,-19.5164 100.109,-25.4483 101.893,-18.6792"/>
</g>
<!-- Node3 -->
<g id="node5" class="node"><title>Node3</title>
<polygon fill="none" stroke="#bfbfbf" points="136.5,-0.5 136.5,-19.5 187.5,-19.5 187.5,-0.5 136.5,-0.5"/>
<text text-anchor="middle" x="162" y="-7.5" font-family="Helvetica,sans-Serif" font-size="10.00">config.h</text>
</g>
<!-- Node1&#45;&gt;Node3 -->
<g id="edge4" class="edge"><title>Node1&#45;&gt;Node3</title>
<path fill="none" stroke="midnightblue" d="M247.612,-56.324C231.329,-47.7034 206.133,-34.3643 187.284,-24.3855"/>
<polygon fill="midnightblue" stroke="midnightblue" points="188.823,-21.2402 178.347,-19.6545 185.548,-27.4267 188.823,-21.2402"/>
</g>
<!-- Node4 -->
<g id="node7" class="node"><title>Node4</title>
<polygon fill="none" stroke="#bfbfbf" points="206,-0.5 206,-19.5 256,-19.5 256,-0.5 206,-0.5"/>
<text text-anchor="middle" x="231" y="-7.5" font-family="Helvetica,sans-Serif" font-size="10.00">signal.h</text>
</g>
<!-- Node1&#45;&gt;Node4 -->
<g id="edge6" class="edge"><title>Node1&#45;&gt;Node4</title>
<path fill="none" stroke="midnightblue" d="M258.551,-56.083C253.986,-48.6127 247.332,-37.7244 241.707,-28.5199"/>
<polygon fill="midnightblue" stroke="midnightblue" points="244.549,-26.4588 236.348,-19.7511 238.576,-30.109 244.549,-26.4588"/>
</g>
<!-- Node5 -->
<g id="node9" class="node"><title>Node5</title>
<polygon fill="none" stroke="#bfbfbf" points="274.5,-0.5 274.5,-19.5 321.5,-19.5 321.5,-0.5 274.5,-0.5"/>
<text text-anchor="middle" x="298" y="-7.5" font-family="Helvetica,sans-Serif" font-size="10.00">errno.h</text>
</g>
<!-- Node1&#45;&gt;Node5 -->
<g id="edge8" class="edge"><title>Node1&#45;&gt;Node5</title>
<path fill="none" stroke="midnightblue" d="M269.614,-56.083C274.367,-48.5341 281.318,-37.4948 287.152,-28.2298"/>
<polygon fill="midnightblue" stroke="midnightblue" points="290.124,-30.0783 292.49,-19.7511 284.2,-26.3486 290.124,-30.0783"/>
</g>
<!-- Node6 -->
<g id="node11" class="node"><title>Node6</title>
<polygon fill="none" stroke="#bfbfbf" points="340,-0.5 340,-19.5 386,-19.5 386,-0.5 340,-0.5"/>
<text text-anchor="middle" x="363" y="-7.5" font-family="Helvetica,sans-Serif" font-size="10.00">stdio.h</text>
</g>
<!-- Node1&#45;&gt;Node6 -->
<g id="edge10" class="edge"><title>Node1&#45;&gt;Node6</title>
<path fill="none" stroke="midnightblue" d="M279.906,-56.324C295.638,-47.7428 319.942,-34.486 338.209,-24.5224"/>
<polygon fill="midnightblue" stroke="midnightblue" points="340.03,-27.5157 347.133,-19.6545 336.678,-21.3704 340.03,-27.5157"/>
</g>
<!-- Node7 -->
<g id="node13" class="node"><title>Node7</title>
<polygon fill="none" stroke="#bfbfbf" points="404,-0.5 404,-19.5 452,-19.5 452,-0.5 404,-0.5"/>
<text text-anchor="middle" x="428" y="-7.5" font-family="Helvetica,sans-Serif" font-size="10.00">stdlib.h</text>
</g>
<!-- Node1&#45;&gt;Node7 -->
<g id="edge12" class="edge"><title>Node1&#45;&gt;Node7</title>
<path fill="none" stroke="midnightblue" d="M289.986,-56.4435C318.185,-47.1586 363.312,-32.2996 394.237,-22.117"/>
<polygon fill="midnightblue" stroke="midnightblue" points="395.335,-25.4403 403.739,-18.9883 393.146,-18.7915 395.335,-25.4403"/>
</g>
</g>
</svg>
