<?xml version="1.0" encoding="UTF-8" standalone="no"?>
<!DOCTYPE svg PUBLIC "-//W3C//DTD SVG 1.1//EN"
 "http://www.w3.org/Graphics/SVG/1.1/DTD/svg11.dtd">
<!-- Generated by graphviz version 2.28.0 (20111211.2114)
 -->
<!-- Title: G Pages: 1 -->
<svg width="445pt" height="300pt"
 viewBox="0.00 0.00 445.00 300.50" xmlns="http://www.w3.org/2000/svg" xmlns:xlink="http://www.w3.org/1999/xlink">
<g id="graph1" class="graph" transform="scale(1 1) rotate(0) translate(4 296.5)">
<title>G</title>
<!-- Node1 -->
<g id="node1" class="node"><title>Node1</title>
<polygon fill="#bfbfbf" stroke="black" points="133.5,-0.5 133.5,-19.5 192.5,-19.5 192.5,-0.5 133.5,-0.5"/>
<text text-anchor="middle" x="163" y="-7.5" font-family="Helvetica,sans-Serif" font-size="10.00">modgroup</text>
</g>
<!-- Node2 -->
<g id="node2" class="node"><title>Node2</title>
<a xlink:href="structmodcallable.html" target="_top" xlink:title="modcallable">
<polygon fill="none" stroke="black" points="0,-91.5 0,-110.5 68,-110.5 68,-91.5 0,-91.5"/>
<text text-anchor="middle" x="34" y="-98.5" font-family="Helvetica,sans-Serif" font-size="10.00">modcallable</text>
</a>
</g>
<!-- Node2&#45;&gt;Node1 -->
<g id="edge2" class="edge"><title>Node2&#45;&gt;Node1</title>
<path fill="none" stroke="#9a32cd" stroke-dasharray="5,2" d="M54.7341,-85.6951C81.7837,-67.033 128.271,-34.9602 150.479,-19.6386"/>
<polygon fill="#9a32cd" stroke="#9a32cd" points="52.6126,-82.9066 46.3691,-91.4663 56.5878,-88.6683 52.6126,-82.9066"/>
<text text-anchor="middle" x="139" y="-58" font-family="Helvetica,sans-Serif" font-size="10.00"> mc</text>
<text text-anchor="middle" x="139" y="-47" font-family="Helvetica,sans-Serif" font-size="10.00">children</text>
</g>
<!-- Node2&#45;&gt;Node2 -->
<g id="edge4" class="edge"><title>Node2&#45;&gt;Node2</title>
<path fill="none" stroke="#9a32cd" stroke-dasharray="5,2" d="M78.1476,-108.215C82.9245,-106.83 86,-104.425 86,-101 86,-95.5195 78.1268,-92.6508 68.0085,-92.394"/>
<polygon fill="#9a32cd" stroke="#9a32cd" points="77.44,-104.779 68.0085,-109.606 78.3914,-111.714 77.44,-104.779"/>
<text text-anchor="middle" x="100" y="-104" font-family="Helvetica,sans-Serif" font-size="10.00"> next</text>
<text text-anchor="middle" x="100" y="-93" font-family="Helvetica,sans-Serif" font-size="10.00">parent</text>
</g>
<!-- Node3 -->
<g id="node5" class="node"><title>Node3</title>
<a xlink:href="structvalue__pair.html" target="_top" xlink:title="value_pair">
<polygon fill="none" stroke="black" points="132.5,-91.5 132.5,-110.5 193.5,-110.5 193.5,-91.5 132.5,-91.5"/>
<text text-anchor="middle" x="163" y="-98.5" font-family="Helvetica,sans-Serif" font-size="10.00">value_pair</text>
</a>
</g>
<!-- Node3&#45;&gt;Node1 -->
<g id="edge6" class="edge"><title>Node3&#45;&gt;Node1</title>
<path fill="none" stroke="#9a32cd" stroke-dasharray="5,2" d="M163,-81.3494C163,-62.3833 163,-33.8277 163,-19.6386"/>
<polygon fill="#9a32cd" stroke="#9a32cd" points="159.5,-81.4663 163,-91.4663 166.5,-81.4663 159.5,-81.4663"/>
<text text-anchor="middle" x="172.5" y="-52.5" font-family="Helvetica,sans-Serif" font-size="10.00"> vps</text>
</g>
<!-- Node3&#45;&gt;Node3 -->
<g id="edge12" class="edge"><title>Node3&#45;&gt;Node3</title>
<path fill="none" stroke="#9a32cd" stroke-dasharray="5,2" d="M203.871,-108.177C208.212,-106.787 211,-104.394 211,-101 211,-95.4297 203.492,-92.5575 193.931,-92.3834"/>
<polygon fill="#9a32cd" stroke="#9a32cd" points="203.327,-104.72 193.931,-109.617 204.33,-111.647 203.327,-104.72"/>
<text text-anchor="middle" x="222" y="-98.5" font-family="Helvetica,sans-Serif" font-size="10.00"> next</text>
</g>
<!-- Node4 -->
<g id="node7" class="node"><title>Node4</title>
<a xlink:href="unionvalue__pair__data.html" target="_top" xlink:title="value_pair_data">
<polygon fill="none" stroke="black" points="37.5,-192.5 37.5,-211.5 122.5,-211.5 122.5,-192.5 37.5,-192.5"/>
<text text-anchor="middle" x="80" y="-199.5" font-family="Helvetica,sans-Serif" font-size="10.00">value_pair_data</text>
</a>
</g>
<!-- Node4&#45;&gt;Node3 -->
<g id="edge8" class="edge"><title>Node4&#45;&gt;Node3</title>
<path fill="none" stroke="#9a32cd" stroke-dasharray="5,2" d="M93.8235,-184.218C105.735,-169.793 123.42,-148.46 139,-130 144.451,-123.542 150.661,-116.299 155.399,-110.798"/>
<polygon fill="#9a32cd" stroke="#9a32cd" points="90.8868,-182.278 87.2236,-192.22 96.2868,-186.733 90.8868,-182.278"/>
<text text-anchor="middle" x="150" y="-149.5" font-family="Helvetica,sans-Serif" font-size="10.00"> data</text>
</g>
<!-- Node5 -->
<g id="node9" class="node"><title>Node5</title>
<a xlink:href="structin6__addr.html" target="_top" xlink:title="in6_addr">
<polygon fill="none" stroke="black" points="53.5,-266.5 53.5,-285.5 106.5,-285.5 106.5,-266.5 53.5,-266.5"/>
<text text-anchor="middle" x="80" y="-273.5" font-family="Helvetica,sans-Serif" font-size="10.00">in6_addr</text>
</a>
</g>
<!-- Node5&#45;&gt;Node4 -->
<g id="edge10" class="edge"><title>Node5&#45;&gt;Node4</title>
<path fill="none" stroke="#9a32cd" stroke-dasharray="5,2" d="M80,-256.156C80,-241.712 80,-222.459 80,-211.531"/>
<polygon fill="#9a32cd" stroke="#9a32cd" points="76.5001,-256.458 80,-266.458 83.5001,-256.458 76.5001,-256.458"/>
<text text-anchor="middle" x="100" y="-233.5" font-family="Helvetica,sans-Serif" font-size="10.00"> ipv6addr</text>
</g>
<!-- Node6 -->
<g id="node12" class="node"><title>Node6</title>
<a xlink:href="structattr__flags.html" target="_top" xlink:title="attr_flags">
<polygon fill="none" stroke="black" points="140.5,-192.5 140.5,-211.5 197.5,-211.5 197.5,-192.5 140.5,-192.5"/>
<text text-anchor="middle" x="169" y="-199.5" font-family="Helvetica,sans-Serif" font-size="10.00">attr_flags</text>
</a>
</g>
<!-- Node6&#45;&gt;Node3 -->
<g id="edge14" class="edge"><title>Node6&#45;&gt;Node3</title>
<path fill="none" stroke="#9a32cd" stroke-dasharray="5,2" d="M167.85,-182.029C166.548,-160.543 164.483,-126.467 163.523,-110.625"/>
<polygon fill="#9a32cd" stroke="#9a32cd" points="164.369,-182.444 168.468,-192.214 171.356,-182.021 164.369,-182.444"/>
<text text-anchor="middle" x="180.5" y="-149.5" font-family="Helvetica,sans-Serif" font-size="10.00"> flags</text>
</g>
<!-- Node7 -->
<g id="node14" class="node"><title>Node7</title>
<a xlink:href="structconf__part.html" target="_top" xlink:title="conf_part">
<polygon fill="none" stroke="black" points="251.5,-91.5 251.5,-110.5 308.5,-110.5 308.5,-91.5 251.5,-91.5"/>
<text text-anchor="middle" x="280" y="-98.5" font-family="Helvetica,sans-Serif" font-size="10.00">conf_part</text>
</a>
</g>
<!-- Node7&#45;&gt;Node1 -->
<g id="edge16" class="edge"><title>Node7&#45;&gt;Node1</title>
<path fill="none" stroke="#9a32cd" stroke-dasharray="5,2" d="M260.551,-85.2052C235.93,-66.4765 194.323,-34.827 174.356,-19.6386"/>
<polygon fill="#9a32cd" stroke="#9a32cd" points="258.704,-88.1976 268.782,-91.4663 262.942,-82.6263 258.704,-88.1976"/>
<text text-anchor="middle" x="250" y="-52.5" font-family="Helvetica,sans-Serif" font-size="10.00"> cs</text>
</g>
<!-- Node7&#45;&gt;Node7 -->
<g id="edge18" class="edge"><title>Node7&#45;&gt;Node7</title>
<path fill="none" stroke="#9a32cd" stroke-dasharray="5,2" d="M318.76,-108.309C323.153,-106.94 326,-104.504 326,-101 326,-95.25 318.333,-92.375 308.75,-92.375"/>
<polygon fill="#9a32cd" stroke="#9a32cd" points="318.208,-104.851 308.75,-109.625 319.121,-111.792 318.208,-104.851"/>
<text text-anchor="middle" x="346.5" y="-98.5" font-family="Helvetica,sans-Serif" font-size="10.00"> template</text>
</g>
<!-- Node8 -->
<g id="node17" class="node"><title>Node8</title>
<a xlink:href="structconf__item.html" target="_top" xlink:title="conf_item">
<polygon fill="none" stroke="black" points="267.5,-0.5 267.5,-19.5 326.5,-19.5 326.5,-0.5 267.5,-0.5"/>
<text text-anchor="middle" x="297" y="-7.5" font-family="Helvetica,sans-Serif" font-size="10.00">conf_item</text>
</a>
</g>
<!-- Node7&#45;&gt;Node8 -->
<g id="edge22" class="edge"><title>Node7&#45;&gt;Node8</title>
<path fill="none" stroke="#9a32cd" stroke-dasharray="5,2" d="M270.605,-82.1337C265.24,-69.4007 260.716,-52.1108 267,-38 270.307,-30.5749 276.777,-24.3351 282.864,-19.7309"/>
<polygon fill="#9a32cd" stroke="#9a32cd" points="267.461,-83.6733 274.897,-91.2207 273.791,-80.6837 267.461,-83.6733"/>
<text text-anchor="middle" x="282.5" y="-52.5" font-family="Helvetica,sans-Serif" font-size="10.00"> parent</text>
</g>
<!-- Node8&#45;&gt;Node7 -->
<g id="edge20" class="edge"><title>Node8&#45;&gt;Node7</title>
<path fill="none" stroke="#9a32cd" stroke-dasharray="5,2" d="M302.363,-29.5652C305.01,-41.9128 306.733,-58.3145 302,-72 299.494,-79.2447 294.254,-86.0405 289.517,-91.1224"/>
<polygon fill="#9a32cd" stroke="#9a32cd" points="305.678,-28.3955 299.831,-19.5596 298.892,-30.1127 305.678,-28.3955"/>
<text text-anchor="middle" x="322" y="-63.5" font-family="Helvetica,sans-Serif" font-size="10.00"> tail</text>
<text text-anchor="middle" x="322" y="-52.5" font-family="Helvetica,sans-Serif" font-size="10.00">item</text>
<text text-anchor="middle" x="322" y="-41.5" font-family="Helvetica,sans-Serif" font-size="10.00">children</text>
</g>
<!-- Node8&#45;&gt;Node8 -->
<g id="edge24" class="edge"><title>Node8&#45;&gt;Node8</title>
<path fill="none" stroke="#9a32cd" stroke-dasharray="5,2" d="M336.812,-16.929C341.181,-15.6089 344,-13.2992 344,-10 344,-4.58594 336.41,-1.83661 326.833,-1.75201"/>
<polygon fill="#9a32cd" stroke="#9a32cd" points="336.288,-13.4678 326.833,-18.248 337.205,-20.4075 336.288,-13.4678"/>
<text text-anchor="middle" x="355" y="-7.5" font-family="Helvetica,sans-Serif" font-size="10.00"> next</text>
</g>
<!-- Node9 -->
<g id="node21" class="node"><title>Node9</title>
<a xlink:href="structCONF__PARSER.html" target="_top" xlink:title="CONF_PARSER">
<polygon fill="none" stroke="black" points="228,-192.5 228,-211.5 320,-211.5 320,-192.5 228,-192.5"/>
<text text-anchor="middle" x="274" y="-199.5" font-family="Helvetica,sans-Serif" font-size="10.00">CONF_PARSER</text>
</a>
</g>
<!-- Node9&#45;&gt;Node7 -->
<g id="edge26" class="edge"><title>Node9&#45;&gt;Node7</title>
<path fill="none" stroke="#9a32cd" stroke-dasharray="5,2" d="M275.15,-182.029C276.452,-160.543 278.517,-126.467 279.477,-110.625"/>
<polygon fill="#9a32cd" stroke="#9a32cd" points="271.644,-182.021 274.532,-192.214 278.631,-182.444 271.644,-182.021"/>
<text text-anchor="middle" x="300.5" y="-149.5" font-family="Helvetica,sans-Serif" font-size="10.00"> variables</text>
</g>
<!-- Node10 -->
<g id="node23" class="node"><title>Node10</title>
<a xlink:href="structrbtree__t.html" target="_top" xlink:title="rbtree_t">
<polygon fill="none" stroke="black" points="338,-192.5 338,-211.5 388,-211.5 388,-192.5 338,-192.5"/>
<text text-anchor="middle" x="363" y="-199.5" font-family="Helvetica,sans-Serif" font-size="10.00">rbtree_t</text>
</a>
</g>
<!-- Node10&#45;&gt;Node7 -->
<g id="edge28" class="edge"><title>Node10&#45;&gt;Node7</title>
<path fill="none" stroke="#9a32cd" stroke-dasharray="5,2" d="M356.685,-182.738C350.654,-167.31 340.352,-145.338 326,-130 318.462,-121.945 308.1,-115.366 299.119,-110.615"/>
<polygon fill="#9a32cd" stroke="#9a32cd" points="353.434,-184.039 360.176,-192.212 360.002,-181.618 353.434,-184.039"/>
<text text-anchor="middle" x="380" y="-166" font-family="Helvetica,sans-Serif" font-size="10.00"> data_tree</text>
<text text-anchor="middle" x="380" y="-155" font-family="Helvetica,sans-Serif" font-size="10.00">name2_tree</text>
<text text-anchor="middle" x="380" y="-144" font-family="Helvetica,sans-Serif" font-size="10.00">section_tree</text>
<text text-anchor="middle" x="380" y="-133" font-family="Helvetica,sans-Serif" font-size="10.00">pair_tree</text>
</g>
<!-- Node11 -->
<g id="node25" class="node"><title>Node11</title>
<a xlink:href="structrbnode__t.html" target="_top" xlink:title="rbnode_t">
<polygon fill="none" stroke="black" points="336,-266.5 336,-285.5 390,-285.5 390,-266.5 336,-266.5"/>
<text text-anchor="middle" x="363" y="-273.5" font-family="Helvetica,sans-Serif" font-size="10.00">rbnode_t</text>
</a>
</g>
<!-- Node11&#45;&gt;Node10 -->
<g id="edge30" class="edge"><title>Node11&#45;&gt;Node10</title>
<path fill="none" stroke="#9a32cd" stroke-dasharray="5,2" d="M363,-256.156C363,-241.712 363,-222.459 363,-211.531"/>
<polygon fill="#9a32cd" stroke="#9a32cd" points="359.5,-256.458 363,-266.458 366.5,-256.458 359.5,-256.458"/>
<text text-anchor="middle" x="375.5" y="-233.5" font-family="Helvetica,sans-Serif" font-size="10.00"> Root</text>
</g>
<!-- Node11&#45;&gt;Node11 -->
<g id="edge32" class="edge"><title>Node11&#45;&gt;Node11</title>
<path fill="none" stroke="#9a32cd" stroke-dasharray="5,2" d="M400.51,-282.464C405.038,-281.297 408,-279.142 408,-276 408,-270.844 400.024,-268.346 390.241,-268.507"/>
<polygon fill="#9a32cd" stroke="#9a32cd" points="399.842,-279.014 390.241,-283.493 400.54,-285.979 399.842,-279.014"/>
<text text-anchor="middle" x="422.5" y="-284.5" font-family="Helvetica,sans-Serif" font-size="10.00"> Left</text>
<text text-anchor="middle" x="422.5" y="-273.5" font-family="Helvetica,sans-Serif" font-size="10.00">Right</text>
<text text-anchor="middle" x="422.5" y="-262.5" font-family="Helvetica,sans-Serif" font-size="10.00">Parent</text>
</g>
</g>
</svg>
