<?xml version="1.0" encoding="UTF-8" standalone="no"?>
<!DOCTYPE svg PUBLIC "-//W3C//DTD SVG 1.1//EN"
 "http://www.w3.org/Graphics/SVG/1.1/DTD/svg11.dtd">
<!-- Generated by graphviz version 2.28.0 (20111211.2114)
 -->
<!-- Title: G Pages: 1 -->
<!--zoomable-->
<svg id="main" version="1.1" xmlns="http://www.w3.org/2000/svg" xmlns:xlink="http://www.w3.org/1999/xlink" xml:space="preserve" onload="init(evt)">
        <defs>
                <circle id="rim" cx="0" cy="0" r="7"/>
                <circle id="rim2" cx="0" cy="0" r="3.5"/>
                <g id="zoomPlus">
                        <use xlink:href="#rim" fill="#404040">
                                <set attributeName="fill" to="#808080" begin="zoomplus.mouseover" end="zoomplus.mouseout"/>
                        </use>
                        <path d="M-4,0h8M0,-4v8" fill="none" stroke="white" stroke-width="1.5" pointer-events="none"/>
                </g>
                <g id="zoomMin">
                        <use xlink:href="#rim" fill="#404040">
                                <set attributeName="fill" to="#808080" begin="zoomminus.mouseover" end="zoomminus.mouseout"/>
                        </use>
                        <path d="M-4,0h8" fill="none" stroke="white" stroke-width="1.5" pointer-events="none"/>
                </g>
                <g id="dirArrow">
                        <path fill="none" stroke="white" stroke-width="1.5" d="M0,-3.0v7 M-2.5,-0.5L0,-3.0L2.5,-0.5"/>
                </g>
               <g id="resetDef">
                       <use xlink:href="#rim2" fill="#404040">
                               <set attributeName="fill" to="#808080" begin="reset.mouseover" end="reset.mouseout"/>
                       </use>
               </g>
        </defs>

<script type="text/javascript">
var viewWidth = 1196;
var viewHeight = 823;
var sectionId = 'dynsection-0';
</script>
<script xlink:href="svgpan.js"/>
<svg id="graph" class="graph">
<g id="viewport">
<title>G</title>
<!-- Node1 -->
<g id="node1" class="node"><title>Node1</title>
<polygon fill="#bfbfbf" stroke="black" points="1110.5,-728.5 1110.5,-747.5 1187.5,-747.5 1187.5,-728.5 1110.5,-728.5"/>
<text text-anchor="middle" x="1149" y="-735.5" font-family="Helvetica,sans-Serif" font-size="10.00">policy_state_t</text>
</g>
<!-- Node2 -->
<g id="node2" class="node"><title>Node2</title>
<a xlink:href="structpolicy__item__t.html" target="_top" xlink:title="policy_item_t">
<polygon fill="none" stroke="black" points="964,-766.5 964,-785.5 1038,-785.5 1038,-766.5 964,-766.5"/>
<text text-anchor="middle" x="1001" y="-773.5" font-family="Helvetica,sans-Serif" font-size="10.00">policy_item_t</text>
</a>
</g>
<!-- Node2&#45;&gt;Node1 -->
<g id="edge2" class="edge"><title>Node2&#45;&gt;Node1</title>
<path fill="none" stroke="#9a32cd" stroke-dasharray="5,2" d="M1047.83,-764.072C1068.28,-758.748 1092.06,-752.56 1111.31,-747.549"/>
<polygon fill="#9a32cd" stroke="#9a32cd" points="1046.89,-760.701 1038.09,-766.607 1048.65,-767.475 1046.89,-760.701"/>
<text text-anchor="middle" x="1074" y="-764" font-family="Helvetica,sans-Serif" font-size="10.00"> stack</text>
</g>
<!-- Node2&#45;&gt;Node2 -->
<g id="edge4" class="edge"><title>Node2&#45;&gt;Node2</title>
<path fill="none" stroke="#9a32cd" stroke-dasharray="5,2" d="M988.477,-795.766C989.461,-800.497 993.635,-804 1001,-804 1013.09,-804 1016.58,-794.565 1011.48,-785.757"/>
<polygon fill="#9a32cd" stroke="#9a32cd" points="991.95,-796.255 990.519,-785.757 985.091,-794.856 991.95,-796.255"/>
<text text-anchor="middle" x="1001" y="-807" font-family="Helvetica,sans-Serif" font-size="10.00"> next</text>
</g>
<!-- Node3 -->
<g id="node5" class="node"><title>Node3</title>
<a xlink:href="structauth__req.html" target="_top" xlink:title="auth_req">
<polygon fill="none" stroke="black" points="974,-367.5 974,-386.5 1028,-386.5 1028,-367.5 974,-367.5"/>
<text text-anchor="middle" x="1001" y="-374.5" font-family="Helvetica,sans-Serif" font-size="10.00">auth_req</text>
</a>
</g>
<!-- Node3&#45;&gt;Node1 -->
<g id="edge6" class="edge"><title>Node3&#45;&gt;Node1</title>
<path fill="none" stroke="#9a32cd" stroke-dasharray="5,2" d="M1009.8,-396.279C1036.64,-462.652 1124.65,-680.264 1144.15,-728.482"/>
<polygon fill="#9a32cd" stroke="#9a32cd" points="1012.9,-394.614 1005.91,-386.656 1006.41,-397.239 1012.9,-394.614"/>
<text text-anchor="middle" x="1074" y="-592" font-family="Helvetica,sans-Serif" font-size="10.00"> request</text>
</g>
<!-- Node3&#45;&gt;Node3 -->
<g id="edge80" class="edge"><title>Node3&#45;&gt;Node3</title>
<path fill="none" stroke="#9a32cd" stroke-dasharray="5,2" d="M988.477,-396.766C989.461,-401.497 993.635,-405 1001,-405 1013.09,-405 1016.58,-395.565 1011.48,-386.757"/>
<polygon fill="#9a32cd" stroke="#9a32cd" points="991.95,-397.255 990.519,-386.757 985.091,-395.856 991.95,-397.255"/>
<text text-anchor="middle" x="1001" y="-452" font-family="Helvetica,sans-Serif" font-size="10.00"> coa</text>
<text text-anchor="middle" x="1001" y="-441" font-family="Helvetica,sans-Serif" font-size="10.00">radlog</text>
<text text-anchor="middle" x="1001" y="-430" font-family="Helvetica,sans-Serif" font-size="10.00">handle</text>
<text text-anchor="middle" x="1001" y="-419" font-family="Helvetica,sans-Serif" font-size="10.00">parent</text>
<text text-anchor="middle" x="1001" y="-408" font-family="Helvetica,sans-Serif" font-size="10.00">process</text>
</g>
<!-- Node4 -->
<g id="node7" class="node"><title>Node4</title>
<a xlink:href="structradclient.html" target="_top" xlink:title="radclient">
<polygon fill="none" stroke="black" points="832.5,-497.5 832.5,-516.5 885.5,-516.5 885.5,-497.5 832.5,-497.5"/>
<text text-anchor="middle" x="859" y="-504.5" font-family="Helvetica,sans-Serif" font-size="10.00">radclient</text>
</a>
</g>
<!-- Node4&#45;&gt;Node3 -->
<g id="edge8" class="edge"><title>Node4&#45;&gt;Node3</title>
<path fill="none" stroke="#9a32cd" stroke-dasharray="5,2" d="M878.106,-490.187C907.863,-462.556 966.155,-408.427 989.736,-386.531"/>
<polygon fill="#9a32cd" stroke="#9a32cd" points="875.469,-487.86 870.523,-497.229 880.232,-492.989 875.469,-487.86"/>
<text text-anchor="middle" x="932" y="-452" font-family="Helvetica,sans-Serif" font-size="10.00"> client</text>
</g>
<!-- Node5 -->
<g id="node9" class="node"><title>Node5</title>
<a xlink:href="structhome__pool__t.html" target="_top" xlink:title="home_pool_t">
<polygon fill="none" stroke="black" points="645,-554.5 645,-573.5 717,-573.5 717,-554.5 645,-554.5"/>
<text text-anchor="middle" x="681" y="-561.5" font-family="Helvetica,sans-Serif" font-size="10.00">home_pool_t</text>
</a>
</g>
<!-- Node5&#45;&gt;Node3 -->
<g id="edge82" class="edge"><title>Node5&#45;&gt;Node3</title>
<path fill="none" stroke="#9a32cd" stroke-dasharray="5,2" d="M727.348,-567.515C730.95,-567.71 734.534,-567.876 738,-568 812.333,-570.651 841.471,-571.9 900,-526 950.99,-486.012 985.137,-412.641 996.149,-386.533"/>
<polygon fill="#9a32cd" stroke="#9a32cd" points="727.423,-564.013 717.229,-566.901 726.999,-571 727.423,-564.013"/>
<text text-anchor="middle" x="859" y="-569" font-family="Helvetica,sans-Serif" font-size="10.00"> home_pool</text>
</g>
<!-- Node5&#45;&gt;Node4 -->
<g id="edge10" class="edge"><title>Node5&#45;&gt;Node4</title>
<path fill="none" stroke="#9a32cd" stroke-dasharray="5,2" d="M726.903,-556.496C749.26,-552.067 776.47,-545.619 800,-537 814.903,-531.541 830.852,-523.08 842.246,-516.534"/>
<polygon fill="#9a32cd" stroke="#9a32cd" points="726.167,-553.073 717.002,-558.389 727.482,-559.949 726.167,-553.073"/>
<text text-anchor="middle" x="769" y="-556" font-family="Helvetica,sans-Serif" font-size="10.00"> coa_pool</text>
</g>
<!-- Node6 -->
<g id="node11" class="node"><title>Node6</title>
<a xlink:href="structhome__server.html" target="_top" xlink:title="home_server">
<polygon fill="none" stroke="black" points="494.5,-612.5 494.5,-631.5 567.5,-631.5 567.5,-612.5 494.5,-612.5"/>
<text text-anchor="middle" x="531" y="-619.5" font-family="Helvetica,sans-Serif" font-size="10.00">home_server</text>
</a>
</g>
<!-- Node6&#45;&gt;Node3 -->
<g id="edge84" class="edge"><title>Node6&#45;&gt;Node3</title>
<path fill="none" stroke="#9a32cd" stroke-dasharray="5,2" d="M577.7,-631.971C580.5,-632.376 583.283,-632.726 586,-633 602.804,-634.694 607.113,-633.264 624,-633 748.81,-631.05 799.666,-655.259 900,-581 968.481,-530.316 992.592,-419.931 998.454,-386.673"/>
<polygon fill="#9a32cd" stroke="#9a32cd" points="578.009,-628.475 567.573,-630.298 576.868,-635.382 578.009,-628.475"/>
<text text-anchor="middle" x="769" y="-638" font-family="Helvetica,sans-Serif" font-size="10.00"> home_server</text>
</g>
<!-- Node6&#45;&gt;Node4 -->
<g id="edge44" class="edge"><title>Node6&#45;&gt;Node4</title>
<path fill="none" stroke="#9a32cd" stroke-dasharray="5,2" d="M578.163,-621.34C634.12,-618.674 729.649,-608.004 800,-568 822.612,-555.142 841.82,-530.674 851.425,-516.957"/>
<polygon fill="#9a32cd" stroke="#9a32cd" points="577.703,-617.855 567.855,-621.761 577.989,-624.85 577.703,-617.855"/>
<text text-anchor="middle" x="681" y="-618" font-family="Helvetica,sans-Serif" font-size="10.00"> coa_server</text>
</g>
<!-- Node6&#45;&gt;Node5 -->
<g id="edge12" class="edge"><title>Node6&#45;&gt;Node5</title>
<path fill="none" stroke="#9a32cd" stroke-dasharray="5,2" d="M554.105,-606.724C567.426,-597.614 582.481,-587.525 586,-586 604.608,-577.936 626.625,-572.58 644.672,-569.174"/>
<polygon fill="#9a32cd" stroke="#9a32cd" points="552.001,-603.923 545.739,-612.47 555.964,-609.693 552.001,-603.923"/>
<text text-anchor="middle" x="605" y="-600" font-family="Helvetica,sans-Serif" font-size="10.00"> fallback</text>
<text text-anchor="middle" x="605" y="-589" font-family="Helvetica,sans-Serif" font-size="10.00">servers</text>
</g>
<!-- Node7 -->
<g id="node13" class="node"><title>Node7</title>
<a xlink:href="structconf__part.html" target="_top" xlink:title="conf_part">
<polygon fill="none" stroke="black" points="314.5,-442.5 314.5,-461.5 371.5,-461.5 371.5,-442.5 314.5,-442.5"/>
<text text-anchor="middle" x="343" y="-449.5" font-family="Helvetica,sans-Serif" font-size="10.00">conf_part</text>
</a>
</g>
<!-- Node7&#45;&gt;Node4 -->
<g id="edge48" class="edge"><title>Node7&#45;&gt;Node4</title>
<path fill="none" stroke="#9a32cd" stroke-dasharray="5,2" d="M381.677,-458.827C411.947,-464.119 455.595,-471.316 494,-476 620.543,-491.434 772.769,-501.742 832.338,-505.459"/>
<polygon fill="#9a32cd" stroke="#9a32cd" points="382.015,-455.333 371.559,-457.042 380.799,-462.226 382.015,-455.333"/>
<text text-anchor="middle" x="605" y="-492" font-family="Helvetica,sans-Serif" font-size="10.00"> cs</text>
</g>
<!-- Node7&#45;&gt;Node5 -->
<g id="edge42" class="edge"><title>Node7&#45;&gt;Node5</title>
<path fill="none" stroke="#9a32cd" stroke-dasharray="5,2" d="M352.93,-470.812C362.989,-489.722 381.225,-518.016 406,-532 446.091,-554.63 580.494,-561.318 644.947,-563.245"/>
<polygon fill="#9a32cd" stroke="#9a32cd" points="355.942,-469.01 348.309,-461.663 349.693,-472.167 355.942,-469.01"/>
<text text-anchor="middle" x="531" y="-562" font-family="Helvetica,sans-Serif" font-size="10.00"> cs</text>
</g>
<!-- Node7&#45;&gt;Node6 -->
<g id="edge14" class="edge"><title>Node7&#45;&gt;Node6</title>
<path fill="none" stroke="#9a32cd" stroke-dasharray="5,2" d="M350.96,-471.129C360.332,-494.632 379.007,-534.516 406,-560 421.62,-574.747 475.744,-599.072 507.082,-612.448"/>
<polygon fill="#9a32cd" stroke="#9a32cd" points="354.154,-469.683 347.312,-461.594 347.616,-472.184 354.154,-469.683"/>
<text text-anchor="middle" x="441" y="-600" font-family="Helvetica,sans-Serif" font-size="10.00"> cs</text>
</g>
<!-- Node7&#45;&gt;Node7 -->
<g id="edge16" class="edge"><title>Node7&#45;&gt;Node7</title>
<path fill="none" stroke="#9a32cd" stroke-dasharray="5,2" d="M326.334,-471.4C327.447,-476.315 333.002,-480 343,-480 358.996,-480 363.62,-470.565 356.872,-461.757"/>
<polygon fill="#9a32cd" stroke="#9a32cd" points="329.707,-472.336 329.128,-461.757 322.983,-470.388 329.707,-472.336"/>
<text text-anchor="middle" x="343" y="-483" font-family="Helvetica,sans-Serif" font-size="10.00"> template</text>
</g>
<!-- Node8 -->
<g id="node16" class="node"><title>Node8</title>
<a xlink:href="structconf__item.html" target="_top" xlink:title="conf_item">
<polygon fill="none" stroke="black" points="501.5,-418.5 501.5,-437.5 560.5,-437.5 560.5,-418.5 501.5,-418.5"/>
<text text-anchor="middle" x="531" y="-425.5" font-family="Helvetica,sans-Serif" font-size="10.00">conf_item</text>
</a>
</g>
<!-- Node7&#45;&gt;Node8 -->
<g id="edge20" class="edge"><title>Node7&#45;&gt;Node8</title>
<path fill="none" stroke="#9a32cd" stroke-dasharray="5,2" d="M361.518,-435.489C373.148,-425.704 389.3,-414.224 406,-409 435.692,-399.711 445.333,-403.762 476,-409 486.874,-410.857 498.471,-414.676 508.119,-418.406"/>
<polygon fill="#9a32cd" stroke="#9a32cd" points="359.092,-432.961 353.906,-442.2 363.721,-438.212 359.092,-432.961"/>
<text text-anchor="middle" x="441" y="-412" font-family="Helvetica,sans-Serif" font-size="10.00"> parent</text>
</g>
<!-- Node16 -->
<g id="node41" class="node"><title>Node16</title>
<a xlink:href="structmain__config__t.html" target="_top" xlink:title="main_config_t">
<polygon fill="none" stroke="black" points="642.5,-224.5 642.5,-243.5 719.5,-243.5 719.5,-224.5 642.5,-224.5"/>
<text text-anchor="middle" x="681" y="-231.5" font-family="Helvetica,sans-Serif" font-size="10.00">main_config_t</text>
</a>
</g>
<!-- Node7&#45;&gt;Node16 -->
<g id="edge60" class="edge"><title>Node7&#45;&gt;Node16</title>
<path fill="none" stroke="#9a32cd" stroke-dasharray="5,2" d="M349.581,-432.811C364.169,-386.932 408.368,-272.169 494,-238 542.449,-218.668 603.794,-222.136 642.482,-227.33"/>
<polygon fill="#9a32cd" stroke="#9a32cd" points="346.214,-431.854 346.637,-442.44 352.908,-433.901 346.214,-431.854"/>
<text text-anchor="middle" x="531" y="-241" font-family="Helvetica,sans-Serif" font-size="10.00"> config</text>
</g>
<!-- Node17 -->
<g id="node43" class="node"><title>Node17</title>
<a xlink:href="structrad__listen__t.html" target="_top" xlink:title="rad_listen_t">
<polygon fill="none" stroke="black" points="497.5,-258.5 497.5,-277.5 564.5,-277.5 564.5,-258.5 497.5,-258.5"/>
<text text-anchor="middle" x="531" y="-265.5" font-family="Helvetica,sans-Serif" font-size="10.00">rad_listen_t</text>
</a>
</g>
<!-- Node7&#45;&gt;Node17 -->
<g id="edge58" class="edge"><title>Node7&#45;&gt;Node17</title>
<path fill="none" stroke="#9a32cd" stroke-dasharray="5,2" d="M360.146,-435.037C372.573,-422.053 390.234,-403.758 406,-388 447.742,-346.28 498.671,-297.708 519.928,-277.536"/>
<polygon fill="#9a32cd" stroke="#9a32cd" points="357.524,-432.715 353.148,-442.364 362.586,-437.55 357.524,-432.715"/>
<text text-anchor="middle" x="441" y="-391" font-family="Helvetica,sans-Serif" font-size="10.00"> cs</text>
</g>
<!-- Node8&#45;&gt;Node7 -->
<g id="edge18" class="edge"><title>Node8&#45;&gt;Node7</title>
<path fill="none" stroke="#9a32cd" stroke-dasharray="5,2" d="M491.134,-424.888C466.531,-423.76 434.162,-423.827 406,-429 391.547,-431.655 376.047,-437.405 364.16,-442.491"/>
<polygon fill="#9a32cd" stroke="#9a32cd" points="490.993,-428.386 501.168,-425.434 491.373,-421.396 490.993,-428.386"/>
<text text-anchor="middle" x="441" y="-454" font-family="Helvetica,sans-Serif" font-size="10.00"> tail</text>
<text text-anchor="middle" x="441" y="-443" font-family="Helvetica,sans-Serif" font-size="10.00">item</text>
<text text-anchor="middle" x="441" y="-432" font-family="Helvetica,sans-Serif" font-size="10.00">children</text>
</g>
<!-- Node8&#45;&gt;Node8 -->
<g id="edge22" class="edge"><title>Node8&#45;&gt;Node8</title>
<path fill="none" stroke="#9a32cd" stroke-dasharray="5,2" d="M517.372,-447.766C518.443,-452.497 522.985,-456 531,-456 544.152,-456 547.954,-446.565 542.406,-437.757"/>
<polygon fill="#9a32cd" stroke="#9a32cd" points="520.844,-448.278 519.594,-437.757 514.01,-446.761 520.844,-448.278"/>
<text text-anchor="middle" x="531" y="-459" font-family="Helvetica,sans-Serif" font-size="10.00"> next</text>
</g>
<!-- Node9 -->
<g id="node20" class="node"><title>Node9</title>
<a xlink:href="structCONF__PARSER.html" target="_top" xlink:title="CONF_PARSER">
<polygon fill="none" stroke="black" points="116,-442.5 116,-461.5 208,-461.5 208,-442.5 116,-442.5"/>
<text text-anchor="middle" x="162" y="-449.5" font-family="Helvetica,sans-Serif" font-size="10.00">CONF_PARSER</text>
</a>
</g>
<!-- Node9&#45;&gt;Node7 -->
<g id="edge24" class="edge"><title>Node9&#45;&gt;Node7</title>
<path fill="none" stroke="#9a32cd" stroke-dasharray="5,2" d="M218.261,-452C250.16,-452 288.893,-452 314.43,-452"/>
<polygon fill="#9a32cd" stroke="#9a32cd" points="218.169,-448.5 208.169,-452 218.169,-455.5 218.169,-448.5"/>
<text text-anchor="middle" x="253" y="-455" font-family="Helvetica,sans-Serif" font-size="10.00"> variables</text>
</g>
<!-- Node10 -->
<g id="node22" class="node"><title>Node10</title>
<a xlink:href="structrbtree__t.html" target="_top" xlink:title="rbtree_t">
<polygon fill="none" stroke="black" points="137,-570.5 137,-589.5 187,-589.5 187,-570.5 137,-570.5"/>
<text text-anchor="middle" x="162" y="-577.5" font-family="Helvetica,sans-Serif" font-size="10.00">rbtree_t</text>
</a>
</g>
<!-- Node10&#45;&gt;Node7 -->
<g id="edge26" class="edge"><title>Node10&#45;&gt;Node7</title>
<path fill="none" stroke="#9a32cd" stroke-dasharray="5,2" d="M184.661,-564.511C222.02,-537.795 297.528,-483.801 328.39,-461.732"/>
<polygon fill="#9a32cd" stroke="#9a32cd" points="182.553,-561.715 176.454,-570.379 186.624,-567.409 182.553,-561.715"/>
<text text-anchor="middle" x="253" y="-570" font-family="Helvetica,sans-Serif" font-size="10.00"> data_tree</text>
<text text-anchor="middle" x="253" y="-559" font-family="Helvetica,sans-Serif" font-size="10.00">name2_tree</text>
<text text-anchor="middle" x="253" y="-548" font-family="Helvetica,sans-Serif" font-size="10.00">section_tree</text>
<text text-anchor="middle" x="253" y="-537" font-family="Helvetica,sans-Serif" font-size="10.00">pair_tree</text>
</g>
<!-- Node23 -->
<g id="node69" class="node"><title>Node23</title>
<a xlink:href="structrlm__policy__t.html" target="_top" xlink:title="rlm_policy_t">
<polygon fill="none" stroke="black" points="406.5,-728.5 406.5,-747.5 475.5,-747.5 475.5,-728.5 406.5,-728.5"/>
<text text-anchor="middle" x="441" y="-735.5" font-family="Helvetica,sans-Serif" font-size="10.00">rlm_policy_t</text>
</a>
</g>
<!-- Node10&#45;&gt;Node23 -->
<g id="edge96" class="edge"><title>Node10&#45;&gt;Node23</title>
<path fill="none" stroke="#9a32cd" stroke-dasharray="5,2" d="M174.395,-597.946C194.939,-628.597 241.364,-690.479 298,-719 332.1,-736.172 376.36,-739.582 406.336,-739.56"/>
<polygon fill="#9a32cd" stroke="#9a32cd" points="177.275,-595.955 168.867,-589.508 171.419,-599.791 177.275,-595.955"/>
<text text-anchor="middle" x="253" y="-710" font-family="Helvetica,sans-Serif" font-size="10.00"> policies</text>
</g>
<!-- Node11 -->
<g id="node24" class="node"><title>Node11</title>
<a xlink:href="structrbnode__t.html" target="_top" xlink:title="rbnode_t">
<polygon fill="none" stroke="black" points="0,-570.5 0,-589.5 54,-589.5 54,-570.5 0,-570.5"/>
<text text-anchor="middle" x="27" y="-577.5" font-family="Helvetica,sans-Serif" font-size="10.00">rbnode_t</text>
</a>
</g>
<!-- Node11&#45;&gt;Node10 -->
<g id="edge28" class="edge"><title>Node11&#45;&gt;Node10</title>
<path fill="none" stroke="#9a32cd" stroke-dasharray="5,2" d="M64.3432,-580C87.3013,-580 116.343,-580 136.572,-580"/>
<polygon fill="#9a32cd" stroke="#9a32cd" points="64.2766,-576.5 54.2765,-580 64.2765,-583.5 64.2766,-576.5"/>
<text text-anchor="middle" x="85" y="-583" font-family="Helvetica,sans-Serif" font-size="10.00"> Root</text>
</g>
<!-- Node11&#45;&gt;Node11 -->
<g id="edge30" class="edge"><title>Node11&#45;&gt;Node11</title>
<path fill="none" stroke="#9a32cd" stroke-dasharray="5,2" d="M16.3189,-599.766C17.1578,-604.497 20.7182,-608 27,-608 37.3086,-608 40.2884,-598.565 35.9395,-589.757"/>
<polygon fill="#9a32cd" stroke="#9a32cd" points="19.7944,-600.209 18.0605,-589.757 12.898,-599.009 19.7944,-600.209"/>
<text text-anchor="middle" x="27" y="-633" font-family="Helvetica,sans-Serif" font-size="10.00"> Left</text>
<text text-anchor="middle" x="27" y="-622" font-family="Helvetica,sans-Serif" font-size="10.00">Right</text>
<text text-anchor="middle" x="27" y="-611" font-family="Helvetica,sans-Serif" font-size="10.00">Parent</text>
</g>
<!-- Node12 -->
<g id="node27" class="node"><title>Node12</title>
<a xlink:href="structfr__socket__limit__t.html" target="_top" xlink:title="fr_socket_limit_t">
<polygon fill="none" stroke="black" points="298.5,-592.5 298.5,-611.5 387.5,-611.5 387.5,-592.5 298.5,-592.5"/>
<text text-anchor="middle" x="343" y="-599.5" font-family="Helvetica,sans-Serif" font-size="10.00">fr_socket_limit_t</text>
</a>
</g>
<!-- Node12&#45;&gt;Node4 -->
<g id="edge46" class="edge"><title>Node12&#45;&gt;Node4</title>
<path fill="none" stroke="#9a32cd" stroke-dasharray="5,2" d="M384.742,-589.778C391.784,-587.968 399.069,-586.283 406,-585 477.142,-571.831 499.403,-591.999 568,-569 576.889,-566.02 577.322,-561.55 586,-558 609.648,-548.325 616.964,-550.104 642,-545 710.461,-531.042 791.757,-517.57 832.313,-511.059"/>
<polygon fill="#9a32cd" stroke="#9a32cd" points="383.415,-586.51 374.668,-592.487 385.233,-593.27 383.415,-586.51"/>
<text text-anchor="middle" x="605" y="-561" font-family="Helvetica,sans-Serif" font-size="10.00"> limit</text>
</g>
<!-- Node12&#45;&gt;Node6 -->
<g id="edge32" class="edge"><title>Node12&#45;&gt;Node6</title>
<path fill="none" stroke="#9a32cd" stroke-dasharray="5,2" d="M391.459,-613.597C396.349,-614.527 401.261,-615.355 406,-616 435.578,-620.024 469.447,-621.45 494.305,-621.911"/>
<polygon fill="#9a32cd" stroke="#9a32cd" points="392.012,-610.138 381.514,-611.569 390.613,-616.997 392.012,-610.138"/>
<text text-anchor="middle" x="441" y="-624" font-family="Helvetica,sans-Serif" font-size="10.00"> limit</text>
</g>
<!-- Node13 -->
<g id="node29" class="node"><title>Node13</title>
<a xlink:href="structfr__event__t.html" target="_top" xlink:title="fr_event_t">
<polygon fill="none" stroke="black" points="313,-661.5 313,-680.5 373,-680.5 373,-661.5 313,-661.5"/>
<text text-anchor="middle" x="343" y="-668.5" font-family="Helvetica,sans-Serif" font-size="10.00">fr_event_t</text>
</a>
</g>
<!-- Node13&#45;&gt;Node3 -->
<g id="edge88" class="edge"><title>Node13&#45;&gt;Node3</title>
<path fill="none" stroke="#9a32cd" stroke-dasharray="5,2" d="M383.122,-680.026C420.597,-687.876 478.848,-698 530,-698 530,-698 530,-698 860,-698 999.533,-698 1001.4,-440.017 1000.3,-386.607"/>
<polygon fill="#9a32cd" stroke="#9a32cd" points="383.637,-676.557 373.126,-677.883 382.17,-683.402 383.637,-676.557"/>
<text text-anchor="middle" x="681" y="-701" font-family="Helvetica,sans-Serif" font-size="10.00"> ev</text>
</g>
<!-- Node13&#45;&gt;Node6 -->
<g id="edge34" class="edge"><title>Node13&#45;&gt;Node6</title>
<path fill="none" stroke="#9a32cd" stroke-dasharray="5,2" d="M382.797,-660.779C415.706,-652.11 462.524,-639.776 494.467,-631.361"/>
<polygon fill="#9a32cd" stroke="#9a32cd" points="381.841,-657.412 373.062,-663.344 383.624,-664.181 381.841,-657.412"/>
<text text-anchor="middle" x="441" y="-656" font-family="Helvetica,sans-Serif" font-size="10.00"> ev</text>
</g>
<!-- Node13&#45;&gt;Node13 -->
<g id="edge36" class="edge"><title>Node13&#45;&gt;Node13</title>
<path fill="none" stroke="#9a32cd" stroke-dasharray="5,2" d="M326.334,-690.4C327.447,-695.315 333.002,-699 343,-699 358.996,-699 363.62,-689.565 356.872,-680.757"/>
<polygon fill="#9a32cd" stroke="#9a32cd" points="329.707,-691.336 329.128,-680.757 322.983,-689.388 329.707,-691.336"/>
<text text-anchor="middle" x="343" y="-702" font-family="Helvetica,sans-Serif" font-size="10.00"> ev_p</text>
</g>
<!-- Node14 -->
<g id="node32" class="node"><title>Node14</title>
<a xlink:href="structfr__ipaddr__t.html" target="_top" xlink:title="fr_ipaddr_t">
<polygon fill="none" stroke="black" points="312,-172.5 312,-191.5 374,-191.5 374,-172.5 312,-172.5"/>
<text text-anchor="middle" x="343" y="-179.5" font-family="Helvetica,sans-Serif" font-size="10.00">fr_ipaddr_t</text>
</a>
</g>
<!-- Node14&#45;&gt;Node4 -->
<g id="edge50" class="edge"><title>Node14&#45;&gt;Node4</title>
<path fill="none" stroke="#9a32cd" stroke-dasharray="5,2" d="M364.527,-198.058C393.251,-221.527 445.349,-267.887 476,-318 488.98,-339.222 476.677,-353.146 494,-371 518.986,-396.751 753.84,-473.63 832.482,-498.871"/>
<polygon fill="#9a32cd" stroke="#9a32cd" points="366.398,-195.071 356.413,-191.53 362.011,-200.525 366.398,-195.071"/>
<text text-anchor="middle" x="605" y="-431" font-family="Helvetica,sans-Serif" font-size="10.00"> ipaddr</text>
</g>
<!-- Node14&#45;&gt;Node6 -->
<g id="edge38" class="edge"><title>Node14&#45;&gt;Node6</title>
<path fill="none" stroke="#9a32cd" stroke-dasharray="5,2" d="M344.464,-201.792C346.379,-250.045 356.159,-376.354 406,-466 427.076,-503.909 448.891,-500.142 476,-534 497.062,-560.306 516.312,-595.434 525.052,-612.24"/>
<polygon fill="#9a32cd" stroke="#9a32cd" points="347.953,-201.394 344.133,-191.512 340.957,-201.62 347.953,-201.394"/>
<text text-anchor="middle" x="441" y="-548" font-family="Helvetica,sans-Serif" font-size="10.00"> ipaddr</text>
<text text-anchor="middle" x="441" y="-537" font-family="Helvetica,sans-Serif" font-size="10.00">src_ipaddr</text>
</g>
<!-- Node14&#45;&gt;Node16 -->
<g id="edge62" class="edge"><title>Node14&#45;&gt;Node16</title>
<path fill="none" stroke="#9a32cd" stroke-dasharray="5,2" d="M384.293,-181.333C429.454,-181.319 504.65,-183.504 568,-196 600.03,-202.318 635.478,-215.447 657.742,-224.489"/>
<polygon fill="#9a32cd" stroke="#9a32cd" points="384.018,-177.834 374.033,-181.374 384.047,-184.834 384.018,-177.834"/>
<text text-anchor="middle" x="531" y="-199" font-family="Helvetica,sans-Serif" font-size="10.00"> myip</text>
</g>
<!-- Node18 -->
<g id="node49" class="node"><title>Node18</title>
<a xlink:href="structradius__packet.html" target="_top" xlink:title="radius_packet">
<polygon fill="none" stroke="black" points="642.5,-75.5 642.5,-94.5 719.5,-94.5 719.5,-75.5 642.5,-75.5"/>
<text text-anchor="middle" x="681" y="-82.5" font-family="Helvetica,sans-Serif" font-size="10.00">radius_packet</text>
</a>
</g>
<!-- Node14&#45;&gt;Node18 -->
<g id="edge76" class="edge"><title>Node14&#45;&gt;Node18</title>
<path fill="none" stroke="#9a32cd" stroke-dasharray="5,2" d="M383.882,-170.487C450.865,-151.149 584.722,-112.506 646.874,-94.5631"/>
<polygon fill="#9a32cd" stroke="#9a32cd" points="382.75,-167.17 374.113,-173.307 384.692,-173.896 382.75,-167.17"/>
<text text-anchor="middle" x="531" y="-152" font-family="Helvetica,sans-Serif" font-size="10.00"> dst_ipaddr</text>
<text text-anchor="middle" x="531" y="-141" font-family="Helvetica,sans-Serif" font-size="10.00">src_ipaddr</text>
</g>
<!-- Node15 -->
<g id="node34" class="node"><title>Node15</title>
<a xlink:href="structin6__addr.html" target="_top" xlink:title="in6_addr">
<polygon fill="none" stroke="black" points="135.5,-94.5 135.5,-113.5 188.5,-113.5 188.5,-94.5 135.5,-94.5"/>
<text text-anchor="middle" x="162" y="-101.5" font-family="Helvetica,sans-Serif" font-size="10.00">in6_addr</text>
</a>
</g>
<!-- Node15&#45;&gt;Node14 -->
<g id="edge40" class="edge"><title>Node15&#45;&gt;Node14</title>
<path fill="none" stroke="#9a32cd" stroke-dasharray="5,2" d="M194.497,-117.725C230.568,-133.443 288.721,-158.783 320.152,-172.48"/>
<polygon fill="#9a32cd" stroke="#9a32cd" points="195.515,-114.351 184.949,-113.564 192.718,-120.768 195.515,-114.351"/>
<text text-anchor="middle" x="253" y="-157" font-family="Helvetica,sans-Serif" font-size="10.00"> ip6addr</text>
</g>
<!-- Node20 -->
<g id="node53" class="node"><title>Node20</title>
<a xlink:href="unionvalue__pair__data.html" target="_top" xlink:title="value_pair_data">
<polygon fill="none" stroke="black" points="300.5,-39.5 300.5,-58.5 385.5,-58.5 385.5,-39.5 300.5,-39.5"/>
<text text-anchor="middle" x="343" y="-46.5" font-family="Helvetica,sans-Serif" font-size="10.00">value_pair_data</text>
</a>
</g>
<!-- Node15&#45;&gt;Node20 -->
<g id="edge70" class="edge"><title>Node15&#45;&gt;Node20</title>
<path fill="none" stroke="#9a32cd" stroke-dasharray="5,2" d="M198.301,-93.1533C231.143,-83.0622 279.603,-68.1722 310.99,-58.5283"/>
<polygon fill="#9a32cd" stroke="#9a32cd" points="197.177,-89.837 188.646,-96.1198 199.233,-96.5283 197.177,-89.837"/>
<text text-anchor="middle" x="253" y="-88" font-family="Helvetica,sans-Serif" font-size="10.00"> ipv6addr</text>
</g>
<!-- Node16&#45;&gt;Node3 -->
<g id="edge52" class="edge"><title>Node16&#45;&gt;Node3</title>
<path fill="none" stroke="#9a32cd" stroke-dasharray="5,2" d="M729.554,-238.62C785.435,-245.949 879.017,-264.323 946,-309 968.825,-324.224 986.489,-352.171 994.794,-367.055"/>
<polygon fill="#9a32cd" stroke="#9a32cd" points="729.93,-235.14 719.573,-237.376 729.064,-242.086 729.93,-235.14"/>
<text text-anchor="middle" x="859" y="-286" font-family="Helvetica,sans-Serif" font-size="10.00"> root</text>
</g>
<!-- Node17&#45;&gt;Node3 -->
<g id="edge78" class="edge"><title>Node17&#45;&gt;Node3</title>
<path fill="none" stroke="#9a32cd" stroke-dasharray="5,2" d="M574.373,-277.869C669.307,-299.98 896.765,-352.956 973.902,-370.922"/>
<polygon fill="#9a32cd" stroke="#9a32cd" points="575.071,-274.438 564.537,-275.578 573.483,-281.255 575.071,-274.438"/>
<text text-anchor="middle" x="769" y="-344" font-family="Helvetica,sans-Serif" font-size="10.00"> listener</text>
<text text-anchor="middle" x="769" y="-333" font-family="Helvetica,sans-Serif" font-size="10.00">proxy_listener</text>
</g>
<!-- Node17&#45;&gt;Node16 -->
<g id="edge54" class="edge"><title>Node17&#45;&gt;Node16</title>
<path fill="none" stroke="#9a32cd" stroke-dasharray="5,2" d="M574.638,-258.205C596.002,-253.297 621.646,-247.406 642.285,-242.664"/>
<polygon fill="#9a32cd" stroke="#9a32cd" points="573.808,-254.804 564.846,-260.454 575.376,-261.626 573.808,-254.804"/>
<text text-anchor="middle" x="605" y="-258" font-family="Helvetica,sans-Serif" font-size="10.00"> listen</text>
</g>
<!-- Node17&#45;&gt;Node17 -->
<g id="edge56" class="edge"><title>Node17&#45;&gt;Node17</title>
<path fill="none" stroke="#9a32cd" stroke-dasharray="5,2" d="M517.372,-287.766C518.443,-292.497 522.985,-296 531,-296 544.152,-296 547.954,-286.565 542.406,-277.757"/>
<polygon fill="#9a32cd" stroke="#9a32cd" points="520.844,-288.278 519.594,-277.757 514.01,-286.761 520.844,-288.278"/>
<text text-anchor="middle" x="531" y="-354" font-family="Helvetica,sans-Serif" font-size="10.00"> next</text>
<text text-anchor="middle" x="531" y="-343" font-family="Helvetica,sans-Serif" font-size="10.00">encode</text>
<text text-anchor="middle" x="531" y="-332" font-family="Helvetica,sans-Serif" font-size="10.00">recv</text>
<text text-anchor="middle" x="531" y="-321" font-family="Helvetica,sans-Serif" font-size="10.00">print</text>
<text text-anchor="middle" x="531" y="-310" font-family="Helvetica,sans-Serif" font-size="10.00">send</text>
<text text-anchor="middle" x="531" y="-299" font-family="Helvetica,sans-Serif" font-size="10.00">decode</text>
</g>
<!-- Node18&#45;&gt;Node3 -->
<g id="edge64" class="edge"><title>Node18&#45;&gt;Node3</title>
<path fill="none" stroke="#9a32cd" stroke-dasharray="5,2" d="M729.911,-78.9416C775.616,-75.2238 845.392,-75.028 900,-99 925.905,-110.372 932.011,-118.409 946,-143 990.529,-221.277 998.359,-334.05 999.718,-367.38"/>
<polygon fill="#9a32cd" stroke="#9a32cd" points="729.332,-75.4796 719.687,-79.8648 729.961,-82.4512 729.332,-75.4796"/>
<text text-anchor="middle" x="859" y="-135" font-family="Helvetica,sans-Serif" font-size="10.00"> reply</text>
<text text-anchor="middle" x="859" y="-124" font-family="Helvetica,sans-Serif" font-size="10.00">proxy_reply</text>
<text text-anchor="middle" x="859" y="-113" font-family="Helvetica,sans-Serif" font-size="10.00">proxy</text>
<text text-anchor="middle" x="859" y="-102" font-family="Helvetica,sans-Serif" font-size="10.00">packet</text>
</g>
<!-- Node19 -->
<g id="node51" class="node"><title>Node19</title>
<a xlink:href="structvalue__pair.html" target="_top" xlink:title="value_pair">
<polygon fill="none" stroke="black" points="500.5,-39.5 500.5,-58.5 561.5,-58.5 561.5,-39.5 500.5,-39.5"/>
<text text-anchor="middle" x="531" y="-46.5" font-family="Helvetica,sans-Serif" font-size="10.00">value_pair</text>
</a>
</g>
<!-- Node19&#45;&gt;Node3 -->
<g id="edge86" class="edge"><title>Node19&#45;&gt;Node3</title>
<path fill="none" stroke="#9a32cd" stroke-dasharray="5,2" d="M552.902,-64.6578C562.744,-71.7823 574.766,-80.1354 586,-87 720.523,-169.202 768.751,-164.665 900,-252 922.077,-266.69 928.556,-270.027 946,-290 968.102,-315.306 987.002,-350.666 995.381,-367.442"/>
<polygon fill="#9a32cd" stroke="#9a32cd" points="554.694,-61.6318 544.561,-58.5382 550.553,-67.2757 554.694,-61.6318"/>
<text text-anchor="middle" x="769" y="-218" font-family="Helvetica,sans-Serif" font-size="10.00"> password</text>
<text text-anchor="middle" x="769" y="-207" font-family="Helvetica,sans-Serif" font-size="10.00">config_items</text>
<text text-anchor="middle" x="769" y="-196" font-family="Helvetica,sans-Serif" font-size="10.00">username</text>
</g>
<!-- Node19&#45;&gt;Node18 -->
<g id="edge66" class="edge"><title>Node19&#45;&gt;Node18</title>
<path fill="none" stroke="#9a32cd" stroke-dasharray="5,2" d="M571.585,-58.6287C593.524,-63.9652 620.655,-70.5647 642.288,-75.8267"/>
<polygon fill="#9a32cd" stroke="#9a32cd" points="572.138,-55.1614 561.594,-56.1986 570.484,-61.963 572.138,-55.1614"/>
<text text-anchor="middle" x="605" y="-75" font-family="Helvetica,sans-Serif" font-size="10.00"> vps</text>
</g>
<!-- Node19&#45;&gt;Node19 -->
<g id="edge72" class="edge"><title>Node19&#45;&gt;Node19</title>
<path fill="none" stroke="#9a32cd" stroke-dasharray="5,2" d="M517.372,-68.7663C518.443,-73.4965 522.985,-77 531,-77 544.152,-77 547.954,-67.5653 542.406,-58.7571"/>
<polygon fill="#9a32cd" stroke="#9a32cd" points="520.844,-69.2779 519.594,-58.7571 514.01,-67.7609 520.844,-69.2779"/>
<text text-anchor="middle" x="531" y="-80" font-family="Helvetica,sans-Serif" font-size="10.00"> next</text>
</g>
<!-- Node20&#45;&gt;Node19 -->
<g id="edge68" class="edge"><title>Node20&#45;&gt;Node19</title>
<path fill="none" stroke="#9a32cd" stroke-dasharray="5,2" d="M395.874,-49C429.535,-49 472.198,-49 500.257,-49"/>
<polygon fill="#9a32cd" stroke="#9a32cd" points="395.742,-45.5001 385.742,-49 395.742,-52.5001 395.742,-45.5001"/>
<text text-anchor="middle" x="441" y="-52" font-family="Helvetica,sans-Serif" font-size="10.00"> data</text>
</g>
<!-- Node21 -->
<g id="node57" class="node"><title>Node21</title>
<a xlink:href="structattr__flags.html" target="_top" xlink:title="attr_flags">
<polygon fill="none" stroke="black" points="314.5,-77.5 314.5,-96.5 371.5,-96.5 371.5,-77.5 314.5,-77.5"/>
<text text-anchor="middle" x="343" y="-84.5" font-family="Helvetica,sans-Serif" font-size="10.00">attr_flags</text>
</a>
</g>
<!-- Node21&#45;&gt;Node19 -->
<g id="edge74" class="edge"><title>Node21&#45;&gt;Node19</title>
<path fill="none" stroke="#9a32cd" stroke-dasharray="5,2" d="M381.723,-81.4385C408.23,-77.2843 444.448,-71.113 476,-64 483.973,-62.2026 492.528,-59.9697 500.424,-57.7807"/>
<polygon fill="#9a32cd" stroke="#9a32cd" points="381.063,-77.9988 371.714,-82.9837 382.131,-84.9169 381.063,-77.9988"/>
<text text-anchor="middle" x="441" y="-81" font-family="Helvetica,sans-Serif" font-size="10.00"> flags</text>
</g>
<!-- Node22 -->
<g id="node66" class="node"><title>Node22</title>
<a xlink:href="structrequest__data__t.html" target="_top" xlink:title="request_data_t">
<polygon fill="none" stroke="black" points="818.5,-0.5 818.5,-19.5 899.5,-19.5 899.5,-0.5 818.5,-0.5"/>
<text text-anchor="middle" x="859" y="-7.5" font-family="Helvetica,sans-Serif" font-size="10.00">request_data_t</text>
</a>
</g>
<!-- Node22&#45;&gt;Node3 -->
<g id="edge90" class="edge"><title>Node22&#45;&gt;Node3</title>
<path fill="none" stroke="#9a32cd" stroke-dasharray="5,2" d="M898.591,-23.6456C915.712,-31.6402 934.539,-43.4765 946,-60 982.035,-111.95 996.577,-320.124 999.45,-367.411"/>
<polygon fill="#9a32cd" stroke="#9a32cd" points="899.878,-20.3883 889.313,-19.594 897.077,-26.8034 899.878,-20.3883"/>
<text text-anchor="middle" x="932" y="-63" font-family="Helvetica,sans-Serif" font-size="10.00"> data</text>
</g>
<!-- Node22&#45;&gt;Node22 -->
<g id="edge92" class="edge"><title>Node22&#45;&gt;Node22</title>
<path fill="none" stroke="#9a32cd" stroke-dasharray="5,2" d="M845.741,-29.7663C846.782,-34.4965 851.202,-38 859,-38 871.797,-38 875.496,-28.5653 870.097,-19.7571"/>
<polygon fill="#9a32cd" stroke="#9a32cd" points="849.212,-30.2706 847.903,-19.7571 842.37,-28.7927 849.212,-30.2706"/>
<text text-anchor="middle" x="859" y="-41" font-family="Helvetica,sans-Serif" font-size="10.00"> next</text>
</g>
<!-- Node23&#45;&gt;Node1 -->
<g id="edge94" class="edge"><title>Node23&#45;&gt;Node1</title>
<path fill="none" stroke="#9a32cd" stroke-dasharray="5,2" d="M485.613,-738C518.221,-738 563.902,-738 604,-738 604,-738 604,-738 1002,-738 1038.88,-738 1081,-738 1110.49,-738"/>
<polygon fill="#9a32cd" stroke="#9a32cd" points="485.509,-734.5 475.509,-738 485.508,-741.5 485.509,-734.5"/>
<text text-anchor="middle" x="769" y="-741" font-family="Helvetica,sans-Serif" font-size="10.00"> inst</text>
</g>
</g>
</svg>
        <g id="navigator" transform="translate(0 0)" fill="#404254">
                <rect fill="#f2f5e9" fill-opacity="0.5" stroke="#606060" stroke-width=".5" x="0" y="0" width="60" height="60"/>
                <use id="zoomplus" xlink:href="#zoomPlus" x="17" y="9" onmousedown="handleZoom(evt,'in')"/>
                <use id="zoomminus" xlink:href="#zoomMin" x="42" y="9" onmousedown="handleZoom(evt,'out')"/>
                <use id="reset" xlink:href="#resetDef" x="30" y="36" onmousedown="handleReset()"/>
                <g id="arrowUp" xlink:href="#dirArrow" transform="translate(30 24)" onmousedown="handlePan(0,-1)">
                  <use xlink:href="#rim" fill="#404040">
                        <set attributeName="fill" to="#808080" begin="arrowUp.mouseover" end="arrowUp.mouseout"/>
                  </use>
                  <path fill="none" stroke="white" stroke-width="1.5" d="M0,-3.0v7 M-2.5,-0.5L0,-3.0L2.5,-0.5"/>
                </g>
                <g id="arrowRight" xlink:href="#dirArrow" transform="rotate(90) translate(36 -43)" onmousedown="handlePan(1,0)">
                  <use xlink:href="#rim" fill="#404040">
                        <set attributeName="fill" to="#808080" begin="arrowRight.mouseover" end="arrowRight.mouseout"/>
                  </use>
                  <path fill="none" stroke="white" stroke-width="1.5" d="M0,-3.0v7 M-2.5,-0.5L0,-3.0L2.5,-0.5"/>
                </g>
                <g id="arrowDown" xlink:href="#dirArrow" transform="rotate(180) translate(-30 -48)" onmousedown="handlePan(0,1)">
                  <use xlink:href="#rim" fill="#404040">
                        <set attributeName="fill" to="#808080" begin="arrowDown.mouseover" end="arrowDown.mouseout"/>
                  </use>
                  <path fill="none" stroke="white" stroke-width="1.5" d="M0,-3.0v7 M-2.5,-0.5L0,-3.0L2.5,-0.5"/>
                </g>
                <g id="arrowLeft" xlink:href="#dirArrow" transform="rotate(270) translate(-36 17)" onmousedown="handlePan(-1,0)">
                  <use xlink:href="#rim" fill="#404040">
                        <set attributeName="fill" to="#808080" begin="arrowLeft.mouseover" end="arrowLeft.mouseout"/>
                  </use>
                  <path fill="none" stroke="white" stroke-width="1.5" d="M0,-3.0v7 M-2.5,-0.5L0,-3.0L2.5,-0.5"/>
                </g>
        </g>
</svg>
