<?xml version="1.0" encoding="UTF-8" standalone="no"?>
<!DOCTYPE svg PUBLIC "-//W3C//DTD SVG 1.1//EN"
 "http://www.w3.org/Graphics/SVG/1.1/DTD/svg11.dtd">
<!-- Generated by graphviz version 2.28.0 (20111211.2114)
 -->
<!-- Title: G Pages: 1 -->
<svg width="141pt" height="98pt"
 viewBox="0.00 0.00 141.00 98.00" xmlns="http://www.w3.org/2000/svg" xmlns:xlink="http://www.w3.org/1999/xlink">
<g id="graph1" class="graph" transform="scale(1 1) rotate(0) translate(4 94)">
<title>G</title>
<!-- Node1 -->
<g id="node1" class="node"><title>Node1</title>
<polygon fill="#bfbfbf" stroke="black" points="-0.5,-0.5 -0.5,-19.5 106.5,-19.5 106.5,-0.5 -0.5,-0.5"/>
<text text-anchor="middle" x="53" y="-7.5" font-family="Helvetica,sans-Serif" font-size="10.00">indexed_modcallable</text>
</g>
<!-- Node2 -->
<g id="node2" class="node"><title>Node2</title>
<a xlink:href="structmodcallable.html" target="_top" xlink:title="modcallable">
<polygon fill="none" stroke="black" points="19,-69.5 19,-88.5 87,-88.5 87,-69.5 19,-69.5"/>
<text text-anchor="middle" x="53" y="-76.5" font-family="Helvetica,sans-Serif" font-size="10.00">modcallable</text>
</a>
</g>
<!-- Node2&#45;&gt;Node1 -->
<g id="edge2" class="edge"><title>Node2&#45;&gt;Node1</title>
<path fill="none" stroke="#9a32cd" stroke-dasharray="5,2" d="M53,-59.0183C53,-46.034 53,-29.4419 53,-19.5494"/>
<polygon fill="#9a32cd" stroke="#9a32cd" points="49.5001,-59.2409 53,-69.2409 56.5001,-59.241 49.5001,-59.2409"/>
<text text-anchor="middle" x="77" y="-41.5" font-family="Helvetica,sans-Serif" font-size="10.00"> modulelist</text>
</g>
<!-- Node2&#45;&gt;Node2 -->
<g id="edge4" class="edge"><title>Node2&#45;&gt;Node2</title>
<path fill="none" stroke="#9a32cd" stroke-dasharray="5,2" d="M97.1476,-84.333C101.925,-83.3094 105,-81.5317 105,-79 105,-74.9492 97.1268,-72.8289 87.0085,-72.639"/>
<polygon fill="#9a32cd" stroke="#9a32cd" points="96.6044,-80.87 87.0085,-85.361 97.3106,-87.8343 96.6044,-80.87"/>
<text text-anchor="middle" x="119" y="-82" font-family="Helvetica,sans-Serif" font-size="10.00"> next</text>
<text text-anchor="middle" x="119" y="-71" font-family="Helvetica,sans-Serif" font-size="10.00">parent</text>
</g>
</g>
</svg>
