<?xml version="1.0" encoding="UTF-8" standalone="no"?>
<!DOCTYPE svg PUBLIC "-//W3C//DTD SVG 1.1//EN"
 "http://www.w3.org/Graphics/SVG/1.1/DTD/svg11.dtd">
<!-- Generated by graphviz version 2.28.0 (20111211.2114)
 -->
<!-- Title: G Pages: 1 -->
<svg width="201pt" height="164pt"
 viewBox="0.00 0.00 201.00 164.00" xmlns="http://www.w3.org/2000/svg" xmlns:xlink="http://www.w3.org/1999/xlink">
<g id="graph1" class="graph" transform="scale(1 1) rotate(0) translate(4 160)">
<title>G</title>
<!-- Node1 -->
<g id="node1" class="node"><title>Node1</title>
<polygon fill="#bfbfbf" stroke="black" points="45,-0.5 45,-19.5 137,-19.5 137,-0.5 45,-0.5"/>
<text text-anchor="middle" x="91" y="-7.5" font-family="Helvetica,sans-Serif" font-size="10.00">passwd_instance</text>
</g>
<!-- Node2 -->
<g id="node2" class="node"><title>Node2</title>
<a xlink:href="structmypasswd.html" target="_top" xlink:title="mypasswd">
<polygon fill="none" stroke="black" points="0,-136.5 0,-155.5 64,-155.5 64,-136.5 0,-136.5"/>
<text text-anchor="middle" x="32" y="-143.5" font-family="Helvetica,sans-Serif" font-size="10.00">mypasswd</text>
</a>
</g>
<!-- Node2&#45;&gt;Node1 -->
<g id="edge2" class="edge"><title>Node2&#45;&gt;Node1</title>
<path fill="none" stroke="#9a32cd" stroke-dasharray="5,2" d="M22.2042,-127.569C14.515,-111.402 6.5542,-87.043 16,-68 27.4097,-44.9977 53.0332,-28.7707 71.1451,-19.6601"/>
<polygon fill="#9a32cd" stroke="#9a32cd" points="19.0968,-129.18 26.7987,-136.455 25.3149,-125.965 19.0968,-129.18"/>
<text text-anchor="middle" x="34" y="-75.5" font-family="Helvetica,sans-Serif" font-size="10.00"> pwdfmt</text>
</g>
<!-- Node2&#45;&gt;Node2 -->
<g id="edge4" class="edge"><title>Node2&#45;&gt;Node2</title>
<path fill="none" stroke="#9a32cd" stroke-dasharray="5,2" d="M74.2224,-151.383C78.9451,-150.367 82,-148.573 82,-146 82,-141.883 74.1794,-139.76 64.2203,-139.631"/>
<polygon fill="#9a32cd" stroke="#9a32cd" points="73.8286,-147.904 64.2203,-152.369 74.5154,-154.871 73.8286,-147.904"/>
<text text-anchor="middle" x="93" y="-143.5" font-family="Helvetica,sans-Serif" font-size="10.00"> next</text>
</g>
<!-- Node3 -->
<g id="node5" class="node"><title>Node3</title>
<a xlink:href="structhashtable.html" target="_top" xlink:title="hashtable">
<polygon fill="none" stroke="black" points="61.5,-68.5 61.5,-87.5 120.5,-87.5 120.5,-68.5 61.5,-68.5"/>
<text text-anchor="middle" x="91" y="-75.5" font-family="Helvetica,sans-Serif" font-size="10.00">hashtable</text>
</a>
</g>
<!-- Node2&#45;&gt;Node3 -->
<g id="edge8" class="edge"><title>Node2&#45;&gt;Node3</title>
<path fill="none" stroke="#9a32cd" stroke-dasharray="5,2" d="M46.5891,-128.68C58.1238,-115.777 73.7849,-98.2575 83.0966,-87.8411"/>
<polygon fill="#9a32cd" stroke="#9a32cd" points="43.7685,-126.584 39.7132,-136.372 48.9873,-131.249 43.7685,-126.584"/>
<text text-anchor="middle" x="79.5" y="-109.5" font-family="Helvetica,sans-Serif" font-size="10.00"> table</text>
</g>
<!-- Node3&#45;&gt;Node1 -->
<g id="edge6" class="edge"><title>Node3&#45;&gt;Node1</title>
<path fill="none" stroke="#9a32cd" stroke-dasharray="5,2" d="M91,-58.0413C91,-45.4724 91,-29.5631 91,-19.8411"/>
<polygon fill="#9a32cd" stroke="#9a32cd" points="87.5001,-58.3716 91,-68.3717 94.5001,-58.3717 87.5001,-58.3716"/>
<text text-anchor="middle" x="97" y="-41.5" font-family="Helvetica,sans-Serif" font-size="10.00"> ht</text>
</g>
<!-- Node4 -->
<g id="node8" class="node"><title>Node4</title>
<a xlink:href="structdict__attr.html" target="_top" xlink:title="dict_attr">
<polygon fill="none" stroke="black" points="139,-68.5 139,-87.5 191,-87.5 191,-68.5 139,-68.5"/>
<text text-anchor="middle" x="165" y="-75.5" font-family="Helvetica,sans-Serif" font-size="10.00">dict_attr</text>
</a>
</g>
<!-- Node4&#45;&gt;Node1 -->
<g id="edge10" class="edge"><title>Node4&#45;&gt;Node1</title>
<path fill="none" stroke="#9a32cd" stroke-dasharray="5,2" d="M147.523,-61.4122C132.986,-48.4468 112.814,-30.4559 100.913,-19.8411"/>
<polygon fill="#9a32cd" stroke="#9a32cd" points="145.533,-64.3275 155.326,-68.3717 150.192,-59.1034 145.533,-64.3275"/>
<text text-anchor="middle" x="152" y="-41.5" font-family="Helvetica,sans-Serif" font-size="10.00"> keyattr</text>
</g>
<!-- Node5 -->
<g id="node10" class="node"><title>Node5</title>
<a xlink:href="structattr__flags.html" target="_top" xlink:title="attr_flags">
<polygon fill="none" stroke="black" points="136.5,-136.5 136.5,-155.5 193.5,-155.5 193.5,-136.5 136.5,-136.5"/>
<text text-anchor="middle" x="165" y="-143.5" font-family="Helvetica,sans-Serif" font-size="10.00">attr_flags</text>
</a>
</g>
<!-- Node5&#45;&gt;Node4 -->
<g id="edge12" class="edge"><title>Node5&#45;&gt;Node4</title>
<path fill="none" stroke="#9a32cd" stroke-dasharray="5,2" d="M165,-126.041C165,-113.472 165,-97.5631 165,-87.8411"/>
<polygon fill="#9a32cd" stroke="#9a32cd" points="161.5,-126.372 165,-136.372 168.5,-126.372 161.5,-126.372"/>
<text text-anchor="middle" x="177.5" y="-109.5" font-family="Helvetica,sans-Serif" font-size="10.00"> flags</text>
</g>
</g>
</svg>
