<?xml version="1.0" encoding="UTF-8" standalone="no"?>
<!DOCTYPE svg PUBLIC "-//W3C//DTD SVG 1.1//EN"
 "http://www.w3.org/Graphics/SVG/1.1/DTD/svg11.dtd">
<!-- Generated by graphviz version 2.28.0 (20111211.2114)
 -->
<!-- Title: G Pages: 1 -->
<svg width="239pt" height="242pt"
 viewBox="0.00 0.00 239.00 242.00" xmlns="http://www.w3.org/2000/svg" xmlns:xlink="http://www.w3.org/1999/xlink">
<g id="graph1" class="graph" transform="scale(1 1) rotate(0) translate(4 238)">
<title>G</title>
<!-- Node1 -->
<g id="node1" class="node"><title>Node1</title>
<polygon fill="#bfbfbf" stroke="black" points="117.5,-0.5 117.5,-19.5 194.5,-19.5 194.5,-0.5 117.5,-0.5"/>
<text text-anchor="middle" x="156" y="-7.5" font-family="Helvetica,sans-Serif" font-size="10.00">radius_packet</text>
</g>
<!-- Node2 -->
<g id="node2" class="node"><title>Node2</title>
<a xlink:href="structvalue__pair.html" target="_top" xlink:title="value_pair">
<polygon fill="none" stroke="black" points="53.5,-69.5 53.5,-88.5 114.5,-88.5 114.5,-69.5 53.5,-69.5"/>
<text text-anchor="middle" x="84" y="-76.5" font-family="Helvetica,sans-Serif" font-size="10.00">value_pair</text>
</a>
</g>
<!-- Node2&#45;&gt;Node1 -->
<g id="edge2" class="edge"><title>Node2&#45;&gt;Node1</title>
<path fill="none" stroke="#9a32cd" stroke-dasharray="5,2" d="M101.097,-62.0899C115.423,-48.7593 135.323,-30.2413 146.813,-19.5494"/>
<polygon fill="#9a32cd" stroke="#9a32cd" points="98.3491,-59.8663 93.4127,-69.2409 103.118,-64.9908 98.3491,-59.8663"/>
<text text-anchor="middle" x="136.5" y="-41.5" font-family="Helvetica,sans-Serif" font-size="10.00"> vps</text>
</g>
<!-- Node2&#45;&gt;Node2 -->
<g id="edge8" class="edge"><title>Node2&#45;&gt;Node2</title>
<path fill="none" stroke="#9a32cd" stroke-dasharray="5,2" d="M125.201,-84.2246C129.353,-83.1861 132,-81.4446 132,-79 132,-74.8828 124.492,-72.7599 114.931,-72.6312"/>
<polygon fill="#9a32cd" stroke="#9a32cd" points="124.482,-80.7829 114.931,-85.3688 125.258,-87.7399 124.482,-80.7829"/>
<text text-anchor="middle" x="143" y="-76.5" font-family="Helvetica,sans-Serif" font-size="10.00"> next</text>
</g>
<!-- Node3 -->
<g id="node4" class="node"><title>Node3</title>
<a xlink:href="unionvalue__pair__data.html" target="_top" xlink:title="value_pair_data">
<polygon fill="none" stroke="black" points="-0.5,-146.5 -0.5,-165.5 84.5,-165.5 84.5,-146.5 -0.5,-146.5"/>
<text text-anchor="middle" x="42" y="-153.5" font-family="Helvetica,sans-Serif" font-size="10.00">value_pair_data</text>
</a>
</g>
<!-- Node3&#45;&gt;Node2 -->
<g id="edge4" class="edge"><title>Node3&#45;&gt;Node2</title>
<path fill="none" stroke="#9a32cd" stroke-dasharray="5,2" d="M51.8802,-137.357C60.4967,-121.97 72.6234,-100.315 79.2383,-88.5031"/>
<polygon fill="#9a32cd" stroke="#9a32cd" points="48.6502,-135.961 46.8179,-146.397 54.7578,-139.382 48.6502,-135.961"/>
<text text-anchor="middle" x="79" y="-115.5" font-family="Helvetica,sans-Serif" font-size="10.00"> data</text>
</g>
<!-- Node4 -->
<g id="node6" class="node"><title>Node4</title>
<a xlink:href="structin6__addr.html" target="_top" xlink:title="in6_addr">
<polygon fill="none" stroke="black" points="109.5,-214.5 109.5,-233.5 162.5,-233.5 162.5,-214.5 109.5,-214.5"/>
<text text-anchor="middle" x="136" y="-221.5" font-family="Helvetica,sans-Serif" font-size="10.00">in6_addr</text>
</a>
</g>
<!-- Node4&#45;&gt;Node3 -->
<g id="edge6" class="edge"><title>Node4&#45;&gt;Node3</title>
<path fill="none" stroke="#9a32cd" stroke-dasharray="5,2" d="M115.285,-208.455C96.6098,-195.343 69.775,-176.502 54.2919,-165.63"/>
<polygon fill="#9a32cd" stroke="#9a32cd" points="113.516,-211.49 123.711,-214.372 117.538,-205.761 113.516,-211.49"/>
<text text-anchor="middle" x="118" y="-187.5" font-family="Helvetica,sans-Serif" font-size="10.00"> ipv6addr</text>
</g>
<!-- Node6 -->
<g id="node11" class="node"><title>Node6</title>
<a xlink:href="structfr__ipaddr__t.html" target="_top" xlink:title="fr_ipaddr_t">
<polygon fill="none" stroke="black" points="160,-108.5 160,-127.5 222,-127.5 222,-108.5 160,-108.5"/>
<text text-anchor="middle" x="191" y="-115.5" font-family="Helvetica,sans-Serif" font-size="10.00">fr_ipaddr_t</text>
</a>
</g>
<!-- Node4&#45;&gt;Node6 -->
<g id="edge14" class="edge"><title>Node4&#45;&gt;Node6</title>
<path fill="none" stroke="#9a32cd" stroke-dasharray="5,2" d="M146.201,-205.433C152.618,-194.235 160.984,-179.368 168,-166 174.924,-152.808 182.416,-137.23 186.906,-127.736"/>
<polygon fill="#9a32cd" stroke="#9a32cd" points="143.109,-203.788 141.145,-214.199 149.173,-207.285 143.109,-203.788"/>
<text text-anchor="middle" x="176.5" y="-187.5" font-family="Helvetica,sans-Serif" font-size="10.00"> ip6addr</text>
</g>
<!-- Node5 -->
<g id="node9" class="node"><title>Node5</title>
<a xlink:href="structattr__flags.html" target="_top" xlink:title="attr_flags">
<polygon fill="none" stroke="black" points="102.5,-146.5 102.5,-165.5 159.5,-165.5 159.5,-146.5 102.5,-146.5"/>
<text text-anchor="middle" x="131" y="-153.5" font-family="Helvetica,sans-Serif" font-size="10.00">attr_flags</text>
</a>
</g>
<!-- Node5&#45;&gt;Node2 -->
<g id="edge10" class="edge"><title>Node5&#45;&gt;Node2</title>
<path fill="none" stroke="#9a32cd" stroke-dasharray="5,2" d="M120.218,-137.795C110.56,-122.384 96.8014,-100.428 89.3286,-88.5031"/>
<polygon fill="#9a32cd" stroke="#9a32cd" points="117.333,-139.781 125.609,-146.397 123.264,-136.064 117.333,-139.781"/>
<text text-anchor="middle" x="126.5" y="-115.5" font-family="Helvetica,sans-Serif" font-size="10.00"> flags</text>
</g>
<!-- Node6&#45;&gt;Node1 -->
<g id="edge12" class="edge"><title>Node6&#45;&gt;Node1</title>
<path fill="none" stroke="#9a32cd" stroke-dasharray="5,2" d="M184.959,-98.7056C177.356,-75.6785 164.602,-37.0531 158.904,-19.7943"/>
<polygon fill="#9a32cd" stroke="#9a32cd" points="181.677,-99.9272 188.136,-108.326 188.324,-97.7324 181.677,-99.9272"/>
<text text-anchor="middle" x="206.5" y="-82" font-family="Helvetica,sans-Serif" font-size="10.00"> dst_ipaddr</text>
<text text-anchor="middle" x="206.5" y="-71" font-family="Helvetica,sans-Serif" font-size="10.00">src_ipaddr</text>
</g>
</g>
</svg>
