<?xml version="1.0" encoding="UTF-8" standalone="no"?>
<!DOCTYPE svg PUBLIC "-//W3C//DTD SVG 1.1//EN"
 "http://www.w3.org/Graphics/SVG/1.1/DTD/svg11.dtd">
<!-- Generated by graphviz version 2.28.0 (20111211.2114)
 -->
<!-- Title: G Pages: 1 -->
<svg width="186pt" height="264pt"
 viewBox="0.00 0.00 186.00 264.00" xmlns="http://www.w3.org/2000/svg" xmlns:xlink="http://www.w3.org/1999/xlink">
<g id="graph1" class="graph" transform="scale(1 1) rotate(0) translate(4 260)">
<title>G</title>
<!-- Node1 -->
<g id="node1" class="node"><title>Node1</title>
<polygon fill="#bfbfbf" stroke="black" points="69.5,-0.5 69.5,-19.5 146.5,-19.5 146.5,-0.5 69.5,-0.5"/>
<text text-anchor="middle" x="108" y="-7.5" font-family="Helvetica,sans-Serif" font-size="10.00">peap_tunnel_t</text>
</g>
<!-- Node2 -->
<g id="node2" class="node"><title>Node2</title>
<a xlink:href="structvalue__pair.html" target="_top" xlink:title="value_pair">
<polygon fill="none" stroke="black" points="77.5,-100.5 77.5,-119.5 138.5,-119.5 138.5,-100.5 77.5,-100.5"/>
<text text-anchor="middle" x="108" y="-107.5" font-family="Helvetica,sans-Serif" font-size="10.00">value_pair</text>
</a>
</g>
<!-- Node2&#45;&gt;Node1 -->
<g id="edge2" class="edge"><title>Node2&#45;&gt;Node1</title>
<path fill="none" stroke="#9a32cd" stroke-dasharray="5,2" d="M108,-90.2203C108,-68.9514 108,-35.2197 108,-19.5374"/>
<polygon fill="#9a32cd" stroke="#9a32cd" points="104.5,-90.3031 108,-100.303 111.5,-90.3032 104.5,-90.3031"/>
<text text-anchor="middle" x="141.5" y="-74" font-family="Helvetica,sans-Serif" font-size="10.00"> soh_reply_vps</text>
<text text-anchor="middle" x="141.5" y="-63" font-family="Helvetica,sans-Serif" font-size="10.00">username</text>
<text text-anchor="middle" x="141.5" y="-52" font-family="Helvetica,sans-Serif" font-size="10.00">accept_vps</text>
<text text-anchor="middle" x="141.5" y="-41" font-family="Helvetica,sans-Serif" font-size="10.00">state</text>
</g>
<!-- Node2&#45;&gt;Node2 -->
<g id="edge8" class="edge"><title>Node2&#45;&gt;Node2</title>
<path fill="none" stroke="#9a32cd" stroke-dasharray="5,2" d="M149.201,-115.225C153.353,-114.186 156,-112.445 156,-110 156,-105.883 148.492,-103.76 138.931,-103.631"/>
<polygon fill="#9a32cd" stroke="#9a32cd" points="148.482,-111.783 138.931,-116.369 149.258,-118.74 148.482,-111.783"/>
<text text-anchor="middle" x="167" y="-107.5" font-family="Helvetica,sans-Serif" font-size="10.00"> next</text>
</g>
<!-- Node3 -->
<g id="node4" class="node"><title>Node3</title>
<a xlink:href="unionvalue__pair__data.html" target="_top" xlink:title="value_pair_data">
<polygon fill="none" stroke="black" points="-0.5,-168.5 -0.5,-187.5 84.5,-187.5 84.5,-168.5 -0.5,-168.5"/>
<text text-anchor="middle" x="42" y="-175.5" font-family="Helvetica,sans-Serif" font-size="10.00">value_pair_data</text>
</a>
</g>
<!-- Node3&#45;&gt;Node2 -->
<g id="edge4" class="edge"><title>Node3&#45;&gt;Node2</title>
<path fill="none" stroke="#9a32cd" stroke-dasharray="5,2" d="M57.9526,-161.047C70.8889,-148.111 88.6433,-130.357 99.1589,-119.841"/>
<polygon fill="#9a32cd" stroke="#9a32cd" points="55.2246,-158.826 50.6283,-168.372 60.1743,-163.775 55.2246,-158.826"/>
<text text-anchor="middle" x="92" y="-141.5" font-family="Helvetica,sans-Serif" font-size="10.00"> data</text>
</g>
<!-- Node4 -->
<g id="node6" class="node"><title>Node4</title>
<a xlink:href="structin6__addr.html" target="_top" xlink:title="in6_addr">
<polygon fill="none" stroke="black" points="15.5,-236.5 15.5,-255.5 68.5,-255.5 68.5,-236.5 15.5,-236.5"/>
<text text-anchor="middle" x="42" y="-243.5" font-family="Helvetica,sans-Serif" font-size="10.00">in6_addr</text>
</a>
</g>
<!-- Node4&#45;&gt;Node3 -->
<g id="edge6" class="edge"><title>Node4&#45;&gt;Node3</title>
<path fill="none" stroke="#9a32cd" stroke-dasharray="5,2" d="M42,-226.041C42,-213.472 42,-197.563 42,-187.841"/>
<polygon fill="#9a32cd" stroke="#9a32cd" points="38.5001,-226.372 42,-236.372 45.5001,-226.372 38.5001,-226.372"/>
<text text-anchor="middle" x="62" y="-209.5" font-family="Helvetica,sans-Serif" font-size="10.00"> ipv6addr</text>
</g>
<!-- Node5 -->
<g id="node9" class="node"><title>Node5</title>
<a xlink:href="structattr__flags.html" target="_top" xlink:title="attr_flags">
<polygon fill="none" stroke="black" points="102.5,-168.5 102.5,-187.5 159.5,-187.5 159.5,-168.5 102.5,-168.5"/>
<text text-anchor="middle" x="131" y="-175.5" font-family="Helvetica,sans-Serif" font-size="10.00">attr_flags</text>
</a>
</g>
<!-- Node5&#45;&gt;Node2 -->
<g id="edge10" class="edge"><title>Node5&#45;&gt;Node2</title>
<path fill="none" stroke="#9a32cd" stroke-dasharray="5,2" d="M124.66,-158.807C120.24,-146.124 114.538,-129.762 111.081,-119.841"/>
<polygon fill="#9a32cd" stroke="#9a32cd" points="121.397,-160.08 127.993,-168.372 128.007,-157.777 121.397,-160.08"/>
<text text-anchor="middle" x="133.5" y="-141.5" font-family="Helvetica,sans-Serif" font-size="10.00"> flags</text>
</g>
</g>
</svg>
