<?xml version="1.0" encoding="UTF-8" standalone="no"?>
<!DOCTYPE svg PUBLIC "-//W3C//DTD SVG 1.1//EN"
 "http://www.w3.org/Graphics/SVG/1.1/DTD/svg11.dtd">
<!-- Generated by graphviz version 2.28.0 (20111211.2114)
 -->
<!-- Title: G Pages: 1 -->
<!--zoomable-->
<svg id="main" version="1.1" xmlns="http://www.w3.org/2000/svg" xmlns:xlink="http://www.w3.org/1999/xlink" xml:space="preserve" onload="init(evt)">
        <defs>
                <circle id="rim" cx="0" cy="0" r="7"/>
                <circle id="rim2" cx="0" cy="0" r="3.5"/>
                <g id="zoomPlus">
                        <use xlink:href="#rim" fill="#404040">
                                <set attributeName="fill" to="#808080" begin="zoomplus.mouseover" end="zoomplus.mouseout"/>
                        </use>
                        <path d="M-4,0h8M0,-4v8" fill="none" stroke="white" stroke-width="1.5" pointer-events="none"/>
                </g>
                <g id="zoomMin">
                        <use xlink:href="#rim" fill="#404040">
                                <set attributeName="fill" to="#808080" begin="zoomminus.mouseover" end="zoomminus.mouseout"/>
                        </use>
                        <path d="M-4,0h8" fill="none" stroke="white" stroke-width="1.5" pointer-events="none"/>
                </g>
                <g id="dirArrow">
                        <path fill="none" stroke="white" stroke-width="1.5" d="M0,-3.0v7 M-2.5,-0.5L0,-3.0L2.5,-0.5"/>
                </g>
               <g id="resetDef">
                       <use xlink:href="#rim2" fill="#404040">
                               <set attributeName="fill" to="#808080" begin="reset.mouseover" end="reset.mouseout"/>
                       </use>
               </g>
        </defs>

<script type="text/javascript">
var viewWidth = 1404;
var viewHeight = 851;
var sectionId = 'dynsection-0';
</script>
<script xlink:href="svgpan.js"/>
<svg id="graph" class="graph">
<g id="viewport">
<title>G</title>
<!-- Node1 -->
<g id="node1" class="node"><title>Node1</title>
<polygon fill="#bfbfbf" stroke="black" points="1300,-385.785 1300,-404.785 1396,-404.785 1396,-385.785 1300,-385.785"/>
<text text-anchor="middle" x="1348" y="-392.785" font-family="Helvetica,sans-Serif" font-size="10.00">eap_tunnel_data_t</text>
</g>
<!-- Node2 -->
<g id="node2" class="node"><title>Node2</title>
<a xlink:href="structEAP__HANDLER.html" target="_top" xlink:title="EAP_HANDLER">
<polygon fill="none" stroke="black" points="1110.5,-385.785 1110.5,-404.785 1201.5,-404.785 1201.5,-385.785 1110.5,-385.785"/>
<text text-anchor="middle" x="1156" y="-392.785" font-family="Helvetica,sans-Serif" font-size="10.00">EAP_HANDLER</text>
</a>
</g>
<!-- Node2&#45;&gt;Node1 -->
<g id="edge2" class="edge"><title>Node2&#45;&gt;Node1</title>
<path fill="none" stroke="#9a32cd" stroke-dasharray="5,2" d="M1211.9,-395.285C1239.7,-395.285 1273.11,-395.285 1299.75,-395.285"/>
<polygon fill="#9a32cd" stroke="#9a32cd" points="1211.55,-391.785 1201.55,-395.285 1211.55,-398.785 1211.55,-391.785"/>
<text text-anchor="middle" x="1251" y="-398.285" font-family="Helvetica,sans-Serif" font-size="10.00"> callback</text>
</g>
<!-- Node2&#45;&gt;Node2 -->
<g id="edge94" class="edge"><title>Node2&#45;&gt;Node2</title>
<path fill="none" stroke="#9a32cd" stroke-dasharray="5,2" d="M1139.7,-414.685C1140.79,-419.599 1146.22,-423.285 1156,-423.285 1171.64,-423.285 1176.16,-413.85 1169.56,-405.042"/>
<polygon fill="#9a32cd" stroke="#9a32cd" points="1143.08,-415.617 1142.44,-405.042 1136.34,-413.709 1143.08,-415.617"/>
<text text-anchor="middle" x="1156" y="-437.285" font-family="Helvetica,sans-Serif" font-size="10.00"> prev</text>
<text text-anchor="middle" x="1156" y="-426.285" font-family="Helvetica,sans-Serif" font-size="10.00">next</text>
</g>
<!-- Node24 -->
<g id="node71" class="node"><title>Node24</title>
<a xlink:href="structrlm__eap__t.html" target="_top" xlink:title="rlm_eap_t">
<polygon fill="none" stroke="black" points="1318.5,-746.785 1318.5,-765.785 1377.5,-765.785 1377.5,-746.785 1318.5,-746.785"/>
<text text-anchor="middle" x="1348" y="-753.785" font-family="Helvetica,sans-Serif" font-size="10.00">rlm_eap_t</text>
</a>
</g>
<!-- Node2&#45;&gt;Node24 -->
<g id="edge104" class="edge"><title>Node2&#45;&gt;Node24</title>
<path fill="none" stroke="#9a32cd" stroke-dasharray="5,2" d="M1184.67,-409.647C1213.41,-426.015 1257.54,-455.467 1282,-493.285 1337.68,-579.38 1345.67,-709.561 1346.81,-746.311"/>
<polygon fill="#9a32cd" stroke="#9a32cd" points="1186.36,-406.585 1175.92,-404.799 1182.97,-412.708 1186.36,-406.585"/>
<text text-anchor="middle" x="1251" y="-507.285" font-family="Helvetica,sans-Serif" font-size="10.00"> session_tail</text>
<text text-anchor="middle" x="1251" y="-496.285" font-family="Helvetica,sans-Serif" font-size="10.00">session_head</text>
</g>
<!-- Node3 -->
<g id="node4" class="node"><title>Node3</title>
<a xlink:href="structeap__server__ctx.html" target="_top" xlink:title="eap_server_ctx">
<polygon fill="none" stroke="black" points="940.5,-347.785 940.5,-366.785 1023.5,-366.785 1023.5,-347.785 940.5,-347.785"/>
<text text-anchor="middle" x="982" y="-354.785" font-family="Helvetica,sans-Serif" font-size="10.00">eap_server_ctx</text>
</a>
</g>
<!-- Node3&#45;&gt;Node2 -->
<g id="edge4" class="edge"><title>Node3&#45;&gt;Node2</title>
<path fill="none" stroke="#9a32cd" stroke-dasharray="5,2" d="M1033.62,-367.683C1052.03,-371.538 1072.97,-376.013 1092,-380.285 1099.68,-382.009 1107.87,-383.911 1115.72,-385.766"/>
<polygon fill="#9a32cd" stroke="#9a32cd" points="1034.19,-364.227 1023.69,-365.61 1032.76,-371.079 1034.19,-364.227"/>
<text text-anchor="middle" x="1067" y="-383.285" font-family="Helvetica,sans-Serif" font-size="10.00"> server_ctx</text>
</g>
<!-- Node4 -->
<g id="node6" class="node"><title>Node4</title>
<a xlink:href="structauth__req.html" target="_top" xlink:title="auth_req">
<polygon fill="none" stroke="black" points="955,-385.785 955,-404.785 1009,-404.785 1009,-385.785 955,-385.785"/>
<text text-anchor="middle" x="982" y="-392.785" font-family="Helvetica,sans-Serif" font-size="10.00">auth_req</text>
</a>
</g>
<!-- Node4&#45;&gt;Node2 -->
<g id="edge6" class="edge"><title>Node4&#45;&gt;Node2</title>
<path fill="none" stroke="#9a32cd" stroke-dasharray="5,2" d="M1019.13,-395.285C1045.65,-395.285 1081.84,-395.285 1110.2,-395.285"/>
<polygon fill="#9a32cd" stroke="#9a32cd" points="1019.12,-391.785 1009.12,-395.285 1019.12,-398.785 1019.12,-391.785"/>
<text text-anchor="middle" x="1067" y="-398.285" font-family="Helvetica,sans-Serif" font-size="10.00"> request</text>
</g>
<!-- Node4&#45;&gt;Node4 -->
<g id="edge80" class="edge"><title>Node4&#45;&gt;Node4</title>
<path fill="none" stroke="#9a32cd" stroke-dasharray="5,2" d="M968.372,-415.051C969.443,-419.781 973.985,-423.285 982,-423.285 995.152,-423.285 998.954,-413.85 993.406,-405.042"/>
<polygon fill="#9a32cd" stroke="#9a32cd" points="971.844,-415.563 970.594,-405.042 965.01,-414.046 971.844,-415.563"/>
<text text-anchor="middle" x="982" y="-470.285" font-family="Helvetica,sans-Serif" font-size="10.00"> coa</text>
<text text-anchor="middle" x="982" y="-459.285" font-family="Helvetica,sans-Serif" font-size="10.00">radlog</text>
<text text-anchor="middle" x="982" y="-448.285" font-family="Helvetica,sans-Serif" font-size="10.00">handle</text>
<text text-anchor="middle" x="982" y="-437.285" font-family="Helvetica,sans-Serif" font-size="10.00">parent</text>
<text text-anchor="middle" x="982" y="-426.285" font-family="Helvetica,sans-Serif" font-size="10.00">process</text>
</g>
<!-- Node5 -->
<g id="node8" class="node"><title>Node5</title>
<a xlink:href="structradclient.html" target="_top" xlink:title="radclient">
<polygon fill="none" stroke="black" points="808.5,-459.785 808.5,-478.785 861.5,-478.785 861.5,-459.785 808.5,-459.785"/>
<text text-anchor="middle" x="835" y="-466.785" font-family="Helvetica,sans-Serif" font-size="10.00">radclient</text>
</a>
</g>
<!-- Node5&#45;&gt;Node4 -->
<g id="edge8" class="edge"><title>Node5&#45;&gt;Node4</title>
<path fill="none" stroke="#9a32cd" stroke-dasharray="5,2" d="M863.789,-455.103C892.603,-440.398 936.875,-417.804 961.952,-405.006"/>
<polygon fill="#9a32cd" stroke="#9a32cd" points="861.975,-452.099 854.659,-459.762 865.158,-458.334 861.975,-452.099"/>
<text text-anchor="middle" x="908" y="-441.285" font-family="Helvetica,sans-Serif" font-size="10.00"> client</text>
</g>
<!-- Node6 -->
<g id="node10" class="node"><title>Node6</title>
<a xlink:href="structhome__pool__t.html" target="_top" xlink:title="home_pool_t">
<polygon fill="none" stroke="black" points="621,-459.785 621,-478.785 693,-478.785 693,-459.785 621,-459.785"/>
<text text-anchor="middle" x="657" y="-466.785" font-family="Helvetica,sans-Serif" font-size="10.00">home_pool_t</text>
</a>
</g>
<!-- Node6&#45;&gt;Node4 -->
<g id="edge82" class="edge"><title>Node6&#45;&gt;Node4</title>
<path fill="none" stroke="#9a32cd" stroke-dasharray="5,2" d="M703.243,-458.919C771.739,-443.227 899.598,-413.934 954.663,-401.319"/>
<polygon fill="#9a32cd" stroke="#9a32cd" points="702.147,-455.58 693.182,-461.224 703.711,-462.403 702.147,-455.58"/>
<text text-anchor="middle" x="835" y="-439.285" font-family="Helvetica,sans-Serif" font-size="10.00"> home_pool</text>
</g>
<!-- Node6&#45;&gt;Node5 -->
<g id="edge10" class="edge"><title>Node6&#45;&gt;Node5</title>
<path fill="none" stroke="#9a32cd" stroke-dasharray="5,2" d="M703.599,-469.285C736.909,-469.285 780.869,-469.285 808.284,-469.285"/>
<polygon fill="#9a32cd" stroke="#9a32cd" points="703.193,-465.785 693.193,-469.285 703.193,-472.785 703.193,-465.785"/>
<text text-anchor="middle" x="745" y="-472.285" font-family="Helvetica,sans-Serif" font-size="10.00"> coa_pool</text>
</g>
<!-- Node7 -->
<g id="node12" class="node"><title>Node7</title>
<a xlink:href="structhome__server.html" target="_top" xlink:title="home_server">
<polygon fill="none" stroke="black" points="470.5,-583.785 470.5,-602.785 543.5,-602.785 543.5,-583.785 470.5,-583.785"/>
<text text-anchor="middle" x="507" y="-590.785" font-family="Helvetica,sans-Serif" font-size="10.00">home_server</text>
</a>
</g>
<!-- Node7&#45;&gt;Node4 -->
<g id="edge84" class="edge"><title>Node7&#45;&gt;Node4</title>
<path fill="none" stroke="#9a32cd" stroke-dasharray="5,2" d="M517.765,-612.103C526.894,-627.447 542.1,-648.038 562,-657.285 612.682,-680.834 645.235,-669.778 776,-616.285 824.185,-596.573 837.955,-590.822 876,-555.285 901.863,-531.126 902.433,-519.775 922,-490.285 942.395,-459.547 965.016,-422.105 975.324,-404.843"/>
<polygon fill="#9a32cd" stroke="#9a32cd" points="520.586,-609.975 512.655,-602.95 514.474,-613.387 520.586,-609.975"/>
<text text-anchor="middle" x="745" y="-643.285" font-family="Helvetica,sans-Serif" font-size="10.00"> home_server</text>
</g>
<!-- Node7&#45;&gt;Node5 -->
<g id="edge44" class="edge"><title>Node7&#45;&gt;Node5</title>
<path fill="none" stroke="#9a32cd" stroke-dasharray="5,2" d="M554.023,-602.153C613,-610.661 714.898,-615.303 776,-561.285 801.035,-539.152 772.87,-514.172 794,-488.285 797.792,-483.639 802.986,-480.06 808.377,-477.33"/>
<polygon fill="#9a32cd" stroke="#9a32cd" points="554.298,-598.654 543.882,-600.591 553.232,-605.573 554.298,-598.654"/>
<text text-anchor="middle" x="657" y="-610.285" font-family="Helvetica,sans-Serif" font-size="10.00"> coa_server</text>
</g>
<!-- Node7&#45;&gt;Node6 -->
<g id="edge12" class="edge"><title>Node7&#45;&gt;Node6</title>
<path fill="none" stroke="#9a32cd" stroke-dasharray="5,2" d="M517.279,-574.649C529.183,-551.371 549.752,-513.367 562,-503.285 578.882,-489.388 601.917,-480.934 620.959,-475.932"/>
<polygon fill="#9a32cd" stroke="#9a32cd" points="514.143,-573.096 512.757,-583.6 520.39,-576.252 514.143,-573.096"/>
<text text-anchor="middle" x="581" y="-517.285" font-family="Helvetica,sans-Serif" font-size="10.00"> fallback</text>
<text text-anchor="middle" x="581" y="-506.285" font-family="Helvetica,sans-Serif" font-size="10.00">servers</text>
</g>
<!-- Node8 -->
<g id="node14" class="node"><title>Node8</title>
<a xlink:href="structconf__part.html" target="_top" xlink:title="conf_part">
<polygon fill="none" stroke="black" points="314.5,-498.785 314.5,-517.785 371.5,-517.785 371.5,-498.785 314.5,-498.785"/>
<text text-anchor="middle" x="343" y="-505.785" font-family="Helvetica,sans-Serif" font-size="10.00">conf_part</text>
</a>
</g>
<!-- Node8&#45;&gt;Node5 -->
<g id="edge48" class="edge"><title>Node8&#45;&gt;Node5</title>
<path fill="none" stroke="#9a32cd" stroke-dasharray="5,2" d="M381.95,-512.145C425.401,-516.355 498.746,-522.822 562,-525.285 658.768,-529.052 681.957,-507.396 776,-484.285 786.605,-481.678 798.268,-478.687 808.337,-476.064"/>
<polygon fill="#9a32cd" stroke="#9a32cd" points="382.128,-508.645 371.834,-511.153 381.444,-515.612 382.128,-508.645"/>
<text text-anchor="middle" x="581" y="-528.285" font-family="Helvetica,sans-Serif" font-size="10.00"> cs</text>
</g>
<!-- Node8&#45;&gt;Node6 -->
<g id="edge42" class="edge"><title>Node8&#45;&gt;Node6</title>
<path fill="none" stroke="#9a32cd" stroke-dasharray="5,2" d="M381.641,-503.58C442.494,-495.973 561.627,-481.081 620.847,-473.679"/>
<polygon fill="#9a32cd" stroke="#9a32cd" points="381.177,-500.11 371.688,-504.824 382.045,-507.056 381.177,-500.11"/>
<text text-anchor="middle" x="507" y="-494.285" font-family="Helvetica,sans-Serif" font-size="10.00"> cs</text>
</g>
<!-- Node8&#45;&gt;Node7 -->
<g id="edge14" class="edge"><title>Node8&#45;&gt;Node7</title>
<path fill="none" stroke="#9a32cd" stroke-dasharray="5,2" d="M368.729,-523.179C379.995,-529.825 393.565,-537.638 406,-544.285 433.111,-558.774 465.121,-574.167 485.486,-583.752"/>
<polygon fill="#9a32cd" stroke="#9a32cd" points="370.268,-520.022 359.883,-517.922 366.691,-526.039 370.268,-520.022"/>
<text text-anchor="middle" x="429" y="-569.285" font-family="Helvetica,sans-Serif" font-size="10.00"> cs</text>
</g>
<!-- Node8&#45;&gt;Node8 -->
<g id="edge16" class="edge"><title>Node8&#45;&gt;Node8</title>
<path fill="none" stroke="#9a32cd" stroke-dasharray="5,2" d="M327.075,-527.685C328.138,-532.599 333.447,-536.285 343,-536.285 358.285,-536.285 362.704,-526.85 356.255,-518.042"/>
<polygon fill="#9a32cd" stroke="#9a32cd" points="330.449,-528.613 329.745,-518.042 323.703,-526.745 330.449,-528.613"/>
<text text-anchor="middle" x="343" y="-539.285" font-family="Helvetica,sans-Serif" font-size="10.00"> template</text>
</g>
<!-- Node9 -->
<g id="node17" class="node"><title>Node9</title>
<a xlink:href="structconf__item.html" target="_top" xlink:title="conf_item">
<polygon fill="none" stroke="black" points="477.5,-423.785 477.5,-442.785 536.5,-442.785 536.5,-423.785 477.5,-423.785"/>
<text text-anchor="middle" x="507" y="-430.785" font-family="Helvetica,sans-Serif" font-size="10.00">conf_item</text>
</a>
</g>
<!-- Node8&#45;&gt;Node9 -->
<g id="edge20" class="edge"><title>Node8&#45;&gt;Node9</title>
<path fill="none" stroke="#9a32cd" stroke-dasharray="5,2" d="M375.827,-494.592C397.429,-485.188 426.575,-472.283 452,-460.285 463.754,-454.738 476.791,-448.23 487.11,-442.993"/>
<polygon fill="#9a32cd" stroke="#9a32cd" points="374.254,-491.459 366.474,-498.65 377.041,-497.881 374.254,-491.459"/>
<text text-anchor="middle" x="429" y="-483.285" font-family="Helvetica,sans-Serif" font-size="10.00"> parent</text>
</g>
<!-- Node17 -->
<g id="node42" class="node"><title>Node17</title>
<a xlink:href="structmain__config__t.html" target="_top" xlink:title="main_config_t">
<polygon fill="none" stroke="black" points="618.5,-242.785 618.5,-261.785 695.5,-261.785 695.5,-242.785 618.5,-242.785"/>
<text text-anchor="middle" x="657" y="-249.785" font-family="Helvetica,sans-Serif" font-size="10.00">main_config_t</text>
</a>
</g>
<!-- Node8&#45;&gt;Node17 -->
<g id="edge60" class="edge"><title>Node8&#45;&gt;Node17</title>
<path fill="none" stroke="#9a32cd" stroke-dasharray="5,2" d="M345.192,-488.459C349.733,-433.792 371.152,-282.374 470,-243.285 520.508,-223.312 584.828,-233.429 623.079,-242.745"/>
<polygon fill="#9a32cd" stroke="#9a32cd" points="341.691,-488.353 344.457,-498.58 348.672,-488.86 341.691,-488.353"/>
<text text-anchor="middle" x="507" y="-246.285" font-family="Helvetica,sans-Serif" font-size="10.00"> config</text>
</g>
<!-- Node18 -->
<g id="node44" class="node"><title>Node18</title>
<a xlink:href="structrad__listen__t.html" target="_top" xlink:title="rad_listen_t">
<polygon fill="none" stroke="black" points="473.5,-263.785 473.5,-282.785 540.5,-282.785 540.5,-263.785 473.5,-263.785"/>
<text text-anchor="middle" x="507" y="-270.785" font-family="Helvetica,sans-Serif" font-size="10.00">rad_listen_t</text>
</a>
</g>
<!-- Node8&#45;&gt;Node18 -->
<g id="edge58" class="edge"><title>Node8&#45;&gt;Node18</title>
<path fill="none" stroke="#9a32cd" stroke-dasharray="5,2" d="M347.858,-488.876C354.957,-456.942 372.522,-392.461 406,-348.285 428.413,-318.709 465.502,-295.181 487.66,-282.817"/>
<polygon fill="#9a32cd" stroke="#9a32cd" points="344.419,-488.22 345.774,-498.728 351.268,-489.668 344.419,-488.22"/>
<text text-anchor="middle" x="429" y="-351.285" font-family="Helvetica,sans-Serif" font-size="10.00"> cs</text>
</g>
<!-- Node25 -->
<g id="node73" class="node"><title>Node25</title>
<a xlink:href="structeap__types__t.html" target="_top" xlink:title="eap_types_t">
<polygon fill="none" stroke="black" points="472,-803.785 472,-822.785 542,-822.785 542,-803.785 472,-803.785"/>
<text text-anchor="middle" x="507" y="-810.785" font-family="Helvetica,sans-Serif" font-size="10.00">eap_types_t</text>
</a>
</g>
<!-- Node8&#45;&gt;Node25 -->
<g id="edge100" class="edge"><title>Node8&#45;&gt;Node25</title>
<path fill="none" stroke="#9a32cd" stroke-dasharray="5,2" d="M351.269,-527.508C360.765,-550.369 379.378,-588.425 406,-612.285 422.736,-627.284 437.232,-616.344 452,-633.285 497.451,-685.422 504.657,-774.649 505.791,-803.781"/>
<polygon fill="#9a32cd" stroke="#9a32cd" points="354.398,-525.903 347.448,-517.906 347.894,-528.492 354.398,-525.903"/>
<text text-anchor="middle" x="429" y="-636.285" font-family="Helvetica,sans-Serif" font-size="10.00"> cs</text>
</g>
<!-- Node9&#45;&gt;Node8 -->
<g id="edge18" class="edge"><title>Node9&#45;&gt;Node8</title>
<path fill="none" stroke="#9a32cd" stroke-dasharray="5,2" d="M467.34,-422.21C447.997,-418.788 424.77,-418.014 406,-427.285 375.355,-442.42 355.678,-480.772 347.849,-498.732"/>
<polygon fill="#9a32cd" stroke="#9a32cd" points="466.844,-425.681 477.344,-424.269 468.255,-418.825 466.844,-425.681"/>
<text text-anchor="middle" x="429" y="-452.285" font-family="Helvetica,sans-Serif" font-size="10.00"> tail</text>
<text text-anchor="middle" x="429" y="-441.285" font-family="Helvetica,sans-Serif" font-size="10.00">item</text>
<text text-anchor="middle" x="429" y="-430.285" font-family="Helvetica,sans-Serif" font-size="10.00">children</text>
</g>
<!-- Node9&#45;&gt;Node9 -->
<g id="edge22" class="edge"><title>Node9&#45;&gt;Node9</title>
<path fill="none" stroke="#9a32cd" stroke-dasharray="5,2" d="M493.372,-453.051C494.443,-457.781 498.985,-461.285 507,-461.285 520.152,-461.285 523.954,-451.85 518.406,-443.042"/>
<polygon fill="#9a32cd" stroke="#9a32cd" points="496.844,-453.563 495.594,-443.042 490.01,-452.046 496.844,-453.563"/>
<text text-anchor="middle" x="507" y="-464.285" font-family="Helvetica,sans-Serif" font-size="10.00"> next</text>
</g>
<!-- Node10 -->
<g id="node21" class="node"><title>Node10</title>
<a xlink:href="structCONF__PARSER.html" target="_top" xlink:title="CONF_PARSER">
<polygon fill="none" stroke="black" points="116,-498.785 116,-517.785 208,-517.785 208,-498.785 116,-498.785"/>
<text text-anchor="middle" x="162" y="-505.785" font-family="Helvetica,sans-Serif" font-size="10.00">CONF_PARSER</text>
</a>
</g>
<!-- Node10&#45;&gt;Node8 -->
<g id="edge24" class="edge"><title>Node10&#45;&gt;Node8</title>
<path fill="none" stroke="#9a32cd" stroke-dasharray="5,2" d="M218.261,-508.285C250.16,-508.285 288.893,-508.285 314.43,-508.285"/>
<polygon fill="#9a32cd" stroke="#9a32cd" points="218.169,-504.785 208.169,-508.285 218.169,-511.785 218.169,-504.785"/>
<text text-anchor="middle" x="253" y="-511.285" font-family="Helvetica,sans-Serif" font-size="10.00"> variables</text>
</g>
<!-- Node11 -->
<g id="node23" class="node"><title>Node11</title>
<a xlink:href="structrbtree__t.html" target="_top" xlink:title="rbtree_t">
<polygon fill="none" stroke="black" points="137,-611.785 137,-630.785 187,-630.785 187,-611.785 137,-611.785"/>
<text text-anchor="middle" x="162" y="-618.785" font-family="Helvetica,sans-Serif" font-size="10.00">rbtree_t</text>
</a>
</g>
<!-- Node11&#45;&gt;Node8 -->
<g id="edge26" class="edge"><title>Node11&#45;&gt;Node8</title>
<path fill="none" stroke="#9a32cd" stroke-dasharray="5,2" d="M187.005,-606.131C224.435,-582.502 295.634,-537.555 326.777,-517.895"/>
<polygon fill="#9a32cd" stroke="#9a32cd" points="184.849,-603.353 178.261,-611.65 188.586,-609.272 184.849,-603.353"/>
<text text-anchor="middle" x="253" y="-617.285" font-family="Helvetica,sans-Serif" font-size="10.00"> data_tree</text>
<text text-anchor="middle" x="253" y="-606.285" font-family="Helvetica,sans-Serif" font-size="10.00">name2_tree</text>
<text text-anchor="middle" x="253" y="-595.285" font-family="Helvetica,sans-Serif" font-size="10.00">section_tree</text>
<text text-anchor="middle" x="253" y="-584.285" font-family="Helvetica,sans-Serif" font-size="10.00">pair_tree</text>
</g>
<!-- Node11&#45;&gt;Node24 -->
<g id="edge108" class="edge"><title>Node11&#45;&gt;Node24</title>
<path fill="none" stroke="#9a32cd" stroke-dasharray="5,2" d="M174.812,-639.334C200.471,-676.112 265.211,-756.285 342,-756.285 342,-756.285 342,-756.285 1157,-756.285 1214.23,-756.285 1281.16,-756.285 1318.35,-756.285"/>
<polygon fill="#9a32cd" stroke="#9a32cd" points="177.661,-637.299 169.147,-630.994 171.871,-641.232 177.661,-637.299"/>
<text text-anchor="middle" x="745" y="-770.285" font-family="Helvetica,sans-Serif" font-size="10.00"> session_tree</text>
<text text-anchor="middle" x="745" y="-759.285" font-family="Helvetica,sans-Serif" font-size="10.00">handler_tree</text>
</g>
<!-- Node12 -->
<g id="node25" class="node"><title>Node12</title>
<a xlink:href="structrbnode__t.html" target="_top" xlink:title="rbnode_t">
<polygon fill="none" stroke="black" points="0,-611.785 0,-630.785 54,-630.785 54,-611.785 0,-611.785"/>
<text text-anchor="middle" x="27" y="-618.785" font-family="Helvetica,sans-Serif" font-size="10.00">rbnode_t</text>
</a>
</g>
<!-- Node12&#45;&gt;Node11 -->
<g id="edge28" class="edge"><title>Node12&#45;&gt;Node11</title>
<path fill="none" stroke="#9a32cd" stroke-dasharray="5,2" d="M64.3432,-621.285C87.3013,-621.285 116.343,-621.285 136.572,-621.285"/>
<polygon fill="#9a32cd" stroke="#9a32cd" points="64.2766,-617.785 54.2765,-621.285 64.2765,-624.785 64.2766,-617.785"/>
<text text-anchor="middle" x="85" y="-624.285" font-family="Helvetica,sans-Serif" font-size="10.00"> Root</text>
</g>
<!-- Node12&#45;&gt;Node12 -->
<g id="edge30" class="edge"><title>Node12&#45;&gt;Node12</title>
<path fill="none" stroke="#9a32cd" stroke-dasharray="5,2" d="M16.3189,-641.051C17.1578,-645.781 20.7182,-649.285 27,-649.285 37.3086,-649.285 40.2884,-639.85 35.9395,-631.042"/>
<polygon fill="#9a32cd" stroke="#9a32cd" points="19.7944,-641.494 18.0605,-631.042 12.898,-640.294 19.7944,-641.494"/>
<text text-anchor="middle" x="27" y="-674.285" font-family="Helvetica,sans-Serif" font-size="10.00"> Left</text>
<text text-anchor="middle" x="27" y="-663.285" font-family="Helvetica,sans-Serif" font-size="10.00">Right</text>
<text text-anchor="middle" x="27" y="-652.285" font-family="Helvetica,sans-Serif" font-size="10.00">Parent</text>
</g>
<!-- Node13 -->
<g id="node28" class="node"><title>Node13</title>
<a xlink:href="structfr__socket__limit__t.html" target="_top" xlink:title="fr_socket_limit_t">
<polygon fill="none" stroke="black" points="298.5,-610.785 298.5,-629.785 387.5,-629.785 387.5,-610.785 298.5,-610.785"/>
<text text-anchor="middle" x="343" y="-617.785" font-family="Helvetica,sans-Serif" font-size="10.00">fr_socket_limit_t</text>
</a>
</g>
<!-- Node13&#45;&gt;Node5 -->
<g id="edge46" class="edge"><title>Node13&#45;&gt;Node5</title>
<path fill="none" stroke="#9a32cd" stroke-dasharray="5,2" d="M363.285,-636.369C371.171,-643.201 380.244,-651.399 388,-659.285 396.62,-668.049 394.832,-675.148 406,-680.285 470.146,-709.788 445.366,-694.303 696,-619.285 732.089,-608.483 751.629,-620.01 776,-591.285 806.064,-555.848 765.869,-525.275 794,-488.285 797.63,-483.511 802.761,-479.883 808.142,-477.145"/>
<polygon fill="#9a32cd" stroke="#9a32cd" points="365.481,-633.642 355.602,-629.813 360.937,-638.967 365.481,-633.642"/>
<text text-anchor="middle" x="581" y="-664.285" font-family="Helvetica,sans-Serif" font-size="10.00"> limit</text>
</g>
<!-- Node13&#45;&gt;Node7 -->
<g id="edge32" class="edge"><title>Node13&#45;&gt;Node7</title>
<path fill="none" stroke="#9a32cd" stroke-dasharray="5,2" d="M380.089,-607.782C388.505,-605.271 397.495,-602.908 406,-601.285 427.043,-597.268 450.95,-595.265 470.111,-594.267"/>
<polygon fill="#9a32cd" stroke="#9a32cd" points="379.039,-604.443 370.535,-610.763 381.124,-611.125 379.039,-604.443"/>
<text text-anchor="middle" x="429" y="-604.285" font-family="Helvetica,sans-Serif" font-size="10.00"> limit</text>
</g>
<!-- Node14 -->
<g id="node30" class="node"><title>Node14</title>
<a xlink:href="structfr__event__t.html" target="_top" xlink:title="fr_event_t">
<polygon fill="none" stroke="black" points="313,-668.785 313,-687.785 373,-687.785 373,-668.785 313,-668.785"/>
<text text-anchor="middle" x="343" y="-675.785" font-family="Helvetica,sans-Serif" font-size="10.00">fr_event_t</text>
</a>
</g>
<!-- Node14&#45;&gt;Node4 -->
<g id="edge88" class="edge"><title>Node14&#45;&gt;Node4</title>
<path fill="none" stroke="#9a32cd" stroke-dasharray="5,2" d="M373.67,-691.725C383.721,-695.616 395.152,-699.337 406,-701.285 426.123,-704.897 431.575,-702.171 452,-701.285 597.307,-694.979 640.658,-708.544 776,-655.285 824.231,-636.305 838.489,-631.052 876,-595.285 902.674,-569.85 904.15,-558.53 922,-526.285 946.161,-482.639 968.581,-427.234 977.234,-405.082"/>
<polygon fill="#9a32cd" stroke="#9a32cd" points="374.733,-688.379 364.152,-687.837 372.086,-694.859 374.733,-688.379"/>
<text text-anchor="middle" x="657" y="-698.285" font-family="Helvetica,sans-Serif" font-size="10.00"> ev</text>
</g>
<!-- Node14&#45;&gt;Node7 -->
<g id="edge34" class="edge"><title>Node14&#45;&gt;Node7</title>
<path fill="none" stroke="#9a32cd" stroke-dasharray="5,2" d="M383.11,-671.519C404.495,-666.665 430.855,-658.732 452,-646.285 471.471,-634.823 489.154,-614.838 498.663,-602.957"/>
<polygon fill="#9a32cd" stroke="#9a32cd" points="382.107,-668.153 373.056,-673.66 383.566,-675 382.107,-668.153"/>
<text text-anchor="middle" x="429" y="-668.285" font-family="Helvetica,sans-Serif" font-size="10.00"> ev</text>
</g>
<!-- Node14&#45;&gt;Node14 -->
<g id="edge36" class="edge"><title>Node14&#45;&gt;Node14</title>
<path fill="none" stroke="#9a32cd" stroke-dasharray="5,2" d="M327.075,-697.685C328.138,-702.599 333.447,-706.285 343,-706.285 358.285,-706.285 362.704,-696.85 356.255,-688.042"/>
<polygon fill="#9a32cd" stroke="#9a32cd" points="330.449,-698.613 329.745,-688.042 323.703,-696.745 330.449,-698.613"/>
<text text-anchor="middle" x="343" y="-709.285" font-family="Helvetica,sans-Serif" font-size="10.00"> ev_p</text>
</g>
<!-- Node15 -->
<g id="node33" class="node"><title>Node15</title>
<a xlink:href="structfr__ipaddr__t.html" target="_top" xlink:title="fr_ipaddr_t">
<polygon fill="none" stroke="black" points="312,-148.785 312,-167.785 374,-167.785 374,-148.785 312,-148.785"/>
<text text-anchor="middle" x="343" y="-155.785" font-family="Helvetica,sans-Serif" font-size="10.00">fr_ipaddr_t</text>
</a>
</g>
<!-- Node15&#45;&gt;Node2 -->
<g id="edge110" class="edge"><title>Node15&#45;&gt;Node2</title>
<path fill="none" stroke="#9a32cd" stroke-dasharray="5,2" d="M363.88,-142.172C393.145,-120.132 450.387,-83.2846 506,-83.2846 506,-83.2846 506,-83.2846 983,-83.2846 1124.64,-83.2846 1150.51,-332.943 1154.39,-385.605"/>
<polygon fill="#9a32cd" stroke="#9a32cd" points="361.496,-139.592 355.729,-148.48 365.78,-145.128 361.496,-139.592"/>
<text text-anchor="middle" x="745" y="-86.2846" font-family="Helvetica,sans-Serif" font-size="10.00"> src_ipaddr</text>
</g>
<!-- Node15&#45;&gt;Node5 -->
<g id="edge50" class="edge"><title>Node15&#45;&gt;Node5</title>
<path fill="none" stroke="#9a32cd" stroke-dasharray="5,2" d="M357.061,-176.074C378.798,-206.242 422.882,-269.861 452,-328.285 462.163,-348.676 453.038,-361.072 470,-376.285 521.106,-422.12 734.274,-455.457 808.435,-465.859"/>
<polygon fill="#9a32cd" stroke="#9a32cd" points="359.781,-173.864 351.073,-167.829 354.117,-177.977 359.781,-173.864"/>
<text text-anchor="middle" x="581" y="-429.285" font-family="Helvetica,sans-Serif" font-size="10.00"> ipaddr</text>
</g>
<!-- Node15&#45;&gt;Node7 -->
<g id="edge38" class="edge"><title>Node15&#45;&gt;Node7</title>
<path fill="none" stroke="#9a32cd" stroke-dasharray="5,2" d="M346.008,-178.347C350.692,-216.715 365.229,-301.78 406,-359.285 420.704,-380.024 439.018,-371.426 452,-393.285 481.786,-443.435 452.412,-467.671 470,-523.285 477.252,-546.217 491.548,-570.703 499.775,-583.768"/>
<polygon fill="#9a32cd" stroke="#9a32cd" points="349.443,-177.57 344.852,-168.022 342.486,-178.349 349.443,-177.57"/>
<text text-anchor="middle" x="429" y="-408.285" font-family="Helvetica,sans-Serif" font-size="10.00"> ipaddr</text>
<text text-anchor="middle" x="429" y="-397.285" font-family="Helvetica,sans-Serif" font-size="10.00">src_ipaddr</text>
</g>
<!-- Node15&#45;&gt;Node17 -->
<g id="edge62" class="edge"><title>Node15&#45;&gt;Node17</title>
<path fill="none" stroke="#9a32cd" stroke-dasharray="5,2" d="M384.465,-163.357C436.234,-170.892 527.833,-187.786 600,-220.285 614.498,-226.814 630.143,-235.945 641.201,-242.783"/>
<polygon fill="#9a32cd" stroke="#9a32cd" points="384.742,-159.861 374.351,-161.93 383.765,-166.793 384.742,-159.861"/>
<text text-anchor="middle" x="507" y="-202.285" font-family="Helvetica,sans-Serif" font-size="10.00"> myip</text>
</g>
<!-- Node19 -->
<g id="node50" class="node"><title>Node19</title>
<a xlink:href="structradius__packet.html" target="_top" xlink:title="radius_packet">
<polygon fill="none" stroke="black" points="618.5,-119.785 618.5,-138.785 695.5,-138.785 695.5,-119.785 618.5,-119.785"/>
<text text-anchor="middle" x="657" y="-126.785" font-family="Helvetica,sans-Serif" font-size="10.00">radius_packet</text>
</a>
</g>
<!-- Node15&#45;&gt;Node19 -->
<g id="edge76" class="edge"><title>Node15&#45;&gt;Node19</title>
<path fill="none" stroke="#9a32cd" stroke-dasharray="5,2" d="M384.1,-153.061C408.832,-149.951 441.222,-146.079 470,-143.285 521.248,-138.308 580.587,-134.113 618.198,-131.648"/>
<polygon fill="#9a32cd" stroke="#9a32cd" points="383.481,-149.611 374.001,-154.342 384.362,-156.556 383.481,-149.611"/>
<text text-anchor="middle" x="507" y="-157.285" font-family="Helvetica,sans-Serif" font-size="10.00"> dst_ipaddr</text>
<text text-anchor="middle" x="507" y="-146.285" font-family="Helvetica,sans-Serif" font-size="10.00">src_ipaddr</text>
</g>
<!-- Node16 -->
<g id="node35" class="node"><title>Node16</title>
<a xlink:href="structin6__addr.html" target="_top" xlink:title="in6_addr">
<polygon fill="none" stroke="black" points="135.5,-64.7846 135.5,-83.7846 188.5,-83.7846 188.5,-64.7846 135.5,-64.7846"/>
<text text-anchor="middle" x="162" y="-71.7846" font-family="Helvetica,sans-Serif" font-size="10.00">in6_addr</text>
</a>
</g>
<!-- Node16&#45;&gt;Node15 -->
<g id="edge40" class="edge"><title>Node16&#45;&gt;Node15</title>
<path fill="none" stroke="#9a32cd" stroke-dasharray="5,2" d="M192.694,-88.2192C229.193,-105.347 290.158,-133.957 321.706,-148.761"/>
<polygon fill="#9a32cd" stroke="#9a32cd" points="194.073,-85.0003 183.534,-83.9205 191.099,-91.3373 194.073,-85.0003"/>
<text text-anchor="middle" x="253" y="-132.285" font-family="Helvetica,sans-Serif" font-size="10.00"> ip6addr</text>
</g>
<!-- Node21 -->
<g id="node54" class="node"><title>Node21</title>
<a xlink:href="unionvalue__pair__data.html" target="_top" xlink:title="value_pair_data">
<polygon fill="none" stroke="black" points="300.5,-6.78465 300.5,-25.7846 385.5,-25.7846 385.5,-6.78465 300.5,-6.78465"/>
<text text-anchor="middle" x="343" y="-13.7846" font-family="Helvetica,sans-Serif" font-size="10.00">value_pair_data</text>
</a>
</g>
<!-- Node16&#45;&gt;Node21 -->
<g id="edge70" class="edge"><title>Node16&#45;&gt;Node21</title>
<path fill="none" stroke="#9a32cd" stroke-dasharray="5,2" d="M198.454,-62.7968C231.836,-51.9801 281.256,-35.967 312.531,-25.8332"/>
<polygon fill="#9a32cd" stroke="#9a32cd" points="197.081,-59.5626 188.646,-65.9747 199.238,-66.2217 197.081,-59.5626"/>
<text text-anchor="middle" x="253" y="-57.2846" font-family="Helvetica,sans-Serif" font-size="10.00"> ipv6addr</text>
</g>
<!-- Node17&#45;&gt;Node4 -->
<g id="edge52" class="edge"><title>Node17&#45;&gt;Node4</title>
<path fill="none" stroke="#9a32cd" stroke-dasharray="5,2" d="M705.872,-247.968C764.89,-245.464 864.426,-250.876 922,-307.285 944.638,-329.465 919.68,-351.963 940,-376.285 943.923,-380.981 949.262,-384.579 954.79,-387.312"/>
<polygon fill="#9a32cd" stroke="#9a32cd" points="705.502,-244.482 695.697,-248.495 705.865,-251.473 705.502,-244.482"/>
<text text-anchor="middle" x="835" y="-277.285" font-family="Helvetica,sans-Serif" font-size="10.00"> root</text>
</g>
<!-- Node18&#45;&gt;Node4 -->
<g id="edge78" class="edge"><title>Node18&#45;&gt;Node4</title>
<path fill="none" stroke="#9a32cd" stroke-dasharray="5,2" d="M550.432,-284.229C646.237,-308.94 877.004,-368.461 954.851,-388.54"/>
<polygon fill="#9a32cd" stroke="#9a32cd" points="551.068,-280.779 540.511,-281.67 549.32,-287.557 551.068,-280.779"/>
<text text-anchor="middle" x="745" y="-356.285" font-family="Helvetica,sans-Serif" font-size="10.00"> listener</text>
<text text-anchor="middle" x="745" y="-345.285" font-family="Helvetica,sans-Serif" font-size="10.00">proxy_listener</text>
</g>
<!-- Node18&#45;&gt;Node17 -->
<g id="edge54" class="edge"><title>Node18&#45;&gt;Node17</title>
<path fill="none" stroke="#9a32cd" stroke-dasharray="5,2" d="M550.928,-267.194C572.234,-264.17 597.739,-260.551 618.285,-257.636"/>
<polygon fill="#9a32cd" stroke="#9a32cd" points="550.255,-263.754 540.846,-268.624 551.239,-270.684 550.255,-263.754"/>
<text text-anchor="middle" x="581" y="-268.285" font-family="Helvetica,sans-Serif" font-size="10.00"> listen</text>
</g>
<!-- Node18&#45;&gt;Node18 -->
<g id="edge56" class="edge"><title>Node18&#45;&gt;Node18</title>
<path fill="none" stroke="#9a32cd" stroke-dasharray="5,2" d="M493.372,-293.051C494.443,-297.781 498.985,-301.285 507,-301.285 520.152,-301.285 523.954,-291.85 518.406,-283.042"/>
<polygon fill="#9a32cd" stroke="#9a32cd" points="496.844,-293.563 495.594,-283.042 490.01,-292.046 496.844,-293.563"/>
<text text-anchor="middle" x="507" y="-359.285" font-family="Helvetica,sans-Serif" font-size="10.00"> next</text>
<text text-anchor="middle" x="507" y="-348.285" font-family="Helvetica,sans-Serif" font-size="10.00">encode</text>
<text text-anchor="middle" x="507" y="-337.285" font-family="Helvetica,sans-Serif" font-size="10.00">recv</text>
<text text-anchor="middle" x="507" y="-326.285" font-family="Helvetica,sans-Serif" font-size="10.00">print</text>
<text text-anchor="middle" x="507" y="-315.285" font-family="Helvetica,sans-Serif" font-size="10.00">send</text>
<text text-anchor="middle" x="507" y="-304.285" font-family="Helvetica,sans-Serif" font-size="10.00">decode</text>
</g>
<!-- Node19&#45;&gt;Node4 -->
<g id="edge64" class="edge"><title>Node19&#45;&gt;Node4</title>
<path fill="none" stroke="#9a32cd" stroke-dasharray="5,2" d="M705.927,-135.776C753.586,-144.352 826.542,-163.452 876,-204.285 907.628,-230.397 907.647,-245.864 922,-284.285 936.581,-323.314 914.29,-343.499 940,-376.285 943.776,-381.1 949.057,-384.745 954.576,-387.485"/>
<polygon fill="#9a32cd" stroke="#9a32cd" points="706.311,-132.291 695.864,-134.054 705.13,-139.19 706.311,-132.291"/>
<text text-anchor="middle" x="835" y="-240.285" font-family="Helvetica,sans-Serif" font-size="10.00"> reply</text>
<text text-anchor="middle" x="835" y="-229.285" font-family="Helvetica,sans-Serif" font-size="10.00">proxy_reply</text>
<text text-anchor="middle" x="835" y="-218.285" font-family="Helvetica,sans-Serif" font-size="10.00">proxy</text>
<text text-anchor="middle" x="835" y="-207.285" font-family="Helvetica,sans-Serif" font-size="10.00">packet</text>
</g>
<!-- Node20 -->
<g id="node52" class="node"><title>Node20</title>
<a xlink:href="structvalue__pair.html" target="_top" xlink:title="value_pair">
<polygon fill="none" stroke="black" points="476.5,-6.78465 476.5,-25.7846 537.5,-25.7846 537.5,-6.78465 476.5,-6.78465"/>
<text text-anchor="middle" x="507" y="-13.7846" font-family="Helvetica,sans-Serif" font-size="10.00">value_pair</text>
</a>
</g>
<!-- Node20&#45;&gt;Node4 -->
<g id="edge86" class="edge"><title>Node20&#45;&gt;Node4</title>
<path fill="none" stroke="#9a32cd" stroke-dasharray="5,2" d="M547.801,-8.22544C602.567,0.765064 702.698,9.5211 776,-28.2846 870.649,-77.1002 882.906,-119.223 922,-218.285 947.945,-284.027 898.639,-318.974 940,-376.285 943.673,-381.374 949.054,-385.138 954.717,-387.908"/>
<polygon fill="#9a32cd" stroke="#9a32cd" points="547.055,-4.80244 537.797,-9.95424 548.247,-11.7002 547.055,-4.80244"/>
<text text-anchor="middle" x="745" y="-53.2846" font-family="Helvetica,sans-Serif" font-size="10.00"> password</text>
<text text-anchor="middle" x="745" y="-42.2846" font-family="Helvetica,sans-Serif" font-size="10.00">config_items</text>
<text text-anchor="middle" x="745" y="-31.2846" font-family="Helvetica,sans-Serif" font-size="10.00">username</text>
</g>
<!-- Node20&#45;&gt;Node19 -->
<g id="edge66" class="edge"><title>Node20&#45;&gt;Node19</title>
<path fill="none" stroke="#9a32cd" stroke-dasharray="5,2" d="M528.64,-32.0439C559.791,-55.8276 617.882,-100.181 643.414,-119.675"/>
<polygon fill="#9a32cd" stroke="#9a32cd" points="530.691,-29.2057 520.618,-25.919 526.443,-34.7694 530.691,-29.2057"/>
<text text-anchor="middle" x="581" y="-89.2846" font-family="Helvetica,sans-Serif" font-size="10.00"> vps</text>
</g>
<!-- Node20&#45;&gt;Node20 -->
<g id="edge72" class="edge"><title>Node20&#45;&gt;Node20</title>
<path fill="none" stroke="#9a32cd" stroke-dasharray="5,2" d="M493.372,-36.0509C494.443,-40.7812 498.985,-44.2846 507,-44.2846 520.152,-44.2846 523.954,-34.8499 518.406,-26.0417"/>
<polygon fill="#9a32cd" stroke="#9a32cd" points="496.844,-36.5626 495.594,-26.0417 490.01,-35.0455 496.844,-36.5626"/>
<text text-anchor="middle" x="507" y="-47.2846" font-family="Helvetica,sans-Serif" font-size="10.00"> next</text>
</g>
<!-- Node21&#45;&gt;Node20 -->
<g id="edge68" class="edge"><title>Node21&#45;&gt;Node20</title>
<path fill="none" stroke="#9a32cd" stroke-dasharray="5,2" d="M396.024,-16.2846C422.618,-16.2846 454.012,-16.2846 476.435,-16.2846"/>
<polygon fill="#9a32cd" stroke="#9a32cd" points="395.719,-12.7847 385.719,-16.2846 395.719,-19.7847 395.719,-12.7847"/>
<text text-anchor="middle" x="429" y="-19.2846" font-family="Helvetica,sans-Serif" font-size="10.00"> data</text>
</g>
<!-- Node22 -->
<g id="node58" class="node"><title>Node22</title>
<a xlink:href="structattr__flags.html" target="_top" xlink:title="attr_flags">
<polygon fill="none" stroke="black" points="314.5,-44.7846 314.5,-63.7846 371.5,-63.7846 371.5,-44.7846 314.5,-44.7846"/>
<text text-anchor="middle" x="343" y="-51.7846" font-family="Helvetica,sans-Serif" font-size="10.00">attr_flags</text>
</a>
</g>
<!-- Node22&#45;&gt;Node20 -->
<g id="edge74" class="edge"><title>Node22&#45;&gt;Node20</title>
<path fill="none" stroke="#9a32cd" stroke-dasharray="5,2" d="M381.665,-46.8518C402.474,-42.598 428.745,-36.9851 452,-31.2846 459.938,-29.3388 468.481,-27.0549 476.377,-24.8643"/>
<polygon fill="#9a32cd" stroke="#9a32cd" points="380.733,-43.4695 371.627,-48.8854 382.123,-50.3301 380.733,-43.4695"/>
<text text-anchor="middle" x="429" y="-45.2846" font-family="Helvetica,sans-Serif" font-size="10.00"> flags</text>
</g>
<!-- Node23 -->
<g id="node67" class="node"><title>Node23</title>
<a xlink:href="structrequest__data__t.html" target="_top" xlink:title="request_data_t">
<polygon fill="none" stroke="black" points="794.5,-497.785 794.5,-516.785 875.5,-516.785 875.5,-497.785 794.5,-497.785"/>
<text text-anchor="middle" x="835" y="-504.785" font-family="Helvetica,sans-Serif" font-size="10.00">request_data_t</text>
</a>
</g>
<!-- Node23&#45;&gt;Node4 -->
<g id="edge90" class="edge"><title>Node23&#45;&gt;Node4</title>
<path fill="none" stroke="#9a32cd" stroke-dasharray="5,2" d="M867.62,-493.024C870.495,-491.501 873.328,-489.911 876,-488.285 916.142,-463.842 955.437,-423.396 972.346,-404.968"/>
<polygon fill="#9a32cd" stroke="#9a32cd" points="865.808,-490.018 858.436,-497.628 868.945,-496.275 865.808,-490.018"/>
<text text-anchor="middle" x="908" y="-478.285" font-family="Helvetica,sans-Serif" font-size="10.00"> data</text>
</g>
<!-- Node23&#45;&gt;Node23 -->
<g id="edge92" class="edge"><title>Node23&#45;&gt;Node23</title>
<path fill="none" stroke="#9a32cd" stroke-dasharray="5,2" d="M821.741,-527.051C822.782,-531.781 827.202,-535.285 835,-535.285 847.797,-535.285 851.496,-525.85 846.097,-517.042"/>
<polygon fill="#9a32cd" stroke="#9a32cd" points="825.212,-527.555 823.903,-517.042 818.37,-526.077 825.212,-527.555"/>
<text text-anchor="middle" x="835" y="-538.285" font-family="Helvetica,sans-Serif" font-size="10.00"> next</text>
</g>
<!-- Node24&#45;&gt;Node2 -->
<g id="edge96" class="edge"><title>Node24&#45;&gt;Node2</title>
<path fill="none" stroke="#9a32cd" stroke-dasharray="5,2" d="M1336.75,-737.484C1314.97,-697.485 1262.61,-600.928 1220,-519.285 1197.88,-476.899 1172.29,-425.901 1161.83,-404.968"/>
<polygon fill="#9a32cd" stroke="#9a32cd" points="1333.74,-739.285 1341.6,-746.392 1339.89,-735.936 1333.74,-739.285"/>
<text text-anchor="middle" x="1251" y="-638.285" font-family="Helvetica,sans-Serif" font-size="10.00"> inst</text>
</g>
<!-- Node25&#45;&gt;Node24 -->
<g id="edge98" class="edge"><title>Node25&#45;&gt;Node24</title>
<path fill="none" stroke="#9a32cd" stroke-dasharray="5,2" d="M552.158,-821.948C581.48,-826.96 620.893,-832.285 656,-832.285 656,-832.285 656,-832.285 1157,-832.285 1214.69,-832.285 1229.27,-820.697 1282,-797.285 1301.27,-788.73 1321.51,-775.117 1334.19,-765.949"/>
<polygon fill="#9a32cd" stroke="#9a32cd" points="552.687,-818.488 542.231,-820.198 551.471,-825.381 552.687,-818.488"/>
<text text-anchor="middle" x="908" y="-835.285" font-family="Helvetica,sans-Serif" font-size="10.00"> types</text>
</g>
<!-- Node26 -->
<g id="node76" class="node"><title>Node26</title>
<a xlink:href="structeap__type__t.html" target="_top" xlink:title="eap_type_t">
<polygon fill="none" stroke="black" points="310.5,-803.785 310.5,-822.785 375.5,-822.785 375.5,-803.785 310.5,-803.785"/>
<text text-anchor="middle" x="343" y="-810.785" font-family="Helvetica,sans-Serif" font-size="10.00">eap_type_t</text>
</a>
</g>
<!-- Node26&#45;&gt;Node25 -->
<g id="edge102" class="edge"><title>Node26&#45;&gt;Node25</title>
<path fill="none" stroke="#9a32cd" stroke-dasharray="5,2" d="M385.839,-813.285C412.594,-813.285 446.856,-813.285 471.943,-813.285"/>
<polygon fill="#9a32cd" stroke="#9a32cd" points="385.62,-809.785 375.62,-813.285 385.62,-816.785 385.62,-809.785"/>
<text text-anchor="middle" x="429" y="-816.285" font-family="Helvetica,sans-Serif" font-size="10.00"> type</text>
</g>
<!-- Node27 -->
<g id="node79" class="node"><title>Node27</title>
<a xlink:href="structfr__randctx.html" target="_top" xlink:title="fr_randctx">
<polygon fill="none" stroke="black" points="1126,-784.785 1126,-803.785 1186,-803.785 1186,-784.785 1126,-784.785"/>
<text text-anchor="middle" x="1156" y="-791.785" font-family="Helvetica,sans-Serif" font-size="10.00">fr_randctx</text>
</a>
</g>
<!-- Node27&#45;&gt;Node24 -->
<g id="edge106" class="edge"><title>Node27&#45;&gt;Node24</title>
<path fill="none" stroke="#9a32cd" stroke-dasharray="5,2" d="M1196.14,-787.004C1220.8,-782.358 1253.3,-776.131 1282,-770.285 1293.88,-767.866 1306.95,-765.076 1318.23,-762.626"/>
<polygon fill="#9a32cd" stroke="#9a32cd" points="1195.26,-783.606 1186.08,-788.892 1196.56,-790.486 1195.26,-783.606"/>
<text text-anchor="middle" x="1251" y="-785.285" font-family="Helvetica,sans-Serif" font-size="10.00"> rand_pool</text>
</g>
</g>
</svg>
        <g id="navigator" transform="translate(0 0)" fill="#404254">
                <rect fill="#f2f5e9" fill-opacity="0.5" stroke="#606060" stroke-width=".5" x="0" y="0" width="60" height="60"/>
                <use id="zoomplus" xlink:href="#zoomPlus" x="17" y="9" onmousedown="handleZoom(evt,'in')"/>
                <use id="zoomminus" xlink:href="#zoomMin" x="42" y="9" onmousedown="handleZoom(evt,'out')"/>
                <use id="reset" xlink:href="#resetDef" x="30" y="36" onmousedown="handleReset()"/>
                <g id="arrowUp" xlink:href="#dirArrow" transform="translate(30 24)" onmousedown="handlePan(0,-1)">
                  <use xlink:href="#rim" fill="#404040">
                        <set attributeName="fill" to="#808080" begin="arrowUp.mouseover" end="arrowUp.mouseout"/>
                  </use>
                  <path fill="none" stroke="white" stroke-width="1.5" d="M0,-3.0v7 M-2.5,-0.5L0,-3.0L2.5,-0.5"/>
                </g>
                <g id="arrowRight" xlink:href="#dirArrow" transform="rotate(90) translate(36 -43)" onmousedown="handlePan(1,0)">
                  <use xlink:href="#rim" fill="#404040">
                        <set attributeName="fill" to="#808080" begin="arrowRight.mouseover" end="arrowRight.mouseout"/>
                  </use>
                  <path fill="none" stroke="white" stroke-width="1.5" d="M0,-3.0v7 M-2.5,-0.5L0,-3.0L2.5,-0.5"/>
                </g>
                <g id="arrowDown" xlink:href="#dirArrow" transform="rotate(180) translate(-30 -48)" onmousedown="handlePan(0,1)">
                  <use xlink:href="#rim" fill="#404040">
                        <set attributeName="fill" to="#808080" begin="arrowDown.mouseover" end="arrowDown.mouseout"/>
                  </use>
                  <path fill="none" stroke="white" stroke-width="1.5" d="M0,-3.0v7 M-2.5,-0.5L0,-3.0L2.5,-0.5"/>
                </g>
                <g id="arrowLeft" xlink:href="#dirArrow" transform="rotate(270) translate(-36 17)" onmousedown="handlePan(-1,0)">
                  <use xlink:href="#rim" fill="#404040">
                        <set attributeName="fill" to="#808080" begin="arrowLeft.mouseover" end="arrowLeft.mouseout"/>
                  </use>
                  <path fill="none" stroke="white" stroke-width="1.5" d="M0,-3.0v7 M-2.5,-0.5L0,-3.0L2.5,-0.5"/>
                </g>
        </g>
</svg>
