<?xml version="1.0" encoding="UTF-8" standalone="no"?>
<!DOCTYPE svg PUBLIC "-//W3C//DTD SVG 1.1//EN"
 "http://www.w3.org/Graphics/SVG/1.1/DTD/svg11.dtd">
<!-- Generated by graphviz version 2.28.0 (20111211.2114)
 -->
<!-- Title: G Pages: 1 -->
<svg width="186pt" height="164pt"
 viewBox="0.00 0.00 186.00 164.00" xmlns="http://www.w3.org/2000/svg" xmlns:xlink="http://www.w3.org/1999/xlink">
<g id="graph1" class="graph" transform="scale(1 1) rotate(0) translate(4 160)">
<title>G</title>
<!-- Node1 -->
<g id="node1" class="node"><title>Node1</title>
<polygon fill="#bfbfbf" stroke="black" points="77.5,-0.5 77.5,-19.5 138.5,-19.5 138.5,-0.5 77.5,-0.5"/>
<text text-anchor="middle" x="108" y="-7.5" font-family="Helvetica,sans-Serif" font-size="10.00">value_pair</text>
</g>
<!-- Node1&#45;&gt;Node1 -->
<g id="edge6" class="edge"><title>Node1&#45;&gt;Node1</title>
<path fill="none" stroke="#9a32cd" stroke-dasharray="5,2" d="M149.201,-15.2246C153.353,-14.1861 156,-12.4446 156,-10 156,-5.88281 148.492,-3.75989 138.931,-3.63123"/>
<polygon fill="#9a32cd" stroke="#9a32cd" points="148.482,-11.7829 138.931,-16.3688 149.258,-18.7399 148.482,-11.7829"/>
<text text-anchor="middle" x="167" y="-7.5" font-family="Helvetica,sans-Serif" font-size="10.00"> next</text>
</g>
<!-- Node2 -->
<g id="node2" class="node"><title>Node2</title>
<a xlink:href="unionvalue__pair__data.html" target="_top" xlink:title="value_pair_data">
<polygon fill="none" stroke="black" points="-0.5,-68.5 -0.5,-87.5 84.5,-87.5 84.5,-68.5 -0.5,-68.5"/>
<text text-anchor="middle" x="42" y="-75.5" font-family="Helvetica,sans-Serif" font-size="10.00">value_pair_data</text>
</a>
</g>
<!-- Node2&#45;&gt;Node1 -->
<g id="edge2" class="edge"><title>Node2&#45;&gt;Node1</title>
<path fill="none" stroke="#9a32cd" stroke-dasharray="5,2" d="M57.9526,-61.0474C70.8889,-48.1111 88.6433,-30.3567 99.1589,-19.8411"/>
<polygon fill="#9a32cd" stroke="#9a32cd" points="55.2246,-58.8257 50.6283,-68.3717 60.1743,-63.7754 55.2246,-58.8257"/>
<text text-anchor="middle" x="92" y="-41.5" font-family="Helvetica,sans-Serif" font-size="10.00"> data</text>
</g>
<!-- Node3 -->
<g id="node4" class="node"><title>Node3</title>
<a xlink:href="structin6__addr.html" target="_top" xlink:title="in6_addr">
<polygon fill="none" stroke="black" points="15.5,-136.5 15.5,-155.5 68.5,-155.5 68.5,-136.5 15.5,-136.5"/>
<text text-anchor="middle" x="42" y="-143.5" font-family="Helvetica,sans-Serif" font-size="10.00">in6_addr</text>
</a>
</g>
<!-- Node3&#45;&gt;Node2 -->
<g id="edge4" class="edge"><title>Node3&#45;&gt;Node2</title>
<path fill="none" stroke="#9a32cd" stroke-dasharray="5,2" d="M42,-126.041C42,-113.472 42,-97.5631 42,-87.8411"/>
<polygon fill="#9a32cd" stroke="#9a32cd" points="38.5001,-126.372 42,-136.372 45.5001,-126.372 38.5001,-126.372"/>
<text text-anchor="middle" x="62" y="-109.5" font-family="Helvetica,sans-Serif" font-size="10.00"> ipv6addr</text>
</g>
<!-- Node4 -->
<g id="node7" class="node"><title>Node4</title>
<a xlink:href="structattr__flags.html" target="_top" xlink:title="attr_flags">
<polygon fill="none" stroke="black" points="102.5,-68.5 102.5,-87.5 159.5,-87.5 159.5,-68.5 102.5,-68.5"/>
<text text-anchor="middle" x="131" y="-75.5" font-family="Helvetica,sans-Serif" font-size="10.00">attr_flags</text>
</a>
</g>
<!-- Node4&#45;&gt;Node1 -->
<g id="edge8" class="edge"><title>Node4&#45;&gt;Node1</title>
<path fill="none" stroke="#9a32cd" stroke-dasharray="5,2" d="M124.66,-58.8066C120.24,-46.1244 114.538,-29.7615 111.081,-19.8411"/>
<polygon fill="#9a32cd" stroke="#9a32cd" points="121.397,-60.0804 127.993,-68.3717 128.007,-57.7768 121.397,-60.0804"/>
<text text-anchor="middle" x="133.5" y="-41.5" font-family="Helvetica,sans-Serif" font-size="10.00"> flags</text>
</g>
</g>
</svg>
