<?xml version="1.0" encoding="UTF-8" standalone="no"?>
<!DOCTYPE svg PUBLIC "-//W3C//DTD SVG 1.1//EN"
 "http://www.w3.org/Graphics/SVG/1.1/DTD/svg11.dtd">
<!-- Generated by graphviz version 2.28.0 (20111211.2114)
 -->
<!-- Title: G Pages: 1 -->
<svg width="117pt" height="176pt"
 viewBox="0.00 0.00 117.00 176.50" xmlns="http://www.w3.org/2000/svg" xmlns:xlink="http://www.w3.org/1999/xlink">
<g id="graph1" class="graph" transform="scale(1 1) rotate(0) translate(4 172.5)">
<title>G</title>
<!-- Node1 -->
<g id="node1" class="node"><title>Node1</title>
<polygon fill="#bfbfbf" stroke="black" points="-0.5,-0.5 -0.5,-19.5 70.5,-19.5 70.5,-0.5 -0.5,-0.5"/>
<text text-anchor="middle" x="35" y="-7.5" font-family="Helvetica,sans-Serif" font-size="10.00">radclient_list</text>
</g>
<!-- Node2 -->
<g id="node2" class="node"><title>Node2</title>
<a xlink:href="structrbtree__t.html" target="_top" xlink:title="rbtree_t">
<polygon fill="none" stroke="black" points="10,-68.5 10,-87.5 60,-87.5 60,-68.5 10,-68.5"/>
<text text-anchor="middle" x="35" y="-75.5" font-family="Helvetica,sans-Serif" font-size="10.00">rbtree_t</text>
</a>
</g>
<!-- Node2&#45;&gt;Node1 -->
<g id="edge2" class="edge"><title>Node2&#45;&gt;Node1</title>
<path fill="none" stroke="#9a32cd" stroke-dasharray="5,2" d="M35,-58.0413C35,-45.4724 35,-29.5631 35,-19.8411"/>
<polygon fill="#9a32cd" stroke="#9a32cd" points="31.5001,-58.3716 35,-68.3717 38.5001,-58.3717 31.5001,-58.3716"/>
<text text-anchor="middle" x="47.5" y="-41.5" font-family="Helvetica,sans-Serif" font-size="10.00"> trees</text>
</g>
<!-- Node3 -->
<g id="node4" class="node"><title>Node3</title>
<a xlink:href="structrbnode__t.html" target="_top" xlink:title="rbnode_t">
<polygon fill="none" stroke="black" points="8,-142.5 8,-161.5 62,-161.5 62,-142.5 8,-142.5"/>
<text text-anchor="middle" x="35" y="-149.5" font-family="Helvetica,sans-Serif" font-size="10.00">rbnode_t</text>
</a>
</g>
<!-- Node3&#45;&gt;Node2 -->
<g id="edge4" class="edge"><title>Node3&#45;&gt;Node2</title>
<path fill="none" stroke="#9a32cd" stroke-dasharray="5,2" d="M35,-132.156C35,-117.712 35,-98.4594 35,-87.531"/>
<polygon fill="#9a32cd" stroke="#9a32cd" points="31.5001,-132.458 35,-142.458 38.5001,-132.458 31.5001,-132.458"/>
<text text-anchor="middle" x="47.5" y="-109.5" font-family="Helvetica,sans-Serif" font-size="10.00"> Root</text>
</g>
<!-- Node3&#45;&gt;Node3 -->
<g id="edge6" class="edge"><title>Node3&#45;&gt;Node3</title>
<path fill="none" stroke="#9a32cd" stroke-dasharray="5,2" d="M72.5105,-158.464C77.0382,-157.297 80,-155.142 80,-152 80,-146.844 72.0239,-144.346 62.2408,-144.507"/>
<polygon fill="#9a32cd" stroke="#9a32cd" points="71.8423,-155.014 62.2408,-159.493 72.5397,-161.979 71.8423,-155.014"/>
<text text-anchor="middle" x="94.5" y="-160.5" font-family="Helvetica,sans-Serif" font-size="10.00"> Left</text>
<text text-anchor="middle" x="94.5" y="-149.5" font-family="Helvetica,sans-Serif" font-size="10.00">Right</text>
<text text-anchor="middle" x="94.5" y="-138.5" font-family="Helvetica,sans-Serif" font-size="10.00">Parent</text>
</g>
</g>
</svg>
