<?xml version="1.0" encoding="UTF-8" standalone="no"?>
<!DOCTYPE svg PUBLIC "-//W3C//DTD SVG 1.1//EN"
 "http://www.w3.org/Graphics/SVG/1.1/DTD/svg11.dtd">
<!-- Generated by graphviz version 2.28.0 (20111211.2114)
 -->
<!-- Title: G Pages: 1 -->
<svg width="128pt" height="108pt"
 viewBox="0.00 0.00 128.00 108.00" xmlns="http://www.w3.org/2000/svg" xmlns:xlink="http://www.w3.org/1999/xlink">
<g id="graph1" class="graph" transform="scale(1 1) rotate(0) translate(4 104)">
<title>G</title>
<!-- Node1 -->
<g id="node1" class="node"><title>Node1</title>
<polygon fill="#bfbfbf" stroke="black" points="0,-0.5 0,-19.5 80,-19.5 80,-0.5 0,-0.5"/>
<text text-anchor="middle" x="40" y="-7.5" font-family="Helvetica,sans-Serif" font-size="10.00">modcall_stack</text>
</g>
<!-- Node2 -->
<g id="node2" class="node"><title>Node2</title>
<a xlink:href="structmodcallable.html" target="_top" xlink:title="modcallable">
<polygon fill="none" stroke="black" points="6,-79.5 6,-98.5 74,-98.5 74,-79.5 6,-79.5"/>
<text text-anchor="middle" x="40" y="-86.5" font-family="Helvetica,sans-Serif" font-size="10.00">modcallable</text>
</a>
</g>
<!-- Node2&#45;&gt;Node1 -->
<g id="edge2" class="edge"><title>Node2&#45;&gt;Node1</title>
<path fill="none" stroke="#9a32cd" stroke-dasharray="5,2" d="M40,-69.3145C40,-53.5917 40,-31.8079 40,-19.8094"/>
<polygon fill="#9a32cd" stroke="#9a32cd" points="36.5001,-69.4654 40,-79.4655 43.5001,-69.4655 36.5001,-69.4654"/>
<text text-anchor="middle" x="57" y="-52" font-family="Helvetica,sans-Serif" font-size="10.00"> start</text>
<text text-anchor="middle" x="57" y="-41" font-family="Helvetica,sans-Serif" font-size="10.00">children</text>
</g>
<!-- Node2&#45;&gt;Node2 -->
<g id="edge4" class="edge"><title>Node2&#45;&gt;Node2</title>
<path fill="none" stroke="#9a32cd" stroke-dasharray="5,2" d="M84.1476,-95.2741C88.9245,-94.0699 92,-91.9785 92,-89 92,-84.2344 84.1268,-81.7399 74.0085,-81.5165"/>
<polygon fill="#9a32cd" stroke="#9a32cd" points="83.5235,-91.8236 74.0085,-96.4835 84.3527,-98.7744 83.5235,-91.8236"/>
<text text-anchor="middle" x="106" y="-92" font-family="Helvetica,sans-Serif" font-size="10.00"> next</text>
<text text-anchor="middle" x="106" y="-81" font-family="Helvetica,sans-Serif" font-size="10.00">parent</text>
</g>
</g>
</svg>
