<?xml version="1.0" encoding="UTF-8" standalone="no"?>
<!DOCTYPE svg PUBLIC "-//W3C//DTD SVG 1.1//EN"
 "http://www.w3.org/Graphics/SVG/1.1/DTD/svg11.dtd">
<!-- Generated by graphviz version 2.28.0 (20111211.2114)
 -->
<!-- Title: G Pages: 1 -->
<svg width="217pt" height="298pt"
 viewBox="0.00 0.00 217.00 298.50" xmlns="http://www.w3.org/2000/svg" xmlns:xlink="http://www.w3.org/1999/xlink">
<g id="graph1" class="graph" transform="scale(1 1) rotate(0) translate(4 294.5)">
<title>G</title>
<!-- Node1 -->
<g id="node1" class="node"><title>Node1</title>
<polygon fill="#bfbfbf" stroke="black" points="55.5,-90.5 55.5,-109.5 112.5,-109.5 112.5,-90.5 55.5,-90.5"/>
<text text-anchor="middle" x="84" y="-97.5" font-family="Helvetica,sans-Serif" font-size="10.00">conf_part</text>
</g>
<!-- Node1&#45;&gt;Node1 -->
<g id="edge2" class="edge"><title>Node1&#45;&gt;Node1</title>
<path fill="none" stroke="#9a32cd" stroke-dasharray="5,2" d="M122.76,-106.991C127.153,-105.682 130,-103.352 130,-100 130,-94.5 122.333,-91.75 112.75,-91.75"/>
<polygon fill="#9a32cd" stroke="#9a32cd" points="122.235,-103.53 112.75,-108.25 123.109,-110.475 122.235,-103.53"/>
<text text-anchor="middle" x="150.5" y="-97.5" font-family="Helvetica,sans-Serif" font-size="10.00"> template</text>
</g>
<!-- Node2 -->
<g id="node3" class="node"><title>Node2</title>
<a xlink:href="structconf__item.html" target="_top" xlink:title="conf_item">
<polygon fill="none" stroke="black" points="54.5,-0.5 54.5,-19.5 113.5,-19.5 113.5,-0.5 54.5,-0.5"/>
<text text-anchor="middle" x="84" y="-7.5" font-family="Helvetica,sans-Serif" font-size="10.00">conf_item</text>
</a>
</g>
<!-- Node1&#45;&gt;Node2 -->
<g id="edge6" class="edge"><title>Node1&#45;&gt;Node2</title>
<path fill="none" stroke="#9a32cd" stroke-dasharray="5,2" d="M62.2216,-83.6024C58.8807,-80.1891 55.9118,-76.2927 54,-72 47.8522,-58.196 47.8522,-51.804 54,-38 57.3069,-30.5749 63.7766,-24.3351 69.8638,-19.7309"/>
<polygon fill="#9a32cd" stroke="#9a32cd" points="60.0273,-86.3328 69.8638,-90.2691 64.6289,-81.0578 60.0273,-86.3328"/>
<text text-anchor="middle" x="69.5" y="-52.5" font-family="Helvetica,sans-Serif" font-size="10.00"> parent</text>
</g>
<!-- Node2&#45;&gt;Node1 -->
<g id="edge4" class="edge"><title>Node2&#45;&gt;Node1</title>
<path fill="none" stroke="#9a32cd" stroke-dasharray="5,2" d="M87.94,-29.8215C88.3794,-32.5542 88.7559,-35.3416 89,-38 90.3816,-53.0478 90.3816,-56.9522 89,-72 88.4421,-78.0765 87.1921,-84.8265 86.0816,-90.0573"/>
<polygon fill="#9a32cd" stroke="#9a32cd" points="91.3701,-29.1232 86.0816,-19.9427 84.4908,-30.4174 91.3701,-29.1232"/>
<text text-anchor="middle" x="107" y="-63.5" font-family="Helvetica,sans-Serif" font-size="10.00"> tail</text>
<text text-anchor="middle" x="107" y="-52.5" font-family="Helvetica,sans-Serif" font-size="10.00">item</text>
<text text-anchor="middle" x="107" y="-41.5" font-family="Helvetica,sans-Serif" font-size="10.00">children</text>
</g>
<!-- Node2&#45;&gt;Node2 -->
<g id="edge8" class="edge"><title>Node2&#45;&gt;Node2</title>
<path fill="none" stroke="#9a32cd" stroke-dasharray="5,2" d="M123.812,-16.929C128.181,-15.6089 131,-13.2992 131,-10 131,-4.58594 123.41,-1.83661 113.833,-1.75201"/>
<polygon fill="#9a32cd" stroke="#9a32cd" points="123.288,-13.4678 113.833,-18.248 124.205,-20.4075 123.288,-13.4678"/>
<text text-anchor="middle" x="142" y="-7.5" font-family="Helvetica,sans-Serif" font-size="10.00"> next</text>
</g>
<!-- Node3 -->
<g id="node7" class="node"><title>Node3</title>
<a xlink:href="structCONF__PARSER.html" target="_top" xlink:title="CONF_PARSER">
<polygon fill="none" stroke="black" points="0,-190.5 0,-209.5 92,-209.5 92,-190.5 0,-190.5"/>
<text text-anchor="middle" x="46" y="-197.5" font-family="Helvetica,sans-Serif" font-size="10.00">CONF_PARSER</text>
</a>
</g>
<!-- Node3&#45;&gt;Node1 -->
<g id="edge10" class="edge"><title>Node3&#45;&gt;Node1</title>
<path fill="none" stroke="#9a32cd" stroke-dasharray="5,2" d="M46.1807,-180.157C47.0122,-165.277 49.748,-144.367 58,-128 61.5742,-120.911 67.6466,-114.447 73.0244,-109.622"/>
<polygon fill="#9a32cd" stroke="#9a32cd" points="42.6816,-180.077 45.8563,-190.185 49.6779,-180.303 42.6816,-180.077"/>
<text text-anchor="middle" x="79.5" y="-147.5" font-family="Helvetica,sans-Serif" font-size="10.00"> variables</text>
</g>
<!-- Node4 -->
<g id="node9" class="node"><title>Node4</title>
<a xlink:href="structrbtree__t.html" target="_top" xlink:title="rbtree_t">
<polygon fill="none" stroke="black" points="110,-190.5 110,-209.5 160,-209.5 160,-190.5 110,-190.5"/>
<text text-anchor="middle" x="135" y="-197.5" font-family="Helvetica,sans-Serif" font-size="10.00">rbtree_t</text>
</a>
</g>
<!-- Node4&#45;&gt;Node1 -->
<g id="edge12" class="edge"><title>Node4&#45;&gt;Node1</title>
<path fill="none" stroke="#9a32cd" stroke-dasharray="5,2" d="M126.963,-180.75C120.404,-166.235 110.671,-145.524 101,-128 97.5743,-121.792 93.3243,-115.042 89.9307,-109.844"/>
<polygon fill="#9a32cd" stroke="#9a32cd" points="123.86,-182.386 131.132,-190.091 130.253,-179.533 123.86,-182.386"/>
<text text-anchor="middle" x="149" y="-164" font-family="Helvetica,sans-Serif" font-size="10.00"> data_tree</text>
<text text-anchor="middle" x="149" y="-153" font-family="Helvetica,sans-Serif" font-size="10.00">name2_tree</text>
<text text-anchor="middle" x="149" y="-142" font-family="Helvetica,sans-Serif" font-size="10.00">section_tree</text>
<text text-anchor="middle" x="149" y="-131" font-family="Helvetica,sans-Serif" font-size="10.00">pair_tree</text>
</g>
<!-- Node5 -->
<g id="node11" class="node"><title>Node5</title>
<a xlink:href="structrbnode__t.html" target="_top" xlink:title="rbnode_t">
<polygon fill="none" stroke="black" points="108,-264.5 108,-283.5 162,-283.5 162,-264.5 108,-264.5"/>
<text text-anchor="middle" x="135" y="-271.5" font-family="Helvetica,sans-Serif" font-size="10.00">rbnode_t</text>
</a>
</g>
<!-- Node5&#45;&gt;Node4 -->
<g id="edge14" class="edge"><title>Node5&#45;&gt;Node4</title>
<path fill="none" stroke="#9a32cd" stroke-dasharray="5,2" d="M135,-254.156C135,-239.712 135,-220.459 135,-209.531"/>
<polygon fill="#9a32cd" stroke="#9a32cd" points="131.5,-254.458 135,-264.458 138.5,-254.458 131.5,-254.458"/>
<text text-anchor="middle" x="147.5" y="-231.5" font-family="Helvetica,sans-Serif" font-size="10.00"> Root</text>
</g>
<!-- Node5&#45;&gt;Node5 -->
<g id="edge16" class="edge"><title>Node5&#45;&gt;Node5</title>
<path fill="none" stroke="#9a32cd" stroke-dasharray="5,2" d="M172.51,-280.464C177.038,-279.297 180,-277.142 180,-274 180,-268.844 172.024,-266.346 162.241,-266.507"/>
<polygon fill="#9a32cd" stroke="#9a32cd" points="171.842,-277.014 162.241,-281.493 172.54,-283.979 171.842,-277.014"/>
<text text-anchor="middle" x="194.5" y="-282.5" font-family="Helvetica,sans-Serif" font-size="10.00"> Left</text>
<text text-anchor="middle" x="194.5" y="-271.5" font-family="Helvetica,sans-Serif" font-size="10.00">Right</text>
<text text-anchor="middle" x="194.5" y="-260.5" font-family="Helvetica,sans-Serif" font-size="10.00">Parent</text>
</g>
</g>
</svg>
