<?xml version="1.0" encoding="UTF-8" standalone="no"?>
<!DOCTYPE svg PUBLIC "-//W3C//DTD SVG 1.1//EN"
 "http://www.w3.org/Graphics/SVG/1.1/DTD/svg11.dtd">
<!-- Generated by graphviz version 2.28.0 (20111211.2114)
 -->
<!-- Title: G Pages: 1 -->
<svg width="205pt" height="312pt"
 viewBox="0.00 0.00 205.00 312.00" xmlns="http://www.w3.org/2000/svg" xmlns:xlink="http://www.w3.org/1999/xlink">
<g id="graph1" class="graph" transform="scale(1 1) rotate(0) translate(4 308)">
<title>G</title>
<!-- Node1 -->
<g id="node1" class="node"><title>Node1</title>
<polygon fill="#bfbfbf" stroke="black" points="59.5,-0.5 59.5,-19.5 156.5,-19.5 156.5,-0.5 59.5,-0.5"/>
<text text-anchor="middle" x="108" y="-7.5" font-family="Helvetica,sans-Serif" font-size="10.00">attr_filter_instance</text>
</g>
<!-- Node2 -->
<g id="node2" class="node"><title>Node2</title>
<a xlink:href="structpair__list.html" target="_top" xlink:title="pair_list">
<polygon fill="none" stroke="black" points="83,-69.5 83,-88.5 133,-88.5 133,-69.5 83,-69.5"/>
<text text-anchor="middle" x="108" y="-76.5" font-family="Helvetica,sans-Serif" font-size="10.00">pair_list</text>
</a>
</g>
<!-- Node2&#45;&gt;Node1 -->
<g id="edge2" class="edge"><title>Node2&#45;&gt;Node1</title>
<path fill="none" stroke="#9a32cd" stroke-dasharray="5,2" d="M108,-59.0183C108,-46.034 108,-29.4419 108,-19.5494"/>
<polygon fill="#9a32cd" stroke="#9a32cd" points="104.5,-59.2409 108,-69.2409 111.5,-59.241 104.5,-59.2409"/>
<text text-anchor="middle" x="119.5" y="-41.5" font-family="Helvetica,sans-Serif" font-size="10.00"> attrs</text>
</g>
<!-- Node2&#45;&gt;Node2 -->
<g id="edge4" class="edge"><title>Node2&#45;&gt;Node2</title>
<path fill="none" stroke="#9a32cd" stroke-dasharray="5,2" d="M143.446,-84.5827C147.996,-83.6126 151,-81.7517 151,-79 151,-74.4844 142.91,-72.3677 133.176,-72.6499"/>
<polygon fill="#9a32cd" stroke="#9a32cd" points="142.887,-81.1146 133.176,-85.3501 143.409,-88.0951 142.887,-81.1146"/>
<text text-anchor="middle" x="174" y="-82" font-family="Helvetica,sans-Serif" font-size="10.00"> next</text>
<text text-anchor="middle" x="174" y="-71" font-family="Helvetica,sans-Serif" font-size="10.00">lastdefault</text>
</g>
<!-- Node3 -->
<g id="node5" class="node"><title>Node3</title>
<a xlink:href="structvalue__pair.html" target="_top" xlink:title="value_pair">
<polygon fill="none" stroke="black" points="77.5,-148.5 77.5,-167.5 138.5,-167.5 138.5,-148.5 77.5,-148.5"/>
<text text-anchor="middle" x="108" y="-155.5" font-family="Helvetica,sans-Serif" font-size="10.00">value_pair</text>
</a>
</g>
<!-- Node3&#45;&gt;Node2 -->
<g id="edge6" class="edge"><title>Node3&#45;&gt;Node2</title>
<path fill="none" stroke="#9a32cd" stroke-dasharray="5,2" d="M108,-138.315C108,-122.592 108,-100.808 108,-88.8094"/>
<polygon fill="#9a32cd" stroke="#9a32cd" points="104.5,-138.465 108,-148.465 111.5,-138.465 104.5,-138.465"/>
<text text-anchor="middle" x="121.5" y="-122" font-family="Helvetica,sans-Serif" font-size="10.00"> reply</text>
<text text-anchor="middle" x="121.5" y="-111" font-family="Helvetica,sans-Serif" font-size="10.00">check</text>
</g>
<!-- Node3&#45;&gt;Node3 -->
<g id="edge12" class="edge"><title>Node3&#45;&gt;Node3</title>
<path fill="none" stroke="#9a32cd" stroke-dasharray="5,2" d="M149.201,-163.225C153.353,-162.186 156,-160.445 156,-158 156,-153.883 148.492,-151.76 138.931,-151.631"/>
<polygon fill="#9a32cd" stroke="#9a32cd" points="148.482,-159.783 138.931,-164.369 149.258,-166.74 148.482,-159.783"/>
<text text-anchor="middle" x="167" y="-155.5" font-family="Helvetica,sans-Serif" font-size="10.00"> next</text>
</g>
<!-- Node4 -->
<g id="node7" class="node"><title>Node4</title>
<a xlink:href="unionvalue__pair__data.html" target="_top" xlink:title="value_pair_data">
<polygon fill="none" stroke="black" points="-0.5,-216.5 -0.5,-235.5 84.5,-235.5 84.5,-216.5 -0.5,-216.5"/>
<text text-anchor="middle" x="42" y="-223.5" font-family="Helvetica,sans-Serif" font-size="10.00">value_pair_data</text>
</a>
</g>
<!-- Node4&#45;&gt;Node3 -->
<g id="edge8" class="edge"><title>Node4&#45;&gt;Node3</title>
<path fill="none" stroke="#9a32cd" stroke-dasharray="5,2" d="M57.9526,-209.047C70.8889,-196.111 88.6433,-178.357 99.1589,-167.841"/>
<polygon fill="#9a32cd" stroke="#9a32cd" points="55.2246,-206.826 50.6283,-216.372 60.1743,-211.775 55.2246,-206.826"/>
<text text-anchor="middle" x="92" y="-189.5" font-family="Helvetica,sans-Serif" font-size="10.00"> data</text>
</g>
<!-- Node5 -->
<g id="node9" class="node"><title>Node5</title>
<a xlink:href="structin6__addr.html" target="_top" xlink:title="in6_addr">
<polygon fill="none" stroke="black" points="15.5,-284.5 15.5,-303.5 68.5,-303.5 68.5,-284.5 15.5,-284.5"/>
<text text-anchor="middle" x="42" y="-291.5" font-family="Helvetica,sans-Serif" font-size="10.00">in6_addr</text>
</a>
</g>
<!-- Node5&#45;&gt;Node4 -->
<g id="edge10" class="edge"><title>Node5&#45;&gt;Node4</title>
<path fill="none" stroke="#9a32cd" stroke-dasharray="5,2" d="M42,-274.041C42,-261.472 42,-245.563 42,-235.841"/>
<polygon fill="#9a32cd" stroke="#9a32cd" points="38.5001,-274.372 42,-284.372 45.5001,-274.372 38.5001,-274.372"/>
<text text-anchor="middle" x="62" y="-257.5" font-family="Helvetica,sans-Serif" font-size="10.00"> ipv6addr</text>
</g>
<!-- Node6 -->
<g id="node12" class="node"><title>Node6</title>
<a xlink:href="structattr__flags.html" target="_top" xlink:title="attr_flags">
<polygon fill="none" stroke="black" points="102.5,-216.5 102.5,-235.5 159.5,-235.5 159.5,-216.5 102.5,-216.5"/>
<text text-anchor="middle" x="131" y="-223.5" font-family="Helvetica,sans-Serif" font-size="10.00">attr_flags</text>
</a>
</g>
<!-- Node6&#45;&gt;Node3 -->
<g id="edge14" class="edge"><title>Node6&#45;&gt;Node3</title>
<path fill="none" stroke="#9a32cd" stroke-dasharray="5,2" d="M124.66,-206.807C120.24,-194.124 114.538,-177.762 111.081,-167.841"/>
<polygon fill="#9a32cd" stroke="#9a32cd" points="121.397,-208.08 127.993,-216.372 128.007,-205.777 121.397,-208.08"/>
<text text-anchor="middle" x="133.5" y="-189.5" font-family="Helvetica,sans-Serif" font-size="10.00"> flags</text>
</g>
</g>
</svg>
