<?xml version="1.0" encoding="UTF-8" standalone="no"?>
<!DOCTYPE svg PUBLIC "-//W3C//DTD SVG 1.1//EN"
 "http://www.w3.org/Graphics/SVG/1.1/DTD/svg11.dtd">
<!-- Generated by graphviz version 2.28.0 (20111211.2114)
 -->
<!-- Title: G Pages: 1 -->
<svg width="491pt" height="298pt"
 viewBox="0.00 0.00 491.00 298.50" xmlns="http://www.w3.org/2000/svg" xmlns:xlink="http://www.w3.org/1999/xlink">
<g id="graph1" class="graph" transform="scale(1 1) rotate(0) translate(4 294.5)">
<title>G</title>
<!-- Node1 -->
<g id="node1" class="node"><title>Node1</title>
<polygon fill="#bfbfbf" stroke="black" points="214.5,-0.5 214.5,-19.5 287.5,-19.5 287.5,-0.5 214.5,-0.5"/>
<text text-anchor="middle" x="251" y="-7.5" font-family="Helvetica,sans-Serif" font-size="10.00">home_server</text>
</g>
<!-- Node2 -->
<g id="node2" class="node"><title>Node2</title>
<a xlink:href="structconf__part.html" target="_top" xlink:title="conf_part">
<polygon fill="none" stroke="black" points="55.5,-90.5 55.5,-109.5 112.5,-109.5 112.5,-90.5 55.5,-90.5"/>
<text text-anchor="middle" x="84" y="-97.5" font-family="Helvetica,sans-Serif" font-size="10.00">conf_part</text>
</a>
</g>
<!-- Node2&#45;&gt;Node1 -->
<g id="edge2" class="edge"><title>Node2&#45;&gt;Node1</title>
<path fill="none" stroke="#9a32cd" stroke-dasharray="5,2" d="M114.522,-86.5399C124.654,-82.1841 135.918,-77.1022 146,-72 179.671,-54.9597 217.59,-31.9259 237.355,-19.6112"/>
<polygon fill="#9a32cd" stroke="#9a32cd" points="113.076,-83.3513 105.229,-90.4706 115.803,-89.7983 113.076,-83.3513"/>
<text text-anchor="middle" x="214" y="-52.5" font-family="Helvetica,sans-Serif" font-size="10.00"> cs</text>
</g>
<!-- Node2&#45;&gt;Node2 -->
<g id="edge4" class="edge"><title>Node2&#45;&gt;Node2</title>
<path fill="none" stroke="#9a32cd" stroke-dasharray="5,2" d="M122.76,-106.991C127.153,-105.682 130,-103.352 130,-100 130,-94.5 122.333,-91.75 112.75,-91.75"/>
<polygon fill="#9a32cd" stroke="#9a32cd" points="122.235,-103.53 112.75,-108.25 123.109,-110.475 122.235,-103.53"/>
<text text-anchor="middle" x="150.5" y="-97.5" font-family="Helvetica,sans-Serif" font-size="10.00"> template</text>
</g>
<!-- Node3 -->
<g id="node5" class="node"><title>Node3</title>
<a xlink:href="structconf__item.html" target="_top" xlink:title="conf_item">
<polygon fill="none" stroke="black" points="77.5,-0.5 77.5,-19.5 136.5,-19.5 136.5,-0.5 77.5,-0.5"/>
<text text-anchor="middle" x="107" y="-7.5" font-family="Helvetica,sans-Serif" font-size="10.00">conf_item</text>
</a>
</g>
<!-- Node2&#45;&gt;Node3 -->
<g id="edge8" class="edge"><title>Node2&#45;&gt;Node3</title>
<path fill="none" stroke="#9a32cd" stroke-dasharray="5,2" d="M71.149,-81.6688C69.4404,-78.5848 67.9523,-75.2997 67,-72 62.81,-57.4814 59.908,-51.3435 67,-38 71.2468,-30.0098 79.0295,-23.9559 86.6088,-19.6266"/>
<polygon fill="#9a32cd" stroke="#9a32cd" points="68.2518,-83.6341 76.6208,-90.1311 74.13,-79.8332 68.2518,-83.6341"/>
<text text-anchor="middle" x="82.5" y="-52.5" font-family="Helvetica,sans-Serif" font-size="10.00"> parent</text>
</g>
<!-- Node3&#45;&gt;Node2 -->
<g id="edge6" class="edge"><title>Node3&#45;&gt;Node2</title>
<path fill="none" stroke="#9a32cd" stroke-dasharray="5,2" d="M107.865,-29.5712C107.868,-41.9213 106.759,-58.3235 102,-72 99.704,-78.5977 95.4091,-85.1386 91.5904,-90.1297"/>
<polygon fill="#9a32cd" stroke="#9a32cd" points="111.364,-29.4749 107.622,-19.5629 104.366,-29.6451 111.364,-29.4749"/>
<text text-anchor="middle" x="125" y="-63.5" font-family="Helvetica,sans-Serif" font-size="10.00"> tail</text>
<text text-anchor="middle" x="125" y="-52.5" font-family="Helvetica,sans-Serif" font-size="10.00">item</text>
<text text-anchor="middle" x="125" y="-41.5" font-family="Helvetica,sans-Serif" font-size="10.00">children</text>
</g>
<!-- Node3&#45;&gt;Node3 -->
<g id="edge10" class="edge"><title>Node3&#45;&gt;Node3</title>
<path fill="none" stroke="#9a32cd" stroke-dasharray="5,2" d="M146.812,-16.929C151.181,-15.6089 154,-13.2992 154,-10 154,-4.58594 146.41,-1.83661 136.833,-1.75201"/>
<polygon fill="#9a32cd" stroke="#9a32cd" points="146.288,-13.4678 136.833,-18.248 147.205,-20.4075 146.288,-13.4678"/>
<text text-anchor="middle" x="165" y="-7.5" font-family="Helvetica,sans-Serif" font-size="10.00"> next</text>
</g>
<!-- Node4 -->
<g id="node9" class="node"><title>Node4</title>
<a xlink:href="structCONF__PARSER.html" target="_top" xlink:title="CONF_PARSER">
<polygon fill="none" stroke="black" points="0,-190.5 0,-209.5 92,-209.5 92,-190.5 0,-190.5"/>
<text text-anchor="middle" x="46" y="-197.5" font-family="Helvetica,sans-Serif" font-size="10.00">CONF_PARSER</text>
</a>
</g>
<!-- Node4&#45;&gt;Node2 -->
<g id="edge12" class="edge"><title>Node4&#45;&gt;Node2</title>
<path fill="none" stroke="#9a32cd" stroke-dasharray="5,2" d="M46.1807,-180.157C47.0122,-165.277 49.748,-144.367 58,-128 61.5742,-120.911 67.6466,-114.447 73.0244,-109.622"/>
<polygon fill="#9a32cd" stroke="#9a32cd" points="42.6816,-180.077 45.8563,-190.185 49.6779,-180.303 42.6816,-180.077"/>
<text text-anchor="middle" x="79.5" y="-147.5" font-family="Helvetica,sans-Serif" font-size="10.00"> variables</text>
</g>
<!-- Node5 -->
<g id="node11" class="node"><title>Node5</title>
<a xlink:href="structrbtree__t.html" target="_top" xlink:title="rbtree_t">
<polygon fill="none" stroke="black" points="110,-190.5 110,-209.5 160,-209.5 160,-190.5 110,-190.5"/>
<text text-anchor="middle" x="135" y="-197.5" font-family="Helvetica,sans-Serif" font-size="10.00">rbtree_t</text>
</a>
</g>
<!-- Node5&#45;&gt;Node2 -->
<g id="edge14" class="edge"><title>Node5&#45;&gt;Node2</title>
<path fill="none" stroke="#9a32cd" stroke-dasharray="5,2" d="M126.963,-180.75C120.404,-166.235 110.671,-145.524 101,-128 97.5743,-121.792 93.3243,-115.042 89.9307,-109.844"/>
<polygon fill="#9a32cd" stroke="#9a32cd" points="123.86,-182.386 131.132,-190.091 130.253,-179.533 123.86,-182.386"/>
<text text-anchor="middle" x="150" y="-164" font-family="Helvetica,sans-Serif" font-size="10.00"> data_tree</text>
<text text-anchor="middle" x="150" y="-153" font-family="Helvetica,sans-Serif" font-size="10.00">name2_tree</text>
<text text-anchor="middle" x="150" y="-142" font-family="Helvetica,sans-Serif" font-size="10.00">section_tree</text>
<text text-anchor="middle" x="150" y="-131" font-family="Helvetica,sans-Serif" font-size="10.00">pair_tree</text>
</g>
<!-- Node6 -->
<g id="node13" class="node"><title>Node6</title>
<a xlink:href="structrbnode__t.html" target="_top" xlink:title="rbnode_t">
<polygon fill="none" stroke="black" points="108,-264.5 108,-283.5 162,-283.5 162,-264.5 108,-264.5"/>
<text text-anchor="middle" x="135" y="-271.5" font-family="Helvetica,sans-Serif" font-size="10.00">rbnode_t</text>
</a>
</g>
<!-- Node6&#45;&gt;Node5 -->
<g id="edge16" class="edge"><title>Node6&#45;&gt;Node5</title>
<path fill="none" stroke="#9a32cd" stroke-dasharray="5,2" d="M135,-254.156C135,-239.712 135,-220.459 135,-209.531"/>
<polygon fill="#9a32cd" stroke="#9a32cd" points="131.5,-254.458 135,-264.458 138.5,-254.458 131.5,-254.458"/>
<text text-anchor="middle" x="147.5" y="-231.5" font-family="Helvetica,sans-Serif" font-size="10.00"> Root</text>
</g>
<!-- Node6&#45;&gt;Node6 -->
<g id="edge18" class="edge"><title>Node6&#45;&gt;Node6</title>
<path fill="none" stroke="#9a32cd" stroke-dasharray="5,2" d="M172.51,-280.464C177.038,-279.297 180,-277.142 180,-274 180,-268.844 172.024,-266.346 162.241,-266.507"/>
<polygon fill="#9a32cd" stroke="#9a32cd" points="171.842,-277.014 162.241,-281.493 172.54,-283.979 171.842,-277.014"/>
<text text-anchor="middle" x="194.5" y="-282.5" font-family="Helvetica,sans-Serif" font-size="10.00"> Left</text>
<text text-anchor="middle" x="194.5" y="-271.5" font-family="Helvetica,sans-Serif" font-size="10.00">Right</text>
<text text-anchor="middle" x="194.5" y="-260.5" font-family="Helvetica,sans-Serif" font-size="10.00">Parent</text>
</g>
<!-- Node7 -->
<g id="node16" class="node"><title>Node7</title>
<a xlink:href="structfr__socket__limit__t.html" target="_top" xlink:title="fr_socket_limit_t">
<polygon fill="none" stroke="black" points="189.5,-90.5 189.5,-109.5 278.5,-109.5 278.5,-90.5 189.5,-90.5"/>
<text text-anchor="middle" x="234" y="-97.5" font-family="Helvetica,sans-Serif" font-size="10.00">fr_socket_limit_t</text>
</a>
</g>
<!-- Node7&#45;&gt;Node1 -->
<g id="edge20" class="edge"><title>Node7&#45;&gt;Node1</title>
<path fill="none" stroke="#9a32cd" stroke-dasharray="5,2" d="M237.624,-80.242C241.231,-61.5706 246.608,-33.7354 249.315,-19.7241"/>
<polygon fill="#9a32cd" stroke="#9a32cd" points="234.153,-79.7581 235.692,-90.2405 241.025,-81.0859 234.153,-79.7581"/>
<text text-anchor="middle" x="257" y="-52.5" font-family="Helvetica,sans-Serif" font-size="10.00"> limit</text>
</g>
<!-- Node8 -->
<g id="node18" class="node"><title>Node8</title>
<a xlink:href="structfr__event__t.html" target="_top" xlink:title="fr_event_t">
<polygon fill="none" stroke="black" points="296,-90.5 296,-109.5 356,-109.5 356,-90.5 296,-90.5"/>
<text text-anchor="middle" x="326" y="-97.5" font-family="Helvetica,sans-Serif" font-size="10.00">fr_event_t</text>
</a>
</g>
<!-- Node8&#45;&gt;Node1 -->
<g id="edge22" class="edge"><title>Node8&#45;&gt;Node1</title>
<path fill="none" stroke="#9a32cd" stroke-dasharray="5,2" d="M311.987,-82.558C296.126,-63.9476 270.881,-34.3274 258.435,-19.7241"/>
<polygon fill="#9a32cd" stroke="#9a32cd" points="309.384,-84.8999 318.535,-90.2405 314.712,-80.3593 309.384,-84.8999"/>
<text text-anchor="middle" x="309" y="-52.5" font-family="Helvetica,sans-Serif" font-size="10.00"> ev</text>
</g>
<!-- Node8&#45;&gt;Node8 -->
<g id="edge24" class="edge"><title>Node8&#45;&gt;Node8</title>
<path fill="none" stroke="#9a32cd" stroke-dasharray="5,2" d="M366.343,-106.761C370.408,-105.417 373,-103.164 373,-100 373,-94.6719 365.649,-91.9246 356.287,-91.7581"/>
<polygon fill="#9a32cd" stroke="#9a32cd" points="365.67,-103.322 356.287,-108.242 366.69,-110.248 365.67,-103.322"/>
<text text-anchor="middle" x="385.5" y="-97.5" font-family="Helvetica,sans-Serif" font-size="10.00"> ev_p</text>
</g>
<!-- Node9 -->
<g id="node21" class="node"><title>Node9</title>
<a xlink:href="structfr__ipaddr__t.html" target="_top" xlink:title="fr_ipaddr_t">
<polygon fill="none" stroke="black" points="417,-90.5 417,-109.5 479,-109.5 479,-90.5 417,-90.5"/>
<text text-anchor="middle" x="448" y="-97.5" font-family="Helvetica,sans-Serif" font-size="10.00">fr_ipaddr_t</text>
</a>
</g>
<!-- Node9&#45;&gt;Node1 -->
<g id="edge26" class="edge"><title>Node9&#45;&gt;Node1</title>
<path fill="none" stroke="#9a32cd" stroke-dasharray="5,2" d="M421.698,-85.7846C395.998,-73.0341 355.651,-53.4467 320,-38 304.892,-31.454 287.642,-24.704 274.169,-19.5905"/>
<polygon fill="#9a32cd" stroke="#9a32cd" points="420.279,-88.9878 430.79,-90.3137 423.4,-82.7221 420.279,-88.9878"/>
<text text-anchor="middle" x="417" y="-58" font-family="Helvetica,sans-Serif" font-size="10.00"> ipaddr</text>
<text text-anchor="middle" x="417" y="-47" font-family="Helvetica,sans-Serif" font-size="10.00">src_ipaddr</text>
</g>
<!-- Node10 -->
<g id="node23" class="node"><title>Node10</title>
<a xlink:href="structin6__addr.html" target="_top" xlink:title="in6_addr">
<polygon fill="none" stroke="black" points="421.5,-190.5 421.5,-209.5 474.5,-209.5 474.5,-190.5 421.5,-190.5"/>
<text text-anchor="middle" x="448" y="-197.5" font-family="Helvetica,sans-Serif" font-size="10.00">in6_addr</text>
</a>
</g>
<!-- Node10&#45;&gt;Node9 -->
<g id="edge28" class="edge"><title>Node10&#45;&gt;Node9</title>
<path fill="none" stroke="#9a32cd" stroke-dasharray="5,2" d="M448,-180.22C448,-158.951 448,-125.22 448,-109.537"/>
<polygon fill="#9a32cd" stroke="#9a32cd" points="444.5,-180.303 448,-190.303 451.5,-180.303 444.5,-180.303"/>
<text text-anchor="middle" x="465.5" y="-147.5" font-family="Helvetica,sans-Serif" font-size="10.00"> ip6addr</text>
</g>
</g>
</svg>
