<?xml version="1.0" encoding="UTF-8" standalone="no"?>
<!DOCTYPE svg PUBLIC "-//W3C//DTD SVG 1.1//EN"
 "http://www.w3.org/Graphics/SVG/1.1/DTD/svg11.dtd">
<!-- Generated by graphviz version 2.28.0 (20111211.2114)
 -->
<!-- Title: G Pages: 1 -->
<svg width="100pt" height="164pt"
 viewBox="0.00 0.00 100.00 164.00" xmlns="http://www.w3.org/2000/svg" xmlns:xlink="http://www.w3.org/1999/xlink">
<g id="graph1" class="graph" transform="scale(1 1) rotate(0) translate(4 160)">
<title>G</title>
<!-- Node1 -->
<g id="node1" class="node"><title>Node1</title>
<polygon fill="#bfbfbf" stroke="black" points="0,-0.5 0,-19.5 92,-19.5 92,-0.5 0,-0.5"/>
<text text-anchor="middle" x="46" y="-7.5" font-family="Helvetica,sans-Serif" font-size="10.00">rlm_attr_rewrite_t</text>
</g>
<!-- Node2 -->
<g id="node2" class="node"><title>Node2</title>
<a xlink:href="structdict__attr.html" target="_top" xlink:title="dict_attr">
<polygon fill="none" stroke="black" points="20,-68.5 20,-87.5 72,-87.5 72,-68.5 20,-68.5"/>
<text text-anchor="middle" x="46" y="-75.5" font-family="Helvetica,sans-Serif" font-size="10.00">dict_attr</text>
</a>
</g>
<!-- Node2&#45;&gt;Node1 -->
<g id="edge2" class="edge"><title>Node2&#45;&gt;Node1</title>
<path fill="none" stroke="#9a32cd" stroke-dasharray="5,2" d="M46,-58.0413C46,-45.4724 46,-29.5631 46,-19.8411"/>
<polygon fill="#9a32cd" stroke="#9a32cd" points="42.5001,-58.3716 46,-68.3717 49.5001,-58.3717 42.5001,-58.3716"/>
<text text-anchor="middle" x="53" y="-41.5" font-family="Helvetica,sans-Serif" font-size="10.00"> da</text>
</g>
<!-- Node3 -->
<g id="node4" class="node"><title>Node3</title>
<a xlink:href="structattr__flags.html" target="_top" xlink:title="attr_flags">
<polygon fill="none" stroke="black" points="17.5,-136.5 17.5,-155.5 74.5,-155.5 74.5,-136.5 17.5,-136.5"/>
<text text-anchor="middle" x="46" y="-143.5" font-family="Helvetica,sans-Serif" font-size="10.00">attr_flags</text>
</a>
</g>
<!-- Node3&#45;&gt;Node2 -->
<g id="edge4" class="edge"><title>Node3&#45;&gt;Node2</title>
<path fill="none" stroke="#9a32cd" stroke-dasharray="5,2" d="M46,-126.041C46,-113.472 46,-97.5631 46,-87.8411"/>
<polygon fill="#9a32cd" stroke="#9a32cd" points="42.5001,-126.372 46,-136.372 49.5001,-126.372 42.5001,-126.372"/>
<text text-anchor="middle" x="58.5" y="-109.5" font-family="Helvetica,sans-Serif" font-size="10.00"> flags</text>
</g>
</g>
</svg>
