<?xml version="1.0" encoding="UTF-8" standalone="no"?>
<!DOCTYPE svg PUBLIC "-//W3C//DTD SVG 1.1//EN"
 "http://www.w3.org/Graphics/SVG/1.1/DTD/svg11.dtd">
<!-- Generated by graphviz version 2.28.0 (20111211.2114)
 -->
<!-- Title: G Pages: 1 -->
<svg width="90pt" height="164pt"
 viewBox="0.00 0.00 90.00 164.00" xmlns="http://www.w3.org/2000/svg" xmlns:xlink="http://www.w3.org/1999/xlink">
<g id="graph1" class="graph" transform="scale(1 1) rotate(0) translate(4 160)">
<title>G</title>
<!-- Node1 -->
<g id="node1" class="node"><title>Node1</title>
<polygon fill="#bfbfbf" stroke="black" points="0,-68.5 0,-87.5 78,-87.5 78,-68.5 0,-68.5"/>
<text text-anchor="middle" x="39" y="-75.5" font-family="Helvetica,sans-Serif" font-size="10.00">fr_event_list_t</text>
</g>
<!-- Node3 -->
<g id="node4" class="node"><title>Node3</title>
<a xlink:href="structfr__event__fd__t.html" target="_top" xlink:title="fr_event_fd_t">
<polygon fill="none" stroke="black" points="2,-0.5 2,-19.5 76,-19.5 76,-0.5 2,-0.5"/>
<text text-anchor="middle" x="39" y="-7.5" font-family="Helvetica,sans-Serif" font-size="10.00">fr_event_fd_t</text>
</a>
</g>
<!-- Node1&#45;&gt;Node3 -->
<g id="edge6" class="edge"><title>Node1&#45;&gt;Node3</title>
<path fill="none" stroke="#9a32cd" stroke-dasharray="5,2" d="M16.084,-62.0891C12.4004,-58.5918 9.10964,-54.5403 7,-50 1.53788,-38.2447 13.0866,-27.0465 23.8031,-19.6903"/>
<polygon fill="#9a32cd" stroke="#9a32cd" points="13.9741,-64.8843 23.9445,-68.4679 18.385,-59.4488 13.9741,-64.8843"/>
<text text-anchor="middle" x="24.5" y="-41.5" font-family="Helvetica,sans-Serif" font-size="10.00"> handler</text>
</g>
<!-- Node2 -->
<g id="node2" class="node"><title>Node2</title>
<a xlink:href="structfr__heap__t.html" target="_top" xlink:title="fr_heap_t">
<polygon fill="none" stroke="black" points="10.5,-136.5 10.5,-155.5 67.5,-155.5 67.5,-136.5 10.5,-136.5"/>
<text text-anchor="middle" x="39" y="-143.5" font-family="Helvetica,sans-Serif" font-size="10.00">fr_heap_t</text>
</a>
</g>
<!-- Node2&#45;&gt;Node1 -->
<g id="edge2" class="edge"><title>Node2&#45;&gt;Node1</title>
<path fill="none" stroke="#9a32cd" stroke-dasharray="5,2" d="M39,-126.041C39,-113.472 39,-97.5631 39,-87.8411"/>
<polygon fill="#9a32cd" stroke="#9a32cd" points="35.5001,-126.372 39,-136.372 42.5001,-126.372 35.5001,-126.372"/>
<text text-anchor="middle" x="53" y="-109.5" font-family="Helvetica,sans-Serif" font-size="10.00"> times</text>
</g>
<!-- Node3&#45;&gt;Node1 -->
<g id="edge4" class="edge"><title>Node3&#45;&gt;Node1</title>
<path fill="none" stroke="#9a32cd" stroke-dasharray="5,2" d="M44.6554,-29.4587C46.0157,-35.9325 46.8585,-43.2679 46,-50 45.2159,-56.1486 43.4659,-62.8986 41.9119,-68.1114"/>
<polygon fill="#9a32cd" stroke="#9a32cd" points="48.0027,-28.4246 42.0865,-19.6355 41.2305,-30.1957 48.0027,-28.4246"/>
<text text-anchor="middle" x="64" y="-41.5" font-family="Helvetica,sans-Serif" font-size="10.00"> readers</text>
</g>
</g>
</svg>
