<?xml version="1.0" encoding="UTF-8" standalone="no"?>
<!DOCTYPE svg PUBLIC "-//W3C//DTD SVG 1.1//EN"
 "http://www.w3.org/Graphics/SVG/1.1/DTD/svg11.dtd">
<!-- Generated by graphviz version 2.28.0 (20111211.2114)
 -->
<!-- Title: G Pages: 1 -->
<svg width="96pt" height="186pt"
 viewBox="0.00 0.00 96.00 186.00" xmlns="http://www.w3.org/2000/svg" xmlns:xlink="http://www.w3.org/1999/xlink">
<g id="graph1" class="graph" transform="scale(1 1) rotate(0) translate(4 182)">
<title>G</title>
<!-- Node1 -->
<g id="node1" class="node"><title>Node1</title>
<polygon fill="#bfbfbf" stroke="black" points="-0.5,-0.5 -0.5,-19.5 88.5,-19.5 88.5,-0.5 -0.5,-0.5"/>
<text text-anchor="middle" x="44" y="-7.5" font-family="Helvetica,sans-Serif" font-size="10.00">rlm_sqlcounter_t</text>
</g>
<!-- Node2 -->
<g id="node2" class="node"><title>Node2</title>
<a xlink:href="structdict__attr.html" target="_top" xlink:title="dict_attr">
<polygon fill="none" stroke="black" points="18,-90.5 18,-109.5 70,-109.5 70,-90.5 18,-90.5"/>
<text text-anchor="middle" x="44" y="-97.5" font-family="Helvetica,sans-Serif" font-size="10.00">dict_attr</text>
</a>
</g>
<!-- Node2&#45;&gt;Node1 -->
<g id="edge2" class="edge"><title>Node2&#45;&gt;Node1</title>
<path fill="none" stroke="#9a32cd" stroke-dasharray="5,2" d="M44,-79.9784C44,-61.3096 44,-33.6696 44,-19.7241"/>
<polygon fill="#9a32cd" stroke="#9a32cd" points="40.5001,-80.2405 44,-90.2405 47.5001,-80.2405 40.5001,-80.2405"/>
<text text-anchor="middle" x="66" y="-63.5" font-family="Helvetica,sans-Serif" font-size="10.00"> reply_attr</text>
<text text-anchor="middle" x="66" y="-52.5" font-family="Helvetica,sans-Serif" font-size="10.00">dict_attr</text>
<text text-anchor="middle" x="66" y="-41.5" font-family="Helvetica,sans-Serif" font-size="10.00">key_attr</text>
</g>
<!-- Node3 -->
<g id="node4" class="node"><title>Node3</title>
<a xlink:href="structattr__flags.html" target="_top" xlink:title="attr_flags">
<polygon fill="none" stroke="black" points="15.5,-158.5 15.5,-177.5 72.5,-177.5 72.5,-158.5 15.5,-158.5"/>
<text text-anchor="middle" x="44" y="-165.5" font-family="Helvetica,sans-Serif" font-size="10.00">attr_flags</text>
</a>
</g>
<!-- Node3&#45;&gt;Node2 -->
<g id="edge4" class="edge"><title>Node3&#45;&gt;Node2</title>
<path fill="none" stroke="#9a32cd" stroke-dasharray="5,2" d="M44,-148.041C44,-135.472 44,-119.563 44,-109.841"/>
<polygon fill="#9a32cd" stroke="#9a32cd" points="40.5001,-148.372 44,-158.372 47.5001,-148.372 40.5001,-148.372"/>
<text text-anchor="middle" x="56.5" y="-131.5" font-family="Helvetica,sans-Serif" font-size="10.00"> flags</text>
</g>
</g>
</svg>
