<?xml version="1.0" encoding="UTF-8" standalone="no"?>
<!DOCTYPE svg PUBLIC "-//W3C//DTD SVG 1.1//EN"
 "http://www.w3.org/Graphics/SVG/1.1/DTD/svg11.dtd">
<!-- Generated by graphviz version 2.28.0 (20111211.2114)
 -->
<!-- Title: G Pages: 1 -->
<svg width="239pt" height="322pt"
 viewBox="0.00 0.00 239.00 322.00" xmlns="http://www.w3.org/2000/svg" xmlns:xlink="http://www.w3.org/1999/xlink">
<g id="graph1" class="graph" transform="scale(1 1) rotate(0) translate(4 318)">
<title>G</title>
<!-- Node1 -->
<g id="node1" class="node"><title>Node1</title>
<polygon fill="#bfbfbf" stroke="black" points="125,-1.5 125,-20.5 187,-20.5 187,-1.5 125,-1.5"/>
<text text-anchor="middle" x="156" y="-8.5" font-family="Helvetica,sans-Serif" font-size="10.00">radclient_t</text>
</g>
<!-- Node1&#45;&gt;Node1 -->
<g id="edge18" class="edge"><title>Node1&#45;&gt;Node1</title>
<path fill="none" stroke="#9a32cd" stroke-dasharray="5,2" d="M197.401,-17.0868C201.438,-15.8585 204,-13.8296 204,-11 204,-6.23438 196.732,-3.73987 187.392,-3.51648"/>
<polygon fill="#9a32cd" stroke="#9a32cd" points="196.813,-13.6349 187.392,-18.4835 197.78,-20.5677 196.813,-13.6349"/>
<text text-anchor="middle" x="215" y="-14" font-family="Helvetica,sans-Serif" font-size="10.00"> prev</text>
<text text-anchor="middle" x="215" y="-3" font-family="Helvetica,sans-Serif" font-size="10.00">next</text>
</g>
<!-- Node2 -->
<g id="node2" class="node"><title>Node2</title>
<a xlink:href="structradius__packet.html" target="_top" xlink:title="radius_packet">
<polygon fill="none" stroke="black" points="117.5,-80.5 117.5,-99.5 194.5,-99.5 194.5,-80.5 117.5,-80.5"/>
<text text-anchor="middle" x="156" y="-87.5" font-family="Helvetica,sans-Serif" font-size="10.00">radius_packet</text>
</a>
</g>
<!-- Node2&#45;&gt;Node1 -->
<g id="edge2" class="edge"><title>Node2&#45;&gt;Node1</title>
<path fill="none" stroke="#9a32cd" stroke-dasharray="5,2" d="M156,-70.3145C156,-54.5917 156,-32.8079 156,-20.8094"/>
<polygon fill="#9a32cd" stroke="#9a32cd" points="152.5,-70.4654 156,-80.4655 159.5,-70.4655 152.5,-70.4654"/>
<text text-anchor="middle" x="172.5" y="-54" font-family="Helvetica,sans-Serif" font-size="10.00"> reply</text>
<text text-anchor="middle" x="172.5" y="-43" font-family="Helvetica,sans-Serif" font-size="10.00">request</text>
</g>
<!-- Node3 -->
<g id="node4" class="node"><title>Node3</title>
<a xlink:href="structvalue__pair.html" target="_top" xlink:title="value_pair">
<polygon fill="none" stroke="black" points="53.5,-149.5 53.5,-168.5 114.5,-168.5 114.5,-149.5 53.5,-149.5"/>
<text text-anchor="middle" x="84" y="-156.5" font-family="Helvetica,sans-Serif" font-size="10.00">value_pair</text>
</a>
</g>
<!-- Node3&#45;&gt;Node2 -->
<g id="edge4" class="edge"><title>Node3&#45;&gt;Node2</title>
<path fill="none" stroke="#9a32cd" stroke-dasharray="5,2" d="M101.097,-142.09C115.423,-128.759 135.323,-110.241 146.813,-99.5494"/>
<polygon fill="#9a32cd" stroke="#9a32cd" points="98.3491,-139.866 93.4127,-149.241 103.118,-144.991 98.3491,-139.866"/>
<text text-anchor="middle" x="136.5" y="-121.5" font-family="Helvetica,sans-Serif" font-size="10.00"> vps</text>
</g>
<!-- Node3&#45;&gt;Node3 -->
<g id="edge10" class="edge"><title>Node3&#45;&gt;Node3</title>
<path fill="none" stroke="#9a32cd" stroke-dasharray="5,2" d="M125.201,-164.225C129.353,-163.186 132,-161.445 132,-159 132,-154.883 124.492,-152.76 114.931,-152.631"/>
<polygon fill="#9a32cd" stroke="#9a32cd" points="124.482,-160.783 114.931,-165.369 125.258,-167.74 124.482,-160.783"/>
<text text-anchor="middle" x="143" y="-156.5" font-family="Helvetica,sans-Serif" font-size="10.00"> next</text>
</g>
<!-- Node4 -->
<g id="node6" class="node"><title>Node4</title>
<a xlink:href="unionvalue__pair__data.html" target="_top" xlink:title="value_pair_data">
<polygon fill="none" stroke="black" points="-0.5,-226.5 -0.5,-245.5 84.5,-245.5 84.5,-226.5 -0.5,-226.5"/>
<text text-anchor="middle" x="42" y="-233.5" font-family="Helvetica,sans-Serif" font-size="10.00">value_pair_data</text>
</a>
</g>
<!-- Node4&#45;&gt;Node3 -->
<g id="edge6" class="edge"><title>Node4&#45;&gt;Node3</title>
<path fill="none" stroke="#9a32cd" stroke-dasharray="5,2" d="M51.8802,-217.357C60.4967,-201.97 72.6234,-180.315 79.2383,-168.503"/>
<polygon fill="#9a32cd" stroke="#9a32cd" points="48.6502,-215.961 46.8179,-226.397 54.7578,-219.382 48.6502,-215.961"/>
<text text-anchor="middle" x="79" y="-195.5" font-family="Helvetica,sans-Serif" font-size="10.00"> data</text>
</g>
<!-- Node5 -->
<g id="node8" class="node"><title>Node5</title>
<a xlink:href="structin6__addr.html" target="_top" xlink:title="in6_addr">
<polygon fill="none" stroke="black" points="109.5,-294.5 109.5,-313.5 162.5,-313.5 162.5,-294.5 109.5,-294.5"/>
<text text-anchor="middle" x="136" y="-301.5" font-family="Helvetica,sans-Serif" font-size="10.00">in6_addr</text>
</a>
</g>
<!-- Node5&#45;&gt;Node4 -->
<g id="edge8" class="edge"><title>Node5&#45;&gt;Node4</title>
<path fill="none" stroke="#9a32cd" stroke-dasharray="5,2" d="M115.285,-288.455C96.6098,-275.343 69.775,-256.502 54.2919,-245.63"/>
<polygon fill="#9a32cd" stroke="#9a32cd" points="113.516,-291.49 123.711,-294.372 117.538,-285.761 113.516,-291.49"/>
<text text-anchor="middle" x="118" y="-267.5" font-family="Helvetica,sans-Serif" font-size="10.00"> ipv6addr</text>
</g>
<!-- Node7 -->
<g id="node13" class="node"><title>Node7</title>
<a xlink:href="structfr__ipaddr__t.html" target="_top" xlink:title="fr_ipaddr_t">
<polygon fill="none" stroke="black" points="160,-188.5 160,-207.5 222,-207.5 222,-188.5 160,-188.5"/>
<text text-anchor="middle" x="191" y="-195.5" font-family="Helvetica,sans-Serif" font-size="10.00">fr_ipaddr_t</text>
</a>
</g>
<!-- Node5&#45;&gt;Node7 -->
<g id="edge16" class="edge"><title>Node5&#45;&gt;Node7</title>
<path fill="none" stroke="#9a32cd" stroke-dasharray="5,2" d="M146.201,-285.433C152.618,-274.235 160.984,-259.368 168,-246 174.924,-232.808 182.416,-217.23 186.906,-207.736"/>
<polygon fill="#9a32cd" stroke="#9a32cd" points="143.109,-283.788 141.145,-294.199 149.173,-287.285 143.109,-283.788"/>
<text text-anchor="middle" x="176.5" y="-267.5" font-family="Helvetica,sans-Serif" font-size="10.00"> ip6addr</text>
</g>
<!-- Node6 -->
<g id="node11" class="node"><title>Node6</title>
<a xlink:href="structattr__flags.html" target="_top" xlink:title="attr_flags">
<polygon fill="none" stroke="black" points="102.5,-226.5 102.5,-245.5 159.5,-245.5 159.5,-226.5 102.5,-226.5"/>
<text text-anchor="middle" x="131" y="-233.5" font-family="Helvetica,sans-Serif" font-size="10.00">attr_flags</text>
</a>
</g>
<!-- Node6&#45;&gt;Node3 -->
<g id="edge12" class="edge"><title>Node6&#45;&gt;Node3</title>
<path fill="none" stroke="#9a32cd" stroke-dasharray="5,2" d="M120.218,-217.795C110.56,-202.384 96.8014,-180.428 89.3286,-168.503"/>
<polygon fill="#9a32cd" stroke="#9a32cd" points="117.333,-219.781 125.609,-226.397 123.264,-216.064 117.333,-219.781"/>
<text text-anchor="middle" x="126.5" y="-195.5" font-family="Helvetica,sans-Serif" font-size="10.00"> flags</text>
</g>
<!-- Node7&#45;&gt;Node2 -->
<g id="edge14" class="edge"><title>Node7&#45;&gt;Node2</title>
<path fill="none" stroke="#9a32cd" stroke-dasharray="5,2" d="M184.959,-178.706C177.356,-155.678 164.602,-117.053 158.904,-99.7943"/>
<polygon fill="#9a32cd" stroke="#9a32cd" points="181.677,-179.927 188.136,-188.326 188.324,-177.732 181.677,-179.927"/>
<text text-anchor="middle" x="206.5" y="-162" font-family="Helvetica,sans-Serif" font-size="10.00"> dst_ipaddr</text>
<text text-anchor="middle" x="206.5" y="-151" font-family="Helvetica,sans-Serif" font-size="10.00">src_ipaddr</text>
</g>
</g>
</svg>
