<?xml version="1.0" encoding="UTF-8" standalone="no"?>
<!DOCTYPE svg PUBLIC "-//W3C//DTD SVG 1.1//EN"
 "http://www.w3.org/Graphics/SVG/1.1/DTD/svg11.dtd">
<!-- Generated by graphviz version 2.28.0 (20111211.2114)
 -->
<!-- Title: G Pages: 1 -->
<svg width="252pt" height="298pt"
 viewBox="0.00 0.00 252.00 298.50" xmlns="http://www.w3.org/2000/svg" xmlns:xlink="http://www.w3.org/1999/xlink">
<g id="graph1" class="graph" transform="scale(1 1) rotate(0) translate(4 294.5)">
<title>G</title>
<!-- Node1 -->
<g id="node1" class="node"><title>Node1</title>
<polygon fill="#bfbfbf" stroke="black" points="0,-0.5 0,-19.5 74,-19.5 74,-0.5 0,-0.5"/>
<text text-anchor="middle" x="37" y="-7.5" font-family="Helvetica,sans-Serif" font-size="10.00">rlm_sql_log_t</text>
</g>
<!-- Node2 -->
<g id="node2" class="node"><title>Node2</title>
<a xlink:href="structconf__part.html" target="_top" xlink:title="conf_part">
<polygon fill="none" stroke="black" points="90.5,-90.5 90.5,-109.5 147.5,-109.5 147.5,-90.5 90.5,-90.5"/>
<text text-anchor="middle" x="119" y="-97.5" font-family="Helvetica,sans-Serif" font-size="10.00">conf_part</text>
</a>
</g>
<!-- Node2&#45;&gt;Node1 -->
<g id="edge2" class="edge"><title>Node2&#45;&gt;Node1</title>
<path fill="none" stroke="#9a32cd" stroke-dasharray="5,2" d="M80.6054,-91.777C68.9179,-87.7794 57.0486,-81.5857 49,-72 36.3684,-56.9561 35.6322,-32.4714 36.262,-19.5732"/>
<polygon fill="#9a32cd" stroke="#9a32cd" points="79.7102,-95.162 90.2924,-94.6447 81.6972,-88.45 79.7102,-95.162"/>
<text text-anchor="middle" x="78.5" y="-52.5" font-family="Helvetica,sans-Serif" font-size="10.00"> conf_section</text>
</g>
<!-- Node2&#45;&gt;Node2 -->
<g id="edge4" class="edge"><title>Node2&#45;&gt;Node2</title>
<path fill="none" stroke="#9a32cd" stroke-dasharray="5,2" d="M157.76,-106.991C162.153,-105.682 165,-103.352 165,-100 165,-94.5 157.333,-91.75 147.75,-91.75"/>
<polygon fill="#9a32cd" stroke="#9a32cd" points="157.235,-103.53 147.75,-108.25 158.109,-110.475 157.235,-103.53"/>
<text text-anchor="middle" x="185.5" y="-97.5" font-family="Helvetica,sans-Serif" font-size="10.00"> template</text>
</g>
<!-- Node3 -->
<g id="node5" class="node"><title>Node3</title>
<a xlink:href="structconf__item.html" target="_top" xlink:title="conf_item">
<polygon fill="none" stroke="black" points="117.5,-0.5 117.5,-19.5 176.5,-19.5 176.5,-0.5 117.5,-0.5"/>
<text text-anchor="middle" x="147" y="-7.5" font-family="Helvetica,sans-Serif" font-size="10.00">conf_item</text>
</a>
</g>
<!-- Node2&#45;&gt;Node3 -->
<g id="edge8" class="edge"><title>Node2&#45;&gt;Node3</title>
<path fill="none" stroke="#9a32cd" stroke-dasharray="5,2" d="M113.794,-80.4659C111.277,-67.9238 109.953,-51.286 116,-38 119.43,-30.4648 126.116,-24.2146 132.404,-19.6321"/>
<polygon fill="#9a32cd" stroke="#9a32cd" points="110.406,-81.3478 116.157,-90.2462 117.21,-79.7039 110.406,-81.3478"/>
<text text-anchor="middle" x="131.5" y="-52.5" font-family="Helvetica,sans-Serif" font-size="10.00"> parent</text>
</g>
<!-- Node3&#45;&gt;Node2 -->
<g id="edge6" class="edge"><title>Node3&#45;&gt;Node2</title>
<path fill="none" stroke="#9a32cd" stroke-dasharray="5,2" d="M152.72,-29.5568C155.535,-42.1089 157.157,-58.7494 151,-72 147.447,-79.6468 140.544,-85.9073 134.056,-90.4679"/>
<polygon fill="#9a32cd" stroke="#9a32cd" points="156.067,-28.5245 150.105,-19.7665 149.304,-30.3311 156.067,-28.5245"/>
<text text-anchor="middle" x="173" y="-63.5" font-family="Helvetica,sans-Serif" font-size="10.00"> tail</text>
<text text-anchor="middle" x="173" y="-52.5" font-family="Helvetica,sans-Serif" font-size="10.00">item</text>
<text text-anchor="middle" x="173" y="-41.5" font-family="Helvetica,sans-Serif" font-size="10.00">children</text>
</g>
<!-- Node3&#45;&gt;Node3 -->
<g id="edge10" class="edge"><title>Node3&#45;&gt;Node3</title>
<path fill="none" stroke="#9a32cd" stroke-dasharray="5,2" d="M186.812,-16.929C191.181,-15.6089 194,-13.2992 194,-10 194,-4.58594 186.41,-1.83661 176.833,-1.75201"/>
<polygon fill="#9a32cd" stroke="#9a32cd" points="186.288,-13.4678 176.833,-18.248 187.205,-20.4075 186.288,-13.4678"/>
<text text-anchor="middle" x="205" y="-7.5" font-family="Helvetica,sans-Serif" font-size="10.00"> next</text>
</g>
<!-- Node4 -->
<g id="node9" class="node"><title>Node4</title>
<a xlink:href="structCONF__PARSER.html" target="_top" xlink:title="CONF_PARSER">
<polygon fill="none" stroke="black" points="35,-190.5 35,-209.5 127,-209.5 127,-190.5 35,-190.5"/>
<text text-anchor="middle" x="81" y="-197.5" font-family="Helvetica,sans-Serif" font-size="10.00">CONF_PARSER</text>
</a>
</g>
<!-- Node4&#45;&gt;Node2 -->
<g id="edge12" class="edge"><title>Node4&#45;&gt;Node2</title>
<path fill="none" stroke="#9a32cd" stroke-dasharray="5,2" d="M81.1807,-180.157C82.0122,-165.277 84.748,-144.367 93,-128 96.5742,-120.911 102.647,-114.447 108.024,-109.622"/>
<polygon fill="#9a32cd" stroke="#9a32cd" points="77.6816,-180.077 80.8563,-190.185 84.6779,-180.303 77.6816,-180.077"/>
<text text-anchor="middle" x="114.5" y="-147.5" font-family="Helvetica,sans-Serif" font-size="10.00"> variables</text>
</g>
<!-- Node5 -->
<g id="node11" class="node"><title>Node5</title>
<a xlink:href="structrbtree__t.html" target="_top" xlink:title="rbtree_t">
<polygon fill="none" stroke="black" points="145,-190.5 145,-209.5 195,-209.5 195,-190.5 145,-190.5"/>
<text text-anchor="middle" x="170" y="-197.5" font-family="Helvetica,sans-Serif" font-size="10.00">rbtree_t</text>
</a>
</g>
<!-- Node5&#45;&gt;Node2 -->
<g id="edge14" class="edge"><title>Node5&#45;&gt;Node2</title>
<path fill="none" stroke="#9a32cd" stroke-dasharray="5,2" d="M161.963,-180.75C155.404,-166.235 145.671,-145.524 136,-128 132.574,-121.792 128.324,-115.042 124.931,-109.844"/>
<polygon fill="#9a32cd" stroke="#9a32cd" points="158.86,-182.386 166.132,-190.091 165.253,-179.533 158.86,-182.386"/>
<text text-anchor="middle" x="185" y="-164" font-family="Helvetica,sans-Serif" font-size="10.00"> data_tree</text>
<text text-anchor="middle" x="185" y="-153" font-family="Helvetica,sans-Serif" font-size="10.00">name2_tree</text>
<text text-anchor="middle" x="185" y="-142" font-family="Helvetica,sans-Serif" font-size="10.00">section_tree</text>
<text text-anchor="middle" x="185" y="-131" font-family="Helvetica,sans-Serif" font-size="10.00">pair_tree</text>
</g>
<!-- Node6 -->
<g id="node13" class="node"><title>Node6</title>
<a xlink:href="structrbnode__t.html" target="_top" xlink:title="rbnode_t">
<polygon fill="none" stroke="black" points="143,-264.5 143,-283.5 197,-283.5 197,-264.5 143,-264.5"/>
<text text-anchor="middle" x="170" y="-271.5" font-family="Helvetica,sans-Serif" font-size="10.00">rbnode_t</text>
</a>
</g>
<!-- Node6&#45;&gt;Node5 -->
<g id="edge16" class="edge"><title>Node6&#45;&gt;Node5</title>
<path fill="none" stroke="#9a32cd" stroke-dasharray="5,2" d="M170,-254.156C170,-239.712 170,-220.459 170,-209.531"/>
<polygon fill="#9a32cd" stroke="#9a32cd" points="166.5,-254.458 170,-264.458 173.5,-254.458 166.5,-254.458"/>
<text text-anchor="middle" x="182.5" y="-231.5" font-family="Helvetica,sans-Serif" font-size="10.00"> Root</text>
</g>
<!-- Node6&#45;&gt;Node6 -->
<g id="edge18" class="edge"><title>Node6&#45;&gt;Node6</title>
<path fill="none" stroke="#9a32cd" stroke-dasharray="5,2" d="M207.51,-280.464C212.038,-279.297 215,-277.142 215,-274 215,-268.844 207.024,-266.346 197.241,-266.507"/>
<polygon fill="#9a32cd" stroke="#9a32cd" points="206.842,-277.014 197.241,-281.493 207.54,-283.979 206.842,-277.014"/>
<text text-anchor="middle" x="229.5" y="-282.5" font-family="Helvetica,sans-Serif" font-size="10.00"> Left</text>
<text text-anchor="middle" x="229.5" y="-271.5" font-family="Helvetica,sans-Serif" font-size="10.00">Right</text>
<text text-anchor="middle" x="229.5" y="-260.5" font-family="Helvetica,sans-Serif" font-size="10.00">Parent</text>
</g>
</g>
</svg>
