<?xml version="1.0" encoding="UTF-8" standalone="no"?>
<!DOCTYPE svg PUBLIC "-//W3C//DTD SVG 1.1//EN"
 "http://www.w3.org/Graphics/SVG/1.1/DTD/svg11.dtd">
<!-- Generated by graphviz version 2.28.0 (20111211.2114)
 -->
<!-- Title: G Pages: 1 -->
<svg width="491pt" height="376pt"
 viewBox="0.00 0.00 491.00 376.50" xmlns="http://www.w3.org/2000/svg" xmlns:xlink="http://www.w3.org/1999/xlink">
<g id="graph1" class="graph" transform="scale(1 1) rotate(0) translate(4 372.5)">
<title>G</title>
<!-- Node1 -->
<g id="node1" class="node"><title>Node1</title>
<polygon fill="#bfbfbf" stroke="black" points="69,-0.5 69,-19.5 141,-19.5 141,-0.5 69,-0.5"/>
<text text-anchor="middle" x="105" y="-7.5" font-family="Helvetica,sans-Serif" font-size="10.00">home_pool_t</text>
</g>
<!-- Node2 -->
<g id="node2" class="node"><title>Node2</title>
<a xlink:href="structhome__server.html" target="_top" xlink:title="home_server">
<polygon fill="none" stroke="black" points="200.5,-78.5 200.5,-97.5 273.5,-97.5 273.5,-78.5 200.5,-78.5"/>
<text text-anchor="middle" x="237" y="-85.5" font-family="Helvetica,sans-Serif" font-size="10.00">home_server</text>
</a>
</g>
<!-- Node2&#45;&gt;Node1 -->
<g id="edge2" class="edge"><title>Node2&#45;&gt;Node1</title>
<path fill="none" stroke="#9a32cd" stroke-dasharray="5,2" d="M213.289,-73.348C186.234,-57.771 142.801,-32.7645 120.034,-19.6557"/>
<polygon fill="#9a32cd" stroke="#9a32cd" points="211.702,-76.4731 222.115,-78.4296 215.195,-70.4067 211.702,-76.4731"/>
<text text-anchor="middle" x="205.5" y="-52" font-family="Helvetica,sans-Serif" font-size="10.00"> fallback</text>
<text text-anchor="middle" x="205.5" y="-41" font-family="Helvetica,sans-Serif" font-size="10.00">servers</text>
</g>
<!-- Node3 -->
<g id="node4" class="node"><title>Node3</title>
<a xlink:href="structconf__part.html" target="_top" xlink:title="conf_part">
<polygon fill="none" stroke="black" points="55.5,-168.5 55.5,-187.5 112.5,-187.5 112.5,-168.5 55.5,-168.5"/>
<text text-anchor="middle" x="84" y="-175.5" font-family="Helvetica,sans-Serif" font-size="10.00">conf_part</text>
</a>
</g>
<!-- Node3&#45;&gt;Node1 -->
<g id="edge32" class="edge"><title>Node3&#45;&gt;Node1</title>
<path fill="none" stroke="#9a32cd" stroke-dasharray="5,2" d="M74.1609,-159.602C64.2004,-139.7 51.4023,-106.221 60,-78 67.187,-54.4093 85.7614,-31.5878 96.6685,-19.6282"/>
<polygon fill="#9a32cd" stroke="#9a32cd" points="71.0696,-161.243 78.8495,-168.435 77.2526,-157.961 71.0696,-161.243"/>
<text text-anchor="middle" x="67" y="-85.5" font-family="Helvetica,sans-Serif" font-size="10.00"> cs</text>
</g>
<!-- Node3&#45;&gt;Node2 -->
<g id="edge4" class="edge"><title>Node3&#45;&gt;Node2</title>
<path fill="none" stroke="#9a32cd" stroke-dasharray="5,2" d="M122.506,-165.77C134.546,-161.572 147.643,-156.273 159,-150 186.388,-134.873 214.257,-110.423 228.081,-97.5524"/>
<polygon fill="#9a32cd" stroke="#9a32cd" points="121.085,-162.554 112.703,-169.034 123.297,-169.196 121.085,-162.554"/>
<text text-anchor="middle" x="214" y="-130.5" font-family="Helvetica,sans-Serif" font-size="10.00"> cs</text>
</g>
<!-- Node3&#45;&gt;Node3 -->
<g id="edge6" class="edge"><title>Node3&#45;&gt;Node3</title>
<path fill="none" stroke="#9a32cd" stroke-dasharray="5,2" d="M122.76,-184.991C127.153,-183.682 130,-181.352 130,-178 130,-172.5 122.333,-169.75 112.75,-169.75"/>
<polygon fill="#9a32cd" stroke="#9a32cd" points="122.235,-181.53 112.75,-186.25 123.109,-188.475 122.235,-181.53"/>
<text text-anchor="middle" x="150.5" y="-175.5" font-family="Helvetica,sans-Serif" font-size="10.00"> template</text>
</g>
<!-- Node4 -->
<g id="node7" class="node"><title>Node4</title>
<a xlink:href="structconf__item.html" target="_top" xlink:title="conf_item">
<polygon fill="none" stroke="black" points="83.5,-78.5 83.5,-97.5 142.5,-97.5 142.5,-78.5 83.5,-78.5"/>
<text text-anchor="middle" x="113" y="-85.5" font-family="Helvetica,sans-Serif" font-size="10.00">conf_item</text>
</a>
</g>
<!-- Node3&#45;&gt;Node4 -->
<g id="edge10" class="edge"><title>Node3&#45;&gt;Node4</title>
<path fill="none" stroke="#9a32cd" stroke-dasharray="5,2" d="M78.7272,-158.435C76.1813,-145.88 74.8489,-129.238 81,-116 84.5531,-108.353 91.4565,-102.093 97.9445,-97.5321"/>
<polygon fill="#9a32cd" stroke="#9a32cd" points="75.3464,-159.345 81.1193,-168.229 82.1465,-157.684 75.3464,-159.345"/>
<text text-anchor="middle" x="96.5" y="-130.5" font-family="Helvetica,sans-Serif" font-size="10.00"> parent</text>
</g>
<!-- Node4&#45;&gt;Node3 -->
<g id="edge8" class="edge"><title>Node4&#45;&gt;Node3</title>
<path fill="none" stroke="#9a32cd" stroke-dasharray="5,2" d="M118.273,-107.565C120.819,-120.12 122.151,-136.762 116,-150 112.447,-157.647 105.544,-163.907 99.0555,-168.468"/>
<polygon fill="#9a32cd" stroke="#9a32cd" points="121.654,-106.655 115.881,-97.771 114.853,-108.316 121.654,-106.655"/>
<text text-anchor="middle" x="138" y="-141.5" font-family="Helvetica,sans-Serif" font-size="10.00"> tail</text>
<text text-anchor="middle" x="138" y="-130.5" font-family="Helvetica,sans-Serif" font-size="10.00">item</text>
<text text-anchor="middle" x="138" y="-119.5" font-family="Helvetica,sans-Serif" font-size="10.00">children</text>
</g>
<!-- Node4&#45;&gt;Node4 -->
<g id="edge12" class="edge"><title>Node4&#45;&gt;Node4</title>
<path fill="none" stroke="#9a32cd" stroke-dasharray="5,2" d="M152.812,-93.9842C157.181,-92.844 160,-90.8493 160,-88 160,-83.3242 152.41,-80.9498 142.833,-80.8767"/>
<polygon fill="#9a32cd" stroke="#9a32cd" points="152.371,-90.5117 142.833,-95.1233 153.165,-97.4665 152.371,-90.5117"/>
<text text-anchor="middle" x="171" y="-85.5" font-family="Helvetica,sans-Serif" font-size="10.00"> next</text>
</g>
<!-- Node5 -->
<g id="node11" class="node"><title>Node5</title>
<a xlink:href="structCONF__PARSER.html" target="_top" xlink:title="CONF_PARSER">
<polygon fill="none" stroke="black" points="0,-268.5 0,-287.5 92,-287.5 92,-268.5 0,-268.5"/>
<text text-anchor="middle" x="46" y="-275.5" font-family="Helvetica,sans-Serif" font-size="10.00">CONF_PARSER</text>
</a>
</g>
<!-- Node5&#45;&gt;Node3 -->
<g id="edge14" class="edge"><title>Node5&#45;&gt;Node3</title>
<path fill="none" stroke="#9a32cd" stroke-dasharray="5,2" d="M46.1807,-258.157C47.0122,-243.277 49.748,-222.367 58,-206 61.5742,-198.911 67.6466,-192.447 73.0244,-187.622"/>
<polygon fill="#9a32cd" stroke="#9a32cd" points="42.6816,-258.077 45.8563,-268.185 49.6779,-258.303 42.6816,-258.077"/>
<text text-anchor="middle" x="79.5" y="-225.5" font-family="Helvetica,sans-Serif" font-size="10.00"> variables</text>
</g>
<!-- Node6 -->
<g id="node13" class="node"><title>Node6</title>
<a xlink:href="structrbtree__t.html" target="_top" xlink:title="rbtree_t">
<polygon fill="none" stroke="black" points="110,-268.5 110,-287.5 160,-287.5 160,-268.5 110,-268.5"/>
<text text-anchor="middle" x="135" y="-275.5" font-family="Helvetica,sans-Serif" font-size="10.00">rbtree_t</text>
</a>
</g>
<!-- Node6&#45;&gt;Node3 -->
<g id="edge16" class="edge"><title>Node6&#45;&gt;Node3</title>
<path fill="none" stroke="#9a32cd" stroke-dasharray="5,2" d="M126.963,-258.75C120.404,-244.235 110.671,-223.524 101,-206 97.5743,-199.792 93.3243,-193.042 89.9307,-187.844"/>
<polygon fill="#9a32cd" stroke="#9a32cd" points="123.86,-260.386 131.132,-268.091 130.253,-257.533 123.86,-260.386"/>
<text text-anchor="middle" x="150" y="-242" font-family="Helvetica,sans-Serif" font-size="10.00"> data_tree</text>
<text text-anchor="middle" x="150" y="-231" font-family="Helvetica,sans-Serif" font-size="10.00">name2_tree</text>
<text text-anchor="middle" x="150" y="-220" font-family="Helvetica,sans-Serif" font-size="10.00">section_tree</text>
<text text-anchor="middle" x="150" y="-209" font-family="Helvetica,sans-Serif" font-size="10.00">pair_tree</text>
</g>
<!-- Node7 -->
<g id="node15" class="node"><title>Node7</title>
<a xlink:href="structrbnode__t.html" target="_top" xlink:title="rbnode_t">
<polygon fill="none" stroke="black" points="108,-342.5 108,-361.5 162,-361.5 162,-342.5 108,-342.5"/>
<text text-anchor="middle" x="135" y="-349.5" font-family="Helvetica,sans-Serif" font-size="10.00">rbnode_t</text>
</a>
</g>
<!-- Node7&#45;&gt;Node6 -->
<g id="edge18" class="edge"><title>Node7&#45;&gt;Node6</title>
<path fill="none" stroke="#9a32cd" stroke-dasharray="5,2" d="M135,-332.156C135,-317.712 135,-298.459 135,-287.531"/>
<polygon fill="#9a32cd" stroke="#9a32cd" points="131.5,-332.458 135,-342.458 138.5,-332.458 131.5,-332.458"/>
<text text-anchor="middle" x="147.5" y="-309.5" font-family="Helvetica,sans-Serif" font-size="10.00"> Root</text>
</g>
<!-- Node7&#45;&gt;Node7 -->
<g id="edge20" class="edge"><title>Node7&#45;&gt;Node7</title>
<path fill="none" stroke="#9a32cd" stroke-dasharray="5,2" d="M172.51,-358.464C177.038,-357.297 180,-355.142 180,-352 180,-346.844 172.024,-344.346 162.241,-344.507"/>
<polygon fill="#9a32cd" stroke="#9a32cd" points="171.842,-355.014 162.241,-359.493 172.54,-361.979 171.842,-355.014"/>
<text text-anchor="middle" x="194.5" y="-360.5" font-family="Helvetica,sans-Serif" font-size="10.00"> Left</text>
<text text-anchor="middle" x="194.5" y="-349.5" font-family="Helvetica,sans-Serif" font-size="10.00">Right</text>
<text text-anchor="middle" x="194.5" y="-338.5" font-family="Helvetica,sans-Serif" font-size="10.00">Parent</text>
</g>
<!-- Node8 -->
<g id="node18" class="node"><title>Node8</title>
<a xlink:href="structfr__socket__limit__t.html" target="_top" xlink:title="fr_socket_limit_t">
<polygon fill="none" stroke="black" points="189.5,-168.5 189.5,-187.5 278.5,-187.5 278.5,-168.5 189.5,-168.5"/>
<text text-anchor="middle" x="234" y="-175.5" font-family="Helvetica,sans-Serif" font-size="10.00">fr_socket_limit_t</text>
</a>
</g>
<!-- Node8&#45;&gt;Node2 -->
<g id="edge22" class="edge"><title>Node8&#45;&gt;Node2</title>
<path fill="none" stroke="#9a32cd" stroke-dasharray="5,2" d="M234.639,-158.242C235.276,-139.571 236.225,-111.735 236.703,-97.7241"/>
<polygon fill="#9a32cd" stroke="#9a32cd" points="231.141,-158.127 234.299,-168.241 238.137,-158.366 231.141,-158.127"/>
<text text-anchor="middle" x="248" y="-130.5" font-family="Helvetica,sans-Serif" font-size="10.00"> limit</text>
</g>
<!-- Node9 -->
<g id="node20" class="node"><title>Node9</title>
<a xlink:href="structfr__event__t.html" target="_top" xlink:title="fr_event_t">
<polygon fill="none" stroke="black" points="296,-168.5 296,-187.5 356,-187.5 356,-168.5 296,-168.5"/>
<text text-anchor="middle" x="326" y="-175.5" font-family="Helvetica,sans-Serif" font-size="10.00">fr_event_t</text>
</a>
</g>
<!-- Node9&#45;&gt;Node2 -->
<g id="edge24" class="edge"><title>Node9&#45;&gt;Node2</title>
<path fill="none" stroke="#9a32cd" stroke-dasharray="5,2" d="M309.877,-161.058C291.09,-142.483 260.726,-112.459 245.823,-97.7241"/>
<polygon fill="#9a32cd" stroke="#9a32cd" points="307.569,-163.698 317.141,-168.241 312.491,-158.721 307.569,-163.698"/>
<text text-anchor="middle" x="305" y="-130.5" font-family="Helvetica,sans-Serif" font-size="10.00"> ev</text>
</g>
<!-- Node9&#45;&gt;Node9 -->
<g id="edge26" class="edge"><title>Node9&#45;&gt;Node9</title>
<path fill="none" stroke="#9a32cd" stroke-dasharray="5,2" d="M366.343,-184.761C370.408,-183.417 373,-181.164 373,-178 373,-172.672 365.649,-169.925 356.287,-169.758"/>
<polygon fill="#9a32cd" stroke="#9a32cd" points="365.67,-181.322 356.287,-186.242 366.69,-188.248 365.67,-181.322"/>
<text text-anchor="middle" x="385.5" y="-175.5" font-family="Helvetica,sans-Serif" font-size="10.00"> ev_p</text>
</g>
<!-- Node10 -->
<g id="node23" class="node"><title>Node10</title>
<a xlink:href="structfr__ipaddr__t.html" target="_top" xlink:title="fr_ipaddr_t">
<polygon fill="none" stroke="black" points="417,-168.5 417,-187.5 479,-187.5 479,-168.5 417,-168.5"/>
<text text-anchor="middle" x="448" y="-175.5" font-family="Helvetica,sans-Serif" font-size="10.00">fr_ipaddr_t</text>
</a>
</g>
<!-- Node10&#45;&gt;Node2 -->
<g id="edge28" class="edge"><title>Node10&#45;&gt;Node2</title>
<path fill="none" stroke="#9a32cd" stroke-dasharray="5,2" d="M421.766,-163.897C395.379,-150.951 353.359,-130.97 316,-116 299.048,-109.207 279.645,-102.56 264.311,-97.5614"/>
<polygon fill="#9a32cd" stroke="#9a32cd" points="420.226,-167.04 430.743,-168.326 423.323,-160.762 420.226,-167.04"/>
<text text-anchor="middle" x="415" y="-136" font-family="Helvetica,sans-Serif" font-size="10.00"> ipaddr</text>
<text text-anchor="middle" x="415" y="-125" font-family="Helvetica,sans-Serif" font-size="10.00">src_ipaddr</text>
</g>
<!-- Node11 -->
<g id="node25" class="node"><title>Node11</title>
<a xlink:href="structin6__addr.html" target="_top" xlink:title="in6_addr">
<polygon fill="none" stroke="black" points="421.5,-268.5 421.5,-287.5 474.5,-287.5 474.5,-268.5 421.5,-268.5"/>
<text text-anchor="middle" x="448" y="-275.5" font-family="Helvetica,sans-Serif" font-size="10.00">in6_addr</text>
</a>
</g>
<!-- Node11&#45;&gt;Node10 -->
<g id="edge30" class="edge"><title>Node11&#45;&gt;Node10</title>
<path fill="none" stroke="#9a32cd" stroke-dasharray="5,2" d="M448,-258.22C448,-236.951 448,-203.22 448,-187.537"/>
<polygon fill="#9a32cd" stroke="#9a32cd" points="444.5,-258.303 448,-268.303 451.5,-258.303 444.5,-258.303"/>
<text text-anchor="middle" x="465.5" y="-225.5" font-family="Helvetica,sans-Serif" font-size="10.00"> ip6addr</text>
</g>
</g>
</svg>
