<?xml version="1.0" encoding="UTF-8" standalone="no"?>
<!DOCTYPE svg PUBLIC "-//W3C//DTD SVG 1.1//EN"
 "http://www.w3.org/Graphics/SVG/1.1/DTD/svg11.dtd">
<!-- Generated by graphviz version 2.28.0 (20111211.2114)
 -->
<!-- Title: G Pages: 1 -->
<svg width="425pt" height="446pt"
 viewBox="0.00 0.00 425.00 446.50" xmlns="http://www.w3.org/2000/svg" xmlns:xlink="http://www.w3.org/1999/xlink">
<g id="graph1" class="graph" transform="scale(1 1) rotate(0) translate(4 442.5)">
<title>G</title>
<!-- Node1 -->
<g id="node1" class="node"><title>Node1</title>
<polygon fill="#bfbfbf" stroke="black" points="170,-0.5 170,-19.5 220,-19.5 220,-0.5 170,-0.5"/>
<text text-anchor="middle" x="195" y="-7.5" font-family="Helvetica,sans-Serif" font-size="10.00">sql_inst</text>
</g>
<!-- Node2 -->
<g id="node2" class="node"><title>Node2</title>
<a xlink:href="structfr__connection__pool__t.html" target="_top" xlink:title="fr_connection_pool_t">
<polygon fill="none" stroke="black" points="-0.5,-146.5 -0.5,-165.5 106.5,-165.5 106.5,-146.5 -0.5,-146.5"/>
<text text-anchor="middle" x="53" y="-153.5" font-family="Helvetica,sans-Serif" font-size="10.00">fr_connection_pool_t</text>
</a>
</g>
<!-- Node2&#45;&gt;Node1 -->
<g id="edge2" class="edge"><title>Node2&#45;&gt;Node1</title>
<path fill="none" stroke="#9a32cd" stroke-dasharray="5,2" d="M58.5712,-136.629C67.4395,-110.588 87.2975,-63.3006 121,-38 135.437,-27.1624 154.66,-20.3226 169.895,-16.2392"/>
<polygon fill="#9a32cd" stroke="#9a32cd" points="55.1705,-135.771 55.4351,-146.362 61.8332,-137.918 55.1705,-135.771"/>
<text text-anchor="middle" x="103" y="-75.5" font-family="Helvetica,sans-Serif" font-size="10.00"> pool</text>
</g>
<!-- Node3 -->
<g id="node4" class="node"><title>Node3</title>
<a xlink:href="structconf__part.html" target="_top" xlink:title="conf_part">
<polygon fill="none" stroke="black" points="192.5,-237.5 192.5,-256.5 249.5,-256.5 249.5,-237.5 192.5,-237.5"/>
<text text-anchor="middle" x="221" y="-244.5" font-family="Helvetica,sans-Serif" font-size="10.00">conf_part</text>
</a>
</g>
<!-- Node3&#45;&gt;Node1 -->
<g id="edge26" class="edge"><title>Node3&#45;&gt;Node1</title>
<path fill="none" stroke="#9a32cd" stroke-dasharray="5,2" d="M202.147,-230.546C185.878,-215.886 163.538,-192.244 154,-166 139.122,-125.064 140.639,-109.456 154,-68 160.282,-48.5082 175.976,-30.0516 186.024,-19.6658"/>
<polygon fill="#9a32cd" stroke="#9a32cd" points="200.154,-233.45 210.002,-237.359 204.741,-228.163 200.154,-233.45"/>
<text text-anchor="middle" x="152" y="-114.5" font-family="Helvetica,sans-Serif" font-size="10.00"> cs</text>
</g>
<!-- Node3&#45;&gt;Node2 -->
<g id="edge4" class="edge"><title>Node3&#45;&gt;Node2</title>
<path fill="none" stroke="#9a32cd" stroke-dasharray="5,2" d="M182.169,-243.137C158.773,-239.869 129.293,-232.888 107,-218 91.4021,-207.583 94.4739,-198.007 82,-184 76.1441,-177.424 68.8941,-170.674 63.1081,-165.568"/>
<polygon fill="#9a32cd" stroke="#9a32cd" points="181.762,-246.613 192.114,-244.358 182.615,-239.666 181.762,-246.613"/>
<text text-anchor="middle" x="114" y="-198.5" font-family="Helvetica,sans-Serif" font-size="10.00"> cs</text>
</g>
<!-- Node3&#45;&gt;Node3 -->
<g id="edge6" class="edge"><title>Node3&#45;&gt;Node3</title>
<path fill="none" stroke="#9a32cd" stroke-dasharray="5,2" d="M259.76,-254.309C264.153,-252.94 267,-250.504 267,-247 267,-241.25 259.333,-238.375 249.75,-238.375"/>
<polygon fill="#9a32cd" stroke="#9a32cd" points="259.208,-250.851 249.75,-255.625 260.121,-257.792 259.208,-250.851"/>
<text text-anchor="middle" x="287.5" y="-244.5" font-family="Helvetica,sans-Serif" font-size="10.00"> template</text>
</g>
<!-- Node4 -->
<g id="node7" class="node"><title>Node4</title>
<a xlink:href="structconf__item.html" target="_top" xlink:title="conf_item">
<polygon fill="none" stroke="black" points="297.5,-146.5 297.5,-165.5 356.5,-165.5 356.5,-146.5 297.5,-146.5"/>
<text text-anchor="middle" x="327" y="-153.5" font-family="Helvetica,sans-Serif" font-size="10.00">conf_item</text>
</a>
</g>
<!-- Node3&#45;&gt;Node4 -->
<g id="edge10" class="edge"><title>Node3&#45;&gt;Node4</title>
<path fill="none" stroke="#9a32cd" stroke-dasharray="5,2" d="M232.762,-228.424C244.333,-211.303 260.851,-187.37 265,-184 274.933,-175.932 287.648,-169.839 298.974,-165.503"/>
<polygon fill="#9a32cd" stroke="#9a32cd" points="229.63,-226.81 226.953,-237.061 235.438,-230.717 229.63,-226.81"/>
<text text-anchor="middle" x="280.5" y="-198.5" font-family="Helvetica,sans-Serif" font-size="10.00"> parent</text>
</g>
<!-- Node12 -->
<g id="node28" class="node"><title>Node12</title>
<a xlink:href="structrlm__sql__config__section.html" target="_top" xlink:title="rlm_sql_config_section">
<polygon fill="none" stroke="black" points="163,-146.5 163,-165.5 279,-165.5 279,-146.5 163,-146.5"/>
<text text-anchor="middle" x="221" y="-153.5" font-family="Helvetica,sans-Serif" font-size="10.00">rlm_sql_config_section</text>
</a>
</g>
<!-- Node3&#45;&gt;Node12 -->
<g id="edge36" class="edge"><title>Node3&#45;&gt;Node12</title>
<path fill="none" stroke="#9a32cd" stroke-dasharray="5,2" d="M221,-227.349C221,-208.383 221,-179.828 221,-165.639"/>
<polygon fill="#9a32cd" stroke="#9a32cd" points="217.5,-227.466 221,-237.466 224.5,-227.466 217.5,-227.466"/>
<text text-anchor="middle" x="228" y="-198.5" font-family="Helvetica,sans-Serif" font-size="10.00"> cs</text>
</g>
<!-- Node4&#45;&gt;Node3 -->
<g id="edge8" class="edge"><title>Node4&#45;&gt;Node3</title>
<path fill="none" stroke="#9a32cd" stroke-dasharray="5,2" d="M322.897,-175.813C319.069,-189.23 312.078,-206.807 300,-218 286.232,-230.759 266.279,-237.769 249.872,-241.584"/>
<polygon fill="#9a32cd" stroke="#9a32cd" points="326.382,-176.303 325.412,-165.753 319.591,-174.606 326.382,-176.303"/>
<text text-anchor="middle" x="338" y="-209.5" font-family="Helvetica,sans-Serif" font-size="10.00"> tail</text>
<text text-anchor="middle" x="338" y="-198.5" font-family="Helvetica,sans-Serif" font-size="10.00">item</text>
<text text-anchor="middle" x="338" y="-187.5" font-family="Helvetica,sans-Serif" font-size="10.00">children</text>
</g>
<!-- Node4&#45;&gt;Node4 -->
<g id="edge12" class="edge"><title>Node4&#45;&gt;Node4</title>
<path fill="none" stroke="#9a32cd" stroke-dasharray="5,2" d="M366.812,-161.984C371.181,-160.844 374,-158.849 374,-156 374,-151.324 366.41,-148.95 356.833,-148.877"/>
<polygon fill="#9a32cd" stroke="#9a32cd" points="366.371,-158.512 356.833,-163.123 367.165,-165.467 366.371,-158.512"/>
<text text-anchor="middle" x="385" y="-153.5" font-family="Helvetica,sans-Serif" font-size="10.00"> next</text>
</g>
<!-- Node5 -->
<g id="node11" class="node"><title>Node5</title>
<a xlink:href="structCONF__PARSER.html" target="_top" xlink:title="CONF_PARSER">
<polygon fill="none" stroke="black" points="142,-338.5 142,-357.5 234,-357.5 234,-338.5 142,-338.5"/>
<text text-anchor="middle" x="188" y="-345.5" font-family="Helvetica,sans-Serif" font-size="10.00">CONF_PARSER</text>
</a>
</g>
<!-- Node5&#45;&gt;Node3 -->
<g id="edge14" class="edge"><title>Node5&#45;&gt;Node3</title>
<path fill="none" stroke="#9a32cd" stroke-dasharray="5,2" d="M188.774,-327.982C189.942,-313.276 192.841,-292.679 200,-276 203.068,-268.853 208.318,-261.853 212.801,-256.64"/>
<polygon fill="#9a32cd" stroke="#9a32cd" points="185.259,-328.137 188.161,-338.326 192.247,-328.551 185.259,-328.137"/>
<text text-anchor="middle" x="221.5" y="-295.5" font-family="Helvetica,sans-Serif" font-size="10.00"> variables</text>
</g>
<!-- Node6 -->
<g id="node13" class="node"><title>Node6</title>
<a xlink:href="structrbtree__t.html" target="_top" xlink:title="rbtree_t">
<polygon fill="none" stroke="black" points="252,-338.5 252,-357.5 302,-357.5 302,-338.5 252,-338.5"/>
<text text-anchor="middle" x="277" y="-345.5" font-family="Helvetica,sans-Serif" font-size="10.00">rbtree_t</text>
</a>
</g>
<!-- Node6&#45;&gt;Node3 -->
<g id="edge16" class="edge"><title>Node6&#45;&gt;Node3</title>
<path fill="none" stroke="#9a32cd" stroke-dasharray="5,2" d="M269.663,-328.943C263.384,-314.241 253.685,-293.184 243,-276 238.822,-269.28 233.322,-262.28 228.866,-256.96"/>
<polygon fill="#9a32cd" stroke="#9a32cd" points="266.518,-330.495 273.596,-338.378 272.979,-327.801 266.518,-330.495"/>
<text text-anchor="middle" x="293" y="-312" font-family="Helvetica,sans-Serif" font-size="10.00"> data_tree</text>
<text text-anchor="middle" x="293" y="-301" font-family="Helvetica,sans-Serif" font-size="10.00">name2_tree</text>
<text text-anchor="middle" x="293" y="-290" font-family="Helvetica,sans-Serif" font-size="10.00">section_tree</text>
<text text-anchor="middle" x="293" y="-279" font-family="Helvetica,sans-Serif" font-size="10.00">pair_tree</text>
</g>
<!-- Node7 -->
<g id="node15" class="node"><title>Node7</title>
<a xlink:href="structrbnode__t.html" target="_top" xlink:title="rbnode_t">
<polygon fill="none" stroke="black" points="250,-412.5 250,-431.5 304,-431.5 304,-412.5 250,-412.5"/>
<text text-anchor="middle" x="277" y="-419.5" font-family="Helvetica,sans-Serif" font-size="10.00">rbnode_t</text>
</a>
</g>
<!-- Node7&#45;&gt;Node6 -->
<g id="edge18" class="edge"><title>Node7&#45;&gt;Node6</title>
<path fill="none" stroke="#9a32cd" stroke-dasharray="5,2" d="M277,-402.156C277,-387.712 277,-368.459 277,-357.531"/>
<polygon fill="#9a32cd" stroke="#9a32cd" points="273.5,-402.458 277,-412.458 280.5,-402.458 273.5,-402.458"/>
<text text-anchor="middle" x="289.5" y="-379.5" font-family="Helvetica,sans-Serif" font-size="10.00"> Root</text>
</g>
<!-- Node7&#45;&gt;Node7 -->
<g id="edge20" class="edge"><title>Node7&#45;&gt;Node7</title>
<path fill="none" stroke="#9a32cd" stroke-dasharray="5,2" d="M314.51,-428.464C319.038,-427.297 322,-425.142 322,-422 322,-416.844 314.024,-414.346 304.241,-414.507"/>
<polygon fill="#9a32cd" stroke="#9a32cd" points="313.842,-425.014 304.241,-429.493 314.54,-431.979 313.842,-425.014"/>
<text text-anchor="middle" x="336.5" y="-430.5" font-family="Helvetica,sans-Serif" font-size="10.00"> Left</text>
<text text-anchor="middle" x="336.5" y="-419.5" font-family="Helvetica,sans-Serif" font-size="10.00">Right</text>
<text text-anchor="middle" x="336.5" y="-408.5" font-family="Helvetica,sans-Serif" font-size="10.00">Parent</text>
</g>
<!-- Node8 -->
<g id="node18" class="node"><title>Node8</title>
<a xlink:href="structfr__connection__t.html" target="_top" xlink:title="fr_connection_t">
<polygon fill="none" stroke="black" points="11.5,-237.5 11.5,-256.5 94.5,-256.5 94.5,-237.5 11.5,-237.5"/>
<text text-anchor="middle" x="53" y="-244.5" font-family="Helvetica,sans-Serif" font-size="10.00">fr_connection_t</text>
</a>
</g>
<!-- Node8&#45;&gt;Node2 -->
<g id="edge22" class="edge"><title>Node8&#45;&gt;Node2</title>
<path fill="none" stroke="#9a32cd" stroke-dasharray="5,2" d="M53,-227.349C53,-208.383 53,-179.828 53,-165.639"/>
<polygon fill="#9a32cd" stroke="#9a32cd" points="49.5001,-227.466 53,-237.466 56.5001,-227.466 49.5001,-227.466"/>
<text text-anchor="middle" x="65.5" y="-204" font-family="Helvetica,sans-Serif" font-size="10.00"> head</text>
<text text-anchor="middle" x="65.5" y="-193" font-family="Helvetica,sans-Serif" font-size="10.00">tail</text>
</g>
<!-- Node8&#45;&gt;Node8 -->
<g id="edge24" class="edge"><title>Node8&#45;&gt;Node8</title>
<path fill="none" stroke="#9a32cd" stroke-dasharray="5,2" d="M104.508,-253.816C109.111,-252.388 112,-250.116 112,-247 112,-242.014 104.605,-239.189 94.6251,-238.527"/>
<polygon fill="#9a32cd" stroke="#9a32cd" points="103.909,-250.367 94.6251,-255.473 105.066,-257.271 103.909,-250.367"/>
<text text-anchor="middle" x="123" y="-250" font-family="Helvetica,sans-Serif" font-size="10.00"> prev</text>
<text text-anchor="middle" x="123" y="-239" font-family="Helvetica,sans-Serif" font-size="10.00">next</text>
</g>
<!-- Node9 -->
<g id="node22" class="node"><title>Node9</title>
<a xlink:href="structsql__socket.html" target="_top" xlink:title="sql_socket">
<polygon fill="none" stroke="black" points="163,-68.5 163,-87.5 227,-87.5 227,-68.5 163,-68.5"/>
<text text-anchor="middle" x="195" y="-75.5" font-family="Helvetica,sans-Serif" font-size="10.00">sql_socket</text>
</a>
</g>
<!-- Node9&#45;&gt;Node1 -->
<g id="edge28" class="edge"><title>Node9&#45;&gt;Node1</title>
<path fill="none" stroke="#9a32cd" stroke-dasharray="5,2" d="M195,-58.0413C195,-45.4724 195,-29.5631 195,-19.8411"/>
<polygon fill="#9a32cd" stroke="#9a32cd" points="191.5,-58.3716 195,-68.3717 198.5,-58.3717 191.5,-58.3716"/>
<text text-anchor="middle" x="230" y="-41.5" font-family="Helvetica,sans-Serif" font-size="10.00"> sql_get_socket</text>
</g>
<!-- Node10 -->
<g id="node24" class="node"><title>Node10</title>
<a xlink:href="structrlm__sql__module__t.html" target="_top" xlink:title="rlm_sql_module_t">
<polygon fill="none" stroke="black" points="245.5,-68.5 245.5,-87.5 338.5,-87.5 338.5,-68.5 245.5,-68.5"/>
<text text-anchor="middle" x="292" y="-75.5" font-family="Helvetica,sans-Serif" font-size="10.00">rlm_sql_module_t</text>
</a>
</g>
<!-- Node10&#45;&gt;Node1 -->
<g id="edge30" class="edge"><title>Node10&#45;&gt;Node1</title>
<path fill="none" stroke="#9a32cd" stroke-dasharray="5,2" d="M284.716,-59.0832C280.958,-51.708 275.73,-43.599 269,-38 255.017,-26.3676 235.59,-19.5343 220.149,-15.6533"/>
<polygon fill="#9a32cd" stroke="#9a32cd" points="281.615,-60.72 288.934,-68.3809 287.99,-57.8282 281.615,-60.72"/>
<text text-anchor="middle" x="296.5" y="-41.5" font-family="Helvetica,sans-Serif" font-size="10.00"> module</text>
</g>
<!-- Node11 -->
<g id="node26" class="node"><title>Node11</title>
<a xlink:href="structsql__config.html" target="_top" xlink:title="sql_config">
<polygon fill="none" stroke="black" points="356.5,-68.5 356.5,-87.5 417.5,-87.5 417.5,-68.5 356.5,-68.5"/>
<text text-anchor="middle" x="387" y="-75.5" font-family="Helvetica,sans-Serif" font-size="10.00">sql_config</text>
</a>
</g>
<!-- Node11&#45;&gt;Node1 -->
<g id="edge32" class="edge"><title>Node11&#45;&gt;Node1</title>
<path fill="none" stroke="#9a32cd" stroke-dasharray="5,2" d="M365.561,-62.6691C352.337,-54.402 334.754,-44.4074 318,-38 285.328,-25.5051 245.449,-18.0819 220.134,-14.2717"/>
<polygon fill="#9a32cd" stroke="#9a32cd" points="364.038,-65.851 374.344,-68.3075 367.82,-59.9601 364.038,-65.851"/>
<text text-anchor="middle" x="359" y="-41.5" font-family="Helvetica,sans-Serif" font-size="10.00"> config</text>
</g>
<!-- Node12&#45;&gt;Node11 -->
<g id="edge34" class="edge"><title>Node12&#45;&gt;Node11</title>
<path fill="none" stroke="#9a32cd" stroke-dasharray="5,2" d="M249.082,-142.143C283.055,-126.589 339.297,-100.84 368.349,-87.5391"/>
<polygon fill="#9a32cd" stroke="#9a32cd" points="247.355,-139.084 239.72,-146.43 250.269,-145.449 247.355,-139.084"/>
<text text-anchor="middle" x="349.5" y="-120" font-family="Helvetica,sans-Serif" font-size="10.00"> accounting</text>
<text text-anchor="middle" x="349.5" y="-109" font-family="Helvetica,sans-Serif" font-size="10.00">postauth</text>
</g>
</g>
</svg>
