<?xml version="1.0" encoding="UTF-8" standalone="no"?>
<!DOCTYPE svg PUBLIC "-//W3C//DTD SVG 1.1//EN"
 "http://www.w3.org/Graphics/SVG/1.1/DTD/svg11.dtd">
<!-- Generated by graphviz version 2.28.0 (20111211.2114)
 -->
<!-- Title: G Pages: 1 -->
<svg width="257pt" height="298pt"
 viewBox="0.00 0.00 257.00 298.50" xmlns="http://www.w3.org/2000/svg" xmlns:xlink="http://www.w3.org/1999/xlink">
<g id="graph1" class="graph" transform="scale(1 1) rotate(0) translate(4 294.5)">
<title>G</title>
<!-- Node1 -->
<g id="node1" class="node"><title>Node1</title>
<polygon fill="#bfbfbf" stroke="black" points="169,-0.5 169,-19.5 239,-19.5 239,-0.5 169,-0.5"/>
<text text-anchor="middle" x="204" y="-7.5" font-family="Helvetica,sans-Serif" font-size="10.00">eap_types_t</text>
</g>
<!-- Node2 -->
<g id="node2" class="node"><title>Node2</title>
<a xlink:href="structconf__part.html" target="_top" xlink:title="conf_part">
<polygon fill="none" stroke="black" points="50.5,-90.5 50.5,-109.5 107.5,-109.5 107.5,-90.5 50.5,-90.5"/>
<text text-anchor="middle" x="79" y="-97.5" font-family="Helvetica,sans-Serif" font-size="10.00">conf_part</text>
</a>
</g>
<!-- Node2&#45;&gt;Node1 -->
<g id="edge2" class="edge"><title>Node2&#45;&gt;Node1</title>
<path fill="none" stroke="#9a32cd" stroke-dasharray="5,2" d="M99.9023,-84.2848C126.116,-65.8305 170.21,-34.7879 191.608,-19.7241"/>
<polygon fill="#9a32cd" stroke="#9a32cd" points="97.6046,-81.622 91.4425,-90.2405 101.634,-87.3458 97.6046,-81.622"/>
<text text-anchor="middle" x="171" y="-52.5" font-family="Helvetica,sans-Serif" font-size="10.00"> cs</text>
</g>
<!-- Node2&#45;&gt;Node2 -->
<g id="edge4" class="edge"><title>Node2&#45;&gt;Node2</title>
<path fill="none" stroke="#9a32cd" stroke-dasharray="5,2" d="M117.76,-106.991C122.153,-105.682 125,-103.352 125,-100 125,-94.5 117.333,-91.75 107.75,-91.75"/>
<polygon fill="#9a32cd" stroke="#9a32cd" points="117.235,-103.53 107.75,-108.25 118.109,-110.475 117.235,-103.53"/>
<text text-anchor="middle" x="145.5" y="-97.5" font-family="Helvetica,sans-Serif" font-size="10.00"> template</text>
</g>
<!-- Node3 -->
<g id="node5" class="node"><title>Node3</title>
<a xlink:href="structconf__item.html" target="_top" xlink:title="conf_item">
<polygon fill="none" stroke="black" points="39.5,-0.5 39.5,-19.5 98.5,-19.5 98.5,-0.5 39.5,-0.5"/>
<text text-anchor="middle" x="69" y="-7.5" font-family="Helvetica,sans-Serif" font-size="10.00">conf_item</text>
</a>
</g>
<!-- Node2&#45;&gt;Node3 -->
<g id="edge8" class="edge"><title>Node2&#45;&gt;Node3</title>
<path fill="none" stroke="#9a32cd" stroke-dasharray="5,2" d="M51.519,-84.4637C47.2788,-80.9677 43.4883,-76.8205 41,-72 34.0687,-58.5723 35.0906,-51.9077 41,-38 44.1162,-30.666 50.3087,-24.3566 56.0793,-19.6853"/>
<polygon fill="#9a32cd" stroke="#9a32cd" points="49.8007,-87.5328 60.003,-90.3899 53.8093,-81.7941 49.8007,-87.5328"/>
<text text-anchor="middle" x="56.5" y="-52.5" font-family="Helvetica,sans-Serif" font-size="10.00"> parent</text>
</g>
<!-- Node3&#45;&gt;Node2 -->
<g id="edge6" class="edge"><title>Node3&#45;&gt;Node2</title>
<path fill="none" stroke="#9a32cd" stroke-dasharray="5,2" d="M74.3927,-29.7806C75.0259,-32.5193 75.591,-35.3192 76,-38 78.8147,-56.4479 79.1772,-78.362 79.1288,-90.2567"/>
<polygon fill="#9a32cd" stroke="#9a32cd" points="77.7243,-28.6873 71.7988,-19.9044 70.954,-30.4655 77.7243,-28.6873"/>
<text text-anchor="middle" x="96" y="-63.5" font-family="Helvetica,sans-Serif" font-size="10.00"> tail</text>
<text text-anchor="middle" x="96" y="-52.5" font-family="Helvetica,sans-Serif" font-size="10.00">item</text>
<text text-anchor="middle" x="96" y="-41.5" font-family="Helvetica,sans-Serif" font-size="10.00">children</text>
</g>
<!-- Node3&#45;&gt;Node3 -->
<g id="edge10" class="edge"><title>Node3&#45;&gt;Node3</title>
<path fill="none" stroke="#9a32cd" stroke-dasharray="5,2" d="M108.812,-16.929C113.181,-15.6089 116,-13.2992 116,-10 116,-4.58594 108.41,-1.83661 98.8325,-1.75201"/>
<polygon fill="#9a32cd" stroke="#9a32cd" points="108.288,-13.4678 98.8325,-18.248 109.205,-20.4075 108.288,-13.4678"/>
<text text-anchor="middle" x="127" y="-7.5" font-family="Helvetica,sans-Serif" font-size="10.00"> next</text>
</g>
<!-- Node4 -->
<g id="node9" class="node"><title>Node4</title>
<a xlink:href="structCONF__PARSER.html" target="_top" xlink:title="CONF_PARSER">
<polygon fill="none" stroke="black" points="0,-190.5 0,-209.5 92,-209.5 92,-190.5 0,-190.5"/>
<text text-anchor="middle" x="46" y="-197.5" font-family="Helvetica,sans-Serif" font-size="10.00">CONF_PARSER</text>
</a>
</g>
<!-- Node4&#45;&gt;Node2 -->
<g id="edge12" class="edge"><title>Node4&#45;&gt;Node2</title>
<path fill="none" stroke="#9a32cd" stroke-dasharray="5,2" d="M46.6924,-179.947C47.8159,-165.221 50.6947,-144.615 58,-128 60.9638,-121.259 65.9834,-114.714 70.3719,-109.756"/>
<polygon fill="#9a32cd" stroke="#9a32cd" points="43.177,-180.129 46.1167,-190.307 50.1662,-180.517 43.177,-180.129"/>
<text text-anchor="middle" x="79.5" y="-147.5" font-family="Helvetica,sans-Serif" font-size="10.00"> variables</text>
</g>
<!-- Node5 -->
<g id="node11" class="node"><title>Node5</title>
<a xlink:href="structrbtree__t.html" target="_top" xlink:title="rbtree_t">
<polygon fill="none" stroke="black" points="110,-190.5 110,-209.5 160,-209.5 160,-190.5 110,-190.5"/>
<text text-anchor="middle" x="135" y="-197.5" font-family="Helvetica,sans-Serif" font-size="10.00">rbtree_t</text>
</a>
</g>
<!-- Node5&#45;&gt;Node2 -->
<g id="edge14" class="edge"><title>Node5&#45;&gt;Node2</title>
<path fill="none" stroke="#9a32cd" stroke-dasharray="5,2" d="M127.744,-180.892C121.512,-166.161 111.837,-145.089 101,-128 96.8551,-121.464 91.3551,-114.714 86.8913,-109.598"/>
<polygon fill="#9a32cd" stroke="#9a32cd" points="124.595,-182.437 131.64,-190.35 131.067,-179.771 124.595,-182.437"/>
<text text-anchor="middle" x="151" y="-164" font-family="Helvetica,sans-Serif" font-size="10.00"> data_tree</text>
<text text-anchor="middle" x="151" y="-153" font-family="Helvetica,sans-Serif" font-size="10.00">name2_tree</text>
<text text-anchor="middle" x="151" y="-142" font-family="Helvetica,sans-Serif" font-size="10.00">section_tree</text>
<text text-anchor="middle" x="151" y="-131" font-family="Helvetica,sans-Serif" font-size="10.00">pair_tree</text>
</g>
<!-- Node6 -->
<g id="node13" class="node"><title>Node6</title>
<a xlink:href="structrbnode__t.html" target="_top" xlink:title="rbnode_t">
<polygon fill="none" stroke="black" points="108,-264.5 108,-283.5 162,-283.5 162,-264.5 108,-264.5"/>
<text text-anchor="middle" x="135" y="-271.5" font-family="Helvetica,sans-Serif" font-size="10.00">rbnode_t</text>
</a>
</g>
<!-- Node6&#45;&gt;Node5 -->
<g id="edge16" class="edge"><title>Node6&#45;&gt;Node5</title>
<path fill="none" stroke="#9a32cd" stroke-dasharray="5,2" d="M135,-254.156C135,-239.712 135,-220.459 135,-209.531"/>
<polygon fill="#9a32cd" stroke="#9a32cd" points="131.5,-254.458 135,-264.458 138.5,-254.458 131.5,-254.458"/>
<text text-anchor="middle" x="147.5" y="-231.5" font-family="Helvetica,sans-Serif" font-size="10.00"> Root</text>
</g>
<!-- Node6&#45;&gt;Node6 -->
<g id="edge18" class="edge"><title>Node6&#45;&gt;Node6</title>
<path fill="none" stroke="#9a32cd" stroke-dasharray="5,2" d="M172.51,-280.464C177.038,-279.297 180,-277.142 180,-274 180,-268.844 172.024,-266.346 162.241,-266.507"/>
<polygon fill="#9a32cd" stroke="#9a32cd" points="171.842,-277.014 162.241,-281.493 172.54,-283.979 171.842,-277.014"/>
<text text-anchor="middle" x="194.5" y="-282.5" font-family="Helvetica,sans-Serif" font-size="10.00"> Left</text>
<text text-anchor="middle" x="194.5" y="-271.5" font-family="Helvetica,sans-Serif" font-size="10.00">Right</text>
<text text-anchor="middle" x="194.5" y="-260.5" font-family="Helvetica,sans-Serif" font-size="10.00">Parent</text>
</g>
<!-- Node7 -->
<g id="node16" class="node"><title>Node7</title>
<a xlink:href="structeap__type__t.html" target="_top" xlink:title="eap_type_t">
<polygon fill="none" stroke="black" points="184.5,-90.5 184.5,-109.5 249.5,-109.5 249.5,-90.5 184.5,-90.5"/>
<text text-anchor="middle" x="217" y="-97.5" font-family="Helvetica,sans-Serif" font-size="10.00">eap_type_t</text>
</a>
</g>
<!-- Node7&#45;&gt;Node1 -->
<g id="edge20" class="edge"><title>Node7&#45;&gt;Node1</title>
<path fill="none" stroke="#9a32cd" stroke-dasharray="5,2" d="M214.229,-80.242C211.471,-61.5706 207.359,-33.7354 205.289,-19.7241"/>
<polygon fill="#9a32cd" stroke="#9a32cd" points="210.782,-80.8594 215.706,-90.2405 217.707,-79.8363 210.782,-80.8594"/>
<text text-anchor="middle" x="224" y="-52.5" font-family="Helvetica,sans-Serif" font-size="10.00"> type</text>
</g>
</g>
</svg>
