<?xml version="1.0" encoding="UTF-8" standalone="no"?>
<!DOCTYPE svg PUBLIC "-//W3C//DTD SVG 1.1//EN"
 "http://www.w3.org/Graphics/SVG/1.1/DTD/svg11.dtd">
<!-- Generated by graphviz version 2.28.0 (20111211.2114)
 -->
<!-- Title: G Pages: 1 -->
<svg width="272pt" height="110pt"
 viewBox="0.00 0.00 272.00 110.00" xmlns="http://www.w3.org/2000/svg" xmlns:xlink="http://www.w3.org/1999/xlink">
<g id="graph1" class="graph" transform="scale(1 1) rotate(0) translate(4 106)">
<title>G</title>
<!-- Node1 -->
<g id="node1" class="node"><title>Node1</title>
<polygon fill="#bfbfbf" stroke="black" points="0,-1.5 0,-20.5 80,-20.5 80,-1.5 0,-1.5"/>
<text text-anchor="middle" x="40" y="-8.5" font-family="Helvetica,sans-Serif" font-size="10.00">SMB_File_Def</text>
</g>
<!-- Node2 -->
<g id="node2" class="node"><title>Node2</title>
<a xlink:href="structSMB__Tree__Structure.html" target="_top" xlink:title="SMB_Tree_Structure">
<polygon fill="none" stroke="black" points="30,-81.5 30,-100.5 138,-100.5 138,-81.5 30,-81.5"/>
<text text-anchor="middle" x="84" y="-88.5" font-family="Helvetica,sans-Serif" font-size="10.00">SMB_Tree_Structure</text>
</a>
</g>
<!-- Node2&#45;&gt;Node1 -->
<g id="edge2" class="edge"><title>Node2&#45;&gt;Node1</title>
<path fill="none" stroke="#9a32cd" stroke-dasharray="5,2" d="M54.5574,-75.6828C49.5631,-71.9277 45.0222,-67.3855 42,-62 34.7724,-49.1207 36.262,-31.2977 38.0785,-20.7765"/>
<polygon fill="#9a32cd" stroke="#9a32cd" points="52.9041,-78.7816 63.2028,-81.2692 56.7033,-72.9022 52.9041,-78.7816"/>
<text text-anchor="middle" x="52" y="-48.5" font-family="Helvetica,sans-Serif" font-size="10.00"> tree</text>
</g>
<!-- Node2&#45;&gt;Node2 -->
<g id="edge4" class="edge"><title>Node2&#45;&gt;Node2</title>
<path fill="none" stroke="#9a32cd" stroke-dasharray="5,2" d="M147.964,-96.666C152.934,-95.4161 156,-93.5275 156,-91 156,-87.0547 148.529,-84.6659 138.007,-83.8337"/>
<polygon fill="#9a32cd" stroke="#9a32cd" points="147.374,-93.2152 138.007,-98.1663 148.417,-100.137 147.374,-93.2152"/>
<text text-anchor="middle" x="167" y="-94" font-family="Helvetica,sans-Serif" font-size="10.00"> prev</text>
<text text-anchor="middle" x="167" y="-83" font-family="Helvetica,sans-Serif" font-size="10.00">next</text>
</g>
<!-- Node3 -->
<g id="node5" class="node"><title>Node3</title>
<a xlink:href="structSMB__Connect__Def.html" target="_top" xlink:title="SMB_Connect_Def">
<polygon fill="none" stroke="black" points="98.5,-1.5 98.5,-20.5 199.5,-20.5 199.5,-1.5 98.5,-1.5"/>
<text text-anchor="middle" x="149" y="-8.5" font-family="Helvetica,sans-Serif" font-size="10.00">SMB_Connect_Def</text>
</a>
</g>
<!-- Node2&#45;&gt;Node3 -->
<g id="edge8" class="edge"><title>Node2&#45;&gt;Node3</title>
<path fill="none" stroke="#9a32cd" stroke-dasharray="5,2" d="M77.7646,-71.5324C75.5376,-61.4197 74.8879,-49.1268 81,-40 87.1096,-30.877 96.7884,-24.7236 106.949,-20.5742"/>
<polygon fill="#9a32cd" stroke="#9a32cd" points="74.4651,-72.7272 80.5547,-81.3971 81.2009,-70.822 74.4651,-72.7272"/>
<text text-anchor="middle" x="102" y="-54" font-family="Helvetica,sans-Serif" font-size="10.00"> first_tree</text>
<text text-anchor="middle" x="102" y="-43" font-family="Helvetica,sans-Serif" font-size="10.00">last_tree</text>
</g>
<!-- Node3&#45;&gt;Node2 -->
<g id="edge6" class="edge"><title>Node3&#45;&gt;Node2</title>
<path fill="none" stroke="#9a32cd" stroke-dasharray="5,2" d="M143.865,-30.1426C140.328,-40.3144 134.837,-52.7721 127,-62 120.195,-70.0125 110.528,-76.5874 102.082,-81.3477"/>
<polygon fill="#9a32cd" stroke="#9a32cd" points="147.204,-31.1904 146.859,-20.6012 140.525,-29.0945 147.204,-31.1904"/>
<text text-anchor="middle" x="149.5" y="-48.5" font-family="Helvetica,sans-Serif" font-size="10.00"> con</text>
</g>
<!-- Node3&#45;&gt;Node3 -->
<g id="edge10" class="edge"><title>Node3&#45;&gt;Node3</title>
<path fill="none" stroke="#9a32cd" stroke-dasharray="5,2" d="M209.616,-16.6103C214.189,-15.3603 217,-13.4902 217,-11 217,-7.01562 209.803,-4.61877 199.711,-3.80945"/>
<polygon fill="#9a32cd" stroke="#9a32cd" points="209.035,-13.1588 199.711,-18.1906 210.137,-20.0714 209.035,-13.1588"/>
<text text-anchor="middle" x="240.5" y="-14" font-family="Helvetica,sans-Serif" font-size="10.00"> Prev_Con</text>
<text text-anchor="middle" x="240.5" y="-3" font-family="Helvetica,sans-Serif" font-size="10.00">Next_Con</text>
</g>
</g>
</svg>
