<?xml version="1.0" encoding="UTF-8" standalone="no"?>
<!DOCTYPE svg PUBLIC "-//W3C//DTD SVG 1.1//EN"
 "http://www.w3.org/Graphics/SVG/1.1/DTD/svg11.dtd">
<!-- Generated by graphviz version 2.28.0 (20111211.2114)
 -->
<!-- Title: G Pages: 1 -->
<svg width="242pt" height="298pt"
 viewBox="0.00 0.00 242.00 298.50" xmlns="http://www.w3.org/2000/svg" xmlns:xlink="http://www.w3.org/1999/xlink">
<g id="graph1" class="graph" transform="scale(1 1) rotate(0) translate(4 294.5)">
<title>G</title>
<!-- Node1 -->
<g id="node1" class="node"><title>Node1</title>
<polygon fill="#bfbfbf" stroke="black" points="-1,-0.5 -1,-19.5 115,-19.5 115,-0.5 -1,-0.5"/>
<text text-anchor="middle" x="57" y="-7.5" font-family="Helvetica,sans-Serif" font-size="10.00">rlm_sql_config_section</text>
</g>
<!-- Node2 -->
<g id="node2" class="node"><title>Node2</title>
<a xlink:href="structconf__part.html" target="_top" xlink:title="conf_part">
<polygon fill="none" stroke="black" points="80.5,-90.5 80.5,-109.5 137.5,-109.5 137.5,-90.5 80.5,-90.5"/>
<text text-anchor="middle" x="109" y="-97.5" font-family="Helvetica,sans-Serif" font-size="10.00">conf_part</text>
</a>
</g>
<!-- Node2&#45;&gt;Node1 -->
<g id="edge2" class="edge"><title>Node2&#45;&gt;Node1</title>
<path fill="none" stroke="#9a32cd" stroke-dasharray="5,2" d="M84.5622,-84.2433C80.2056,-80.6936 76.0812,-76.583 73,-72 62.0044,-55.6453 58.5612,-32.1319 57.4859,-19.6123"/>
<polygon fill="#9a32cd" stroke="#9a32cd" points="82.8587,-87.3307 93.0128,-90.3549 86.9609,-81.6586 82.8587,-87.3307"/>
<text text-anchor="middle" x="80" y="-52.5" font-family="Helvetica,sans-Serif" font-size="10.00"> cs</text>
</g>
<!-- Node2&#45;&gt;Node2 -->
<g id="edge4" class="edge"><title>Node2&#45;&gt;Node2</title>
<path fill="none" stroke="#9a32cd" stroke-dasharray="5,2" d="M147.76,-106.991C152.153,-105.682 155,-103.352 155,-100 155,-94.5 147.333,-91.75 137.75,-91.75"/>
<polygon fill="#9a32cd" stroke="#9a32cd" points="147.235,-103.53 137.75,-108.25 148.109,-110.475 147.235,-103.53"/>
<text text-anchor="middle" x="175.5" y="-97.5" font-family="Helvetica,sans-Serif" font-size="10.00"> template</text>
</g>
<!-- Node3 -->
<g id="node5" class="node"><title>Node3</title>
<a xlink:href="structconf__item.html" target="_top" xlink:title="conf_item">
<polygon fill="none" stroke="black" points="133.5,-0.5 133.5,-19.5 192.5,-19.5 192.5,-0.5 133.5,-0.5"/>
<text text-anchor="middle" x="163" y="-7.5" font-family="Helvetica,sans-Serif" font-size="10.00">conf_item</text>
</a>
</g>
<!-- Node2&#45;&gt;Node3 -->
<g id="edge8" class="edge"><title>Node2&#45;&gt;Node3</title>
<path fill="none" stroke="#9a32cd" stroke-dasharray="5,2" d="M102.863,-80.6753C99.7183,-67.7635 98.0266,-50.5996 106,-38 112.148,-28.2846 122.842,-21.9967 133.318,-17.9591"/>
<polygon fill="#9a32cd" stroke="#9a32cd" points="99.5156,-81.7003 105.665,-90.3276 106.238,-79.7483 99.5156,-81.7003"/>
<text text-anchor="middle" x="121.5" y="-52.5" font-family="Helvetica,sans-Serif" font-size="10.00"> parent</text>
</g>
<!-- Node3&#45;&gt;Node2 -->
<g id="edge6" class="edge"><title>Node3&#45;&gt;Node2</title>
<path fill="none" stroke="#9a32cd" stroke-dasharray="5,2" d="M159.032,-29.4695C155.675,-42.223 149.953,-59.1359 141,-72 136.017,-79.1593 128.674,-85.5394 122.279,-90.2977"/>
<polygon fill="#9a32cd" stroke="#9a32cd" points="162.485,-30.0775 161.395,-19.5389 155.675,-28.4569 162.485,-30.0775"/>
<text text-anchor="middle" x="174" y="-63.5" font-family="Helvetica,sans-Serif" font-size="10.00"> tail</text>
<text text-anchor="middle" x="174" y="-52.5" font-family="Helvetica,sans-Serif" font-size="10.00">item</text>
<text text-anchor="middle" x="174" y="-41.5" font-family="Helvetica,sans-Serif" font-size="10.00">children</text>
</g>
<!-- Node3&#45;&gt;Node3 -->
<g id="edge10" class="edge"><title>Node3&#45;&gt;Node3</title>
<path fill="none" stroke="#9a32cd" stroke-dasharray="5,2" d="M202.812,-16.929C207.181,-15.6089 210,-13.2992 210,-10 210,-4.58594 202.41,-1.83661 192.833,-1.75201"/>
<polygon fill="#9a32cd" stroke="#9a32cd" points="202.288,-13.4678 192.833,-18.248 203.205,-20.4075 202.288,-13.4678"/>
<text text-anchor="middle" x="221" y="-7.5" font-family="Helvetica,sans-Serif" font-size="10.00"> next</text>
</g>
<!-- Node4 -->
<g id="node9" class="node"><title>Node4</title>
<a xlink:href="structCONF__PARSER.html" target="_top" xlink:title="CONF_PARSER">
<polygon fill="none" stroke="black" points="25,-190.5 25,-209.5 117,-209.5 117,-190.5 25,-190.5"/>
<text text-anchor="middle" x="71" y="-197.5" font-family="Helvetica,sans-Serif" font-size="10.00">CONF_PARSER</text>
</a>
</g>
<!-- Node4&#45;&gt;Node2 -->
<g id="edge12" class="edge"><title>Node4&#45;&gt;Node2</title>
<path fill="none" stroke="#9a32cd" stroke-dasharray="5,2" d="M71.1807,-180.157C72.0122,-165.277 74.748,-144.367 83,-128 86.5742,-120.911 92.6466,-114.447 98.0244,-109.622"/>
<polygon fill="#9a32cd" stroke="#9a32cd" points="67.6816,-180.077 70.8563,-190.185 74.6779,-180.303 67.6816,-180.077"/>
<text text-anchor="middle" x="104.5" y="-147.5" font-family="Helvetica,sans-Serif" font-size="10.00"> variables</text>
</g>
<!-- Node5 -->
<g id="node11" class="node"><title>Node5</title>
<a xlink:href="structrbtree__t.html" target="_top" xlink:title="rbtree_t">
<polygon fill="none" stroke="black" points="135,-190.5 135,-209.5 185,-209.5 185,-190.5 135,-190.5"/>
<text text-anchor="middle" x="160" y="-197.5" font-family="Helvetica,sans-Serif" font-size="10.00">rbtree_t</text>
</a>
</g>
<!-- Node5&#45;&gt;Node2 -->
<g id="edge14" class="edge"><title>Node5&#45;&gt;Node2</title>
<path fill="none" stroke="#9a32cd" stroke-dasharray="5,2" d="M151.963,-180.75C145.404,-166.235 135.671,-145.524 126,-128 122.574,-121.792 118.324,-115.042 114.931,-109.844"/>
<polygon fill="#9a32cd" stroke="#9a32cd" points="148.86,-182.386 156.132,-190.091 155.253,-179.533 148.86,-182.386"/>
<text text-anchor="middle" x="175" y="-164" font-family="Helvetica,sans-Serif" font-size="10.00"> data_tree</text>
<text text-anchor="middle" x="175" y="-153" font-family="Helvetica,sans-Serif" font-size="10.00">name2_tree</text>
<text text-anchor="middle" x="175" y="-142" font-family="Helvetica,sans-Serif" font-size="10.00">section_tree</text>
<text text-anchor="middle" x="175" y="-131" font-family="Helvetica,sans-Serif" font-size="10.00">pair_tree</text>
</g>
<!-- Node6 -->
<g id="node13" class="node"><title>Node6</title>
<a xlink:href="structrbnode__t.html" target="_top" xlink:title="rbnode_t">
<polygon fill="none" stroke="black" points="133,-264.5 133,-283.5 187,-283.5 187,-264.5 133,-264.5"/>
<text text-anchor="middle" x="160" y="-271.5" font-family="Helvetica,sans-Serif" font-size="10.00">rbnode_t</text>
</a>
</g>
<!-- Node6&#45;&gt;Node5 -->
<g id="edge16" class="edge"><title>Node6&#45;&gt;Node5</title>
<path fill="none" stroke="#9a32cd" stroke-dasharray="5,2" d="M160,-254.156C160,-239.712 160,-220.459 160,-209.531"/>
<polygon fill="#9a32cd" stroke="#9a32cd" points="156.5,-254.458 160,-264.458 163.5,-254.458 156.5,-254.458"/>
<text text-anchor="middle" x="172.5" y="-231.5" font-family="Helvetica,sans-Serif" font-size="10.00"> Root</text>
</g>
<!-- Node6&#45;&gt;Node6 -->
<g id="edge18" class="edge"><title>Node6&#45;&gt;Node6</title>
<path fill="none" stroke="#9a32cd" stroke-dasharray="5,2" d="M197.51,-280.464C202.038,-279.297 205,-277.142 205,-274 205,-268.844 197.024,-266.346 187.241,-266.507"/>
<polygon fill="#9a32cd" stroke="#9a32cd" points="196.842,-277.014 187.241,-281.493 197.54,-283.979 196.842,-277.014"/>
<text text-anchor="middle" x="219.5" y="-282.5" font-family="Helvetica,sans-Serif" font-size="10.00"> Left</text>
<text text-anchor="middle" x="219.5" y="-271.5" font-family="Helvetica,sans-Serif" font-size="10.00">Right</text>
<text text-anchor="middle" x="219.5" y="-260.5" font-family="Helvetica,sans-Serif" font-size="10.00">Parent</text>
</g>
</g>
</svg>
