<?xml version="1.0" encoding="UTF-8" standalone="no"?>
<!DOCTYPE svg PUBLIC "-//W3C//DTD SVG 1.1//EN"
 "http://www.w3.org/Graphics/SVG/1.1/DTD/svg11.dtd">
<!-- Generated by graphviz version 2.28.0 (20111211.2114)
 -->
<!-- Title: G Pages: 1 -->
<svg width="177pt" height="110pt"
 viewBox="0.00 0.00 177.00 110.00" xmlns="http://www.w3.org/2000/svg" xmlns:xlink="http://www.w3.org/1999/xlink">
<g id="graph1" class="graph" transform="scale(1 1) rotate(0) translate(4 106)">
<title>G</title>
<!-- Node1 -->
<g id="node1" class="node"><title>Node1</title>
<polygon fill="#bfbfbf" stroke="black" points="3.5,-81.5 3.5,-100.5 104.5,-100.5 104.5,-81.5 3.5,-81.5"/>
<text text-anchor="middle" x="54" y="-88.5" font-family="Helvetica,sans-Serif" font-size="10.00">SMB_Connect_Def</text>
</g>
<!-- Node1&#45;&gt;Node1 -->
<g id="edge8" class="edge"><title>Node1&#45;&gt;Node1</title>
<path fill="none" stroke="#9a32cd" stroke-dasharray="5,2" d="M114.616,-96.6103C119.189,-95.3603 122,-93.4902 122,-91 122,-87.0156 114.803,-84.6188 104.711,-83.8094"/>
<polygon fill="#9a32cd" stroke="#9a32cd" points="114.035,-93.1588 104.711,-98.1906 115.137,-100.071 114.035,-93.1588"/>
<text text-anchor="middle" x="145.5" y="-94" font-family="Helvetica,sans-Serif" font-size="10.00"> Prev_Con</text>
<text text-anchor="middle" x="145.5" y="-83" font-family="Helvetica,sans-Serif" font-size="10.00">Next_Con</text>
</g>
<!-- Node2 -->
<g id="node2" class="node"><title>Node2</title>
<a xlink:href="structSMB__Tree__Structure.html" target="_top" xlink:title="SMB_Tree_Structure">
<polygon fill="none" stroke="black" points="0,-1.5 0,-20.5 108,-20.5 108,-1.5 0,-1.5"/>
<text text-anchor="middle" x="54" y="-8.5" font-family="Helvetica,sans-Serif" font-size="10.00">SMB_Tree_Structure</text>
</a>
</g>
<!-- Node1&#45;&gt;Node2 -->
<g id="edge6" class="edge"><title>Node1&#45;&gt;Node2</title>
<path fill="none" stroke="#9a32cd" stroke-dasharray="5,2" d="M37.3179,-73.3643C34.7281,-69.8695 32.4381,-66.0163 31,-62 27.7039,-52.7945 27.7039,-49.2055 31,-40 33.6296,-32.6559 39.108,-25.8571 44.0585,-20.7983"/>
<polygon fill="#9a32cd" stroke="#9a32cd" points="34.8843,-75.9022 44.0585,-81.2017 40.1914,-71.3378 34.8843,-75.9022"/>
<text text-anchor="middle" x="40.5" y="-48.5" font-family="Helvetica,sans-Serif" font-size="10.00"> con</text>
</g>
<!-- Node2&#45;&gt;Node1 -->
<g id="edge2" class="edge"><title>Node2&#45;&gt;Node1</title>
<path fill="none" stroke="#9a32cd" stroke-dasharray="5,2" d="M54,-31.2964C54,-47.3169 54,-69.3536 54,-81.3546"/>
<polygon fill="#9a32cd" stroke="#9a32cd" points="57.5001,-30.9238 54,-20.9238 50.5001,-30.9239 57.5001,-30.9238"/>
<text text-anchor="middle" x="75" y="-54" font-family="Helvetica,sans-Serif" font-size="10.00"> first_tree</text>
<text text-anchor="middle" x="75" y="-43" font-family="Helvetica,sans-Serif" font-size="10.00">last_tree</text>
</g>
<!-- Node2&#45;&gt;Node2 -->
<g id="edge4" class="edge"><title>Node2&#45;&gt;Node2</title>
<path fill="none" stroke="#9a32cd" stroke-dasharray="5,2" d="M117.964,-16.666C122.934,-15.4161 126,-13.5275 126,-11 126,-7.05469 118.529,-4.66592 108.007,-3.83371"/>
<polygon fill="#9a32cd" stroke="#9a32cd" points="117.374,-13.2152 108.007,-18.1663 118.417,-20.1371 117.374,-13.2152"/>
<text text-anchor="middle" x="137" y="-14" font-family="Helvetica,sans-Serif" font-size="10.00"> prev</text>
<text text-anchor="middle" x="137" y="-3" font-family="Helvetica,sans-Serif" font-size="10.00">next</text>
</g>
</g>
</svg>
