<?xml version="1.0" encoding="UTF-8" standalone="no"?>
<!DOCTYPE svg PUBLIC "-//W3C//DTD SVG 1.1//EN"
 "http://www.w3.org/Graphics/SVG/1.1/DTD/svg11.dtd">
<!-- Generated by graphviz version 2.28.0 (20111211.2114)
 -->
<!-- Title: G Pages: 1 -->
<!--zoomable-->
<svg id="main" version="1.1" xmlns="http://www.w3.org/2000/svg" xmlns:xlink="http://www.w3.org/1999/xlink" xml:space="preserve" onload="init(evt)">
        <defs>
                <circle id="rim" cx="0" cy="0" r="7"/>
                <circle id="rim2" cx="0" cy="0" r="3.5"/>
                <g id="zoomPlus">
                        <use xlink:href="#rim" fill="#404040">
                                <set attributeName="fill" to="#808080" begin="zoomplus.mouseover" end="zoomplus.mouseout"/>
                        </use>
                        <path d="M-4,0h8M0,-4v8" fill="none" stroke="white" stroke-width="1.5" pointer-events="none"/>
                </g>
                <g id="zoomMin">
                        <use xlink:href="#rim" fill="#404040">
                                <set attributeName="fill" to="#808080" begin="zoomminus.mouseover" end="zoomminus.mouseout"/>
                        </use>
                        <path d="M-4,0h8" fill="none" stroke="white" stroke-width="1.5" pointer-events="none"/>
                </g>
                <g id="dirArrow">
                        <path fill="none" stroke="white" stroke-width="1.5" d="M0,-3.0v7 M-2.5,-0.5L0,-3.0L2.5,-0.5"/>
                </g>
               <g id="resetDef">
                       <use xlink:href="#rim2" fill="#404040">
                               <set attributeName="fill" to="#808080" begin="reset.mouseover" end="reset.mouseout"/>
                       </use>
               </g>
        </defs>

<script type="text/javascript">
var viewWidth = 1240;
var viewHeight = 830;
var sectionId = 'dynsection-0';
</script>
<script xlink:href="svgpan.js"/>
<svg id="graph" class="graph">
<g id="viewport">
<title>G</title>
<!-- Node1 -->
<g id="node1" class="node"><title>Node1</title>
<polygon fill="#bfbfbf" stroke="black" points="1158,-709.5 1158,-728.5 1232,-728.5 1232,-709.5 1158,-709.5"/>
<text text-anchor="middle" x="1195" y="-716.5" font-family="Helvetica,sans-Serif" font-size="10.00">_eap_handler</text>
</g>
<!-- Node1&#45;&gt;Node1 -->
<g id="edge100" class="edge"><title>Node1&#45;&gt;Node1</title>
<path fill="none" stroke="#9a32cd" stroke-dasharray="5,2" d="M1180.27,-738.766C1181.42,-743.497 1186.34,-747 1195,-747 1209.22,-747 1213.33,-737.565 1207.33,-728.757"/>
<polygon fill="#9a32cd" stroke="#9a32cd" points="1183.74,-739.298 1182.67,-728.757 1176.93,-737.664 1183.74,-739.298"/>
<text text-anchor="middle" x="1195" y="-761" font-family="Helvetica,sans-Serif" font-size="10.00"> prev</text>
<text text-anchor="middle" x="1195" y="-750" font-family="Helvetica,sans-Serif" font-size="10.00">next</text>
</g>
<!-- Node2 -->
<g id="node2" class="node"><title>Node2</title>
<a xlink:href="structauth__req.html" target="_top" xlink:title="auth_req">
<polygon fill="none" stroke="black" points="1016,-410.5 1016,-429.5 1070,-429.5 1070,-410.5 1016,-410.5"/>
<text text-anchor="middle" x="1043" y="-417.5" font-family="Helvetica,sans-Serif" font-size="10.00">auth_req</text>
</a>
</g>
<!-- Node2&#45;&gt;Node1 -->
<g id="edge2" class="edge"><title>Node2&#45;&gt;Node1</title>
<path fill="none" stroke="#9a32cd" stroke-dasharray="5,2" d="M1047.85,-439.569C1053.94,-468.278 1067.29,-523.055 1088,-566 1116.35,-624.797 1165.96,-686.066 1185.62,-709.297"/>
<polygon fill="#9a32cd" stroke="#9a32cd" points="1051.24,-438.696 1045.81,-429.603 1044.39,-440.103 1051.24,-438.696"/>
<text text-anchor="middle" x="1114" y="-651" font-family="Helvetica,sans-Serif" font-size="10.00"> request</text>
</g>
<!-- Node2&#45;&gt;Node2 -->
<g id="edge76" class="edge"><title>Node2&#45;&gt;Node2</title>
<path fill="none" stroke="#9a32cd" stroke-dasharray="5,2" d="M1030.11,-439.766C1031.12,-444.497 1035.42,-448 1043,-448 1055.44,-448 1059.04,-438.565 1053.79,-429.757"/>
<polygon fill="#9a32cd" stroke="#9a32cd" points="1033.58,-440.263 1032.21,-429.757 1026.73,-438.824 1033.58,-440.263"/>
<text text-anchor="middle" x="1043" y="-495" font-family="Helvetica,sans-Serif" font-size="10.00"> coa</text>
<text text-anchor="middle" x="1043" y="-484" font-family="Helvetica,sans-Serif" font-size="10.00">radlog</text>
<text text-anchor="middle" x="1043" y="-473" font-family="Helvetica,sans-Serif" font-size="10.00">handle</text>
<text text-anchor="middle" x="1043" y="-462" font-family="Helvetica,sans-Serif" font-size="10.00">parent</text>
<text text-anchor="middle" x="1043" y="-451" font-family="Helvetica,sans-Serif" font-size="10.00">process</text>
</g>
<!-- Node3 -->
<g id="node4" class="node"><title>Node3</title>
<a xlink:href="structradclient.html" target="_top" xlink:title="radclient">
<polygon fill="none" stroke="black" points="860.5,-304.5 860.5,-323.5 913.5,-323.5 913.5,-304.5 860.5,-304.5"/>
<text text-anchor="middle" x="887" y="-311.5" font-family="Helvetica,sans-Serif" font-size="10.00">radclient</text>
</a>
</g>
<!-- Node3&#45;&gt;Node2 -->
<g id="edge4" class="edge"><title>Node3&#45;&gt;Node2</title>
<path fill="none" stroke="#9a32cd" stroke-dasharray="5,2" d="M923.685,-311.729C947.557,-312.175 978.125,-316.831 998,-335 1019.49,-354.648 1000.2,-373.537 1016,-398 1019.02,-402.669 1023.32,-406.876 1027.56,-410.33"/>
<polygon fill="#9a32cd" stroke="#9a32cd" points="923.566,-308.229 913.583,-311.777 923.6,-315.229 923.566,-308.229"/>
<text text-anchor="middle" x="972" y="-338" font-family="Helvetica,sans-Serif" font-size="10.00"> client</text>
</g>
<!-- Node4 -->
<g id="node6" class="node"><title>Node4</title>
<a xlink:href="structhome__pool__t.html" target="_top" xlink:title="home_pool_t">
<polygon fill="none" stroke="black" points="673,-324.5 673,-343.5 745,-343.5 745,-324.5 673,-324.5"/>
<text text-anchor="middle" x="709" y="-331.5" font-family="Helvetica,sans-Serif" font-size="10.00">home_pool_t</text>
</a>
</g>
<!-- Node4&#45;&gt;Node2 -->
<g id="edge78" class="edge"><title>Node4&#45;&gt;Node2</title>
<path fill="none" stroke="#9a32cd" stroke-dasharray="5,2" d="M755.119,-345.687C825.463,-363.909 959.064,-398.516 1015.64,-413.171"/>
<polygon fill="#9a32cd" stroke="#9a32cd" points="755.774,-342.242 745.216,-343.122 754.018,-349.018 755.774,-342.242"/>
<text text-anchor="middle" x="887" y="-392" font-family="Helvetica,sans-Serif" font-size="10.00"> home_pool</text>
</g>
<!-- Node4&#45;&gt;Node3 -->
<g id="edge6" class="edge"><title>Node4&#45;&gt;Node3</title>
<path fill="none" stroke="#9a32cd" stroke-dasharray="5,2" d="M755.167,-328.867C788.528,-325.076 832.751,-320.051 860.284,-316.922"/>
<polygon fill="#9a32cd" stroke="#9a32cd" points="754.734,-325.394 745.193,-330.001 755.524,-332.349 754.734,-325.394"/>
<text text-anchor="middle" x="797" y="-330" font-family="Helvetica,sans-Serif" font-size="10.00"> coa_pool</text>
</g>
<!-- Node5 -->
<g id="node8" class="node"><title>Node5</title>
<a xlink:href="structhome__server.html" target="_top" xlink:title="home_server">
<polygon fill="none" stroke="black" points="510.5,-231.5 510.5,-250.5 583.5,-250.5 583.5,-231.5 510.5,-231.5"/>
<text text-anchor="middle" x="547" y="-238.5" font-family="Helvetica,sans-Serif" font-size="10.00">home_server</text>
</a>
</g>
<!-- Node5&#45;&gt;Node2 -->
<g id="edge80" class="edge"><title>Node5&#45;&gt;Node2</title>
<path fill="none" stroke="#9a32cd" stroke-dasharray="5,2" d="M593.685,-232.152C684.747,-217.431 889.426,-199.431 998,-309 1026.41,-337.666 995.458,-363.263 1016,-398 1018.83,-402.784 1023.09,-407.021 1027.34,-410.468"/>
<polygon fill="#9a32cd" stroke="#9a32cd" points="592.957,-228.725 583.675,-233.832 594.116,-235.629 592.957,-228.725"/>
<text text-anchor="middle" x="797" y="-231" font-family="Helvetica,sans-Serif" font-size="10.00"> home_server</text>
</g>
<!-- Node5&#45;&gt;Node3 -->
<g id="edge40" class="edge"><title>Node5&#45;&gt;Node3</title>
<path fill="none" stroke="#9a32cd" stroke-dasharray="5,2" d="M593.674,-250.865C665.756,-266.433 803.541,-296.191 860.444,-308.48"/>
<polygon fill="#9a32cd" stroke="#9a32cd" points="594.047,-247.364 583.533,-248.674 592.569,-254.207 594.047,-247.364"/>
<text text-anchor="middle" x="709" y="-286" font-family="Helvetica,sans-Serif" font-size="10.00"> coa_server</text>
</g>
<!-- Node5&#45;&gt;Node4 -->
<g id="edge8" class="edge"><title>Node5&#45;&gt;Node4</title>
<path fill="none" stroke="#9a32cd" stroke-dasharray="5,2" d="M572.913,-256.448C576.827,-259.385 580.673,-262.609 584,-266 594.101,-276.294 590.749,-283.977 602,-293 613.968,-302.598 650.507,-315.663 677.351,-324.442"/>
<polygon fill="#9a32cd" stroke="#9a32cd" points="574.619,-253.37 564.413,-250.524 570.617,-259.113 574.619,-253.37"/>
<text text-anchor="middle" x="627" y="-329" font-family="Helvetica,sans-Serif" font-size="10.00"> fallback</text>
<text text-anchor="middle" x="627" y="-318" font-family="Helvetica,sans-Serif" font-size="10.00">servers</text>
</g>
<!-- Node6 -->
<g id="node10" class="node"><title>Node6</title>
<a xlink:href="structconf__part.html" target="_top" xlink:title="conf_part">
<polygon fill="none" stroke="black" points="314.5,-347.5 314.5,-366.5 371.5,-366.5 371.5,-347.5 314.5,-347.5"/>
<text text-anchor="middle" x="343" y="-354.5" font-family="Helvetica,sans-Serif" font-size="10.00">conf_part</text>
</a>
</g>
<!-- Node6&#45;&gt;Node3 -->
<g id="edge44" class="edge"><title>Node6&#45;&gt;Node3</title>
<path fill="none" stroke="#9a32cd" stroke-dasharray="5,2" d="M382.322,-358.234C454.159,-360.189 613.925,-362.842 748,-353 783.794,-350.373 793.642,-352.373 828,-342 842.772,-337.54 858.472,-329.752 869.807,-323.52"/>
<polygon fill="#9a32cd" stroke="#9a32cd" points="382.064,-354.725 371.969,-357.94 381.866,-361.722 382.064,-354.725"/>
<text text-anchor="middle" x="627" y="-362" font-family="Helvetica,sans-Serif" font-size="10.00"> cs</text>
</g>
<!-- Node6&#45;&gt;Node4 -->
<g id="edge38" class="edge"><title>Node6&#45;&gt;Node4</title>
<path fill="none" stroke="#9a32cd" stroke-dasharray="5,2" d="M357.553,-374.916C368.845,-388.247 386.234,-405.395 406,-413 441.673,-426.725 454.554,-420.665 492,-413 544.085,-402.339 552.031,-384.155 602,-366 625.307,-357.532 652.041,-349.473 672.829,-343.56"/>
<polygon fill="#9a32cd" stroke="#9a32cd" points="360.049,-372.436 351.049,-366.846 354.599,-376.829 360.049,-372.436"/>
<text text-anchor="middle" x="547" y="-411" font-family="Helvetica,sans-Serif" font-size="10.00"> cs</text>
</g>
<!-- Node6&#45;&gt;Node5 -->
<g id="edge10" class="edge"><title>Node6&#45;&gt;Node5</title>
<path fill="none" stroke="#9a32cd" stroke-dasharray="5,2" d="M348.836,-337.549C356.326,-312.011 373.393,-268.072 406,-248 437.293,-228.737 480.379,-229.763 510.457,-233.845"/>
<polygon fill="#9a32cd" stroke="#9a32cd" points="345.447,-336.676 346.196,-347.245 352.201,-338.516 345.447,-336.676"/>
<text text-anchor="middle" x="449" y="-251" font-family="Helvetica,sans-Serif" font-size="10.00"> cs</text>
</g>
<!-- Node6&#45;&gt;Node6 -->
<g id="edge12" class="edge"><title>Node6&#45;&gt;Node6</title>
<path fill="none" stroke="#9a32cd" stroke-dasharray="5,2" d="M326.334,-376.4C327.447,-381.315 333.002,-385 343,-385 358.996,-385 363.62,-375.565 356.872,-366.757"/>
<polygon fill="#9a32cd" stroke="#9a32cd" points="329.707,-377.336 329.128,-366.757 322.983,-375.388 329.707,-377.336"/>
<text text-anchor="middle" x="343" y="-388" font-family="Helvetica,sans-Serif" font-size="10.00"> template</text>
</g>
<!-- Node7 -->
<g id="node13" class="node"><title>Node7</title>
<a xlink:href="structconf__item.html" target="_top" xlink:title="conf_item">
<polygon fill="none" stroke="black" points="517.5,-275.5 517.5,-294.5 576.5,-294.5 576.5,-275.5 517.5,-275.5"/>
<text text-anchor="middle" x="547" y="-282.5" font-family="Helvetica,sans-Serif" font-size="10.00">conf_item</text>
</a>
</g>
<!-- Node6&#45;&gt;Node7 -->
<g id="edge16" class="edge"><title>Node6&#45;&gt;Node7</title>
<path fill="none" stroke="#9a32cd" stroke-dasharray="5,2" d="M351.857,-338.072C361.359,-317.973 379.452,-287.306 406,-274 442.617,-255.647 491.467,-266.12 520.725,-275.488"/>
<polygon fill="#9a32cd" stroke="#9a32cd" points="348.654,-336.662 347.778,-347.22 355.048,-339.513 348.654,-336.662"/>
<text text-anchor="middle" x="449" y="-277" font-family="Helvetica,sans-Serif" font-size="10.00"> parent</text>
</g>
<!-- Node15 -->
<g id="node38" class="node"><title>Node15</title>
<a xlink:href="structmain__config__t.html" target="_top" xlink:title="main_config_t">
<polygon fill="none" stroke="black" points="670.5,-569.5 670.5,-588.5 747.5,-588.5 747.5,-569.5 670.5,-569.5"/>
<text text-anchor="middle" x="709" y="-576.5" font-family="Helvetica,sans-Serif" font-size="10.00">main_config_t</text>
</a>
</g>
<!-- Node6&#45;&gt;Node15 -->
<g id="edge56" class="edge"><title>Node6&#45;&gt;Node15</title>
<path fill="none" stroke="#9a32cd" stroke-dasharray="5,2" d="M350.189,-376.282C366.771,-424.023 417.343,-546.496 510,-583 562.622,-603.731 629.372,-596.168 670.365,-588.113"/>
<polygon fill="#9a32cd" stroke="#9a32cd" points="353.428,-374.931 346.929,-366.563 346.791,-377.157 353.428,-374.931"/>
<text text-anchor="middle" x="547" y="-599" font-family="Helvetica,sans-Serif" font-size="10.00"> config</text>
</g>
<!-- Node16 -->
<g id="node40" class="node"><title>Node16</title>
<a xlink:href="structrad__listen__t.html" target="_top" xlink:title="rad_listen_t">
<polygon fill="none" stroke="black" points="513.5,-470.5 513.5,-489.5 580.5,-489.5 580.5,-470.5 513.5,-470.5"/>
<text text-anchor="middle" x="547" y="-477.5" font-family="Helvetica,sans-Serif" font-size="10.00">rad_listen_t</text>
</a>
</g>
<!-- Node6&#45;&gt;Node16 -->
<g id="edge54" class="edge"><title>Node6&#45;&gt;Node16</title>
<path fill="none" stroke="#9a32cd" stroke-dasharray="5,2" d="M353.575,-375.472C364.054,-393.917 382.533,-421.79 406,-438 438.467,-460.426 483.146,-471.104 513.223,-476.032"/>
<polygon fill="#9a32cd" stroke="#9a32cd" points="356.577,-373.667 348.718,-366.562 350.431,-377.018 356.577,-373.667"/>
<text text-anchor="middle" x="449" y="-474" font-family="Helvetica,sans-Serif" font-size="10.00"> cs</text>
</g>
<!-- Node7&#45;&gt;Node6 -->
<g id="edge14" class="edge"><title>Node7&#45;&gt;Node6</title>
<path fill="none" stroke="#9a32cd" stroke-dasharray="5,2" d="M507.12,-287.039C478.206,-289.703 438.33,-295.845 406,-310 385.213,-319.101 365.008,-336.498 353.573,-347.383"/>
<polygon fill="#9a32cd" stroke="#9a32cd" points="507.563,-290.514 517.243,-286.206 506.989,-283.538 507.563,-290.514"/>
<text text-anchor="middle" x="449" y="-335" font-family="Helvetica,sans-Serif" font-size="10.00"> tail</text>
<text text-anchor="middle" x="449" y="-324" font-family="Helvetica,sans-Serif" font-size="10.00">item</text>
<text text-anchor="middle" x="449" y="-313" font-family="Helvetica,sans-Serif" font-size="10.00">children</text>
</g>
<!-- Node7&#45;&gt;Node7 -->
<g id="edge18" class="edge"><title>Node7&#45;&gt;Node7</title>
<path fill="none" stroke="#9a32cd" stroke-dasharray="5,2" d="M532.268,-304.766C533.425,-309.497 538.335,-313 547,-313 561.219,-313 565.329,-303.565 559.33,-294.757"/>
<polygon fill="#9a32cd" stroke="#9a32cd" points="535.739,-305.298 534.67,-294.757 528.933,-303.664 535.739,-305.298"/>
<text text-anchor="middle" x="547" y="-316" font-family="Helvetica,sans-Serif" font-size="10.00"> next</text>
</g>
<!-- Node8 -->
<g id="node17" class="node"><title>Node8</title>
<a xlink:href="structCONF__PARSER.html" target="_top" xlink:title="CONF_PARSER">
<polygon fill="none" stroke="black" points="116,-381.5 116,-400.5 208,-400.5 208,-381.5 116,-381.5"/>
<text text-anchor="middle" x="162" y="-388.5" font-family="Helvetica,sans-Serif" font-size="10.00">CONF_PARSER</text>
</a>
</g>
<!-- Node8&#45;&gt;Node6 -->
<g id="edge20" class="edge"><title>Node8&#45;&gt;Node6</title>
<path fill="none" stroke="#9a32cd" stroke-dasharray="5,2" d="M217.988,-380.723C237.568,-377.047 259.772,-372.859 280,-369 291.2,-366.863 303.533,-364.482 314.229,-362.408"/>
<polygon fill="#9a32cd" stroke="#9a32cd" points="217.197,-377.31 208.014,-382.594 218.488,-384.19 217.197,-377.31"/>
<text text-anchor="middle" x="253" y="-381" font-family="Helvetica,sans-Serif" font-size="10.00"> variables</text>
</g>
<!-- Node9 -->
<g id="node19" class="node"><title>Node9</title>
<a xlink:href="structrbtree__t.html" target="_top" xlink:title="rbtree_t">
<polygon fill="none" stroke="black" points="137,-314.5 137,-333.5 187,-333.5 187,-314.5 137,-314.5"/>
<text text-anchor="middle" x="162" y="-321.5" font-family="Helvetica,sans-Serif" font-size="10.00">rbtree_t</text>
</a>
</g>
<!-- Node9&#45;&gt;Node6 -->
<g id="edge22" class="edge"><title>Node9&#45;&gt;Node6</title>
<path fill="none" stroke="#9a32cd" stroke-dasharray="5,2" d="M197.374,-320.147C220.969,-318.503 252.811,-318.274 280,-325 297.638,-329.363 315.892,-339.6 327.985,-347.329"/>
<polygon fill="#9a32cd" stroke="#9a32cd" points="196.841,-316.678 187.16,-320.981 197.411,-323.655 196.841,-316.678"/>
<text text-anchor="middle" x="253" y="-361" font-family="Helvetica,sans-Serif" font-size="10.00"> data_tree</text>
<text text-anchor="middle" x="253" y="-350" font-family="Helvetica,sans-Serif" font-size="10.00">name2_tree</text>
<text text-anchor="middle" x="253" y="-339" font-family="Helvetica,sans-Serif" font-size="10.00">section_tree</text>
<text text-anchor="middle" x="253" y="-328" font-family="Helvetica,sans-Serif" font-size="10.00">pair_tree</text>
</g>
<!-- Node10 -->
<g id="node21" class="node"><title>Node10</title>
<a xlink:href="structrbnode__t.html" target="_top" xlink:title="rbnode_t">
<polygon fill="none" stroke="black" points="0,-314.5 0,-333.5 54,-333.5 54,-314.5 0,-314.5"/>
<text text-anchor="middle" x="27" y="-321.5" font-family="Helvetica,sans-Serif" font-size="10.00">rbnode_t</text>
</a>
</g>
<!-- Node10&#45;&gt;Node9 -->
<g id="edge24" class="edge"><title>Node10&#45;&gt;Node9</title>
<path fill="none" stroke="#9a32cd" stroke-dasharray="5,2" d="M64.3432,-324C87.3013,-324 116.343,-324 136.572,-324"/>
<polygon fill="#9a32cd" stroke="#9a32cd" points="64.2766,-320.5 54.2765,-324 64.2765,-327.5 64.2766,-320.5"/>
<text text-anchor="middle" x="85" y="-327" font-family="Helvetica,sans-Serif" font-size="10.00"> Root</text>
</g>
<!-- Node10&#45;&gt;Node10 -->
<g id="edge26" class="edge"><title>Node10&#45;&gt;Node10</title>
<path fill="none" stroke="#9a32cd" stroke-dasharray="5,2" d="M16.3189,-343.766C17.1578,-348.497 20.7182,-352 27,-352 37.3086,-352 40.2884,-342.565 35.9395,-333.757"/>
<polygon fill="#9a32cd" stroke="#9a32cd" points="19.7944,-344.209 18.0605,-333.757 12.898,-343.009 19.7944,-344.209"/>
<text text-anchor="middle" x="27" y="-377" font-family="Helvetica,sans-Serif" font-size="10.00"> Left</text>
<text text-anchor="middle" x="27" y="-366" font-family="Helvetica,sans-Serif" font-size="10.00">Right</text>
<text text-anchor="middle" x="27" y="-355" font-family="Helvetica,sans-Serif" font-size="10.00">Parent</text>
</g>
<!-- Node11 -->
<g id="node24" class="node"><title>Node11</title>
<a xlink:href="structfr__socket__limit__t.html" target="_top" xlink:title="fr_socket_limit_t">
<polygon fill="none" stroke="black" points="298.5,-191.5 298.5,-210.5 387.5,-210.5 387.5,-191.5 298.5,-191.5"/>
<text text-anchor="middle" x="343" y="-198.5" font-family="Helvetica,sans-Serif" font-size="10.00">fr_socket_limit_t</text>
</a>
</g>
<!-- Node11&#45;&gt;Node3 -->
<g id="edge42" class="edge"><title>Node11&#45;&gt;Node3</title>
<path fill="none" stroke="#9a32cd" stroke-dasharray="5,2" d="M397.61,-193.318C425.801,-190.484 460.877,-188.86 492,-193 645.362,-213.4 683.808,-227.921 828,-284 842.581,-289.671 858.296,-297.945 869.685,-304.369"/>
<polygon fill="#9a32cd" stroke="#9a32cd" points="397.12,-189.85 387.555,-194.408 397.875,-196.809 397.12,-189.85"/>
<text text-anchor="middle" x="627" y="-224" font-family="Helvetica,sans-Serif" font-size="10.00"> limit</text>
</g>
<!-- Node11&#45;&gt;Node5 -->
<g id="edge28" class="edge"><title>Node11&#45;&gt;Node5</title>
<path fill="none" stroke="#9a32cd" stroke-dasharray="5,2" d="M397.908,-197.184C426.461,-196.738 461.777,-198.72 492,-208 507.755,-212.837 523.586,-223.336 533.996,-231.2"/>
<polygon fill="#9a32cd" stroke="#9a32cd" points="397.622,-193.69 387.716,-197.45 397.804,-200.688 397.622,-193.69"/>
<text text-anchor="middle" x="449" y="-211" font-family="Helvetica,sans-Serif" font-size="10.00"> limit</text>
</g>
<!-- Node12 -->
<g id="node26" class="node"><title>Node12</title>
<a xlink:href="structfr__event__t.html" target="_top" xlink:title="fr_event_t">
<polygon fill="none" stroke="black" points="313,-112.5 313,-131.5 373,-131.5 373,-112.5 313,-112.5"/>
<text text-anchor="middle" x="343" y="-119.5" font-family="Helvetica,sans-Serif" font-size="10.00">fr_event_t</text>
</a>
</g>
<!-- Node12&#45;&gt;Node2 -->
<g id="edge84" class="edge"><title>Node12&#45;&gt;Node2</title>
<path fill="none" stroke="#9a32cd" stroke-dasharray="5,2" d="M383.129,-119.841C423.812,-117.784 489.348,-115 546,-115 546,-115 546,-115 888,-115 970.671,-115 967.057,-188.338 998,-265 1020.33,-320.314 987.322,-345.696 1016,-398 1018.62,-402.77 1022.71,-406.953 1026.88,-410.355"/>
<polygon fill="#9a32cd" stroke="#9a32cd" points="382.898,-116.348 373.092,-120.359 383.259,-123.338 382.898,-116.348"/>
<text text-anchor="middle" x="709" y="-118" font-family="Helvetica,sans-Serif" font-size="10.00"> ev</text>
</g>
<!-- Node12&#45;&gt;Node5 -->
<g id="edge30" class="edge"><title>Node12&#45;&gt;Node5</title>
<path fill="none" stroke="#9a32cd" stroke-dasharray="5,2" d="M382.817,-132.525C414.114,-142.19 458.309,-158.583 492,-182 512.068,-195.948 530.066,-218.604 539.355,-231.402"/>
<polygon fill="#9a32cd" stroke="#9a32cd" points="383.722,-129.142 373.138,-129.623 381.711,-135.847 383.722,-129.142"/>
<text text-anchor="middle" x="449" y="-185" font-family="Helvetica,sans-Serif" font-size="10.00"> ev</text>
</g>
<!-- Node12&#45;&gt;Node12 -->
<g id="edge32" class="edge"><title>Node12&#45;&gt;Node12</title>
<path fill="none" stroke="#9a32cd" stroke-dasharray="5,2" d="M326.334,-141.4C327.447,-146.315 333.002,-150 343,-150 358.996,-150 363.62,-140.565 356.872,-131.757"/>
<polygon fill="#9a32cd" stroke="#9a32cd" points="329.707,-142.336 329.128,-131.757 322.983,-140.388 329.707,-142.336"/>
<text text-anchor="middle" x="343" y="-153" font-family="Helvetica,sans-Serif" font-size="10.00"> ev_p</text>
</g>
<!-- Node13 -->
<g id="node29" class="node"><title>Node13</title>
<a xlink:href="structfr__ipaddr__t.html" target="_top" xlink:title="fr_ipaddr_t">
<polygon fill="none" stroke="black" points="312,-666.5 312,-685.5 374,-685.5 374,-666.5 312,-666.5"/>
<text text-anchor="middle" x="343" y="-673.5" font-family="Helvetica,sans-Serif" font-size="10.00">fr_ipaddr_t</text>
</a>
</g>
<!-- Node13&#45;&gt;Node1 -->
<g id="edge92" class="edge"><title>Node13&#45;&gt;Node1</title>
<path fill="none" stroke="#9a32cd" stroke-dasharray="5,2" d="M371.431,-690.27C403.912,-706.802 459.93,-734.174 510,-753 595.831,-785.272 616.302,-811 708,-811 708,-811 708,-811 1044,-811 1106.32,-811 1164.57,-752.579 1185.66,-728.846"/>
<polygon fill="#9a32cd" stroke="#9a32cd" points="373.025,-687.154 362.529,-685.71 369.833,-693.384 373.025,-687.154"/>
<text text-anchor="middle" x="797" y="-814" font-family="Helvetica,sans-Serif" font-size="10.00"> src_ipaddr</text>
</g>
<!-- Node13&#45;&gt;Node3 -->
<g id="edge46" class="edge"><title>Node13&#45;&gt;Node3</title>
<path fill="none" stroke="#9a32cd" stroke-dasharray="5,2" d="M353.408,-657.115C375.133,-615.421 432.893,-514.94 510,-461 570.755,-418.499 762.545,-394.831 828,-360 846.607,-350.099 865.177,-334.005 876.121,-323.716"/>
<polygon fill="#9a32cd" stroke="#9a32cd" points="350.214,-655.673 348.779,-666.17 356.447,-658.859 350.214,-655.673"/>
<text text-anchor="middle" x="627" y="-426" font-family="Helvetica,sans-Serif" font-size="10.00"> ipaddr</text>
</g>
<!-- Node13&#45;&gt;Node5 -->
<g id="edge34" class="edge"><title>Node13&#45;&gt;Node5</title>
<path fill="none" stroke="#9a32cd" stroke-dasharray="5,2" d="M344.188,-656.279C345.516,-609.866 354.139,-491.656 406,-412 432.141,-371.849 466.1,-387.308 492,-347 511.936,-315.975 489.444,-296.618 510,-266 514.156,-259.809 520.406,-254.694 526.538,-250.739"/>
<polygon fill="#9a32cd" stroke="#9a32cd" points="340.685,-656.397 343.986,-666.465 347.684,-656.536 340.685,-656.397"/>
<text text-anchor="middle" x="449" y="-426" font-family="Helvetica,sans-Serif" font-size="10.00"> ipaddr</text>
<text text-anchor="middle" x="449" y="-415" font-family="Helvetica,sans-Serif" font-size="10.00">src_ipaddr</text>
</g>
<!-- Node13&#45;&gt;Node15 -->
<g id="edge58" class="edge"><title>Node13&#45;&gt;Node15</title>
<path fill="none" stroke="#9a32cd" stroke-dasharray="5,2" d="M384.636,-675.584C445.407,-673.568 562.398,-664.238 652,-624 670.887,-615.518 688.826,-599.115 699.105,-588.63"/>
<polygon fill="#9a32cd" stroke="#9a32cd" points="384.214,-672.094 374.316,-675.873 384.41,-679.091 384.214,-672.094"/>
<text text-anchor="middle" x="547" y="-666" font-family="Helvetica,sans-Serif" font-size="10.00"> myip</text>
</g>
<!-- Node17 -->
<g id="node46" class="node"><title>Node17</title>
<a xlink:href="structradius__packet.html" target="_top" xlink:title="radius_packet">
<polygon fill="none" stroke="black" points="848.5,-656.5 848.5,-675.5 925.5,-675.5 925.5,-656.5 848.5,-656.5"/>
<text text-anchor="middle" x="887" y="-663.5" font-family="Helvetica,sans-Serif" font-size="10.00">radius_packet</text>
</a>
</g>
<!-- Node13&#45;&gt;Node17 -->
<g id="edge72" class="edge"><title>Node13&#45;&gt;Node17</title>
<path fill="none" stroke="#9a32cd" stroke-dasharray="5,2" d="M384.48,-680.485C391.641,-681.116 399.033,-681.664 406,-682 444.178,-683.843 453.786,-682.776 492,-682 622.901,-679.343 778.115,-671.726 848.256,-668.043"/>
<polygon fill="#9a32cd" stroke="#9a32cd" points="384.516,-676.973 374.231,-679.515 383.857,-683.941 384.516,-676.973"/>
<text text-anchor="middle" x="627" y="-692" font-family="Helvetica,sans-Serif" font-size="10.00"> dst_ipaddr</text>
<text text-anchor="middle" x="627" y="-681" font-family="Helvetica,sans-Serif" font-size="10.00">src_ipaddr</text>
</g>
<!-- Node14 -->
<g id="node31" class="node"><title>Node14</title>
<a xlink:href="structin6__addr.html" target="_top" xlink:title="in6_addr">
<polygon fill="none" stroke="black" points="135.5,-728.5 135.5,-747.5 188.5,-747.5 188.5,-728.5 135.5,-728.5"/>
<text text-anchor="middle" x="162" y="-735.5" font-family="Helvetica,sans-Serif" font-size="10.00">in6_addr</text>
</a>
</g>
<!-- Node14&#45;&gt;Node13 -->
<g id="edge36" class="edge"><title>Node14&#45;&gt;Node13</title>
<path fill="none" stroke="#9a32cd" stroke-dasharray="5,2" d="M198.198,-725.808C232.234,-714.019 283.115,-696.396 314.342,-685.58"/>
<polygon fill="#9a32cd" stroke="#9a32cd" points="196.95,-722.537 188.646,-729.117 199.241,-729.151 196.95,-722.537"/>
<text text-anchor="middle" x="253" y="-719" font-family="Helvetica,sans-Serif" font-size="10.00"> ip6addr</text>
</g>
<!-- Node19 -->
<g id="node50" class="node"><title>Node19</title>
<a xlink:href="unionvalue__pair__data.html" target="_top" xlink:title="value_pair_data">
<polygon fill="none" stroke="black" points="406.5,-797.5 406.5,-816.5 491.5,-816.5 491.5,-797.5 406.5,-797.5"/>
<text text-anchor="middle" x="449" y="-804.5" font-family="Helvetica,sans-Serif" font-size="10.00">value_pair_data</text>
</a>
</g>
<!-- Node14&#45;&gt;Node19 -->
<g id="edge66" class="edge"><title>Node14&#45;&gt;Node19</title>
<path fill="none" stroke="#9a32cd" stroke-dasharray="5,2" d="M198.578,-746.614C252.04,-759.557 352.751,-783.94 408.451,-797.425"/>
<polygon fill="#9a32cd" stroke="#9a32cd" points="199.085,-743.135 188.543,-744.184 197.438,-749.939 199.085,-743.135"/>
<text text-anchor="middle" x="253" y="-768" font-family="Helvetica,sans-Serif" font-size="10.00"> ipv6addr</text>
</g>
<!-- Node15&#45;&gt;Node2 -->
<g id="edge48" class="edge"><title>Node15&#45;&gt;Node2</title>
<path fill="none" stroke="#9a32cd" stroke-dasharray="5,2" d="M757.737,-575.55C819.145,-568.914 926.403,-549.644 998,-494 1019.95,-476.94 1033.23,-445.606 1038.85,-429.746"/>
<polygon fill="#9a32cd" stroke="#9a32cd" points="757.153,-572.091 747.556,-576.58 757.858,-579.056 757.153,-572.091"/>
<text text-anchor="middle" x="887" y="-563" font-family="Helvetica,sans-Serif" font-size="10.00"> root</text>
</g>
<!-- Node16&#45;&gt;Node2 -->
<g id="edge74" class="edge"><title>Node16&#45;&gt;Node2</title>
<path fill="none" stroke="#9a32cd" stroke-dasharray="5,2" d="M590.941,-477.406C645.992,-473.831 744.333,-466.605 828,-456 896.024,-447.378 975.489,-432.82 1015.75,-425.124"/>
<polygon fill="#9a32cd" stroke="#9a32cd" points="590.609,-473.92 580.853,-478.051 591.056,-480.906 590.609,-473.92"/>
<text text-anchor="middle" x="797" y="-477" font-family="Helvetica,sans-Serif" font-size="10.00"> listener</text>
<text text-anchor="middle" x="797" y="-466" font-family="Helvetica,sans-Serif" font-size="10.00">proxy_listener</text>
</g>
<!-- Node16&#45;&gt;Node15 -->
<g id="edge50" class="edge"><title>Node16&#45;&gt;Node15</title>
<path fill="none" stroke="#9a32cd" stroke-dasharray="5,2" d="M572.313,-495.044C605.663,-515.679 664.635,-552.168 692.539,-569.434"/>
<polygon fill="#9a32cd" stroke="#9a32cd" points="573.978,-491.958 563.633,-489.673 570.295,-497.911 573.978,-491.958"/>
<text text-anchor="middle" x="627" y="-547" font-family="Helvetica,sans-Serif" font-size="10.00"> listen</text>
</g>
<!-- Node16&#45;&gt;Node16 -->
<g id="edge52" class="edge"><title>Node16&#45;&gt;Node16</title>
<path fill="none" stroke="#9a32cd" stroke-dasharray="5,2" d="M532.268,-499.766C533.425,-504.497 538.335,-508 547,-508 561.219,-508 565.329,-498.565 559.33,-489.757"/>
<polygon fill="#9a32cd" stroke="#9a32cd" points="535.739,-500.298 534.67,-489.757 528.933,-498.664 535.739,-500.298"/>
<text text-anchor="middle" x="547" y="-566" font-family="Helvetica,sans-Serif" font-size="10.00"> next</text>
<text text-anchor="middle" x="547" y="-555" font-family="Helvetica,sans-Serif" font-size="10.00">encode</text>
<text text-anchor="middle" x="547" y="-544" font-family="Helvetica,sans-Serif" font-size="10.00">recv</text>
<text text-anchor="middle" x="547" y="-533" font-family="Helvetica,sans-Serif" font-size="10.00">print</text>
<text text-anchor="middle" x="547" y="-522" font-family="Helvetica,sans-Serif" font-size="10.00">send</text>
<text text-anchor="middle" x="547" y="-511" font-family="Helvetica,sans-Serif" font-size="10.00">decode</text>
</g>
<!-- Node17&#45;&gt;Node2 -->
<g id="edge60" class="edge"><title>Node17&#45;&gt;Node2</title>
<path fill="none" stroke="#9a32cd" stroke-dasharray="5,2" d="M911.733,-650.586C936.715,-633.171 975.478,-602.574 998,-567 1027.21,-520.859 1037.85,-454.352 1040.94,-429.684"/>
<polygon fill="#9a32cd" stroke="#9a32cd" points="909.504,-647.869 903.208,-656.39 913.444,-653.655 909.504,-647.869"/>
<text text-anchor="middle" x="972" y="-659" font-family="Helvetica,sans-Serif" font-size="10.00"> reply</text>
<text text-anchor="middle" x="972" y="-648" font-family="Helvetica,sans-Serif" font-size="10.00">proxy_reply</text>
<text text-anchor="middle" x="972" y="-637" font-family="Helvetica,sans-Serif" font-size="10.00">proxy</text>
<text text-anchor="middle" x="972" y="-626" font-family="Helvetica,sans-Serif" font-size="10.00">packet</text>
</g>
<!-- Node18 -->
<g id="node48" class="node"><title>Node18</title>
<a xlink:href="structvalue__pair.html" target="_top" xlink:title="value_pair">
<polygon fill="none" stroke="black" points="678.5,-725.5 678.5,-744.5 739.5,-744.5 739.5,-725.5 678.5,-725.5"/>
<text text-anchor="middle" x="709" y="-732.5" font-family="Helvetica,sans-Serif" font-size="10.00">value_pair</text>
</a>
</g>
<!-- Node18&#45;&gt;Node1 -->
<g id="edge90" class="edge"><title>Node18&#45;&gt;Node1</title>
<path fill="none" stroke="#9a32cd" stroke-dasharray="5,2" d="M749.424,-742.724C776.474,-747.619 813.26,-753.487 846,-756 960.191,-764.764 1094.9,-740.561 1157.99,-727.188"/>
<polygon fill="#9a32cd" stroke="#9a32cd" points="750.031,-739.277 739.562,-740.904 748.761,-746.16 750.031,-739.277"/>
<text text-anchor="middle" x="972" y="-759" font-family="Helvetica,sans-Serif" font-size="10.00"> certs</text>
</g>
<!-- Node18&#45;&gt;Node2 -->
<g id="edge82" class="edge"><title>Node18&#45;&gt;Node2</title>
<path fill="none" stroke="#9a32cd" stroke-dasharray="5,2" d="M750.198,-731.655C821.32,-724.868 964.967,-706.975 998,-671 1031.36,-634.665 1039.99,-471.173 1041.66,-429.626"/>
<polygon fill="#9a32cd" stroke="#9a32cd" points="749.478,-728.206 739.843,-732.613 750.123,-735.177 749.478,-728.206"/>
<text text-anchor="middle" x="887" y="-744" font-family="Helvetica,sans-Serif" font-size="10.00"> password</text>
<text text-anchor="middle" x="887" y="-733" font-family="Helvetica,sans-Serif" font-size="10.00">config_items</text>
<text text-anchor="middle" x="887" y="-722" font-family="Helvetica,sans-Serif" font-size="10.00">username</text>
</g>
<!-- Node18&#45;&gt;Node17 -->
<g id="edge62" class="edge"><title>Node18&#45;&gt;Node17</title>
<path fill="none" stroke="#9a32cd" stroke-dasharray="5,2" d="M735.179,-720.283C744.659,-715.071 755.651,-709.412 766,-705 794.01,-693.058 826.98,-682.586 851.267,-675.509"/>
<polygon fill="#9a32cd" stroke="#9a32cd" points="733.286,-717.332 726.283,-725.282 736.715,-723.434 733.286,-717.332"/>
<text text-anchor="middle" x="797" y="-708" font-family="Helvetica,sans-Serif" font-size="10.00"> vps</text>
</g>
<!-- Node18&#45;&gt;Node18 -->
<g id="edge68" class="edge"><title>Node18&#45;&gt;Node18</title>
<path fill="none" stroke="#9a32cd" stroke-dasharray="5,2" d="M693.899,-754.766C695.085,-759.497 700.119,-763 709,-763 723.574,-763 727.787,-753.565 721.639,-744.757"/>
<polygon fill="#9a32cd" stroke="#9a32cd" points="697.371,-755.304 696.361,-744.757 690.574,-753.631 697.371,-755.304"/>
<text text-anchor="middle" x="709" y="-766" font-family="Helvetica,sans-Serif" font-size="10.00"> next</text>
</g>
<!-- Node19&#45;&gt;Node18 -->
<g id="edge64" class="edge"><title>Node19&#45;&gt;Node18</title>
<path fill="none" stroke="#9a32cd" stroke-dasharray="5,2" d="M493.986,-794.725C546.584,-780.046 633.172,-755.882 678.4,-743.26"/>
<polygon fill="#9a32cd" stroke="#9a32cd" points="492.952,-791.38 484.26,-797.439 494.833,-798.122 492.952,-791.38"/>
<text text-anchor="middle" x="547" y="-793" font-family="Helvetica,sans-Serif" font-size="10.00"> data</text>
</g>
<!-- Node20 -->
<g id="node54" class="node"><title>Node20</title>
<a xlink:href="structattr__flags.html" target="_top" xlink:title="attr_flags">
<polygon fill="none" stroke="black" points="518.5,-724.5 518.5,-743.5 575.5,-743.5 575.5,-724.5 518.5,-724.5"/>
<text text-anchor="middle" x="547" y="-731.5" font-family="Helvetica,sans-Serif" font-size="10.00">attr_flags</text>
</a>
</g>
<!-- Node20&#45;&gt;Node18 -->
<g id="edge70" class="edge"><title>Node20&#45;&gt;Node18</title>
<path fill="none" stroke="#9a32cd" stroke-dasharray="5,2" d="M585.827,-734.236C614.138,-734.413 652.317,-734.652 678.415,-734.815"/>
<polygon fill="#9a32cd" stroke="#9a32cd" points="585.527,-730.735 575.505,-734.172 585.483,-737.734 585.527,-730.735"/>
<text text-anchor="middle" x="627" y="-737" font-family="Helvetica,sans-Serif" font-size="10.00"> flags</text>
</g>
<!-- Node21 -->
<g id="node63" class="node"><title>Node21</title>
<a xlink:href="structrequest__data__t.html" target="_top" xlink:title="request_data_t">
<polygon fill="none" stroke="black" points="846.5,-38.5 846.5,-57.5 927.5,-57.5 927.5,-38.5 846.5,-38.5"/>
<text text-anchor="middle" x="887" y="-45.5" font-family="Helvetica,sans-Serif" font-size="10.00">request_data_t</text>
</a>
</g>
<!-- Node21&#45;&gt;Node2 -->
<g id="edge86" class="edge"><title>Node21&#45;&gt;Node2</title>
<path fill="none" stroke="#9a32cd" stroke-dasharray="5,2" d="M935.003,-60.4133C961.172,-68.3425 990.047,-79.1426 998,-90 1038.52,-145.31 985.35,-336.671 1016,-398 1018.43,-402.866 1022.47,-407.076 1026.65,-410.473"/>
<polygon fill="#9a32cd" stroke="#9a32cd" points="935.736,-56.9809 925.155,-57.5208 933.764,-63.6972 935.736,-56.9809"/>
<text text-anchor="middle" x="972" y="-93" font-family="Helvetica,sans-Serif" font-size="10.00"> data</text>
</g>
<!-- Node21&#45;&gt;Node21 -->
<g id="edge88" class="edge"><title>Node21&#45;&gt;Node21</title>
<path fill="none" stroke="#9a32cd" stroke-dasharray="5,2" d="M871.531,-67.7663C872.746,-72.4965 877.902,-76 887,-76 901.93,-76 906.245,-66.5653 899.947,-57.7571"/>
<polygon fill="#9a32cd" stroke="#9a32cd" points="875.003,-68.3092 874.053,-57.7571 868.216,-66.5986 875.003,-68.3092"/>
<text text-anchor="middle" x="887" y="-79" font-family="Helvetica,sans-Serif" font-size="10.00"> next</text>
</g>
<!-- Node22 -->
<g id="node68" class="node"><title>Node22</title>
<a xlink:href="structeap__ds.html" target="_top" xlink:title="eap_ds">
<polygon fill="none" stroke="black" points="1019,-369.5 1019,-388.5 1067,-388.5 1067,-369.5 1019,-369.5"/>
<text text-anchor="middle" x="1043" y="-376.5" font-family="Helvetica,sans-Serif" font-size="10.00">eap_ds</text>
</a>
</g>
<!-- Node22&#45;&gt;Node1 -->
<g id="edge94" class="edge"><title>Node22&#45;&gt;Node1</title>
<path fill="none" stroke="#9a32cd" stroke-dasharray="5,2" d="M1065.19,-395.614C1066.91,-397.345 1068.54,-399.151 1070,-401 1151.62,-504.546 1185.03,-668.319 1192.38,-709.408"/>
<polygon fill="#9a32cd" stroke="#9a32cd" points="1067.16,-392.68 1057.39,-388.596 1062.48,-397.885 1067.16,-392.68"/>
<text text-anchor="middle" x="1114" y="-536" font-family="Helvetica,sans-Serif" font-size="10.00"> eap_ds</text>
<text text-anchor="middle" x="1114" y="-525" font-family="Helvetica,sans-Serif" font-size="10.00">prev_eapds</text>
</g>
<!-- Node23 -->
<g id="node70" class="node"><title>Node23</title>
<a xlink:href="structeap__packet.html" target="_top" xlink:title="eap_packet">
<polygon fill="none" stroke="black" points="853.5,-0.5 853.5,-19.5 920.5,-19.5 920.5,-0.5 853.5,-0.5"/>
<text text-anchor="middle" x="887" y="-7.5" font-family="Helvetica,sans-Serif" font-size="10.00">eap_packet</text>
</a>
</g>
<!-- Node23&#45;&gt;Node22 -->
<g id="edge96" class="edge"><title>Node23&#45;&gt;Node22</title>
<path fill="none" stroke="#9a32cd" stroke-dasharray="5,2" d="M930.635,-9.43937C953.898,-11.5183 981.284,-18.284 998,-37 1043.46,-87.899 1042.85,-319.413 1042.17,-369.448"/>
<polygon fill="#9a32cd" stroke="#9a32cd" points="930.829,-5.94471 920.626,-8.80082 930.383,-12.9305 930.829,-5.94471"/>
<text text-anchor="middle" x="972" y="-52" font-family="Helvetica,sans-Serif" font-size="10.00"> response</text>
<text text-anchor="middle" x="972" y="-41" font-family="Helvetica,sans-Serif" font-size="10.00">request</text>
</g>
<!-- Node24 -->
<g id="node72" class="node"><title>Node24</title>
<a xlink:href="structeaptype__t.html" target="_top" xlink:title="eaptype_t">
<polygon fill="none" stroke="black" points="679.5,-0.5 679.5,-19.5 738.5,-19.5 738.5,-0.5 679.5,-0.5"/>
<text text-anchor="middle" x="709" y="-7.5" font-family="Helvetica,sans-Serif" font-size="10.00">eaptype_t</text>
</a>
</g>
<!-- Node24&#45;&gt;Node23 -->
<g id="edge98" class="edge"><title>Node24&#45;&gt;Node23</title>
<path fill="none" stroke="#9a32cd" stroke-dasharray="5,2" d="M748.803,-10C780.189,-10 823.876,-10 853.455,-10"/>
<polygon fill="#9a32cd" stroke="#9a32cd" points="748.669,-6.5001 738.669,-10 748.669,-13.5001 748.669,-6.5001"/>
<text text-anchor="middle" x="797" y="-13" font-family="Helvetica,sans-Serif" font-size="10.00"> type</text>
</g>
</g>
</svg>
        <g id="navigator" transform="translate(0 0)" fill="#404254">
                <rect fill="#f2f5e9" fill-opacity="0.5" stroke="#606060" stroke-width=".5" x="0" y="0" width="60" height="60"/>
                <use id="zoomplus" xlink:href="#zoomPlus" x="17" y="9" onmousedown="handleZoom(evt,'in')"/>
                <use id="zoomminus" xlink:href="#zoomMin" x="42" y="9" onmousedown="handleZoom(evt,'out')"/>
                <use id="reset" xlink:href="#resetDef" x="30" y="36" onmousedown="handleReset()"/>
                <g id="arrowUp" xlink:href="#dirArrow" transform="translate(30 24)" onmousedown="handlePan(0,-1)">
                  <use xlink:href="#rim" fill="#404040">
                        <set attributeName="fill" to="#808080" begin="arrowUp.mouseover" end="arrowUp.mouseout"/>
                  </use>
                  <path fill="none" stroke="white" stroke-width="1.5" d="M0,-3.0v7 M-2.5,-0.5L0,-3.0L2.5,-0.5"/>
                </g>
                <g id="arrowRight" xlink:href="#dirArrow" transform="rotate(90) translate(36 -43)" onmousedown="handlePan(1,0)">
                  <use xlink:href="#rim" fill="#404040">
                        <set attributeName="fill" to="#808080" begin="arrowRight.mouseover" end="arrowRight.mouseout"/>
                  </use>
                  <path fill="none" stroke="white" stroke-width="1.5" d="M0,-3.0v7 M-2.5,-0.5L0,-3.0L2.5,-0.5"/>
                </g>
                <g id="arrowDown" xlink:href="#dirArrow" transform="rotate(180) translate(-30 -48)" onmousedown="handlePan(0,1)">
                  <use xlink:href="#rim" fill="#404040">
                        <set attributeName="fill" to="#808080" begin="arrowDown.mouseover" end="arrowDown.mouseout"/>
                  </use>
                  <path fill="none" stroke="white" stroke-width="1.5" d="M0,-3.0v7 M-2.5,-0.5L0,-3.0L2.5,-0.5"/>
                </g>
                <g id="arrowLeft" xlink:href="#dirArrow" transform="rotate(270) translate(-36 17)" onmousedown="handlePan(-1,0)">
                  <use xlink:href="#rim" fill="#404040">
                        <set attributeName="fill" to="#808080" begin="arrowLeft.mouseover" end="arrowLeft.mouseout"/>
                  </use>
                  <path fill="none" stroke="white" stroke-width="1.5" d="M0,-3.0v7 M-2.5,-0.5L0,-3.0L2.5,-0.5"/>
                </g>
        </g>
</svg>
