<?xml version="1.0" encoding="UTF-8" standalone="no"?>
<!DOCTYPE svg PUBLIC "-//W3C//DTD SVG 1.1//EN"
 "http://www.w3.org/Graphics/SVG/1.1/DTD/svg11.dtd">
<!-- Generated by graphviz version 2.28.0 (20111211.2114)
 -->
<!-- Title: G Pages: 1 -->
<svg width="275pt" height="298pt"
 viewBox="0.00 0.00 275.00 298.50" xmlns="http://www.w3.org/2000/svg" xmlns:xlink="http://www.w3.org/1999/xlink">
<g id="graph1" class="graph" transform="scale(1 1) rotate(0) translate(4 294.5)">
<title>G</title>
<!-- Node1 -->
<g id="node1" class="node"><title>Node1</title>
<polygon fill="#bfbfbf" stroke="black" points="58,-0.5 58,-19.5 128,-19.5 128,-0.5 58,-0.5"/>
<text text-anchor="middle" x="93" y="-7.5" font-family="Helvetica,sans-Serif" font-size="10.00">rlm_cache_t</text>
</g>
<!-- Node2 -->
<g id="node2" class="node"><title>Node2</title>
<a xlink:href="structfr__heap__t.html" target="_top" xlink:title="fr_heap_t">
<polygon fill="none" stroke="black" points="-0.5,-90.5 -0.5,-109.5 56.5,-109.5 56.5,-90.5 -0.5,-90.5"/>
<text text-anchor="middle" x="28" y="-97.5" font-family="Helvetica,sans-Serif" font-size="10.00">fr_heap_t</text>
</a>
</g>
<!-- Node2&#45;&gt;Node1 -->
<g id="edge2" class="edge"><title>Node2&#45;&gt;Node1</title>
<path fill="none" stroke="#9a32cd" stroke-dasharray="5,2" d="M32.8488,-80.6429C36.9328,-67.7156 43.7692,-50.5464 54,-38 60.141,-30.469 68.9069,-24.1441 76.573,-19.5136"/>
<polygon fill="#9a32cd" stroke="#9a32cd" points="29.4692,-79.7308 30.0515,-90.3096 36.1933,-81.6767 29.4692,-79.7308"/>
<text text-anchor="middle" x="66.5" y="-52.5" font-family="Helvetica,sans-Serif" font-size="10.00"> heap</text>
</g>
<!-- Node3 -->
<g id="node4" class="node"><title>Node3</title>
<a xlink:href="structconf__part.html" target="_top" xlink:title="conf_part">
<polygon fill="none" stroke="black" points="141.5,-90.5 141.5,-109.5 198.5,-109.5 198.5,-90.5 141.5,-90.5"/>
<text text-anchor="middle" x="170" y="-97.5" font-family="Helvetica,sans-Serif" font-size="10.00">conf_part</text>
</a>
</g>
<!-- Node3&#45;&gt;Node1 -->
<g id="edge4" class="edge"><title>Node3&#45;&gt;Node1</title>
<path fill="none" stroke="#9a32cd" stroke-dasharray="5,2" d="M153.072,-83.3464C149.335,-79.7086 145.461,-75.7895 142,-72 125.693,-54.1469 108.374,-31.6297 99.3332,-19.5657"/>
<polygon fill="#9a32cd" stroke="#9a32cd" points="150.713,-85.9333 160.372,-90.2867 155.536,-80.86 150.713,-85.9333"/>
<text text-anchor="middle" x="149" y="-52.5" font-family="Helvetica,sans-Serif" font-size="10.00"> cs</text>
</g>
<!-- Node3&#45;&gt;Node3 -->
<g id="edge6" class="edge"><title>Node3&#45;&gt;Node3</title>
<path fill="none" stroke="#9a32cd" stroke-dasharray="5,2" d="M208.76,-106.991C213.153,-105.682 216,-103.352 216,-100 216,-94.5 208.333,-91.75 198.75,-91.75"/>
<polygon fill="#9a32cd" stroke="#9a32cd" points="208.235,-103.53 198.75,-108.25 209.109,-110.475 208.235,-103.53"/>
<text text-anchor="middle" x="236.5" y="-97.5" font-family="Helvetica,sans-Serif" font-size="10.00"> template</text>
</g>
<!-- Node4 -->
<g id="node7" class="node"><title>Node4</title>
<a xlink:href="structconf__item.html" target="_top" xlink:title="conf_item">
<polygon fill="none" stroke="black" points="168.5,-0.5 168.5,-19.5 227.5,-19.5 227.5,-0.5 168.5,-0.5"/>
<text text-anchor="middle" x="198" y="-7.5" font-family="Helvetica,sans-Serif" font-size="10.00">conf_item</text>
</a>
</g>
<!-- Node3&#45;&gt;Node4 -->
<g id="edge10" class="edge"><title>Node3&#45;&gt;Node4</title>
<path fill="none" stroke="#9a32cd" stroke-dasharray="5,2" d="M163.257,-80.4062C159.847,-67.8377 157.63,-51.1928 164,-38 167.736,-30.2619 174.887,-24.0614 181.671,-19.5635"/>
<polygon fill="#9a32cd" stroke="#9a32cd" points="160.009,-81.7434 166.375,-90.2127 166.68,-79.6222 160.009,-81.7434"/>
<text text-anchor="middle" x="179.5" y="-52.5" font-family="Helvetica,sans-Serif" font-size="10.00"> parent</text>
</g>
<!-- Node4&#45;&gt;Node3 -->
<g id="edge8" class="edge"><title>Node4&#45;&gt;Node3</title>
<path fill="none" stroke="#9a32cd" stroke-dasharray="5,2" d="M202.231,-29.8608C204.105,-42.3341 204.761,-58.765 199,-72 195.76,-79.4427 189.346,-85.7607 183.372,-90.4095"/>
<polygon fill="#9a32cd" stroke="#9a32cd" points="205.612,-28.9006 200.318,-19.7235 198.733,-30.1992 205.612,-28.9006"/>
<text text-anchor="middle" x="221" y="-63.5" font-family="Helvetica,sans-Serif" font-size="10.00"> tail</text>
<text text-anchor="middle" x="221" y="-52.5" font-family="Helvetica,sans-Serif" font-size="10.00">item</text>
<text text-anchor="middle" x="221" y="-41.5" font-family="Helvetica,sans-Serif" font-size="10.00">children</text>
</g>
<!-- Node4&#45;&gt;Node4 -->
<g id="edge12" class="edge"><title>Node4&#45;&gt;Node4</title>
<path fill="none" stroke="#9a32cd" stroke-dasharray="5,2" d="M237.812,-16.929C242.181,-15.6089 245,-13.2992 245,-10 245,-4.58594 237.41,-1.83661 227.833,-1.75201"/>
<polygon fill="#9a32cd" stroke="#9a32cd" points="237.288,-13.4678 227.833,-18.248 238.205,-20.4075 237.288,-13.4678"/>
<text text-anchor="middle" x="256" y="-7.5" font-family="Helvetica,sans-Serif" font-size="10.00"> next</text>
</g>
<!-- Node5 -->
<g id="node11" class="node"><title>Node5</title>
<a xlink:href="structCONF__PARSER.html" target="_top" xlink:title="CONF_PARSER">
<polygon fill="none" stroke="black" points="157,-190.5 157,-209.5 249,-209.5 249,-190.5 157,-190.5"/>
<text text-anchor="middle" x="203" y="-197.5" font-family="Helvetica,sans-Serif" font-size="10.00">CONF_PARSER</text>
</a>
</g>
<!-- Node5&#45;&gt;Node3 -->
<g id="edge14" class="edge"><title>Node5&#45;&gt;Node3</title>
<path fill="none" stroke="#9a32cd" stroke-dasharray="5,2" d="M197.737,-180.476C193.528,-166.064 187.306,-145.621 181,-128 178.817,-121.9 176.067,-115.15 173.863,-109.925"/>
<polygon fill="#9a32cd" stroke="#9a32cd" points="194.4,-181.535 200.532,-190.175 201.126,-179.597 194.4,-181.535"/>
<text text-anchor="middle" x="217.5" y="-147.5" font-family="Helvetica,sans-Serif" font-size="10.00"> variables</text>
</g>
<!-- Node6 -->
<g id="node13" class="node"><title>Node6</title>
<a xlink:href="structrbtree__t.html" target="_top" xlink:title="rbtree_t">
<polygon fill="none" stroke="black" points="78,-190.5 78,-209.5 128,-209.5 128,-190.5 78,-190.5"/>
<text text-anchor="middle" x="103" y="-197.5" font-family="Helvetica,sans-Serif" font-size="10.00">rbtree_t</text>
</a>
</g>
<!-- Node6&#45;&gt;Node1 -->
<g id="edge22" class="edge"><title>Node6&#45;&gt;Node1</title>
<path fill="none" stroke="#9a32cd" stroke-dasharray="5,2" d="M102.002,-180.244C99.8782,-140.31 94.9785,-48.1967 93.4583,-19.6168"/>
<polygon fill="#9a32cd" stroke="#9a32cd" points="98.518,-180.634 102.544,-190.434 105.508,-180.262 98.518,-180.634"/>
<text text-anchor="middle" x="114" y="-97.5" font-family="Helvetica,sans-Serif" font-size="10.00"> cache</text>
</g>
<!-- Node6&#45;&gt;Node3 -->
<g id="edge16" class="edge"><title>Node6&#45;&gt;Node3</title>
<path fill="none" stroke="#9a32cd" stroke-dasharray="5,2" d="M104.446,-179.803C106.471,-164.407 111.333,-142.972 123,-128 129.247,-119.983 138.588,-113.925 147.301,-109.6"/>
<polygon fill="#9a32cd" stroke="#9a32cd" points="100.919,-179.888 103.384,-190.192 107.883,-180.6 100.919,-179.888"/>
<text text-anchor="middle" x="150" y="-164" font-family="Helvetica,sans-Serif" font-size="10.00"> data_tree</text>
<text text-anchor="middle" x="150" y="-153" font-family="Helvetica,sans-Serif" font-size="10.00">name2_tree</text>
<text text-anchor="middle" x="150" y="-142" font-family="Helvetica,sans-Serif" font-size="10.00">section_tree</text>
<text text-anchor="middle" x="150" y="-131" font-family="Helvetica,sans-Serif" font-size="10.00">pair_tree</text>
</g>
<!-- Node7 -->
<g id="node15" class="node"><title>Node7</title>
<a xlink:href="structrbnode__t.html" target="_top" xlink:title="rbnode_t">
<polygon fill="none" stroke="black" points="76,-264.5 76,-283.5 130,-283.5 130,-264.5 76,-264.5"/>
<text text-anchor="middle" x="103" y="-271.5" font-family="Helvetica,sans-Serif" font-size="10.00">rbnode_t</text>
</a>
</g>
<!-- Node7&#45;&gt;Node6 -->
<g id="edge18" class="edge"><title>Node7&#45;&gt;Node6</title>
<path fill="none" stroke="#9a32cd" stroke-dasharray="5,2" d="M103,-254.156C103,-239.712 103,-220.459 103,-209.531"/>
<polygon fill="#9a32cd" stroke="#9a32cd" points="99.5001,-254.458 103,-264.458 106.5,-254.458 99.5001,-254.458"/>
<text text-anchor="middle" x="115.5" y="-231.5" font-family="Helvetica,sans-Serif" font-size="10.00"> Root</text>
</g>
<!-- Node7&#45;&gt;Node7 -->
<g id="edge20" class="edge"><title>Node7&#45;&gt;Node7</title>
<path fill="none" stroke="#9a32cd" stroke-dasharray="5,2" d="M140.51,-280.464C145.038,-279.297 148,-277.142 148,-274 148,-268.844 140.024,-266.346 130.241,-266.507"/>
<polygon fill="#9a32cd" stroke="#9a32cd" points="139.842,-277.014 130.241,-281.493 140.54,-283.979 139.842,-277.014"/>
<text text-anchor="middle" x="162.5" y="-282.5" font-family="Helvetica,sans-Serif" font-size="10.00"> Left</text>
<text text-anchor="middle" x="162.5" y="-271.5" font-family="Helvetica,sans-Serif" font-size="10.00">Right</text>
<text text-anchor="middle" x="162.5" y="-260.5" font-family="Helvetica,sans-Serif" font-size="10.00">Parent</text>
</g>
</g>
</svg>
