<?xml version="1.0" encoding="UTF-8" standalone="no"?>
<!DOCTYPE svg PUBLIC "-//W3C//DTD SVG 1.1//EN"
 "http://www.w3.org/Graphics/SVG/1.1/DTD/svg11.dtd">
<!-- Generated by graphviz version 2.28.0 (20111211.2114)
 -->
<!-- Title: G Pages: 1 -->
<svg width="177pt" height="110pt"
 viewBox="0.00 0.00 177.00 110.00" xmlns="http://www.w3.org/2000/svg" xmlns:xlink="http://www.w3.org/1999/xlink">
<g id="graph1" class="graph" transform="scale(1 1) rotate(0) translate(4 106)">
<title>G</title>
<!-- Node1 -->
<g id="node1" class="node"><title>Node1</title>
<polygon fill="#bfbfbf" stroke="black" points="0,-81.5 0,-100.5 108,-100.5 108,-81.5 0,-81.5"/>
<text text-anchor="middle" x="54" y="-88.5" font-family="Helvetica,sans-Serif" font-size="10.00">SMB_Tree_Structure</text>
</g>
<!-- Node1&#45;&gt;Node1 -->
<g id="edge2" class="edge"><title>Node1&#45;&gt;Node1</title>
<path fill="none" stroke="#9a32cd" stroke-dasharray="5,2" d="M117.964,-96.666C122.934,-95.4161 126,-93.5275 126,-91 126,-87.0547 118.529,-84.6659 108.007,-83.8337"/>
<polygon fill="#9a32cd" stroke="#9a32cd" points="117.374,-93.2152 108.007,-98.1663 118.417,-100.137 117.374,-93.2152"/>
<text text-anchor="middle" x="137" y="-94" font-family="Helvetica,sans-Serif" font-size="10.00"> prev</text>
<text text-anchor="middle" x="137" y="-83" font-family="Helvetica,sans-Serif" font-size="10.00">next</text>
</g>
<!-- Node2 -->
<g id="node3" class="node"><title>Node2</title>
<a xlink:href="structSMB__Connect__Def.html" target="_top" xlink:title="SMB_Connect_Def">
<polygon fill="none" stroke="black" points="3.5,-1.5 3.5,-20.5 104.5,-20.5 104.5,-1.5 3.5,-1.5"/>
<text text-anchor="middle" x="54" y="-8.5" font-family="Helvetica,sans-Serif" font-size="10.00">SMB_Connect_Def</text>
</a>
</g>
<!-- Node1&#45;&gt;Node2 -->
<g id="edge6" class="edge"><title>Node1&#45;&gt;Node2</title>
<path fill="none" stroke="#9a32cd" stroke-dasharray="5,2" d="M29.2777,-75.019C25.1182,-71.3124 21.3828,-66.9577 19,-62 14.7644,-53.1873 14.7644,-48.8127 19,-40 22.9102,-31.8643 30.4631,-25.3525 37.5546,-20.6635"/>
<polygon fill="#9a32cd" stroke="#9a32cd" points="27.4819,-78.0514 37.5546,-81.3365 31.729,-72.487 27.4819,-78.0514"/>
<text text-anchor="middle" x="40" y="-54" font-family="Helvetica,sans-Serif" font-size="10.00"> first_tree</text>
<text text-anchor="middle" x="40" y="-43" font-family="Helvetica,sans-Serif" font-size="10.00">last_tree</text>
</g>
<!-- Node2&#45;&gt;Node1 -->
<g id="edge4" class="edge"><title>Node2&#45;&gt;Node1</title>
<path fill="none" stroke="#9a32cd" stroke-dasharray="5,2" d="M62.235,-30.0924C63.3815,-33.3303 64.3786,-36.719 65,-40 66.8194,-49.607 66.8194,-52.393 65,-62 63.7172,-68.7737 60.8327,-76.0063 58.3393,-81.4237"/>
<polygon fill="#9a32cd" stroke="#9a32cd" points="65.3671,-28.5048 58.3393,-20.5763 58.8889,-31.1568 65.3671,-28.5048"/>
<text text-anchor="middle" x="75.5" y="-48.5" font-family="Helvetica,sans-Serif" font-size="10.00"> con</text>
</g>
<!-- Node2&#45;&gt;Node2 -->
<g id="edge8" class="edge"><title>Node2&#45;&gt;Node2</title>
<path fill="none" stroke="#9a32cd" stroke-dasharray="5,2" d="M114.616,-16.6103C119.189,-15.3603 122,-13.4902 122,-11 122,-7.01562 114.803,-4.61877 104.711,-3.80945"/>
<polygon fill="#9a32cd" stroke="#9a32cd" points="114.035,-13.1588 104.711,-18.1906 115.137,-20.0714 114.035,-13.1588"/>
<text text-anchor="middle" x="145.5" y="-14" font-family="Helvetica,sans-Serif" font-size="10.00"> Prev_Con</text>
<text text-anchor="middle" x="145.5" y="-3" font-family="Helvetica,sans-Serif" font-size="10.00">Next_Con</text>
</g>
</g>
</svg>
