<?xml version="1.0" encoding="UTF-8" standalone="no"?>
<!DOCTYPE svg PUBLIC "-//W3C//DTD SVG 1.1//EN"
 "http://www.w3.org/Graphics/SVG/1.1/DTD/svg11.dtd">
<!-- Generated by graphviz version 2.28.0 (20111211.2114)
 -->
<!-- Title: G Pages: 1 -->
<!--zoomable-->
<svg id="main" version="1.1" xmlns="http://www.w3.org/2000/svg" xmlns:xlink="http://www.w3.org/1999/xlink" xml:space="preserve" onload="init(evt)">
        <defs>
                <circle id="rim" cx="0" cy="0" r="7"/>
                <circle id="rim2" cx="0" cy="0" r="3.5"/>
                <g id="zoomPlus">
                        <use xlink:href="#rim" fill="#404040">
                                <set attributeName="fill" to="#808080" begin="zoomplus.mouseover" end="zoomplus.mouseout"/>
                        </use>
                        <path d="M-4,0h8M0,-4v8" fill="none" stroke="white" stroke-width="1.5" pointer-events="none"/>
                </g>
                <g id="zoomMin">
                        <use xlink:href="#rim" fill="#404040">
                                <set attributeName="fill" to="#808080" begin="zoomminus.mouseover" end="zoomminus.mouseout"/>
                        </use>
                        <path d="M-4,0h8" fill="none" stroke="white" stroke-width="1.5" pointer-events="none"/>
                </g>
                <g id="dirArrow">
                        <path fill="none" stroke="white" stroke-width="1.5" d="M0,-3.0v7 M-2.5,-0.5L0,-3.0L2.5,-0.5"/>
                </g>
               <g id="resetDef">
                       <use xlink:href="#rim2" fill="#404040">
                               <set attributeName="fill" to="#808080" begin="reset.mouseover" end="reset.mouseout"/>
                       </use>
               </g>
        </defs>

<script type="text/javascript">
var viewWidth = 1462;
var viewHeight = 883;
var sectionId = 'dynsection-0';
</script>
<script xlink:href="svgpan.js"/>
<svg id="graph" class="graph">
<g id="viewport">
<title>G</title>
<!-- Node1 -->
<g id="node1" class="node"><title>Node1</title>
<polygon fill="#bfbfbf" stroke="black" points="1334.5,-497.042 1334.5,-516.042 1453.5,-516.042 1453.5,-497.042 1334.5,-497.042"/>
<text text-anchor="middle" x="1394" y="-504.042" font-family="Helvetica,sans-Serif" font-size="10.00">rlm_rest_curl_context_t</text>
</g>
<!-- Node2 -->
<g id="node2" class="node"><title>Node2</title>
<a xlink:href="structrlm__rest__read__t.html" target="_top" xlink:title="rlm_rest_read_t">
<polygon fill="none" stroke="black" points="1187,-478.042 1187,-497.042 1271,-497.042 1271,-478.042 1187,-478.042"/>
<text text-anchor="middle" x="1229" y="-485.042" font-family="Helvetica,sans-Serif" font-size="10.00">rlm_rest_read_t</text>
</a>
</g>
<!-- Node2&#45;&gt;Node1 -->
<g id="edge2" class="edge"><title>Node2&#45;&gt;Node1</title>
<path fill="none" stroke="#9a32cd" stroke-dasharray="5,2" d="M1281.47,-488.709C1292.87,-489.309 1304.87,-490.206 1316,-491.542 1327.09,-492.873 1338.97,-494.89 1350.01,-497.017"/>
<polygon fill="#9a32cd" stroke="#9a32cd" points="1281.37,-485.201 1271.22,-488.238 1281.05,-492.194 1281.37,-485.201"/>
<text text-anchor="middle" x="1303" y="-494.542" font-family="Helvetica,sans-Serif" font-size="10.00"> read</text>
</g>
<!-- Node3 -->
<g id="node4" class="node"><title>Node3</title>
<a xlink:href="structauth__req.html" target="_top" xlink:title="auth_req">
<polygon fill="none" stroke="black" points="1053,-478.042 1053,-497.042 1107,-497.042 1107,-478.042 1053,-478.042"/>
<text text-anchor="middle" x="1080" y="-485.042" font-family="Helvetica,sans-Serif" font-size="10.00">auth_req</text>
</a>
</g>
<!-- Node3&#45;&gt;Node2 -->
<g id="edge4" class="edge"><title>Node3&#45;&gt;Node2</title>
<path fill="none" stroke="#9a32cd" stroke-dasharray="5,2" d="M1117.45,-487.542C1138.54,-487.542 1165.14,-487.542 1186.96,-487.542"/>
<polygon fill="#9a32cd" stroke="#9a32cd" points="1117.28,-484.042 1107.28,-487.542 1117.28,-491.042 1117.28,-484.042"/>
<text text-anchor="middle" x="1148" y="-490.542" font-family="Helvetica,sans-Serif" font-size="10.00"> request</text>
</g>
<!-- Node3&#45;&gt;Node3 -->
<g id="edge78" class="edge"><title>Node3&#45;&gt;Node3</title>
<path fill="none" stroke="#9a32cd" stroke-dasharray="5,2" d="M1067.48,-507.308C1068.46,-512.038 1072.64,-515.542 1080,-515.542 1092.09,-515.542 1095.58,-506.107 1090.48,-497.299"/>
<polygon fill="#9a32cd" stroke="#9a32cd" points="1070.95,-507.797 1069.52,-497.299 1064.09,-506.398 1070.95,-507.797"/>
<text text-anchor="middle" x="1080" y="-562.542" font-family="Helvetica,sans-Serif" font-size="10.00"> coa</text>
<text text-anchor="middle" x="1080" y="-551.542" font-family="Helvetica,sans-Serif" font-size="10.00">radlog</text>
<text text-anchor="middle" x="1080" y="-540.542" font-family="Helvetica,sans-Serif" font-size="10.00">handle</text>
<text text-anchor="middle" x="1080" y="-529.542" font-family="Helvetica,sans-Serif" font-size="10.00">parent</text>
<text text-anchor="middle" x="1080" y="-518.542" font-family="Helvetica,sans-Serif" font-size="10.00">process</text>
</g>
<!-- Node27 -->
<g id="node79" class="node"><title>Node27</title>
<a xlink:href="structrlm__rest__write__t.html" target="_top" xlink:title="rlm_rest_write_t">
<polygon fill="none" stroke="black" points="1186,-516.042 1186,-535.042 1272,-535.042 1272,-516.042 1186,-516.042"/>
<text text-anchor="middle" x="1229" y="-523.042" font-family="Helvetica,sans-Serif" font-size="10.00">rlm_rest_write_t</text>
</a>
</g>
<!-- Node3&#45;&gt;Node27 -->
<g id="edge108" class="edge"><title>Node3&#45;&gt;Node27</title>
<path fill="none" stroke="#9a32cd" stroke-dasharray="5,2" d="M1116.98,-498.475C1120.69,-499.539 1124.42,-500.579 1128,-501.542 1146.97,-506.639 1168.1,-511.787 1186.03,-516.001"/>
<polygon fill="#9a32cd" stroke="#9a32cd" points="1117.86,-495.086 1107.28,-495.642 1115.9,-501.805 1117.86,-495.086"/>
<text text-anchor="middle" x="1148" y="-513.542" font-family="Helvetica,sans-Serif" font-size="10.00"> request</text>
</g>
<!-- Node4 -->
<g id="node6" class="node"><title>Node4</title>
<a xlink:href="structradclient.html" target="_top" xlink:title="radclient">
<polygon fill="none" stroke="black" points="879.5,-499.042 879.5,-518.042 932.5,-518.042 932.5,-499.042 879.5,-499.042"/>
<text text-anchor="middle" x="906" y="-506.042" font-family="Helvetica,sans-Serif" font-size="10.00">radclient</text>
</a>
</g>
<!-- Node4&#45;&gt;Node3 -->
<g id="edge6" class="edge"><title>Node4&#45;&gt;Node3</title>
<path fill="none" stroke="#9a32cd" stroke-dasharray="5,2" d="M942.833,-504.167C975.64,-500.161 1023.42,-494.327 1052.79,-490.742"/>
<polygon fill="#9a32cd" stroke="#9a32cd" points="942.252,-500.712 932.75,-505.398 943.101,-507.66 942.252,-500.712"/>
<text text-anchor="middle" x="1005" y="-501.542" font-family="Helvetica,sans-Serif" font-size="10.00"> client</text>
</g>
<!-- Node5 -->
<g id="node8" class="node"><title>Node5</title>
<a xlink:href="structhome__pool__t.html" target="_top" xlink:title="home_pool_t">
<polygon fill="none" stroke="black" points="676,-473.042 676,-492.042 748,-492.042 748,-473.042 676,-473.042"/>
<text text-anchor="middle" x="712" y="-480.042" font-family="Helvetica,sans-Serif" font-size="10.00">home_pool_t</text>
</a>
</g>
<!-- Node5&#45;&gt;Node3 -->
<g id="edge80" class="edge"><title>Node5&#45;&gt;Node3</title>
<path fill="none" stroke="#9a32cd" stroke-dasharray="5,2" d="M758.257,-480.347C807.802,-478.285 889.581,-475.883 960,-478.542 991.884,-479.746 1028.47,-482.758 1052.56,-484.968"/>
<polygon fill="#9a32cd" stroke="#9a32cd" points="758.03,-476.853 748.189,-480.78 758.331,-483.847 758.03,-476.853"/>
<text text-anchor="middle" x="906" y="-481.542" font-family="Helvetica,sans-Serif" font-size="10.00"> home_pool</text>
</g>
<!-- Node5&#45;&gt;Node4 -->
<g id="edge8" class="edge"><title>Node5&#45;&gt;Node4</title>
<path fill="none" stroke="#9a32cd" stroke-dasharray="5,2" d="M758.43,-488.694C796.119,-493.798 848.361,-500.872 879.224,-505.052"/>
<polygon fill="#9a32cd" stroke="#9a32cd" points="758.595,-485.184 748.216,-487.311 757.656,-492.121 758.595,-485.184"/>
<text text-anchor="middle" x="803" y="-501.542" font-family="Helvetica,sans-Serif" font-size="10.00"> coa_pool</text>
</g>
<!-- Node6 -->
<g id="node10" class="node"><title>Node6</title>
<a xlink:href="structhome__server.html" target="_top" xlink:title="home_server">
<polygon fill="none" stroke="black" points="510.5,-558.042 510.5,-577.042 583.5,-577.042 583.5,-558.042 510.5,-558.042"/>
<text text-anchor="middle" x="547" y="-565.042" font-family="Helvetica,sans-Serif" font-size="10.00">home_server</text>
</a>
</g>
<!-- Node6&#45;&gt;Node3 -->
<g id="edge82" class="edge"><title>Node6&#45;&gt;Node3</title>
<path fill="none" stroke="#9a32cd" stroke-dasharray="5,2" d="M593.919,-565.182C635.707,-562.853 699.071,-558.87 754,-553.542 845.851,-544.632 868.879,-542.135 960,-527.542 992.189,-522.387 1001.36,-524.679 1032,-513.542 1043.39,-509.4 1055.34,-502.76 1064.33,-497.227"/>
<polygon fill="#9a32cd" stroke="#9a32cd" points="593.571,-561.696 583.778,-565.738 593.954,-568.685 593.571,-561.696"/>
<text text-anchor="middle" x="803" y="-554.542" font-family="Helvetica,sans-Serif" font-size="10.00"> home_server</text>
</g>
<!-- Node6&#45;&gt;Node4 -->
<g id="edge42" class="edge"><title>Node6&#45;&gt;Node4</title>
<path fill="none" stroke="#9a32cd" stroke-dasharray="5,2" d="M592.722,-555.605C595.855,-554.874 598.97,-554.178 602,-553.542 703.749,-532.171 826.8,-517.197 879.279,-511.313"/>
<polygon fill="#9a32cd" stroke="#9a32cd" points="591.638,-552.266 582.745,-558.025 593.289,-559.069 591.638,-552.266"/>
<text text-anchor="middle" x="712" y="-542.542" font-family="Helvetica,sans-Serif" font-size="10.00"> coa_server</text>
</g>
<!-- Node6&#45;&gt;Node5 -->
<g id="edge10" class="edge"><title>Node6&#45;&gt;Node5</title>
<path fill="none" stroke="#9a32cd" stroke-dasharray="5,2" d="M572.27,-551.647C576.577,-548.044 580.725,-543.961 584,-539.542 597.318,-521.57 584.169,-506.048 602,-492.542 622.828,-476.765 652.728,-475.051 675.945,-476.845"/>
<polygon fill="#9a32cd" stroke="#9a32cd" points="569.824,-549.11 563.981,-557.948 574.06,-554.683 569.824,-549.11"/>
<text text-anchor="middle" x="627" y="-506.542" font-family="Helvetica,sans-Serif" font-size="10.00"> fallback</text>
<text text-anchor="middle" x="627" y="-495.542" font-family="Helvetica,sans-Serif" font-size="10.00">servers</text>
</g>
<!-- Node7 -->
<g id="node12" class="node"><title>Node7</title>
<a xlink:href="structconf__part.html" target="_top" xlink:title="conf_part">
<polygon fill="none" stroke="black" points="314.5,-437.042 314.5,-456.042 371.5,-456.042 371.5,-437.042 314.5,-437.042"/>
<text text-anchor="middle" x="343" y="-444.042" font-family="Helvetica,sans-Serif" font-size="10.00">conf_part</text>
</a>
</g>
<!-- Node7&#45;&gt;Node4 -->
<g id="edge46" class="edge"><title>Node7&#45;&gt;Node4</title>
<path fill="none" stroke="#9a32cd" stroke-dasharray="5,2" d="M381.658,-444.793C454.304,-442.146 618.581,-439.7 754,-463.542 790.435,-469.957 798.946,-474.714 834,-486.542 842.133,-489.286 843.861,-490.815 852,-493.542 860.795,-496.489 870.535,-499.357 879.24,-501.782"/>
<polygon fill="#9a32cd" stroke="#9a32cd" points="381.476,-441.297 371.62,-445.182 381.748,-448.292 381.476,-441.297"/>
<text text-anchor="middle" x="627" y="-452.542" font-family="Helvetica,sans-Serif" font-size="10.00"> cs</text>
</g>
<!-- Node7&#45;&gt;Node5 -->
<g id="edge40" class="edge"><title>Node7&#45;&gt;Node5</title>
<path fill="none" stroke="#9a32cd" stroke-dasharray="5,2" d="M370.005,-432.38C380.808,-427.259 393.68,-422.108 406,-419.542 444.067,-411.613 628.667,-412.504 652,-422.542 676.424,-433.05 695.941,-458.943 705.183,-473.034"/>
<polygon fill="#9a32cd" stroke="#9a32cd" points="368.129,-429.404 360.742,-436.999 371.253,-435.669 368.129,-429.404"/>
<text text-anchor="middle" x="547" y="-418.542" font-family="Helvetica,sans-Serif" font-size="10.00"> cs</text>
</g>
<!-- Node7&#45;&gt;Node6 -->
<g id="edge12" class="edge"><title>Node7&#45;&gt;Node6</title>
<path fill="none" stroke="#9a32cd" stroke-dasharray="5,2" d="M347.359,-466.195C353.415,-494.77 369.149,-546.849 406,-569.542 438.703,-589.681 484.367,-584.199 514.536,-577.05"/>
<polygon fill="#9a32cd" stroke="#9a32cd" points="350.758,-465.34 345.431,-456.181 343.884,-466.663 350.758,-465.34"/>
<text text-anchor="middle" x="449" y="-586.542" font-family="Helvetica,sans-Serif" font-size="10.00"> cs</text>
</g>
<!-- Node7&#45;&gt;Node7 -->
<g id="edge14" class="edge"><title>Node7&#45;&gt;Node7</title>
<path fill="none" stroke="#9a32cd" stroke-dasharray="5,2" d="M326.334,-465.942C327.447,-470.857 333.002,-474.542 343,-474.542 358.996,-474.542 363.62,-465.107 356.872,-456.299"/>
<polygon fill="#9a32cd" stroke="#9a32cd" points="329.707,-466.878 329.128,-456.299 322.983,-464.93 329.707,-466.878"/>
<text text-anchor="middle" x="343" y="-477.542" font-family="Helvetica,sans-Serif" font-size="10.00"> template</text>
</g>
<!-- Node8 -->
<g id="node15" class="node"><title>Node8</title>
<a xlink:href="structconf__item.html" target="_top" xlink:title="conf_item">
<polygon fill="none" stroke="black" points="517.5,-482.042 517.5,-501.042 576.5,-501.042 576.5,-482.042 517.5,-482.042"/>
<text text-anchor="middle" x="547" y="-489.042" font-family="Helvetica,sans-Serif" font-size="10.00">conf_item</text>
</a>
</g>
<!-- Node7&#45;&gt;Node8 -->
<g id="edge18" class="edge"><title>Node7&#45;&gt;Node8</title>
<path fill="none" stroke="#9a32cd" stroke-dasharray="5,2" d="M350.123,-465.926C358.565,-488.964 376.217,-526.323 406,-542.542 439.567,-560.822 456.482,-556.663 492,-542.542 512.85,-534.252 530.304,-513.671 539.346,-501.336"/>
<polygon fill="#9a32cd" stroke="#9a32cd" points="353.343,-464.526 346.793,-456.199 346.72,-466.794 353.343,-464.526"/>
<text text-anchor="middle" x="449" y="-557.542" font-family="Helvetica,sans-Serif" font-size="10.00"> parent</text>
</g>
<!-- Node16 -->
<g id="node40" class="node"><title>Node16</title>
<a xlink:href="structmain__config__t.html" target="_top" xlink:title="main_config_t">
<polygon fill="none" stroke="black" points="673.5,-207.042 673.5,-226.042 750.5,-226.042 750.5,-207.042 673.5,-207.042"/>
<text text-anchor="middle" x="712" y="-214.042" font-family="Helvetica,sans-Serif" font-size="10.00">main_config_t</text>
</a>
</g>
<!-- Node7&#45;&gt;Node16 -->
<g id="edge58" class="edge"><title>Node7&#45;&gt;Node16</title>
<path fill="none" stroke="#9a32cd" stroke-dasharray="5,2" d="M348.393,-427.019C356.083,-395.988 374.265,-334.529 406,-291.542 441.289,-243.741 453.979,-227.34 510,-207.542 565.001,-188.104 633.779,-197.857 674.953,-206.987"/>
<polygon fill="#9a32cd" stroke="#9a32cd" points="344.932,-426.447 346.028,-436.985 351.742,-428.063 344.932,-426.447"/>
<text text-anchor="middle" x="547" y="-210.542" font-family="Helvetica,sans-Serif" font-size="10.00"> config</text>
</g>
<!-- Node17 -->
<g id="node42" class="node"><title>Node17</title>
<a xlink:href="structrad__listen__t.html" target="_top" xlink:title="rad_listen_t">
<polygon fill="none" stroke="black" points="513.5,-228.042 513.5,-247.042 580.5,-247.042 580.5,-228.042 513.5,-228.042"/>
<text text-anchor="middle" x="547" y="-235.042" font-family="Helvetica,sans-Serif" font-size="10.00">rad_listen_t</text>
</a>
</g>
<!-- Node7&#45;&gt;Node17 -->
<g id="edge56" class="edge"><title>Node7&#45;&gt;Node17</title>
<path fill="none" stroke="#9a32cd" stroke-dasharray="5,2" d="M360.196,-429.106C372.649,-415.746 390.32,-396.892 406,-380.542 454.577,-329.889 513.66,-270.138 536.424,-247.184"/>
<polygon fill="#9a32cd" stroke="#9a32cd" points="357.432,-426.938 353.181,-436.642 362.556,-431.707 357.432,-426.938"/>
<text text-anchor="middle" x="449" y="-383.542" font-family="Helvetica,sans-Serif" font-size="10.00"> cs</text>
</g>
<!-- Node24 -->
<g id="node71" class="node"><title>Node24</title>
<a xlink:href="structfr__connection__pool__t.html" target="_top" xlink:title="fr_connection_pool_t">
<polygon fill="none" stroke="black" points="852.5,-777.042 852.5,-796.042 959.5,-796.042 959.5,-777.042 852.5,-777.042"/>
<text text-anchor="middle" x="906" y="-784.042" font-family="Helvetica,sans-Serif" font-size="10.00">fr_connection_pool_t</text>
</a>
</g>
<!-- Node7&#45;&gt;Node24 -->
<g id="edge98" class="edge"><title>Node7&#45;&gt;Node24</title>
<path fill="none" stroke="#9a32cd" stroke-dasharray="5,2" d="M348.834,-466.037C357.004,-499.049 374.02,-568.072 388,-626.542 396.173,-660.723 379.201,-680.805 406,-703.542 435.549,-728.612 716.201,-718.006 754,-726.542 803.804,-737.789 858.666,-763.126 886.537,-777.006"/>
<polygon fill="#9a32cd" stroke="#9a32cd" points="352.221,-465.155 346.419,-456.289 345.426,-466.838 352.221,-465.155"/>
<text text-anchor="middle" x="627" y="-724.542" font-family="Helvetica,sans-Serif" font-size="10.00"> cs</text>
</g>
<!-- Node8&#45;&gt;Node7 -->
<g id="edge16" class="edge"><title>Node8&#45;&gt;Node7</title>
<path fill="none" stroke="#9a32cd" stroke-dasharray="5,2" d="M521.716,-477.18C512.668,-472.433 502.131,-467.591 492,-464.542 451.228,-452.271 401.744,-448.338 371.58,-447.094"/>
<polygon fill="#9a32cd" stroke="#9a32cd" points="520.075,-480.272 530.526,-482.014 523.442,-474.135 520.075,-480.272"/>
<text text-anchor="middle" x="449" y="-489.542" font-family="Helvetica,sans-Serif" font-size="10.00"> tail</text>
<text text-anchor="middle" x="449" y="-478.542" font-family="Helvetica,sans-Serif" font-size="10.00">item</text>
<text text-anchor="middle" x="449" y="-467.542" font-family="Helvetica,sans-Serif" font-size="10.00">children</text>
</g>
<!-- Node8&#45;&gt;Node8 -->
<g id="edge20" class="edge"><title>Node8&#45;&gt;Node8</title>
<path fill="none" stroke="#9a32cd" stroke-dasharray="5,2" d="M532.268,-511.308C533.425,-516.038 538.335,-519.542 547,-519.542 561.219,-519.542 565.329,-510.107 559.33,-501.299"/>
<polygon fill="#9a32cd" stroke="#9a32cd" points="535.739,-511.84 534.67,-501.299 528.933,-510.206 535.739,-511.84"/>
<text text-anchor="middle" x="547" y="-522.542" font-family="Helvetica,sans-Serif" font-size="10.00"> next</text>
</g>
<!-- Node9 -->
<g id="node19" class="node"><title>Node9</title>
<a xlink:href="structCONF__PARSER.html" target="_top" xlink:title="CONF_PARSER">
<polygon fill="none" stroke="black" points="116,-470.042 116,-489.042 208,-489.042 208,-470.042 116,-470.042"/>
<text text-anchor="middle" x="162" y="-477.042" font-family="Helvetica,sans-Serif" font-size="10.00">CONF_PARSER</text>
</a>
</g>
<!-- Node9&#45;&gt;Node7 -->
<g id="edge22" class="edge"><title>Node9&#45;&gt;Node7</title>
<path fill="none" stroke="#9a32cd" stroke-dasharray="5,2" d="M218.261,-469.354C250.16,-463.473 288.893,-456.333 314.43,-451.625"/>
<polygon fill="#9a32cd" stroke="#9a32cd" points="217.369,-465.96 208.169,-471.215 218.638,-472.844 217.369,-465.96"/>
<text text-anchor="middle" x="253" y="-470.542" font-family="Helvetica,sans-Serif" font-size="10.00"> variables</text>
</g>
<!-- Node10 -->
<g id="node21" class="node"><title>Node10</title>
<a xlink:href="structrbtree__t.html" target="_top" xlink:title="rbtree_t">
<polygon fill="none" stroke="black" points="137,-403.042 137,-422.042 187,-422.042 187,-403.042 137,-403.042"/>
<text text-anchor="middle" x="162" y="-410.042" font-family="Helvetica,sans-Serif" font-size="10.00">rbtree_t</text>
</a>
</g>
<!-- Node10&#45;&gt;Node7 -->
<g id="edge24" class="edge"><title>Node10&#45;&gt;Node7</title>
<path fill="none" stroke="#9a32cd" stroke-dasharray="5,2" d="M197.17,-406.499C220.848,-403.554 252.869,-402.062 280,-409.542 299.093,-414.806 318.235,-427.666 330.093,-436.741"/>
<polygon fill="#9a32cd" stroke="#9a32cd" points="196.672,-403.035 187.249,-407.878 197.636,-409.968 196.672,-403.035"/>
<text text-anchor="middle" x="253" y="-446.542" font-family="Helvetica,sans-Serif" font-size="10.00"> data_tree</text>
<text text-anchor="middle" x="253" y="-435.542" font-family="Helvetica,sans-Serif" font-size="10.00">name2_tree</text>
<text text-anchor="middle" x="253" y="-424.542" font-family="Helvetica,sans-Serif" font-size="10.00">section_tree</text>
<text text-anchor="middle" x="253" y="-413.542" font-family="Helvetica,sans-Serif" font-size="10.00">pair_tree</text>
</g>
<!-- Node11 -->
<g id="node23" class="node"><title>Node11</title>
<a xlink:href="structrbnode__t.html" target="_top" xlink:title="rbnode_t">
<polygon fill="none" stroke="black" points="0,-403.042 0,-422.042 54,-422.042 54,-403.042 0,-403.042"/>
<text text-anchor="middle" x="27" y="-410.042" font-family="Helvetica,sans-Serif" font-size="10.00">rbnode_t</text>
</a>
</g>
<!-- Node11&#45;&gt;Node10 -->
<g id="edge26" class="edge"><title>Node11&#45;&gt;Node10</title>
<path fill="none" stroke="#9a32cd" stroke-dasharray="5,2" d="M64.3432,-412.542C87.3013,-412.542 116.343,-412.542 136.572,-412.542"/>
<polygon fill="#9a32cd" stroke="#9a32cd" points="64.2766,-409.042 54.2765,-412.542 64.2765,-416.042 64.2766,-409.042"/>
<text text-anchor="middle" x="85" y="-415.542" font-family="Helvetica,sans-Serif" font-size="10.00"> Root</text>
</g>
<!-- Node11&#45;&gt;Node11 -->
<g id="edge28" class="edge"><title>Node11&#45;&gt;Node11</title>
<path fill="none" stroke="#9a32cd" stroke-dasharray="5,2" d="M16.3189,-432.308C17.1578,-437.038 20.7182,-440.542 27,-440.542 37.3086,-440.542 40.2884,-431.107 35.9395,-422.299"/>
<polygon fill="#9a32cd" stroke="#9a32cd" points="19.7944,-432.751 18.0605,-422.299 12.898,-431.551 19.7944,-432.751"/>
<text text-anchor="middle" x="27" y="-465.542" font-family="Helvetica,sans-Serif" font-size="10.00"> Left</text>
<text text-anchor="middle" x="27" y="-454.542" font-family="Helvetica,sans-Serif" font-size="10.00">Right</text>
<text text-anchor="middle" x="27" y="-443.542" font-family="Helvetica,sans-Serif" font-size="10.00">Parent</text>
</g>
<!-- Node12 -->
<g id="node26" class="node"><title>Node12</title>
<a xlink:href="structfr__socket__limit__t.html" target="_top" xlink:title="fr_socket_limit_t">
<polygon fill="none" stroke="black" points="298.5,-636.042 298.5,-655.042 387.5,-655.042 387.5,-636.042 298.5,-636.042"/>
<text text-anchor="middle" x="343" y="-643.042" font-family="Helvetica,sans-Serif" font-size="10.00">fr_socket_limit_t</text>
</a>
</g>
<!-- Node12&#45;&gt;Node4 -->
<g id="edge44" class="edge"><title>Node12&#45;&gt;Node4</title>
<path fill="none" stroke="#9a32cd" stroke-dasharray="5,2" d="M397.593,-647.976C425.78,-648.551 460.857,-648.155 492,-644.542 646.864,-626.576 693.931,-634.999 834,-566.542 859.168,-554.241 883.289,-531.44 895.906,-518.39"/>
<polygon fill="#9a32cd" stroke="#9a32cd" points="397.625,-644.476 387.541,-647.724 397.45,-651.474 397.625,-644.476"/>
<text text-anchor="middle" x="627" y="-635.542" font-family="Helvetica,sans-Serif" font-size="10.00"> limit</text>
</g>
<!-- Node12&#45;&gt;Node6 -->
<g id="edge30" class="edge"><title>Node12&#45;&gt;Node6</title>
<path fill="none" stroke="#9a32cd" stroke-dasharray="5,2" d="M397.727,-634.035C436.441,-625.539 483.335,-614.753 492,-610.542 509.462,-602.056 526.448,-587.091 536.568,-577.245"/>
<polygon fill="#9a32cd" stroke="#9a32cd" points="396.6,-630.698 387.577,-636.251 398.094,-637.537 396.6,-630.698"/>
<text text-anchor="middle" x="449" y="-634.542" font-family="Helvetica,sans-Serif" font-size="10.00"> limit</text>
</g>
<!-- Node13 -->
<g id="node28" class="node"><title>Node13</title>
<a xlink:href="structfr__event__t.html" target="_top" xlink:title="fr_event_t">
<polygon fill="none" stroke="black" points="313,-710.042 313,-729.042 373,-729.042 373,-710.042 313,-710.042"/>
<text text-anchor="middle" x="343" y="-717.042" font-family="Helvetica,sans-Serif" font-size="10.00">fr_event_t</text>
</a>
</g>
<!-- Node13&#45;&gt;Node3 -->
<g id="edge86" class="edge"><title>Node13&#45;&gt;Node3</title>
<path fill="none" stroke="#9a32cd" stroke-dasharray="5,2" d="M383.252,-728.561C423.781,-737.074 488.964,-748.542 546,-748.542 546,-748.542 546,-748.542 907,-748.542 1029.91,-748.542 1069.97,-544.229 1077.57,-497.141"/>
<polygon fill="#9a32cd" stroke="#9a32cd" points="383.762,-725.091 373.25,-726.415 382.293,-731.935 383.762,-725.091"/>
<text text-anchor="middle" x="712" y="-751.542" font-family="Helvetica,sans-Serif" font-size="10.00"> ev</text>
</g>
<!-- Node13&#45;&gt;Node6 -->
<g id="edge32" class="edge"><title>Node13&#45;&gt;Node6</title>
<path fill="none" stroke="#9a32cd" stroke-dasharray="5,2" d="M382.714,-706.734C414.591,-694.803 459.643,-674.62 492,-646.542 515.464,-626.181 533.462,-593.413 541.46,-577.228"/>
<polygon fill="#9a32cd" stroke="#9a32cd" points="381.472,-703.462 373.273,-710.172 383.867,-710.039 381.472,-703.462"/>
<text text-anchor="middle" x="449" y="-698.542" font-family="Helvetica,sans-Serif" font-size="10.00"> ev</text>
</g>
<!-- Node13&#45;&gt;Node13 -->
<g id="edge34" class="edge"><title>Node13&#45;&gt;Node13</title>
<path fill="none" stroke="#9a32cd" stroke-dasharray="5,2" d="M326.334,-738.942C327.447,-743.857 333.002,-747.542 343,-747.542 358.996,-747.542 363.62,-738.107 356.872,-729.299"/>
<polygon fill="#9a32cd" stroke="#9a32cd" points="329.707,-739.878 329.128,-729.299 322.983,-737.93 329.707,-739.878"/>
<text text-anchor="middle" x="343" y="-750.542" font-family="Helvetica,sans-Serif" font-size="10.00"> ev_p</text>
</g>
<!-- Node14 -->
<g id="node31" class="node"><title>Node14</title>
<a xlink:href="structfr__ipaddr__t.html" target="_top" xlink:title="fr_ipaddr_t">
<polygon fill="none" stroke="black" points="312,-142.042 312,-161.042 374,-161.042 374,-142.042 312,-142.042"/>
<text text-anchor="middle" x="343" y="-149.042" font-family="Helvetica,sans-Serif" font-size="10.00">fr_ipaddr_t</text>
</a>
</g>
<!-- Node14&#45;&gt;Node4 -->
<g id="edge48" class="edge"><title>Node14&#45;&gt;Node4</title>
<path fill="none" stroke="#9a32cd" stroke-dasharray="5,2" d="M355.656,-170.067C379.984,-207.339 439.772,-291.968 510,-340.542 636.549,-428.071 716.554,-363.131 834,-462.542 846.16,-472.835 839.416,-483.77 852,-493.542 859.855,-499.642 870.075,-503.261 879.442,-505.409"/>
<polygon fill="#9a32cd" stroke="#9a32cd" points="358.353,-167.789 350.002,-161.269 352.464,-171.574 358.353,-167.789"/>
<text text-anchor="middle" x="627" y="-397.542" font-family="Helvetica,sans-Serif" font-size="10.00"> ipaddr</text>
</g>
<!-- Node14&#45;&gt;Node6 -->
<g id="edge36" class="edge"><title>Node14&#45;&gt;Node6</title>
<path fill="none" stroke="#9a32cd" stroke-dasharray="5,2" d="M346.884,-171.042C357.512,-242.364 394.462,-485.532 406,-497.542 433.118,-525.771 458.879,-495.68 492,-516.542 502.983,-523.46 500.808,-530.377 510,-539.542 516.729,-546.25 525.059,-552.822 532.012,-557.911"/>
<polygon fill="#9a32cd" stroke="#9a32cd" points="350.344,-170.51 345.413,-161.132 343.42,-171.538 350.344,-170.51"/>
<text text-anchor="middle" x="449" y="-530.542" font-family="Helvetica,sans-Serif" font-size="10.00"> ipaddr</text>
<text text-anchor="middle" x="449" y="-519.542" font-family="Helvetica,sans-Serif" font-size="10.00">src_ipaddr</text>
</g>
<!-- Node14&#45;&gt;Node16 -->
<g id="edge60" class="edge"><title>Node14&#45;&gt;Node16</title>
<path fill="none" stroke="#9a32cd" stroke-dasharray="5,2" d="M384.46,-148.978C445.006,-146.639 561.714,-147.986 652,-184.542 667.337,-190.752 683.813,-199.918 695.445,-206.851"/>
<polygon fill="#9a32cd" stroke="#9a32cd" points="384.016,-145.494 374.18,-149.432 384.325,-152.487 384.016,-145.494"/>
<text text-anchor="middle" x="547" y="-166.542" font-family="Helvetica,sans-Serif" font-size="10.00"> myip</text>
</g>
<!-- Node18 -->
<g id="node48" class="node"><title>Node18</title>
<a xlink:href="structradius__packet.html" target="_top" xlink:title="radius_packet">
<polygon fill="none" stroke="black" points="867.5,-98.042 867.5,-117.042 944.5,-117.042 944.5,-98.042 867.5,-98.042"/>
<text text-anchor="middle" x="906" y="-105.042" font-family="Helvetica,sans-Serif" font-size="10.00">radius_packet</text>
</a>
</g>
<!-- Node14&#45;&gt;Node18 -->
<g id="edge74" class="edge"><title>Node14&#45;&gt;Node18</title>
<path fill="none" stroke="#9a32cd" stroke-dasharray="5,2" d="M384.498,-146.743C391.657,-145.959 399.044,-145.192 406,-144.542 578.12,-128.45 784.175,-115.018 867.4,-109.835"/>
<polygon fill="#9a32cd" stroke="#9a32cd" points="383.797,-143.299 374.249,-147.891 384.577,-150.256 383.797,-143.299"/>
<text text-anchor="middle" x="627" y="-142.542" font-family="Helvetica,sans-Serif" font-size="10.00"> dst_ipaddr</text>
<text text-anchor="middle" x="627" y="-131.542" font-family="Helvetica,sans-Serif" font-size="10.00">src_ipaddr</text>
</g>
<!-- Node15 -->
<g id="node33" class="node"><title>Node15</title>
<a xlink:href="structin6__addr.html" target="_top" xlink:title="in6_addr">
<polygon fill="none" stroke="black" points="135.5,-107.042 135.5,-126.042 188.5,-126.042 188.5,-107.042 135.5,-107.042"/>
<text text-anchor="middle" x="162" y="-114.042" font-family="Helvetica,sans-Serif" font-size="10.00">in6_addr</text>
</a>
</g>
<!-- Node15&#45;&gt;Node14 -->
<g id="edge38" class="edge"><title>Node15&#45;&gt;Node14</title>
<path fill="none" stroke="#9a32cd" stroke-dasharray="5,2" d="M198.822,-123.546C231.981,-130.03 280.729,-139.562 311.918,-145.66"/>
<polygon fill="#9a32cd" stroke="#9a32cd" points="199.132,-120.041 188.646,-121.557 197.789,-126.911 199.132,-120.041"/>
<text text-anchor="middle" x="253" y="-142.542" font-family="Helvetica,sans-Serif" font-size="10.00"> ip6addr</text>
</g>
<!-- Node20 -->
<g id="node52" class="node"><title>Node20</title>
<a xlink:href="unionvalue__pair__data.html" target="_top" xlink:title="value_pair_data">
<polygon fill="none" stroke="black" points="406.5,-64.042 406.5,-83.042 491.5,-83.042 491.5,-64.042 406.5,-64.042"/>
<text text-anchor="middle" x="449" y="-71.042" font-family="Helvetica,sans-Serif" font-size="10.00">value_pair_data</text>
</a>
</g>
<!-- Node15&#45;&gt;Node20 -->
<g id="edge68" class="edge"><title>Node15&#45;&gt;Node20</title>
<path fill="none" stroke="#9a32cd" stroke-dasharray="5,2" d="M198.461,-111.192C251.269,-103.224 350.362,-88.2733 406.479,-79.8065"/>
<polygon fill="#9a32cd" stroke="#9a32cd" points="197.909,-107.735 188.543,-112.688 198.953,-114.657 197.909,-107.735"/>
<text text-anchor="middle" x="253" y="-109.542" font-family="Helvetica,sans-Serif" font-size="10.00"> ipv6addr</text>
</g>
<!-- Node16&#45;&gt;Node3 -->
<g id="edge50" class="edge"><title>Node16&#45;&gt;Node3</title>
<path fill="none" stroke="#9a32cd" stroke-dasharray="5,2" d="M760.813,-210.665C830.311,-205.001 958.895,-205.829 1032,-276.542 1061.67,-305.244 1075.06,-440.443 1078.23,-477.9"/>
<polygon fill="#9a32cd" stroke="#9a32cd" points="760.241,-207.202 750.593,-211.58 760.865,-214.175 760.241,-207.202"/>
<text text-anchor="middle" x="906" y="-235.542" font-family="Helvetica,sans-Serif" font-size="10.00"> root</text>
</g>
<!-- Node17&#45;&gt;Node3 -->
<g id="edge76" class="edge"><title>Node17&#45;&gt;Node3</title>
<path fill="none" stroke="#9a32cd" stroke-dasharray="5,2" d="M590.678,-246.191C647.877,-258.708 751.727,-284.71 834,-323.542 931.204,-369.422 1033.8,-450.388 1067.53,-478.003"/>
<polygon fill="#9a32cd" stroke="#9a32cd" points="591.408,-242.768 580.895,-244.083 589.933,-249.611 591.408,-242.768"/>
<text text-anchor="middle" x="803" y="-338.542" font-family="Helvetica,sans-Serif" font-size="10.00"> listener</text>
<text text-anchor="middle" x="803" y="-327.542" font-family="Helvetica,sans-Serif" font-size="10.00">proxy_listener</text>
</g>
<!-- Node17&#45;&gt;Node16 -->
<g id="edge52" class="edge"><title>Node17&#45;&gt;Node16</title>
<path fill="none" stroke="#9a32cd" stroke-dasharray="5,2" d="M590.768,-232.032C616.389,-228.731 648.665,-224.573 673.323,-221.396"/>
<polygon fill="#9a32cd" stroke="#9a32cd" points="590.064,-228.594 580.594,-233.343 590.959,-235.536 590.064,-228.594"/>
<text text-anchor="middle" x="627" y="-233.542" font-family="Helvetica,sans-Serif" font-size="10.00"> listen</text>
</g>
<!-- Node17&#45;&gt;Node17 -->
<g id="edge54" class="edge"><title>Node17&#45;&gt;Node17</title>
<path fill="none" stroke="#9a32cd" stroke-dasharray="5,2" d="M532.268,-257.308C533.425,-262.038 538.335,-265.542 547,-265.542 561.219,-265.542 565.329,-256.107 559.33,-247.299"/>
<polygon fill="#9a32cd" stroke="#9a32cd" points="535.739,-257.84 534.67,-247.299 528.933,-256.206 535.739,-257.84"/>
<text text-anchor="middle" x="547" y="-323.542" font-family="Helvetica,sans-Serif" font-size="10.00"> next</text>
<text text-anchor="middle" x="547" y="-312.542" font-family="Helvetica,sans-Serif" font-size="10.00">encode</text>
<text text-anchor="middle" x="547" y="-301.542" font-family="Helvetica,sans-Serif" font-size="10.00">recv</text>
<text text-anchor="middle" x="547" y="-290.542" font-family="Helvetica,sans-Serif" font-size="10.00">print</text>
<text text-anchor="middle" x="547" y="-279.542" font-family="Helvetica,sans-Serif" font-size="10.00">send</text>
<text text-anchor="middle" x="547" y="-268.542" font-family="Helvetica,sans-Serif" font-size="10.00">decode</text>
</g>
<!-- Node18&#45;&gt;Node3 -->
<g id="edge62" class="edge"><title>Node18&#45;&gt;Node3</title>
<path fill="none" stroke="#9a32cd" stroke-dasharray="5,2" d="M946.692,-120.891C975.114,-132.586 1011.8,-152.477 1032,-182.542 1065.77,-232.793 1076.54,-432.024 1078.61,-478.028"/>
<polygon fill="#9a32cd" stroke="#9a32cd" points="947.611,-117.492 937.023,-117.093 945.051,-124.007 947.611,-117.492"/>
<text text-anchor="middle" x="1005" y="-218.542" font-family="Helvetica,sans-Serif" font-size="10.00"> reply</text>
<text text-anchor="middle" x="1005" y="-207.542" font-family="Helvetica,sans-Serif" font-size="10.00">proxy_reply</text>
<text text-anchor="middle" x="1005" y="-196.542" font-family="Helvetica,sans-Serif" font-size="10.00">proxy</text>
<text text-anchor="middle" x="1005" y="-185.542" font-family="Helvetica,sans-Serif" font-size="10.00">packet</text>
</g>
<!-- Node19 -->
<g id="node50" class="node"><title>Node19</title>
<a xlink:href="structvalue__pair.html" target="_top" xlink:title="value_pair">
<polygon fill="none" stroke="black" points="681.5,-29.042 681.5,-48.042 742.5,-48.042 742.5,-29.042 681.5,-29.042"/>
<text text-anchor="middle" x="712" y="-36.042" font-family="Helvetica,sans-Serif" font-size="10.00">value_pair</text>
</a>
</g>
<!-- Node19&#45;&gt;Node2 -->
<g id="edge92" class="edge"><title>Node19&#45;&gt;Node2</title>
<path fill="none" stroke="#9a32cd" stroke-dasharray="5,2" d="M748.887,-25.8041C813.248,-5.46589 949.286,25.7882 1032,-39.542 1184.9,-160.304 1221.18,-424.594 1227.05,-478.016"/>
<polygon fill="#9a32cd" stroke="#9a32cd" points="747.619,-22.5361 739.192,-28.9581 749.784,-29.1927 747.619,-22.5361"/>
<text text-anchor="middle" x="1005" y="-53.542" font-family="Helvetica,sans-Serif" font-size="10.00"> next</text>
<text text-anchor="middle" x="1005" y="-42.542" font-family="Helvetica,sans-Serif" font-size="10.00">first</text>
</g>
<!-- Node19&#45;&gt;Node3 -->
<g id="edge84" class="edge"><title>Node19&#45;&gt;Node3</title>
<path fill="none" stroke="#9a32cd" stroke-dasharray="5,2" d="M752.751,-32.6245C803.533,-26.9407 892.876,-23.3615 960,-55.542 1002.54,-75.9373 1011.96,-90.8315 1032,-133.542 1061.96,-197.386 1075.79,-427.324 1078.5,-477.73"/>
<polygon fill="#9a32cd" stroke="#9a32cd" points="752.031,-29.1858 742.522,-33.8572 752.869,-36.1356 752.031,-29.1858"/>
<text text-anchor="middle" x="906" y="-80.542" font-family="Helvetica,sans-Serif" font-size="10.00"> password</text>
<text text-anchor="middle" x="906" y="-69.542" font-family="Helvetica,sans-Serif" font-size="10.00">config_items</text>
<text text-anchor="middle" x="906" y="-58.542" font-family="Helvetica,sans-Serif" font-size="10.00">username</text>
</g>
<!-- Node19&#45;&gt;Node18 -->
<g id="edge64" class="edge"><title>Node19&#45;&gt;Node18</title>
<path fill="none" stroke="#9a32cd" stroke-dasharray="5,2" d="M751.181,-51.4749C775.047,-59.6382 806.389,-70.5023 834,-80.542 849.492,-86.175 866.783,-92.7443 880.422,-97.9926"/>
<polygon fill="#9a32cd" stroke="#9a32cd" points="752.038,-48.0691 741.443,-48.152 749.777,-54.694 752.038,-48.0691"/>
<text text-anchor="middle" x="803" y="-83.542" font-family="Helvetica,sans-Serif" font-size="10.00"> vps</text>
</g>
<!-- Node19&#45;&gt;Node19 -->
<g id="edge70" class="edge"><title>Node19&#45;&gt;Node19</title>
<path fill="none" stroke="#9a32cd" stroke-dasharray="5,2" d="M696.531,-58.3083C697.746,-63.0385 702.902,-66.542 712,-66.542 726.93,-66.542 731.245,-57.1072 724.947,-48.299"/>
<polygon fill="#9a32cd" stroke="#9a32cd" points="700.003,-58.8512 699.053,-48.299 693.216,-57.1406 700.003,-58.8512"/>
<text text-anchor="middle" x="712" y="-69.542" font-family="Helvetica,sans-Serif" font-size="10.00"> next</text>
</g>
<!-- Node20&#45;&gt;Node19 -->
<g id="edge66" class="edge"><title>Node20&#45;&gt;Node19</title>
<path fill="none" stroke="#9a32cd" stroke-dasharray="5,2" d="M501.809,-67.2116C542.642,-62.1408 600.999,-54.7131 652,-47.542 661.542,-46.2002 671.938,-44.6456 681.308,-43.2098"/>
<polygon fill="#9a32cd" stroke="#9a32cd" points="501.315,-63.746 491.821,-68.4484 502.175,-70.693 501.315,-63.746"/>
<text text-anchor="middle" x="547" y="-69.542" font-family="Helvetica,sans-Serif" font-size="10.00"> data</text>
</g>
<!-- Node21 -->
<g id="node56" class="node"><title>Node21</title>
<a xlink:href="structattr__flags.html" target="_top" xlink:title="attr_flags">
<polygon fill="none" stroke="black" points="518.5,-11.042 518.5,-30.042 575.5,-30.042 575.5,-11.042 518.5,-11.042"/>
<text text-anchor="middle" x="547" y="-18.042" font-family="Helvetica,sans-Serif" font-size="10.00">attr_flags</text>
</a>
</g>
<!-- Node21&#45;&gt;Node19 -->
<g id="edge72" class="edge"><title>Node21&#45;&gt;Node19</title>
<path fill="none" stroke="#9a32cd" stroke-dasharray="5,2" d="M585.839,-24.7205C614.9,-27.9297 654.47,-32.2993 681.28,-35.26"/>
<polygon fill="#9a32cd" stroke="#9a32cd" points="585.975,-21.2143 575.651,-23.5954 585.206,-28.172 585.975,-21.2143"/>
<text text-anchor="middle" x="627" y="-35.542" font-family="Helvetica,sans-Serif" font-size="10.00"> flags</text>
</g>
<!-- Node22 -->
<g id="node65" class="node"><title>Node22</title>
<a xlink:href="structrequest__data__t.html" target="_top" xlink:title="request_data_t">
<polygon fill="none" stroke="black" points="865.5,-596.042 865.5,-615.042 946.5,-615.042 946.5,-596.042 865.5,-596.042"/>
<text text-anchor="middle" x="906" y="-603.042" font-family="Helvetica,sans-Serif" font-size="10.00">request_data_t</text>
</a>
</g>
<!-- Node22&#45;&gt;Node3 -->
<g id="edge88" class="edge"><title>Node22&#45;&gt;Node3</title>
<path fill="none" stroke="#9a32cd" stroke-dasharray="5,2" d="M956.992,-605.526C981.713,-603.196 1010.73,-596.717 1032,-580.542 1060.08,-559.189 1072.65,-516.406 1077.05,-497.23"/>
<polygon fill="#9a32cd" stroke="#9a32cd" points="956.41,-602.059 946.695,-606.287 956.926,-609.04 956.41,-602.059"/>
<text text-anchor="middle" x="1005" y="-604.542" font-family="Helvetica,sans-Serif" font-size="10.00"> data</text>
</g>
<!-- Node22&#45;&gt;Node22 -->
<g id="edge90" class="edge"><title>Node22&#45;&gt;Node22</title>
<path fill="none" stroke="#9a32cd" stroke-dasharray="5,2" d="M887.853,-624.942C889.065,-629.857 895.114,-633.542 906,-633.542 923.418,-633.542 928.453,-624.107 921.105,-615.299"/>
<polygon fill="#9a32cd" stroke="#9a32cd" points="891.224,-625.889 890.895,-615.299 884.548,-623.782 891.224,-625.889"/>
<text text-anchor="middle" x="906" y="-636.542" font-family="Helvetica,sans-Serif" font-size="10.00"> next</text>
</g>
<!-- Node23 -->
<g id="node69" class="node"><title>Node23</title>
<a xlink:href="structrlm__rest__t.html" target="_top" xlink:title="rlm_rest_t">
<polygon fill="none" stroke="black" points="1050,-691.042 1050,-710.042 1110,-710.042 1110,-691.042 1050,-691.042"/>
<text text-anchor="middle" x="1080" y="-698.042" font-family="Helvetica,sans-Serif" font-size="10.00">rlm_rest_t</text>
</a>
</g>
<!-- Node23&#45;&gt;Node2 -->
<g id="edge94" class="edge"><title>Node23&#45;&gt;Node2</title>
<path fill="none" stroke="#9a32cd" stroke-dasharray="5,2" d="M1089.3,-681.666C1108.7,-638.187 1157.55,-532.699 1186,-506.542 1190.12,-502.75 1195.13,-499.612 1200.23,-497.052"/>
<polygon fill="#9a32cd" stroke="#9a32cd" points="1086.08,-680.295 1085.22,-690.855 1092.47,-683.131 1086.08,-680.295"/>
<text text-anchor="middle" x="1148" y="-596.542" font-family="Helvetica,sans-Serif" font-size="10.00"> instance</text>
</g>
<!-- Node23&#45;&gt;Node27 -->
<g id="edge110" class="edge"><title>Node23&#45;&gt;Node27</title>
<path fill="none" stroke="#9a32cd" stroke-dasharray="5,2" d="M1102.77,-684.928C1121.49,-670.803 1148.48,-648.718 1168,-625.542 1193.17,-595.652 1214.49,-553.993 1223.46,-535.299"/>
<polygon fill="#9a32cd" stroke="#9a32cd" points="1100.51,-682.246 1094.55,-691.012 1104.67,-687.87 1100.51,-682.246"/>
<text text-anchor="middle" x="1148" y="-665.542" font-family="Helvetica,sans-Serif" font-size="10.00"> instance</text>
</g>
<!-- Node24&#45;&gt;Node23 -->
<g id="edge96" class="edge"><title>Node24&#45;&gt;Node23</title>
<path fill="none" stroke="#9a32cd" stroke-dasharray="5,2" d="M969.794,-783.5C990.792,-780.216 1013.53,-774.017 1032,-762.542 1052.65,-749.711 1067.5,-724.272 1074.49,-710.298"/>
<polygon fill="#9a32cd" stroke="#9a32cd" points="969.086,-780.065 959.653,-784.889 970.035,-787 969.086,-780.065"/>
<text text-anchor="middle" x="1005" y="-784.542" font-family="Helvetica,sans-Serif" font-size="10.00"> conn_pool</text>
</g>
<!-- Node25 -->
<g id="node74" class="node"><title>Node25</title>
<a xlink:href="structfr__connection__t.html" target="_top" xlink:title="fr_connection_t">
<polygon fill="none" stroke="black" points="670.5,-778.042 670.5,-797.042 753.5,-797.042 753.5,-778.042 670.5,-778.042"/>
<text text-anchor="middle" x="712" y="-785.042" font-family="Helvetica,sans-Serif" font-size="10.00">fr_connection_t</text>
</a>
</g>
<!-- Node25&#45;&gt;Node24 -->
<g id="edge100" class="edge"><title>Node25&#45;&gt;Node24</title>
<path fill="none" stroke="#9a32cd" stroke-dasharray="5,2" d="M763.842,-787.277C791.13,-787.135 824.722,-786.96 852.289,-786.817"/>
<polygon fill="#9a32cd" stroke="#9a32cd" points="763.7,-783.778 753.718,-787.33 763.736,-790.778 763.7,-783.778"/>
<text text-anchor="middle" x="803" y="-800.542" font-family="Helvetica,sans-Serif" font-size="10.00"> head</text>
<text text-anchor="middle" x="803" y="-789.542" font-family="Helvetica,sans-Serif" font-size="10.00">tail</text>
</g>
<!-- Node25&#45;&gt;Node25 -->
<g id="edge102" class="edge"><title>Node25&#45;&gt;Node25</title>
<path fill="none" stroke="#9a32cd" stroke-dasharray="5,2" d="M696.531,-807.308C697.746,-812.038 702.902,-815.542 712,-815.542 726.93,-815.542 731.245,-806.107 724.947,-797.299"/>
<polygon fill="#9a32cd" stroke="#9a32cd" points="700.003,-807.851 699.053,-797.299 693.216,-806.141 700.003,-807.851"/>
<text text-anchor="middle" x="712" y="-829.542" font-family="Helvetica,sans-Serif" font-size="10.00"> prev</text>
<text text-anchor="middle" x="712" y="-818.542" font-family="Helvetica,sans-Serif" font-size="10.00">next</text>
</g>
<!-- Node26 -->
<g id="node77" class="node"><title>Node26</title>
<a xlink:href="structrlm__rest__section__t.html" target="_top" xlink:title="rlm_rest_section_t">
<polygon fill="none" stroke="black" points="857.5,-815.042 857.5,-834.042 954.5,-834.042 954.5,-815.042 857.5,-815.042"/>
<text text-anchor="middle" x="906" y="-822.042" font-family="Helvetica,sans-Serif" font-size="10.00">rlm_rest_section_t</text>
</a>
</g>
<!-- Node26&#45;&gt;Node23 -->
<g id="edge104" class="edge"><title>Node26&#45;&gt;Node23</title>
<path fill="none" stroke="#9a32cd" stroke-dasharray="5,2" d="M964.56,-822.288C987.535,-818.845 1012.99,-811.54 1032,-796.542 1060.56,-774.015 1072.94,-729.709 1077.17,-710.178"/>
<polygon fill="#9a32cd" stroke="#9a32cd" points="964.024,-818.829 954.552,-823.576 964.917,-825.771 964.024,-818.829"/>
<text text-anchor="middle" x="1005" y="-866.542" font-family="Helvetica,sans-Serif" font-size="10.00"> accounting</text>
<text text-anchor="middle" x="1005" y="-855.542" font-family="Helvetica,sans-Serif" font-size="10.00">postauth</text>
<text text-anchor="middle" x="1005" y="-844.542" font-family="Helvetica,sans-Serif" font-size="10.00">checksimul</text>
<text text-anchor="middle" x="1005" y="-833.542" font-family="Helvetica,sans-Serif" font-size="10.00">authorize</text>
<text text-anchor="middle" x="1005" y="-822.542" font-family="Helvetica,sans-Serif" font-size="10.00">authenticate</text>
</g>
<!-- Node27&#45;&gt;Node1 -->
<g id="edge106" class="edge"><title>Node27&#45;&gt;Node1</title>
<path fill="none" stroke="#9a32cd" stroke-dasharray="5,2" d="M1282.42,-519.431C1298.95,-517.505 1317.31,-515.365 1334.25,-513.39"/>
<polygon fill="#9a32cd" stroke="#9a32cd" points="1281.93,-515.965 1272.4,-520.6 1282.74,-522.918 1281.93,-515.965"/>
<text text-anchor="middle" x="1303" y="-520.542" font-family="Helvetica,sans-Serif" font-size="10.00"> write</text>
</g>
</g>
</svg>
        <g id="navigator" transform="translate(0 0)" fill="#404254">
                <rect fill="#f2f5e9" fill-opacity="0.5" stroke="#606060" stroke-width=".5" x="0" y="0" width="60" height="60"/>
                <use id="zoomplus" xlink:href="#zoomPlus" x="17" y="9" onmousedown="handleZoom(evt,'in')"/>
                <use id="zoomminus" xlink:href="#zoomMin" x="42" y="9" onmousedown="handleZoom(evt,'out')"/>
                <use id="reset" xlink:href="#resetDef" x="30" y="36" onmousedown="handleReset()"/>
                <g id="arrowUp" xlink:href="#dirArrow" transform="translate(30 24)" onmousedown="handlePan(0,-1)">
                  <use xlink:href="#rim" fill="#404040">
                        <set attributeName="fill" to="#808080" begin="arrowUp.mouseover" end="arrowUp.mouseout"/>
                  </use>
                  <path fill="none" stroke="white" stroke-width="1.5" d="M0,-3.0v7 M-2.5,-0.5L0,-3.0L2.5,-0.5"/>
                </g>
                <g id="arrowRight" xlink:href="#dirArrow" transform="rotate(90) translate(36 -43)" onmousedown="handlePan(1,0)">
                  <use xlink:href="#rim" fill="#404040">
                        <set attributeName="fill" to="#808080" begin="arrowRight.mouseover" end="arrowRight.mouseout"/>
                  </use>
                  <path fill="none" stroke="white" stroke-width="1.5" d="M0,-3.0v7 M-2.5,-0.5L0,-3.0L2.5,-0.5"/>
                </g>
                <g id="arrowDown" xlink:href="#dirArrow" transform="rotate(180) translate(-30 -48)" onmousedown="handlePan(0,1)">
                  <use xlink:href="#rim" fill="#404040">
                        <set attributeName="fill" to="#808080" begin="arrowDown.mouseover" end="arrowDown.mouseout"/>
                  </use>
                  <path fill="none" stroke="white" stroke-width="1.5" d="M0,-3.0v7 M-2.5,-0.5L0,-3.0L2.5,-0.5"/>
                </g>
                <g id="arrowLeft" xlink:href="#dirArrow" transform="rotate(270) translate(-36 17)" onmousedown="handlePan(-1,0)">
                  <use xlink:href="#rim" fill="#404040">
                        <set attributeName="fill" to="#808080" begin="arrowLeft.mouseover" end="arrowLeft.mouseout"/>
                  </use>
                  <path fill="none" stroke="white" stroke-width="1.5" d="M0,-3.0v7 M-2.5,-0.5L0,-3.0L2.5,-0.5"/>
                </g>
        </g>
</svg>
