<?xml version="1.0" encoding="UTF-8" standalone="no"?>
<!DOCTYPE svg PUBLIC "-//W3C//DTD SVG 1.1//EN"
 "http://www.w3.org/Graphics/SVG/1.1/DTD/svg11.dtd">
<!-- Generated by graphviz version 2.28.0 (20111211.2114)
 -->
<!-- Title: G Pages: 1 -->
<!--zoomable-->
<svg id="main" version="1.1" xmlns="http://www.w3.org/2000/svg" xmlns:xlink="http://www.w3.org/1999/xlink" xml:space="preserve" onload="init(evt)">
        <defs>
                <circle id="rim" cx="0" cy="0" r="7"/>
                <circle id="rim2" cx="0" cy="0" r="3.5"/>
                <g id="zoomPlus">
                        <use xlink:href="#rim" fill="#404040">
                                <set attributeName="fill" to="#808080" begin="zoomplus.mouseover" end="zoomplus.mouseout"/>
                        </use>
                        <path d="M-4,0h8M0,-4v8" fill="none" stroke="white" stroke-width="1.5" pointer-events="none"/>
                </g>
                <g id="zoomMin">
                        <use xlink:href="#rim" fill="#404040">
                                <set attributeName="fill" to="#808080" begin="zoomminus.mouseover" end="zoomminus.mouseout"/>
                        </use>
                        <path d="M-4,0h8" fill="none" stroke="white" stroke-width="1.5" pointer-events="none"/>
                </g>
                <g id="dirArrow">
                        <path fill="none" stroke="white" stroke-width="1.5" d="M0,-3.0v7 M-2.5,-0.5L0,-3.0L2.5,-0.5"/>
                </g>
               <g id="resetDef">
                       <use xlink:href="#rim2" fill="#404040">
                               <set attributeName="fill" to="#808080" begin="reset.mouseover" end="reset.mouseout"/>
                       </use>
               </g>
        </defs>

<script type="text/javascript">
var viewWidth = 491;
var viewHeight = 454;
var sectionId = 'dynsection-0';
</script>
<script xlink:href="svgpan.js"/>
<svg id="graph" class="graph">
<g id="viewport">
<title>G</title>
<!-- Node1 -->
<g id="node1" class="node"><title>Node1</title>
<polygon fill="#bfbfbf" stroke="black" points="82,-0.5 82,-19.5 128,-19.5 128,-0.5 82,-0.5"/>
<text text-anchor="middle" x="105" y="-7.5" font-family="Helvetica,sans-Serif" font-size="10.00">_realm</text>
</g>
<!-- Node2 -->
<g id="node2" class="node"><title>Node2</title>
<a xlink:href="structhome__pool__t.html" target="_top" xlink:title="home_pool_t">
<polygon fill="none" stroke="black" points="69,-78.5 69,-97.5 141,-97.5 141,-78.5 69,-78.5"/>
<text text-anchor="middle" x="105" y="-85.5" font-family="Helvetica,sans-Serif" font-size="10.00">home_pool_t</text>
</a>
</g>
<!-- Node2&#45;&gt;Node1 -->
<g id="edge2" class="edge"><title>Node2&#45;&gt;Node1</title>
<path fill="none" stroke="#9a32cd" stroke-dasharray="5,2" d="M105,-68.2239C105,-52.6974 105,-31.3582 105,-19.6165"/>
<polygon fill="#9a32cd" stroke="#9a32cd" points="101.5,-68.2818 105,-78.2818 108.5,-68.2819 101.5,-68.2818"/>
<text text-anchor="middle" x="128" y="-52" font-family="Helvetica,sans-Serif" font-size="10.00"> auth_pool</text>
<text text-anchor="middle" x="128" y="-41" font-family="Helvetica,sans-Serif" font-size="10.00">acct_pool</text>
</g>
<!-- Node3 -->
<g id="node4" class="node"><title>Node3</title>
<a xlink:href="structhome__server.html" target="_top" xlink:title="home_server">
<polygon fill="none" stroke="black" points="200.5,-156.5 200.5,-175.5 273.5,-175.5 273.5,-156.5 200.5,-156.5"/>
<text text-anchor="middle" x="237" y="-163.5" font-family="Helvetica,sans-Serif" font-size="10.00">home_server</text>
</a>
</g>
<!-- Node3&#45;&gt;Node2 -->
<g id="edge4" class="edge"><title>Node3&#45;&gt;Node2</title>
<path fill="none" stroke="#9a32cd" stroke-dasharray="5,2" d="M213.289,-151.348C186.234,-135.771 142.801,-110.764 120.034,-97.6557"/>
<polygon fill="#9a32cd" stroke="#9a32cd" points="211.702,-154.473 222.115,-156.43 215.195,-148.407 211.702,-154.473"/>
<text text-anchor="middle" x="205.5" y="-130" font-family="Helvetica,sans-Serif" font-size="10.00"> fallback</text>
<text text-anchor="middle" x="205.5" y="-119" font-family="Helvetica,sans-Serif" font-size="10.00">servers</text>
</g>
<!-- Node4 -->
<g id="node6" class="node"><title>Node4</title>
<a xlink:href="structconf__part.html" target="_top" xlink:title="conf_part">
<polygon fill="none" stroke="black" points="55.5,-246.5 55.5,-265.5 112.5,-265.5 112.5,-246.5 55.5,-246.5"/>
<text text-anchor="middle" x="84" y="-253.5" font-family="Helvetica,sans-Serif" font-size="10.00">conf_part</text>
</a>
</g>
<!-- Node4&#45;&gt;Node2 -->
<g id="edge34" class="edge"><title>Node4&#45;&gt;Node2</title>
<path fill="none" stroke="#9a32cd" stroke-dasharray="5,2" d="M74.1609,-237.602C64.2004,-217.7 51.4023,-184.221 60,-156 67.187,-132.409 85.7614,-109.588 96.6685,-97.6282"/>
<polygon fill="#9a32cd" stroke="#9a32cd" points="71.0696,-239.243 78.8495,-246.435 77.2526,-235.961 71.0696,-239.243"/>
<text text-anchor="middle" x="67" y="-163.5" font-family="Helvetica,sans-Serif" font-size="10.00"> cs</text>
</g>
<!-- Node4&#45;&gt;Node3 -->
<g id="edge6" class="edge"><title>Node4&#45;&gt;Node3</title>
<path fill="none" stroke="#9a32cd" stroke-dasharray="5,2" d="M122.506,-243.77C134.546,-239.572 147.643,-234.273 159,-228 186.388,-212.873 214.257,-188.423 228.081,-175.552"/>
<polygon fill="#9a32cd" stroke="#9a32cd" points="121.085,-240.554 112.703,-247.034 123.297,-247.196 121.085,-240.554"/>
<text text-anchor="middle" x="214" y="-208.5" font-family="Helvetica,sans-Serif" font-size="10.00"> cs</text>
</g>
<!-- Node4&#45;&gt;Node4 -->
<g id="edge8" class="edge"><title>Node4&#45;&gt;Node4</title>
<path fill="none" stroke="#9a32cd" stroke-dasharray="5,2" d="M122.76,-262.991C127.153,-261.682 130,-259.352 130,-256 130,-250.5 122.333,-247.75 112.75,-247.75"/>
<polygon fill="#9a32cd" stroke="#9a32cd" points="122.235,-259.53 112.75,-264.25 123.109,-266.475 122.235,-259.53"/>
<text text-anchor="middle" x="150.5" y="-253.5" font-family="Helvetica,sans-Serif" font-size="10.00"> template</text>
</g>
<!-- Node5 -->
<g id="node9" class="node"><title>Node5</title>
<a xlink:href="structconf__item.html" target="_top" xlink:title="conf_item">
<polygon fill="none" stroke="black" points="83.5,-156.5 83.5,-175.5 142.5,-175.5 142.5,-156.5 83.5,-156.5"/>
<text text-anchor="middle" x="113" y="-163.5" font-family="Helvetica,sans-Serif" font-size="10.00">conf_item</text>
</a>
</g>
<!-- Node4&#45;&gt;Node5 -->
<g id="edge12" class="edge"><title>Node4&#45;&gt;Node5</title>
<path fill="none" stroke="#9a32cd" stroke-dasharray="5,2" d="M78.7272,-236.435C76.1813,-223.88 74.8489,-207.238 81,-194 84.5531,-186.353 91.4565,-180.093 97.9445,-175.532"/>
<polygon fill="#9a32cd" stroke="#9a32cd" points="75.3464,-237.345 81.1193,-246.229 82.1465,-235.684 75.3464,-237.345"/>
<text text-anchor="middle" x="96.5" y="-208.5" font-family="Helvetica,sans-Serif" font-size="10.00"> parent</text>
</g>
<!-- Node5&#45;&gt;Node4 -->
<g id="edge10" class="edge"><title>Node5&#45;&gt;Node4</title>
<path fill="none" stroke="#9a32cd" stroke-dasharray="5,2" d="M118.273,-185.565C120.819,-198.12 122.151,-214.762 116,-228 112.447,-235.647 105.544,-241.907 99.0555,-246.468"/>
<polygon fill="#9a32cd" stroke="#9a32cd" points="121.654,-184.655 115.881,-175.771 114.853,-186.316 121.654,-184.655"/>
<text text-anchor="middle" x="138" y="-219.5" font-family="Helvetica,sans-Serif" font-size="10.00"> tail</text>
<text text-anchor="middle" x="138" y="-208.5" font-family="Helvetica,sans-Serif" font-size="10.00">item</text>
<text text-anchor="middle" x="138" y="-197.5" font-family="Helvetica,sans-Serif" font-size="10.00">children</text>
</g>
<!-- Node5&#45;&gt;Node5 -->
<g id="edge14" class="edge"><title>Node5&#45;&gt;Node5</title>
<path fill="none" stroke="#9a32cd" stroke-dasharray="5,2" d="M152.812,-171.984C157.181,-170.844 160,-168.849 160,-166 160,-161.324 152.41,-158.95 142.833,-158.877"/>
<polygon fill="#9a32cd" stroke="#9a32cd" points="152.371,-168.512 142.833,-173.123 153.165,-175.467 152.371,-168.512"/>
<text text-anchor="middle" x="171" y="-163.5" font-family="Helvetica,sans-Serif" font-size="10.00"> next</text>
</g>
<!-- Node6 -->
<g id="node13" class="node"><title>Node6</title>
<a xlink:href="structCONF__PARSER.html" target="_top" xlink:title="CONF_PARSER">
<polygon fill="none" stroke="black" points="0,-346.5 0,-365.5 92,-365.5 92,-346.5 0,-346.5"/>
<text text-anchor="middle" x="46" y="-353.5" font-family="Helvetica,sans-Serif" font-size="10.00">CONF_PARSER</text>
</a>
</g>
<!-- Node6&#45;&gt;Node4 -->
<g id="edge16" class="edge"><title>Node6&#45;&gt;Node4</title>
<path fill="none" stroke="#9a32cd" stroke-dasharray="5,2" d="M46.1807,-336.157C47.0122,-321.277 49.748,-300.367 58,-284 61.5742,-276.911 67.6466,-270.447 73.0244,-265.622"/>
<polygon fill="#9a32cd" stroke="#9a32cd" points="42.6816,-336.077 45.8563,-346.185 49.6779,-336.303 42.6816,-336.077"/>
<text text-anchor="middle" x="79.5" y="-303.5" font-family="Helvetica,sans-Serif" font-size="10.00"> variables</text>
</g>
<!-- Node7 -->
<g id="node15" class="node"><title>Node7</title>
<a xlink:href="structrbtree__t.html" target="_top" xlink:title="rbtree_t">
<polygon fill="none" stroke="black" points="110,-346.5 110,-365.5 160,-365.5 160,-346.5 110,-346.5"/>
<text text-anchor="middle" x="135" y="-353.5" font-family="Helvetica,sans-Serif" font-size="10.00">rbtree_t</text>
</a>
</g>
<!-- Node7&#45;&gt;Node4 -->
<g id="edge18" class="edge"><title>Node7&#45;&gt;Node4</title>
<path fill="none" stroke="#9a32cd" stroke-dasharray="5,2" d="M126.963,-336.75C120.404,-322.235 110.671,-301.524 101,-284 97.5743,-277.792 93.3243,-271.042 89.9307,-265.844"/>
<polygon fill="#9a32cd" stroke="#9a32cd" points="123.86,-338.386 131.132,-346.091 130.253,-335.533 123.86,-338.386"/>
<text text-anchor="middle" x="150" y="-320" font-family="Helvetica,sans-Serif" font-size="10.00"> data_tree</text>
<text text-anchor="middle" x="150" y="-309" font-family="Helvetica,sans-Serif" font-size="10.00">name2_tree</text>
<text text-anchor="middle" x="150" y="-298" font-family="Helvetica,sans-Serif" font-size="10.00">section_tree</text>
<text text-anchor="middle" x="150" y="-287" font-family="Helvetica,sans-Serif" font-size="10.00">pair_tree</text>
</g>
<!-- Node8 -->
<g id="node17" class="node"><title>Node8</title>
<a xlink:href="structrbnode__t.html" target="_top" xlink:title="rbnode_t">
<polygon fill="none" stroke="black" points="108,-420.5 108,-439.5 162,-439.5 162,-420.5 108,-420.5"/>
<text text-anchor="middle" x="135" y="-427.5" font-family="Helvetica,sans-Serif" font-size="10.00">rbnode_t</text>
</a>
</g>
<!-- Node8&#45;&gt;Node7 -->
<g id="edge20" class="edge"><title>Node8&#45;&gt;Node7</title>
<path fill="none" stroke="#9a32cd" stroke-dasharray="5,2" d="M135,-410.156C135,-395.712 135,-376.459 135,-365.531"/>
<polygon fill="#9a32cd" stroke="#9a32cd" points="131.5,-410.458 135,-420.458 138.5,-410.458 131.5,-410.458"/>
<text text-anchor="middle" x="147.5" y="-387.5" font-family="Helvetica,sans-Serif" font-size="10.00"> Root</text>
</g>
<!-- Node8&#45;&gt;Node8 -->
<g id="edge22" class="edge"><title>Node8&#45;&gt;Node8</title>
<path fill="none" stroke="#9a32cd" stroke-dasharray="5,2" d="M172.51,-436.464C177.038,-435.297 180,-433.142 180,-430 180,-424.844 172.024,-422.346 162.241,-422.507"/>
<polygon fill="#9a32cd" stroke="#9a32cd" points="171.842,-433.014 162.241,-437.493 172.54,-439.979 171.842,-433.014"/>
<text text-anchor="middle" x="194.5" y="-438.5" font-family="Helvetica,sans-Serif" font-size="10.00"> Left</text>
<text text-anchor="middle" x="194.5" y="-427.5" font-family="Helvetica,sans-Serif" font-size="10.00">Right</text>
<text text-anchor="middle" x="194.5" y="-416.5" font-family="Helvetica,sans-Serif" font-size="10.00">Parent</text>
</g>
<!-- Node9 -->
<g id="node20" class="node"><title>Node9</title>
<a xlink:href="structfr__socket__limit__t.html" target="_top" xlink:title="fr_socket_limit_t">
<polygon fill="none" stroke="black" points="189.5,-246.5 189.5,-265.5 278.5,-265.5 278.5,-246.5 189.5,-246.5"/>
<text text-anchor="middle" x="234" y="-253.5" font-family="Helvetica,sans-Serif" font-size="10.00">fr_socket_limit_t</text>
</a>
</g>
<!-- Node9&#45;&gt;Node3 -->
<g id="edge24" class="edge"><title>Node9&#45;&gt;Node3</title>
<path fill="none" stroke="#9a32cd" stroke-dasharray="5,2" d="M234.639,-236.242C235.276,-217.571 236.225,-189.735 236.703,-175.724"/>
<polygon fill="#9a32cd" stroke="#9a32cd" points="231.141,-236.127 234.299,-246.241 238.137,-236.366 231.141,-236.127"/>
<text text-anchor="middle" x="248" y="-208.5" font-family="Helvetica,sans-Serif" font-size="10.00"> limit</text>
</g>
<!-- Node10 -->
<g id="node22" class="node"><title>Node10</title>
<a xlink:href="structfr__event__t.html" target="_top" xlink:title="fr_event_t">
<polygon fill="none" stroke="black" points="296,-246.5 296,-265.5 356,-265.5 356,-246.5 296,-246.5"/>
<text text-anchor="middle" x="326" y="-253.5" font-family="Helvetica,sans-Serif" font-size="10.00">fr_event_t</text>
</a>
</g>
<!-- Node10&#45;&gt;Node3 -->
<g id="edge26" class="edge"><title>Node10&#45;&gt;Node3</title>
<path fill="none" stroke="#9a32cd" stroke-dasharray="5,2" d="M309.877,-239.058C291.09,-220.483 260.726,-190.459 245.823,-175.724"/>
<polygon fill="#9a32cd" stroke="#9a32cd" points="307.569,-241.698 317.141,-246.241 312.491,-236.721 307.569,-241.698"/>
<text text-anchor="middle" x="305" y="-208.5" font-family="Helvetica,sans-Serif" font-size="10.00"> ev</text>
</g>
<!-- Node10&#45;&gt;Node10 -->
<g id="edge28" class="edge"><title>Node10&#45;&gt;Node10</title>
<path fill="none" stroke="#9a32cd" stroke-dasharray="5,2" d="M366.343,-262.761C370.408,-261.417 373,-259.164 373,-256 373,-250.672 365.649,-247.925 356.287,-247.758"/>
<polygon fill="#9a32cd" stroke="#9a32cd" points="365.67,-259.322 356.287,-264.242 366.69,-266.248 365.67,-259.322"/>
<text text-anchor="middle" x="385.5" y="-253.5" font-family="Helvetica,sans-Serif" font-size="10.00"> ev_p</text>
</g>
<!-- Node11 -->
<g id="node25" class="node"><title>Node11</title>
<a xlink:href="structfr__ipaddr__t.html" target="_top" xlink:title="fr_ipaddr_t">
<polygon fill="none" stroke="black" points="417,-246.5 417,-265.5 479,-265.5 479,-246.5 417,-246.5"/>
<text text-anchor="middle" x="448" y="-253.5" font-family="Helvetica,sans-Serif" font-size="10.00">fr_ipaddr_t</text>
</a>
</g>
<!-- Node11&#45;&gt;Node3 -->
<g id="edge30" class="edge"><title>Node11&#45;&gt;Node3</title>
<path fill="none" stroke="#9a32cd" stroke-dasharray="5,2" d="M421.766,-241.897C395.379,-228.951 353.359,-208.97 316,-194 299.048,-187.207 279.645,-180.56 264.311,-175.561"/>
<polygon fill="#9a32cd" stroke="#9a32cd" points="420.226,-245.04 430.743,-246.326 423.323,-238.762 420.226,-245.04"/>
<text text-anchor="middle" x="415" y="-214" font-family="Helvetica,sans-Serif" font-size="10.00"> ipaddr</text>
<text text-anchor="middle" x="415" y="-203" font-family="Helvetica,sans-Serif" font-size="10.00">src_ipaddr</text>
</g>
<!-- Node12 -->
<g id="node27" class="node"><title>Node12</title>
<a xlink:href="structin6__addr.html" target="_top" xlink:title="in6_addr">
<polygon fill="none" stroke="black" points="421.5,-346.5 421.5,-365.5 474.5,-365.5 474.5,-346.5 421.5,-346.5"/>
<text text-anchor="middle" x="448" y="-353.5" font-family="Helvetica,sans-Serif" font-size="10.00">in6_addr</text>
</a>
</g>
<!-- Node12&#45;&gt;Node11 -->
<g id="edge32" class="edge"><title>Node12&#45;&gt;Node11</title>
<path fill="none" stroke="#9a32cd" stroke-dasharray="5,2" d="M448,-336.22C448,-314.951 448,-281.22 448,-265.537"/>
<polygon fill="#9a32cd" stroke="#9a32cd" points="444.5,-336.303 448,-346.303 451.5,-336.303 444.5,-336.303"/>
<text text-anchor="middle" x="465.5" y="-303.5" font-family="Helvetica,sans-Serif" font-size="10.00"> ip6addr</text>
</g>
</g>
</svg>
        <g id="navigator" transform="translate(0 0)" fill="#404254">
                <rect fill="#f2f5e9" fill-opacity="0.5" stroke="#606060" stroke-width=".5" x="0" y="0" width="60" height="60"/>
                <use id="zoomplus" xlink:href="#zoomPlus" x="17" y="9" onmousedown="handleZoom(evt,'in')"/>
                <use id="zoomminus" xlink:href="#zoomMin" x="42" y="9" onmousedown="handleZoom(evt,'out')"/>
                <use id="reset" xlink:href="#resetDef" x="30" y="36" onmousedown="handleReset()"/>
                <g id="arrowUp" xlink:href="#dirArrow" transform="translate(30 24)" onmousedown="handlePan(0,-1)">
                  <use xlink:href="#rim" fill="#404040">
                        <set attributeName="fill" to="#808080" begin="arrowUp.mouseover" end="arrowUp.mouseout"/>
                  </use>
                  <path fill="none" stroke="white" stroke-width="1.5" d="M0,-3.0v7 M-2.5,-0.5L0,-3.0L2.5,-0.5"/>
                </g>
                <g id="arrowRight" xlink:href="#dirArrow" transform="rotate(90) translate(36 -43)" onmousedown="handlePan(1,0)">
                  <use xlink:href="#rim" fill="#404040">
                        <set attributeName="fill" to="#808080" begin="arrowRight.mouseover" end="arrowRight.mouseout"/>
                  </use>
                  <path fill="none" stroke="white" stroke-width="1.5" d="M0,-3.0v7 M-2.5,-0.5L0,-3.0L2.5,-0.5"/>
                </g>
                <g id="arrowDown" xlink:href="#dirArrow" transform="rotate(180) translate(-30 -48)" onmousedown="handlePan(0,1)">
                  <use xlink:href="#rim" fill="#404040">
                        <set attributeName="fill" to="#808080" begin="arrowDown.mouseover" end="arrowDown.mouseout"/>
                  </use>
                  <path fill="none" stroke="white" stroke-width="1.5" d="M0,-3.0v7 M-2.5,-0.5L0,-3.0L2.5,-0.5"/>
                </g>
                <g id="arrowLeft" xlink:href="#dirArrow" transform="rotate(270) translate(-36 17)" onmousedown="handlePan(-1,0)">
                  <use xlink:href="#rim" fill="#404040">
                        <set attributeName="fill" to="#808080" begin="arrowLeft.mouseover" end="arrowLeft.mouseout"/>
                  </use>
                  <path fill="none" stroke="white" stroke-width="1.5" d="M0,-3.0v7 M-2.5,-0.5L0,-3.0L2.5,-0.5"/>
                </g>
        </g>
</svg>
