<?xml version="1.0" encoding="UTF-8" standalone="no"?>
<!DOCTYPE svg PUBLIC "-//W3C//DTD SVG 1.1//EN"
 "http://www.w3.org/Graphics/SVG/1.1/DTD/svg11.dtd">
<!-- Generated by graphviz version 2.28.0 (20111211.2114)
 -->
<!-- Title: G Pages: 1 -->
<svg width="368pt" height="300pt"
 viewBox="0.00 0.00 368.00 300.50" xmlns="http://www.w3.org/2000/svg" xmlns:xlink="http://www.w3.org/1999/xlink">
<g id="graph1" class="graph" transform="scale(1 1) rotate(0) translate(4 296.5)">
<title>G</title>
<!-- Node1 -->
<g id="node1" class="node"><title>Node1</title>
<polygon fill="#bfbfbf" stroke="black" points="108.5,-0.5 108.5,-19.5 191.5,-19.5 191.5,-0.5 108.5,-0.5"/>
<text text-anchor="middle" x="150" y="-7.5" font-family="Helvetica,sans-Serif" font-size="10.00">virtual_server_t</text>
</g>
<!-- Node1&#45;&gt;Node1 -->
<g id="edge2" class="edge"><title>Node1&#45;&gt;Node1</title>
<path fill="none" stroke="#9a32cd" stroke-dasharray="5,2" d="M201.508,-16.5194C206.111,-15.1541 209,-12.981 209,-10 209,-5.23047 201.605,-2.52898 191.625,-1.89552"/>
<polygon fill="#9a32cd" stroke="#9a32cd" points="200.945,-13.065 191.625,-18.1045 202.053,-19.9767 200.945,-13.065"/>
<text text-anchor="middle" x="220" y="-7.5" font-family="Helvetica,sans-Serif" font-size="10.00"> next</text>
</g>
<!-- Node2 -->
<g id="node3" class="node"><title>Node2</title>
<a xlink:href="structmodcallable.html" target="_top" xlink:title="modcallable">
<polygon fill="none" stroke="black" points="0,-91.5 0,-110.5 68,-110.5 68,-91.5 0,-91.5"/>
<text text-anchor="middle" x="34" y="-98.5" font-family="Helvetica,sans-Serif" font-size="10.00">modcallable</text>
</a>
</g>
<!-- Node2&#45;&gt;Node1 -->
<g id="edge4" class="edge"><title>Node2&#45;&gt;Node1</title>
<path fill="none" stroke="#9a32cd" stroke-dasharray="5,2" d="M53.2831,-85.2052C77.6936,-66.4765 118.945,-34.827 138.741,-19.6386"/>
<polygon fill="#9a32cd" stroke="#9a32cd" points="50.9259,-82.6022 45.1226,-91.4663 55.187,-88.1559 50.9259,-82.6022"/>
<text text-anchor="middle" x="121.5" y="-52.5" font-family="Helvetica,sans-Serif" font-size="10.00"> mc</text>
</g>
<!-- Node2&#45;&gt;Node2 -->
<g id="edge6" class="edge"><title>Node2&#45;&gt;Node2</title>
<path fill="none" stroke="#9a32cd" stroke-dasharray="5,2" d="M78.1476,-108.215C82.9245,-106.83 86,-104.425 86,-101 86,-95.5195 78.1268,-92.6508 68.0085,-92.394"/>
<polygon fill="#9a32cd" stroke="#9a32cd" points="77.44,-104.779 68.0085,-109.606 78.3914,-111.714 77.44,-104.779"/>
<text text-anchor="middle" x="100" y="-104" font-family="Helvetica,sans-Serif" font-size="10.00"> next</text>
<text text-anchor="middle" x="100" y="-93" font-family="Helvetica,sans-Serif" font-size="10.00">parent</text>
</g>
<!-- Node3 -->
<g id="node6" class="node"><title>Node3</title>
<a xlink:href="structconf__part.html" target="_top" xlink:title="conf_part">
<polygon fill="none" stroke="black" points="225.5,-91.5 225.5,-110.5 282.5,-110.5 282.5,-91.5 225.5,-91.5"/>
<text text-anchor="middle" x="254" y="-98.5" font-family="Helvetica,sans-Serif" font-size="10.00">conf_part</text>
</a>
</g>
<!-- Node3&#45;&gt;Node1 -->
<g id="edge8" class="edge"><title>Node3&#45;&gt;Node1</title>
<path fill="none" stroke="#9a32cd" stroke-dasharray="5,2" d="M228.396,-86.5125C221.198,-82.2587 213.552,-77.2798 207,-72 186.685,-55.6299 166.758,-32.1228 156.717,-19.6082"/>
<polygon fill="#9a32cd" stroke="#9a32cd" points="226.733,-89.5929 237.158,-91.4811 230.186,-83.5038 226.733,-89.5929"/>
<text text-anchor="middle" x="222" y="-58" font-family="Helvetica,sans-Serif" font-size="10.00"> subcs</text>
<text text-anchor="middle" x="222" y="-47" font-family="Helvetica,sans-Serif" font-size="10.00">cs</text>
</g>
<!-- Node3&#45;&gt;Node3 -->
<g id="edge10" class="edge"><title>Node3&#45;&gt;Node3</title>
<path fill="none" stroke="#9a32cd" stroke-dasharray="5,2" d="M292.76,-108.309C297.153,-106.94 300,-104.504 300,-101 300,-95.25 292.333,-92.375 282.75,-92.375"/>
<polygon fill="#9a32cd" stroke="#9a32cd" points="292.208,-104.851 282.75,-109.625 293.121,-111.792 292.208,-104.851"/>
<text text-anchor="middle" x="320.5" y="-98.5" font-family="Helvetica,sans-Serif" font-size="10.00"> template</text>
</g>
<!-- Node4 -->
<g id="node9" class="node"><title>Node4</title>
<a xlink:href="structconf__item.html" target="_top" xlink:title="conf_item">
<polygon fill="none" stroke="black" points="261.5,-0.5 261.5,-19.5 320.5,-19.5 320.5,-0.5 261.5,-0.5"/>
<text text-anchor="middle" x="291" y="-7.5" font-family="Helvetica,sans-Serif" font-size="10.00">conf_item</text>
</a>
</g>
<!-- Node3&#45;&gt;Node4 -->
<g id="edge14" class="edge"><title>Node3&#45;&gt;Node4</title>
<path fill="none" stroke="#9a32cd" stroke-dasharray="5,2" d="M246.008,-81.6644C241.636,-68.6796 238.48,-51.2812 246,-38 250.668,-29.7546 258.971,-23.7525 267.183,-19.5319"/>
<polygon fill="#9a32cd" stroke="#9a32cd" points="242.882,-83.2858 249.758,-91.3462 249.41,-80.7571 242.882,-83.2858"/>
<text text-anchor="middle" x="261.5" y="-52.5" font-family="Helvetica,sans-Serif" font-size="10.00"> parent</text>
</g>
<!-- Node4&#45;&gt;Node3 -->
<g id="edge12" class="edge"><title>Node4&#45;&gt;Node3</title>
<path fill="none" stroke="#9a32cd" stroke-dasharray="5,2" d="M290.786,-29.9669C289.966,-42.4854 287.556,-58.9267 281,-72 277.246,-79.4852 270.794,-86.2884 265.138,-91.3142"/>
<polygon fill="#9a32cd" stroke="#9a32cd" points="294.291,-29.9058 291.166,-19.7823 287.296,-29.6451 294.291,-29.9058"/>
<text text-anchor="middle" x="307" y="-63.5" font-family="Helvetica,sans-Serif" font-size="10.00"> tail</text>
<text text-anchor="middle" x="307" y="-52.5" font-family="Helvetica,sans-Serif" font-size="10.00">item</text>
<text text-anchor="middle" x="307" y="-41.5" font-family="Helvetica,sans-Serif" font-size="10.00">children</text>
</g>
<!-- Node4&#45;&gt;Node4 -->
<g id="edge16" class="edge"><title>Node4&#45;&gt;Node4</title>
<path fill="none" stroke="#9a32cd" stroke-dasharray="5,2" d="M330.812,-16.929C335.181,-15.6089 338,-13.2992 338,-10 338,-4.58594 330.41,-1.83661 320.833,-1.75201"/>
<polygon fill="#9a32cd" stroke="#9a32cd" points="330.288,-13.4678 320.833,-18.248 331.205,-20.4075 330.288,-13.4678"/>
<text text-anchor="middle" x="349" y="-7.5" font-family="Helvetica,sans-Serif" font-size="10.00"> next</text>
</g>
<!-- Node5 -->
<g id="node13" class="node"><title>Node5</title>
<a xlink:href="structCONF__PARSER.html" target="_top" xlink:title="CONF_PARSER">
<polygon fill="none" stroke="black" points="214,-192.5 214,-211.5 306,-211.5 306,-192.5 214,-192.5"/>
<text text-anchor="middle" x="260" y="-199.5" font-family="Helvetica,sans-Serif" font-size="10.00">CONF_PARSER</text>
</a>
</g>
<!-- Node5&#45;&gt;Node3 -->
<g id="edge18" class="edge"><title>Node5&#45;&gt;Node3</title>
<path fill="none" stroke="#9a32cd" stroke-dasharray="5,2" d="M258.85,-182.029C257.548,-160.543 255.483,-126.467 254.523,-110.625"/>
<polygon fill="#9a32cd" stroke="#9a32cd" points="255.369,-182.444 259.468,-192.214 262.356,-182.021 255.369,-182.444"/>
<text text-anchor="middle" x="279.5" y="-149.5" font-family="Helvetica,sans-Serif" font-size="10.00"> variables</text>
</g>
<!-- Node6 -->
<g id="node15" class="node"><title>Node6</title>
<a xlink:href="structrbtree__t.html" target="_top" xlink:title="rbtree_t">
<polygon fill="none" stroke="black" points="135,-192.5 135,-211.5 185,-211.5 185,-192.5 135,-192.5"/>
<text text-anchor="middle" x="160" y="-199.5" font-family="Helvetica,sans-Serif" font-size="10.00">rbtree_t</text>
</a>
</g>
<!-- Node6&#45;&gt;Node1 -->
<g id="edge26" class="edge"><title>Node6&#45;&gt;Node1</title>
<path fill="none" stroke="#9a32cd" stroke-dasharray="5,2" d="M159.016,-182.304C156.899,-142.085 151.982,-48.6544 150.458,-19.7085"/>
<polygon fill="#9a32cd" stroke="#9a32cd" points="155.523,-182.54 159.544,-192.342 162.514,-182.172 155.523,-182.54"/>
<text text-anchor="middle" x="184.5" y="-98.5" font-family="Helvetica,sans-Serif" font-size="10.00"> components</text>
</g>
<!-- Node6&#45;&gt;Node3 -->
<g id="edge20" class="edge"><title>Node6&#45;&gt;Node3</title>
<path fill="none" stroke="#9a32cd" stroke-dasharray="5,2" d="M165.788,-182.907C171.574,-167.243 181.809,-144.833 197,-130 205.756,-121.45 217.635,-115.05 228.283,-110.544"/>
<polygon fill="#9a32cd" stroke="#9a32cd" points="162.432,-181.902 162.487,-192.497 169.051,-184.18 162.432,-181.902"/>
<text text-anchor="middle" x="224" y="-166" font-family="Helvetica,sans-Serif" font-size="10.00"> data_tree</text>
<text text-anchor="middle" x="224" y="-155" font-family="Helvetica,sans-Serif" font-size="10.00">name2_tree</text>
<text text-anchor="middle" x="224" y="-144" font-family="Helvetica,sans-Serif" font-size="10.00">section_tree</text>
<text text-anchor="middle" x="224" y="-133" font-family="Helvetica,sans-Serif" font-size="10.00">pair_tree</text>
</g>
<!-- Node7 -->
<g id="node17" class="node"><title>Node7</title>
<a xlink:href="structrbnode__t.html" target="_top" xlink:title="rbnode_t">
<polygon fill="none" stroke="black" points="133,-266.5 133,-285.5 187,-285.5 187,-266.5 133,-266.5"/>
<text text-anchor="middle" x="160" y="-273.5" font-family="Helvetica,sans-Serif" font-size="10.00">rbnode_t</text>
</a>
</g>
<!-- Node7&#45;&gt;Node6 -->
<g id="edge22" class="edge"><title>Node7&#45;&gt;Node6</title>
<path fill="none" stroke="#9a32cd" stroke-dasharray="5,2" d="M160,-256.156C160,-241.712 160,-222.459 160,-211.531"/>
<polygon fill="#9a32cd" stroke="#9a32cd" points="156.5,-256.458 160,-266.458 163.5,-256.458 156.5,-256.458"/>
<text text-anchor="middle" x="172.5" y="-233.5" font-family="Helvetica,sans-Serif" font-size="10.00"> Root</text>
</g>
<!-- Node7&#45;&gt;Node7 -->
<g id="edge24" class="edge"><title>Node7&#45;&gt;Node7</title>
<path fill="none" stroke="#9a32cd" stroke-dasharray="5,2" d="M197.51,-282.464C202.038,-281.297 205,-279.142 205,-276 205,-270.844 197.024,-268.346 187.241,-268.507"/>
<polygon fill="#9a32cd" stroke="#9a32cd" points="196.842,-279.014 187.241,-283.493 197.54,-285.979 196.842,-279.014"/>
<text text-anchor="middle" x="219.5" y="-284.5" font-family="Helvetica,sans-Serif" font-size="10.00"> Left</text>
<text text-anchor="middle" x="219.5" y="-273.5" font-family="Helvetica,sans-Serif" font-size="10.00">Right</text>
<text text-anchor="middle" x="219.5" y="-262.5" font-family="Helvetica,sans-Serif" font-size="10.00">Parent</text>
</g>
</g>
</svg>
