<?xml version="1.0" encoding="UTF-8" standalone="no"?>
<!DOCTYPE svg PUBLIC "-//W3C//DTD SVG 1.1//EN"
 "http://www.w3.org/Graphics/SVG/1.1/DTD/svg11.dtd">
<!-- Generated by graphviz version 2.28.0 (20111211.2114)
 -->
<!-- Title: G Pages: 1 -->
<svg width="334pt" height="208pt"
 viewBox="0.00 0.00 334.00 208.50" xmlns="http://www.w3.org/2000/svg" xmlns:xlink="http://www.w3.org/1999/xlink">
<g id="graph1" class="graph" transform="scale(1 1) rotate(0) translate(4 204.5)">
<title>G</title>
<!-- Node1 -->
<g id="node1" class="node"><title>Node1</title>
<polygon fill="#bfbfbf" stroke="black" points="-0.5,-100.5 -0.5,-119.5 58.5,-119.5 58.5,-100.5 -0.5,-100.5"/>
<text text-anchor="middle" x="29" y="-107.5" font-family="Helvetica,sans-Serif" font-size="10.00">conf_item</text>
</g>
<!-- Node1&#45;&gt;Node1 -->
<g id="edge16" class="edge"><title>Node1&#45;&gt;Node1</title>
<path fill="none" stroke="#9a32cd" stroke-dasharray="5,2" d="M68.8122,-115.354C73.1814,-114.334 76,-112.549 76,-110 76,-105.816 68.4095,-103.692 58.8325,-103.627"/>
<polygon fill="#9a32cd" stroke="#9a32cd" points="68.4252,-111.875 58.8325,-116.373 69.1364,-118.839 68.4252,-111.875"/>
<text text-anchor="middle" x="87" y="-107.5" font-family="Helvetica,sans-Serif" font-size="10.00"> next</text>
</g>
<!-- Node2 -->
<g id="node2" class="node"><title>Node2</title>
<a xlink:href="structconf__part.html" target="_top" xlink:title="conf_part">
<polygon fill="none" stroke="black" points="104.5,-0.5 104.5,-19.5 161.5,-19.5 161.5,-0.5 104.5,-0.5"/>
<text text-anchor="middle" x="133" y="-7.5" font-family="Helvetica,sans-Serif" font-size="10.00">conf_part</text>
</a>
</g>
<!-- Node1&#45;&gt;Node2 -->
<g id="edge6" class="edge"><title>Node1&#45;&gt;Node2</title>
<path fill="none" stroke="#9a32cd" stroke-dasharray="5,2" d="M25.1882,-90.305C23.1223,-74.5715 23.0427,-52.3957 35,-38 51.6886,-17.9082 81.8354,-12.0234 104.302,-10.6339"/>
<polygon fill="#9a32cd" stroke="#9a32cd" points="21.7803,-91.1437 26.8998,-100.419 28.6821,-89.9756 21.7803,-91.1437"/>
<text text-anchor="middle" x="52" y="-68.5" font-family="Helvetica,sans-Serif" font-size="10.00"> tail</text>
<text text-anchor="middle" x="52" y="-57.5" font-family="Helvetica,sans-Serif" font-size="10.00">item</text>
<text text-anchor="middle" x="52" y="-46.5" font-family="Helvetica,sans-Serif" font-size="10.00">children</text>
</g>
<!-- Node2&#45;&gt;Node1 -->
<g id="edge2" class="edge"><title>Node2&#45;&gt;Node1</title>
<path fill="none" stroke="#9a32cd" stroke-dasharray="5,2" d="M117.033,-27.0093C113.647,-30.5612 110.147,-34.355 107,-38 90.8494,-56.7062 91.3888,-65.4889 73,-82 64.9975,-89.1853 54.8294,-95.567 46.2843,-100.32"/>
<polygon fill="#9a32cd" stroke="#9a32cd" points="119.613,-29.3772 124.083,-19.7714 114.598,-24.4932 119.613,-29.3772"/>
<text text-anchor="middle" x="122.5" y="-57.5" font-family="Helvetica,sans-Serif" font-size="10.00"> parent</text>
</g>
<!-- Node2&#45;&gt;Node2 -->
<g id="edge4" class="edge"><title>Node2&#45;&gt;Node2</title>
<path fill="none" stroke="#9a32cd" stroke-dasharray="5,2" d="M171.76,-17.9445C176.153,-16.4568 179,-13.8086 179,-10 179,-3.75 171.333,-0.625 161.75,-0.625"/>
<polygon fill="#9a32cd" stroke="#9a32cd" points="171.154,-14.4955 161.75,-19.375 172.145,-21.4251 171.154,-14.4955"/>
<text text-anchor="middle" x="199.5" y="-7.5" font-family="Helvetica,sans-Serif" font-size="10.00"> template</text>
</g>
<!-- Node3 -->
<g id="node6" class="node"><title>Node3</title>
<a xlink:href="structCONF__PARSER.html" target="_top" xlink:title="CONF_PARSER">
<polygon fill="none" stroke="black" points="117,-100.5 117,-119.5 209,-119.5 209,-100.5 117,-100.5"/>
<text text-anchor="middle" x="163" y="-107.5" font-family="Helvetica,sans-Serif" font-size="10.00">CONF_PARSER</text>
</a>
</g>
<!-- Node3&#45;&gt;Node2 -->
<g id="edge8" class="edge"><title>Node3&#45;&gt;Node2</title>
<path fill="none" stroke="#9a32cd" stroke-dasharray="5,2" d="M157.341,-90.5136C150.835,-69.2626 140.436,-35.2919 135.613,-19.5374"/>
<polygon fill="#9a32cd" stroke="#9a32cd" points="154.064,-91.7657 160.338,-100.303 160.757,-89.7166 154.064,-91.7657"/>
<text text-anchor="middle" x="176.5" y="-57.5" font-family="Helvetica,sans-Serif" font-size="10.00"> variables</text>
</g>
<!-- Node4 -->
<g id="node8" class="node"><title>Node4</title>
<a xlink:href="structrbtree__t.html" target="_top" xlink:title="rbtree_t">
<polygon fill="none" stroke="black" points="227,-100.5 227,-119.5 277,-119.5 277,-100.5 227,-100.5"/>
<text text-anchor="middle" x="252" y="-107.5" font-family="Helvetica,sans-Serif" font-size="10.00">rbtree_t</text>
</a>
</g>
<!-- Node4&#45;&gt;Node2 -->
<g id="edge10" class="edge"><title>Node4&#45;&gt;Node2</title>
<path fill="none" stroke="#9a32cd" stroke-dasharray="5,2" d="M243.249,-91.0594C234.692,-75.1761 220.294,-52.3489 202,-38 190.259,-28.791 174.991,-22.384 161.803,-18.1304"/>
<polygon fill="#9a32cd" stroke="#9a32cd" points="240.331,-93.0375 248.011,-100.335 246.558,-89.8406 240.331,-93.0375"/>
<text text-anchor="middle" x="264" y="-74" font-family="Helvetica,sans-Serif" font-size="10.00"> data_tree</text>
<text text-anchor="middle" x="264" y="-63" font-family="Helvetica,sans-Serif" font-size="10.00">name2_tree</text>
<text text-anchor="middle" x="264" y="-52" font-family="Helvetica,sans-Serif" font-size="10.00">section_tree</text>
<text text-anchor="middle" x="264" y="-41" font-family="Helvetica,sans-Serif" font-size="10.00">pair_tree</text>
</g>
<!-- Node5 -->
<g id="node10" class="node"><title>Node5</title>
<a xlink:href="structrbnode__t.html" target="_top" xlink:title="rbnode_t">
<polygon fill="none" stroke="black" points="225,-174.5 225,-193.5 279,-193.5 279,-174.5 225,-174.5"/>
<text text-anchor="middle" x="252" y="-181.5" font-family="Helvetica,sans-Serif" font-size="10.00">rbnode_t</text>
</a>
</g>
<!-- Node5&#45;&gt;Node4 -->
<g id="edge12" class="edge"><title>Node5&#45;&gt;Node4</title>
<path fill="none" stroke="#9a32cd" stroke-dasharray="5,2" d="M252,-164.156C252,-149.712 252,-130.459 252,-119.531"/>
<polygon fill="#9a32cd" stroke="#9a32cd" points="248.5,-164.458 252,-174.458 255.5,-164.458 248.5,-164.458"/>
<text text-anchor="middle" x="264.5" y="-141.5" font-family="Helvetica,sans-Serif" font-size="10.00"> Root</text>
</g>
<!-- Node5&#45;&gt;Node5 -->
<g id="edge14" class="edge"><title>Node5&#45;&gt;Node5</title>
<path fill="none" stroke="#9a32cd" stroke-dasharray="5,2" d="M289.51,-190.464C294.038,-189.297 297,-187.142 297,-184 297,-178.844 289.024,-176.346 279.241,-176.507"/>
<polygon fill="#9a32cd" stroke="#9a32cd" points="288.842,-187.014 279.241,-191.493 289.54,-193.979 288.842,-187.014"/>
<text text-anchor="middle" x="311.5" y="-192.5" font-family="Helvetica,sans-Serif" font-size="10.00"> Left</text>
<text text-anchor="middle" x="311.5" y="-181.5" font-family="Helvetica,sans-Serif" font-size="10.00">Right</text>
<text text-anchor="middle" x="311.5" y="-170.5" font-family="Helvetica,sans-Serif" font-size="10.00">Parent</text>
</g>
</g>
</svg>
