<?xml version="1.0" encoding="UTF-8" standalone="no"?>
<!DOCTYPE svg PUBLIC "-//W3C//DTD SVG 1.1//EN"
 "http://www.w3.org/Graphics/SVG/1.1/DTD/svg11.dtd">
<!-- Generated by graphviz version 2.28.0 (20111211.2114)
 -->
<!-- Title: G Pages: 1 -->
<svg width="485pt" height="444pt"
 viewBox="0.00 0.00 485.00 444.50" xmlns="http://www.w3.org/2000/svg" xmlns:xlink="http://www.w3.org/1999/xlink">
<g id="graph1" class="graph" transform="scale(1 1) rotate(0) translate(4 440.5)">
<title>G</title>
<!-- Node1 -->
<g id="node1" class="node"><title>Node1</title>
<polygon fill="#bfbfbf" stroke="black" points="237.5,-0.5 237.5,-19.5 290.5,-19.5 290.5,-0.5 237.5,-0.5"/>
<text text-anchor="middle" x="264" y="-7.5" font-family="Helvetica,sans-Serif" font-size="10.00">radclient</text>
</g>
<!-- Node2 -->
<g id="node2" class="node"><title>Node2</title>
<a xlink:href="structhome__pool__t.html" target="_top" xlink:title="home_pool_t">
<polygon fill="none" stroke="black" points="156,-68.5 156,-87.5 228,-87.5 228,-68.5 156,-68.5"/>
<text text-anchor="middle" x="192" y="-75.5" font-family="Helvetica,sans-Serif" font-size="10.00">home_pool_t</text>
</a>
</g>
<!-- Node2&#45;&gt;Node1 -->
<g id="edge2" class="edge"><title>Node2&#45;&gt;Node1</title>
<path fill="none" stroke="#9a32cd" stroke-dasharray="5,2" d="M196.093,-58.1298C198.366,-51.1492 201.82,-43.5848 207,-38 215.116,-29.2491 226.655,-23.0553 237.229,-18.8276"/>
<polygon fill="#9a32cd" stroke="#9a32cd" points="192.59,-57.6878 193.416,-68.2504 199.357,-59.4779 192.59,-57.6878"/>
<text text-anchor="middle" x="228.5" y="-41.5" font-family="Helvetica,sans-Serif" font-size="10.00"> coa_pool</text>
</g>
<!-- Node3 -->
<g id="node4" class="node"><title>Node3</title>
<a xlink:href="structhome__server.html" target="_top" xlink:title="home_server">
<polygon fill="none" stroke="black" points="227.5,-146.5 227.5,-165.5 300.5,-165.5 300.5,-146.5 227.5,-146.5"/>
<text text-anchor="middle" x="264" y="-153.5" font-family="Helvetica,sans-Serif" font-size="10.00">home_server</text>
</a>
</g>
<!-- Node3&#45;&gt;Node1 -->
<g id="edge36" class="edge"><title>Node3&#45;&gt;Node1</title>
<path fill="none" stroke="#9a32cd" stroke-dasharray="5,2" d="M264,-136.38C264,-104.966 264,-42.6284 264,-19.7137"/>
<polygon fill="#9a32cd" stroke="#9a32cd" points="260.5,-136.423 264,-146.423 267.5,-136.423 260.5,-136.423"/>
<text text-anchor="middle" x="290" y="-75.5" font-family="Helvetica,sans-Serif" font-size="10.00"> coa_server</text>
</g>
<!-- Node3&#45;&gt;Node2 -->
<g id="edge4" class="edge"><title>Node3&#45;&gt;Node2</title>
<path fill="none" stroke="#9a32cd" stroke-dasharray="5,2" d="M231.185,-141.873C224.565,-138.124 218.087,-133.522 213,-128 202.214,-116.292 196.442,-98.1969 193.815,-87.583"/>
<polygon fill="#9a32cd" stroke="#9a32cd" points="229.684,-145.036 240.183,-146.461 232.864,-138.8 229.684,-145.036"/>
<text text-anchor="middle" x="231.5" y="-120" font-family="Helvetica,sans-Serif" font-size="10.00"> fallback</text>
<text text-anchor="middle" x="231.5" y="-109" font-family="Helvetica,sans-Serif" font-size="10.00">servers</text>
</g>
<!-- Node4 -->
<g id="node6" class="node"><title>Node4</title>
<a xlink:href="structconf__part.html" target="_top" xlink:title="conf_part">
<polygon fill="none" stroke="black" points="48.5,-236.5 48.5,-255.5 105.5,-255.5 105.5,-236.5 48.5,-236.5"/>
<text text-anchor="middle" x="77" y="-243.5" font-family="Helvetica,sans-Serif" font-size="10.00">conf_part</text>
</a>
</g>
<!-- Node4&#45;&gt;Node1 -->
<g id="edge40" class="edge"><title>Node4&#45;&gt;Node1</title>
<path fill="none" stroke="#9a32cd" stroke-dasharray="5,2" d="M71.4865,-226.236C70.871,-223.495 70.343,-220.69 70,-218 63.647,-168.181 55.2918,-146.493 85,-106 122.877,-54.3731 197.37,-28.1372 237.271,-17.2833"/>
<polygon fill="#9a32cd" stroke="#9a32cd" points="68.1559,-227.333 74.0881,-236.111 74.9249,-225.55 68.1559,-227.333"/>
<text text-anchor="middle" x="92" y="-114.5" font-family="Helvetica,sans-Serif" font-size="10.00"> cs</text>
</g>
<!-- Node4&#45;&gt;Node2 -->
<g id="edge34" class="edge"><title>Node4&#45;&gt;Node2</title>
<path fill="none" stroke="#9a32cd" stroke-dasharray="5,2" d="M74.3019,-226.327C72.2298,-205.207 71.8789,-170.566 87,-146 105.249,-116.351 142.074,-97.4951 166.892,-87.5832"/>
<polygon fill="#9a32cd" stroke="#9a32cd" points="70.8287,-226.76 75.5061,-236.267 77.7779,-225.918 70.8287,-226.76"/>
<text text-anchor="middle" x="94" y="-153.5" font-family="Helvetica,sans-Serif" font-size="10.00"> cs</text>
</g>
<!-- Node4&#45;&gt;Node3 -->
<g id="edge6" class="edge"><title>Node4&#45;&gt;Node3</title>
<path fill="none" stroke="#9a32cd" stroke-dasharray="5,2" d="M116.024,-240.808C138.221,-237.162 165.91,-230.414 188,-218 206.63,-207.53 205.361,-197.41 222,-184 230.504,-177.146 240.811,-170.498 249.087,-165.514"/>
<polygon fill="#9a32cd" stroke="#9a32cd" points="115.308,-237.376 105.935,-242.317 116.343,-244.299 115.308,-237.376"/>
<text text-anchor="middle" x="229" y="-198.5" font-family="Helvetica,sans-Serif" font-size="10.00"> cs</text>
</g>
<!-- Node4&#45;&gt;Node4 -->
<g id="edge8" class="edge"><title>Node4&#45;&gt;Node4</title>
<path fill="none" stroke="#9a32cd" stroke-dasharray="5,2" d="M115.76,-252.991C120.153,-251.682 123,-249.352 123,-246 123,-240.5 115.333,-237.75 105.75,-237.75"/>
<polygon fill="#9a32cd" stroke="#9a32cd" points="115.235,-249.53 105.75,-254.25 116.109,-256.475 115.235,-249.53"/>
<text text-anchor="middle" x="143.5" y="-243.5" font-family="Helvetica,sans-Serif" font-size="10.00"> template</text>
</g>
<!-- Node5 -->
<g id="node9" class="node"><title>Node5</title>
<a xlink:href="structconf__item.html" target="_top" xlink:title="conf_item">
<polygon fill="none" stroke="black" points="110.5,-146.5 110.5,-165.5 169.5,-165.5 169.5,-146.5 110.5,-146.5"/>
<text text-anchor="middle" x="140" y="-153.5" font-family="Helvetica,sans-Serif" font-size="10.00">conf_item</text>
</a>
</g>
<!-- Node4&#45;&gt;Node5 -->
<g id="edge12" class="edge"><title>Node4&#45;&gt;Node5</title>
<path fill="none" stroke="#9a32cd" stroke-dasharray="5,2" d="M85.3107,-226.706C92.4181,-211.454 102.365,-191.111 108,-184 113.507,-177.049 121.033,-170.592 127.403,-165.735"/>
<polygon fill="#9a32cd" stroke="#9a32cd" points="81.9305,-225.68 80.9319,-236.227 88.2902,-228.604 81.9305,-225.68"/>
<text text-anchor="middle" x="123.5" y="-198.5" font-family="Helvetica,sans-Serif" font-size="10.00"> parent</text>
</g>
<!-- Node5&#45;&gt;Node4 -->
<g id="edge10" class="edge"><title>Node5&#45;&gt;Node4</title>
<path fill="none" stroke="#9a32cd" stroke-dasharray="5,2" d="M146.343,-175.459C149.586,-188.435 151.311,-205.62 143,-218 134.65,-230.437 119.449,-237.149 105.738,-240.77"/>
<polygon fill="#9a32cd" stroke="#9a32cd" points="149.659,-174.331 143.449,-165.747 142.951,-176.33 149.659,-174.331"/>
<text text-anchor="middle" x="167" y="-209.5" font-family="Helvetica,sans-Serif" font-size="10.00"> tail</text>
<text text-anchor="middle" x="167" y="-198.5" font-family="Helvetica,sans-Serif" font-size="10.00">item</text>
<text text-anchor="middle" x="167" y="-187.5" font-family="Helvetica,sans-Serif" font-size="10.00">children</text>
</g>
<!-- Node5&#45;&gt;Node5 -->
<g id="edge14" class="edge"><title>Node5&#45;&gt;Node5</title>
<path fill="none" stroke="#9a32cd" stroke-dasharray="5,2" d="M179.812,-161.984C184.181,-160.844 187,-158.849 187,-156 187,-151.324 179.41,-148.95 169.833,-148.877"/>
<polygon fill="#9a32cd" stroke="#9a32cd" points="179.371,-158.512 169.833,-163.123 180.165,-165.467 179.371,-158.512"/>
<text text-anchor="middle" x="198" y="-153.5" font-family="Helvetica,sans-Serif" font-size="10.00"> next</text>
</g>
<!-- Node6 -->
<g id="node13" class="node"><title>Node6</title>
<a xlink:href="structCONF__PARSER.html" target="_top" xlink:title="CONF_PARSER">
<polygon fill="none" stroke="black" points="70,-336.5 70,-355.5 162,-355.5 162,-336.5 70,-336.5"/>
<text text-anchor="middle" x="116" y="-343.5" font-family="Helvetica,sans-Serif" font-size="10.00">CONF_PARSER</text>
</a>
</g>
<!-- Node6&#45;&gt;Node4 -->
<g id="edge16" class="edge"><title>Node6&#45;&gt;Node4</title>
<path fill="none" stroke="#9a32cd" stroke-dasharray="5,2" d="M110.224,-326.348C105.55,-311.867 98.528,-291.394 91,-274 88.3155,-267.797 84.8155,-261.047 81.9867,-255.848"/>
<polygon fill="#9a32cd" stroke="#9a32cd" points="106.956,-327.625 113.309,-336.104 113.63,-325.514 106.956,-327.625"/>
<text text-anchor="middle" x="129.5" y="-293.5" font-family="Helvetica,sans-Serif" font-size="10.00"> variables</text>
</g>
<!-- Node7 -->
<g id="node15" class="node"><title>Node7</title>
<a xlink:href="structrbtree__t.html" target="_top" xlink:title="rbtree_t">
<polygon fill="none" stroke="black" points="2,-336.5 2,-355.5 52,-355.5 52,-336.5 2,-336.5"/>
<text text-anchor="middle" x="27" y="-343.5" font-family="Helvetica,sans-Serif" font-size="10.00">rbtree_t</text>
</a>
</g>
<!-- Node7&#45;&gt;Node4 -->
<g id="edge18" class="edge"><title>Node7&#45;&gt;Node4</title>
<path fill="none" stroke="#9a32cd" stroke-dasharray="5,2" d="M24.1792,-326.142C22.8879,-310.943 23.3796,-289.609 33,-274 37.9847,-265.913 46.3852,-259.893 54.5181,-255.616"/>
<polygon fill="#9a32cd" stroke="#9a32cd" points="20.739,-326.853 25.3925,-336.371 27.6902,-326.028 20.739,-326.853"/>
<text text-anchor="middle" x="60" y="-310" font-family="Helvetica,sans-Serif" font-size="10.00"> data_tree</text>
<text text-anchor="middle" x="60" y="-299" font-family="Helvetica,sans-Serif" font-size="10.00">name2_tree</text>
<text text-anchor="middle" x="60" y="-288" font-family="Helvetica,sans-Serif" font-size="10.00">section_tree</text>
<text text-anchor="middle" x="60" y="-277" font-family="Helvetica,sans-Serif" font-size="10.00">pair_tree</text>
</g>
<!-- Node8 -->
<g id="node17" class="node"><title>Node8</title>
<a xlink:href="structrbnode__t.html" target="_top" xlink:title="rbnode_t">
<polygon fill="none" stroke="black" points="0,-410.5 0,-429.5 54,-429.5 54,-410.5 0,-410.5"/>
<text text-anchor="middle" x="27" y="-417.5" font-family="Helvetica,sans-Serif" font-size="10.00">rbnode_t</text>
</a>
</g>
<!-- Node8&#45;&gt;Node7 -->
<g id="edge20" class="edge"><title>Node8&#45;&gt;Node7</title>
<path fill="none" stroke="#9a32cd" stroke-dasharray="5,2" d="M27,-400.156C27,-385.712 27,-366.459 27,-355.531"/>
<polygon fill="#9a32cd" stroke="#9a32cd" points="23.5001,-400.458 27,-410.458 30.5001,-400.458 23.5001,-400.458"/>
<text text-anchor="middle" x="39.5" y="-377.5" font-family="Helvetica,sans-Serif" font-size="10.00"> Root</text>
</g>
<!-- Node8&#45;&gt;Node8 -->
<g id="edge22" class="edge"><title>Node8&#45;&gt;Node8</title>
<path fill="none" stroke="#9a32cd" stroke-dasharray="5,2" d="M64.5105,-426.464C69.0382,-425.297 72,-423.142 72,-420 72,-414.844 64.0239,-412.346 54.2408,-412.507"/>
<polygon fill="#9a32cd" stroke="#9a32cd" points="63.8423,-423.014 54.2408,-427.493 64.5397,-429.979 63.8423,-423.014"/>
<text text-anchor="middle" x="86.5" y="-428.5" font-family="Helvetica,sans-Serif" font-size="10.00"> Left</text>
<text text-anchor="middle" x="86.5" y="-417.5" font-family="Helvetica,sans-Serif" font-size="10.00">Right</text>
<text text-anchor="middle" x="86.5" y="-406.5" font-family="Helvetica,sans-Serif" font-size="10.00">Parent</text>
</g>
<!-- Node9 -->
<g id="node20" class="node"><title>Node9</title>
<a xlink:href="structfr__socket__limit__t.html" target="_top" xlink:title="fr_socket_limit_t">
<polygon fill="none" stroke="black" points="304.5,-236.5 304.5,-255.5 393.5,-255.5 393.5,-236.5 304.5,-236.5"/>
<text text-anchor="middle" x="349" y="-243.5" font-family="Helvetica,sans-Serif" font-size="10.00">fr_socket_limit_t</text>
</a>
</g>
<!-- Node9&#45;&gt;Node1 -->
<g id="edge38" class="edge"><title>Node9&#45;&gt;Node1</title>
<path fill="none" stroke="#9a32cd" stroke-dasharray="5,2" d="M349.55,-226.102C349.765,-192.433 346.716,-120.663 320,-68 309.582,-47.463 289.128,-29.5931 276.035,-19.5666"/>
<polygon fill="#9a32cd" stroke="#9a32cd" points="346.046,-226.269 349.371,-236.329 353.045,-226.391 346.046,-226.269"/>
<text text-anchor="middle" x="351" y="-114.5" font-family="Helvetica,sans-Serif" font-size="10.00"> limit</text>
</g>
<!-- Node9&#45;&gt;Node3 -->
<g id="edge24" class="edge"><title>Node9&#45;&gt;Node3</title>
<path fill="none" stroke="#9a32cd" stroke-dasharray="5,2" d="M324.503,-230.961C318.782,-227.13 312.927,-222.721 308,-218 291.03,-201.737 276.171,-178.187 268.844,-165.637"/>
<polygon fill="#9a32cd" stroke="#9a32cd" points="322.905,-234.091 333.23,-236.465 326.639,-228.17 322.905,-234.091"/>
<text text-anchor="middle" x="319" y="-198.5" font-family="Helvetica,sans-Serif" font-size="10.00"> limit</text>
</g>
<!-- Node10 -->
<g id="node22" class="node"><title>Node10</title>
<a xlink:href="structfr__event__t.html" target="_top" xlink:title="fr_event_t">
<polygon fill="none" stroke="black" points="183,-236.5 183,-255.5 243,-255.5 243,-236.5 183,-236.5"/>
<text text-anchor="middle" x="213" y="-243.5" font-family="Helvetica,sans-Serif" font-size="10.00">fr_event_t</text>
</a>
</g>
<!-- Node10&#45;&gt;Node3 -->
<g id="edge26" class="edge"><title>Node10&#45;&gt;Node3</title>
<path fill="none" stroke="#9a32cd" stroke-dasharray="5,2" d="M230.783,-229.347C234.132,-225.841 237.395,-221.975 240,-218 251.103,-201.057 258.369,-178.184 261.766,-165.819"/>
<polygon fill="#9a32cd" stroke="#9a32cd" points="228.295,-226.884 223.539,-236.351 233.161,-231.917 228.295,-226.884"/>
<text text-anchor="middle" x="263" y="-198.5" font-family="Helvetica,sans-Serif" font-size="10.00"> ev</text>
</g>
<!-- Node10&#45;&gt;Node10 -->
<g id="edge28" class="edge"><title>Node10&#45;&gt;Node10</title>
<path fill="none" stroke="#9a32cd" stroke-dasharray="5,2" d="M253.343,-252.761C257.408,-251.417 260,-249.164 260,-246 260,-240.672 252.649,-237.925 243.287,-237.758"/>
<polygon fill="#9a32cd" stroke="#9a32cd" points="252.67,-249.322 243.287,-254.242 253.69,-256.248 252.67,-249.322"/>
<text text-anchor="middle" x="272.5" y="-243.5" font-family="Helvetica,sans-Serif" font-size="10.00"> ev_p</text>
</g>
<!-- Node11 -->
<g id="node25" class="node"><title>Node11</title>
<a xlink:href="structfr__ipaddr__t.html" target="_top" xlink:title="fr_ipaddr_t">
<polygon fill="none" stroke="black" points="411,-236.5 411,-255.5 473,-255.5 473,-236.5 411,-236.5"/>
<text text-anchor="middle" x="442" y="-243.5" font-family="Helvetica,sans-Serif" font-size="10.00">fr_ipaddr_t</text>
</a>
</g>
<!-- Node11&#45;&gt;Node1 -->
<g id="edge42" class="edge"><title>Node11&#45;&gt;Node1</title>
<path fill="none" stroke="#9a32cd" stroke-dasharray="5,2" d="M439.024,-226.275C436.591,-213.86 432.475,-197.442 426,-184 390.857,-111.045 378.918,-90.1878 317,-38 307.92,-30.3466 296.302,-24.1207 286.259,-19.5843"/>
<polygon fill="#9a32cd" stroke="#9a32cd" points="435.618,-227.114 440.805,-236.352 442.511,-225.895 435.618,-227.114"/>
<text text-anchor="middle" x="413" y="-114.5" font-family="Helvetica,sans-Serif" font-size="10.00"> ipaddr</text>
</g>
<!-- Node11&#45;&gt;Node3 -->
<g id="edge30" class="edge"><title>Node11&#45;&gt;Node3</title>
<path fill="none" stroke="#9a32cd" stroke-dasharray="5,2" d="M409.624,-232.536C399.876,-228.352 389.303,-223.371 380,-218 357.983,-205.288 356.282,-196.24 334,-184 320.414,-176.537 304.334,-170.178 291.013,-165.51"/>
<polygon fill="#9a32cd" stroke="#9a32cd" points="408.44,-235.834 419.018,-236.438 411.125,-229.37 408.44,-235.834"/>
<text text-anchor="middle" x="403" y="-204" font-family="Helvetica,sans-Serif" font-size="10.00"> ipaddr</text>
<text text-anchor="middle" x="403" y="-193" font-family="Helvetica,sans-Serif" font-size="10.00">src_ipaddr</text>
</g>
<!-- Node12 -->
<g id="node27" class="node"><title>Node12</title>
<a xlink:href="structin6__addr.html" target="_top" xlink:title="in6_addr">
<polygon fill="none" stroke="black" points="415.5,-336.5 415.5,-355.5 468.5,-355.5 468.5,-336.5 415.5,-336.5"/>
<text text-anchor="middle" x="442" y="-343.5" font-family="Helvetica,sans-Serif" font-size="10.00">in6_addr</text>
</a>
</g>
<!-- Node12&#45;&gt;Node11 -->
<g id="edge32" class="edge"><title>Node12&#45;&gt;Node11</title>
<path fill="none" stroke="#9a32cd" stroke-dasharray="5,2" d="M442,-326.22C442,-304.951 442,-271.22 442,-255.537"/>
<polygon fill="#9a32cd" stroke="#9a32cd" points="438.5,-326.303 442,-336.303 445.5,-326.303 438.5,-326.303"/>
<text text-anchor="middle" x="459.5" y="-293.5" font-family="Helvetica,sans-Serif" font-size="10.00"> ip6addr</text>
</g>
</g>
</svg>
