<?xml version="1.0" encoding="UTF-8" standalone="no"?>
<!DOCTYPE svg PUBLIC "-//W3C//DTD SVG 1.1//EN"
 "http://www.w3.org/Graphics/SVG/1.1/DTD/svg11.dtd">
<!-- Generated by graphviz version 2.28.0 (20111211.2114)
 -->
<!-- Title: G Pages: 1 -->
<!--zoomable-->
<svg id="main" version="1.1" xmlns="http://www.w3.org/2000/svg" xmlns:xlink="http://www.w3.org/1999/xlink" xml:space="preserve" onload="init(evt)">
        <defs>
                <circle id="rim" cx="0" cy="0" r="7"/>
                <circle id="rim2" cx="0" cy="0" r="3.5"/>
                <g id="zoomPlus">
                        <use xlink:href="#rim" fill="#404040">
                                <set attributeName="fill" to="#808080" begin="zoomplus.mouseover" end="zoomplus.mouseout"/>
                        </use>
                        <path d="M-4,0h8M0,-4v8" fill="none" stroke="white" stroke-width="1.5" pointer-events="none"/>
                </g>
                <g id="zoomMin">
                        <use xlink:href="#rim" fill="#404040">
                                <set attributeName="fill" to="#808080" begin="zoomminus.mouseover" end="zoomminus.mouseout"/>
                        </use>
                        <path d="M-4,0h8" fill="none" stroke="white" stroke-width="1.5" pointer-events="none"/>
                </g>
                <g id="dirArrow">
                        <path fill="none" stroke="white" stroke-width="1.5" d="M0,-3.0v7 M-2.5,-0.5L0,-3.0L2.5,-0.5"/>
                </g>
               <g id="resetDef">
                       <use xlink:href="#rim2" fill="#404040">
                               <set attributeName="fill" to="#808080" begin="reset.mouseover" end="reset.mouseout"/>
                       </use>
               </g>
        </defs>

<script type="text/javascript">
var viewWidth = 1266;
var viewHeight = 932;
var sectionId = 'dynsection-0';
</script>
<script xlink:href="svgpan.js"/>
<svg id="graph" class="graph">
<g id="viewport">
<title>G</title>
<!-- Node1 -->
<g id="node1" class="node"><title>Node1</title>
<polygon fill="#bfbfbf" stroke="black" points="649.5,-833.5 649.5,-852.5 708.5,-852.5 708.5,-833.5 649.5,-833.5"/>
<text text-anchor="middle" x="679" y="-840.5" font-family="Helvetica,sans-Serif" font-size="10.00">rlm_eap_t</text>
</g>
<!-- Node9 -->
<g id="node20" class="node"><title>Node9</title>
<a xlink:href="structEAP__HANDLER.html" target="_top" xlink:title="EAP_HANDLER">
<polygon fill="none" stroke="black" points="1166.5,-750.5 1166.5,-769.5 1257.5,-769.5 1257.5,-750.5 1166.5,-750.5"/>
<text text-anchor="middle" x="1212" y="-757.5" font-family="Helvetica,sans-Serif" font-size="10.00">EAP_HANDLER</text>
</a>
</g>
<!-- Node1&#45;&gt;Node9 -->
<g id="edge102" class="edge"><title>Node1&#45;&gt;Node9</title>
<path fill="none" stroke="#9a32cd" stroke-dasharray="5,2" d="M718.871,-844.182C800.58,-845.507 995.207,-842.544 1148,-792 1165,-786.375 1183.1,-776.758 1195.52,-769.532"/>
<polygon fill="#9a32cd" stroke="#9a32cd" points="718.629,-840.676 708.562,-843.981 718.492,-847.675 718.629,-840.676"/>
<text text-anchor="middle" x="947" y="-839" font-family="Helvetica,sans-Serif" font-size="10.00"> inst</text>
</g>
<!-- Node2 -->
<g id="node2" class="node"><title>Node2</title>
<a xlink:href="structeap__types__t.html" target="_top" xlink:title="eap_types_t">
<polygon fill="none" stroke="black" points="486,-855.5 486,-874.5 556,-874.5 556,-855.5 486,-855.5"/>
<text text-anchor="middle" x="521" y="-862.5" font-family="Helvetica,sans-Serif" font-size="10.00">eap_types_t</text>
</a>
</g>
<!-- Node2&#45;&gt;Node1 -->
<g id="edge2" class="edge"><title>Node2&#45;&gt;Node1</title>
<path fill="none" stroke="#9a32cd" stroke-dasharray="5,2" d="M566.458,-858.73C593.08,-854.976 626.141,-850.313 649.333,-847.043"/>
<polygon fill="#9a32cd" stroke="#9a32cd" points="565.648,-855.31 556.235,-860.172 566.626,-862.241 565.648,-855.31"/>
<text text-anchor="middle" x="599" y="-860" font-family="Helvetica,sans-Serif" font-size="10.00"> types</text>
</g>
<!-- Node3 -->
<g id="node4" class="node"><title>Node3</title>
<a xlink:href="structconf__part.html" target="_top" xlink:title="conf_part">
<polygon fill="none" stroke="black" points="314.5,-686.5 314.5,-705.5 371.5,-705.5 371.5,-686.5 314.5,-686.5"/>
<text text-anchor="middle" x="343" y="-693.5" font-family="Helvetica,sans-Serif" font-size="10.00">conf_part</text>
</a>
</g>
<!-- Node3&#45;&gt;Node2 -->
<g id="edge4" class="edge"><title>Node3&#45;&gt;Node2</title>
<path fill="none" stroke="#9a32cd" stroke-dasharray="5,2" d="M353.052,-714.77C363.701,-735.546 382.892,-769.233 406,-793 433.415,-821.196 473.943,-843.392 498.567,-855.321"/>
<polygon fill="#9a32cd" stroke="#9a32cd" points="356.127,-713.093 348.531,-705.707 349.864,-716.218 356.127,-713.093"/>
<text text-anchor="middle" x="436" y="-839" font-family="Helvetica,sans-Serif" font-size="10.00"> cs</text>
</g>
<!-- Node3&#45;&gt;Node3 -->
<g id="edge6" class="edge"><title>Node3&#45;&gt;Node3</title>
<path fill="none" stroke="#9a32cd" stroke-dasharray="5,2" d="M326.334,-715.4C327.447,-720.315 333.002,-724 343,-724 358.996,-724 363.62,-714.565 356.872,-705.757"/>
<polygon fill="#9a32cd" stroke="#9a32cd" points="329.707,-716.336 329.128,-705.757 322.983,-714.388 329.707,-716.336"/>
<text text-anchor="middle" x="343" y="-727" font-family="Helvetica,sans-Serif" font-size="10.00"> template</text>
</g>
<!-- Node4 -->
<g id="node7" class="node"><title>Node4</title>
<a xlink:href="structconf__item.html" target="_top" xlink:title="conf_item">
<polygon fill="none" stroke="black" points="491.5,-750.5 491.5,-769.5 550.5,-769.5 550.5,-750.5 491.5,-750.5"/>
<text text-anchor="middle" x="521" y="-757.5" font-family="Helvetica,sans-Serif" font-size="10.00">conf_item</text>
</a>
</g>
<!-- Node3&#45;&gt;Node4 -->
<g id="edge10" class="edge"><title>Node3&#45;&gt;Node4</title>
<path fill="none" stroke="#9a32cd" stroke-dasharray="5,2" d="M381.796,-703.582C406.323,-709.14 438.684,-717.687 466,-729 479.982,-734.791 494.821,-743.519 505.398,-750.24"/>
<polygon fill="#9a32cd" stroke="#9a32cd" points="382.32,-700.114 371.802,-701.384 380.816,-706.951 382.32,-700.114"/>
<text text-anchor="middle" x="436" y="-732" font-family="Helvetica,sans-Serif" font-size="10.00"> parent</text>
</g>
<!-- Node12 -->
<g id="node26" class="node"><title>Node12</title>
<a xlink:href="structradclient.html" target="_top" xlink:title="radclient">
<polygon fill="none" stroke="black" points="830.5,-336.5 830.5,-355.5 883.5,-355.5 883.5,-336.5 830.5,-336.5"/>
<text text-anchor="middle" x="857" y="-343.5" font-family="Helvetica,sans-Serif" font-size="10.00">radclient</text>
</a>
</g>
<!-- Node3&#45;&gt;Node12 -->
<g id="edge54" class="edge"><title>Node3&#45;&gt;Node12</title>
<path fill="none" stroke="#9a32cd" stroke-dasharray="5,2" d="M349.67,-676.363C358.103,-650.223 376.231,-603.935 406,-575 475.209,-507.729 715.017,-437.284 798,-388 814.675,-378.096 832.565,-364.667 843.997,-355.686"/>
<polygon fill="#9a32cd" stroke="#9a32cd" points="346.232,-675.637 346.645,-686.224 352.924,-677.69 346.232,-675.637"/>
<text text-anchor="middle" x="599" y="-485" font-family="Helvetica,sans-Serif" font-size="10.00"> cs</text>
</g>
<!-- Node13 -->
<g id="node28" class="node"><title>Node13</title>
<a xlink:href="structhome__pool__t.html" target="_top" xlink:title="home_pool_t">
<polygon fill="none" stroke="black" points="643,-349.5 643,-368.5 715,-368.5 715,-349.5 643,-349.5"/>
<text text-anchor="middle" x="679" y="-356.5" font-family="Helvetica,sans-Serif" font-size="10.00">home_pool_t</text>
</a>
</g>
<!-- Node3&#45;&gt;Node13 -->
<g id="edge48" class="edge"><title>Node3&#45;&gt;Node13</title>
<path fill="none" stroke="#9a32cd" stroke-dasharray="5,2" d="M344.514,-676.235C346.614,-637.189 356.88,-549.731 406,-501 456.199,-451.199 494.033,-484.139 558,-454 588.777,-439.499 595.318,-433.109 622,-412 639.637,-398.047 658.242,-379.582 668.95,-368.536"/>
<polygon fill="#9a32cd" stroke="#9a32cd" points="341.014,-676.164 344.101,-686.3 348.008,-676.451 341.014,-676.164"/>
<text text-anchor="middle" x="521" y="-472" font-family="Helvetica,sans-Serif" font-size="10.00"> cs</text>
</g>
<!-- Node14 -->
<g id="node30" class="node"><title>Node14</title>
<a xlink:href="structhome__server.html" target="_top" xlink:title="home_server">
<polygon fill="none" stroke="black" points="484.5,-309.5 484.5,-328.5 557.5,-328.5 557.5,-309.5 484.5,-309.5"/>
<text text-anchor="middle" x="521" y="-316.5" font-family="Helvetica,sans-Serif" font-size="10.00">home_server</text>
</a>
</g>
<!-- Node3&#45;&gt;Node14 -->
<g id="edge36" class="edge"><title>Node3&#45;&gt;Node14</title>
<path fill="none" stroke="#9a32cd" stroke-dasharray="5,2" d="M346.211,-676.398C351.555,-634.369 367.673,-533.289 406,-458 434.034,-402.929 486.899,-349.896 509.414,-328.691"/>
<polygon fill="#9a32cd" stroke="#9a32cd" points="342.726,-676.057 345.003,-686.404 349.676,-676.895 342.726,-676.057"/>
<text text-anchor="middle" x="436" y="-461" font-family="Helvetica,sans-Serif" font-size="10.00"> cs</text>
</g>
<!-- Node19 -->
<g id="node47" class="node"><title>Node19</title>
<a xlink:href="structmain__config__t.html" target="_top" xlink:title="main_config_t">
<polygon fill="none" stroke="black" points="640.5,-545.5 640.5,-564.5 717.5,-564.5 717.5,-545.5 640.5,-545.5"/>
<text text-anchor="middle" x="679" y="-552.5" font-family="Helvetica,sans-Serif" font-size="10.00">main_config_t</text>
</a>
</g>
<!-- Node3&#45;&gt;Node19 -->
<g id="edge66" class="edge"><title>Node3&#45;&gt;Node19</title>
<path fill="none" stroke="#9a32cd" stroke-dasharray="5,2" d="M356.322,-678.375C378.074,-649.027 426.464,-591.272 484,-570 535.647,-550.906 600.174,-550.046 640.241,-551.941"/>
<polygon fill="#9a32cd" stroke="#9a32cd" points="353.471,-676.345 350.446,-686.498 359.143,-680.447 353.471,-676.345"/>
<text text-anchor="middle" x="521" y="-573" font-family="Helvetica,sans-Serif" font-size="10.00"> config</text>
</g>
<!-- Node20 -->
<g id="node49" class="node"><title>Node20</title>
<a xlink:href="structrad__listen__t.html" target="_top" xlink:title="rad_listen_t">
<polygon fill="none" stroke="black" points="487.5,-590.5 487.5,-609.5 554.5,-609.5 554.5,-590.5 487.5,-590.5"/>
<text text-anchor="middle" x="521" y="-597.5" font-family="Helvetica,sans-Serif" font-size="10.00">rad_listen_t</text>
</a>
</g>
<!-- Node3&#45;&gt;Node20 -->
<g id="edge64" class="edge"><title>Node3&#45;&gt;Node20</title>
<path fill="none" stroke="#9a32cd" stroke-dasharray="5,2" d="M370.582,-681.501C407.064,-661.602 471.635,-626.381 502.552,-609.517"/>
<polygon fill="#9a32cd" stroke="#9a32cd" points="368.622,-678.583 361.519,-686.444 371.974,-684.728 368.622,-678.583"/>
<text text-anchor="middle" x="436" y="-662" font-family="Helvetica,sans-Serif" font-size="10.00"> cs</text>
</g>
<!-- Node4&#45;&gt;Node3 -->
<g id="edge8" class="edge"><title>Node4&#45;&gt;Node3</title>
<path fill="none" stroke="#9a32cd" stroke-dasharray="5,2" d="M481.068,-758.475C458.428,-756.472 429.764,-751.976 406,-742 385.485,-733.388 365.507,-716.603 353.994,-705.865"/>
<polygon fill="#9a32cd" stroke="#9a32cd" points="481.093,-761.987 491.329,-759.251 481.621,-755.007 481.093,-761.987"/>
<text text-anchor="middle" x="436" y="-781" font-family="Helvetica,sans-Serif" font-size="10.00"> tail</text>
<text text-anchor="middle" x="436" y="-770" font-family="Helvetica,sans-Serif" font-size="10.00">item</text>
<text text-anchor="middle" x="436" y="-759" font-family="Helvetica,sans-Serif" font-size="10.00">children</text>
</g>
<!-- Node4&#45;&gt;Node4 -->
<g id="edge12" class="edge"><title>Node4&#45;&gt;Node4</title>
<path fill="none" stroke="#9a32cd" stroke-dasharray="5,2" d="M506.636,-779.766C507.764,-784.497 512.552,-788 521,-788 534.863,-788 538.871,-778.565 533.022,-769.757"/>
<polygon fill="#9a32cd" stroke="#9a32cd" points="510.107,-780.292 508.978,-769.757 503.292,-778.697 510.107,-780.292"/>
<text text-anchor="middle" x="521" y="-791" font-family="Helvetica,sans-Serif" font-size="10.00"> next</text>
</g>
<!-- Node5 -->
<g id="node11" class="node"><title>Node5</title>
<a xlink:href="structCONF__PARSER.html" target="_top" xlink:title="CONF_PARSER">
<polygon fill="none" stroke="black" points="116,-686.5 116,-705.5 208,-705.5 208,-686.5 116,-686.5"/>
<text text-anchor="middle" x="162" y="-693.5" font-family="Helvetica,sans-Serif" font-size="10.00">CONF_PARSER</text>
</a>
</g>
<!-- Node5&#45;&gt;Node3 -->
<g id="edge14" class="edge"><title>Node5&#45;&gt;Node3</title>
<path fill="none" stroke="#9a32cd" stroke-dasharray="5,2" d="M218.261,-696C250.16,-696 288.893,-696 314.43,-696"/>
<polygon fill="#9a32cd" stroke="#9a32cd" points="218.169,-692.5 208.169,-696 218.169,-699.5 218.169,-692.5"/>
<text text-anchor="middle" x="253" y="-699" font-family="Helvetica,sans-Serif" font-size="10.00"> variables</text>
</g>
<!-- Node6 -->
<g id="node13" class="node"><title>Node6</title>
<a xlink:href="structrbtree__t.html" target="_top" xlink:title="rbtree_t">
<polygon fill="none" stroke="black" points="137,-779.5 137,-798.5 187,-798.5 187,-779.5 137,-779.5"/>
<text text-anchor="middle" x="162" y="-786.5" font-family="Helvetica,sans-Serif" font-size="10.00">rbtree_t</text>
</a>
</g>
<!-- Node6&#45;&gt;Node1 -->
<g id="edge108" class="edge"><title>Node6&#45;&gt;Node1</title>
<path fill="none" stroke="#9a32cd" stroke-dasharray="5,2" d="M179.46,-805.838C203.154,-828.738 249.396,-868.613 298,-884 408.167,-918.877 442.94,-894.694 558,-884 586.816,-881.322 594.636,-881.421 622,-872 636.286,-867.081 651.443,-859.039 662.38,-852.669"/>
<polygon fill="#9a32cd" stroke="#9a32cd" points="181.892,-803.32 172.318,-798.782 176.972,-808.3 181.892,-803.32"/>
<text text-anchor="middle" x="436" y="-916" font-family="Helvetica,sans-Serif" font-size="10.00"> session_tree</text>
<text text-anchor="middle" x="436" y="-905" font-family="Helvetica,sans-Serif" font-size="10.00">handler_tree</text>
</g>
<!-- Node6&#45;&gt;Node3 -->
<g id="edge16" class="edge"><title>Node6&#45;&gt;Node3</title>
<path fill="none" stroke="#9a32cd" stroke-dasharray="5,2" d="M190.69,-774.614C227.656,-755.408 292.12,-721.915 323.619,-705.55"/>
<polygon fill="#9a32cd" stroke="#9a32cd" points="188.742,-771.681 181.482,-779.398 191.969,-777.893 188.742,-771.681"/>
<text text-anchor="middle" x="253" y="-792" font-family="Helvetica,sans-Serif" font-size="10.00"> data_tree</text>
<text text-anchor="middle" x="253" y="-781" font-family="Helvetica,sans-Serif" font-size="10.00">name2_tree</text>
<text text-anchor="middle" x="253" y="-770" font-family="Helvetica,sans-Serif" font-size="10.00">section_tree</text>
<text text-anchor="middle" x="253" y="-759" font-family="Helvetica,sans-Serif" font-size="10.00">pair_tree</text>
</g>
<!-- Node7 -->
<g id="node15" class="node"><title>Node7</title>
<a xlink:href="structrbnode__t.html" target="_top" xlink:title="rbnode_t">
<polygon fill="none" stroke="black" points="0,-779.5 0,-798.5 54,-798.5 54,-779.5 0,-779.5"/>
<text text-anchor="middle" x="27" y="-786.5" font-family="Helvetica,sans-Serif" font-size="10.00">rbnode_t</text>
</a>
</g>
<!-- Node7&#45;&gt;Node6 -->
<g id="edge18" class="edge"><title>Node7&#45;&gt;Node6</title>
<path fill="none" stroke="#9a32cd" stroke-dasharray="5,2" d="M64.3432,-789C87.3013,-789 116.343,-789 136.572,-789"/>
<polygon fill="#9a32cd" stroke="#9a32cd" points="64.2766,-785.5 54.2765,-789 64.2765,-792.5 64.2766,-785.5"/>
<text text-anchor="middle" x="85" y="-792" font-family="Helvetica,sans-Serif" font-size="10.00"> Root</text>
</g>
<!-- Node7&#45;&gt;Node7 -->
<g id="edge20" class="edge"><title>Node7&#45;&gt;Node7</title>
<path fill="none" stroke="#9a32cd" stroke-dasharray="5,2" d="M16.3189,-808.766C17.1578,-813.497 20.7182,-817 27,-817 37.3086,-817 40.2884,-807.565 35.9395,-798.757"/>
<polygon fill="#9a32cd" stroke="#9a32cd" points="19.7944,-809.209 18.0605,-798.757 12.898,-808.009 19.7944,-809.209"/>
<text text-anchor="middle" x="27" y="-842" font-family="Helvetica,sans-Serif" font-size="10.00"> Left</text>
<text text-anchor="middle" x="27" y="-831" font-family="Helvetica,sans-Serif" font-size="10.00">Right</text>
<text text-anchor="middle" x="27" y="-820" font-family="Helvetica,sans-Serif" font-size="10.00">Parent</text>
</g>
<!-- Node8 -->
<g id="node18" class="node"><title>Node8</title>
<a xlink:href="structeap__type__t.html" target="_top" xlink:title="eap_type_t">
<polygon fill="none" stroke="black" points="310.5,-855.5 310.5,-874.5 375.5,-874.5 375.5,-855.5 310.5,-855.5"/>
<text text-anchor="middle" x="343" y="-862.5" font-family="Helvetica,sans-Serif" font-size="10.00">eap_type_t</text>
</a>
</g>
<!-- Node8&#45;&gt;Node2 -->
<g id="edge22" class="edge"><title>Node8&#45;&gt;Node2</title>
<path fill="none" stroke="#9a32cd" stroke-dasharray="5,2" d="M386.213,-865C416.754,-865 457.495,-865 485.963,-865"/>
<polygon fill="#9a32cd" stroke="#9a32cd" points="385.872,-861.5 375.872,-865 385.872,-868.5 385.872,-861.5"/>
<text text-anchor="middle" x="436" y="-868" font-family="Helvetica,sans-Serif" font-size="10.00"> type</text>
</g>
<!-- Node9&#45;&gt;Node1 -->
<g id="edge24" class="edge"><title>Node9&#45;&gt;Node1</title>
<path fill="none" stroke="#9a32cd" stroke-dasharray="5,2" d="M1164.61,-771.769C1159.03,-772.969 1153.4,-774.081 1148,-775 1045.81,-792.375 1018.73,-785.139 916,-799 835.625,-809.845 815.404,-812.485 736,-829 727.072,-830.857 717.415,-833.163 708.675,-835.364"/>
<polygon fill="#9a32cd" stroke="#9a32cd" points="1165.53,-775.148 1174.52,-769.539 1164,-768.319 1165.53,-775.148"/>
<text text-anchor="middle" x="947" y="-813" font-family="Helvetica,sans-Serif" font-size="10.00"> session_tail</text>
<text text-anchor="middle" x="947" y="-802" font-family="Helvetica,sans-Serif" font-size="10.00">session_head</text>
</g>
<!-- Node9&#45;&gt;Node9 -->
<g id="edge100" class="edge"><title>Node9&#45;&gt;Node9</title>
<path fill="none" stroke="#9a32cd" stroke-dasharray="5,2" d="M1195.7,-779.4C1196.79,-784.315 1202.22,-788 1212,-788 1227.64,-788 1232.16,-778.565 1225.56,-769.757"/>
<polygon fill="#9a32cd" stroke="#9a32cd" points="1199.08,-780.332 1198.44,-769.757 1192.34,-778.424 1199.08,-780.332"/>
<text text-anchor="middle" x="1212" y="-802" font-family="Helvetica,sans-Serif" font-size="10.00"> prev</text>
<text text-anchor="middle" x="1212" y="-791" font-family="Helvetica,sans-Serif" font-size="10.00">next</text>
</g>
<!-- Node10 -->
<g id="node22" class="node"><title>Node10</title>
<a xlink:href="structeap__server__ctx.html" target="_top" xlink:title="eap_server_ctx">
<polygon fill="none" stroke="black" points="996.5,-750.5 996.5,-769.5 1079.5,-769.5 1079.5,-750.5 996.5,-750.5"/>
<text text-anchor="middle" x="1038" y="-757.5" font-family="Helvetica,sans-Serif" font-size="10.00">eap_server_ctx</text>
</a>
</g>
<!-- Node10&#45;&gt;Node9 -->
<g id="edge26" class="edge"><title>Node10&#45;&gt;Node9</title>
<path fill="none" stroke="#9a32cd" stroke-dasharray="5,2" d="M1089.86,-760C1114.12,-760 1142.89,-760 1166.3,-760"/>
<polygon fill="#9a32cd" stroke="#9a32cd" points="1089.76,-756.5 1079.76,-760 1089.76,-763.5 1089.76,-756.5"/>
<text text-anchor="middle" x="1123" y="-763" font-family="Helvetica,sans-Serif" font-size="10.00"> server_ctx</text>
</g>
<!-- Node11 -->
<g id="node24" class="node"><title>Node11</title>
<a xlink:href="structauth__req.html" target="_top" xlink:title="auth_req">
<polygon fill="none" stroke="black" points="1011,-248.5 1011,-267.5 1065,-267.5 1065,-248.5 1011,-248.5"/>
<text text-anchor="middle" x="1038" y="-255.5" font-family="Helvetica,sans-Serif" font-size="10.00">auth_req</text>
</a>
</g>
<!-- Node11&#45;&gt;Node9 -->
<g id="edge28" class="edge"><title>Node11&#45;&gt;Node9</title>
<path fill="none" stroke="#9a32cd" stroke-dasharray="5,2" d="M1045.52,-277.044C1074,-360.137 1186.85,-689.509 1207.68,-750.32"/>
<polygon fill="#9a32cd" stroke="#9a32cd" points="1048.83,-275.905 1042.28,-267.58 1042.21,-278.174 1048.83,-275.905"/>
<text text-anchor="middle" x="1123" y="-571" font-family="Helvetica,sans-Serif" font-size="10.00"> request</text>
</g>
<!-- Node11&#45;&gt;Node11 -->
<g id="edge86" class="edge"><title>Node11&#45;&gt;Node11</title>
<path fill="none" stroke="#9a32cd" stroke-dasharray="5,2" d="M1022.53,-277.766C1023.75,-282.497 1028.9,-286 1038,-286 1052.93,-286 1057.25,-276.565 1050.95,-267.757"/>
<polygon fill="#9a32cd" stroke="#9a32cd" points="1026,-278.309 1025.05,-267.757 1019.22,-276.599 1026,-278.309"/>
<text text-anchor="middle" x="1038" y="-333" font-family="Helvetica,sans-Serif" font-size="10.00"> coa</text>
<text text-anchor="middle" x="1038" y="-322" font-family="Helvetica,sans-Serif" font-size="10.00">radlog</text>
<text text-anchor="middle" x="1038" y="-311" font-family="Helvetica,sans-Serif" font-size="10.00">handle</text>
<text text-anchor="middle" x="1038" y="-300" font-family="Helvetica,sans-Serif" font-size="10.00">parent</text>
<text text-anchor="middle" x="1038" y="-289" font-family="Helvetica,sans-Serif" font-size="10.00">process</text>
</g>
<!-- Node12&#45;&gt;Node11 -->
<g id="edge30" class="edge"><title>Node12&#45;&gt;Node11</title>
<path fill="none" stroke="#9a32cd" stroke-dasharray="5,2" d="M893.337,-332.692C917.604,-323.142 950.308,-309.452 978,-295 993.864,-286.721 1011.1,-275.648 1022.83,-267.779"/>
<polygon fill="#9a32cd" stroke="#9a32cd" points="891.872,-329.506 883.822,-336.395 894.411,-336.03 891.872,-329.506"/>
<text text-anchor="middle" x="947" y="-327" font-family="Helvetica,sans-Serif" font-size="10.00"> client</text>
</g>
<!-- Node13&#45;&gt;Node11 -->
<g id="edge88" class="edge"><title>Node13&#45;&gt;Node11</title>
<path fill="none" stroke="#9a32cd" stroke-dasharray="5,2" d="M718.311,-346.328C745.475,-337.481 782.842,-325.586 816,-316 885.926,-295.783 969.156,-274.749 1010.69,-264.456"/>
<polygon fill="#9a32cd" stroke="#9a32cd" points="717.21,-343.006 708.792,-349.44 719.385,-349.66 717.21,-343.006"/>
<text text-anchor="middle" x="857" y="-319" font-family="Helvetica,sans-Serif" font-size="10.00"> home_pool</text>
</g>
<!-- Node13&#45;&gt;Node12 -->
<g id="edge32" class="edge"><title>Node13&#45;&gt;Node12</title>
<path fill="none" stroke="#9a32cd" stroke-dasharray="5,2" d="M725.167,-355.664C758.528,-353.2 802.751,-349.933 830.284,-347.899"/>
<polygon fill="#9a32cd" stroke="#9a32cd" points="724.908,-352.173 715.193,-356.401 725.424,-359.154 724.908,-352.173"/>
<text text-anchor="middle" x="767" y="-358" font-family="Helvetica,sans-Serif" font-size="10.00"> coa_pool</text>
</g>
<!-- Node14&#45;&gt;Node11 -->
<g id="edge90" class="edge"><title>Node14&#45;&gt;Node11</title>
<path fill="none" stroke="#9a32cd" stroke-dasharray="5,2" d="M537.016,-301.727C546.946,-291.631 560.887,-279.77 576,-274 731.616,-214.586 938.688,-241.157 1010.87,-253.21"/>
<polygon fill="#9a32cd" stroke="#9a32cd" points="534.221,-299.593 529.966,-309.296 539.343,-304.364 534.221,-299.593"/>
<text text-anchor="middle" x="767" y="-244" font-family="Helvetica,sans-Serif" font-size="10.00"> home_server</text>
</g>
<!-- Node14&#45;&gt;Node12 -->
<g id="edge50" class="edge"><title>Node14&#45;&gt;Node12</title>
<path fill="none" stroke="#9a32cd" stroke-dasharray="5,2" d="M567.998,-320.416C607.759,-321.863 666.743,-324.541 718,-329 757.319,-332.42 802.705,-338.406 830.37,-342.285"/>
<polygon fill="#9a32cd" stroke="#9a32cd" points="567.935,-316.912 557.818,-320.058 567.689,-323.908 567.935,-316.912"/>
<text text-anchor="middle" x="679" y="-332" font-family="Helvetica,sans-Serif" font-size="10.00"> coa_server</text>
</g>
<!-- Node14&#45;&gt;Node13 -->
<g id="edge34" class="edge"><title>Node14&#45;&gt;Node13</title>
<path fill="none" stroke="#9a32cd" stroke-dasharray="5,2" d="M567.741,-330.728C591.747,-336.884 620.702,-344.308 642.915,-350.004"/>
<polygon fill="#9a32cd" stroke="#9a32cd" points="568.346,-327.27 557.79,-328.177 566.607,-334.051 568.346,-327.27"/>
<text text-anchor="middle" x="599" y="-358" font-family="Helvetica,sans-Serif" font-size="10.00"> fallback</text>
<text text-anchor="middle" x="599" y="-347" font-family="Helvetica,sans-Serif" font-size="10.00">servers</text>
</g>
<!-- Node15 -->
<g id="node33" class="node"><title>Node15</title>
<a xlink:href="structfr__socket__limit__t.html" target="_top" xlink:title="fr_socket_limit_t">
<polygon fill="none" stroke="black" points="298.5,-366.5 298.5,-385.5 387.5,-385.5 387.5,-366.5 298.5,-366.5"/>
<text text-anchor="middle" x="343" y="-373.5" font-family="Helvetica,sans-Serif" font-size="10.00">fr_socket_limit_t</text>
</a>
</g>
<!-- Node15&#45;&gt;Node12 -->
<g id="edge52" class="edge"><title>Node15&#45;&gt;Node12</title>
<path fill="none" stroke="#9a32cd" stroke-dasharray="5,2" d="M397.784,-378.148C470.479,-380.626 604.113,-383.68 718,-378 753.689,-376.22 763.343,-378.702 798,-370 811.423,-366.63 825.802,-360.697 836.885,-355.573"/>
<polygon fill="#9a32cd" stroke="#9a32cd" points="397.627,-374.64 387.51,-377.788 397.381,-381.636 397.627,-374.64"/>
<text text-anchor="middle" x="599" y="-385" font-family="Helvetica,sans-Serif" font-size="10.00"> limit</text>
</g>
<!-- Node15&#45;&gt;Node14 -->
<g id="edge38" class="edge"><title>Node15&#45;&gt;Node14</title>
<path fill="none" stroke="#9a32cd" stroke-dasharray="5,2" d="M383.876,-363.39C407.728,-355.812 438.626,-345.937 466,-337 474.361,-334.27 483.435,-331.263 491.716,-328.501"/>
<polygon fill="#9a32cd" stroke="#9a32cd" points="382.588,-360.126 374.115,-366.487 384.706,-366.798 382.588,-360.126"/>
<text text-anchor="middle" x="436" y="-360" font-family="Helvetica,sans-Serif" font-size="10.00"> limit</text>
</g>
<!-- Node16 -->
<g id="node35" class="node"><title>Node16</title>
<a xlink:href="structfr__event__t.html" target="_top" xlink:title="fr_event_t">
<polygon fill="none" stroke="black" points="313,-204.5 313,-223.5 373,-223.5 373,-204.5 313,-204.5"/>
<text text-anchor="middle" x="343" y="-211.5" font-family="Helvetica,sans-Serif" font-size="10.00">fr_event_t</text>
</a>
</g>
<!-- Node16&#45;&gt;Node11 -->
<g id="edge94" class="edge"><title>Node16&#45;&gt;Node11</title>
<path fill="none" stroke="#9a32cd" stroke-dasharray="5,2" d="M383.243,-214.966C473.917,-217.283 704.982,-223.66 898,-233 933.583,-234.722 943.048,-231.11 978,-238 989.991,-240.364 1002.89,-244.537 1013.56,-248.463"/>
<polygon fill="#9a32cd" stroke="#9a32cd" points="383.23,-211.465 373.144,-214.711 383.052,-218.463 383.23,-211.465"/>
<text text-anchor="middle" x="679" y="-229" font-family="Helvetica,sans-Serif" font-size="10.00"> ev</text>
</g>
<!-- Node16&#45;&gt;Node14 -->
<g id="edge40" class="edge"><title>Node16&#45;&gt;Node14</title>
<path fill="none" stroke="#9a32cd" stroke-dasharray="5,2" d="M368.521,-228.629C405.137,-250.474 473.095,-291.017 503.98,-309.443"/>
<polygon fill="#9a32cd" stroke="#9a32cd" points="370.31,-225.621 359.929,-223.503 366.724,-231.632 370.31,-225.621"/>
<text text-anchor="middle" x="436" y="-289" font-family="Helvetica,sans-Serif" font-size="10.00"> ev</text>
</g>
<!-- Node16&#45;&gt;Node16 -->
<g id="edge42" class="edge"><title>Node16&#45;&gt;Node16</title>
<path fill="none" stroke="#9a32cd" stroke-dasharray="5,2" d="M326.334,-233.4C327.447,-238.315 333.002,-242 343,-242 358.996,-242 363.62,-232.565 356.872,-223.757"/>
<polygon fill="#9a32cd" stroke="#9a32cd" points="329.707,-234.336 329.128,-223.757 322.983,-232.388 329.707,-234.336"/>
<text text-anchor="middle" x="343" y="-245" font-family="Helvetica,sans-Serif" font-size="10.00"> ev_p</text>
</g>
<!-- Node17 -->
<g id="node38" class="node"><title>Node17</title>
<a xlink:href="structfr__ipaddr__t.html" target="_top" xlink:title="fr_ipaddr_t">
<polygon fill="none" stroke="black" points="312,-283.5 312,-302.5 374,-302.5 374,-283.5 312,-283.5"/>
<text text-anchor="middle" x="343" y="-290.5" font-family="Helvetica,sans-Serif" font-size="10.00">fr_ipaddr_t</text>
</a>
</g>
<!-- Node17&#45;&gt;Node9 -->
<g id="edge104" class="edge"><title>Node17&#45;&gt;Node9</title>
<path fill="none" stroke="#9a32cd" stroke-dasharray="5,2" d="M359.306,-310.556C369.095,-322.761 381.191,-339.858 388,-357 407.261,-405.487 393.576,-422.328 406,-473 412.426,-499.209 463.439,-685.523 484,-703 523.137,-736.267 546.634,-722 598,-722 598,-722 598,-722 1039,-722 1091.6,-722 1151.16,-739.154 1184.59,-750.411"/>
<polygon fill="#9a32cd" stroke="#9a32cd" points="361.779,-308.056 352.695,-302.603 356.396,-312.53 361.779,-308.056"/>
<text text-anchor="middle" x="767" y="-725" font-family="Helvetica,sans-Serif" font-size="10.00"> src_ipaddr</text>
</g>
<!-- Node17&#45;&gt;Node12 -->
<g id="edge56" class="edge"><title>Node17&#45;&gt;Node12</title>
<path fill="none" stroke="#9a32cd" stroke-dasharray="5,2" d="M369.155,-278.709C380.108,-273.272 393.319,-267.731 406,-265 432.069,-259.386 439.447,-262.542 466,-265 615.467,-278.837 652.582,-289.777 798,-327 808.676,-329.733 820.25,-333.381 830.23,-336.75"/>
<polygon fill="#9a32cd" stroke="#9a32cd" points="367.43,-275.661 360.181,-283.388 370.666,-281.869 367.43,-275.661"/>
<text text-anchor="middle" x="599" y="-288" font-family="Helvetica,sans-Serif" font-size="10.00"> ipaddr</text>
</g>
<!-- Node17&#45;&gt;Node14 -->
<g id="edge44" class="edge"><title>Node17&#45;&gt;Node14</title>
<path fill="none" stroke="#9a32cd" stroke-dasharray="5,2" d="M384.445,-298.975C414.614,-303.432 455.441,-309.463 484.383,-313.738"/>
<polygon fill="#9a32cd" stroke="#9a32cd" points="384.66,-295.469 374.255,-297.47 383.637,-302.393 384.66,-295.469"/>
<text text-anchor="middle" x="436" y="-325" font-family="Helvetica,sans-Serif" font-size="10.00"> ipaddr</text>
<text text-anchor="middle" x="436" y="-314" font-family="Helvetica,sans-Serif" font-size="10.00">src_ipaddr</text>
</g>
<!-- Node17&#45;&gt;Node19 -->
<g id="edge68" class="edge"><title>Node17&#45;&gt;Node19</title>
<path fill="none" stroke="#9a32cd" stroke-dasharray="5,2" d="M354.863,-311.408C365.919,-328.863 384.458,-354.892 406,-372 464.388,-418.371 511.179,-384.972 558,-443 580.613,-471.026 551.693,-495.43 576,-522 592.332,-539.852 618.38,-548.083 640.064,-551.861"/>
<polygon fill="#9a32cd" stroke="#9a32cd" points="357.735,-309.396 349.52,-302.705 351.769,-313.058 357.735,-309.396"/>
<text text-anchor="middle" x="521" y="-446" font-family="Helvetica,sans-Serif" font-size="10.00"> myip</text>
</g>
<!-- Node21 -->
<g id="node55" class="node"><title>Node21</title>
<a xlink:href="structradius__packet.html" target="_top" xlink:title="radius_packet">
<polygon fill="none" stroke="black" points="640.5,-115.5 640.5,-134.5 717.5,-134.5 717.5,-115.5 640.5,-115.5"/>
<text text-anchor="middle" x="679" y="-122.5" font-family="Helvetica,sans-Serif" font-size="10.00">radius_packet</text>
</a>
</g>
<!-- Node17&#45;&gt;Node21 -->
<g id="edge82" class="edge"><title>Node17&#45;&gt;Node21</title>
<path fill="none" stroke="#9a32cd" stroke-dasharray="5,2" d="M368.513,-277.488C375.121,-272.846 382.074,-267.514 388,-262 397.249,-253.394 395.886,-247.57 406,-240 480.292,-184.393 585.501,-149.93 640.771,-134.51"/>
<polygon fill="#9a32cd" stroke="#9a32cd" points="366.175,-274.844 359.847,-283.342 370.093,-280.644 366.175,-274.844"/>
<text text-anchor="middle" x="521" y="-206" font-family="Helvetica,sans-Serif" font-size="10.00"> dst_ipaddr</text>
<text text-anchor="middle" x="521" y="-195" font-family="Helvetica,sans-Serif" font-size="10.00">src_ipaddr</text>
</g>
<!-- Node18 -->
<g id="node40" class="node"><title>Node18</title>
<a xlink:href="structin6__addr.html" target="_top" xlink:title="in6_addr">
<polygon fill="none" stroke="black" points="135.5,-152.5 135.5,-171.5 188.5,-171.5 188.5,-152.5 135.5,-152.5"/>
<text text-anchor="middle" x="162" y="-159.5" font-family="Helvetica,sans-Serif" font-size="10.00">in6_addr</text>
</a>
</g>
<!-- Node18&#45;&gt;Node17 -->
<g id="edge46" class="edge"><title>Node18&#45;&gt;Node17</title>
<path fill="none" stroke="#9a32cd" stroke-dasharray="5,2" d="M184.116,-177.883C210.59,-197.74 257.43,-232.688 298,-262 307.998,-269.224 319.384,-277.24 328.068,-283.311"/>
<polygon fill="#9a32cd" stroke="#9a32cd" points="186.055,-174.962 175.957,-171.757 181.852,-180.56 186.055,-174.962"/>
<text text-anchor="middle" x="253" y="-252" font-family="Helvetica,sans-Serif" font-size="10.00"> ip6addr</text>
</g>
<!-- Node23 -->
<g id="node59" class="node"><title>Node23</title>
<a xlink:href="unionvalue__pair__data.html" target="_top" xlink:title="value_pair_data">
<polygon fill="none" stroke="black" points="300.5,-66.5 300.5,-85.5 385.5,-85.5 385.5,-66.5 300.5,-66.5"/>
<text text-anchor="middle" x="343" y="-73.5" font-family="Helvetica,sans-Serif" font-size="10.00">value_pair_data</text>
</a>
</g>
<!-- Node18&#45;&gt;Node23 -->
<g id="edge76" class="edge"><title>Node18&#45;&gt;Node23</title>
<path fill="none" stroke="#9a32cd" stroke-dasharray="5,2" d="M190.544,-147.794C217.681,-133.926 260.416,-112.426 298,-95 304.794,-91.85 312.249,-88.5665 319.061,-85.6327"/>
<polygon fill="#9a32cd" stroke="#9a32cd" points="188.933,-144.687 181.63,-152.362 192.126,-150.917 188.933,-144.687"/>
<text text-anchor="middle" x="253" y="-133" font-family="Helvetica,sans-Serif" font-size="10.00"> ipv6addr</text>
</g>
<!-- Node19&#45;&gt;Node11 -->
<g id="edge58" class="edge"><title>Node19&#45;&gt;Node11</title>
<path fill="none" stroke="#9a32cd" stroke-dasharray="5,2" d="M727.613,-548.558C750.074,-544.043 776.58,-536.493 798,-524 916.519,-454.876 1008.52,-306.861 1031.47,-267.68"/>
<polygon fill="#9a32cd" stroke="#9a32cd" points="726.798,-545.149 717.61,-550.425 728.083,-552.03 726.798,-545.149"/>
<text text-anchor="middle" x="857" y="-515" font-family="Helvetica,sans-Serif" font-size="10.00"> root</text>
</g>
<!-- Node20&#45;&gt;Node11 -->
<g id="edge84" class="edge"><title>Node20&#45;&gt;Node11</title>
<path fill="none" stroke="#9a32cd" stroke-dasharray="5,2" d="M564.51,-602.822C639.341,-605.576 796.282,-601.203 898,-527 992.068,-458.378 1027.41,-307.123 1035.23,-267.601"/>
<polygon fill="#9a32cd" stroke="#9a32cd" points="564.652,-599.325 554.511,-602.393 564.351,-606.318 564.652,-599.325"/>
<text text-anchor="middle" x="767" y="-605" font-family="Helvetica,sans-Serif" font-size="10.00"> listener</text>
<text text-anchor="middle" x="767" y="-594" font-family="Helvetica,sans-Serif" font-size="10.00">proxy_listener</text>
</g>
<!-- Node20&#45;&gt;Node19 -->
<g id="edge60" class="edge"><title>Node20&#45;&gt;Node19</title>
<path fill="none" stroke="#9a32cd" stroke-dasharray="5,2" d="M564.962,-588.191C582.653,-583.271 603.337,-577.445 622,-572 630.096,-569.638 638.828,-567.021 646.934,-564.562"/>
<polygon fill="#9a32cd" stroke="#9a32cd" points="563.631,-584.928 554.93,-590.973 565.502,-591.673 563.631,-584.928"/>
<text text-anchor="middle" x="599" y="-587" font-family="Helvetica,sans-Serif" font-size="10.00"> listen</text>
</g>
<!-- Node20&#45;&gt;Node20 -->
<g id="edge62" class="edge"><title>Node20&#45;&gt;Node20</title>
<path fill="none" stroke="#9a32cd" stroke-dasharray="5,2" d="M506.636,-619.766C507.764,-624.497 512.552,-628 521,-628 534.863,-628 538.871,-618.565 533.022,-609.757"/>
<polygon fill="#9a32cd" stroke="#9a32cd" points="510.107,-620.292 508.978,-609.757 503.292,-618.697 510.107,-620.292"/>
<text text-anchor="middle" x="521" y="-686" font-family="Helvetica,sans-Serif" font-size="10.00"> next</text>
<text text-anchor="middle" x="521" y="-675" font-family="Helvetica,sans-Serif" font-size="10.00">encode</text>
<text text-anchor="middle" x="521" y="-664" font-family="Helvetica,sans-Serif" font-size="10.00">recv</text>
<text text-anchor="middle" x="521" y="-653" font-family="Helvetica,sans-Serif" font-size="10.00">print</text>
<text text-anchor="middle" x="521" y="-642" font-family="Helvetica,sans-Serif" font-size="10.00">send</text>
<text text-anchor="middle" x="521" y="-631" font-family="Helvetica,sans-Serif" font-size="10.00">decode</text>
</g>
<!-- Node21&#45;&gt;Node11 -->
<g id="edge70" class="edge"><title>Node21&#45;&gt;Node11</title>
<path fill="none" stroke="#9a32cd" stroke-dasharray="5,2" d="M727.924,-122.161C772.795,-120.876 841.249,-122.467 898,-139 936.959,-150.35 947.057,-156.749 978,-183 1001.25,-202.72 1021.55,-232.838 1031.14,-248.219"/>
<polygon fill="#9a32cd" stroke="#9a32cd" points="727.758,-118.665 717.885,-122.508 728,-125.66 727.758,-118.665"/>
<text text-anchor="middle" x="857" y="-175" font-family="Helvetica,sans-Serif" font-size="10.00"> reply</text>
<text text-anchor="middle" x="857" y="-164" font-family="Helvetica,sans-Serif" font-size="10.00">proxy_reply</text>
<text text-anchor="middle" x="857" y="-153" font-family="Helvetica,sans-Serif" font-size="10.00">proxy</text>
<text text-anchor="middle" x="857" y="-142" font-family="Helvetica,sans-Serif" font-size="10.00">packet</text>
</g>
<!-- Node22 -->
<g id="node57" class="node"><title>Node22</title>
<a xlink:href="structvalue__pair.html" target="_top" xlink:title="value_pair">
<polygon fill="none" stroke="black" points="490.5,-66.5 490.5,-85.5 551.5,-85.5 551.5,-66.5 490.5,-66.5"/>
<text text-anchor="middle" x="521" y="-73.5" font-family="Helvetica,sans-Serif" font-size="10.00">value_pair</text>
</a>
</g>
<!-- Node22&#45;&gt;Node11 -->
<g id="edge92" class="edge"><title>Node22&#45;&gt;Node11</title>
<path fill="none" stroke="#9a32cd" stroke-dasharray="5,2" d="M561.49,-68.967C648.055,-55.9534 856.468,-38.0777 978,-141 1012.89,-170.551 1029.37,-225.825 1034.83,-248.211"/>
<polygon fill="#9a32cd" stroke="#9a32cd" points="560.891,-65.5182 551.552,-70.5215 561.972,-72.4341 560.891,-65.5182"/>
<text text-anchor="middle" x="767" y="-92" font-family="Helvetica,sans-Serif" font-size="10.00"> password</text>
<text text-anchor="middle" x="767" y="-81" font-family="Helvetica,sans-Serif" font-size="10.00">config_items</text>
<text text-anchor="middle" x="767" y="-70" font-family="Helvetica,sans-Serif" font-size="10.00">username</text>
</g>
<!-- Node22&#45;&gt;Node21 -->
<g id="edge72" class="edge"><title>Node22&#45;&gt;Node21</title>
<path fill="none" stroke="#9a32cd" stroke-dasharray="5,2" d="M561.523,-88.4143C588.255,-96.8108 623.031,-107.734 647.603,-115.452"/>
<polygon fill="#9a32cd" stroke="#9a32cd" points="562.299,-84.9895 551.71,-85.3319 560.201,-91.6678 562.299,-84.9895"/>
<text text-anchor="middle" x="599" y="-110" font-family="Helvetica,sans-Serif" font-size="10.00"> vps</text>
</g>
<!-- Node22&#45;&gt;Node22 -->
<g id="edge78" class="edge"><title>Node22&#45;&gt;Node22</title>
<path fill="none" stroke="#9a32cd" stroke-dasharray="5,2" d="M506.636,-95.7663C507.764,-100.497 512.552,-104 521,-104 534.863,-104 538.871,-94.5653 533.022,-85.7571"/>
<polygon fill="#9a32cd" stroke="#9a32cd" points="510.107,-96.2915 508.978,-85.7571 503.292,-94.6966 510.107,-96.2915"/>
<text text-anchor="middle" x="521" y="-107" font-family="Helvetica,sans-Serif" font-size="10.00"> next</text>
</g>
<!-- Node23&#45;&gt;Node22 -->
<g id="edge74" class="edge"><title>Node23&#45;&gt;Node22</title>
<path fill="none" stroke="#9a32cd" stroke-dasharray="5,2" d="M395.858,-76C426.674,-76 464.647,-76 490.422,-76"/>
<polygon fill="#9a32cd" stroke="#9a32cd" points="395.71,-72.5001 385.71,-76 395.71,-79.5001 395.71,-72.5001"/>
<text text-anchor="middle" x="436" y="-79" font-family="Helvetica,sans-Serif" font-size="10.00"> data</text>
</g>
<!-- Node24 -->
<g id="node63" class="node"><title>Node24</title>
<a xlink:href="structattr__flags.html" target="_top" xlink:title="attr_flags">
<polygon fill="none" stroke="black" points="314.5,-104.5 314.5,-123.5 371.5,-123.5 371.5,-104.5 314.5,-104.5"/>
<text text-anchor="middle" x="343" y="-111.5" font-family="Helvetica,sans-Serif" font-size="10.00">attr_flags</text>
</a>
</g>
<!-- Node24&#45;&gt;Node22 -->
<g id="edge80" class="edge"><title>Node24&#45;&gt;Node22</title>
<path fill="none" stroke="#9a32cd" stroke-dasharray="5,2" d="M381.616,-107.756C405.822,-103.53 437.896,-97.5401 466,-91 473.96,-89.1475 482.511,-86.8957 490.407,-84.7061"/>
<polygon fill="#9a32cd" stroke="#9a32cd" points="381.018,-104.308 371.758,-109.456 382.207,-111.206 381.018,-104.308"/>
<text text-anchor="middle" x="436" y="-107" font-family="Helvetica,sans-Serif" font-size="10.00"> flags</text>
</g>
<!-- Node25 -->
<g id="node72" class="node"><title>Node25</title>
<a xlink:href="structrequest__data__t.html" target="_top" xlink:title="request_data_t">
<polygon fill="none" stroke="black" points="816.5,-0.5 816.5,-19.5 897.5,-19.5 897.5,-0.5 816.5,-0.5"/>
<text text-anchor="middle" x="857" y="-7.5" font-family="Helvetica,sans-Serif" font-size="10.00">request_data_t</text>
</a>
</g>
<!-- Node25&#45;&gt;Node11 -->
<g id="edge96" class="edge"><title>Node25&#45;&gt;Node11</title>
<path fill="none" stroke="#9a32cd" stroke-dasharray="5,2" d="M907.449,-16.4771C931.724,-22.0826 959.624,-32.5312 978,-52 1032.9,-110.166 1037.2,-215.931 1037.17,-248.317"/>
<polygon fill="#9a32cd" stroke="#9a32cd" points="908.162,-13.0505 897.657,-14.4251 906.726,-19.9017 908.162,-13.0505"/>
<text text-anchor="middle" x="947" y="-55" font-family="Helvetica,sans-Serif" font-size="10.00"> data</text>
</g>
<!-- Node25&#45;&gt;Node25 -->
<g id="edge98" class="edge"><title>Node25&#45;&gt;Node25</title>
<path fill="none" stroke="#9a32cd" stroke-dasharray="5,2" d="M840.334,-29.4C841.447,-34.3146 847.002,-38 857,-38 872.996,-38 877.62,-28.5653 870.872,-19.7571"/>
<polygon fill="#9a32cd" stroke="#9a32cd" points="843.707,-30.3361 843.128,-19.7571 836.983,-28.3878 843.707,-30.3361"/>
<text text-anchor="middle" x="857" y="-41" font-family="Helvetica,sans-Serif" font-size="10.00"> next</text>
</g>
<!-- Node26 -->
<g id="node78" class="node"><title>Node26</title>
<a xlink:href="structfr__randctx.html" target="_top" xlink:title="fr_randctx">
<polygon fill="none" stroke="black" points="491,-817.5 491,-836.5 551,-836.5 551,-817.5 491,-817.5"/>
<text text-anchor="middle" x="521" y="-824.5" font-family="Helvetica,sans-Serif" font-size="10.00">fr_randctx</text>
</a>
</g>
<!-- Node26&#45;&gt;Node1 -->
<g id="edge106" class="edge"><title>Node26&#45;&gt;Node1</title>
<path fill="none" stroke="#9a32cd" stroke-dasharray="5,2" d="M561.133,-826.384C579.653,-826.55 602.037,-827.409 622,-830 631.007,-831.169 640.687,-833.149 649.423,-835.217"/>
<polygon fill="#9a32cd" stroke="#9a32cd" points="561.011,-822.884 551.002,-826.359 560.993,-829.884 561.011,-822.884"/>
<text text-anchor="middle" x="599" y="-833" font-family="Helvetica,sans-Serif" font-size="10.00"> rand_pool</text>
</g>
</g>
</svg>
        <g id="navigator" transform="translate(0 0)" fill="#404254">
                <rect fill="#f2f5e9" fill-opacity="0.5" stroke="#606060" stroke-width=".5" x="0" y="0" width="60" height="60"/>
                <use id="zoomplus" xlink:href="#zoomPlus" x="17" y="9" onmousedown="handleZoom(evt,'in')"/>
                <use id="zoomminus" xlink:href="#zoomMin" x="42" y="9" onmousedown="handleZoom(evt,'out')"/>
                <use id="reset" xlink:href="#resetDef" x="30" y="36" onmousedown="handleReset()"/>
                <g id="arrowUp" xlink:href="#dirArrow" transform="translate(30 24)" onmousedown="handlePan(0,-1)">
                  <use xlink:href="#rim" fill="#404040">
                        <set attributeName="fill" to="#808080" begin="arrowUp.mouseover" end="arrowUp.mouseout"/>
                  </use>
                  <path fill="none" stroke="white" stroke-width="1.5" d="M0,-3.0v7 M-2.5,-0.5L0,-3.0L2.5,-0.5"/>
                </g>
                <g id="arrowRight" xlink:href="#dirArrow" transform="rotate(90) translate(36 -43)" onmousedown="handlePan(1,0)">
                  <use xlink:href="#rim" fill="#404040">
                        <set attributeName="fill" to="#808080" begin="arrowRight.mouseover" end="arrowRight.mouseout"/>
                  </use>
                  <path fill="none" stroke="white" stroke-width="1.5" d="M0,-3.0v7 M-2.5,-0.5L0,-3.0L2.5,-0.5"/>
                </g>
                <g id="arrowDown" xlink:href="#dirArrow" transform="rotate(180) translate(-30 -48)" onmousedown="handlePan(0,1)">
                  <use xlink:href="#rim" fill="#404040">
                        <set attributeName="fill" to="#808080" begin="arrowDown.mouseover" end="arrowDown.mouseout"/>
                  </use>
                  <path fill="none" stroke="white" stroke-width="1.5" d="M0,-3.0v7 M-2.5,-0.5L0,-3.0L2.5,-0.5"/>
                </g>
                <g id="arrowLeft" xlink:href="#dirArrow" transform="rotate(270) translate(-36 17)" onmousedown="handlePan(-1,0)">
                  <use xlink:href="#rim" fill="#404040">
                        <set attributeName="fill" to="#808080" begin="arrowLeft.mouseover" end="arrowLeft.mouseout"/>
                  </use>
                  <path fill="none" stroke="white" stroke-width="1.5" d="M0,-3.0v7 M-2.5,-0.5L0,-3.0L2.5,-0.5"/>
                </g>
        </g>
</svg>
