<?xml version="1.0" encoding="UTF-8" standalone="no"?>
<!DOCTYPE svg PUBLIC "-//W3C//DTD SVG 1.1//EN"
 "http://www.w3.org/Graphics/SVG/1.1/DTD/svg11.dtd">
<!-- Generated by graphviz version 2.28.0 (20111211.2114)
 -->
<!-- Title: G Pages: 1 -->
<svg width="254pt" height="298pt"
 viewBox="0.00 0.00 254.00 298.50" xmlns="http://www.w3.org/2000/svg" xmlns:xlink="http://www.w3.org/1999/xlink">
<g id="graph1" class="graph" transform="scale(1 1) rotate(0) translate(4 294.5)">
<title>G</title>
<!-- Node1 -->
<g id="node1" class="node"><title>Node1</title>
<polygon fill="#bfbfbf" stroke="black" points="-1,-0.5 -1,-19.5 87,-19.5 87,-0.5 -1,-0.5"/>
<text text-anchor="middle" x="43" y="-7.5" font-family="Helvetica,sans-Serif" font-size="10.00">cached_config_t</text>
</g>
<!-- Node1&#45;&gt;Node1 -->
<g id="edge2" class="edge"><title>Node1&#45;&gt;Node1</title>
<path fill="none" stroke="#9a32cd" stroke-dasharray="5,2" d="M97.0935,-16.2643C101.362,-14.8898 104,-12.8017 104,-10 104,-5.40234 96.8956,-2.72636 87.141,-1.97206"/>
<polygon fill="#9a32cd" stroke="#9a32cd" points="96.3768,-12.8367 87.141,-18.0279 97.5983,-19.7293 96.3768,-12.8367"/>
<text text-anchor="middle" x="115" y="-7.5" font-family="Helvetica,sans-Serif" font-size="10.00"> next</text>
</g>
<!-- Node2 -->
<g id="node3" class="node"><title>Node2</title>
<a xlink:href="structconf__part.html" target="_top" xlink:title="conf_part">
<polygon fill="none" stroke="black" points="92.5,-90.5 92.5,-109.5 149.5,-109.5 149.5,-90.5 92.5,-90.5"/>
<text text-anchor="middle" x="121" y="-97.5" font-family="Helvetica,sans-Serif" font-size="10.00">conf_part</text>
</a>
</g>
<!-- Node2&#45;&gt;Node1 -->
<g id="edge4" class="edge"><title>Node2&#45;&gt;Node1</title>
<path fill="none" stroke="#9a32cd" stroke-dasharray="5,2" d="M105.165,-82.8746C101.77,-79.3298 98.2336,-75.5684 95,-72 78.5536,-53.8511 60.1429,-31.8249 50.2423,-19.8309"/>
<polygon fill="#9a32cd" stroke="#9a32cd" points="102.722,-85.3837 112.195,-90.1292 107.749,-80.5123 102.722,-85.3837"/>
<text text-anchor="middle" x="102" y="-52.5" font-family="Helvetica,sans-Serif" font-size="10.00"> cs</text>
</g>
<!-- Node2&#45;&gt;Node2 -->
<g id="edge6" class="edge"><title>Node2&#45;&gt;Node2</title>
<path fill="none" stroke="#9a32cd" stroke-dasharray="5,2" d="M159.76,-106.991C164.153,-105.682 167,-103.352 167,-100 167,-94.5 159.333,-91.75 149.75,-91.75"/>
<polygon fill="#9a32cd" stroke="#9a32cd" points="159.235,-103.53 149.75,-108.25 160.109,-110.475 159.235,-103.53"/>
<text text-anchor="middle" x="187.5" y="-97.5" font-family="Helvetica,sans-Serif" font-size="10.00"> template</text>
</g>
<!-- Node3 -->
<g id="node6" class="node"><title>Node3</title>
<a xlink:href="structconf__item.html" target="_top" xlink:title="conf_item">
<polygon fill="none" stroke="black" points="145.5,-0.5 145.5,-19.5 204.5,-19.5 204.5,-0.5 145.5,-0.5"/>
<text text-anchor="middle" x="175" y="-7.5" font-family="Helvetica,sans-Serif" font-size="10.00">conf_item</text>
</a>
</g>
<!-- Node2&#45;&gt;Node3 -->
<g id="edge10" class="edge"><title>Node2&#45;&gt;Node3</title>
<path fill="none" stroke="#9a32cd" stroke-dasharray="5,2" d="M114.863,-80.6753C111.718,-67.7635 110.027,-50.5996 118,-38 124.148,-28.2846 134.842,-21.9967 145.318,-17.9591"/>
<polygon fill="#9a32cd" stroke="#9a32cd" points="111.516,-81.7003 117.665,-90.3276 118.238,-79.7483 111.516,-81.7003"/>
<text text-anchor="middle" x="133.5" y="-52.5" font-family="Helvetica,sans-Serif" font-size="10.00"> parent</text>
</g>
<!-- Node3&#45;&gt;Node2 -->
<g id="edge8" class="edge"><title>Node3&#45;&gt;Node2</title>
<path fill="none" stroke="#9a32cd" stroke-dasharray="5,2" d="M171.032,-29.4695C167.675,-42.223 161.953,-59.1359 153,-72 148.017,-79.1593 140.674,-85.5394 134.279,-90.2977"/>
<polygon fill="#9a32cd" stroke="#9a32cd" points="174.485,-30.0775 173.395,-19.5389 167.675,-28.4569 174.485,-30.0775"/>
<text text-anchor="middle" x="186" y="-63.5" font-family="Helvetica,sans-Serif" font-size="10.00"> tail</text>
<text text-anchor="middle" x="186" y="-52.5" font-family="Helvetica,sans-Serif" font-size="10.00">item</text>
<text text-anchor="middle" x="186" y="-41.5" font-family="Helvetica,sans-Serif" font-size="10.00">children</text>
</g>
<!-- Node3&#45;&gt;Node3 -->
<g id="edge12" class="edge"><title>Node3&#45;&gt;Node3</title>
<path fill="none" stroke="#9a32cd" stroke-dasharray="5,2" d="M214.812,-16.929C219.181,-15.6089 222,-13.2992 222,-10 222,-4.58594 214.41,-1.83661 204.833,-1.75201"/>
<polygon fill="#9a32cd" stroke="#9a32cd" points="214.288,-13.4678 204.833,-18.248 215.205,-20.4075 214.288,-13.4678"/>
<text text-anchor="middle" x="233" y="-7.5" font-family="Helvetica,sans-Serif" font-size="10.00"> next</text>
</g>
<!-- Node4 -->
<g id="node10" class="node"><title>Node4</title>
<a xlink:href="structCONF__PARSER.html" target="_top" xlink:title="CONF_PARSER">
<polygon fill="none" stroke="black" points="37,-190.5 37,-209.5 129,-209.5 129,-190.5 37,-190.5"/>
<text text-anchor="middle" x="83" y="-197.5" font-family="Helvetica,sans-Serif" font-size="10.00">CONF_PARSER</text>
</a>
</g>
<!-- Node4&#45;&gt;Node2 -->
<g id="edge14" class="edge"><title>Node4&#45;&gt;Node2</title>
<path fill="none" stroke="#9a32cd" stroke-dasharray="5,2" d="M83.1807,-180.157C84.0122,-165.277 86.748,-144.367 95,-128 98.5742,-120.911 104.647,-114.447 110.024,-109.622"/>
<polygon fill="#9a32cd" stroke="#9a32cd" points="79.6816,-180.077 82.8563,-190.185 86.6779,-180.303 79.6816,-180.077"/>
<text text-anchor="middle" x="116.5" y="-147.5" font-family="Helvetica,sans-Serif" font-size="10.00"> variables</text>
</g>
<!-- Node5 -->
<g id="node12" class="node"><title>Node5</title>
<a xlink:href="structrbtree__t.html" target="_top" xlink:title="rbtree_t">
<polygon fill="none" stroke="black" points="147,-190.5 147,-209.5 197,-209.5 197,-190.5 147,-190.5"/>
<text text-anchor="middle" x="172" y="-197.5" font-family="Helvetica,sans-Serif" font-size="10.00">rbtree_t</text>
</a>
</g>
<!-- Node5&#45;&gt;Node2 -->
<g id="edge16" class="edge"><title>Node5&#45;&gt;Node2</title>
<path fill="none" stroke="#9a32cd" stroke-dasharray="5,2" d="M163.963,-180.75C157.404,-166.235 147.671,-145.524 138,-128 134.574,-121.792 130.324,-115.042 126.931,-109.844"/>
<polygon fill="#9a32cd" stroke="#9a32cd" points="160.86,-182.386 168.132,-190.091 167.253,-179.533 160.86,-182.386"/>
<text text-anchor="middle" x="187" y="-164" font-family="Helvetica,sans-Serif" font-size="10.00"> data_tree</text>
<text text-anchor="middle" x="187" y="-153" font-family="Helvetica,sans-Serif" font-size="10.00">name2_tree</text>
<text text-anchor="middle" x="187" y="-142" font-family="Helvetica,sans-Serif" font-size="10.00">section_tree</text>
<text text-anchor="middle" x="187" y="-131" font-family="Helvetica,sans-Serif" font-size="10.00">pair_tree</text>
</g>
<!-- Node6 -->
<g id="node14" class="node"><title>Node6</title>
<a xlink:href="structrbnode__t.html" target="_top" xlink:title="rbnode_t">
<polygon fill="none" stroke="black" points="145,-264.5 145,-283.5 199,-283.5 199,-264.5 145,-264.5"/>
<text text-anchor="middle" x="172" y="-271.5" font-family="Helvetica,sans-Serif" font-size="10.00">rbnode_t</text>
</a>
</g>
<!-- Node6&#45;&gt;Node5 -->
<g id="edge18" class="edge"><title>Node6&#45;&gt;Node5</title>
<path fill="none" stroke="#9a32cd" stroke-dasharray="5,2" d="M172,-254.156C172,-239.712 172,-220.459 172,-209.531"/>
<polygon fill="#9a32cd" stroke="#9a32cd" points="168.5,-254.458 172,-264.458 175.5,-254.458 168.5,-254.458"/>
<text text-anchor="middle" x="184.5" y="-231.5" font-family="Helvetica,sans-Serif" font-size="10.00"> Root</text>
</g>
<!-- Node6&#45;&gt;Node6 -->
<g id="edge20" class="edge"><title>Node6&#45;&gt;Node6</title>
<path fill="none" stroke="#9a32cd" stroke-dasharray="5,2" d="M209.51,-280.464C214.038,-279.297 217,-277.142 217,-274 217,-268.844 209.024,-266.346 199.241,-266.507"/>
<polygon fill="#9a32cd" stroke="#9a32cd" points="208.842,-277.014 199.241,-281.493 209.54,-283.979 208.842,-277.014"/>
<text text-anchor="middle" x="231.5" y="-282.5" font-family="Helvetica,sans-Serif" font-size="10.00"> Left</text>
<text text-anchor="middle" x="231.5" y="-271.5" font-family="Helvetica,sans-Serif" font-size="10.00">Right</text>
<text text-anchor="middle" x="231.5" y="-260.5" font-family="Helvetica,sans-Serif" font-size="10.00">Parent</text>
</g>
</g>
</svg>
