<?xml version="1.0" encoding="UTF-8" standalone="no"?>
<!DOCTYPE svg PUBLIC "-//W3C//DTD SVG 1.1//EN"
 "http://www.w3.org/Graphics/SVG/1.1/DTD/svg11.dtd">
<!-- Generated by graphviz version 2.28.0 (20111211.2114)
 -->
<!-- Title: G Pages: 1 -->
<svg width="243pt" height="344pt"
 viewBox="0.00 0.00 243.00 344.50" xmlns="http://www.w3.org/2000/svg" xmlns:xlink="http://www.w3.org/1999/xlink">
<g id="graph1" class="graph" transform="scale(1 1) rotate(0) translate(4 340.5)">
<title>G</title>
<!-- Node1 -->
<g id="node1" class="node"><title>Node1</title>
<polygon fill="#bfbfbf" stroke="black" points="-0.5,-23.5 -0.5,-42.5 66.5,-42.5 66.5,-23.5 -0.5,-23.5"/>
<text text-anchor="middle" x="33" y="-30.5" font-family="Helvetica,sans-Serif" font-size="10.00">rad_listen_t</text>
</g>
<!-- Node1&#45;&gt;Node1 -->
<g id="edge2" class="edge"><title>Node1&#45;&gt;Node1</title>
<path fill="none" stroke="#9a32cd" stroke-dasharray="5,2" d="M58.0592,-45.2035C71.6161,-47.3276 84,-43.2598 84,-33 84,-20.25 64.875,-17.0625 48.1406,-23.4375"/>
<polygon fill="#9a32cd" stroke="#9a32cd" points="58.7045,-41.7535 48.1406,-42.5625 56.9033,-48.5178 58.7045,-41.7535"/>
<text text-anchor="middle" x="100" y="-58" font-family="Helvetica,sans-Serif" font-size="10.00"> next</text>
<text text-anchor="middle" x="100" y="-47" font-family="Helvetica,sans-Serif" font-size="10.00">encode</text>
<text text-anchor="middle" x="100" y="-36" font-family="Helvetica,sans-Serif" font-size="10.00">recv</text>
<text text-anchor="middle" x="100" y="-25" font-family="Helvetica,sans-Serif" font-size="10.00">print</text>
<text text-anchor="middle" x="100" y="-14" font-family="Helvetica,sans-Serif" font-size="10.00">send</text>
<text text-anchor="middle" x="100" y="-3" font-family="Helvetica,sans-Serif" font-size="10.00">decode</text>
</g>
<!-- Node2 -->
<g id="node3" class="node"><title>Node2</title>
<a xlink:href="structconf__part.html" target="_top" xlink:title="conf_part">
<polygon fill="none" stroke="black" points="81.5,-136.5 81.5,-155.5 138.5,-155.5 138.5,-136.5 81.5,-136.5"/>
<text text-anchor="middle" x="110" y="-143.5" font-family="Helvetica,sans-Serif" font-size="10.00">conf_part</text>
</a>
</g>
<!-- Node2&#45;&gt;Node1 -->
<g id="edge4" class="edge"><title>Node2&#45;&gt;Node1</title>
<path fill="none" stroke="#9a32cd" stroke-dasharray="5,2" d="M93.7158,-129.25C90.3494,-125.682 86.9376,-121.816 84,-118 64.1216,-92.1794 45.5161,-58.1289 37.3495,-42.5022"/>
<polygon fill="#9a32cd" stroke="#9a32cd" points="91.2991,-131.784 100.811,-136.45 96.2852,-126.871 91.2991,-131.784"/>
<text text-anchor="middle" x="91" y="-98.5" font-family="Helvetica,sans-Serif" font-size="10.00"> cs</text>
</g>
<!-- Node2&#45;&gt;Node2 -->
<g id="edge6" class="edge"><title>Node2&#45;&gt;Node2</title>
<path fill="none" stroke="#9a32cd" stroke-dasharray="5,2" d="M148.76,-152.991C153.153,-151.682 156,-149.352 156,-146 156,-140.5 148.333,-137.75 138.75,-137.75"/>
<polygon fill="#9a32cd" stroke="#9a32cd" points="148.235,-149.53 138.75,-154.25 149.109,-156.475 148.235,-149.53"/>
<text text-anchor="middle" x="176.5" y="-143.5" font-family="Helvetica,sans-Serif" font-size="10.00"> template</text>
</g>
<!-- Node3 -->
<g id="node6" class="node"><title>Node3</title>
<a xlink:href="structconf__item.html" target="_top" xlink:title="conf_item">
<polygon fill="none" stroke="black" points="134.5,-23.5 134.5,-42.5 193.5,-42.5 193.5,-23.5 134.5,-23.5"/>
<text text-anchor="middle" x="164" y="-30.5" font-family="Helvetica,sans-Serif" font-size="10.00">conf_item</text>
</a>
</g>
<!-- Node2&#45;&gt;Node3 -->
<g id="edge10" class="edge"><title>Node2&#45;&gt;Node3</title>
<path fill="none" stroke="#9a32cd" stroke-dasharray="5,2" d="M104.809,-126.473C102.299,-113.934 100.976,-97.2967 107,-84 109.485,-78.5143 137.544,-55.3214 153.345,-42.5402"/>
<polygon fill="#9a32cd" stroke="#9a32cd" points="101.42,-127.348 107.165,-136.25 108.225,-125.708 101.42,-127.348"/>
<text text-anchor="middle" x="122.5" y="-98.5" font-family="Helvetica,sans-Serif" font-size="10.00"> parent</text>
</g>
<!-- Node3&#45;&gt;Node2 -->
<g id="edge8" class="edge"><title>Node3&#45;&gt;Node2</title>
<path fill="none" stroke="#9a32cd" stroke-dasharray="5,2" d="M162.397,-52.5645C160.131,-70.4951 154.734,-97.8262 142,-118 137.344,-125.376 130.022,-131.77 123.556,-136.481"/>
<polygon fill="#9a32cd" stroke="#9a32cd" points="165.886,-52.8489 163.459,-42.5357 158.925,-52.1111 165.886,-52.8489"/>
<text text-anchor="middle" x="172" y="-109.5" font-family="Helvetica,sans-Serif" font-size="10.00"> tail</text>
<text text-anchor="middle" x="172" y="-98.5" font-family="Helvetica,sans-Serif" font-size="10.00">item</text>
<text text-anchor="middle" x="172" y="-87.5" font-family="Helvetica,sans-Serif" font-size="10.00">children</text>
</g>
<!-- Node3&#45;&gt;Node3 -->
<g id="edge12" class="edge"><title>Node3&#45;&gt;Node3</title>
<path fill="none" stroke="#9a32cd" stroke-dasharray="5,2" d="M187.82,-45.3202C200.026,-47.1673 211,-43.0605 211,-33 211,-20.25 193.375,-17.0625 177.953,-23.4375"/>
<polygon fill="#9a32cd" stroke="#9a32cd" points="188.526,-41.8835 177.953,-42.5625 186.642,-48.6251 188.526,-41.8835"/>
<text text-anchor="middle" x="222" y="-30.5" font-family="Helvetica,sans-Serif" font-size="10.00"> next</text>
</g>
<!-- Node4 -->
<g id="node10" class="node"><title>Node4</title>
<a xlink:href="structCONF__PARSER.html" target="_top" xlink:title="CONF_PARSER">
<polygon fill="none" stroke="black" points="26,-236.5 26,-255.5 118,-255.5 118,-236.5 26,-236.5"/>
<text text-anchor="middle" x="72" y="-243.5" font-family="Helvetica,sans-Serif" font-size="10.00">CONF_PARSER</text>
</a>
</g>
<!-- Node4&#45;&gt;Node2 -->
<g id="edge14" class="edge"><title>Node4&#45;&gt;Node2</title>
<path fill="none" stroke="#9a32cd" stroke-dasharray="5,2" d="M72.1807,-226.157C73.0122,-211.277 75.748,-190.367 84,-174 87.5742,-166.911 93.6466,-160.447 99.0244,-155.622"/>
<polygon fill="#9a32cd" stroke="#9a32cd" points="68.6816,-226.077 71.8563,-236.185 75.6779,-226.303 68.6816,-226.077"/>
<text text-anchor="middle" x="105.5" y="-193.5" font-family="Helvetica,sans-Serif" font-size="10.00"> variables</text>
</g>
<!-- Node5 -->
<g id="node12" class="node"><title>Node5</title>
<a xlink:href="structrbtree__t.html" target="_top" xlink:title="rbtree_t">
<polygon fill="none" stroke="black" points="136,-236.5 136,-255.5 186,-255.5 186,-236.5 136,-236.5"/>
<text text-anchor="middle" x="161" y="-243.5" font-family="Helvetica,sans-Serif" font-size="10.00">rbtree_t</text>
</a>
</g>
<!-- Node5&#45;&gt;Node2 -->
<g id="edge16" class="edge"><title>Node5&#45;&gt;Node2</title>
<path fill="none" stroke="#9a32cd" stroke-dasharray="5,2" d="M152.963,-226.75C146.404,-212.235 136.671,-191.524 127,-174 123.574,-167.792 119.324,-161.042 115.931,-155.844"/>
<polygon fill="#9a32cd" stroke="#9a32cd" points="149.86,-228.386 157.132,-236.091 156.253,-225.533 149.86,-228.386"/>
<text text-anchor="middle" x="175" y="-210" font-family="Helvetica,sans-Serif" font-size="10.00"> data_tree</text>
<text text-anchor="middle" x="175" y="-199" font-family="Helvetica,sans-Serif" font-size="10.00">name2_tree</text>
<text text-anchor="middle" x="175" y="-188" font-family="Helvetica,sans-Serif" font-size="10.00">section_tree</text>
<text text-anchor="middle" x="175" y="-177" font-family="Helvetica,sans-Serif" font-size="10.00">pair_tree</text>
</g>
<!-- Node6 -->
<g id="node14" class="node"><title>Node6</title>
<a xlink:href="structrbnode__t.html" target="_top" xlink:title="rbnode_t">
<polygon fill="none" stroke="black" points="134,-310.5 134,-329.5 188,-329.5 188,-310.5 134,-310.5"/>
<text text-anchor="middle" x="161" y="-317.5" font-family="Helvetica,sans-Serif" font-size="10.00">rbnode_t</text>
</a>
</g>
<!-- Node6&#45;&gt;Node5 -->
<g id="edge18" class="edge"><title>Node6&#45;&gt;Node5</title>
<path fill="none" stroke="#9a32cd" stroke-dasharray="5,2" d="M161,-300.156C161,-285.712 161,-266.459 161,-255.531"/>
<polygon fill="#9a32cd" stroke="#9a32cd" points="157.5,-300.458 161,-310.458 164.5,-300.458 157.5,-300.458"/>
<text text-anchor="middle" x="173.5" y="-277.5" font-family="Helvetica,sans-Serif" font-size="10.00"> Root</text>
</g>
<!-- Node6&#45;&gt;Node6 -->
<g id="edge20" class="edge"><title>Node6&#45;&gt;Node6</title>
<path fill="none" stroke="#9a32cd" stroke-dasharray="5,2" d="M198.51,-326.464C203.038,-325.297 206,-323.142 206,-320 206,-314.844 198.024,-312.346 188.241,-312.507"/>
<polygon fill="#9a32cd" stroke="#9a32cd" points="197.842,-323.014 188.241,-327.493 198.54,-329.979 197.842,-323.014"/>
<text text-anchor="middle" x="220.5" y="-328.5" font-family="Helvetica,sans-Serif" font-size="10.00"> Left</text>
<text text-anchor="middle" x="220.5" y="-317.5" font-family="Helvetica,sans-Serif" font-size="10.00">Right</text>
<text text-anchor="middle" x="220.5" y="-306.5" font-family="Helvetica,sans-Serif" font-size="10.00">Parent</text>
</g>
</g>
</svg>
