<?xml version="1.0" encoding="UTF-8" standalone="no"?>
<!DOCTYPE svg PUBLIC "-//W3C//DTD SVG 1.1//EN"
 "http://www.w3.org/Graphics/SVG/1.1/DTD/svg11.dtd">
<!-- Generated by graphviz version 2.28.0 (20111211.2114)
 -->
<!-- Title: G Pages: 1 -->
<!--zoomable-->
<svg id="main" version="1.1" xmlns="http://www.w3.org/2000/svg" xmlns:xlink="http://www.w3.org/1999/xlink" xml:space="preserve" onload="init(evt)">
        <defs>
                <circle id="rim" cx="0" cy="0" r="7"/>
                <circle id="rim2" cx="0" cy="0" r="3.5"/>
                <g id="zoomPlus">
                        <use xlink:href="#rim" fill="#404040">
                                <set attributeName="fill" to="#808080" begin="zoomplus.mouseover" end="zoomplus.mouseout"/>
                        </use>
                        <path d="M-4,0h8M0,-4v8" fill="none" stroke="white" stroke-width="1.5" pointer-events="none"/>
                </g>
                <g id="zoomMin">
                        <use xlink:href="#rim" fill="#404040">
                                <set attributeName="fill" to="#808080" begin="zoomminus.mouseover" end="zoomminus.mouseout"/>
                        </use>
                        <path d="M-4,0h8" fill="none" stroke="white" stroke-width="1.5" pointer-events="none"/>
                </g>
                <g id="dirArrow">
                        <path fill="none" stroke="white" stroke-width="1.5" d="M0,-3.0v7 M-2.5,-0.5L0,-3.0L2.5,-0.5"/>
                </g>
               <g id="resetDef">
                       <use xlink:href="#rim2" fill="#404040">
                               <set attributeName="fill" to="#808080" begin="reset.mouseover" end="reset.mouseout"/>
                       </use>
               </g>
        </defs>

<script type="text/javascript">
var viewWidth = 1596;
var viewHeight = 753;
var sectionId = 'dynsection-0';
</script>
<script xlink:href="svgpan.js"/>
<svg id="graph" class="graph">
<g id="viewport">
<title>G</title>
<!-- Node1 -->
<g id="node1" class="node"><title>Node1</title>
<polygon fill="#bfbfbf" stroke="black" points="1346,-613.472 1346,-632.472 1444,-632.472 1444,-613.472 1346,-613.472"/>
<text text-anchor="middle" x="1395" y="-620.472" font-family="Helvetica,sans-Serif" font-size="10.00">module_instance_t</text>
</g>
<!-- Node24 -->
<g id="node71" class="node"><title>Node24</title>
<a xlink:href="structfr__module__hup__t.html" target="_top" xlink:title="fr_module_hup_t">
<polygon fill="none" stroke="black" points="1498.5,-613.472 1498.5,-632.472 1587.5,-632.472 1587.5,-613.472 1498.5,-613.472"/>
<text text-anchor="middle" x="1543" y="-620.472" font-family="Helvetica,sans-Serif" font-size="10.00">fr_module_hup_t</text>
</a>
</g>
<!-- Node1&#45;&gt;Node24 -->
<g id="edge98" class="edge"><title>Node1&#45;&gt;Node24</title>
<path fill="none" stroke="#9a32cd" stroke-dasharray="5,2" d="M1454.22,-622.972C1468.91,-622.972 1484.43,-622.972 1498.27,-622.972"/>
<polygon fill="#9a32cd" stroke="#9a32cd" points="1454.21,-619.472 1444.21,-622.972 1454.21,-626.472 1454.21,-619.472"/>
<text text-anchor="middle" x="1471" y="-625.972" font-family="Helvetica,sans-Serif" font-size="10.00"> mi</text>
</g>
<!-- Node2 -->
<g id="node2" class="node"><title>Node2</title>
<a xlink:href="structconf__part.html" target="_top" xlink:title="conf_part">
<polygon fill="none" stroke="black" points="314.5,-561.472 314.5,-580.472 371.5,-580.472 371.5,-561.472 314.5,-561.472"/>
<text text-anchor="middle" x="343" y="-568.472" font-family="Helvetica,sans-Serif" font-size="10.00">conf_part</text>
</a>
</g>
<!-- Node2&#45;&gt;Node1 -->
<g id="edge2" class="edge"><title>Node2&#45;&gt;Node1</title>
<path fill="none" stroke="#9a32cd" stroke-dasharray="5,2" d="M364.431,-586.762C393.956,-607.955 451.052,-642.972 506,-642.972 506,-642.972 506,-642.972 1243,-642.972 1277.91,-642.972 1316.96,-637.655 1346.61,-632.504"/>
<polygon fill="#9a32cd" stroke="#9a32cd" points="366.312,-583.8 356.186,-580.682 362.158,-589.434 366.312,-583.8"/>
<text text-anchor="middle" x="908" y="-645.972" font-family="Helvetica,sans-Serif" font-size="10.00"> cs</text>
</g>
<!-- Node2&#45;&gt;Node2 -->
<g id="edge4" class="edge"><title>Node2&#45;&gt;Node2</title>
<path fill="none" stroke="#9a32cd" stroke-dasharray="5,2" d="M327.075,-590.372C328.138,-595.287 333.447,-598.972 343,-598.972 358.285,-598.972 362.704,-589.538 356.255,-580.729"/>
<polygon fill="#9a32cd" stroke="#9a32cd" points="330.449,-591.301 329.745,-580.729 323.703,-589.433 330.449,-591.301"/>
<text text-anchor="middle" x="343" y="-601.972" font-family="Helvetica,sans-Serif" font-size="10.00"> template</text>
</g>
<!-- Node3 -->
<g id="node5" class="node"><title>Node3</title>
<a xlink:href="structconf__item.html" target="_top" xlink:title="conf_item">
<polygon fill="none" stroke="black" points="477.5,-696.472 477.5,-715.472 536.5,-715.472 536.5,-696.472 477.5,-696.472"/>
<text text-anchor="middle" x="507" y="-703.472" font-family="Helvetica,sans-Serif" font-size="10.00">conf_item</text>
</a>
</g>
<!-- Node2&#45;&gt;Node3 -->
<g id="edge8" class="edge"><title>Node2&#45;&gt;Node3</title>
<path fill="none" stroke="#9a32cd" stroke-dasharray="5,2" d="M346.18,-590.848C350.838,-622.457 364.938,-683.326 406,-709.972 426.988,-723.592 456.005,-720.624 477.378,-715.42"/>
<polygon fill="#9a32cd" stroke="#9a32cd" points="349.614,-590.112 344.859,-580.644 342.672,-591.011 349.614,-590.112"/>
<text text-anchor="middle" x="429" y="-721.972" font-family="Helvetica,sans-Serif" font-size="10.00"> parent</text>
</g>
<!-- Node10 -->
<g id="node22" class="node"><title>Node10</title>
<a xlink:href="structradclient.html" target="_top" xlink:title="radclient">
<polygon fill="none" stroke="black" points="808.5,-286.472 808.5,-305.472 861.5,-305.472 861.5,-286.472 808.5,-286.472"/>
<text text-anchor="middle" x="835" y="-293.472" font-family="Helvetica,sans-Serif" font-size="10.00">radclient</text>
</a>
</g>
<!-- Node2&#45;&gt;Node10 -->
<g id="edge50" class="edge"><title>Node2&#45;&gt;Node10</title>
<path fill="none" stroke="#9a32cd" stroke-dasharray="5,2" d="M358.681,-553.524C370.792,-539.532 388.729,-519.703 406,-503.972 432.484,-479.849 439.072,-473.05 470,-454.972 485.965,-445.64 759.169,-331.633 776,-323.972 789.026,-318.043 803.526,-311.043 814.77,-305.526"/>
<polygon fill="#9a32cd" stroke="#9a32cd" points="355.791,-551.519 351.952,-561.393 361.111,-556.068 355.791,-551.519"/>
<text text-anchor="middle" x="581" y="-416.972" font-family="Helvetica,sans-Serif" font-size="10.00"> cs</text>
</g>
<!-- Node11 -->
<g id="node24" class="node"><title>Node11</title>
<a xlink:href="structhome__pool__t.html" target="_top" xlink:title="home_pool_t">
<polygon fill="none" stroke="black" points="621,-278.472 621,-297.472 693,-297.472 693,-278.472 621,-278.472"/>
<text text-anchor="middle" x="657" y="-285.472" font-family="Helvetica,sans-Serif" font-size="10.00">home_pool_t</text>
</a>
</g>
<!-- Node2&#45;&gt;Node11 -->
<g id="edge44" class="edge"><title>Node2&#45;&gt;Node11</title>
<path fill="none" stroke="#9a32cd" stroke-dasharray="5,2" d="M347.944,-551.171C354.938,-520.392 372.087,-460.603 406,-421.972 468.222,-351.095 518.842,-384.02 600,-335.972 618.291,-325.143 636.407,-308.176 646.885,-297.584"/>
<polygon fill="#9a32cd" stroke="#9a32cd" points="344.488,-550.593 345.814,-561.105 351.332,-552.061 344.488,-550.593"/>
<text text-anchor="middle" x="507" y="-379.972" font-family="Helvetica,sans-Serif" font-size="10.00"> cs</text>
</g>
<!-- Node12 -->
<g id="node26" class="node"><title>Node12</title>
<a xlink:href="structhome__server.html" target="_top" xlink:title="home_server">
<polygon fill="none" stroke="black" points="470.5,-236.472 470.5,-255.472 543.5,-255.472 543.5,-236.472 470.5,-236.472"/>
<text text-anchor="middle" x="507" y="-243.472" font-family="Helvetica,sans-Serif" font-size="10.00">home_server</text>
</a>
</g>
<!-- Node2&#45;&gt;Node12 -->
<g id="edge32" class="edge"><title>Node2&#45;&gt;Node12</title>
<path fill="none" stroke="#9a32cd" stroke-dasharray="5,2" d="M345.513,-551.346C349.508,-509.354 363.166,-408.858 406,-337.972 417.957,-318.185 470.223,-274.768 494.066,-255.504"/>
<polygon fill="#9a32cd" stroke="#9a32cd" points="342.023,-551.087 344.643,-561.352 348.996,-551.693 342.023,-551.087"/>
<text text-anchor="middle" x="429" y="-340.972" font-family="Helvetica,sans-Serif" font-size="10.00"> cs</text>
</g>
<!-- Node17 -->
<g id="node43" class="node"><title>Node17</title>
<a xlink:href="structmain__config__t.html" target="_top" xlink:title="main_config_t">
<polygon fill="none" stroke="black" points="618.5,-468.472 618.5,-487.472 695.5,-487.472 695.5,-468.472 618.5,-468.472"/>
<text text-anchor="middle" x="657" y="-475.472" font-family="Helvetica,sans-Serif" font-size="10.00">main_config_t</text>
</a>
</g>
<!-- Node2&#45;&gt;Node17 -->
<g id="edge62" class="edge"><title>Node2&#45;&gt;Node17</title>
<path fill="none" stroke="#9a32cd" stroke-dasharray="5,2" d="M381.517,-580.399C422.794,-588.907 490.391,-597.269 544,-576.972 592.541,-558.594 633.596,-508.507 649.235,-487.473"/>
<polygon fill="#9a32cd" stroke="#9a32cd" points="382.129,-576.95 371.614,-578.25 380.644,-583.791 382.129,-576.95"/>
<text text-anchor="middle" x="507" y="-591.972" font-family="Helvetica,sans-Serif" font-size="10.00"> config</text>
</g>
<!-- Node18 -->
<g id="node45" class="node"><title>Node18</title>
<a xlink:href="structrad__listen__t.html" target="_top" xlink:title="rad_listen_t">
<polygon fill="none" stroke="black" points="473.5,-464.472 473.5,-483.472 540.5,-483.472 540.5,-464.472 473.5,-464.472"/>
<text text-anchor="middle" x="507" y="-471.472" font-family="Helvetica,sans-Serif" font-size="10.00">rad_listen_t</text>
</a>
</g>
<!-- Node2&#45;&gt;Node18 -->
<g id="edge60" class="edge"><title>Node2&#45;&gt;Node18</title>
<path fill="none" stroke="#9a32cd" stroke-dasharray="5,2" d="M368.898,-556.064C402.553,-535.913 461.603,-500.555 489.94,-483.589"/>
<polygon fill="#9a32cd" stroke="#9a32cd" points="366.907,-553.177 360.125,-561.317 370.503,-559.183 366.907,-553.177"/>
<text text-anchor="middle" x="429" y="-533.972" font-family="Helvetica,sans-Serif" font-size="10.00"> cs</text>
</g>
<!-- Node3&#45;&gt;Node2 -->
<g id="edge6" class="edge"><title>Node3&#45;&gt;Node2</title>
<path fill="none" stroke="#9a32cd" stroke-dasharray="5,2" d="M479.568,-691.579C470.822,-686.869 461.019,-681.648 452,-676.972 431.707,-666.453 423.535,-668.635 406,-653.972 379.922,-632.166 358.556,-597.318 349.159,-580.571"/>
<polygon fill="#9a32cd" stroke="#9a32cd" points="478.097,-694.762 488.558,-696.439 481.426,-688.604 478.097,-694.762"/>
<text text-anchor="middle" x="429" y="-701.972" font-family="Helvetica,sans-Serif" font-size="10.00"> tail</text>
<text text-anchor="middle" x="429" y="-690.972" font-family="Helvetica,sans-Serif" font-size="10.00">item</text>
<text text-anchor="middle" x="429" y="-679.972" font-family="Helvetica,sans-Serif" font-size="10.00">children</text>
</g>
<!-- Node3&#45;&gt;Node3 -->
<g id="edge10" class="edge"><title>Node3&#45;&gt;Node3</title>
<path fill="none" stroke="#9a32cd" stroke-dasharray="5,2" d="M493.372,-725.739C494.443,-730.469 498.985,-733.972 507,-733.972 520.152,-733.972 523.954,-724.538 518.406,-715.729"/>
<polygon fill="#9a32cd" stroke="#9a32cd" points="496.844,-726.25 495.594,-715.729 490.01,-724.733 496.844,-726.25"/>
<text text-anchor="middle" x="507" y="-736.972" font-family="Helvetica,sans-Serif" font-size="10.00"> next</text>
</g>
<!-- Node4 -->
<g id="node9" class="node"><title>Node4</title>
<a xlink:href="structCONF__PARSER.html" target="_top" xlink:title="CONF_PARSER">
<polygon fill="none" stroke="black" points="116,-594.472 116,-613.472 208,-613.472 208,-594.472 116,-594.472"/>
<text text-anchor="middle" x="162" y="-601.472" font-family="Helvetica,sans-Serif" font-size="10.00">CONF_PARSER</text>
</a>
</g>
<!-- Node4&#45;&gt;Node2 -->
<g id="edge12" class="edge"><title>Node4&#45;&gt;Node2</title>
<path fill="none" stroke="#9a32cd" stroke-dasharray="5,2" d="M218.261,-593.785C250.16,-587.904 288.893,-580.763 314.43,-576.055"/>
<polygon fill="#9a32cd" stroke="#9a32cd" points="217.369,-590.39 208.169,-595.645 218.638,-597.274 217.369,-590.39"/>
<text text-anchor="middle" x="253" y="-594.972" font-family="Helvetica,sans-Serif" font-size="10.00"> variables</text>
</g>
<!-- Node5 -->
<g id="node11" class="node"><title>Node5</title>
<a xlink:href="structrbtree__t.html" target="_top" xlink:title="rbtree_t">
<polygon fill="none" stroke="black" points="137,-527.472 137,-546.472 187,-546.472 187,-527.472 137,-527.472"/>
<text text-anchor="middle" x="162" y="-534.472" font-family="Helvetica,sans-Serif" font-size="10.00">rbtree_t</text>
</a>
</g>
<!-- Node5&#45;&gt;Node2 -->
<g id="edge14" class="edge"><title>Node5&#45;&gt;Node2</title>
<path fill="none" stroke="#9a32cd" stroke-dasharray="5,2" d="M197.17,-530.929C220.848,-527.984 252.869,-526.492 280,-533.972 299.093,-539.236 318.235,-552.097 330.093,-561.171"/>
<polygon fill="#9a32cd" stroke="#9a32cd" points="196.672,-527.465 187.249,-532.308 197.636,-534.398 196.672,-527.465"/>
<text text-anchor="middle" x="253" y="-569.972" font-family="Helvetica,sans-Serif" font-size="10.00"> data_tree</text>
<text text-anchor="middle" x="253" y="-558.972" font-family="Helvetica,sans-Serif" font-size="10.00">name2_tree</text>
<text text-anchor="middle" x="253" y="-547.972" font-family="Helvetica,sans-Serif" font-size="10.00">section_tree</text>
<text text-anchor="middle" x="253" y="-536.972" font-family="Helvetica,sans-Serif" font-size="10.00">pair_tree</text>
</g>
<!-- Node6 -->
<g id="node13" class="node"><title>Node6</title>
<a xlink:href="structrbnode__t.html" target="_top" xlink:title="rbnode_t">
<polygon fill="none" stroke="black" points="0,-527.472 0,-546.472 54,-546.472 54,-527.472 0,-527.472"/>
<text text-anchor="middle" x="27" y="-534.472" font-family="Helvetica,sans-Serif" font-size="10.00">rbnode_t</text>
</a>
</g>
<!-- Node6&#45;&gt;Node5 -->
<g id="edge16" class="edge"><title>Node6&#45;&gt;Node5</title>
<path fill="none" stroke="#9a32cd" stroke-dasharray="5,2" d="M64.3432,-536.972C87.3013,-536.972 116.343,-536.972 136.572,-536.972"/>
<polygon fill="#9a32cd" stroke="#9a32cd" points="64.2766,-533.472 54.2765,-536.972 64.2765,-540.472 64.2766,-533.472"/>
<text text-anchor="middle" x="85" y="-539.972" font-family="Helvetica,sans-Serif" font-size="10.00"> Root</text>
</g>
<!-- Node6&#45;&gt;Node6 -->
<g id="edge18" class="edge"><title>Node6&#45;&gt;Node6</title>
<path fill="none" stroke="#9a32cd" stroke-dasharray="5,2" d="M16.3189,-556.739C17.1578,-561.469 20.7182,-564.972 27,-564.972 37.3086,-564.972 40.2884,-555.538 35.9395,-546.729"/>
<polygon fill="#9a32cd" stroke="#9a32cd" points="19.7944,-557.181 18.0605,-546.729 12.898,-555.981 19.7944,-557.181"/>
<text text-anchor="middle" x="27" y="-589.972" font-family="Helvetica,sans-Serif" font-size="10.00"> Left</text>
<text text-anchor="middle" x="27" y="-578.972" font-family="Helvetica,sans-Serif" font-size="10.00">Right</text>
<text text-anchor="middle" x="27" y="-567.972" font-family="Helvetica,sans-Serif" font-size="10.00">Parent</text>
</g>
<!-- Node7 -->
<g id="node16" class="node"><title>Node7</title>
<a xlink:href="structmodule__entry__t.html" target="_top" xlink:title="module_entry_t">
<polygon fill="none" stroke="black" points="1200.5,-578.472 1200.5,-597.472 1283.5,-597.472 1283.5,-578.472 1200.5,-578.472"/>
<text text-anchor="middle" x="1242" y="-585.472" font-family="Helvetica,sans-Serif" font-size="10.00">module_entry_t</text>
</a>
</g>
<!-- Node7&#45;&gt;Node1 -->
<g id="edge20" class="edge"><title>Node7&#45;&gt;Node1</title>
<path fill="none" stroke="#9a32cd" stroke-dasharray="5,2" d="M1293.67,-599.718C1312.92,-604.178 1334.58,-609.2 1352.84,-613.432"/>
<polygon fill="#9a32cd" stroke="#9a32cd" points="1294.39,-596.292 1283.86,-597.444 1292.81,-603.111 1294.39,-596.292"/>
<text text-anchor="middle" x="1315" y="-609.972" font-family="Helvetica,sans-Serif" font-size="10.00"> entry</text>
</g>
<!-- Node8 -->
<g id="node18" class="node"><title>Node8</title>
<a xlink:href="structmodule__t.html" target="_top" xlink:title="module_t">
<polygon fill="none" stroke="black" points="1072,-527.472 1072,-546.472 1128,-546.472 1128,-527.472 1072,-527.472"/>
<text text-anchor="middle" x="1100" y="-534.472" font-family="Helvetica,sans-Serif" font-size="10.00">module_t</text>
</a>
</g>
<!-- Node8&#45;&gt;Node7 -->
<g id="edge22" class="edge"><title>Node8&#45;&gt;Node7</title>
<path fill="none" stroke="#9a32cd" stroke-dasharray="5,2" d="M1136.93,-550.06C1161.25,-558.919 1192.82,-570.421 1214.79,-578.423"/>
<polygon fill="#9a32cd" stroke="#9a32cd" points="1137.93,-546.699 1127.33,-546.565 1135.53,-553.276 1137.93,-546.699"/>
<text text-anchor="middle" x="1164" y="-567.972" font-family="Helvetica,sans-Serif" font-size="10.00"> module</text>
</g>
<!-- Node9 -->
<g id="node20" class="node"><title>Node9</title>
<a xlink:href="structauth__req.html" target="_top" xlink:title="auth_req">
<polygon fill="none" stroke="black" points="940,-321.472 940,-340.472 994,-340.472 994,-321.472 940,-321.472"/>
<text text-anchor="middle" x="967" y="-328.472" font-family="Helvetica,sans-Serif" font-size="10.00">auth_req</text>
</a>
</g>
<!-- Node9&#45;&gt;Node8 -->
<g id="edge24" class="edge"><title>Node9&#45;&gt;Node8</title>
<path fill="none" stroke="#9a32cd" stroke-dasharray="5,2" d="M979.516,-349.081C1006.31,-391.211 1072.1,-494.677 1092.72,-527.094"/>
<polygon fill="#9a32cd" stroke="#9a32cd" points="982.462,-347.192 974.143,-340.632 976.555,-350.948 982.462,-347.192"/>
<text text-anchor="middle" x="1033" y="-466.972" font-family="Helvetica,sans-Serif" font-size="10.00"> methods</text>
</g>
<!-- Node9&#45;&gt;Node9 -->
<g id="edge82" class="edge"><title>Node9&#45;&gt;Node9</title>
<path fill="none" stroke="#9a32cd" stroke-dasharray="5,2" d="M956.319,-350.739C957.158,-355.469 960.718,-358.972 967,-358.972 977.309,-358.972 980.288,-349.538 975.939,-340.729"/>
<polygon fill="#9a32cd" stroke="#9a32cd" points="959.794,-351.181 958.061,-340.729 952.898,-349.981 959.794,-351.181"/>
<text text-anchor="middle" x="967" y="-405.972" font-family="Helvetica,sans-Serif" font-size="10.00"> coa</text>
<text text-anchor="middle" x="967" y="-394.972" font-family="Helvetica,sans-Serif" font-size="10.00">radlog</text>
<text text-anchor="middle" x="967" y="-383.972" font-family="Helvetica,sans-Serif" font-size="10.00">handle</text>
<text text-anchor="middle" x="967" y="-372.972" font-family="Helvetica,sans-Serif" font-size="10.00">parent</text>
<text text-anchor="middle" x="967" y="-361.972" font-family="Helvetica,sans-Serif" font-size="10.00">process</text>
</g>
<!-- Node10&#45;&gt;Node9 -->
<g id="edge26" class="edge"><title>Node10&#45;&gt;Node9</title>
<path fill="none" stroke="#9a32cd" stroke-dasharray="5,2" d="M871.491,-305.527C893.118,-311.35 920.277,-318.662 939.925,-323.952"/>
<polygon fill="#9a32cd" stroke="#9a32cd" points="872.25,-302.107 861.684,-302.887 870.43,-308.867 872.25,-302.107"/>
<text text-anchor="middle" x="908" y="-321.972" font-family="Helvetica,sans-Serif" font-size="10.00"> client</text>
</g>
<!-- Node11&#45;&gt;Node9 -->
<g id="edge84" class="edge"><title>Node11&#45;&gt;Node9</title>
<path fill="none" stroke="#9a32cd" stroke-dasharray="5,2" d="M689.549,-301.189C697.427,-304.103 705.933,-306.926 714,-308.972 792.289,-328.828 813.424,-328.403 894,-333.972 909.227,-335.025 926.293,-334.393 939.987,-333.443"/>
<polygon fill="#9a32cd" stroke="#9a32cd" points="690.574,-297.833 679.985,-297.502 688.056,-304.365 690.574,-297.833"/>
<text text-anchor="middle" x="835" y="-335.972" font-family="Helvetica,sans-Serif" font-size="10.00"> home_pool</text>
</g>
<!-- Node11&#45;&gt;Node10 -->
<g id="edge28" class="edge"><title>Node11&#45;&gt;Node10</title>
<path fill="none" stroke="#9a32cd" stroke-dasharray="5,2" d="M703.599,-290.045C736.909,-291.559 780.869,-293.557 808.284,-294.803"/>
<polygon fill="#9a32cd" stroke="#9a32cd" points="703.342,-286.53 693.193,-289.572 703.024,-293.523 703.342,-286.53"/>
<text text-anchor="middle" x="745" y="-296.972" font-family="Helvetica,sans-Serif" font-size="10.00"> coa_pool</text>
</g>
<!-- Node12&#45;&gt;Node9 -->
<g id="edge86" class="edge"><title>Node12&#45;&gt;Node9</title>
<path fill="none" stroke="#9a32cd" stroke-dasharray="5,2" d="M553.79,-243.252C556.567,-243.142 559.321,-243.047 562,-242.972 578.882,-242.504 583.112,-242.78 600,-242.972 723.586,-244.376 762.944,-227.034 876,-276.972 904.669,-289.636 935.442,-309.659 952.549,-321.436"/>
<polygon fill="#9a32cd" stroke="#9a32cd" points="553.548,-239.759 543.716,-243.708 553.864,-246.752 553.548,-239.759"/>
<text text-anchor="middle" x="745" y="-248.972" font-family="Helvetica,sans-Serif" font-size="10.00"> home_server</text>
</g>
<!-- Node12&#45;&gt;Node10 -->
<g id="edge46" class="edge"><title>Node12&#45;&gt;Node10</title>
<path fill="none" stroke="#9a32cd" stroke-dasharray="5,2" d="M553.893,-246.283C592.144,-247.167 647.943,-249.91 696,-257.972 735.947,-264.674 780.971,-278.247 808.411,-287.224"/>
<polygon fill="#9a32cd" stroke="#9a32cd" points="553.658,-242.778 543.591,-246.08 553.52,-249.777 553.658,-242.778"/>
<text text-anchor="middle" x="657" y="-260.972" font-family="Helvetica,sans-Serif" font-size="10.00"> coa_server</text>
</g>
<!-- Node12&#45;&gt;Node11 -->
<g id="edge30" class="edge"><title>Node12&#45;&gt;Node11</title>
<path fill="none" stroke="#9a32cd" stroke-dasharray="5,2" d="M551.294,-258.258C573.938,-264.684 601.245,-272.434 622.294,-278.407"/>
<polygon fill="#9a32cd" stroke="#9a32cd" points="552.159,-254.866 541.583,-255.503 550.248,-261.6 552.159,-254.866"/>
<text text-anchor="middle" x="581" y="-285.972" font-family="Helvetica,sans-Serif" font-size="10.00"> fallback</text>
<text text-anchor="middle" x="581" y="-274.972" font-family="Helvetica,sans-Serif" font-size="10.00">servers</text>
</g>
<!-- Node13 -->
<g id="node29" class="node"><title>Node13</title>
<a xlink:href="structfr__socket__limit__t.html" target="_top" xlink:title="fr_socket_limit_t">
<polygon fill="none" stroke="black" points="298.5,-281.472 298.5,-300.472 387.5,-300.472 387.5,-281.472 298.5,-281.472"/>
<text text-anchor="middle" x="343" y="-288.472" font-family="Helvetica,sans-Serif" font-size="10.00">fr_socket_limit_t</text>
</a>
</g>
<!-- Node13&#45;&gt;Node10 -->
<g id="edge48" class="edge"><title>Node13&#45;&gt;Node10</title>
<path fill="none" stroke="#9a32cd" stroke-dasharray="5,2" d="M397.888,-294.717C453.122,-298.415 541.511,-303.943 618,-306.972 660.643,-308.661 671.326,-308.528 714,-308.972 741.554,-309.259 748.612,-312.004 776,-308.972 786.667,-307.791 798.239,-305.425 808.221,-303.03"/>
<polygon fill="#9a32cd" stroke="#9a32cd" points="397.847,-291.207 387.634,-294.026 397.376,-298.191 397.847,-291.207"/>
<text text-anchor="middle" x="581" y="-309.972" font-family="Helvetica,sans-Serif" font-size="10.00"> limit</text>
</g>
<!-- Node13&#45;&gt;Node12 -->
<g id="edge34" class="edge"><title>Node13&#45;&gt;Node12</title>
<path fill="none" stroke="#9a32cd" stroke-dasharray="5,2" d="M388.086,-278.726C414.401,-271.417 447.327,-262.27 471.693,-255.502"/>
<polygon fill="#9a32cd" stroke="#9a32cd" points="387.054,-275.38 378.356,-281.429 388.928,-282.125 387.054,-275.38"/>
<text text-anchor="middle" x="429" y="-275.972" font-family="Helvetica,sans-Serif" font-size="10.00"> limit</text>
</g>
<!-- Node14 -->
<g id="node31" class="node"><title>Node14</title>
<a xlink:href="structfr__event__t.html" target="_top" xlink:title="fr_event_t">
<polygon fill="none" stroke="black" points="313,-119.472 313,-138.472 373,-138.472 373,-119.472 313,-119.472"/>
<text text-anchor="middle" x="343" y="-126.472" font-family="Helvetica,sans-Serif" font-size="10.00">fr_event_t</text>
</a>
</g>
<!-- Node14&#45;&gt;Node9 -->
<g id="edge90" class="edge"><title>Node14&#45;&gt;Node9</title>
<path fill="none" stroke="#9a32cd" stroke-dasharray="5,2" d="M383.095,-119.339C423.659,-110.811 488.772,-101.247 544,-111.972 700.203,-142.306 738.75,-165.462 876,-245.972 911.408,-266.742 944.079,-303.835 958.388,-321.333"/>
<polygon fill="#9a32cd" stroke="#9a32cd" points="382.103,-115.973 373.082,-121.528 383.599,-122.811 382.103,-115.973"/>
<text text-anchor="middle" x="657" y="-154.972" font-family="Helvetica,sans-Serif" font-size="10.00"> ev</text>
</g>
<!-- Node14&#45;&gt;Node12 -->
<g id="edge36" class="edge"><title>Node14&#45;&gt;Node12</title>
<path fill="none" stroke="#9a32cd" stroke-dasharray="5,2" d="M366.871,-144.329C388.906,-159.246 423.066,-182.698 452,-203.972 466.736,-214.807 483.284,-227.805 494.131,-236.443"/>
<polygon fill="#9a32cd" stroke="#9a32cd" points="368.746,-141.371 358.5,-138.676 364.829,-147.173 368.746,-141.371"/>
<text text-anchor="middle" x="429" y="-206.972" font-family="Helvetica,sans-Serif" font-size="10.00"> ev</text>
</g>
<!-- Node14&#45;&gt;Node14 -->
<g id="edge38" class="edge"><title>Node14&#45;&gt;Node14</title>
<path fill="none" stroke="#9a32cd" stroke-dasharray="5,2" d="M327.075,-148.372C328.138,-153.287 333.447,-156.972 343,-156.972 358.285,-156.972 362.704,-147.538 356.255,-138.729"/>
<polygon fill="#9a32cd" stroke="#9a32cd" points="330.449,-149.301 329.745,-138.729 323.703,-147.433 330.449,-149.301"/>
<text text-anchor="middle" x="343" y="-159.972" font-family="Helvetica,sans-Serif" font-size="10.00"> ev_p</text>
</g>
<!-- Node15 -->
<g id="node34" class="node"><title>Node15</title>
<a xlink:href="structfr__ipaddr__t.html" target="_top" xlink:title="fr_ipaddr_t">
<polygon fill="none" stroke="black" points="312,-190.472 312,-209.472 374,-209.472 374,-190.472 312,-190.472"/>
<text text-anchor="middle" x="343" y="-197.472" font-family="Helvetica,sans-Serif" font-size="10.00">fr_ipaddr_t</text>
</a>
</g>
<!-- Node15&#45;&gt;Node10 -->
<g id="edge52" class="edge"><title>Node15&#45;&gt;Node10</title>
<path fill="none" stroke="#9a32cd" stroke-dasharray="5,2" d="M384.112,-194.748C463.284,-186.264 643.448,-176.124 776,-237.972 798.97,-248.69 818.038,-272.544 827.525,-286.085"/>
<polygon fill="#9a32cd" stroke="#9a32cd" points="383.62,-191.281 374.073,-195.874 384.4,-198.238 383.62,-191.281"/>
<text text-anchor="middle" x="581" y="-195.972" font-family="Helvetica,sans-Serif" font-size="10.00"> ipaddr</text>
</g>
<!-- Node15&#45;&gt;Node12 -->
<g id="edge40" class="edge"><title>Node15&#45;&gt;Node12</title>
<path fill="none" stroke="#9a32cd" stroke-dasharray="5,2" d="M384.06,-211.347C411.234,-219.063 446.749,-229.148 472.436,-236.442"/>
<polygon fill="#9a32cd" stroke="#9a32cd" points="384.667,-207.881 374.091,-208.517 382.755,-214.615 384.667,-207.881"/>
<text text-anchor="middle" x="429" y="-243.972" font-family="Helvetica,sans-Serif" font-size="10.00"> ipaddr</text>
<text text-anchor="middle" x="429" y="-232.972" font-family="Helvetica,sans-Serif" font-size="10.00">src_ipaddr</text>
</g>
<!-- Node15&#45;&gt;Node17 -->
<g id="edge64" class="edge"><title>Node15&#45;&gt;Node17</title>
<path fill="none" stroke="#9a32cd" stroke-dasharray="5,2" d="M357.286,-217.915C367.102,-231.968 380.084,-252.359 388,-271.972 401.802,-306.17 383.305,-323.905 406,-352.972 436.013,-391.412 573.014,-446.548 630.496,-468.465"/>
<polygon fill="#9a32cd" stroke="#9a32cd" points="360.047,-215.758 351.378,-209.667 354.356,-219.835 360.047,-215.758"/>
<text text-anchor="middle" x="507" y="-435.972" font-family="Helvetica,sans-Serif" font-size="10.00"> myip</text>
</g>
<!-- Node19 -->
<g id="node51" class="node"><title>Node19</title>
<a xlink:href="structradius__packet.html" target="_top" xlink:title="radius_packet">
<polygon fill="none" stroke="black" points="618.5,-57.4723 618.5,-76.4723 695.5,-76.4723 695.5,-57.4723 618.5,-57.4723"/>
<text text-anchor="middle" x="657" y="-64.4723" font-family="Helvetica,sans-Serif" font-size="10.00">radius_packet</text>
</a>
</g>
<!-- Node15&#45;&gt;Node19 -->
<g id="edge78" class="edge"><title>Node15&#45;&gt;Node19</title>
<path fill="none" stroke="#9a32cd" stroke-dasharray="5,2" d="M371.195,-185.813C381.948,-180.363 394.47,-174.198 406,-168.972 487.123,-132.207 585.539,-93.8293 630.894,-76.4844"/>
<polygon fill="#9a32cd" stroke="#9a32cd" points="369.581,-182.707 362.271,-190.377 372.768,-188.94 369.581,-182.707"/>
<text text-anchor="middle" x="507" y="-154.972" font-family="Helvetica,sans-Serif" font-size="10.00"> dst_ipaddr</text>
<text text-anchor="middle" x="507" y="-143.972" font-family="Helvetica,sans-Serif" font-size="10.00">src_ipaddr</text>
</g>
<!-- Node16 -->
<g id="node36" class="node"><title>Node16</title>
<a xlink:href="structin6__addr.html" target="_top" xlink:title="in6_addr">
<polygon fill="none" stroke="black" points="135.5,-120.472 135.5,-139.472 188.5,-139.472 188.5,-120.472 135.5,-120.472"/>
<text text-anchor="middle" x="162" y="-127.472" font-family="Helvetica,sans-Serif" font-size="10.00">in6_addr</text>
</a>
</g>
<!-- Node16&#45;&gt;Node15 -->
<g id="edge42" class="edge"><title>Node16&#45;&gt;Node15</title>
<path fill="none" stroke="#9a32cd" stroke-dasharray="5,2" d="M196.9,-143.229C232.085,-156.989 286.255,-178.173 317.496,-190.39"/>
<polygon fill="#9a32cd" stroke="#9a32cd" points="198.102,-139.941 187.514,-139.559 195.552,-146.46 198.102,-139.941"/>
<text text-anchor="middle" x="253" y="-178.972" font-family="Helvetica,sans-Serif" font-size="10.00"> ip6addr</text>
</g>
<!-- Node21 -->
<g id="node55" class="node"><title>Node21</title>
<a xlink:href="unionvalue__pair__data.html" target="_top" xlink:title="value_pair_data">
<polygon fill="none" stroke="black" points="300.5,-73.4723 300.5,-92.4723 385.5,-92.4723 385.5,-73.4723 300.5,-73.4723"/>
<text text-anchor="middle" x="343" y="-80.4723" font-family="Helvetica,sans-Serif" font-size="10.00">value_pair_data</text>
</a>
</g>
<!-- Node16&#45;&gt;Node21 -->
<g id="edge72" class="edge"><title>Node16&#45;&gt;Node21</title>
<path fill="none" stroke="#9a32cd" stroke-dasharray="5,2" d="M198.589,-120.628C229.576,-112.491 274.306,-100.747 305.546,-92.544"/>
<polygon fill="#9a32cd" stroke="#9a32cd" points="197.43,-117.313 188.646,-123.238 199.207,-124.084 197.43,-117.313"/>
<text text-anchor="middle" x="253" y="-116.972" font-family="Helvetica,sans-Serif" font-size="10.00"> ipv6addr</text>
</g>
<!-- Node17&#45;&gt;Node9 -->
<g id="edge54" class="edge"><title>Node17&#45;&gt;Node9</title>
<path fill="none" stroke="#9a32cd" stroke-dasharray="5,2" d="M705.995,-477.938C772.815,-476.941 889.36,-471.462 922,-445.972 956.033,-419.395 963.753,-363.159 965.496,-340.617"/>
<polygon fill="#9a32cd" stroke="#9a32cd" points="705.675,-474.442 695.718,-478.062 705.759,-481.441 705.675,-474.442"/>
<text text-anchor="middle" x="835" y="-476.972" font-family="Helvetica,sans-Serif" font-size="10.00"> root</text>
</g>
<!-- Node18&#45;&gt;Node9 -->
<g id="edge80" class="edge"><title>Node18&#45;&gt;Node9</title>
<path fill="none" stroke="#9a32cd" stroke-dasharray="5,2" d="M550.741,-462.881C626.468,-442.831 788.774,-398.054 922,-348.972 928.97,-346.404 936.478,-343.417 943.283,-340.623"/>
<polygon fill="#9a32cd" stroke="#9a32cd" points="549.42,-459.61 540.643,-465.544 551.204,-466.379 549.42,-459.61"/>
<text text-anchor="middle" x="745" y="-430.972" font-family="Helvetica,sans-Serif" font-size="10.00"> listener</text>
<text text-anchor="middle" x="745" y="-419.972" font-family="Helvetica,sans-Serif" font-size="10.00">proxy_listener</text>
</g>
<!-- Node18&#45;&gt;Node17 -->
<g id="edge56" class="edge"><title>Node18&#45;&gt;Node17</title>
<path fill="none" stroke="#9a32cd" stroke-dasharray="5,2" d="M550.928,-475.132C572.234,-475.708 597.739,-476.398 618.285,-476.953"/>
<polygon fill="#9a32cd" stroke="#9a32cd" points="550.937,-471.632 540.846,-474.86 550.748,-478.629 550.937,-471.632"/>
<text text-anchor="middle" x="581" y="-478.972" font-family="Helvetica,sans-Serif" font-size="10.00"> listen</text>
</g>
<!-- Node18&#45;&gt;Node18 -->
<g id="edge58" class="edge"><title>Node18&#45;&gt;Node18</title>
<path fill="none" stroke="#9a32cd" stroke-dasharray="5,2" d="M493.372,-493.739C494.443,-498.469 498.985,-501.972 507,-501.972 520.152,-501.972 523.954,-492.538 518.406,-483.729"/>
<polygon fill="#9a32cd" stroke="#9a32cd" points="496.844,-494.25 495.594,-483.729 490.01,-492.733 496.844,-494.25"/>
<text text-anchor="middle" x="507" y="-559.972" font-family="Helvetica,sans-Serif" font-size="10.00"> next</text>
<text text-anchor="middle" x="507" y="-548.972" font-family="Helvetica,sans-Serif" font-size="10.00">encode</text>
<text text-anchor="middle" x="507" y="-537.972" font-family="Helvetica,sans-Serif" font-size="10.00">recv</text>
<text text-anchor="middle" x="507" y="-526.972" font-family="Helvetica,sans-Serif" font-size="10.00">print</text>
<text text-anchor="middle" x="507" y="-515.972" font-family="Helvetica,sans-Serif" font-size="10.00">send</text>
<text text-anchor="middle" x="507" y="-504.972" font-family="Helvetica,sans-Serif" font-size="10.00">decode</text>
</g>
<!-- Node19&#45;&gt;Node9 -->
<g id="edge66" class="edge"><title>Node19&#45;&gt;Node9</title>
<path fill="none" stroke="#9a32cd" stroke-dasharray="5,2" d="M705.911,-60.9139C751.616,-57.196 821.392,-57.0003 876,-80.9723 901.905,-92.3442 908.213,-100.268 922,-124.972 959.96,-192.992 965.212,-290.432 965.906,-321.246"/>
<polygon fill="#9a32cd" stroke="#9a32cd" points="705.332,-57.4518 695.687,-61.837 705.961,-64.4235 705.332,-57.4518"/>
<text text-anchor="middle" x="835" y="-116.972" font-family="Helvetica,sans-Serif" font-size="10.00"> reply</text>
<text text-anchor="middle" x="835" y="-105.972" font-family="Helvetica,sans-Serif" font-size="10.00">proxy_reply</text>
<text text-anchor="middle" x="835" y="-94.9723" font-family="Helvetica,sans-Serif" font-size="10.00">proxy</text>
<text text-anchor="middle" x="835" y="-83.9723" font-family="Helvetica,sans-Serif" font-size="10.00">packet</text>
</g>
<!-- Node20 -->
<g id="node53" class="node"><title>Node20</title>
<a xlink:href="structvalue__pair.html" target="_top" xlink:title="value_pair">
<polygon fill="none" stroke="black" points="476.5,-21.4723 476.5,-40.4723 537.5,-40.4723 537.5,-21.4723 476.5,-21.4723"/>
<text text-anchor="middle" x="507" y="-28.4723" font-family="Helvetica,sans-Serif" font-size="10.00">value_pair</text>
</a>
</g>
<!-- Node20&#45;&gt;Node9 -->
<g id="edge88" class="edge"><title>Node20&#45;&gt;Node9</title>
<path fill="none" stroke="#9a32cd" stroke-dasharray="5,2" d="M547.332,-20.5248C634.165,-0.122775 840.957,33.1942 922,-86.9723 948.716,-126.585 962.185,-280.986 965.292,-321.3"/>
<polygon fill="#9a32cd" stroke="#9a32cd" points="546.496,-17.1261 537.598,-22.8771 548.14,-23.9303 546.496,-17.1261"/>
<text text-anchor="middle" x="745" y="-29.9723" font-family="Helvetica,sans-Serif" font-size="10.00"> password</text>
<text text-anchor="middle" x="745" y="-18.9723" font-family="Helvetica,sans-Serif" font-size="10.00">config_items</text>
<text text-anchor="middle" x="745" y="-7.97225" font-family="Helvetica,sans-Serif" font-size="10.00">username</text>
</g>
<!-- Node20&#45;&gt;Node19 -->
<g id="edge68" class="edge"><title>Node20&#45;&gt;Node19</title>
<path fill="none" stroke="#9a32cd" stroke-dasharray="5,2" d="M547.585,-40.601C569.524,-45.9375 596.655,-52.537 618.288,-57.799"/>
<polygon fill="#9a32cd" stroke="#9a32cd" points="548.138,-37.1336 537.594,-38.1709 546.484,-43.9353 548.138,-37.1336"/>
<text text-anchor="middle" x="581" y="-56.9723" font-family="Helvetica,sans-Serif" font-size="10.00"> vps</text>
</g>
<!-- Node20&#45;&gt;Node20 -->
<g id="edge74" class="edge"><title>Node20&#45;&gt;Node20</title>
<path fill="none" stroke="#9a32cd" stroke-dasharray="5,2" d="M493.372,-50.7385C494.443,-55.4688 498.985,-58.9723 507,-58.9723 520.152,-58.9723 523.954,-49.5375 518.406,-40.7293"/>
<polygon fill="#9a32cd" stroke="#9a32cd" points="496.844,-51.2502 495.594,-40.7293 490.01,-49.7331 496.844,-51.2502"/>
<text text-anchor="middle" x="507" y="-61.9723" font-family="Helvetica,sans-Serif" font-size="10.00"> next</text>
</g>
<!-- Node21&#45;&gt;Node20 -->
<g id="edge70" class="edge"><title>Node21&#45;&gt;Node20</title>
<path fill="none" stroke="#9a32cd" stroke-dasharray="5,2" d="M383.431,-70.3153C412.133,-61.1024 450.386,-48.8236 476.475,-40.4494"/>
<polygon fill="#9a32cd" stroke="#9a32cd" points="382.165,-67.0458 373.713,-73.4347 384.305,-73.7108 382.165,-67.0458"/>
<text text-anchor="middle" x="429" y="-64.9723" font-family="Helvetica,sans-Serif" font-size="10.00"> data</text>
</g>
<!-- Node22 -->
<g id="node59" class="node"><title>Node22</title>
<a xlink:href="structattr__flags.html" target="_top" xlink:title="attr_flags">
<polygon fill="none" stroke="black" points="314.5,-21.4723 314.5,-40.4723 371.5,-40.4723 371.5,-21.4723 314.5,-21.4723"/>
<text text-anchor="middle" x="343" y="-28.4723" font-family="Helvetica,sans-Serif" font-size="10.00">attr_flags</text>
</a>
</g>
<!-- Node22&#45;&gt;Node20 -->
<g id="edge76" class="edge"><title>Node22&#45;&gt;Node20</title>
<path fill="none" stroke="#9a32cd" stroke-dasharray="5,2" d="M381.954,-30.9723C410.754,-30.9723 449.787,-30.9723 476.324,-30.9723"/>
<polygon fill="#9a32cd" stroke="#9a32cd" points="381.849,-27.4724 371.849,-30.9723 381.849,-34.4724 381.849,-27.4724"/>
<text text-anchor="middle" x="429" y="-33.9723" font-family="Helvetica,sans-Serif" font-size="10.00"> flags</text>
</g>
<!-- Node23 -->
<g id="node68" class="node"><title>Node23</title>
<a xlink:href="structrequest__data__t.html" target="_top" xlink:title="request_data_t">
<polygon fill="none" stroke="black" points="794.5,-507.472 794.5,-526.472 875.5,-526.472 875.5,-507.472 794.5,-507.472"/>
<text text-anchor="middle" x="835" y="-514.472" font-family="Helvetica,sans-Serif" font-size="10.00">request_data_t</text>
</a>
</g>
<!-- Node23&#45;&gt;Node9 -->
<g id="edge92" class="edge"><title>Node23&#45;&gt;Node9</title>
<path fill="none" stroke="#9a32cd" stroke-dasharray="5,2" d="M885.898,-511.461C899.106,-507.789 912.354,-501.775 922,-491.972 964.68,-448.599 966.946,-368.046 966.383,-340.498"/>
<polygon fill="#9a32cd" stroke="#9a32cd" points="884.79,-508.126 875.865,-513.837 886.403,-514.938 884.79,-508.126"/>
<text text-anchor="middle" x="908" y="-510.972" font-family="Helvetica,sans-Serif" font-size="10.00"> data</text>
</g>
<!-- Node23&#45;&gt;Node23 -->
<g id="edge94" class="edge"><title>Node23&#45;&gt;Node23</title>
<path fill="none" stroke="#9a32cd" stroke-dasharray="5,2" d="M821.741,-536.739C822.782,-541.469 827.202,-544.972 835,-544.972 847.797,-544.972 851.496,-535.538 846.097,-526.729"/>
<polygon fill="#9a32cd" stroke="#9a32cd" points="825.212,-537.243 823.903,-526.729 818.37,-535.765 825.212,-537.243"/>
<text text-anchor="middle" x="835" y="-547.972" font-family="Helvetica,sans-Serif" font-size="10.00"> next</text>
</g>
<!-- Node24&#45;&gt;Node1 -->
<g id="edge96" class="edge"><title>Node24&#45;&gt;Node1</title>
<path fill="none" stroke="#9a32cd" stroke-dasharray="5,2" d="M1501.32,-610.918C1494.27,-609.278 1486.96,-607.856 1480,-606.972 1460.85,-604.542 1439.49,-608.706 1423.1,-613.393"/>
<polygon fill="#9a32cd" stroke="#9a32cd" points="1500.84,-614.408 1511.39,-613.441 1502.54,-607.617 1500.84,-614.408"/>
<text text-anchor="middle" x="1471" y="-609.972" font-family="Helvetica,sans-Serif" font-size="10.00"> mh</text>
</g>
<!-- Node24&#45;&gt;Node24 -->
<g id="edge100" class="edge"><title>Node24&#45;&gt;Node24</title>
<path fill="none" stroke="#9a32cd" stroke-dasharray="5,2" d="M1529.74,-642.739C1530.78,-647.469 1535.2,-650.972 1543,-650.972 1555.8,-650.972 1559.5,-641.538 1554.1,-632.729"/>
<polygon fill="#9a32cd" stroke="#9a32cd" points="1533.21,-643.243 1531.9,-632.729 1526.37,-641.765 1533.21,-643.243"/>
<text text-anchor="middle" x="1543" y="-653.972" font-family="Helvetica,sans-Serif" font-size="10.00"> next</text>
</g>
</g>
</svg>
        <g id="navigator" transform="translate(0 0)" fill="#404254">
                <rect fill="#f2f5e9" fill-opacity="0.5" stroke="#606060" stroke-width=".5" x="0" y="0" width="60" height="60"/>
                <use id="zoomplus" xlink:href="#zoomPlus" x="17" y="9" onmousedown="handleZoom(evt,'in')"/>
                <use id="zoomminus" xlink:href="#zoomMin" x="42" y="9" onmousedown="handleZoom(evt,'out')"/>
                <use id="reset" xlink:href="#resetDef" x="30" y="36" onmousedown="handleReset()"/>
                <g id="arrowUp" xlink:href="#dirArrow" transform="translate(30 24)" onmousedown="handlePan(0,-1)">
                  <use xlink:href="#rim" fill="#404040">
                        <set attributeName="fill" to="#808080" begin="arrowUp.mouseover" end="arrowUp.mouseout"/>
                  </use>
                  <path fill="none" stroke="white" stroke-width="1.5" d="M0,-3.0v7 M-2.5,-0.5L0,-3.0L2.5,-0.5"/>
                </g>
                <g id="arrowRight" xlink:href="#dirArrow" transform="rotate(90) translate(36 -43)" onmousedown="handlePan(1,0)">
                  <use xlink:href="#rim" fill="#404040">
                        <set attributeName="fill" to="#808080" begin="arrowRight.mouseover" end="arrowRight.mouseout"/>
                  </use>
                  <path fill="none" stroke="white" stroke-width="1.5" d="M0,-3.0v7 M-2.5,-0.5L0,-3.0L2.5,-0.5"/>
                </g>
                <g id="arrowDown" xlink:href="#dirArrow" transform="rotate(180) translate(-30 -48)" onmousedown="handlePan(0,1)">
                  <use xlink:href="#rim" fill="#404040">
                        <set attributeName="fill" to="#808080" begin="arrowDown.mouseover" end="arrowDown.mouseout"/>
                  </use>
                  <path fill="none" stroke="white" stroke-width="1.5" d="M0,-3.0v7 M-2.5,-0.5L0,-3.0L2.5,-0.5"/>
                </g>
                <g id="arrowLeft" xlink:href="#dirArrow" transform="rotate(270) translate(-36 17)" onmousedown="handlePan(-1,0)">
                  <use xlink:href="#rim" fill="#404040">
                        <set attributeName="fill" to="#808080" begin="arrowLeft.mouseover" end="arrowLeft.mouseout"/>
                  </use>
                  <path fill="none" stroke="white" stroke-width="1.5" d="M0,-3.0v7 M-2.5,-0.5L0,-3.0L2.5,-0.5"/>
                </g>
        </g>
</svg>
