<?xml version="1.0" encoding="UTF-8" standalone="no"?>
<!DOCTYPE svg PUBLIC "-//W3C//DTD SVG 1.1//EN"
 "http://www.w3.org/Graphics/SVG/1.1/DTD/svg11.dtd">
<!-- Generated by graphviz version 2.28.0 (20111211.2114)
 -->
<!-- Title: G Pages: 1 -->
<svg width="332pt" height="312pt"
 viewBox="0.00 0.00 332.00 312.50" xmlns="http://www.w3.org/2000/svg" xmlns:xlink="http://www.w3.org/1999/xlink">
<g id="graph1" class="graph" transform="scale(1 1) rotate(0) translate(4 308.5)">
<title>G</title>
<!-- Node1 -->
<g id="node1" class="node"><title>Node1</title>
<polygon fill="#bfbfbf" stroke="black" points="184.5,-0.5 184.5,-19.5 259.5,-19.5 259.5,-0.5 184.5,-0.5"/>
<text text-anchor="middle" x="222" y="-7.5" font-family="Helvetica,sans-Serif" font-size="10.00">offset_walk_t</text>
</g>
<!-- Node2 -->
<g id="node2" class="node"><title>Node2</title>
<a xlink:href="structradutmp__cache__t.html" target="_top" xlink:title="radutmp_cache_t">
<polygon fill="none" stroke="black" points="176,-136.5 176,-155.5 268,-155.5 268,-136.5 176,-136.5"/>
<text text-anchor="middle" x="222" y="-143.5" font-family="Helvetica,sans-Serif" font-size="10.00">radutmp_cache_t</text>
</a>
</g>
<!-- Node2&#45;&gt;Node1 -->
<g id="edge2" class="edge"><title>Node2&#45;&gt;Node1</title>
<path fill="none" stroke="#9a32cd" stroke-dasharray="5,2" d="M222,-125.992C222,-96.5227 222,-40.9856 222,-19.6503"/>
<polygon fill="#9a32cd" stroke="#9a32cd" points="218.5,-126.208 222,-136.208 225.5,-126.208 218.5,-126.208"/>
<text text-anchor="middle" x="237" y="-75.5" font-family="Helvetica,sans-Serif" font-size="10.00"> cache</text>
</g>
<!-- Node6 -->
<g id="node12" class="node"><title>Node6</title>
<a xlink:href="structrlm__radutmp__t.html" target="_top" xlink:title="rlm_radutmp_t">
<polygon fill="none" stroke="black" points="90.5,-68.5 90.5,-87.5 169.5,-87.5 169.5,-68.5 90.5,-68.5"/>
<text text-anchor="middle" x="130" y="-75.5" font-family="Helvetica,sans-Serif" font-size="10.00">rlm_radutmp_t</text>
</a>
</g>
<!-- Node2&#45;&gt;Node6 -->
<g id="edge16" class="edge"><title>Node2&#45;&gt;Node6</title>
<path fill="none" stroke="#9a32cd" stroke-dasharray="5,2" d="M198.338,-131.268C191.646,-127.174 184.436,-122.559 178,-118 164.332,-108.317 149.498,-95.9533 139.994,-87.7713"/>
<polygon fill="#9a32cd" stroke="#9a32cd" points="196.644,-134.334 207.021,-136.474 200.244,-128.33 196.644,-134.334"/>
<text text-anchor="middle" x="193" y="-109.5" font-family="Helvetica,sans-Serif" font-size="10.00"> cache</text>
</g>
<!-- Node3 -->
<g id="node4" class="node"><title>Node3</title>
<a xlink:href="structnas__port.html" target="_top" xlink:title="nas_port">
<polygon fill="none" stroke="black" points="0,-204.5 0,-223.5 54,-223.5 54,-204.5 0,-204.5"/>
<text text-anchor="middle" x="27" y="-211.5" font-family="Helvetica,sans-Serif" font-size="10.00">nas_port</text>
</a>
</g>
<!-- Node3&#45;&gt;Node2 -->
<g id="edge4" class="edge"><title>Node3&#45;&gt;Node2</title>
<path fill="none" stroke="#9a32cd" stroke-dasharray="5,2" d="M62.327,-201.043C101.16,-187.9 162.569,-167.115 196.81,-155.526"/>
<polygon fill="#9a32cd" stroke="#9a32cd" points="60.8429,-197.85 52.4928,-204.372 63.0871,-204.481 60.8429,-197.85"/>
<text text-anchor="middle" x="169.5" y="-177.5" font-family="Helvetica,sans-Serif" font-size="10.00"> free_offsets</text>
</g>
<!-- Node3&#45;&gt;Node3 -->
<g id="edge6" class="edge"><title>Node3&#45;&gt;Node3</title>
<path fill="none" stroke="#9a32cd" stroke-dasharray="5,2" d="M64.5105,-219.495C69.0382,-218.502 72,-216.671 72,-214 72,-209.617 64.0239,-207.494 54.2408,-207.631"/>
<polygon fill="#9a32cd" stroke="#9a32cd" points="63.9079,-216.033 54.2408,-220.369 64.5016,-223.008 63.9079,-216.033"/>
<text text-anchor="middle" x="83" y="-211.5" font-family="Helvetica,sans-Serif" font-size="10.00"> next</text>
</g>
<!-- Node3&#45;&gt;Node6 -->
<g id="edge18" class="edge"><title>Node3&#45;&gt;Node6</title>
<path fill="none" stroke="#9a32cd" stroke-dasharray="5,2" d="M30.7017,-194.065C34.637,-177.526 42.1142,-153.494 55,-136 70.8096,-114.536 96.8925,-97.2967 113.757,-87.6039"/>
<polygon fill="#9a32cd" stroke="#9a32cd" points="27.2146,-193.631 28.5203,-204.145 34.0562,-195.112 27.2146,-193.631"/>
<text text-anchor="middle" x="84.5" y="-143.5" font-family="Helvetica,sans-Serif" font-size="10.00"> nas_port_list</text>
</g>
<!-- Node4 -->
<g id="node7" class="node"><title>Node4</title>
<a xlink:href="structrbtree__t.html" target="_top" xlink:title="rbtree_t">
<polygon fill="none" stroke="black" points="197,-204.5 197,-223.5 247,-223.5 247,-204.5 197,-204.5"/>
<text text-anchor="middle" x="222" y="-211.5" font-family="Helvetica,sans-Serif" font-size="10.00">rbtree_t</text>
</a>
</g>
<!-- Node4&#45;&gt;Node1 -->
<g id="edge22" class="edge"><title>Node4&#45;&gt;Node1</title>
<path fill="none" stroke="#9a32cd" stroke-dasharray="5,2" d="M256.16,-200.041C262.234,-196.342 267.915,-191.717 272,-186 284.984,-167.829 280.332,-158.083 277,-136 272.281,-104.723 268.86,-96.8985 256,-68 247.942,-49.893 235.364,-30.3866 227.977,-19.535"/>
<polygon fill="#9a32cd" stroke="#9a32cd" points="254.327,-197.051 247.12,-204.817 257.597,-203.24 254.327,-197.051"/>
<text text-anchor="middle" x="299" y="-109.5" font-family="Helvetica,sans-Serif" font-size="10.00"> offset_tree</text>
</g>
<!-- Node4&#45;&gt;Node2 -->
<g id="edge8" class="edge"><title>Node4&#45;&gt;Node2</title>
<path fill="none" stroke="#9a32cd" stroke-dasharray="5,2" d="M222,-194.041C222,-181.472 222,-165.563 222,-155.841"/>
<polygon fill="#9a32cd" stroke="#9a32cd" points="218.5,-194.372 222,-204.372 225.5,-194.372 218.5,-194.372"/>
<text text-anchor="middle" x="245" y="-177.5" font-family="Helvetica,sans-Serif" font-size="10.00"> nas_ports</text>
</g>
<!-- Node4&#45;&gt;Node6 -->
<g id="edge20" class="edge"><title>Node4&#45;&gt;Node6</title>
<path fill="none" stroke="#9a32cd" stroke-dasharray="5,2" d="M187.268,-203.029C164.599,-194.514 136.749,-179.781 123,-156 110.369,-134.153 120.065,-102.867 126.107,-87.788"/>
<polygon fill="#9a32cd" stroke="#9a32cd" points="186.334,-206.41 196.929,-206.409 188.646,-199.803 186.334,-206.41"/>
<text text-anchor="middle" x="145" y="-143.5" font-family="Helvetica,sans-Serif" font-size="10.00"> user_tree</text>
</g>
<!-- Node5 -->
<g id="node9" class="node"><title>Node5</title>
<a xlink:href="structrbnode__t.html" target="_top" xlink:title="rbnode_t">
<polygon fill="none" stroke="black" points="195,-278.5 195,-297.5 249,-297.5 249,-278.5 195,-278.5"/>
<text text-anchor="middle" x="222" y="-285.5" font-family="Helvetica,sans-Serif" font-size="10.00">rbnode_t</text>
</a>
</g>
<!-- Node5&#45;&gt;Node4 -->
<g id="edge10" class="edge"><title>Node5&#45;&gt;Node4</title>
<path fill="none" stroke="#9a32cd" stroke-dasharray="5,2" d="M222,-268.156C222,-253.712 222,-234.459 222,-223.531"/>
<polygon fill="#9a32cd" stroke="#9a32cd" points="218.5,-268.458 222,-278.458 225.5,-268.458 218.5,-268.458"/>
<text text-anchor="middle" x="234.5" y="-245.5" font-family="Helvetica,sans-Serif" font-size="10.00"> Root</text>
</g>
<!-- Node5&#45;&gt;Node5 -->
<g id="edge12" class="edge"><title>Node5&#45;&gt;Node5</title>
<path fill="none" stroke="#9a32cd" stroke-dasharray="5,2" d="M259.51,-294.464C264.038,-293.297 267,-291.142 267,-288 267,-282.844 259.024,-280.346 249.241,-280.507"/>
<polygon fill="#9a32cd" stroke="#9a32cd" points="258.842,-291.014 249.241,-295.493 259.54,-297.979 258.842,-291.014"/>
<text text-anchor="middle" x="281.5" y="-296.5" font-family="Helvetica,sans-Serif" font-size="10.00"> Left</text>
<text text-anchor="middle" x="281.5" y="-285.5" font-family="Helvetica,sans-Serif" font-size="10.00">Right</text>
<text text-anchor="middle" x="281.5" y="-274.5" font-family="Helvetica,sans-Serif" font-size="10.00">Parent</text>
</g>
<!-- Node6&#45;&gt;Node1 -->
<g id="edge14" class="edge"><title>Node6&#45;&gt;Node1</title>
<path fill="none" stroke="#9a32cd" stroke-dasharray="5,2" d="M150.275,-62.4551C168.552,-49.3431 194.816,-30.5016 209.97,-19.6305"/>
<polygon fill="#9a32cd" stroke="#9a32cd" points="148.113,-59.6986 142.027,-68.3717 152.193,-65.3864 148.113,-59.6986"/>
<text text-anchor="middle" x="194.5" y="-41.5" font-family="Helvetica,sans-Serif" font-size="10.00"> inst</text>
</g>
</g>
</svg>
