<?xml version="1.0" encoding="UTF-8" standalone="no"?>
<!DOCTYPE svg PUBLIC "-//W3C//DTD SVG 1.1//EN"
 "http://www.w3.org/Graphics/SVG/1.1/DTD/svg11.dtd">
<!-- Generated by graphviz version 2.28.0 (20111211.2114)
 -->
<!-- Title: G Pages: 1 -->
<svg width="131pt" height="106pt"
 viewBox="0.00 0.00 131.00 106.00" xmlns="http://www.w3.org/2000/svg" xmlns:xlink="http://www.w3.org/1999/xlink">
<g id="graph1" class="graph" transform="scale(1 1) rotate(0) translate(4 102)">
<title>G</title>
<!-- Node1 -->
<g id="node1" class="node"><title>Node1</title>
<polygon fill="#bfbfbf" stroke="black" points="-0.5,-0.5 -0.5,-19.5 82.5,-19.5 82.5,-0.5 -0.5,-0.5"/>
<text text-anchor="middle" x="41" y="-7.5" font-family="Helvetica,sans-Serif" font-size="10.00">fr_hash_table_t</text>
</g>
<!-- Node2 -->
<g id="node2" class="node"><title>Node2</title>
<a xlink:href="structfr__hash__entry__t.html" target="_top" xlink:title="fr_hash_entry_t">
<polygon fill="none" stroke="black" points="-1,-78.5 -1,-97.5 83,-97.5 83,-78.5 -1,-78.5"/>
<text text-anchor="middle" x="41" y="-85.5" font-family="Helvetica,sans-Serif" font-size="10.00">fr_hash_entry_t</text>
</a>
</g>
<!-- Node2&#45;&gt;Node1 -->
<g id="edge2" class="edge"><title>Node2&#45;&gt;Node1</title>
<path fill="none" stroke="#9a32cd" stroke-dasharray="5,2" d="M41,-68.2239C41,-52.6974 41,-31.3582 41,-19.6165"/>
<polygon fill="#9a32cd" stroke="#9a32cd" points="37.5001,-68.2818 41,-78.2818 44.5001,-68.2819 37.5001,-68.2818"/>
<text text-anchor="middle" x="58.5" y="-52" font-family="Helvetica,sans-Serif" font-size="10.00"> null</text>
<text text-anchor="middle" x="58.5" y="-41" font-family="Helvetica,sans-Serif" font-size="10.00">buckets</text>
</g>
<!-- Node2&#45;&gt;Node2 -->
<g id="edge4" class="edge"><title>Node2&#45;&gt;Node2</title>
<path fill="none" stroke="#9a32cd" stroke-dasharray="5,2" d="M93.0868,-93.476C97.3521,-92.2902 100,-90.4649 100,-88 100,-83.9551 92.8693,-81.6324 83.162,-81.032"/>
<polygon fill="#9a32cd" stroke="#9a32cd" points="92.5306,-90.0202 83.162,-94.968 93.5712,-96.9424 92.5306,-90.0202"/>
<text text-anchor="middle" x="111" y="-85.5" font-family="Helvetica,sans-Serif" font-size="10.00"> next</text>
</g>
</g>
</svg>
