<?xml version="1.0" encoding="UTF-8" standalone="no"?>
<!DOCTYPE svg PUBLIC "-//W3C//DTD SVG 1.1//EN"
 "http://www.w3.org/Graphics/SVG/1.1/DTD/svg11.dtd">
<!-- Generated by graphviz version 2.28.0 (20111211.2114)
 -->
<!-- Title: G Pages: 1 -->
<!--zoomable-->
<svg id="main" version="1.1" xmlns="http://www.w3.org/2000/svg" xmlns:xlink="http://www.w3.org/1999/xlink" xml:space="preserve" onload="init(evt)">
        <defs>
                <circle id="rim" cx="0" cy="0" r="7"/>
                <circle id="rim2" cx="0" cy="0" r="3.5"/>
                <g id="zoomPlus">
                        <use xlink:href="#rim" fill="#404040">
                                <set attributeName="fill" to="#808080" begin="zoomplus.mouseover" end="zoomplus.mouseout"/>
                        </use>
                        <path d="M-4,0h8M0,-4v8" fill="none" stroke="white" stroke-width="1.5" pointer-events="none"/>
                </g>
                <g id="zoomMin">
                        <use xlink:href="#rim" fill="#404040">
                                <set attributeName="fill" to="#808080" begin="zoomminus.mouseover" end="zoomminus.mouseout"/>
                        </use>
                        <path d="M-4,0h8" fill="none" stroke="white" stroke-width="1.5" pointer-events="none"/>
                </g>
                <g id="dirArrow">
                        <path fill="none" stroke="white" stroke-width="1.5" d="M0,-3.0v7 M-2.5,-0.5L0,-3.0L2.5,-0.5"/>
                </g>
               <g id="resetDef">
                       <use xlink:href="#rim2" fill="#404040">
                               <set attributeName="fill" to="#808080" begin="reset.mouseover" end="reset.mouseout"/>
                       </use>
               </g>
        </defs>

<script type="text/javascript">
var viewWidth = 1512;
var viewHeight = 812;
var sectionId = 'dynsection-0';
</script>
<script xlink:href="svgpan.js"/>
<svg id="graph" class="graph">
<g id="viewport">
<title>G</title>
<!-- Node1 -->
<g id="node1" class="node"><title>Node1</title>
<polygon fill="#bfbfbf" stroke="black" points="1416,-614.294 1416,-633.294 1504,-633.294 1504,-614.294 1416,-614.294"/>
<text text-anchor="middle" x="1460" y="-621.294" font-family="Helvetica,sans-Serif" font-size="10.00">check_handler_t</text>
</g>
<!-- Node2 -->
<g id="node2" class="node"><title>Node2</title>
<a xlink:href="structEAP__HANDLER.html" target="_top" xlink:title="EAP_HANDLER">
<polygon fill="none" stroke="black" points="1110.5,-548.294 1110.5,-567.294 1201.5,-567.294 1201.5,-548.294 1110.5,-548.294"/>
<text text-anchor="middle" x="1156" y="-555.294" font-family="Helvetica,sans-Serif" font-size="10.00">EAP_HANDLER</text>
</a>
</g>
<!-- Node2&#45;&gt;Node1 -->
<g id="edge2" class="edge"><title>Node2&#45;&gt;Node1</title>
<path fill="none" stroke="#9a32cd" stroke-dasharray="5,2" d="M1210.4,-569.463C1268.96,-582.262 1361.8,-602.551 1415.91,-614.377"/>
<polygon fill="#9a32cd" stroke="#9a32cd" points="1211.11,-566.036 1200.59,-567.32 1209.61,-572.875 1211.11,-566.036"/>
<text text-anchor="middle" x="1330" y="-603.794" font-family="Helvetica,sans-Serif" font-size="10.00"> handler</text>
</g>
<!-- Node2&#45;&gt;Node2 -->
<g id="edge94" class="edge"><title>Node2&#45;&gt;Node2</title>
<path fill="none" stroke="#9a32cd" stroke-dasharray="5,2" d="M1139.7,-577.194C1140.79,-582.109 1146.22,-585.794 1156,-585.794 1171.64,-585.794 1176.16,-576.359 1169.56,-567.551"/>
<polygon fill="#9a32cd" stroke="#9a32cd" points="1143.08,-578.126 1142.44,-567.551 1136.34,-576.218 1143.08,-578.126"/>
<text text-anchor="middle" x="1156" y="-599.794" font-family="Helvetica,sans-Serif" font-size="10.00"> prev</text>
<text text-anchor="middle" x="1156" y="-588.794" font-family="Helvetica,sans-Serif" font-size="10.00">next</text>
</g>
<!-- Node24 -->
<g id="node71" class="node"><title>Node24</title>
<a xlink:href="structrlm__eap__t.html" target="_top" xlink:title="rlm_eap_t">
<polygon fill="none" stroke="black" points="1300.5,-692.294 1300.5,-711.294 1359.5,-711.294 1359.5,-692.294 1300.5,-692.294"/>
<text text-anchor="middle" x="1330" y="-699.294" font-family="Helvetica,sans-Serif" font-size="10.00">rlm_eap_t</text>
</a>
</g>
<!-- Node2&#45;&gt;Node24 -->
<g id="edge104" class="edge"><title>Node2&#45;&gt;Node24</title>
<path fill="none" stroke="#9a32cd" stroke-dasharray="5,2" d="M1178.72,-573.389C1190.71,-581.798 1205.97,-592.186 1220,-600.794 1246.79,-617.227 1258.59,-613.828 1282,-634.794 1301.05,-651.856 1316.55,-678.048 1324.07,-692.096"/>
<polygon fill="#9a32cd" stroke="#9a32cd" points="1180.45,-570.327 1170.27,-567.407 1176.41,-576.041 1180.45,-570.327"/>
<text text-anchor="middle" x="1251" y="-648.794" font-family="Helvetica,sans-Serif" font-size="10.00"> session_tail</text>
<text text-anchor="middle" x="1251" y="-637.794" font-family="Helvetica,sans-Serif" font-size="10.00">session_head</text>
</g>
<!-- Node3 -->
<g id="node4" class="node"><title>Node3</title>
<a xlink:href="structeap__server__ctx.html" target="_top" xlink:title="eap_server_ctx">
<polygon fill="none" stroke="black" points="940.5,-473.294 940.5,-492.294 1023.5,-492.294 1023.5,-473.294 940.5,-473.294"/>
<text text-anchor="middle" x="982" y="-480.294" font-family="Helvetica,sans-Serif" font-size="10.00">eap_server_ctx</text>
</a>
</g>
<!-- Node3&#45;&gt;Node2 -->
<g id="edge4" class="edge"><title>Node3&#45;&gt;Node2</title>
<path fill="none" stroke="#9a32cd" stroke-dasharray="5,2" d="M1028.89,-495.32C1048.71,-501.398 1071.92,-509.421 1092,-518.794 1109.95,-527.172 1129.1,-539.583 1141.52,-548.144"/>
<polygon fill="#9a32cd" stroke="#9a32cd" points="1029.74,-491.923 1019.16,-492.41 1027.74,-498.63 1029.74,-491.923"/>
<text text-anchor="middle" x="1067" y="-522.794" font-family="Helvetica,sans-Serif" font-size="10.00"> server_ctx</text>
</g>
<!-- Node4 -->
<g id="node6" class="node"><title>Node4</title>
<a xlink:href="structauth__req.html" target="_top" xlink:title="auth_req">
<polygon fill="none" stroke="black" points="955,-511.294 955,-530.294 1009,-530.294 1009,-511.294 955,-511.294"/>
<text text-anchor="middle" x="982" y="-518.294" font-family="Helvetica,sans-Serif" font-size="10.00">auth_req</text>
</a>
</g>
<!-- Node4&#45;&gt;Node2 -->
<g id="edge6" class="edge"><title>Node4&#45;&gt;Node2</title>
<path fill="none" stroke="#9a32cd" stroke-dasharray="5,2" d="M1019.17,-528.575C1045.79,-534.301 1082.14,-542.12 1110.53,-548.229"/>
<polygon fill="#9a32cd" stroke="#9a32cd" points="1019.64,-525.095 1009.12,-526.413 1018.16,-531.938 1019.64,-525.095"/>
<text text-anchor="middle" x="1067" y="-545.794" font-family="Helvetica,sans-Serif" font-size="10.00"> request</text>
</g>
<!-- Node4&#45;&gt;Node4 -->
<g id="edge80" class="edge"><title>Node4&#45;&gt;Node4</title>
<path fill="none" stroke="#9a32cd" stroke-dasharray="5,2" d="M968.372,-540.56C969.443,-545.291 973.985,-548.794 982,-548.794 995.152,-548.794 998.954,-539.359 993.406,-530.551"/>
<polygon fill="#9a32cd" stroke="#9a32cd" points="971.844,-541.072 970.594,-530.551 965.01,-539.555 971.844,-541.072"/>
<text text-anchor="middle" x="982" y="-595.794" font-family="Helvetica,sans-Serif" font-size="10.00"> coa</text>
<text text-anchor="middle" x="982" y="-584.794" font-family="Helvetica,sans-Serif" font-size="10.00">radlog</text>
<text text-anchor="middle" x="982" y="-573.794" font-family="Helvetica,sans-Serif" font-size="10.00">handle</text>
<text text-anchor="middle" x="982" y="-562.794" font-family="Helvetica,sans-Serif" font-size="10.00">parent</text>
<text text-anchor="middle" x="982" y="-551.794" font-family="Helvetica,sans-Serif" font-size="10.00">process</text>
</g>
<!-- Node5 -->
<g id="node8" class="node"><title>Node5</title>
<a xlink:href="structradclient.html" target="_top" xlink:title="radclient">
<polygon fill="none" stroke="black" points="808.5,-511.294 808.5,-530.294 861.5,-530.294 861.5,-511.294 808.5,-511.294"/>
<text text-anchor="middle" x="835" y="-518.294" font-family="Helvetica,sans-Serif" font-size="10.00">radclient</text>
</a>
</g>
<!-- Node5&#45;&gt;Node4 -->
<g id="edge8" class="edge"><title>Node5&#45;&gt;Node4</title>
<path fill="none" stroke="#9a32cd" stroke-dasharray="5,2" d="M871.679,-520.794C897.366,-520.794 931.45,-520.794 954.688,-520.794"/>
<polygon fill="#9a32cd" stroke="#9a32cd" points="871.589,-517.294 861.589,-520.794 871.589,-524.294 871.589,-517.294"/>
<text text-anchor="middle" x="908" y="-523.794" font-family="Helvetica,sans-Serif" font-size="10.00"> client</text>
</g>
<!-- Node6 -->
<g id="node10" class="node"><title>Node6</title>
<a xlink:href="structhome__pool__t.html" target="_top" xlink:title="home_pool_t">
<polygon fill="none" stroke="black" points="621,-476.294 621,-495.294 693,-495.294 693,-476.294 621,-476.294"/>
<text text-anchor="middle" x="657" y="-483.294" font-family="Helvetica,sans-Serif" font-size="10.00">home_pool_t</text>
</a>
</g>
<!-- Node6&#45;&gt;Node4 -->
<g id="edge82" class="edge"><title>Node6&#45;&gt;Node4</title>
<path fill="none" stroke="#9a32cd" stroke-dasharray="5,2" d="M703.512,-483.481C747.818,-482.018 816.921,-481.828 876,-490.794 903.366,-494.947 933.67,-504.121 954.659,-511.238"/>
<polygon fill="#9a32cd" stroke="#9a32cd" points="703.218,-479.99 693.353,-483.854 703.474,-486.985 703.218,-479.99"/>
<text text-anchor="middle" x="835" y="-493.794" font-family="Helvetica,sans-Serif" font-size="10.00"> home_pool</text>
</g>
<!-- Node6&#45;&gt;Node5 -->
<g id="edge10" class="edge"><title>Node6&#45;&gt;Node5</title>
<path fill="none" stroke="#9a32cd" stroke-dasharray="5,2" d="M703.167,-494.776C736.528,-501.41 780.751,-510.205 808.284,-515.68"/>
<polygon fill="#9a32cd" stroke="#9a32cd" points="703.684,-491.31 693.193,-492.793 702.318,-498.176 703.684,-491.31"/>
<text text-anchor="middle" x="745" y="-511.794" font-family="Helvetica,sans-Serif" font-size="10.00"> coa_pool</text>
</g>
<!-- Node7 -->
<g id="node12" class="node"><title>Node7</title>
<a xlink:href="structhome__server.html" target="_top" xlink:title="home_server">
<polygon fill="none" stroke="black" points="470.5,-583.294 470.5,-602.294 543.5,-602.294 543.5,-583.294 470.5,-583.294"/>
<text text-anchor="middle" x="507" y="-590.294" font-family="Helvetica,sans-Serif" font-size="10.00">home_server</text>
</a>
</g>
<!-- Node7&#45;&gt;Node4 -->
<g id="edge84" class="edge"><title>Node7&#45;&gt;Node4</title>
<path fill="none" stroke="#9a32cd" stroke-dasharray="5,2" d="M518.362,-610.939C527.701,-625.291 542.887,-644.282 562,-652.794 589.134,-664.879 555.599,-691.805 776,-645.794 822.698,-636.045 834.817,-630.871 876,-606.794 914.649,-584.198 953.767,-547.77 971.368,-530.489"/>
<polygon fill="#9a32cd" stroke="#9a32cd" points="521.298,-609.031 513.087,-602.335 515.33,-612.69 521.298,-609.031"/>
<text text-anchor="middle" x="745" y="-659.794" font-family="Helvetica,sans-Serif" font-size="10.00"> home_server</text>
</g>
<!-- Node7&#45;&gt;Node5 -->
<g id="edge44" class="edge"><title>Node7&#45;&gt;Node5</title>
<path fill="none" stroke="#9a32cd" stroke-dasharray="5,2" d="M554.121,-597.064C610.035,-600.128 705.522,-598.432 776,-560.794 786.843,-555.003 784.235,-547.261 794,-539.794 798.764,-536.151 804.338,-532.965 809.786,-530.294"/>
<polygon fill="#9a32cd" stroke="#9a32cd" points="554.019,-593.55 543.82,-596.42 553.582,-600.537 554.019,-593.55"/>
<text text-anchor="middle" x="657" y="-599.794" font-family="Helvetica,sans-Serif" font-size="10.00"> coa_server</text>
</g>
<!-- Node7&#45;&gt;Node6 -->
<g id="edge12" class="edge"><title>Node7&#45;&gt;Node6</title>
<path fill="none" stroke="#9a32cd" stroke-dasharray="5,2" d="M516.858,-574.187C528.465,-550.587 548.883,-511.858 562,-502.794 579.055,-491.009 601.866,-486.68 620.746,-485.335"/>
<polygon fill="#9a32cd" stroke="#9a32cd" points="513.68,-572.72 512.469,-583.245 519.979,-575.772 513.68,-572.72"/>
<text text-anchor="middle" x="581" y="-516.794" font-family="Helvetica,sans-Serif" font-size="10.00"> fallback</text>
<text text-anchor="middle" x="581" y="-505.794" font-family="Helvetica,sans-Serif" font-size="10.00">servers</text>
</g>
<!-- Node8 -->
<g id="node14" class="node"><title>Node8</title>
<a xlink:href="structconf__part.html" target="_top" xlink:title="conf_part">
<polygon fill="none" stroke="black" points="314.5,-498.294 314.5,-517.294 371.5,-517.294 371.5,-498.294 314.5,-498.294"/>
<text text-anchor="middle" x="343" y="-505.294" font-family="Helvetica,sans-Serif" font-size="10.00">conf_part</text>
</a>
</g>
<!-- Node8&#45;&gt;Node5 -->
<g id="edge48" class="edge"><title>Node8&#45;&gt;Node5</title>
<path fill="none" stroke="#9a32cd" stroke-dasharray="5,2" d="M381.95,-511.654C425.401,-515.864 498.746,-522.331 562,-524.794 598.204,-526.203 598.263,-528.893 776,-523.794 786.583,-523.49 798.242,-522.931 808.313,-522.377"/>
<polygon fill="#9a32cd" stroke="#9a32cd" points="382.128,-508.155 371.834,-510.662 381.444,-515.121 382.128,-508.155"/>
<text text-anchor="middle" x="581" y="-529.794" font-family="Helvetica,sans-Serif" font-size="10.00"> cs</text>
</g>
<!-- Node8&#45;&gt;Node6 -->
<g id="edge42" class="edge"><title>Node8&#45;&gt;Node6</title>
<path fill="none" stroke="#9a32cd" stroke-dasharray="5,2" d="M381.906,-502.572C425.319,-496.877 498.627,-488.128 562,-484.794 578.866,-483.907 583.112,-484.643 600,-484.794 606.709,-484.854 613.87,-484.954 620.751,-485.069"/>
<polygon fill="#9a32cd" stroke="#9a32cd" points="381.252,-499.128 371.8,-503.914 382.174,-506.067 381.252,-499.128"/>
<text text-anchor="middle" x="507" y="-495.794" font-family="Helvetica,sans-Serif" font-size="10.00"> cs</text>
</g>
<!-- Node8&#45;&gt;Node7 -->
<g id="edge14" class="edge"><title>Node8&#45;&gt;Node7</title>
<path fill="none" stroke="#9a32cd" stroke-dasharray="5,2" d="M368.729,-522.688C379.995,-529.334 393.565,-537.148 406,-543.794 433.111,-558.284 465.121,-573.677 485.486,-583.261"/>
<polygon fill="#9a32cd" stroke="#9a32cd" points="370.268,-519.531 359.883,-517.431 366.691,-525.549 370.268,-519.531"/>
<text text-anchor="middle" x="429" y="-568.794" font-family="Helvetica,sans-Serif" font-size="10.00"> cs</text>
</g>
<!-- Node8&#45;&gt;Node8 -->
<g id="edge16" class="edge"><title>Node8&#45;&gt;Node8</title>
<path fill="none" stroke="#9a32cd" stroke-dasharray="5,2" d="M327.075,-527.194C328.138,-532.109 333.447,-535.794 343,-535.794 358.285,-535.794 362.704,-526.359 356.255,-517.551"/>
<polygon fill="#9a32cd" stroke="#9a32cd" points="330.449,-528.122 329.745,-517.551 323.703,-526.254 330.449,-528.122"/>
<text text-anchor="middle" x="343" y="-538.794" font-family="Helvetica,sans-Serif" font-size="10.00"> template</text>
</g>
<!-- Node9 -->
<g id="node17" class="node"><title>Node9</title>
<a xlink:href="structconf__item.html" target="_top" xlink:title="conf_item">
<polygon fill="none" stroke="black" points="477.5,-423.294 477.5,-442.294 536.5,-442.294 536.5,-423.294 477.5,-423.294"/>
<text text-anchor="middle" x="507" y="-430.294" font-family="Helvetica,sans-Serif" font-size="10.00">conf_item</text>
</a>
</g>
<!-- Node8&#45;&gt;Node9 -->
<g id="edge20" class="edge"><title>Node8&#45;&gt;Node9</title>
<path fill="none" stroke="#9a32cd" stroke-dasharray="5,2" d="M375.827,-494.101C397.429,-484.697 426.575,-471.792 452,-459.794 463.754,-454.247 476.791,-447.739 487.11,-442.502"/>
<polygon fill="#9a32cd" stroke="#9a32cd" points="374.254,-490.968 366.474,-498.16 377.041,-497.39 374.254,-490.968"/>
<text text-anchor="middle" x="429" y="-483.794" font-family="Helvetica,sans-Serif" font-size="10.00"> parent</text>
</g>
<!-- Node17 -->
<g id="node42" class="node"><title>Node17</title>
<a xlink:href="structmain__config__t.html" target="_top" xlink:title="main_config_t">
<polygon fill="none" stroke="black" points="618.5,-248.294 618.5,-267.294 695.5,-267.294 695.5,-248.294 618.5,-248.294"/>
<text text-anchor="middle" x="657" y="-255.294" font-family="Helvetica,sans-Serif" font-size="10.00">main_config_t</text>
</a>
</g>
<!-- Node8&#45;&gt;Node17 -->
<g id="edge60" class="edge"><title>Node8&#45;&gt;Node17</title>
<path fill="none" stroke="#9a32cd" stroke-dasharray="5,2" d="M345.192,-487.968C349.733,-433.302 371.152,-281.883 470,-242.794 523.173,-221.767 591.44,-236.864 628.712,-248.269"/>
<polygon fill="#9a32cd" stroke="#9a32cd" points="341.691,-487.863 344.457,-498.09 348.672,-488.369 341.691,-487.863"/>
<text text-anchor="middle" x="507" y="-245.794" font-family="Helvetica,sans-Serif" font-size="10.00"> config</text>
</g>
<!-- Node18 -->
<g id="node44" class="node"><title>Node18</title>
<a xlink:href="structrad__listen__t.html" target="_top" xlink:title="rad_listen_t">
<polygon fill="none" stroke="black" points="473.5,-263.294 473.5,-282.294 540.5,-282.294 540.5,-263.294 473.5,-263.294"/>
<text text-anchor="middle" x="507" y="-270.294" font-family="Helvetica,sans-Serif" font-size="10.00">rad_listen_t</text>
</a>
</g>
<!-- Node8&#45;&gt;Node18 -->
<g id="edge58" class="edge"><title>Node8&#45;&gt;Node18</title>
<path fill="none" stroke="#9a32cd" stroke-dasharray="5,2" d="M347.858,-488.385C354.957,-456.451 372.522,-391.97 406,-347.794 428.413,-318.218 465.502,-294.69 487.66,-282.327"/>
<polygon fill="#9a32cd" stroke="#9a32cd" points="344.419,-487.729 345.774,-498.237 351.268,-489.178 344.419,-487.729"/>
<text text-anchor="middle" x="429" y="-350.794" font-family="Helvetica,sans-Serif" font-size="10.00"> cs</text>
</g>
<!-- Node25 -->
<g id="node73" class="node"><title>Node25</title>
<a xlink:href="structeap__types__t.html" target="_top" xlink:title="eap_types_t">
<polygon fill="none" stroke="black" points="472,-783.294 472,-802.294 542,-802.294 542,-783.294 472,-783.294"/>
<text text-anchor="middle" x="507" y="-790.294" font-family="Helvetica,sans-Serif" font-size="10.00">eap_types_t</text>
</a>
</g>
<!-- Node8&#45;&gt;Node25 -->
<g id="edge100" class="edge"><title>Node8&#45;&gt;Node25</title>
<path fill="none" stroke="#9a32cd" stroke-dasharray="5,2" d="M351.269,-527.017C360.765,-549.878 379.378,-587.934 406,-611.794 422.736,-626.794 436.946,-616.107 452,-632.794 493.044,-678.289 503.063,-756.142 505.358,-783.195"/>
<polygon fill="#9a32cd" stroke="#9a32cd" points="354.398,-525.413 347.448,-517.416 347.894,-528.001 354.398,-525.413"/>
<text text-anchor="middle" x="429" y="-635.794" font-family="Helvetica,sans-Serif" font-size="10.00"> cs</text>
</g>
<!-- Node9&#45;&gt;Node8 -->
<g id="edge18" class="edge"><title>Node9&#45;&gt;Node8</title>
<path fill="none" stroke="#9a32cd" stroke-dasharray="5,2" d="M467.34,-421.719C447.997,-418.297 424.77,-417.524 406,-426.794 375.355,-441.929 355.678,-480.282 347.849,-498.242"/>
<polygon fill="#9a32cd" stroke="#9a32cd" points="466.844,-425.19 477.344,-423.778 468.255,-418.334 466.844,-425.19"/>
<text text-anchor="middle" x="429" y="-451.794" font-family="Helvetica,sans-Serif" font-size="10.00"> tail</text>
<text text-anchor="middle" x="429" y="-440.794" font-family="Helvetica,sans-Serif" font-size="10.00">item</text>
<text text-anchor="middle" x="429" y="-429.794" font-family="Helvetica,sans-Serif" font-size="10.00">children</text>
</g>
<!-- Node9&#45;&gt;Node9 -->
<g id="edge22" class="edge"><title>Node9&#45;&gt;Node9</title>
<path fill="none" stroke="#9a32cd" stroke-dasharray="5,2" d="M493.372,-452.56C494.443,-457.291 498.985,-460.794 507,-460.794 520.152,-460.794 523.954,-451.359 518.406,-442.551"/>
<polygon fill="#9a32cd" stroke="#9a32cd" points="496.844,-453.072 495.594,-442.551 490.01,-451.555 496.844,-453.072"/>
<text text-anchor="middle" x="507" y="-463.794" font-family="Helvetica,sans-Serif" font-size="10.00"> next</text>
</g>
<!-- Node10 -->
<g id="node21" class="node"><title>Node10</title>
<a xlink:href="structCONF__PARSER.html" target="_top" xlink:title="CONF_PARSER">
<polygon fill="none" stroke="black" points="116,-498.294 116,-517.294 208,-517.294 208,-498.294 116,-498.294"/>
<text text-anchor="middle" x="162" y="-505.294" font-family="Helvetica,sans-Serif" font-size="10.00">CONF_PARSER</text>
</a>
</g>
<!-- Node10&#45;&gt;Node8 -->
<g id="edge24" class="edge"><title>Node10&#45;&gt;Node8</title>
<path fill="none" stroke="#9a32cd" stroke-dasharray="5,2" d="M218.261,-507.794C250.16,-507.794 288.893,-507.794 314.43,-507.794"/>
<polygon fill="#9a32cd" stroke="#9a32cd" points="218.169,-504.294 208.169,-507.794 218.169,-511.294 218.169,-504.294"/>
<text text-anchor="middle" x="253" y="-510.794" font-family="Helvetica,sans-Serif" font-size="10.00"> variables</text>
</g>
<!-- Node11 -->
<g id="node23" class="node"><title>Node11</title>
<a xlink:href="structrbtree__t.html" target="_top" xlink:title="rbtree_t">
<polygon fill="none" stroke="black" points="137,-611.294 137,-630.294 187,-630.294 187,-611.294 137,-611.294"/>
<text text-anchor="middle" x="162" y="-618.294" font-family="Helvetica,sans-Serif" font-size="10.00">rbtree_t</text>
</a>
</g>
<!-- Node11&#45;&gt;Node8 -->
<g id="edge26" class="edge"><title>Node11&#45;&gt;Node8</title>
<path fill="none" stroke="#9a32cd" stroke-dasharray="5,2" d="M187.005,-605.64C224.435,-582.011 295.634,-537.064 326.777,-517.404"/>
<polygon fill="#9a32cd" stroke="#9a32cd" points="184.849,-602.862 178.261,-611.16 188.586,-608.781 184.849,-602.862"/>
<text text-anchor="middle" x="253" y="-616.794" font-family="Helvetica,sans-Serif" font-size="10.00"> data_tree</text>
<text text-anchor="middle" x="253" y="-605.794" font-family="Helvetica,sans-Serif" font-size="10.00">name2_tree</text>
<text text-anchor="middle" x="253" y="-594.794" font-family="Helvetica,sans-Serif" font-size="10.00">section_tree</text>
<text text-anchor="middle" x="253" y="-583.794" font-family="Helvetica,sans-Serif" font-size="10.00">pair_tree</text>
</g>
<!-- Node11&#45;&gt;Node24 -->
<g id="edge108" class="edge"><title>Node11&#45;&gt;Node24</title>
<path fill="none" stroke="#9a32cd" stroke-dasharray="5,2" d="M174.844,-638.709C200.565,-675.215 265.416,-754.794 342,-754.794 342,-754.794 342,-754.794 746,-754.794 959.683,-754.794 1215.62,-719.045 1300.27,-706.267"/>
<polygon fill="#9a32cd" stroke="#9a32cd" points="177.708,-636.697 169.165,-630.431 171.936,-640.657 177.708,-636.697"/>
<text text-anchor="middle" x="745" y="-768.794" font-family="Helvetica,sans-Serif" font-size="10.00"> session_tree</text>
<text text-anchor="middle" x="745" y="-757.794" font-family="Helvetica,sans-Serif" font-size="10.00">handler_tree</text>
</g>
<!-- Node12 -->
<g id="node25" class="node"><title>Node12</title>
<a xlink:href="structrbnode__t.html" target="_top" xlink:title="rbnode_t">
<polygon fill="none" stroke="black" points="0,-611.294 0,-630.294 54,-630.294 54,-611.294 0,-611.294"/>
<text text-anchor="middle" x="27" y="-618.294" font-family="Helvetica,sans-Serif" font-size="10.00">rbnode_t</text>
</a>
</g>
<!-- Node12&#45;&gt;Node11 -->
<g id="edge28" class="edge"><title>Node12&#45;&gt;Node11</title>
<path fill="none" stroke="#9a32cd" stroke-dasharray="5,2" d="M64.3432,-620.794C87.3013,-620.794 116.343,-620.794 136.572,-620.794"/>
<polygon fill="#9a32cd" stroke="#9a32cd" points="64.2766,-617.294 54.2765,-620.794 64.2765,-624.294 64.2766,-617.294"/>
<text text-anchor="middle" x="85" y="-623.794" font-family="Helvetica,sans-Serif" font-size="10.00"> Root</text>
</g>
<!-- Node12&#45;&gt;Node12 -->
<g id="edge30" class="edge"><title>Node12&#45;&gt;Node12</title>
<path fill="none" stroke="#9a32cd" stroke-dasharray="5,2" d="M16.3189,-640.56C17.1578,-645.291 20.7182,-648.794 27,-648.794 37.3086,-648.794 40.2884,-639.359 35.9395,-630.551"/>
<polygon fill="#9a32cd" stroke="#9a32cd" points="19.7944,-641.003 18.0605,-630.551 12.898,-639.803 19.7944,-641.003"/>
<text text-anchor="middle" x="27" y="-673.794" font-family="Helvetica,sans-Serif" font-size="10.00"> Left</text>
<text text-anchor="middle" x="27" y="-662.794" font-family="Helvetica,sans-Serif" font-size="10.00">Right</text>
<text text-anchor="middle" x="27" y="-651.794" font-family="Helvetica,sans-Serif" font-size="10.00">Parent</text>
</g>
<!-- Node13 -->
<g id="node28" class="node"><title>Node13</title>
<a xlink:href="structfr__socket__limit__t.html" target="_top" xlink:title="fr_socket_limit_t">
<polygon fill="none" stroke="black" points="298.5,-610.294 298.5,-629.294 387.5,-629.294 387.5,-610.294 298.5,-610.294"/>
<text text-anchor="middle" x="343" y="-617.294" font-family="Helvetica,sans-Serif" font-size="10.00">fr_socket_limit_t</text>
</a>
</g>
<!-- Node13&#45;&gt;Node5 -->
<g id="edge46" class="edge"><title>Node13&#45;&gt;Node5</title>
<path fill="none" stroke="#9a32cd" stroke-dasharray="5,2" d="M363.285,-635.878C371.171,-642.711 380.244,-650.908 388,-658.794 396.62,-667.558 394.832,-674.657 406,-679.794 424.574,-688.337 431.744,-682.564 452,-679.794 600.556,-659.481 666.909,-688.656 776,-585.794 791.973,-570.733 779.033,-555.855 794,-539.794 797.983,-535.519 803.127,-532.108 808.391,-529.425"/>
<polygon fill="#9a32cd" stroke="#9a32cd" points="365.481,-633.151 355.602,-629.323 360.937,-638.476 365.481,-633.151"/>
<text text-anchor="middle" x="581" y="-672.794" font-family="Helvetica,sans-Serif" font-size="10.00"> limit</text>
</g>
<!-- Node13&#45;&gt;Node7 -->
<g id="edge32" class="edge"><title>Node13&#45;&gt;Node7</title>
<path fill="none" stroke="#9a32cd" stroke-dasharray="5,2" d="M380.089,-607.291C388.505,-604.78 397.495,-602.417 406,-600.794 427.043,-596.778 450.95,-594.774 470.111,-593.776"/>
<polygon fill="#9a32cd" stroke="#9a32cd" points="379.039,-603.952 370.535,-610.272 381.124,-610.635 379.039,-603.952"/>
<text text-anchor="middle" x="429" y="-603.794" font-family="Helvetica,sans-Serif" font-size="10.00"> limit</text>
</g>
<!-- Node14 -->
<g id="node30" class="node"><title>Node14</title>
<a xlink:href="structfr__event__t.html" target="_top" xlink:title="fr_event_t">
<polygon fill="none" stroke="black" points="313,-668.294 313,-687.294 373,-687.294 373,-668.294 313,-668.294"/>
<text text-anchor="middle" x="343" y="-675.294" font-family="Helvetica,sans-Serif" font-size="10.00">fr_event_t</text>
</a>
</g>
<!-- Node14&#45;&gt;Node4 -->
<g id="edge88" class="edge"><title>Node14&#45;&gt;Node4</title>
<path fill="none" stroke="#9a32cd" stroke-dasharray="5,2" d="M380.554,-690.256C388.826,-692.556 397.638,-694.605 406,-695.794 426.241,-698.673 431.567,-696.463 452,-695.794 596.317,-691.067 634.89,-702.417 776,-671.794 847.093,-656.366 872.177,-650.803 922,-597.794 943.107,-575.337 964.187,-545.639 974.492,-530.529"/>
<polygon fill="#9a32cd" stroke="#9a32cd" points="381.381,-686.851 370.799,-687.368 379.394,-693.563 381.381,-686.851"/>
<text text-anchor="middle" x="657" y="-695.794" font-family="Helvetica,sans-Serif" font-size="10.00"> ev</text>
</g>
<!-- Node14&#45;&gt;Node7 -->
<g id="edge34" class="edge"><title>Node14&#45;&gt;Node7</title>
<path fill="none" stroke="#9a32cd" stroke-dasharray="5,2" d="M383.11,-671.028C404.495,-666.174 430.855,-658.241 452,-645.794 471.471,-634.332 489.154,-614.347 498.663,-602.466"/>
<polygon fill="#9a32cd" stroke="#9a32cd" points="382.107,-667.663 373.056,-673.169 383.566,-674.509 382.107,-667.663"/>
<text text-anchor="middle" x="429" y="-667.794" font-family="Helvetica,sans-Serif" font-size="10.00"> ev</text>
</g>
<!-- Node14&#45;&gt;Node14 -->
<g id="edge36" class="edge"><title>Node14&#45;&gt;Node14</title>
<path fill="none" stroke="#9a32cd" stroke-dasharray="5,2" d="M327.075,-697.194C328.138,-702.109 333.447,-705.794 343,-705.794 358.285,-705.794 362.704,-696.359 356.255,-687.551"/>
<polygon fill="#9a32cd" stroke="#9a32cd" points="330.449,-698.122 329.745,-687.551 323.703,-696.254 330.449,-698.122"/>
<text text-anchor="middle" x="343" y="-708.794" font-family="Helvetica,sans-Serif" font-size="10.00"> ev_p</text>
</g>
<!-- Node15 -->
<g id="node33" class="node"><title>Node15</title>
<a xlink:href="structfr__ipaddr__t.html" target="_top" xlink:title="fr_ipaddr_t">
<polygon fill="none" stroke="black" points="312,-148.294 312,-167.294 374,-167.294 374,-148.294 312,-148.294"/>
<text text-anchor="middle" x="343" y="-155.294" font-family="Helvetica,sans-Serif" font-size="10.00">fr_ipaddr_t</text>
</a>
</g>
<!-- Node15&#45;&gt;Node2 -->
<g id="edge110" class="edge"><title>Node15&#45;&gt;Node2</title>
<path fill="none" stroke="#9a32cd" stroke-dasharray="5,2" d="M363.88,-141.682C393.145,-119.641 450.387,-82.794 506,-82.794 506,-82.794 506,-82.794 983,-82.794 1085.62,-82.794 1144.34,-479.661 1153.68,-547.873"/>
<polygon fill="#9a32cd" stroke="#9a32cd" points="361.496,-139.101 355.729,-147.989 365.78,-144.637 361.496,-139.101"/>
<text text-anchor="middle" x="745" y="-85.794" font-family="Helvetica,sans-Serif" font-size="10.00"> src_ipaddr</text>
</g>
<!-- Node15&#45;&gt;Node5 -->
<g id="edge50" class="edge"><title>Node15&#45;&gt;Node5</title>
<path fill="none" stroke="#9a32cd" stroke-dasharray="5,2" d="M357.061,-175.584C378.798,-205.751 422.882,-269.371 452,-327.794 462.163,-348.186 453.964,-359.609 470,-375.794 495.647,-401.68 743.644,-477.03 776,-493.794 784.537,-498.217 785.443,-501.411 794,-505.794 798.489,-508.093 803.415,-510.229 808.23,-512.127"/>
<polygon fill="#9a32cd" stroke="#9a32cd" points="359.781,-173.373 351.073,-167.338 354.117,-177.486 359.781,-173.373"/>
<text text-anchor="middle" x="581" y="-433.794" font-family="Helvetica,sans-Serif" font-size="10.00"> ipaddr</text>
</g>
<!-- Node15&#45;&gt;Node7 -->
<g id="edge38" class="edge"><title>Node15&#45;&gt;Node7</title>
<path fill="none" stroke="#9a32cd" stroke-dasharray="5,2" d="M346.081,-177.806C350.89,-216.086 365.63,-301.007 406,-358.794 420.712,-379.853 439.024,-371.623 452,-393.794 481.24,-443.755 452.516,-467.609 470,-522.794 477.264,-545.722 491.556,-570.21 499.779,-583.276"/>
<polygon fill="#9a32cd" stroke="#9a32cd" points="349.515,-177.036 344.89,-167.505 342.561,-177.84 349.515,-177.036"/>
<text text-anchor="middle" x="429" y="-407.794" font-family="Helvetica,sans-Serif" font-size="10.00"> ipaddr</text>
<text text-anchor="middle" x="429" y="-396.794" font-family="Helvetica,sans-Serif" font-size="10.00">src_ipaddr</text>
</g>
<!-- Node15&#45;&gt;Node17 -->
<g id="edge62" class="edge"><title>Node15&#45;&gt;Node17</title>
<path fill="none" stroke="#9a32cd" stroke-dasharray="5,2" d="M384.453,-161.945C436.582,-168.53 528.947,-184.445 600,-219.794 615.989,-227.749 632.734,-239.654 643.699,-248.014"/>
<polygon fill="#9a32cd" stroke="#9a32cd" points="384.62,-158.44 374.272,-160.714 383.779,-165.389 384.62,-158.44"/>
<text text-anchor="middle" x="507" y="-199.794" font-family="Helvetica,sans-Serif" font-size="10.00"> myip</text>
</g>
<!-- Node19 -->
<g id="node50" class="node"><title>Node19</title>
<a xlink:href="structradius__packet.html" target="_top" xlink:title="radius_packet">
<polygon fill="none" stroke="black" points="618.5,-119.294 618.5,-138.294 695.5,-138.294 695.5,-119.294 618.5,-119.294"/>
<text text-anchor="middle" x="657" y="-126.294" font-family="Helvetica,sans-Serif" font-size="10.00">radius_packet</text>
</a>
</g>
<!-- Node15&#45;&gt;Node19 -->
<g id="edge76" class="edge"><title>Node15&#45;&gt;Node19</title>
<path fill="none" stroke="#9a32cd" stroke-dasharray="5,2" d="M384.1,-152.571C408.832,-149.461 441.222,-145.589 470,-142.794 521.248,-137.817 580.587,-133.622 618.198,-131.157"/>
<polygon fill="#9a32cd" stroke="#9a32cd" points="383.481,-149.121 374.001,-153.851 384.362,-156.065 383.481,-149.121"/>
<text text-anchor="middle" x="507" y="-156.794" font-family="Helvetica,sans-Serif" font-size="10.00"> dst_ipaddr</text>
<text text-anchor="middle" x="507" y="-145.794" font-family="Helvetica,sans-Serif" font-size="10.00">src_ipaddr</text>
</g>
<!-- Node16 -->
<g id="node35" class="node"><title>Node16</title>
<a xlink:href="structin6__addr.html" target="_top" xlink:title="in6_addr">
<polygon fill="none" stroke="black" points="135.5,-64.294 135.5,-83.294 188.5,-83.294 188.5,-64.294 135.5,-64.294"/>
<text text-anchor="middle" x="162" y="-71.294" font-family="Helvetica,sans-Serif" font-size="10.00">in6_addr</text>
</a>
</g>
<!-- Node16&#45;&gt;Node15 -->
<g id="edge40" class="edge"><title>Node16&#45;&gt;Node15</title>
<path fill="none" stroke="#9a32cd" stroke-dasharray="5,2" d="M192.694,-87.7285C229.193,-104.857 290.158,-133.466 321.706,-148.271"/>
<polygon fill="#9a32cd" stroke="#9a32cd" points="194.073,-84.5097 183.534,-83.4299 191.099,-90.8466 194.073,-84.5097"/>
<text text-anchor="middle" x="253" y="-131.794" font-family="Helvetica,sans-Serif" font-size="10.00"> ip6addr</text>
</g>
<!-- Node21 -->
<g id="node54" class="node"><title>Node21</title>
<a xlink:href="unionvalue__pair__data.html" target="_top" xlink:title="value_pair_data">
<polygon fill="none" stroke="black" points="300.5,-6.29399 300.5,-25.294 385.5,-25.294 385.5,-6.29399 300.5,-6.29399"/>
<text text-anchor="middle" x="343" y="-13.294" font-family="Helvetica,sans-Serif" font-size="10.00">value_pair_data</text>
</a>
</g>
<!-- Node16&#45;&gt;Node21 -->
<g id="edge70" class="edge"><title>Node16&#45;&gt;Node21</title>
<path fill="none" stroke="#9a32cd" stroke-dasharray="5,2" d="M198.454,-62.3062C231.836,-51.4894 281.256,-35.4763 312.531,-25.3426"/>
<polygon fill="#9a32cd" stroke="#9a32cd" points="197.081,-59.0719 188.646,-65.484 199.238,-65.7311 197.081,-59.0719"/>
<text text-anchor="middle" x="253" y="-56.794" font-family="Helvetica,sans-Serif" font-size="10.00"> ipv6addr</text>
</g>
<!-- Node17&#45;&gt;Node4 -->
<g id="edge52" class="edge"><title>Node17&#45;&gt;Node4</title>
<path fill="none" stroke="#9a32cd" stroke-dasharray="5,2" d="M705.801,-247.73C766.455,-238.096 869.481,-232.84 922,-293.794 952.284,-328.942 913.362,-463.809 940,-501.794 943.604,-506.933 948.959,-510.715 954.619,-513.487"/>
<polygon fill="#9a32cd" stroke="#9a32cd" points="704.995,-244.316 695.718,-249.434 706.161,-251.218 704.995,-244.316"/>
<text text-anchor="middle" x="835" y="-263.794" font-family="Helvetica,sans-Serif" font-size="10.00"> root</text>
</g>
<!-- Node18&#45;&gt;Node4 -->
<g id="edge78" class="edge"><title>Node18&#45;&gt;Node4</title>
<path fill="none" stroke="#9a32cd" stroke-dasharray="5,2" d="M536.384,-286.951C603.937,-320.816 779.284,-409.721 922,-490.794 930.152,-495.425 931.733,-497.371 940,-501.794 946.087,-505.051 952.834,-508.314 959.068,-511.193"/>
<polygon fill="#9a32cd" stroke="#9a32cd" points="537.725,-283.709 527.216,-282.362 534.591,-289.968 537.725,-283.709"/>
<text text-anchor="middle" x="745" y="-424.794" font-family="Helvetica,sans-Serif" font-size="10.00"> listener</text>
<text text-anchor="middle" x="745" y="-413.794" font-family="Helvetica,sans-Serif" font-size="10.00">proxy_listener</text>
</g>
<!-- Node18&#45;&gt;Node17 -->
<g id="edge54" class="edge"><title>Node18&#45;&gt;Node17</title>
<path fill="none" stroke="#9a32cd" stroke-dasharray="5,2" d="M550.928,-268.443C572.234,-266.284 597.739,-263.699 618.285,-261.616"/>
<polygon fill="#9a32cd" stroke="#9a32cd" points="550.442,-264.974 540.846,-269.465 551.148,-271.939 550.442,-264.974"/>
<text text-anchor="middle" x="581" y="-270.794" font-family="Helvetica,sans-Serif" font-size="10.00"> listen</text>
</g>
<!-- Node18&#45;&gt;Node18 -->
<g id="edge56" class="edge"><title>Node18&#45;&gt;Node18</title>
<path fill="none" stroke="#9a32cd" stroke-dasharray="5,2" d="M493.372,-292.56C494.443,-297.291 498.985,-300.794 507,-300.794 520.152,-300.794 523.954,-291.359 518.406,-282.551"/>
<polygon fill="#9a32cd" stroke="#9a32cd" points="496.844,-293.072 495.594,-282.551 490.01,-291.555 496.844,-293.072"/>
<text text-anchor="middle" x="507" y="-358.794" font-family="Helvetica,sans-Serif" font-size="10.00"> next</text>
<text text-anchor="middle" x="507" y="-347.794" font-family="Helvetica,sans-Serif" font-size="10.00">encode</text>
<text text-anchor="middle" x="507" y="-336.794" font-family="Helvetica,sans-Serif" font-size="10.00">recv</text>
<text text-anchor="middle" x="507" y="-325.794" font-family="Helvetica,sans-Serif" font-size="10.00">print</text>
<text text-anchor="middle" x="507" y="-314.794" font-family="Helvetica,sans-Serif" font-size="10.00">send</text>
<text text-anchor="middle" x="507" y="-303.794" font-family="Helvetica,sans-Serif" font-size="10.00">decode</text>
</g>
<!-- Node19&#45;&gt;Node4 -->
<g id="edge64" class="edge"><title>Node19&#45;&gt;Node4</title>
<path fill="none" stroke="#9a32cd" stroke-dasharray="5,2" d="M705.533,-133.466C752.884,-140.199 825.603,-156.383 876,-194.794 906.5,-218.04 909.954,-231.386 922,-267.794 938.382,-317.308 910.26,-458.951 940,-501.794 943.579,-506.95 948.925,-510.739 954.584,-513.511"/>
<polygon fill="#9a32cd" stroke="#9a32cd" points="705.913,-129.986 695.538,-132.132 704.987,-136.924 705.913,-129.986"/>
<text text-anchor="middle" x="835" y="-230.794" font-family="Helvetica,sans-Serif" font-size="10.00"> reply</text>
<text text-anchor="middle" x="835" y="-219.794" font-family="Helvetica,sans-Serif" font-size="10.00">proxy_reply</text>
<text text-anchor="middle" x="835" y="-208.794" font-family="Helvetica,sans-Serif" font-size="10.00">proxy</text>
<text text-anchor="middle" x="835" y="-197.794" font-family="Helvetica,sans-Serif" font-size="10.00">packet</text>
</g>
<!-- Node20 -->
<g id="node52" class="node"><title>Node20</title>
<a xlink:href="structvalue__pair.html" target="_top" xlink:title="value_pair">
<polygon fill="none" stroke="black" points="476.5,-6.29399 476.5,-25.294 537.5,-25.294 537.5,-6.29399 476.5,-6.29399"/>
<text text-anchor="middle" x="507" y="-13.294" font-family="Helvetica,sans-Serif" font-size="10.00">value_pair</text>
</a>
</g>
<!-- Node20&#45;&gt;Node4 -->
<g id="edge86" class="edge"><title>Node20&#45;&gt;Node4</title>
<path fill="none" stroke="#9a32cd" stroke-dasharray="5,2" d="M547.689,-7.95481C602.325,0.779855 702.305,9.23989 776,-27.794 867.731,-73.8916 884.629,-111.175 922,-206.794 945.908,-267.966 902.976,-447.547 940,-501.794 943.627,-507.107 949.136,-510.966 954.951,-513.757"/>
<polygon fill="#9a32cd" stroke="#9a32cd" points="546.99,-4.52321 537.71,-9.63495 548.152,-11.4261 546.99,-4.52321"/>
<text text-anchor="middle" x="745" y="-52.794" font-family="Helvetica,sans-Serif" font-size="10.00"> password</text>
<text text-anchor="middle" x="745" y="-41.794" font-family="Helvetica,sans-Serif" font-size="10.00">config_items</text>
<text text-anchor="middle" x="745" y="-30.794" font-family="Helvetica,sans-Serif" font-size="10.00">username</text>
</g>
<!-- Node20&#45;&gt;Node19 -->
<g id="edge66" class="edge"><title>Node20&#45;&gt;Node19</title>
<path fill="none" stroke="#9a32cd" stroke-dasharray="5,2" d="M528.64,-31.5533C559.791,-55.3369 617.882,-99.6906 643.414,-119.184"/>
<polygon fill="#9a32cd" stroke="#9a32cd" points="530.691,-28.715 520.618,-25.4283 526.443,-34.2787 530.691,-28.715"/>
<text text-anchor="middle" x="581" y="-88.794" font-family="Helvetica,sans-Serif" font-size="10.00"> vps</text>
</g>
<!-- Node20&#45;&gt;Node20 -->
<g id="edge72" class="edge"><title>Node20&#45;&gt;Node20</title>
<path fill="none" stroke="#9a32cd" stroke-dasharray="5,2" d="M493.372,-35.5603C494.443,-40.2905 498.985,-43.794 507,-43.794 520.152,-43.794 523.954,-34.3593 518.406,-25.5511"/>
<polygon fill="#9a32cd" stroke="#9a32cd" points="496.844,-36.0719 495.594,-25.5511 490.01,-34.5548 496.844,-36.0719"/>
<text text-anchor="middle" x="507" y="-46.794" font-family="Helvetica,sans-Serif" font-size="10.00"> next</text>
</g>
<!-- Node21&#45;&gt;Node20 -->
<g id="edge68" class="edge"><title>Node21&#45;&gt;Node20</title>
<path fill="none" stroke="#9a32cd" stroke-dasharray="5,2" d="M396.024,-15.794C422.618,-15.794 454.012,-15.794 476.435,-15.794"/>
<polygon fill="#9a32cd" stroke="#9a32cd" points="395.719,-12.2941 385.719,-15.794 395.719,-19.2941 395.719,-12.2941"/>
<text text-anchor="middle" x="429" y="-18.794" font-family="Helvetica,sans-Serif" font-size="10.00"> data</text>
</g>
<!-- Node22 -->
<g id="node58" class="node"><title>Node22</title>
<a xlink:href="structattr__flags.html" target="_top" xlink:title="attr_flags">
<polygon fill="none" stroke="black" points="314.5,-44.294 314.5,-63.294 371.5,-63.294 371.5,-44.294 314.5,-44.294"/>
<text text-anchor="middle" x="343" y="-51.294" font-family="Helvetica,sans-Serif" font-size="10.00">attr_flags</text>
</a>
</g>
<!-- Node22&#45;&gt;Node20 -->
<g id="edge74" class="edge"><title>Node22&#45;&gt;Node20</title>
<path fill="none" stroke="#9a32cd" stroke-dasharray="5,2" d="M381.665,-46.3611C402.474,-42.1073 428.745,-36.4945 452,-30.794 459.938,-28.8481 468.481,-26.5642 476.377,-24.3737"/>
<polygon fill="#9a32cd" stroke="#9a32cd" points="380.733,-42.9788 371.627,-48.3947 382.123,-49.8394 380.733,-42.9788"/>
<text text-anchor="middle" x="429" y="-44.794" font-family="Helvetica,sans-Serif" font-size="10.00"> flags</text>
</g>
<!-- Node23 -->
<g id="node67" class="node"><title>Node23</title>
<a xlink:href="structrequest__data__t.html" target="_top" xlink:title="request_data_t">
<polygon fill="none" stroke="black" points="794.5,-549.294 794.5,-568.294 875.5,-568.294 875.5,-549.294 794.5,-549.294"/>
<text text-anchor="middle" x="835" y="-556.294" font-family="Helvetica,sans-Serif" font-size="10.00">request_data_t</text>
</a>
</g>
<!-- Node23&#45;&gt;Node4 -->
<g id="edge90" class="edge"><title>Node23&#45;&gt;Node4</title>
<path fill="none" stroke="#9a32cd" stroke-dasharray="5,2" d="M882.557,-546.593C906.521,-540.312 934.842,-532.89 954.941,-527.623"/>
<polygon fill="#9a32cd" stroke="#9a32cd" points="881.376,-543.284 872.59,-549.205 883.15,-550.056 881.376,-543.284"/>
<text text-anchor="middle" x="908" y="-545.794" font-family="Helvetica,sans-Serif" font-size="10.00"> data</text>
</g>
<!-- Node23&#45;&gt;Node23 -->
<g id="edge92" class="edge"><title>Node23&#45;&gt;Node23</title>
<path fill="none" stroke="#9a32cd" stroke-dasharray="5,2" d="M821.741,-578.56C822.782,-583.291 827.202,-586.794 835,-586.794 847.797,-586.794 851.496,-577.359 846.097,-568.551"/>
<polygon fill="#9a32cd" stroke="#9a32cd" points="825.212,-579.065 823.903,-568.551 818.37,-577.587 825.212,-579.065"/>
<text text-anchor="middle" x="835" y="-589.794" font-family="Helvetica,sans-Serif" font-size="10.00"> next</text>
</g>
<!-- Node24&#45;&gt;Node1 -->
<g id="edge112" class="edge"><title>Node24&#45;&gt;Node1</title>
<path fill="none" stroke="#9a32cd" stroke-dasharray="5,2" d="M1355.51,-686.857C1381.33,-671.123 1421.23,-646.812 1443.18,-633.437"/>
<polygon fill="#9a32cd" stroke="#9a32cd" points="1353.41,-684.037 1346.7,-692.23 1357.06,-690.015 1353.41,-684.037"/>
<text text-anchor="middle" x="1388" y="-674.794" font-family="Helvetica,sans-Serif" font-size="10.00"> inst</text>
</g>
<!-- Node24&#45;&gt;Node2 -->
<g id="edge96" class="edge"><title>Node24&#45;&gt;Node2</title>
<path fill="none" stroke="#9a32cd" stroke-dasharray="5,2" d="M1290.54,-693.956C1268.08,-687.864 1240.27,-677.551 1220,-660.794 1188.17,-634.483 1168.02,-587.672 1160.42,-567.492"/>
<polygon fill="#9a32cd" stroke="#9a32cd" points="1289.88,-697.4 1300.43,-696.466 1291.6,-690.615 1289.88,-697.4"/>
<text text-anchor="middle" x="1251" y="-693.794" font-family="Helvetica,sans-Serif" font-size="10.00"> inst</text>
</g>
<!-- Node25&#45;&gt;Node24 -->
<g id="edge98" class="edge"><title>Node25&#45;&gt;Node24</title>
<path fill="none" stroke="#9a32cd" stroke-dasharray="5,2" d="M552.443,-792.794C581.834,-792.794 621.216,-792.794 656,-792.794 656,-792.794 656,-792.794 1157,-792.794 1214.24,-792.794 1233.96,-792.908 1282,-761.794 1301.77,-748.991 1316.77,-724.985 1324.08,-711.544"/>
<polygon fill="#9a32cd" stroke="#9a32cd" points="552.094,-789.294 542.094,-792.794 552.094,-796.294 552.094,-789.294"/>
<text text-anchor="middle" x="908" y="-795.794" font-family="Helvetica,sans-Serif" font-size="10.00"> types</text>
</g>
<!-- Node26 -->
<g id="node76" class="node"><title>Node26</title>
<a xlink:href="structeap__type__t.html" target="_top" xlink:title="eap_type_t">
<polygon fill="none" stroke="black" points="310.5,-783.294 310.5,-802.294 375.5,-802.294 375.5,-783.294 310.5,-783.294"/>
<text text-anchor="middle" x="343" y="-790.294" font-family="Helvetica,sans-Serif" font-size="10.00">eap_type_t</text>
</a>
</g>
<!-- Node26&#45;&gt;Node25 -->
<g id="edge102" class="edge"><title>Node26&#45;&gt;Node25</title>
<path fill="none" stroke="#9a32cd" stroke-dasharray="5,2" d="M385.839,-792.794C412.594,-792.794 446.856,-792.794 471.943,-792.794"/>
<polygon fill="#9a32cd" stroke="#9a32cd" points="385.62,-789.294 375.62,-792.794 385.62,-796.294 385.62,-789.294"/>
<text text-anchor="middle" x="429" y="-795.794" font-family="Helvetica,sans-Serif" font-size="10.00"> type</text>
</g>
<!-- Node27 -->
<g id="node79" class="node"><title>Node27</title>
<a xlink:href="structfr__randctx.html" target="_top" xlink:title="fr_randctx">
<polygon fill="none" stroke="black" points="1126,-745.294 1126,-764.294 1186,-764.294 1186,-745.294 1126,-745.294"/>
<text text-anchor="middle" x="1156" y="-752.294" font-family="Helvetica,sans-Serif" font-size="10.00">fr_randctx</text>
</a>
</g>
<!-- Node27&#45;&gt;Node24 -->
<g id="edge106" class="edge"><title>Node27&#45;&gt;Node24</title>
<path fill="none" stroke="#9a32cd" stroke-dasharray="5,2" d="M1196.38,-750.947C1221.51,-747.598 1254.43,-741.527 1282,-730.794 1294.33,-725.994 1307.02,-717.942 1316.11,-711.539"/>
<polygon fill="#9a32cd" stroke="#9a32cd" points="1195.61,-747.515 1186.12,-752.222 1196.48,-754.462 1195.61,-747.515"/>
<text text-anchor="middle" x="1251" y="-749.794" font-family="Helvetica,sans-Serif" font-size="10.00"> rand_pool</text>
</g>
</g>
</svg>
        <g id="navigator" transform="translate(0 0)" fill="#404254">
                <rect fill="#f2f5e9" fill-opacity="0.5" stroke="#606060" stroke-width=".5" x="0" y="0" width="60" height="60"/>
                <use id="zoomplus" xlink:href="#zoomPlus" x="17" y="9" onmousedown="handleZoom(evt,'in')"/>
                <use id="zoomminus" xlink:href="#zoomMin" x="42" y="9" onmousedown="handleZoom(evt,'out')"/>
                <use id="reset" xlink:href="#resetDef" x="30" y="36" onmousedown="handleReset()"/>
                <g id="arrowUp" xlink:href="#dirArrow" transform="translate(30 24)" onmousedown="handlePan(0,-1)">
                  <use xlink:href="#rim" fill="#404040">
                        <set attributeName="fill" to="#808080" begin="arrowUp.mouseover" end="arrowUp.mouseout"/>
                  </use>
                  <path fill="none" stroke="white" stroke-width="1.5" d="M0,-3.0v7 M-2.5,-0.5L0,-3.0L2.5,-0.5"/>
                </g>
                <g id="arrowRight" xlink:href="#dirArrow" transform="rotate(90) translate(36 -43)" onmousedown="handlePan(1,0)">
                  <use xlink:href="#rim" fill="#404040">
                        <set attributeName="fill" to="#808080" begin="arrowRight.mouseover" end="arrowRight.mouseout"/>
                  </use>
                  <path fill="none" stroke="white" stroke-width="1.5" d="M0,-3.0v7 M-2.5,-0.5L0,-3.0L2.5,-0.5"/>
                </g>
                <g id="arrowDown" xlink:href="#dirArrow" transform="rotate(180) translate(-30 -48)" onmousedown="handlePan(0,1)">
                  <use xlink:href="#rim" fill="#404040">
                        <set attributeName="fill" to="#808080" begin="arrowDown.mouseover" end="arrowDown.mouseout"/>
                  </use>
                  <path fill="none" stroke="white" stroke-width="1.5" d="M0,-3.0v7 M-2.5,-0.5L0,-3.0L2.5,-0.5"/>
                </g>
                <g id="arrowLeft" xlink:href="#dirArrow" transform="rotate(270) translate(-36 17)" onmousedown="handlePan(-1,0)">
                  <use xlink:href="#rim" fill="#404040">
                        <set attributeName="fill" to="#808080" begin="arrowLeft.mouseover" end="arrowLeft.mouseout"/>
                  </use>
                  <path fill="none" stroke="white" stroke-width="1.5" d="M0,-3.0v7 M-2.5,-0.5L0,-3.0L2.5,-0.5"/>
                </g>
        </g>
</svg>
