<?xml version="1.0" encoding="UTF-8" standalone="no"?>
<!DOCTYPE svg PUBLIC "-//W3C//DTD SVG 1.1//EN"
 "http://www.w3.org/Graphics/SVG/1.1/DTD/svg11.dtd">
<!-- Generated by graphviz version 2.28.0 (20111211.2114)
 -->
<!-- Title: G Pages: 1 -->
<!--zoomable-->
<svg id="main" version="1.1" xmlns="http://www.w3.org/2000/svg" xmlns:xlink="http://www.w3.org/1999/xlink" xml:space="preserve" onload="init(evt)">
        <defs>
                <circle id="rim" cx="0" cy="0" r="7"/>
                <circle id="rim2" cx="0" cy="0" r="3.5"/>
                <g id="zoomPlus">
                        <use xlink:href="#rim" fill="#404040">
                                <set attributeName="fill" to="#808080" begin="zoomplus.mouseover" end="zoomplus.mouseout"/>
                        </use>
                        <path d="M-4,0h8M0,-4v8" fill="none" stroke="white" stroke-width="1.5" pointer-events="none"/>
                </g>
                <g id="zoomMin">
                        <use xlink:href="#rim" fill="#404040">
                                <set attributeName="fill" to="#808080" begin="zoomminus.mouseover" end="zoomminus.mouseout"/>
                        </use>
                        <path d="M-4,0h8" fill="none" stroke="white" stroke-width="1.5" pointer-events="none"/>
                </g>
                <g id="dirArrow">
                        <path fill="none" stroke="white" stroke-width="1.5" d="M0,-3.0v7 M-2.5,-0.5L0,-3.0L2.5,-0.5"/>
                </g>
               <g id="resetDef">
                       <use xlink:href="#rim2" fill="#404040">
                               <set attributeName="fill" to="#808080" begin="reset.mouseover" end="reset.mouseout"/>
                       </use>
               </g>
        </defs>

<script type="text/javascript">
var viewWidth = 425;
var viewHeight = 514;
var sectionId = 'dynsection-0';
</script>
<script xlink:href="svgpan.js"/>
<svg id="graph" class="graph">
<g id="viewport">
<title>G</title>
<!-- Node1 -->
<g id="node1" class="node"><title>Node1</title>
<polygon fill="#bfbfbf" stroke="black" points="154,-0.5 154,-19.5 236,-19.5 236,-0.5 154,-0.5"/>
<text text-anchor="middle" x="195" y="-7.5" font-family="Helvetica,sans-Serif" font-size="10.00">rlm_sqlippool_t</text>
</g>
<!-- Node2 -->
<g id="node2" class="node"><title>Node2</title>
<a xlink:href="structsql__inst.html" target="_top" xlink:title="sql_inst">
<polygon fill="none" stroke="black" points="170,-68.5 170,-87.5 220,-87.5 220,-68.5 170,-68.5"/>
<text text-anchor="middle" x="195" y="-75.5" font-family="Helvetica,sans-Serif" font-size="10.00">sql_inst</text>
</a>
</g>
<!-- Node2&#45;&gt;Node1 -->
<g id="edge2" class="edge"><title>Node2&#45;&gt;Node1</title>
<path fill="none" stroke="#9a32cd" stroke-dasharray="5,2" d="M195,-58.0413C195,-45.4724 195,-29.5631 195,-19.8411"/>
<polygon fill="#9a32cd" stroke="#9a32cd" points="191.5,-58.3716 195,-68.3717 198.5,-58.3717 191.5,-58.3716"/>
<text text-anchor="middle" x="213.5" y="-41.5" font-family="Helvetica,sans-Serif" font-size="10.00"> sql_inst</text>
</g>
<!-- Node3 -->
<g id="node4" class="node"><title>Node3</title>
<a xlink:href="structfr__connection__pool__t.html" target="_top" xlink:title="fr_connection_pool_t">
<polygon fill="none" stroke="black" points="-0.5,-214.5 -0.5,-233.5 106.5,-233.5 106.5,-214.5 -0.5,-214.5"/>
<text text-anchor="middle" x="53" y="-221.5" font-family="Helvetica,sans-Serif" font-size="10.00">fr_connection_pool_t</text>
</a>
</g>
<!-- Node3&#45;&gt;Node2 -->
<g id="edge4" class="edge"><title>Node3&#45;&gt;Node2</title>
<path fill="none" stroke="#9a32cd" stroke-dasharray="5,2" d="M58.5712,-204.629C67.4395,-178.588 87.2975,-131.301 121,-106 135.437,-95.1624 154.66,-88.3226 169.895,-84.2392"/>
<polygon fill="#9a32cd" stroke="#9a32cd" points="55.1705,-203.771 55.4351,-214.362 61.8332,-205.918 55.1705,-203.771"/>
<text text-anchor="middle" x="103" y="-143.5" font-family="Helvetica,sans-Serif" font-size="10.00"> pool</text>
</g>
<!-- Node4 -->
<g id="node6" class="node"><title>Node4</title>
<a xlink:href="structconf__part.html" target="_top" xlink:title="conf_part">
<polygon fill="none" stroke="black" points="192.5,-305.5 192.5,-324.5 249.5,-324.5 249.5,-305.5 192.5,-305.5"/>
<text text-anchor="middle" x="221" y="-312.5" font-family="Helvetica,sans-Serif" font-size="10.00">conf_part</text>
</a>
</g>
<!-- Node4&#45;&gt;Node2 -->
<g id="edge28" class="edge"><title>Node4&#45;&gt;Node2</title>
<path fill="none" stroke="#9a32cd" stroke-dasharray="5,2" d="M202.147,-298.546C185.878,-283.886 163.538,-260.244 154,-234 139.122,-193.064 140.639,-177.456 154,-136 160.282,-116.508 175.976,-98.0516 186.024,-87.6658"/>
<polygon fill="#9a32cd" stroke="#9a32cd" points="200.154,-301.45 210.002,-305.359 204.741,-296.163 200.154,-301.45"/>
<text text-anchor="middle" x="152" y="-182.5" font-family="Helvetica,sans-Serif" font-size="10.00"> cs</text>
</g>
<!-- Node4&#45;&gt;Node3 -->
<g id="edge6" class="edge"><title>Node4&#45;&gt;Node3</title>
<path fill="none" stroke="#9a32cd" stroke-dasharray="5,2" d="M182.169,-311.137C158.773,-307.869 129.293,-300.888 107,-286 91.4021,-275.583 94.4739,-266.007 82,-252 76.1441,-245.424 68.8941,-238.674 63.1081,-233.568"/>
<polygon fill="#9a32cd" stroke="#9a32cd" points="181.762,-314.613 192.114,-312.358 182.615,-307.666 181.762,-314.613"/>
<text text-anchor="middle" x="114" y="-266.5" font-family="Helvetica,sans-Serif" font-size="10.00"> cs</text>
</g>
<!-- Node4&#45;&gt;Node4 -->
<g id="edge8" class="edge"><title>Node4&#45;&gt;Node4</title>
<path fill="none" stroke="#9a32cd" stroke-dasharray="5,2" d="M259.76,-322.309C264.153,-320.94 267,-318.504 267,-315 267,-309.25 259.333,-306.375 249.75,-306.375"/>
<polygon fill="#9a32cd" stroke="#9a32cd" points="259.208,-318.851 249.75,-323.625 260.121,-325.792 259.208,-318.851"/>
<text text-anchor="middle" x="287.5" y="-312.5" font-family="Helvetica,sans-Serif" font-size="10.00"> template</text>
</g>
<!-- Node5 -->
<g id="node9" class="node"><title>Node5</title>
<a xlink:href="structconf__item.html" target="_top" xlink:title="conf_item">
<polygon fill="none" stroke="black" points="297.5,-214.5 297.5,-233.5 356.5,-233.5 356.5,-214.5 297.5,-214.5"/>
<text text-anchor="middle" x="327" y="-221.5" font-family="Helvetica,sans-Serif" font-size="10.00">conf_item</text>
</a>
</g>
<!-- Node4&#45;&gt;Node5 -->
<g id="edge12" class="edge"><title>Node4&#45;&gt;Node5</title>
<path fill="none" stroke="#9a32cd" stroke-dasharray="5,2" d="M232.762,-296.424C244.333,-279.303 260.851,-255.37 265,-252 274.933,-243.932 287.648,-237.839 298.974,-233.503"/>
<polygon fill="#9a32cd" stroke="#9a32cd" points="229.63,-294.81 226.953,-305.061 235.438,-298.717 229.63,-294.81"/>
<text text-anchor="middle" x="280.5" y="-266.5" font-family="Helvetica,sans-Serif" font-size="10.00"> parent</text>
</g>
<!-- Node13 -->
<g id="node30" class="node"><title>Node13</title>
<a xlink:href="structrlm__sql__config__section.html" target="_top" xlink:title="rlm_sql_config_section">
<polygon fill="none" stroke="black" points="163,-214.5 163,-233.5 279,-233.5 279,-214.5 163,-214.5"/>
<text text-anchor="middle" x="221" y="-221.5" font-family="Helvetica,sans-Serif" font-size="10.00">rlm_sql_config_section</text>
</a>
</g>
<!-- Node4&#45;&gt;Node13 -->
<g id="edge38" class="edge"><title>Node4&#45;&gt;Node13</title>
<path fill="none" stroke="#9a32cd" stroke-dasharray="5,2" d="M221,-295.349C221,-276.383 221,-247.828 221,-233.639"/>
<polygon fill="#9a32cd" stroke="#9a32cd" points="217.5,-295.466 221,-305.466 224.5,-295.466 217.5,-295.466"/>
<text text-anchor="middle" x="228" y="-266.5" font-family="Helvetica,sans-Serif" font-size="10.00"> cs</text>
</g>
<!-- Node5&#45;&gt;Node4 -->
<g id="edge10" class="edge"><title>Node5&#45;&gt;Node4</title>
<path fill="none" stroke="#9a32cd" stroke-dasharray="5,2" d="M322.897,-243.813C319.069,-257.23 312.078,-274.807 300,-286 286.232,-298.759 266.279,-305.769 249.872,-309.584"/>
<polygon fill="#9a32cd" stroke="#9a32cd" points="326.382,-244.303 325.412,-233.753 319.591,-242.606 326.382,-244.303"/>
<text text-anchor="middle" x="338" y="-277.5" font-family="Helvetica,sans-Serif" font-size="10.00"> tail</text>
<text text-anchor="middle" x="338" y="-266.5" font-family="Helvetica,sans-Serif" font-size="10.00">item</text>
<text text-anchor="middle" x="338" y="-255.5" font-family="Helvetica,sans-Serif" font-size="10.00">children</text>
</g>
<!-- Node5&#45;&gt;Node5 -->
<g id="edge14" class="edge"><title>Node5&#45;&gt;Node5</title>
<path fill="none" stroke="#9a32cd" stroke-dasharray="5,2" d="M366.812,-229.984C371.181,-228.844 374,-226.849 374,-224 374,-219.324 366.41,-216.95 356.833,-216.877"/>
<polygon fill="#9a32cd" stroke="#9a32cd" points="366.371,-226.512 356.833,-231.123 367.165,-233.467 366.371,-226.512"/>
<text text-anchor="middle" x="385" y="-221.5" font-family="Helvetica,sans-Serif" font-size="10.00"> next</text>
</g>
<!-- Node6 -->
<g id="node13" class="node"><title>Node6</title>
<a xlink:href="structCONF__PARSER.html" target="_top" xlink:title="CONF_PARSER">
<polygon fill="none" stroke="black" points="142,-406.5 142,-425.5 234,-425.5 234,-406.5 142,-406.5"/>
<text text-anchor="middle" x="188" y="-413.5" font-family="Helvetica,sans-Serif" font-size="10.00">CONF_PARSER</text>
</a>
</g>
<!-- Node6&#45;&gt;Node4 -->
<g id="edge16" class="edge"><title>Node6&#45;&gt;Node4</title>
<path fill="none" stroke="#9a32cd" stroke-dasharray="5,2" d="M188.774,-395.982C189.942,-381.276 192.841,-360.679 200,-344 203.068,-336.853 208.318,-329.853 212.801,-324.64"/>
<polygon fill="#9a32cd" stroke="#9a32cd" points="185.259,-396.137 188.161,-406.326 192.247,-396.551 185.259,-396.137"/>
<text text-anchor="middle" x="221.5" y="-363.5" font-family="Helvetica,sans-Serif" font-size="10.00"> variables</text>
</g>
<!-- Node7 -->
<g id="node15" class="node"><title>Node7</title>
<a xlink:href="structrbtree__t.html" target="_top" xlink:title="rbtree_t">
<polygon fill="none" stroke="black" points="252,-406.5 252,-425.5 302,-425.5 302,-406.5 252,-406.5"/>
<text text-anchor="middle" x="277" y="-413.5" font-family="Helvetica,sans-Serif" font-size="10.00">rbtree_t</text>
</a>
</g>
<!-- Node7&#45;&gt;Node4 -->
<g id="edge18" class="edge"><title>Node7&#45;&gt;Node4</title>
<path fill="none" stroke="#9a32cd" stroke-dasharray="5,2" d="M269.663,-396.943C263.384,-382.241 253.685,-361.184 243,-344 238.822,-337.28 233.322,-330.28 228.866,-324.96"/>
<polygon fill="#9a32cd" stroke="#9a32cd" points="266.518,-398.495 273.596,-406.378 272.979,-395.801 266.518,-398.495"/>
<text text-anchor="middle" x="293" y="-380" font-family="Helvetica,sans-Serif" font-size="10.00"> data_tree</text>
<text text-anchor="middle" x="293" y="-369" font-family="Helvetica,sans-Serif" font-size="10.00">name2_tree</text>
<text text-anchor="middle" x="293" y="-358" font-family="Helvetica,sans-Serif" font-size="10.00">section_tree</text>
<text text-anchor="middle" x="293" y="-347" font-family="Helvetica,sans-Serif" font-size="10.00">pair_tree</text>
</g>
<!-- Node8 -->
<g id="node17" class="node"><title>Node8</title>
<a xlink:href="structrbnode__t.html" target="_top" xlink:title="rbnode_t">
<polygon fill="none" stroke="black" points="250,-480.5 250,-499.5 304,-499.5 304,-480.5 250,-480.5"/>
<text text-anchor="middle" x="277" y="-487.5" font-family="Helvetica,sans-Serif" font-size="10.00">rbnode_t</text>
</a>
</g>
<!-- Node8&#45;&gt;Node7 -->
<g id="edge20" class="edge"><title>Node8&#45;&gt;Node7</title>
<path fill="none" stroke="#9a32cd" stroke-dasharray="5,2" d="M277,-470.156C277,-455.712 277,-436.459 277,-425.531"/>
<polygon fill="#9a32cd" stroke="#9a32cd" points="273.5,-470.458 277,-480.458 280.5,-470.458 273.5,-470.458"/>
<text text-anchor="middle" x="289.5" y="-447.5" font-family="Helvetica,sans-Serif" font-size="10.00"> Root</text>
</g>
<!-- Node8&#45;&gt;Node8 -->
<g id="edge22" class="edge"><title>Node8&#45;&gt;Node8</title>
<path fill="none" stroke="#9a32cd" stroke-dasharray="5,2" d="M314.51,-496.464C319.038,-495.297 322,-493.142 322,-490 322,-484.844 314.024,-482.346 304.241,-482.507"/>
<polygon fill="#9a32cd" stroke="#9a32cd" points="313.842,-493.014 304.241,-497.493 314.54,-499.979 313.842,-493.014"/>
<text text-anchor="middle" x="336.5" y="-498.5" font-family="Helvetica,sans-Serif" font-size="10.00"> Left</text>
<text text-anchor="middle" x="336.5" y="-487.5" font-family="Helvetica,sans-Serif" font-size="10.00">Right</text>
<text text-anchor="middle" x="336.5" y="-476.5" font-family="Helvetica,sans-Serif" font-size="10.00">Parent</text>
</g>
<!-- Node9 -->
<g id="node20" class="node"><title>Node9</title>
<a xlink:href="structfr__connection__t.html" target="_top" xlink:title="fr_connection_t">
<polygon fill="none" stroke="black" points="11.5,-305.5 11.5,-324.5 94.5,-324.5 94.5,-305.5 11.5,-305.5"/>
<text text-anchor="middle" x="53" y="-312.5" font-family="Helvetica,sans-Serif" font-size="10.00">fr_connection_t</text>
</a>
</g>
<!-- Node9&#45;&gt;Node3 -->
<g id="edge24" class="edge"><title>Node9&#45;&gt;Node3</title>
<path fill="none" stroke="#9a32cd" stroke-dasharray="5,2" d="M53,-295.349C53,-276.383 53,-247.828 53,-233.639"/>
<polygon fill="#9a32cd" stroke="#9a32cd" points="49.5001,-295.466 53,-305.466 56.5001,-295.466 49.5001,-295.466"/>
<text text-anchor="middle" x="65.5" y="-272" font-family="Helvetica,sans-Serif" font-size="10.00"> head</text>
<text text-anchor="middle" x="65.5" y="-261" font-family="Helvetica,sans-Serif" font-size="10.00">tail</text>
</g>
<!-- Node9&#45;&gt;Node9 -->
<g id="edge26" class="edge"><title>Node9&#45;&gt;Node9</title>
<path fill="none" stroke="#9a32cd" stroke-dasharray="5,2" d="M104.508,-321.816C109.111,-320.388 112,-318.116 112,-315 112,-310.014 104.605,-307.189 94.6251,-306.527"/>
<polygon fill="#9a32cd" stroke="#9a32cd" points="103.909,-318.367 94.6251,-323.473 105.066,-325.271 103.909,-318.367"/>
<text text-anchor="middle" x="123" y="-318" font-family="Helvetica,sans-Serif" font-size="10.00"> prev</text>
<text text-anchor="middle" x="123" y="-307" font-family="Helvetica,sans-Serif" font-size="10.00">next</text>
</g>
<!-- Node10 -->
<g id="node24" class="node"><title>Node10</title>
<a xlink:href="structsql__socket.html" target="_top" xlink:title="sql_socket">
<polygon fill="none" stroke="black" points="163,-136.5 163,-155.5 227,-155.5 227,-136.5 163,-136.5"/>
<text text-anchor="middle" x="195" y="-143.5" font-family="Helvetica,sans-Serif" font-size="10.00">sql_socket</text>
</a>
</g>
<!-- Node10&#45;&gt;Node2 -->
<g id="edge30" class="edge"><title>Node10&#45;&gt;Node2</title>
<path fill="none" stroke="#9a32cd" stroke-dasharray="5,2" d="M195,-126.041C195,-113.472 195,-97.5631 195,-87.8411"/>
<polygon fill="#9a32cd" stroke="#9a32cd" points="191.5,-126.372 195,-136.372 198.5,-126.372 191.5,-126.372"/>
<text text-anchor="middle" x="230" y="-109.5" font-family="Helvetica,sans-Serif" font-size="10.00"> sql_get_socket</text>
</g>
<!-- Node11 -->
<g id="node26" class="node"><title>Node11</title>
<a xlink:href="structrlm__sql__module__t.html" target="_top" xlink:title="rlm_sql_module_t">
<polygon fill="none" stroke="black" points="245.5,-136.5 245.5,-155.5 338.5,-155.5 338.5,-136.5 245.5,-136.5"/>
<text text-anchor="middle" x="292" y="-143.5" font-family="Helvetica,sans-Serif" font-size="10.00">rlm_sql_module_t</text>
</a>
</g>
<!-- Node11&#45;&gt;Node2 -->
<g id="edge32" class="edge"><title>Node11&#45;&gt;Node2</title>
<path fill="none" stroke="#9a32cd" stroke-dasharray="5,2" d="M284.716,-127.083C280.958,-119.708 275.73,-111.599 269,-106 255.017,-94.3676 235.59,-87.5343 220.149,-83.6533"/>
<polygon fill="#9a32cd" stroke="#9a32cd" points="281.615,-128.72 288.934,-136.381 287.99,-125.828 281.615,-128.72"/>
<text text-anchor="middle" x="296.5" y="-109.5" font-family="Helvetica,sans-Serif" font-size="10.00"> module</text>
</g>
<!-- Node12 -->
<g id="node28" class="node"><title>Node12</title>
<a xlink:href="structsql__config.html" target="_top" xlink:title="sql_config">
<polygon fill="none" stroke="black" points="356.5,-136.5 356.5,-155.5 417.5,-155.5 417.5,-136.5 356.5,-136.5"/>
<text text-anchor="middle" x="387" y="-143.5" font-family="Helvetica,sans-Serif" font-size="10.00">sql_config</text>
</a>
</g>
<!-- Node12&#45;&gt;Node2 -->
<g id="edge34" class="edge"><title>Node12&#45;&gt;Node2</title>
<path fill="none" stroke="#9a32cd" stroke-dasharray="5,2" d="M365.561,-130.669C352.337,-122.402 334.754,-112.407 318,-106 285.328,-93.5051 245.449,-86.0819 220.134,-82.2717"/>
<polygon fill="#9a32cd" stroke="#9a32cd" points="364.038,-133.851 374.344,-136.307 367.82,-127.96 364.038,-133.851"/>
<text text-anchor="middle" x="359" y="-109.5" font-family="Helvetica,sans-Serif" font-size="10.00"> config</text>
</g>
<!-- Node13&#45;&gt;Node12 -->
<g id="edge36" class="edge"><title>Node13&#45;&gt;Node12</title>
<path fill="none" stroke="#9a32cd" stroke-dasharray="5,2" d="M249.082,-210.143C283.055,-194.589 339.297,-168.84 368.349,-155.539"/>
<polygon fill="#9a32cd" stroke="#9a32cd" points="247.355,-207.084 239.72,-214.43 250.269,-213.449 247.355,-207.084"/>
<text text-anchor="middle" x="349.5" y="-188" font-family="Helvetica,sans-Serif" font-size="10.00"> accounting</text>
<text text-anchor="middle" x="349.5" y="-177" font-family="Helvetica,sans-Serif" font-size="10.00">postauth</text>
</g>
</g>
</svg>
        <g id="navigator" transform="translate(0 0)" fill="#404254">
                <rect fill="#f2f5e9" fill-opacity="0.5" stroke="#606060" stroke-width=".5" x="0" y="0" width="60" height="60"/>
                <use id="zoomplus" xlink:href="#zoomPlus" x="17" y="9" onmousedown="handleZoom(evt,'in')"/>
                <use id="zoomminus" xlink:href="#zoomMin" x="42" y="9" onmousedown="handleZoom(evt,'out')"/>
                <use id="reset" xlink:href="#resetDef" x="30" y="36" onmousedown="handleReset()"/>
                <g id="arrowUp" xlink:href="#dirArrow" transform="translate(30 24)" onmousedown="handlePan(0,-1)">
                  <use xlink:href="#rim" fill="#404040">
                        <set attributeName="fill" to="#808080" begin="arrowUp.mouseover" end="arrowUp.mouseout"/>
                  </use>
                  <path fill="none" stroke="white" stroke-width="1.5" d="M0,-3.0v7 M-2.5,-0.5L0,-3.0L2.5,-0.5"/>
                </g>
                <g id="arrowRight" xlink:href="#dirArrow" transform="rotate(90) translate(36 -43)" onmousedown="handlePan(1,0)">
                  <use xlink:href="#rim" fill="#404040">
                        <set attributeName="fill" to="#808080" begin="arrowRight.mouseover" end="arrowRight.mouseout"/>
                  </use>
                  <path fill="none" stroke="white" stroke-width="1.5" d="M0,-3.0v7 M-2.5,-0.5L0,-3.0L2.5,-0.5"/>
                </g>
                <g id="arrowDown" xlink:href="#dirArrow" transform="rotate(180) translate(-30 -48)" onmousedown="handlePan(0,1)">
                  <use xlink:href="#rim" fill="#404040">
                        <set attributeName="fill" to="#808080" begin="arrowDown.mouseover" end="arrowDown.mouseout"/>
                  </use>
                  <path fill="none" stroke="white" stroke-width="1.5" d="M0,-3.0v7 M-2.5,-0.5L0,-3.0L2.5,-0.5"/>
                </g>
                <g id="arrowLeft" xlink:href="#dirArrow" transform="rotate(270) translate(-36 17)" onmousedown="handlePan(-1,0)">
                  <use xlink:href="#rim" fill="#404040">
                        <set attributeName="fill" to="#808080" begin="arrowLeft.mouseover" end="arrowLeft.mouseout"/>
                  </use>
                  <path fill="none" stroke="white" stroke-width="1.5" d="M0,-3.0v7 M-2.5,-0.5L0,-3.0L2.5,-0.5"/>
                </g>
        </g>
</svg>
