<?xml version="1.0" encoding="UTF-8" standalone="no"?>
<!DOCTYPE svg PUBLIC "-//W3C//DTD SVG 1.1//EN"
 "http://www.w3.org/Graphics/SVG/1.1/DTD/svg11.dtd">
<!-- Generated by graphviz version 2.28.0 (20111211.2114)
 -->
<!-- Title: G Pages: 1 -->
<!--zoomable-->
<svg id="main" version="1.1" xmlns="http://www.w3.org/2000/svg" xmlns:xlink="http://www.w3.org/1999/xlink" xml:space="preserve" onload="init(evt)">
        <defs>
                <circle id="rim" cx="0" cy="0" r="7"/>
                <circle id="rim2" cx="0" cy="0" r="3.5"/>
                <g id="zoomPlus">
                        <use xlink:href="#rim" fill="#404040">
                                <set attributeName="fill" to="#808080" begin="zoomplus.mouseover" end="zoomplus.mouseout"/>
                        </use>
                        <path d="M-4,0h8M0,-4v8" fill="none" stroke="white" stroke-width="1.5" pointer-events="none"/>
                </g>
                <g id="zoomMin">
                        <use xlink:href="#rim" fill="#404040">
                                <set attributeName="fill" to="#808080" begin="zoomminus.mouseover" end="zoomminus.mouseout"/>
                        </use>
                        <path d="M-4,0h8" fill="none" stroke="white" stroke-width="1.5" pointer-events="none"/>
                </g>
                <g id="dirArrow">
                        <path fill="none" stroke="white" stroke-width="1.5" d="M0,-3.0v7 M-2.5,-0.5L0,-3.0L2.5,-0.5"/>
                </g>
               <g id="resetDef">
                       <use xlink:href="#rim2" fill="#404040">
                               <set attributeName="fill" to="#808080" begin="reset.mouseover" end="reset.mouseout"/>
                       </use>
               </g>
        </defs>

<script type="text/javascript">
var viewWidth = 1272;
var viewHeight = 757;
var sectionId = 'dynsection-0';
</script>
<script xlink:href="svgpan.js"/>
<svg id="graph" class="graph">
<g id="viewport">
<title>G</title>
<!-- Node1 -->
<g id="node1" class="node"><title>Node1</title>
<polygon fill="#bfbfbf" stroke="black" points="1180,-439.5 1180,-458.5 1264,-458.5 1264,-439.5 1180,-439.5"/>
<text text-anchor="middle" x="1222" y="-446.5" font-family="Helvetica,sans-Serif" font-size="10.00">rlm_rest_read_t</text>
</g>
<!-- Node2 -->
<g id="node2" class="node"><title>Node2</title>
<a xlink:href="structauth__req.html" target="_top" xlink:title="auth_req">
<polygon fill="none" stroke="black" points="1054,-439.5 1054,-458.5 1108,-458.5 1108,-439.5 1054,-439.5"/>
<text text-anchor="middle" x="1081" y="-446.5" font-family="Helvetica,sans-Serif" font-size="10.00">auth_req</text>
</a>
</g>
<!-- Node2&#45;&gt;Node1 -->
<g id="edge2" class="edge"><title>Node2&#45;&gt;Node1</title>
<path fill="none" stroke="#9a32cd" stroke-dasharray="5,2" d="M1118.16,-449C1137.09,-449 1160.34,-449 1179.94,-449"/>
<polygon fill="#9a32cd" stroke="#9a32cd" points="1118.14,-445.5 1108.14,-449 1118.14,-452.5 1118.14,-445.5"/>
<text text-anchor="middle" x="1144" y="-452" font-family="Helvetica,sans-Serif" font-size="10.00"> request</text>
</g>
<!-- Node2&#45;&gt;Node2 -->
<g id="edge76" class="edge"><title>Node2&#45;&gt;Node2</title>
<path fill="none" stroke="#9a32cd" stroke-dasharray="5,2" d="M1069.58,-468.766C1070.48,-473.497 1074.28,-477 1081,-477 1092.02,-477 1095.2,-467.565 1090.56,-458.757"/>
<polygon fill="#9a32cd" stroke="#9a32cd" points="1073.06,-469.228 1071.44,-458.757 1066.17,-467.948 1073.06,-469.228"/>
<text text-anchor="middle" x="1081" y="-524" font-family="Helvetica,sans-Serif" font-size="10.00"> coa</text>
<text text-anchor="middle" x="1081" y="-513" font-family="Helvetica,sans-Serif" font-size="10.00">radlog</text>
<text text-anchor="middle" x="1081" y="-502" font-family="Helvetica,sans-Serif" font-size="10.00">handle</text>
<text text-anchor="middle" x="1081" y="-491" font-family="Helvetica,sans-Serif" font-size="10.00">parent</text>
<text text-anchor="middle" x="1081" y="-480" font-family="Helvetica,sans-Serif" font-size="10.00">process</text>
</g>
<!-- Node3 -->
<g id="node4" class="node"><title>Node3</title>
<a xlink:href="structradclient.html" target="_top" xlink:title="radclient">
<polygon fill="none" stroke="black" points="898.5,-220.5 898.5,-239.5 951.5,-239.5 951.5,-220.5 898.5,-220.5"/>
<text text-anchor="middle" x="925" y="-227.5" font-family="Helvetica,sans-Serif" font-size="10.00">radclient</text>
</a>
</g>
<!-- Node3&#45;&gt;Node2 -->
<g id="edge4" class="edge"><title>Node3&#45;&gt;Node2</title>
<path fill="none" stroke="#9a32cd" stroke-dasharray="5,2" d="M961.303,-240.973C985.67,-250.295 1016.99,-266.036 1036,-290 1073.03,-336.67 1078.93,-412.466 1079.84,-439.249"/>
<polygon fill="#9a32cd" stroke="#9a32cd" points="962.272,-237.602 951.678,-237.482 959.885,-244.182 962.272,-237.602"/>
<text text-anchor="middle" x="1010" y="-293" font-family="Helvetica,sans-Serif" font-size="10.00"> client</text>
</g>
<!-- Node4 -->
<g id="node6" class="node"><title>Node4</title>
<a xlink:href="structhome__pool__t.html" target="_top" xlink:title="home_pool_t">
<polygon fill="none" stroke="black" points="711,-162.5 711,-181.5 783,-181.5 783,-162.5 711,-162.5"/>
<text text-anchor="middle" x="747" y="-169.5" font-family="Helvetica,sans-Serif" font-size="10.00">home_pool_t</text>
</a>
</g>
<!-- Node4&#45;&gt;Node2 -->
<g id="edge78" class="edge"><title>Node4&#45;&gt;Node2</title>
<path fill="none" stroke="#9a32cd" stroke-dasharray="5,2" d="M793.352,-167.798C860.35,-164.468 983.499,-170.029 1036,-248 1078.5,-311.114 1080.74,-408.35 1080.29,-439.234"/>
<polygon fill="#9a32cd" stroke="#9a32cd" points="792.879,-164.32 783.101,-168.399 793.289,-171.308 792.879,-164.32"/>
<text text-anchor="middle" x="925" y="-196" font-family="Helvetica,sans-Serif" font-size="10.00"> home_pool</text>
</g>
<!-- Node4&#45;&gt;Node3 -->
<g id="edge6" class="edge"><title>Node4&#45;&gt;Node3</title>
<path fill="none" stroke="#9a32cd" stroke-dasharray="5,2" d="M793.056,-171.246C815.668,-172.274 843.056,-175.708 866,-185 885.609,-192.941 904.175,-209.505 914.806,-220.17"/>
<polygon fill="#9a32cd" stroke="#9a32cd" points="793.14,-167.747 783.035,-170.93 792.92,-174.743 793.14,-167.747"/>
<text text-anchor="middle" x="835" y="-188" font-family="Helvetica,sans-Serif" font-size="10.00"> coa_pool</text>
</g>
<!-- Node5 -->
<g id="node8" class="node"><title>Node5</title>
<a xlink:href="structhome__server.html" target="_top" xlink:title="home_server">
<polygon fill="none" stroke="black" points="527.5,-305.5 527.5,-324.5 600.5,-324.5 600.5,-305.5 527.5,-305.5"/>
<text text-anchor="middle" x="564" y="-312.5" font-family="Helvetica,sans-Serif" font-size="10.00">home_server</text>
</a>
</g>
<!-- Node5&#45;&gt;Node2 -->
<g id="edge80" class="edge"><title>Node5&#45;&gt;Node2</title>
<path fill="none" stroke="#9a32cd" stroke-dasharray="5,2" d="M610.709,-319.055C634.506,-321.618 663.989,-325.502 690,-331 829.805,-360.553 991.802,-416.937 1053.92,-439.409"/>
<polygon fill="#9a32cd" stroke="#9a32cd" points="610.855,-315.552 600.548,-318.003 610.134,-322.514 610.855,-315.552"/>
<text text-anchor="middle" x="835" y="-380" font-family="Helvetica,sans-Serif" font-size="10.00"> home_server</text>
</g>
<!-- Node5&#45;&gt;Node3 -->
<g id="edge40" class="edge"><title>Node5&#45;&gt;Node3</title>
<path fill="none" stroke="#9a32cd" stroke-dasharray="5,2" d="M610.546,-304.216C686.86,-286.147 838.113,-250.335 898.362,-236.07"/>
<polygon fill="#9a32cd" stroke="#9a32cd" points="609.659,-300.829 600.735,-306.539 611.272,-307.641 609.659,-300.829"/>
<text text-anchor="middle" x="747" y="-284" font-family="Helvetica,sans-Serif" font-size="10.00"> coa_server</text>
</g>
<!-- Node5&#45;&gt;Node4 -->
<g id="edge8" class="edge"><title>Node5&#45;&gt;Node4</title>
<path fill="none" stroke="#9a32cd" stroke-dasharray="5,2" d="M609.627,-302.563C612.671,-300.674 615.511,-298.501 618,-296 634.955,-278.961 619.55,-262.527 636,-245 653.852,-225.979 667.978,-235.984 690,-222 708.485,-210.262 726.825,-192.397 737.25,-181.502"/>
<polygon fill="#9a32cd" stroke="#9a32cd" points="607.942,-299.494 600.636,-307.166 611.132,-305.724 607.942,-299.494"/>
<text text-anchor="middle" x="663" y="-259" font-family="Helvetica,sans-Serif" font-size="10.00"> fallback</text>
<text text-anchor="middle" x="663" y="-248" font-family="Helvetica,sans-Serif" font-size="10.00">servers</text>
</g>
<!-- Node6 -->
<g id="node10" class="node"><title>Node6</title>
<a xlink:href="structconf__part.html" target="_top" xlink:title="conf_part">
<polygon fill="none" stroke="black" points="314.5,-281.5 314.5,-300.5 371.5,-300.5 371.5,-281.5 314.5,-281.5"/>
<text text-anchor="middle" x="343" y="-288.5" font-family="Helvetica,sans-Serif" font-size="10.00">conf_part</text>
</a>
</g>
<!-- Node6&#45;&gt;Node3 -->
<g id="edge44" class="edge"><title>Node6&#45;&gt;Node3</title>
<path fill="none" stroke="#9a32cd" stroke-dasharray="5,2" d="M356.879,-273.551C368.161,-259.72 385.869,-241.236 406,-232 521.1,-179.193 563.491,-203.335 690,-209 765.994,-212.403 855.454,-221.993 898.427,-226.95"/>
<polygon fill="#9a32cd" stroke="#9a32cd" points="354.117,-271.401 350.721,-281.436 359.634,-275.709 354.117,-271.401"/>
<text text-anchor="middle" x="663" y="-212" font-family="Helvetica,sans-Serif" font-size="10.00"> cs</text>
</g>
<!-- Node6&#45;&gt;Node4 -->
<g id="edge38" class="edge"><title>Node6&#45;&gt;Node4</title>
<path fill="none" stroke="#9a32cd" stroke-dasharray="5,2" d="M351.04,-271.833C360.14,-250.016 378.196,-215.184 406,-198 456.233,-166.954 634.656,-168.506 710.967,-170.704"/>
<polygon fill="#9a32cd" stroke="#9a32cd" points="347.695,-270.777 347.289,-281.364 354.208,-273.34 347.695,-270.777"/>
<text text-anchor="middle" x="564" y="-178" font-family="Helvetica,sans-Serif" font-size="10.00"> cs</text>
</g>
<!-- Node6&#45;&gt;Node5 -->
<g id="edge10" class="edge"><title>Node6&#45;&gt;Node5</title>
<path fill="none" stroke="#9a32cd" stroke-dasharray="5,2" d="M357.69,-308.29C369.058,-321.153 386.481,-337.691 406,-345 441.795,-358.403 454.539,-352.589 492,-345 502.099,-342.954 525.741,-332.513 542.977,-324.518"/>
<polygon fill="#9a32cd" stroke="#9a32cd" points="360.251,-305.898 351.133,-300.503 354.897,-310.407 360.251,-305.898"/>
<text text-anchor="middle" x="449" y="-357" font-family="Helvetica,sans-Serif" font-size="10.00"> cs</text>
</g>
<!-- Node6&#45;&gt;Node6 -->
<g id="edge12" class="edge"><title>Node6&#45;&gt;Node6</title>
<path fill="none" stroke="#9a32cd" stroke-dasharray="5,2" d="M326.334,-310.4C327.447,-315.315 333.002,-319 343,-319 358.996,-319 363.62,-309.565 356.872,-300.757"/>
<polygon fill="#9a32cd" stroke="#9a32cd" points="329.707,-311.336 329.128,-300.757 322.983,-309.388 329.707,-311.336"/>
<text text-anchor="middle" x="343" y="-322" font-family="Helvetica,sans-Serif" font-size="10.00"> template</text>
</g>
<!-- Node7 -->
<g id="node13" class="node"><title>Node7</title>
<a xlink:href="structconf__item.html" target="_top" xlink:title="conf_item">
<polygon fill="none" stroke="black" points="534.5,-238.5 534.5,-257.5 593.5,-257.5 593.5,-238.5 534.5,-238.5"/>
<text text-anchor="middle" x="564" y="-245.5" font-family="Helvetica,sans-Serif" font-size="10.00">conf_item</text>
</a>
</g>
<!-- Node6&#45;&gt;Node7 -->
<g id="edge16" class="edge"><title>Node6&#45;&gt;Node7</title>
<path fill="none" stroke="#9a32cd" stroke-dasharray="5,2" d="M376.075,-304.097C406.765,-314.623 453.889,-325.471 492,-311 493.849,-310.298 532.862,-275.212 552.253,-257.712"/>
<polygon fill="#9a32cd" stroke="#9a32cd" points="376.928,-300.684 366.334,-300.577 374.549,-307.267 376.928,-300.684"/>
<text text-anchor="middle" x="449" y="-321" font-family="Helvetica,sans-Serif" font-size="10.00"> parent</text>
</g>
<!-- Node15 -->
<g id="node38" class="node"><title>Node15</title>
<a xlink:href="structmain__config__t.html" target="_top" xlink:title="main_config_t">
<polygon fill="none" stroke="black" points="708.5,-465.5 708.5,-484.5 785.5,-484.5 785.5,-465.5 708.5,-465.5"/>
<text text-anchor="middle" x="747" y="-472.5" font-family="Helvetica,sans-Serif" font-size="10.00">main_config_t</text>
</a>
</g>
<!-- Node6&#45;&gt;Node15 -->
<g id="edge56" class="edge"><title>Node6&#45;&gt;Node15</title>
<path fill="none" stroke="#9a32cd" stroke-dasharray="5,2" d="M348.935,-310.704C360.959,-357.98 391.821,-474.769 406,-486 501.602,-561.72 664.199,-508.125 723.503,-484.568"/>
<polygon fill="#9a32cd" stroke="#9a32cd" points="352.267,-309.603 346.425,-300.764 345.48,-311.317 352.267,-309.603"/>
<text text-anchor="middle" x="564" y="-528" font-family="Helvetica,sans-Serif" font-size="10.00"> config</text>
</g>
<!-- Node16 -->
<g id="node40" class="node"><title>Node16</title>
<a xlink:href="structrad__listen__t.html" target="_top" xlink:title="rad_listen_t">
<polygon fill="none" stroke="black" points="530.5,-381.5 530.5,-400.5 597.5,-400.5 597.5,-381.5 530.5,-381.5"/>
<text text-anchor="middle" x="564" y="-388.5" font-family="Helvetica,sans-Serif" font-size="10.00">rad_listen_t</text>
</a>
</g>
<!-- Node6&#45;&gt;Node16 -->
<g id="edge54" class="edge"><title>Node6&#45;&gt;Node16</title>
<path fill="none" stroke="#9a32cd" stroke-dasharray="5,2" d="M344.571,-311.138C346.828,-347.675 357.429,-424.222 406,-458 437.38,-479.823 456.479,-472.114 492,-458 521.296,-446.36 545.502,-416.265 556.549,-400.678"/>
<polygon fill="#9a32cd" stroke="#9a32cd" points="348.051,-310.615 344.095,-300.787 341.059,-310.937 348.051,-310.615"/>
<text text-anchor="middle" x="449" y="-474" font-family="Helvetica,sans-Serif" font-size="10.00"> cs</text>
</g>
<!-- Node23 -->
<g id="node69" class="node"><title>Node23</title>
<a xlink:href="structfr__connection__pool__t.html" target="_top" xlink:title="fr_connection_pool_t">
<polygon fill="none" stroke="black" points="510.5,-0.5 510.5,-19.5 617.5,-19.5 617.5,-0.5 510.5,-0.5"/>
<text text-anchor="middle" x="564" y="-7.5" font-family="Helvetica,sans-Serif" font-size="10.00">fr_connection_pool_t</text>
</a>
</g>
<!-- Node6&#45;&gt;Node23 -->
<g id="edge96" class="edge"><title>Node6&#45;&gt;Node23</title>
<path fill="none" stroke="#9a32cd" stroke-dasharray="5,2" d="M351.362,-271.763C361.821,-245.394 382.358,-196.969 406,-159 445.111,-96.1897 449.786,-72 510,-29 515.33,-25.194 521.5,-22.0788 527.706,-19.5534"/>
<polygon fill="#9a32cd" stroke="#9a32cd" points="348.007,-270.733 347.631,-281.322 354.527,-273.279 348.007,-270.733"/>
<text text-anchor="middle" x="449" y="-162" font-family="Helvetica,sans-Serif" font-size="10.00"> cs</text>
</g>
<!-- Node7&#45;&gt;Node6 -->
<g id="edge14" class="edge"><title>Node7&#45;&gt;Node6</title>
<path fill="none" stroke="#9a32cd" stroke-dasharray="5,2" d="M524.341,-239.785C491.872,-234.57 444.712,-230.985 406,-244 384.235,-251.317 364.036,-269.642 352.921,-281.129"/>
<polygon fill="#9a32cd" stroke="#9a32cd" points="523.887,-243.258 534.337,-241.517 525.082,-236.361 523.887,-243.258"/>
<text text-anchor="middle" x="449" y="-269" font-family="Helvetica,sans-Serif" font-size="10.00"> tail</text>
<text text-anchor="middle" x="449" y="-258" font-family="Helvetica,sans-Serif" font-size="10.00">item</text>
<text text-anchor="middle" x="449" y="-247" font-family="Helvetica,sans-Serif" font-size="10.00">children</text>
</g>
<!-- Node7&#45;&gt;Node7 -->
<g id="edge18" class="edge"><title>Node7&#45;&gt;Node7</title>
<path fill="none" stroke="#9a32cd" stroke-dasharray="5,2" d="M545.853,-267.4C547.065,-272.315 553.114,-276 564,-276 581.418,-276 586.453,-266.565 579.105,-257.757"/>
<polygon fill="#9a32cd" stroke="#9a32cd" points="549.224,-268.347 548.895,-257.757 542.548,-266.24 549.224,-268.347"/>
<text text-anchor="middle" x="564" y="-279" font-family="Helvetica,sans-Serif" font-size="10.00"> next</text>
</g>
<!-- Node8 -->
<g id="node17" class="node"><title>Node8</title>
<a xlink:href="structCONF__PARSER.html" target="_top" xlink:title="CONF_PARSER">
<polygon fill="none" stroke="black" points="116,-264.5 116,-283.5 208,-283.5 208,-264.5 116,-264.5"/>
<text text-anchor="middle" x="162" y="-271.5" font-family="Helvetica,sans-Serif" font-size="10.00">CONF_PARSER</text>
</a>
</g>
<!-- Node8&#45;&gt;Node6 -->
<g id="edge20" class="edge"><title>Node8&#45;&gt;Node6</title>
<path fill="none" stroke="#9a32cd" stroke-dasharray="5,2" d="M218.413,-273.195C237.94,-273.5 260.003,-274.51 280,-277 291.388,-278.418 303.756,-280.994 314.428,-283.554"/>
<polygon fill="#9a32cd" stroke="#9a32cd" points="218.191,-269.693 208.157,-273.095 218.123,-276.693 218.191,-269.693"/>
<text text-anchor="middle" x="253" y="-280" font-family="Helvetica,sans-Serif" font-size="10.00"> variables</text>
</g>
<!-- Node9 -->
<g id="node19" class="node"><title>Node9</title>
<a xlink:href="structrbtree__t.html" target="_top" xlink:title="rbtree_t">
<polygon fill="none" stroke="black" points="137,-302.5 137,-321.5 187,-321.5 187,-302.5 137,-302.5"/>
<text text-anchor="middle" x="162" y="-309.5" font-family="Helvetica,sans-Serif" font-size="10.00">rbtree_t</text>
</a>
</g>
<!-- Node9&#45;&gt;Node6 -->
<g id="edge22" class="edge"><title>Node9&#45;&gt;Node6</title>
<path fill="none" stroke="#9a32cd" stroke-dasharray="5,2" d="M197.104,-307.999C231.169,-304.003 282.878,-297.936 314.434,-294.234"/>
<polygon fill="#9a32cd" stroke="#9a32cd" points="196.665,-304.526 187.141,-309.168 197.48,-311.479 196.665,-304.526"/>
<text text-anchor="middle" x="253" y="-341" font-family="Helvetica,sans-Serif" font-size="10.00"> data_tree</text>
<text text-anchor="middle" x="253" y="-330" font-family="Helvetica,sans-Serif" font-size="10.00">name2_tree</text>
<text text-anchor="middle" x="253" y="-319" font-family="Helvetica,sans-Serif" font-size="10.00">section_tree</text>
<text text-anchor="middle" x="253" y="-308" font-family="Helvetica,sans-Serif" font-size="10.00">pair_tree</text>
</g>
<!-- Node10 -->
<g id="node21" class="node"><title>Node10</title>
<a xlink:href="structrbnode__t.html" target="_top" xlink:title="rbnode_t">
<polygon fill="none" stroke="black" points="0,-302.5 0,-321.5 54,-321.5 54,-302.5 0,-302.5"/>
<text text-anchor="middle" x="27" y="-309.5" font-family="Helvetica,sans-Serif" font-size="10.00">rbnode_t</text>
</a>
</g>
<!-- Node10&#45;&gt;Node9 -->
<g id="edge24" class="edge"><title>Node10&#45;&gt;Node9</title>
<path fill="none" stroke="#9a32cd" stroke-dasharray="5,2" d="M64.3432,-312C87.3013,-312 116.343,-312 136.572,-312"/>
<polygon fill="#9a32cd" stroke="#9a32cd" points="64.2766,-308.5 54.2765,-312 64.2765,-315.5 64.2766,-308.5"/>
<text text-anchor="middle" x="85" y="-315" font-family="Helvetica,sans-Serif" font-size="10.00"> Root</text>
</g>
<!-- Node10&#45;&gt;Node10 -->
<g id="edge26" class="edge"><title>Node10&#45;&gt;Node10</title>
<path fill="none" stroke="#9a32cd" stroke-dasharray="5,2" d="M16.3189,-331.766C17.1578,-336.497 20.7182,-340 27,-340 37.3086,-340 40.2884,-330.565 35.9395,-321.757"/>
<polygon fill="#9a32cd" stroke="#9a32cd" points="19.7944,-332.209 18.0605,-321.757 12.898,-331.009 19.7944,-332.209"/>
<text text-anchor="middle" x="27" y="-365" font-family="Helvetica,sans-Serif" font-size="10.00"> Left</text>
<text text-anchor="middle" x="27" y="-354" font-family="Helvetica,sans-Serif" font-size="10.00">Right</text>
<text text-anchor="middle" x="27" y="-343" font-family="Helvetica,sans-Serif" font-size="10.00">Parent</text>
</g>
<!-- Node11 -->
<g id="node24" class="node"><title>Node11</title>
<a xlink:href="structfr__socket__limit__t.html" target="_top" xlink:title="fr_socket_limit_t">
<polygon fill="none" stroke="black" points="298.5,-158.5 298.5,-177.5 387.5,-177.5 387.5,-158.5 298.5,-158.5"/>
<text text-anchor="middle" x="343" y="-165.5" font-family="Helvetica,sans-Serif" font-size="10.00">fr_socket_limit_t</text>
</a>
</g>
<!-- Node11&#45;&gt;Node3 -->
<g id="edge42" class="edge"><title>Node11&#45;&gt;Node3</title>
<path fill="none" stroke="#9a32cd" stroke-dasharray="5,2" d="M368.635,-153.441C379.667,-147.734 393.081,-141.872 406,-139 466.02,-125.657 581.442,-127.818 786,-153 821.988,-157.43 837.531,-146.543 866,-169 880.988,-180.823 870.985,-194.034 884,-208 888.647,-212.986 894.686,-217.105 900.657,-220.377"/>
<polygon fill="#9a32cd" stroke="#9a32cd" points="366.741,-150.487 359.626,-158.337 370.084,-156.637 366.741,-150.487"/>
<text text-anchor="middle" x="663" y="-146" font-family="Helvetica,sans-Serif" font-size="10.00"> limit</text>
</g>
<!-- Node11&#45;&gt;Node5 -->
<g id="edge28" class="edge"><title>Node11&#45;&gt;Node5</title>
<path fill="none" stroke="#9a32cd" stroke-dasharray="5,2" d="M349.664,-187.278C357.929,-211.938 375.704,-254.181 406,-277 406.618,-277.465 481.013,-295.352 527.16,-306.417"/>
<polygon fill="#9a32cd" stroke="#9a32cd" points="352.958,-186.087 346.61,-177.605 346.283,-188.195 352.958,-186.087"/>
<text text-anchor="middle" x="449" y="-301" font-family="Helvetica,sans-Serif" font-size="10.00"> limit</text>
</g>
<!-- Node12 -->
<g id="node26" class="node"><title>Node12</title>
<a xlink:href="structfr__event__t.html" target="_top" xlink:title="fr_event_t">
<polygon fill="none" stroke="black" points="313,-460.5 313,-479.5 373,-479.5 373,-460.5 313,-460.5"/>
<text text-anchor="middle" x="343" y="-467.5" font-family="Helvetica,sans-Serif" font-size="10.00">fr_event_t</text>
</a>
</g>
<!-- Node12&#45;&gt;Node2 -->
<g id="edge84" class="edge"><title>Node12&#45;&gt;Node2</title>
<path fill="none" stroke="#9a32cd" stroke-dasharray="5,2" d="M361.872,-486.492C373.642,-496.574 389.817,-509.023 406,-517 470.892,-548.988 490.652,-560 563,-560 563,-560 563,-560 926,-560 994.881,-560 1053.94,-486.016 1073.3,-458.851"/>
<polygon fill="#9a32cd" stroke="#9a32cd" points="363.956,-483.663 354.144,-479.667 359.323,-488.91 363.956,-483.663"/>
<text text-anchor="middle" x="747" y="-563" font-family="Helvetica,sans-Serif" font-size="10.00"> ev</text>
</g>
<!-- Node12&#45;&gt;Node5 -->
<g id="edge30" class="edge"><title>Node12&#45;&gt;Node5</title>
<path fill="none" stroke="#9a32cd" stroke-dasharray="5,2" d="M356.743,-451.845C368.152,-436.736 386.113,-415.575 406,-402 439.813,-378.919 460.645,-395.323 492,-369 503.909,-359.002 498.39,-349.344 510,-339 516.788,-332.953 525.353,-328.191 533.608,-324.559"/>
<polygon fill="#9a32cd" stroke="#9a32cd" points="353.603,-450.21 350.527,-460.348 359.254,-454.341 353.603,-450.21"/>
<text text-anchor="middle" x="449" y="-405" font-family="Helvetica,sans-Serif" font-size="10.00"> ev</text>
</g>
<!-- Node12&#45;&gt;Node12 -->
<g id="edge32" class="edge"><title>Node12&#45;&gt;Node12</title>
<path fill="none" stroke="#9a32cd" stroke-dasharray="5,2" d="M326.334,-489.4C327.447,-494.315 333.002,-498 343,-498 358.996,-498 363.62,-488.565 356.872,-479.757"/>
<polygon fill="#9a32cd" stroke="#9a32cd" points="329.707,-490.336 329.128,-479.757 322.983,-488.388 329.707,-490.336"/>
<text text-anchor="middle" x="343" y="-501" font-family="Helvetica,sans-Serif" font-size="10.00"> ev_p</text>
</g>
<!-- Node13 -->
<g id="node29" class="node"><title>Node13</title>
<a xlink:href="structfr__ipaddr__t.html" target="_top" xlink:title="fr_ipaddr_t">
<polygon fill="none" stroke="black" points="312,-596.5 312,-615.5 374,-615.5 374,-596.5 312,-596.5"/>
<text text-anchor="middle" x="343" y="-603.5" font-family="Helvetica,sans-Serif" font-size="10.00">fr_ipaddr_t</text>
</a>
</g>
<!-- Node13&#45;&gt;Node3 -->
<g id="edge46" class="edge"><title>Node13&#45;&gt;Node3</title>
<path fill="none" stroke="#9a32cd" stroke-dasharray="5,2" d="M372.535,-591.434C406.946,-572.25 463.68,-535.113 492,-486 517.623,-441.564 472.585,-407.088 510,-372 567.953,-317.651 799.854,-383.012 866,-339 901.871,-315.132 917.169,-261.549 922.086,-239.627"/>
<polygon fill="#9a32cd" stroke="#9a32cd" points="370.579,-588.514 363.464,-596.364 373.922,-594.664 370.579,-588.514"/>
<text text-anchor="middle" x="663" y="-355" font-family="Helvetica,sans-Serif" font-size="10.00"> ipaddr</text>
</g>
<!-- Node13&#45;&gt;Node5 -->
<g id="edge34" class="edge"><title>Node13&#45;&gt;Node5</title>
<path fill="none" stroke="#9a32cd" stroke-dasharray="5,2" d="M355.145,-587.273C365.067,-569.867 379.316,-542.947 388,-518 400.838,-481.12 378.541,-459.766 406,-432 433.525,-404.168 464.03,-440.384 492,-413 516.186,-389.321 488.4,-365.06 510,-339 515.157,-332.779 522.266,-328.102 529.605,-324.612"/>
<polygon fill="#9a32cd" stroke="#9a32cd" points="351.878,-585.93 349.879,-596.335 357.93,-589.447 351.878,-585.93"/>
<text text-anchor="middle" x="449" y="-446" font-family="Helvetica,sans-Serif" font-size="10.00"> ipaddr</text>
<text text-anchor="middle" x="449" y="-435" font-family="Helvetica,sans-Serif" font-size="10.00">src_ipaddr</text>
</g>
<!-- Node13&#45;&gt;Node15 -->
<g id="edge58" class="edge"><title>Node13&#45;&gt;Node15</title>
<path fill="none" stroke="#9a32cd" stroke-dasharray="5,2" d="M384.579,-605.513C452.174,-603.06 590.241,-590.949 690,-535 712.121,-522.593 730.554,-498.432 739.733,-484.861"/>
<polygon fill="#9a32cd" stroke="#9a32cd" points="384.24,-602.022 374.353,-605.829 384.456,-609.018 384.24,-602.022"/>
<text text-anchor="middle" x="564" y="-595" font-family="Helvetica,sans-Serif" font-size="10.00"> myip</text>
</g>
<!-- Node17 -->
<g id="node46" class="node"><title>Node17</title>
<a xlink:href="structradius__packet.html" target="_top" xlink:title="radius_packet">
<polygon fill="none" stroke="black" points="886.5,-632.5 886.5,-651.5 963.5,-651.5 963.5,-632.5 886.5,-632.5"/>
<text text-anchor="middle" x="925" y="-639.5" font-family="Helvetica,sans-Serif" font-size="10.00">radius_packet</text>
</a>
</g>
<!-- Node13&#45;&gt;Node17 -->
<g id="edge72" class="edge"><title>Node13&#45;&gt;Node17</title>
<path fill="none" stroke="#9a32cd" stroke-dasharray="5,2" d="M384.223,-611.632C391.463,-612.52 398.948,-613.355 406,-614 585.376,-630.398 800.639,-638.264 886.233,-640.921"/>
<polygon fill="#9a32cd" stroke="#9a32cd" points="384.586,-608.15 374.224,-610.357 383.701,-615.094 384.586,-608.15"/>
<text text-anchor="middle" x="663" y="-646" font-family="Helvetica,sans-Serif" font-size="10.00"> dst_ipaddr</text>
<text text-anchor="middle" x="663" y="-635" font-family="Helvetica,sans-Serif" font-size="10.00">src_ipaddr</text>
</g>
<!-- Node14 -->
<g id="node31" class="node"><title>Node14</title>
<a xlink:href="structin6__addr.html" target="_top" xlink:title="in6_addr">
<polygon fill="none" stroke="black" points="135.5,-637.5 135.5,-656.5 188.5,-656.5 188.5,-637.5 135.5,-637.5"/>
<text text-anchor="middle" x="162" y="-644.5" font-family="Helvetica,sans-Serif" font-size="10.00">in6_addr</text>
</a>
</g>
<!-- Node14&#45;&gt;Node13 -->
<g id="edge36" class="edge"><title>Node14&#45;&gt;Node13</title>
<path fill="none" stroke="#9a32cd" stroke-dasharray="5,2" d="M198.822,-638.795C231.981,-631.2 280.729,-620.034 311.918,-612.89"/>
<polygon fill="#9a32cd" stroke="#9a32cd" points="197.612,-635.481 188.646,-641.126 199.175,-642.305 197.612,-635.481"/>
<text text-anchor="middle" x="253" y="-635" font-family="Helvetica,sans-Serif" font-size="10.00"> ip6addr</text>
</g>
<!-- Node19 -->
<g id="node50" class="node"><title>Node19</title>
<a xlink:href="unionvalue__pair__data.html" target="_top" xlink:title="value_pair_data">
<polygon fill="none" stroke="black" points="406.5,-690.5 406.5,-709.5 491.5,-709.5 491.5,-690.5 406.5,-690.5"/>
<text text-anchor="middle" x="449" y="-697.5" font-family="Helvetica,sans-Serif" font-size="10.00">value_pair_data</text>
</a>
</g>
<!-- Node14&#45;&gt;Node19 -->
<g id="edge66" class="edge"><title>Node14&#45;&gt;Node19</title>
<path fill="none" stroke="#9a32cd" stroke-dasharray="5,2" d="M198.461,-653.594C251.269,-663.415 350.362,-681.843 406.479,-692.279"/>
<polygon fill="#9a32cd" stroke="#9a32cd" points="199.014,-650.137 188.543,-651.75 197.734,-657.019 199.014,-650.137"/>
<text text-anchor="middle" x="253" y="-670" font-family="Helvetica,sans-Serif" font-size="10.00"> ipv6addr</text>
</g>
<!-- Node15&#45;&gt;Node2 -->
<g id="edge48" class="edge"><title>Node15&#45;&gt;Node2</title>
<path fill="none" stroke="#9a32cd" stroke-dasharray="5,2" d="M795.716,-468.105C821.756,-464.578 854.593,-460.509 884,-458 944.753,-452.816 1016.37,-450.481 1053.96,-449.546"/>
<polygon fill="#9a32cd" stroke="#9a32cd" points="795.16,-464.649 785.729,-469.477 796.112,-471.584 795.16,-464.649"/>
<text text-anchor="middle" x="925" y="-461" font-family="Helvetica,sans-Serif" font-size="10.00"> root</text>
</g>
<!-- Node16&#45;&gt;Node2 -->
<g id="edge74" class="edge"><title>Node16&#45;&gt;Node2</title>
<path fill="none" stroke="#9a32cd" stroke-dasharray="5,2" d="M607.648,-395.803C710.632,-407.401 970.532,-436.672 1053.86,-446.056"/>
<polygon fill="#9a32cd" stroke="#9a32cd" points="607.935,-392.313 597.606,-394.672 607.152,-399.269 607.935,-392.313"/>
<text text-anchor="middle" x="835" y="-439" font-family="Helvetica,sans-Serif" font-size="10.00"> listener</text>
<text text-anchor="middle" x="835" y="-428" font-family="Helvetica,sans-Serif" font-size="10.00">proxy_listener</text>
</g>
<!-- Node16&#45;&gt;Node15 -->
<g id="edge50" class="edge"><title>Node16&#45;&gt;Node15</title>
<path fill="none" stroke="#9a32cd" stroke-dasharray="5,2" d="M595.026,-404.935C631.932,-422.063 693.579,-450.672 725.479,-465.477"/>
<polygon fill="#9a32cd" stroke="#9a32cd" points="596.307,-401.671 585.763,-400.636 593.36,-408.02 596.307,-401.671"/>
<text text-anchor="middle" x="663" y="-450" font-family="Helvetica,sans-Serif" font-size="10.00"> listen</text>
</g>
<!-- Node16&#45;&gt;Node16 -->
<g id="edge52" class="edge"><title>Node16&#45;&gt;Node16</title>
<path fill="none" stroke="#9a32cd" stroke-dasharray="5,2" d="M545.853,-410.4C547.065,-415.315 553.114,-419 564,-419 581.418,-419 586.453,-409.565 579.105,-400.757"/>
<polygon fill="#9a32cd" stroke="#9a32cd" points="549.224,-411.347 548.895,-400.757 542.548,-409.24 549.224,-411.347"/>
<text text-anchor="middle" x="564" y="-477" font-family="Helvetica,sans-Serif" font-size="10.00"> next</text>
<text text-anchor="middle" x="564" y="-466" font-family="Helvetica,sans-Serif" font-size="10.00">encode</text>
<text text-anchor="middle" x="564" y="-455" font-family="Helvetica,sans-Serif" font-size="10.00">recv</text>
<text text-anchor="middle" x="564" y="-444" font-family="Helvetica,sans-Serif" font-size="10.00">print</text>
<text text-anchor="middle" x="564" y="-433" font-family="Helvetica,sans-Serif" font-size="10.00">send</text>
<text text-anchor="middle" x="564" y="-422" font-family="Helvetica,sans-Serif" font-size="10.00">decode</text>
</g>
<!-- Node17&#45;&gt;Node2 -->
<g id="edge60" class="edge"><title>Node17&#45;&gt;Node2</title>
<path fill="none" stroke="#9a32cd" stroke-dasharray="5,2" d="M960.051,-628.362C984.291,-617.074 1015.99,-598.858 1036,-574 1065.14,-537.799 1075.69,-480.9 1078.84,-458.507"/>
<polygon fill="#9a32cd" stroke="#9a32cd" points="958.532,-625.207 950.837,-632.49 961.394,-631.595 958.532,-625.207"/>
<text text-anchor="middle" x="1010" y="-651" font-family="Helvetica,sans-Serif" font-size="10.00"> reply</text>
<text text-anchor="middle" x="1010" y="-640" font-family="Helvetica,sans-Serif" font-size="10.00">proxy_reply</text>
<text text-anchor="middle" x="1010" y="-629" font-family="Helvetica,sans-Serif" font-size="10.00">proxy</text>
<text text-anchor="middle" x="1010" y="-618" font-family="Helvetica,sans-Serif" font-size="10.00">packet</text>
</g>
<!-- Node18 -->
<g id="node48" class="node"><title>Node18</title>
<a xlink:href="structvalue__pair.html" target="_top" xlink:title="value_pair">
<polygon fill="none" stroke="black" points="716.5,-691.5 716.5,-710.5 777.5,-710.5 777.5,-691.5 716.5,-691.5"/>
<text text-anchor="middle" x="747" y="-698.5" font-family="Helvetica,sans-Serif" font-size="10.00">value_pair</text>
</a>
</g>
<!-- Node18&#45;&gt;Node1 -->
<g id="edge90" class="edge"><title>Node18&#45;&gt;Node1</title>
<path fill="none" stroke="#9a32cd" stroke-dasharray="5,2" d="M779.145,-714.201C822.024,-730.478 901.284,-753.711 966,-734 1108.9,-690.475 1197.59,-503.303 1216.97,-458.611"/>
<polygon fill="#9a32cd" stroke="#9a32cd" points="780.399,-710.934 769.811,-710.548 777.847,-717.452 780.399,-710.934"/>
<text text-anchor="middle" x="1010" y="-741" font-family="Helvetica,sans-Serif" font-size="10.00"> next</text>
<text text-anchor="middle" x="1010" y="-730" font-family="Helvetica,sans-Serif" font-size="10.00">first</text>
</g>
<!-- Node18&#45;&gt;Node2 -->
<g id="edge82" class="edge"><title>Node18&#45;&gt;Node2</title>
<path fill="none" stroke="#9a32cd" stroke-dasharray="5,2" d="M787.804,-701.271C858.291,-700.883 1000.95,-695.926 1036,-663 1066.48,-634.369 1077.1,-496.296 1079.45,-458.553"/>
<polygon fill="#9a32cd" stroke="#9a32cd" points="787.534,-697.771 777.543,-701.297 787.553,-704.771 787.534,-697.771"/>
<text text-anchor="middle" x="925" y="-722" font-family="Helvetica,sans-Serif" font-size="10.00"> password</text>
<text text-anchor="middle" x="925" y="-711" font-family="Helvetica,sans-Serif" font-size="10.00">config_items</text>
<text text-anchor="middle" x="925" y="-700" font-family="Helvetica,sans-Serif" font-size="10.00">username</text>
</g>
<!-- Node18&#45;&gt;Node17 -->
<g id="edge62" class="edge"><title>Node18&#45;&gt;Node17</title>
<path fill="none" stroke="#9a32cd" stroke-dasharray="5,2" d="M776.922,-687.137C785.531,-683.271 795.055,-679.245 804,-676 831.073,-666.179 862.405,-657.386 886.263,-651.203"/>
<polygon fill="#9a32cd" stroke="#9a32cd" points="775.299,-684.031 767.671,-691.384 778.22,-690.393 775.299,-684.031"/>
<text text-anchor="middle" x="835" y="-679" font-family="Helvetica,sans-Serif" font-size="10.00"> vps</text>
</g>
<!-- Node18&#45;&gt;Node18 -->
<g id="edge68" class="edge"><title>Node18&#45;&gt;Node18</title>
<path fill="none" stroke="#9a32cd" stroke-dasharray="5,2" d="M731.531,-720.766C732.746,-725.497 737.902,-729 747,-729 761.93,-729 766.245,-719.565 759.947,-710.757"/>
<polygon fill="#9a32cd" stroke="#9a32cd" points="735.003,-721.309 734.053,-710.757 728.216,-719.599 735.003,-721.309"/>
<text text-anchor="middle" x="747" y="-732" font-family="Helvetica,sans-Serif" font-size="10.00"> next</text>
</g>
<!-- Node19&#45;&gt;Node18 -->
<g id="edge64" class="edge"><title>Node19&#45;&gt;Node18</title>
<path fill="none" stroke="#9a32cd" stroke-dasharray="5,2" d="M501.651,-705.764C550.301,-710.337 625.187,-715.175 690,-710 698.638,-709.31 707.954,-708.031 716.462,-706.65"/>
<polygon fill="#9a32cd" stroke="#9a32cd" points="501.973,-702.279 491.681,-704.795 501.296,-709.246 501.973,-702.279"/>
<text text-anchor="middle" x="564" y="-715" font-family="Helvetica,sans-Serif" font-size="10.00"> data</text>
</g>
<!-- Node20 -->
<g id="node54" class="node"><title>Node20</title>
<a xlink:href="structattr__flags.html" target="_top" xlink:title="attr_flags">
<polygon fill="none" stroke="black" points="535.5,-675.5 535.5,-694.5 592.5,-694.5 592.5,-675.5 535.5,-675.5"/>
<text text-anchor="middle" x="564" y="-682.5" font-family="Helvetica,sans-Serif" font-size="10.00">attr_flags</text>
</a>
</g>
<!-- Node20&#45;&gt;Node18 -->
<g id="edge70" class="edge"><title>Node20&#45;&gt;Node18</title>
<path fill="none" stroke="#9a32cd" stroke-dasharray="5,2" d="M603.273,-688.383C636.988,-691.364 685.405,-695.644 716.277,-698.373"/>
<polygon fill="#9a32cd" stroke="#9a32cd" points="603.154,-684.859 592.885,-687.465 602.538,-691.832 603.154,-684.859"/>
<text text-anchor="middle" x="663" y="-698" font-family="Helvetica,sans-Serif" font-size="10.00"> flags</text>
</g>
<!-- Node21 -->
<g id="node63" class="node"><title>Node21</title>
<a xlink:href="structrequest__data__t.html" target="_top" xlink:title="request_data_t">
<polygon fill="none" stroke="black" points="884.5,-478.5 884.5,-497.5 965.5,-497.5 965.5,-478.5 884.5,-478.5"/>
<text text-anchor="middle" x="925" y="-485.5" font-family="Helvetica,sans-Serif" font-size="10.00">request_data_t</text>
</a>
</g>
<!-- Node21&#45;&gt;Node2 -->
<g id="edge86" class="edge"><title>Node21&#45;&gt;Node2</title>
<path fill="none" stroke="#9a32cd" stroke-dasharray="5,2" d="M975.592,-477.664C994.576,-473.463 1016.38,-468.341 1036,-463 1041.72,-461.442 1047.81,-459.615 1053.58,-457.804"/>
<polygon fill="#9a32cd" stroke="#9a32cd" points="974.679,-474.28 965.657,-479.835 976.174,-481.119 974.679,-474.28"/>
<text text-anchor="middle" x="1010" y="-478" font-family="Helvetica,sans-Serif" font-size="10.00"> data</text>
</g>
<!-- Node21&#45;&gt;Node21 -->
<g id="edge88" class="edge"><title>Node21&#45;&gt;Node21</title>
<path fill="none" stroke="#9a32cd" stroke-dasharray="5,2" d="M909.531,-507.766C910.746,-512.497 915.902,-516 925,-516 939.93,-516 944.245,-506.565 937.947,-497.757"/>
<polygon fill="#9a32cd" stroke="#9a32cd" points="913.003,-508.309 912.053,-497.757 906.216,-506.599 913.003,-508.309"/>
<text text-anchor="middle" x="925" y="-519" font-family="Helvetica,sans-Serif" font-size="10.00"> next</text>
</g>
<!-- Node22 -->
<g id="node67" class="node"><title>Node22</title>
<a xlink:href="structrlm__rest__t.html" target="_top" xlink:title="rlm_rest_t">
<polygon fill="none" stroke="black" points="717,-37.5 717,-56.5 777,-56.5 777,-37.5 717,-37.5"/>
<text text-anchor="middle" x="747" y="-44.5" font-family="Helvetica,sans-Serif" font-size="10.00">rlm_rest_t</text>
</a>
</g>
<!-- Node22&#45;&gt;Node1 -->
<g id="edge92" class="edge"><title>Node22&#45;&gt;Node1</title>
<path fill="none" stroke="#9a32cd" stroke-dasharray="5,2" d="M786.96,-59.0887C845.847,-78.8 958.827,-122.371 1036,-188 1128.87,-266.978 1198.49,-402.401 1216.45,-439.412"/>
<polygon fill="#9a32cd" stroke="#9a32cd" points="787.893,-55.7112 777.3,-55.9076 785.703,-62.36 787.893,-55.7112"/>
<text text-anchor="middle" x="1010" y="-192" font-family="Helvetica,sans-Serif" font-size="10.00"> instance</text>
</g>
<!-- Node23&#45;&gt;Node22 -->
<g id="edge94" class="edge"><title>Node23&#45;&gt;Node22</title>
<path fill="none" stroke="#9a32cd" stroke-dasharray="5,2" d="M627.673,-20.7332C647.646,-24.3672 669.799,-28.621 690,-33 698.717,-34.8895 708.141,-37.1574 716.727,-39.3121"/>
<polygon fill="#9a32cd" stroke="#9a32cd" points="628.218,-17.2752 617.756,-18.9468 626.977,-24.1643 628.218,-17.2752"/>
<text text-anchor="middle" x="663" y="-36" font-family="Helvetica,sans-Serif" font-size="10.00"> conn_pool</text>
</g>
<!-- Node24 -->
<g id="node72" class="node"><title>Node24</title>
<a xlink:href="structfr__connection__t.html" target="_top" xlink:title="fr_connection_t">
<polygon fill="none" stroke="black" points="301.5,-0.5 301.5,-19.5 384.5,-19.5 384.5,-0.5 301.5,-0.5"/>
<text text-anchor="middle" x="343" y="-7.5" font-family="Helvetica,sans-Serif" font-size="10.00">fr_connection_t</text>
</a>
</g>
<!-- Node24&#45;&gt;Node23 -->
<g id="edge98" class="edge"><title>Node24&#45;&gt;Node23</title>
<path fill="none" stroke="#9a32cd" stroke-dasharray="5,2" d="M395.03,-10C429.598,-10 475.167,-10 510.119,-10"/>
<polygon fill="#9a32cd" stroke="#9a32cd" points="394.679,-6.5001 384.679,-10 394.679,-13.5001 394.679,-6.5001"/>
<text text-anchor="middle" x="449" y="-24" font-family="Helvetica,sans-Serif" font-size="10.00"> head</text>
<text text-anchor="middle" x="449" y="-13" font-family="Helvetica,sans-Serif" font-size="10.00">tail</text>
</g>
<!-- Node24&#45;&gt;Node24 -->
<g id="edge100" class="edge"><title>Node24&#45;&gt;Node24</title>
<path fill="none" stroke="#9a32cd" stroke-dasharray="5,2" d="M326.334,-29.4C327.447,-34.3146 333.002,-38 343,-38 358.996,-38 363.62,-28.5653 356.872,-19.7571"/>
<polygon fill="#9a32cd" stroke="#9a32cd" points="329.707,-30.3361 329.128,-19.7571 322.983,-28.3878 329.707,-30.3361"/>
<text text-anchor="middle" x="343" y="-52" font-family="Helvetica,sans-Serif" font-size="10.00"> prev</text>
<text text-anchor="middle" x="343" y="-41" font-family="Helvetica,sans-Serif" font-size="10.00">next</text>
</g>
<!-- Node25 -->
<g id="node75" class="node"><title>Node25</title>
<a xlink:href="structrlm__rest__section__t.html" target="_top" xlink:title="rlm_rest_section_t">
<polygon fill="none" stroke="black" points="515.5,-38.5 515.5,-57.5 612.5,-57.5 612.5,-38.5 515.5,-38.5"/>
<text text-anchor="middle" x="564" y="-45.5" font-family="Helvetica,sans-Serif" font-size="10.00">rlm_rest_section_t</text>
</a>
</g>
<!-- Node25&#45;&gt;Node22 -->
<g id="edge102" class="edge"><title>Node25&#45;&gt;Node22</title>
<path fill="none" stroke="#9a32cd" stroke-dasharray="5,2" d="M622.923,-47.68C654.249,-47.5069 691.585,-47.3006 716.856,-47.161"/>
<polygon fill="#9a32cd" stroke="#9a32cd" points="622.536,-44.182 612.556,-47.7373 622.575,-51.1819 622.536,-44.182"/>
<text text-anchor="middle" x="663" y="-95" font-family="Helvetica,sans-Serif" font-size="10.00"> accounting</text>
<text text-anchor="middle" x="663" y="-84" font-family="Helvetica,sans-Serif" font-size="10.00">postauth</text>
<text text-anchor="middle" x="663" y="-73" font-family="Helvetica,sans-Serif" font-size="10.00">checksimul</text>
<text text-anchor="middle" x="663" y="-62" font-family="Helvetica,sans-Serif" font-size="10.00">authorize</text>
<text text-anchor="middle" x="663" y="-51" font-family="Helvetica,sans-Serif" font-size="10.00">authenticate</text>
</g>
</g>
</svg>
        <g id="navigator" transform="translate(0 0)" fill="#404254">
                <rect fill="#f2f5e9" fill-opacity="0.5" stroke="#606060" stroke-width=".5" x="0" y="0" width="60" height="60"/>
                <use id="zoomplus" xlink:href="#zoomPlus" x="17" y="9" onmousedown="handleZoom(evt,'in')"/>
                <use id="zoomminus" xlink:href="#zoomMin" x="42" y="9" onmousedown="handleZoom(evt,'out')"/>
                <use id="reset" xlink:href="#resetDef" x="30" y="36" onmousedown="handleReset()"/>
                <g id="arrowUp" xlink:href="#dirArrow" transform="translate(30 24)" onmousedown="handlePan(0,-1)">
                  <use xlink:href="#rim" fill="#404040">
                        <set attributeName="fill" to="#808080" begin="arrowUp.mouseover" end="arrowUp.mouseout"/>
                  </use>
                  <path fill="none" stroke="white" stroke-width="1.5" d="M0,-3.0v7 M-2.5,-0.5L0,-3.0L2.5,-0.5"/>
                </g>
                <g id="arrowRight" xlink:href="#dirArrow" transform="rotate(90) translate(36 -43)" onmousedown="handlePan(1,0)">
                  <use xlink:href="#rim" fill="#404040">
                        <set attributeName="fill" to="#808080" begin="arrowRight.mouseover" end="arrowRight.mouseout"/>
                  </use>
                  <path fill="none" stroke="white" stroke-width="1.5" d="M0,-3.0v7 M-2.5,-0.5L0,-3.0L2.5,-0.5"/>
                </g>
                <g id="arrowDown" xlink:href="#dirArrow" transform="rotate(180) translate(-30 -48)" onmousedown="handlePan(0,1)">
                  <use xlink:href="#rim" fill="#404040">
                        <set attributeName="fill" to="#808080" begin="arrowDown.mouseover" end="arrowDown.mouseout"/>
                  </use>
                  <path fill="none" stroke="white" stroke-width="1.5" d="M0,-3.0v7 M-2.5,-0.5L0,-3.0L2.5,-0.5"/>
                </g>
                <g id="arrowLeft" xlink:href="#dirArrow" transform="rotate(270) translate(-36 17)" onmousedown="handlePan(-1,0)">
                  <use xlink:href="#rim" fill="#404040">
                        <set attributeName="fill" to="#808080" begin="arrowLeft.mouseover" end="arrowLeft.mouseout"/>
                  </use>
                  <path fill="none" stroke="white" stroke-width="1.5" d="M0,-3.0v7 M-2.5,-0.5L0,-3.0L2.5,-0.5"/>
                </g>
        </g>
</svg>
