<?xml version="1.0" encoding="UTF-8" standalone="no"?>
<!DOCTYPE svg PUBLIC "-//W3C//DTD SVG 1.1//EN"
 "http://www.w3.org/Graphics/SVG/1.1/DTD/svg11.dtd">
<!-- Generated by graphviz version 2.28.0 (20111211.2114)
 -->
<!-- Title: G Pages: 1 -->
<svg width="354pt" height="208pt"
 viewBox="0.00 0.00 354.00 208.50" xmlns="http://www.w3.org/2000/svg" xmlns:xlink="http://www.w3.org/1999/xlink">
<g id="graph1" class="graph" transform="scale(1 1) rotate(0) translate(4 204.5)">
<title>G</title>
<!-- Node1 -->
<g id="node1" class="node"><title>Node1</title>
<polygon fill="#bfbfbf" stroke="black" points="-1,-0.5 -1,-19.5 55,-19.5 55,-0.5 -1,-0.5"/>
<text text-anchor="middle" x="27" y="-7.5" font-family="Helvetica,sans-Serif" font-size="10.00">conf_pair</text>
</g>
<!-- Node2 -->
<g id="node2" class="node"><title>Node2</title>
<a xlink:href="structconf__item.html" target="_top" xlink:title="conf_item">
<polygon fill="none" stroke="black" points="19.5,-100.5 19.5,-119.5 78.5,-119.5 78.5,-100.5 19.5,-100.5"/>
<text text-anchor="middle" x="49" y="-107.5" font-family="Helvetica,sans-Serif" font-size="10.00">conf_item</text>
</a>
</g>
<!-- Node2&#45;&gt;Node1 -->
<g id="edge2" class="edge"><title>Node2&#45;&gt;Node1</title>
<path fill="none" stroke="#9a32cd" stroke-dasharray="5,2" d="M33.5998,-92.5511C31.3149,-89.2705 29.2956,-85.6912 28,-82 20.4877,-60.5973 23.2577,-33.2823 25.4101,-19.6106"/>
<polygon fill="#9a32cd" stroke="#9a32cd" points="30.9442,-94.8335 39.9531,-100.409 36.3876,-90.4324 30.9442,-94.8335"/>
<text text-anchor="middle" x="39" y="-57.5" font-family="Helvetica,sans-Serif" font-size="10.00"> item</text>
</g>
<!-- Node2&#45;&gt;Node2 -->
<g id="edge18" class="edge"><title>Node2&#45;&gt;Node2</title>
<path fill="none" stroke="#9a32cd" stroke-dasharray="5,2" d="M88.8122,-115.354C93.1814,-114.334 96,-112.549 96,-110 96,-105.816 88.4095,-103.692 78.8325,-103.627"/>
<polygon fill="#9a32cd" stroke="#9a32cd" points="88.4252,-111.875 78.8325,-116.373 89.1364,-118.839 88.4252,-111.875"/>
<text text-anchor="middle" x="107" y="-107.5" font-family="Helvetica,sans-Serif" font-size="10.00"> next</text>
</g>
<!-- Node3 -->
<g id="node4" class="node"><title>Node3</title>
<a xlink:href="structconf__part.html" target="_top" xlink:title="conf_part">
<polygon fill="none" stroke="black" points="127.5,-0.5 127.5,-19.5 184.5,-19.5 184.5,-0.5 127.5,-0.5"/>
<text text-anchor="middle" x="156" y="-7.5" font-family="Helvetica,sans-Serif" font-size="10.00">conf_part</text>
</a>
</g>
<!-- Node2&#45;&gt;Node3 -->
<g id="edge8" class="edge"><title>Node2&#45;&gt;Node3</title>
<path fill="none" stroke="#9a32cd" stroke-dasharray="5,2" d="M49.5163,-90.0452C50.957,-74.1481 55.4827,-51.8782 69,-38 84.2276,-22.3658 108.319,-15.7414 127.293,-12.9561"/>
<polygon fill="#9a32cd" stroke="#9a32cd" points="46.0076,-90.099 48.9281,-100.283 52.996,-90.5006 46.0076,-90.099"/>
<text text-anchor="middle" x="86" y="-68.5" font-family="Helvetica,sans-Serif" font-size="10.00"> tail</text>
<text text-anchor="middle" x="86" y="-57.5" font-family="Helvetica,sans-Serif" font-size="10.00">item</text>
<text text-anchor="middle" x="86" y="-46.5" font-family="Helvetica,sans-Serif" font-size="10.00">children</text>
</g>
<!-- Node3&#45;&gt;Node2 -->
<g id="edge4" class="edge"><title>Node3&#45;&gt;Node2</title>
<path fill="none" stroke="#9a32cd" stroke-dasharray="5,2" d="M138.65,-26.6701C135.226,-30.2085 131.824,-34.0826 129,-38 116.216,-55.7368 122.675,-66.7576 107,-82 98.6389,-90.1304 87.3793,-96.1335 77.0055,-100.387"/>
<polygon fill="#9a32cd" stroke="#9a32cd" points="141.223,-29.0503 145.962,-19.5743 136.348,-24.0269 141.223,-29.0503"/>
<text text-anchor="middle" x="144.5" y="-57.5" font-family="Helvetica,sans-Serif" font-size="10.00"> parent</text>
</g>
<!-- Node3&#45;&gt;Node3 -->
<g id="edge6" class="edge"><title>Node3&#45;&gt;Node3</title>
<path fill="none" stroke="#9a32cd" stroke-dasharray="5,2" d="M194.76,-17.9445C199.153,-16.4568 202,-13.8086 202,-10 202,-3.75 194.333,-0.625 184.75,-0.625"/>
<polygon fill="#9a32cd" stroke="#9a32cd" points="194.154,-14.4955 184.75,-19.375 195.145,-21.4251 194.154,-14.4955"/>
<text text-anchor="middle" x="222.5" y="-7.5" font-family="Helvetica,sans-Serif" font-size="10.00"> template</text>
</g>
<!-- Node4 -->
<g id="node8" class="node"><title>Node4</title>
<a xlink:href="structCONF__PARSER.html" target="_top" xlink:title="CONF_PARSER">
<polygon fill="none" stroke="black" points="137,-100.5 137,-119.5 229,-119.5 229,-100.5 137,-100.5"/>
<text text-anchor="middle" x="183" y="-107.5" font-family="Helvetica,sans-Serif" font-size="10.00">CONF_PARSER</text>
</a>
</g>
<!-- Node4&#45;&gt;Node3 -->
<g id="edge10" class="edge"><title>Node4&#45;&gt;Node3</title>
<path fill="none" stroke="#9a32cd" stroke-dasharray="5,2" d="M177.907,-90.5136C172.052,-69.2626 162.693,-35.2919 158.352,-19.5374"/>
<polygon fill="#9a32cd" stroke="#9a32cd" points="174.573,-91.592 180.604,-100.303 181.322,-89.7327 174.573,-91.592"/>
<text text-anchor="middle" x="197.5" y="-57.5" font-family="Helvetica,sans-Serif" font-size="10.00"> variables</text>
</g>
<!-- Node5 -->
<g id="node10" class="node"><title>Node5</title>
<a xlink:href="structrbtree__t.html" target="_top" xlink:title="rbtree_t">
<polygon fill="none" stroke="black" points="247,-100.5 247,-119.5 297,-119.5 297,-100.5 247,-100.5"/>
<text text-anchor="middle" x="272" y="-107.5" font-family="Helvetica,sans-Serif" font-size="10.00">rbtree_t</text>
</a>
</g>
<!-- Node5&#45;&gt;Node3 -->
<g id="edge12" class="edge"><title>Node5&#45;&gt;Node3</title>
<path fill="none" stroke="#9a32cd" stroke-dasharray="5,2" d="M263.474,-91.0985C255.122,-75.2418 241.034,-52.4315 223,-38 211.838,-29.0672 197.33,-22.736 184.671,-18.4607"/>
<polygon fill="#9a32cd" stroke="#9a32cd" points="260.506,-92.9874 268.118,-100.357 266.763,-89.8488 260.506,-92.9874"/>
<text text-anchor="middle" x="285" y="-74" font-family="Helvetica,sans-Serif" font-size="10.00"> data_tree</text>
<text text-anchor="middle" x="285" y="-63" font-family="Helvetica,sans-Serif" font-size="10.00">name2_tree</text>
<text text-anchor="middle" x="285" y="-52" font-family="Helvetica,sans-Serif" font-size="10.00">section_tree</text>
<text text-anchor="middle" x="285" y="-41" font-family="Helvetica,sans-Serif" font-size="10.00">pair_tree</text>
</g>
<!-- Node6 -->
<g id="node12" class="node"><title>Node6</title>
<a xlink:href="structrbnode__t.html" target="_top" xlink:title="rbnode_t">
<polygon fill="none" stroke="black" points="245,-174.5 245,-193.5 299,-193.5 299,-174.5 245,-174.5"/>
<text text-anchor="middle" x="272" y="-181.5" font-family="Helvetica,sans-Serif" font-size="10.00">rbnode_t</text>
</a>
</g>
<!-- Node6&#45;&gt;Node5 -->
<g id="edge14" class="edge"><title>Node6&#45;&gt;Node5</title>
<path fill="none" stroke="#9a32cd" stroke-dasharray="5,2" d="M272,-164.156C272,-149.712 272,-130.459 272,-119.531"/>
<polygon fill="#9a32cd" stroke="#9a32cd" points="268.5,-164.458 272,-174.458 275.5,-164.458 268.5,-164.458"/>
<text text-anchor="middle" x="284.5" y="-141.5" font-family="Helvetica,sans-Serif" font-size="10.00"> Root</text>
</g>
<!-- Node6&#45;&gt;Node6 -->
<g id="edge16" class="edge"><title>Node6&#45;&gt;Node6</title>
<path fill="none" stroke="#9a32cd" stroke-dasharray="5,2" d="M309.51,-190.464C314.038,-189.297 317,-187.142 317,-184 317,-178.844 309.024,-176.346 299.241,-176.507"/>
<polygon fill="#9a32cd" stroke="#9a32cd" points="308.842,-187.014 299.241,-191.493 309.54,-193.979 308.842,-187.014"/>
<text text-anchor="middle" x="331.5" y="-192.5" font-family="Helvetica,sans-Serif" font-size="10.00"> Left</text>
<text text-anchor="middle" x="331.5" y="-181.5" font-family="Helvetica,sans-Serif" font-size="10.00">Right</text>
<text text-anchor="middle" x="331.5" y="-170.5" font-family="Helvetica,sans-Serif" font-size="10.00">Parent</text>
</g>
</g>
</svg>
