<?xml version="1.0" encoding="UTF-8" standalone="no"?>
<!DOCTYPE svg PUBLIC "-//W3C//DTD SVG 1.1//EN"
 "http://www.w3.org/Graphics/SVG/1.1/DTD/svg11.dtd">
<!-- Generated by graphviz version 2.28.0 (20111211.2114)
 -->
<!-- Title: G Pages: 1 -->
<svg width="376pt" height="412pt"
 viewBox="0.00 0.00 375.60 412.50" xmlns="http://www.w3.org/2000/svg" xmlns:xlink="http://www.w3.org/1999/xlink">
<g id="graph1" class="graph" transform="scale(1 1) rotate(0) translate(4 408.5)">
<title>G</title>
<!-- Node1 -->
<g id="node1" class="node"><title>Node1</title>
<polygon fill="#bfbfbf" stroke="black" points="44.1034,-0.5 44.1034,-19.5 121.103,-19.5 121.103,-0.5 44.1034,-0.5"/>
<text text-anchor="middle" x="82.6034" y="-7.5" font-family="Helvetica,sans-Serif" font-size="10.00">main_config_t</text>
</g>
<!-- Node2 -->
<g id="node2" class="node"><title>Node2</title>
<a xlink:href="structrad__listen__t.html" target="_top" xlink:title="rad_listen_t">
<polygon fill="none" stroke="black" points="49.1034,-91.5 49.1034,-110.5 116.103,-110.5 116.103,-91.5 49.1034,-91.5"/>
<text text-anchor="middle" x="82.6034" y="-98.5" font-family="Helvetica,sans-Serif" font-size="10.00">rad_listen_t</text>
</a>
</g>
<!-- Node2&#45;&gt;Node1 -->
<g id="edge2" class="edge"><title>Node2&#45;&gt;Node1</title>
<path fill="none" stroke="#9a32cd" stroke-dasharray="5,2" d="M82.6034,-81.3494C82.6034,-62.3833 82.6034,-33.8277 82.6034,-19.6386"/>
<polygon fill="#9a32cd" stroke="#9a32cd" points="79.1035,-81.4663 82.6034,-91.4663 86.1035,-81.4663 79.1035,-81.4663"/>
<text text-anchor="middle" x="96.1034" y="-41.5" font-family="Helvetica,sans-Serif" font-size="10.00"> listen</text>
</g>
<!-- Node2&#45;&gt;Node2 -->
<g id="edge4" class="edge"><title>Node2&#45;&gt;Node2</title>
<path fill="none" stroke="#9a32cd" stroke-dasharray="5,2" d="M114.513,-111.5C125.122,-111.492 133.603,-107.992 133.603,-101 133.603,-91.8672 119.135,-88.6921 104.355,-91.4748"/>
<polygon fill="#9a32cd" stroke="#9a32cd" points="114.644,-107.996 104.355,-110.525 113.975,-114.964 114.644,-107.996"/>
<text text-anchor="middle" x="149.603" y="-126" font-family="Helvetica,sans-Serif" font-size="10.00"> next</text>
<text text-anchor="middle" x="149.603" y="-115" font-family="Helvetica,sans-Serif" font-size="10.00">encode</text>
<text text-anchor="middle" x="149.603" y="-104" font-family="Helvetica,sans-Serif" font-size="10.00">recv</text>
<text text-anchor="middle" x="149.603" y="-93" font-family="Helvetica,sans-Serif" font-size="10.00">print</text>
<text text-anchor="middle" x="149.603" y="-82" font-family="Helvetica,sans-Serif" font-size="10.00">send</text>
<text text-anchor="middle" x="149.603" y="-71" font-family="Helvetica,sans-Serif" font-size="10.00">decode</text>
</g>
<!-- Node3 -->
<g id="node5" class="node"><title>Node3</title>
<a xlink:href="structconf__part.html" target="_top" xlink:title="conf_part">
<polygon fill="none" stroke="black" points="80.1034,-204.5 80.1034,-223.5 137.103,-223.5 137.103,-204.5 80.1034,-204.5"/>
<text text-anchor="middle" x="108.603" y="-211.5" font-family="Helvetica,sans-Serif" font-size="10.00">conf_part</text>
</a>
</g>
<!-- Node3&#45;&gt;Node1 -->
<g id="edge24" class="edge"><title>Node3&#45;&gt;Node1</title>
<path fill="none" stroke="#9a32cd" stroke-dasharray="5,2" d="M80.7917,-199.802C56.9672,-186.789 24.2541,-164.435 9.60341,-134 -3.11975,-107.57 -3.25927,-94.3628 9.60341,-68 20.7437,-45.1673 45.9399,-28.8062 63.5982,-19.6258"/>
<polygon fill="#9a32cd" stroke="#9a32cd" points="79.2633,-202.952 89.7464,-204.488 82.5087,-196.75 79.2633,-202.952"/>
<text text-anchor="middle" x="24.6034" y="-98.5" font-family="Helvetica,sans-Serif" font-size="10.00"> config</text>
</g>
<!-- Node3&#45;&gt;Node2 -->
<g id="edge6" class="edge"><title>Node3&#45;&gt;Node2</title>
<path fill="none" stroke="#9a32cd" stroke-dasharray="5,2" d="M97.6112,-195.423C96.0619,-192.369 94.645,-189.157 93.6034,-186 84.8486,-159.462 83.0299,-126.046 82.6741,-110.579"/>
<polygon fill="#9a32cd" stroke="#9a32cd" points="94.7264,-197.431 102.716,-204.389 100.809,-193.967 94.7264,-197.431"/>
<text text-anchor="middle" x="100.603" y="-166.5" font-family="Helvetica,sans-Serif" font-size="10.00"> cs</text>
</g>
<!-- Node3&#45;&gt;Node3 -->
<g id="edge8" class="edge"><title>Node3&#45;&gt;Node3</title>
<path fill="none" stroke="#9a32cd" stroke-dasharray="5,2" d="M147.364,-220.991C151.756,-219.682 154.603,-217.352 154.603,-214 154.603,-208.5 146.937,-205.75 137.353,-205.75"/>
<polygon fill="#9a32cd" stroke="#9a32cd" points="146.839,-217.53 137.353,-222.25 147.712,-224.475 146.839,-217.53"/>
<text text-anchor="middle" x="175.103" y="-211.5" font-family="Helvetica,sans-Serif" font-size="10.00"> template</text>
</g>
<!-- Node4 -->
<g id="node8" class="node"><title>Node4</title>
<a xlink:href="structconf__item.html" target="_top" xlink:title="conf_item">
<polygon fill="none" stroke="black" points="184.103,-91.5 184.103,-110.5 243.103,-110.5 243.103,-91.5 184.103,-91.5"/>
<text text-anchor="middle" x="213.603" y="-98.5" font-family="Helvetica,sans-Serif" font-size="10.00">conf_item</text>
</a>
</g>
<!-- Node3&#45;&gt;Node4 -->
<g id="edge12" class="edge"><title>Node3&#45;&gt;Node4</title>
<path fill="none" stroke="#9a32cd" stroke-dasharray="5,2" d="M110.853,-194.389C113.36,-181.073 118.621,-163.533 129.603,-152 144.458,-136.4 156.06,-144.96 174.603,-134 185.762,-127.404 197.054,-117.74 204.595,-110.759"/>
<polygon fill="#9a32cd" stroke="#9a32cd" points="107.381,-193.942 109.329,-204.356 114.3,-195 107.381,-193.942"/>
<text text-anchor="middle" x="145.103" y="-166.5" font-family="Helvetica,sans-Serif" font-size="10.00"> parent</text>
</g>
<!-- Node4&#45;&gt;Node3 -->
<g id="edge10" class="edge"><title>Node4&#45;&gt;Node3</title>
<path fill="none" stroke="#9a32cd" stroke-dasharray="5,2" d="M206.773,-120.12C198.993,-138.698 184.701,-167.427 164.603,-186 155.963,-193.985 144.529,-200.065 134.245,-204.414"/>
<polygon fill="#9a32cd" stroke="#9a32cd" points="210.061,-121.325 210.509,-110.74 203.557,-118.735 210.061,-121.325"/>
<text text-anchor="middle" x="207.603" y="-177.5" font-family="Helvetica,sans-Serif" font-size="10.00"> tail</text>
<text text-anchor="middle" x="207.603" y="-166.5" font-family="Helvetica,sans-Serif" font-size="10.00">item</text>
<text text-anchor="middle" x="207.603" y="-155.5" font-family="Helvetica,sans-Serif" font-size="10.00">children</text>
</g>
<!-- Node4&#45;&gt;Node4 -->
<g id="edge14" class="edge"><title>Node4&#45;&gt;Node4</title>
<path fill="none" stroke="#9a32cd" stroke-dasharray="5,2" d="M244.071,-111.485C253.346,-111.233 260.603,-107.738 260.603,-101 260.603,-91.9219 247.429,-88.7303 233.894,-91.4254"/>
<polygon fill="#9a32cd" stroke="#9a32cd" points="244.166,-107.98 233.894,-110.575 243.542,-114.952 244.166,-107.98"/>
<text text-anchor="middle" x="271.603" y="-98.5" font-family="Helvetica,sans-Serif" font-size="10.00"> next</text>
</g>
<!-- Node5 -->
<g id="node12" class="node"><title>Node5</title>
<a xlink:href="structCONF__PARSER.html" target="_top" xlink:title="CONF_PARSER">
<polygon fill="none" stroke="black" points="29.6034,-304.5 29.6034,-323.5 121.603,-323.5 121.603,-304.5 29.6034,-304.5"/>
<text text-anchor="middle" x="75.6034" y="-311.5" font-family="Helvetica,sans-Serif" font-size="10.00">CONF_PARSER</text>
</a>
</g>
<!-- Node5&#45;&gt;Node3 -->
<g id="edge16" class="edge"><title>Node5&#45;&gt;Node3</title>
<path fill="none" stroke="#9a32cd" stroke-dasharray="5,2" d="M76.2958,-293.947C77.4193,-279.221 80.2981,-258.615 87.6034,-242 90.5672,-235.259 95.5868,-228.714 99.9753,-223.756"/>
<polygon fill="#9a32cd" stroke="#9a32cd" points="72.7804,-294.129 75.7201,-304.307 79.7696,-294.517 72.7804,-294.129"/>
<text text-anchor="middle" x="109.103" y="-261.5" font-family="Helvetica,sans-Serif" font-size="10.00"> variables</text>
</g>
<!-- Node6 -->
<g id="node14" class="node"><title>Node6</title>
<a xlink:href="structrbtree__t.html" target="_top" xlink:title="rbtree_t">
<polygon fill="none" stroke="black" points="139.603,-304.5 139.603,-323.5 189.603,-323.5 189.603,-304.5 139.603,-304.5"/>
<text text-anchor="middle" x="164.603" y="-311.5" font-family="Helvetica,sans-Serif" font-size="10.00">rbtree_t</text>
</a>
</g>
<!-- Node6&#45;&gt;Node3 -->
<g id="edge18" class="edge"><title>Node6&#45;&gt;Node3</title>
<path fill="none" stroke="#9a32cd" stroke-dasharray="5,2" d="M157.347,-294.892C151.115,-280.161 141.44,-259.089 130.603,-242 126.458,-235.464 120.958,-228.714 116.495,-223.598"/>
<polygon fill="#9a32cd" stroke="#9a32cd" points="154.198,-296.437 161.244,-304.35 160.671,-293.771 154.198,-296.437"/>
<text text-anchor="middle" x="180.603" y="-278" font-family="Helvetica,sans-Serif" font-size="10.00"> data_tree</text>
<text text-anchor="middle" x="180.603" y="-267" font-family="Helvetica,sans-Serif" font-size="10.00">name2_tree</text>
<text text-anchor="middle" x="180.603" y="-256" font-family="Helvetica,sans-Serif" font-size="10.00">section_tree</text>
<text text-anchor="middle" x="180.603" y="-245" font-family="Helvetica,sans-Serif" font-size="10.00">pair_tree</text>
</g>
<!-- Node7 -->
<g id="node16" class="node"><title>Node7</title>
<a xlink:href="structrbnode__t.html" target="_top" xlink:title="rbnode_t">
<polygon fill="none" stroke="black" points="137.603,-378.5 137.603,-397.5 191.603,-397.5 191.603,-378.5 137.603,-378.5"/>
<text text-anchor="middle" x="164.603" y="-385.5" font-family="Helvetica,sans-Serif" font-size="10.00">rbnode_t</text>
</a>
</g>
<!-- Node7&#45;&gt;Node6 -->
<g id="edge20" class="edge"><title>Node7&#45;&gt;Node6</title>
<path fill="none" stroke="#9a32cd" stroke-dasharray="5,2" d="M164.603,-368.156C164.603,-353.712 164.603,-334.459 164.603,-323.531"/>
<polygon fill="#9a32cd" stroke="#9a32cd" points="161.104,-368.458 164.603,-378.458 168.104,-368.458 161.104,-368.458"/>
<text text-anchor="middle" x="177.103" y="-345.5" font-family="Helvetica,sans-Serif" font-size="10.00"> Root</text>
</g>
<!-- Node7&#45;&gt;Node7 -->
<g id="edge22" class="edge"><title>Node7&#45;&gt;Node7</title>
<path fill="none" stroke="#9a32cd" stroke-dasharray="5,2" d="M202.114,-394.464C206.642,-393.297 209.603,-391.142 209.603,-388 209.603,-382.844 201.627,-380.346 191.844,-380.507"/>
<polygon fill="#9a32cd" stroke="#9a32cd" points="201.446,-391.014 191.844,-395.493 202.143,-397.979 201.446,-391.014"/>
<text text-anchor="middle" x="224.103" y="-396.5" font-family="Helvetica,sans-Serif" font-size="10.00"> Left</text>
<text text-anchor="middle" x="224.103" y="-385.5" font-family="Helvetica,sans-Serif" font-size="10.00">Right</text>
<text text-anchor="middle" x="224.103" y="-374.5" font-family="Helvetica,sans-Serif" font-size="10.00">Parent</text>
</g>
<!-- Node8 -->
<g id="node20" class="node"><title>Node8</title>
<a xlink:href="structfr__ipaddr__t.html" target="_top" xlink:title="fr_ipaddr_t">
<polygon fill="none" stroke="black" points="301.603,-91.5 301.603,-110.5 363.603,-110.5 363.603,-91.5 301.603,-91.5"/>
<text text-anchor="middle" x="332.603" y="-98.5" font-family="Helvetica,sans-Serif" font-size="10.00">fr_ipaddr_t</text>
</a>
</g>
<!-- Node8&#45;&gt;Node1 -->
<g id="edge26" class="edge"><title>Node8&#45;&gt;Node1</title>
<path fill="none" stroke="#9a32cd" stroke-dasharray="5,2" d="M316.326,-84.8659C309.182,-78.8943 300.423,-72.4191 291.603,-68 235.786,-40.0323 164.478,-24.3683 121.239,-16.8113"/>
<polygon fill="#9a32cd" stroke="#9a32cd" points="314.052,-87.5269 323.877,-91.4914 318.668,-82.2652 314.052,-87.5269"/>
<text text-anchor="middle" x="261.103" y="-41.5" font-family="Helvetica,sans-Serif" font-size="10.00"> myip</text>
</g>
<!-- Node9 -->
<g id="node22" class="node"><title>Node9</title>
<a xlink:href="structin6__addr.html" target="_top" xlink:title="in6_addr">
<polygon fill="none" stroke="black" points="306.103,-204.5 306.103,-223.5 359.103,-223.5 359.103,-204.5 306.103,-204.5"/>
<text text-anchor="middle" x="332.603" y="-211.5" font-family="Helvetica,sans-Serif" font-size="10.00">in6_addr</text>
</a>
</g>
<!-- Node9&#45;&gt;Node8 -->
<g id="edge28" class="edge"><title>Node9&#45;&gt;Node8</title>
<path fill="none" stroke="#9a32cd" stroke-dasharray="5,2" d="M332.603,-194.179C332.603,-169.865 332.603,-128.547 332.603,-110.67"/>
<polygon fill="#9a32cd" stroke="#9a32cd" points="329.104,-194.29 332.603,-204.29 336.104,-194.29 329.104,-194.29"/>
<text text-anchor="middle" x="350.103" y="-166.5" font-family="Helvetica,sans-Serif" font-size="10.00"> ip6addr</text>
</g>
</g>
</svg>
