<?xml version="1.0" encoding="UTF-8" standalone="no"?>
<!DOCTYPE svg PUBLIC "-//W3C//DTD SVG 1.1//EN"
 "http://www.w3.org/Graphics/SVG/1.1/DTD/svg11.dtd">
<!-- Generated by graphviz version 2.28.0 (20111211.2114)
 -->
<!-- Title: G Pages: 1 -->
<svg width="242pt" height="376pt"
 viewBox="0.00 0.00 242.00 376.50" xmlns="http://www.w3.org/2000/svg" xmlns:xlink="http://www.w3.org/1999/xlink">
<g id="graph1" class="graph" transform="scale(1 1) rotate(0) translate(4 372.5)">
<title>G</title>
<!-- Node1 -->
<g id="node1" class="node"><title>Node1</title>
<polygon fill="#bfbfbf" stroke="black" points="26.5,-0.5 26.5,-19.5 87.5,-19.5 87.5,-0.5 26.5,-0.5"/>
<text text-anchor="middle" x="57" y="-7.5" font-family="Helvetica,sans-Serif" font-size="10.00">sql_config</text>
</g>
<!-- Node2 -->
<g id="node2" class="node"><title>Node2</title>
<a xlink:href="structrlm__sql__config__section.html" target="_top" xlink:title="rlm_sql_config_section">
<polygon fill="none" stroke="black" points="-1,-78.5 -1,-97.5 115,-97.5 115,-78.5 -1,-78.5"/>
<text text-anchor="middle" x="57" y="-85.5" font-family="Helvetica,sans-Serif" font-size="10.00">rlm_sql_config_section</text>
</a>
</g>
<!-- Node2&#45;&gt;Node1 -->
<g id="edge2" class="edge"><title>Node2&#45;&gt;Node1</title>
<path fill="none" stroke="#9a32cd" stroke-dasharray="5,2" d="M57,-68.2239C57,-52.6974 57,-31.3582 57,-19.6165"/>
<polygon fill="#9a32cd" stroke="#9a32cd" points="53.5001,-68.2818 57,-78.2818 60.5001,-68.2819 53.5001,-68.2818"/>
<text text-anchor="middle" x="82.5" y="-52" font-family="Helvetica,sans-Serif" font-size="10.00"> accounting</text>
<text text-anchor="middle" x="82.5" y="-41" font-family="Helvetica,sans-Serif" font-size="10.00">postauth</text>
</g>
<!-- Node3 -->
<g id="node4" class="node"><title>Node3</title>
<a xlink:href="structconf__part.html" target="_top" xlink:title="conf_part">
<polygon fill="none" stroke="black" points="80.5,-168.5 80.5,-187.5 137.5,-187.5 137.5,-168.5 80.5,-168.5"/>
<text text-anchor="middle" x="109" y="-175.5" font-family="Helvetica,sans-Serif" font-size="10.00">conf_part</text>
</a>
</g>
<!-- Node3&#45;&gt;Node2 -->
<g id="edge4" class="edge"><title>Node3&#45;&gt;Node2</title>
<path fill="none" stroke="#9a32cd" stroke-dasharray="5,2" d="M84.5622,-162.243C80.2056,-158.694 76.0812,-154.583 73,-150 62.0044,-133.645 58.5612,-110.132 57.4859,-97.6123"/>
<polygon fill="#9a32cd" stroke="#9a32cd" points="82.8587,-165.331 93.0128,-168.355 86.9609,-159.659 82.8587,-165.331"/>
<text text-anchor="middle" x="80" y="-130.5" font-family="Helvetica,sans-Serif" font-size="10.00"> cs</text>
</g>
<!-- Node3&#45;&gt;Node3 -->
<g id="edge6" class="edge"><title>Node3&#45;&gt;Node3</title>
<path fill="none" stroke="#9a32cd" stroke-dasharray="5,2" d="M147.76,-184.991C152.153,-183.682 155,-181.352 155,-178 155,-172.5 147.333,-169.75 137.75,-169.75"/>
<polygon fill="#9a32cd" stroke="#9a32cd" points="147.235,-181.53 137.75,-186.25 148.109,-188.475 147.235,-181.53"/>
<text text-anchor="middle" x="175.5" y="-175.5" font-family="Helvetica,sans-Serif" font-size="10.00"> template</text>
</g>
<!-- Node4 -->
<g id="node7" class="node"><title>Node4</title>
<a xlink:href="structconf__item.html" target="_top" xlink:title="conf_item">
<polygon fill="none" stroke="black" points="133.5,-78.5 133.5,-97.5 192.5,-97.5 192.5,-78.5 133.5,-78.5"/>
<text text-anchor="middle" x="163" y="-85.5" font-family="Helvetica,sans-Serif" font-size="10.00">conf_item</text>
</a>
</g>
<!-- Node3&#45;&gt;Node4 -->
<g id="edge10" class="edge"><title>Node3&#45;&gt;Node4</title>
<path fill="none" stroke="#9a32cd" stroke-dasharray="5,2" d="M102.863,-158.675C99.7183,-145.764 98.0266,-128.6 106,-116 112.148,-106.285 122.842,-99.9967 133.318,-95.9591"/>
<polygon fill="#9a32cd" stroke="#9a32cd" points="99.5156,-159.7 105.665,-168.328 106.238,-157.748 99.5156,-159.7"/>
<text text-anchor="middle" x="121.5" y="-130.5" font-family="Helvetica,sans-Serif" font-size="10.00"> parent</text>
</g>
<!-- Node4&#45;&gt;Node3 -->
<g id="edge8" class="edge"><title>Node4&#45;&gt;Node3</title>
<path fill="none" stroke="#9a32cd" stroke-dasharray="5,2" d="M159.032,-107.469C155.675,-120.223 149.953,-137.136 141,-150 136.017,-157.159 128.674,-163.539 122.279,-168.298"/>
<polygon fill="#9a32cd" stroke="#9a32cd" points="162.485,-108.077 161.395,-97.5389 155.675,-106.457 162.485,-108.077"/>
<text text-anchor="middle" x="174" y="-141.5" font-family="Helvetica,sans-Serif" font-size="10.00"> tail</text>
<text text-anchor="middle" x="174" y="-130.5" font-family="Helvetica,sans-Serif" font-size="10.00">item</text>
<text text-anchor="middle" x="174" y="-119.5" font-family="Helvetica,sans-Serif" font-size="10.00">children</text>
</g>
<!-- Node4&#45;&gt;Node4 -->
<g id="edge12" class="edge"><title>Node4&#45;&gt;Node4</title>
<path fill="none" stroke="#9a32cd" stroke-dasharray="5,2" d="M202.812,-93.9842C207.181,-92.844 210,-90.8493 210,-88 210,-83.3242 202.41,-80.9498 192.833,-80.8767"/>
<polygon fill="#9a32cd" stroke="#9a32cd" points="202.371,-90.5117 192.833,-95.1233 203.165,-97.4665 202.371,-90.5117"/>
<text text-anchor="middle" x="221" y="-85.5" font-family="Helvetica,sans-Serif" font-size="10.00"> next</text>
</g>
<!-- Node5 -->
<g id="node11" class="node"><title>Node5</title>
<a xlink:href="structCONF__PARSER.html" target="_top" xlink:title="CONF_PARSER">
<polygon fill="none" stroke="black" points="25,-268.5 25,-287.5 117,-287.5 117,-268.5 25,-268.5"/>
<text text-anchor="middle" x="71" y="-275.5" font-family="Helvetica,sans-Serif" font-size="10.00">CONF_PARSER</text>
</a>
</g>
<!-- Node5&#45;&gt;Node3 -->
<g id="edge14" class="edge"><title>Node5&#45;&gt;Node3</title>
<path fill="none" stroke="#9a32cd" stroke-dasharray="5,2" d="M71.1807,-258.157C72.0122,-243.277 74.748,-222.367 83,-206 86.5742,-198.911 92.6466,-192.447 98.0244,-187.622"/>
<polygon fill="#9a32cd" stroke="#9a32cd" points="67.6816,-258.077 70.8563,-268.185 74.6779,-258.303 67.6816,-258.077"/>
<text text-anchor="middle" x="104.5" y="-225.5" font-family="Helvetica,sans-Serif" font-size="10.00"> variables</text>
</g>
<!-- Node6 -->
<g id="node13" class="node"><title>Node6</title>
<a xlink:href="structrbtree__t.html" target="_top" xlink:title="rbtree_t">
<polygon fill="none" stroke="black" points="135,-268.5 135,-287.5 185,-287.5 185,-268.5 135,-268.5"/>
<text text-anchor="middle" x="160" y="-275.5" font-family="Helvetica,sans-Serif" font-size="10.00">rbtree_t</text>
</a>
</g>
<!-- Node6&#45;&gt;Node3 -->
<g id="edge16" class="edge"><title>Node6&#45;&gt;Node3</title>
<path fill="none" stroke="#9a32cd" stroke-dasharray="5,2" d="M151.963,-258.75C145.404,-244.235 135.671,-223.524 126,-206 122.574,-199.792 118.324,-193.042 114.931,-187.844"/>
<polygon fill="#9a32cd" stroke="#9a32cd" points="148.86,-260.386 156.132,-268.091 155.253,-257.533 148.86,-260.386"/>
<text text-anchor="middle" x="175" y="-242" font-family="Helvetica,sans-Serif" font-size="10.00"> data_tree</text>
<text text-anchor="middle" x="175" y="-231" font-family="Helvetica,sans-Serif" font-size="10.00">name2_tree</text>
<text text-anchor="middle" x="175" y="-220" font-family="Helvetica,sans-Serif" font-size="10.00">section_tree</text>
<text text-anchor="middle" x="175" y="-209" font-family="Helvetica,sans-Serif" font-size="10.00">pair_tree</text>
</g>
<!-- Node7 -->
<g id="node15" class="node"><title>Node7</title>
<a xlink:href="structrbnode__t.html" target="_top" xlink:title="rbnode_t">
<polygon fill="none" stroke="black" points="133,-342.5 133,-361.5 187,-361.5 187,-342.5 133,-342.5"/>
<text text-anchor="middle" x="160" y="-349.5" font-family="Helvetica,sans-Serif" font-size="10.00">rbnode_t</text>
</a>
</g>
<!-- Node7&#45;&gt;Node6 -->
<g id="edge18" class="edge"><title>Node7&#45;&gt;Node6</title>
<path fill="none" stroke="#9a32cd" stroke-dasharray="5,2" d="M160,-332.156C160,-317.712 160,-298.459 160,-287.531"/>
<polygon fill="#9a32cd" stroke="#9a32cd" points="156.5,-332.458 160,-342.458 163.5,-332.458 156.5,-332.458"/>
<text text-anchor="middle" x="172.5" y="-309.5" font-family="Helvetica,sans-Serif" font-size="10.00"> Root</text>
</g>
<!-- Node7&#45;&gt;Node7 -->
<g id="edge20" class="edge"><title>Node7&#45;&gt;Node7</title>
<path fill="none" stroke="#9a32cd" stroke-dasharray="5,2" d="M197.51,-358.464C202.038,-357.297 205,-355.142 205,-352 205,-346.844 197.024,-344.346 187.241,-344.507"/>
<polygon fill="#9a32cd" stroke="#9a32cd" points="196.842,-355.014 187.241,-359.493 197.54,-361.979 196.842,-355.014"/>
<text text-anchor="middle" x="219.5" y="-360.5" font-family="Helvetica,sans-Serif" font-size="10.00"> Left</text>
<text text-anchor="middle" x="219.5" y="-349.5" font-family="Helvetica,sans-Serif" font-size="10.00">Right</text>
<text text-anchor="middle" x="219.5" y="-338.5" font-family="Helvetica,sans-Serif" font-size="10.00">Parent</text>
</g>
</g>
</svg>
