<?xml version="1.0" encoding="UTF-8" standalone="no"?>
<!DOCTYPE svg PUBLIC "-//W3C//DTD SVG 1.1//EN"
 "http://www.w3.org/Graphics/SVG/1.1/DTD/svg11.dtd">
<!-- Generated by graphviz version 2.28.0 (20111211.2114)
 -->
<!-- Title: G Pages: 1 -->
<svg width="301pt" height="436pt"
 viewBox="0.00 0.00 301.00 436.50" xmlns="http://www.w3.org/2000/svg" xmlns:xlink="http://www.w3.org/1999/xlink">
<g id="graph1" class="graph" transform="scale(1 1) rotate(0) translate(4 432.5)">
<title>G</title>
<!-- Node1 -->
<g id="node1" class="node"><title>Node1</title>
<polygon fill="#bfbfbf" stroke="black" points="61.5,-0.5 61.5,-19.5 144.5,-19.5 144.5,-0.5 61.5,-0.5"/>
<text text-anchor="middle" x="103" y="-7.5" font-family="Helvetica,sans-Serif" font-size="10.00">rlm_rediswho_t</text>
</g>
<!-- Node2 -->
<g id="node2" class="node"><title>Node2</title>
<a xlink:href="structconf__part.html" target="_top" xlink:title="conf_part">
<polygon fill="none" stroke="black" points="140.5,-227.5 140.5,-246.5 197.5,-246.5 197.5,-227.5 140.5,-227.5"/>
<text text-anchor="middle" x="169" y="-234.5" font-family="Helvetica,sans-Serif" font-size="10.00">conf_part</text>
</a>
</g>
<!-- Node2&#45;&gt;Node1 -->
<g id="edge2" class="edge"><title>Node2&#45;&gt;Node1</title>
<path fill="none" stroke="#9a32cd" stroke-dasharray="5,2" d="M160.708,-218.127C159.348,-214.805 158.045,-211.331 157,-208 133.911,-134.396 152.616,-108.804 122,-38 119.179,-31.4763 114.633,-24.9378 110.695,-19.9293"/>
<polygon fill="#9a32cd" stroke="#9a32cd" points="157.529,-219.593 164.752,-227.344 163.939,-216.781 157.529,-219.593"/>
<text text-anchor="middle" x="149" y="-109.5" font-family="Helvetica,sans-Serif" font-size="10.00"> cs</text>
</g>
<!-- Node2&#45;&gt;Node2 -->
<g id="edge4" class="edge"><title>Node2&#45;&gt;Node2</title>
<path fill="none" stroke="#9a32cd" stroke-dasharray="5,2" d="M207.76,-244.309C212.153,-242.94 215,-240.504 215,-237 215,-231.25 207.333,-228.375 197.75,-228.375"/>
<polygon fill="#9a32cd" stroke="#9a32cd" points="207.208,-240.851 197.75,-245.625 208.121,-247.792 207.208,-240.851"/>
<text text-anchor="middle" x="235.5" y="-234.5" font-family="Helvetica,sans-Serif" font-size="10.00"> template</text>
</g>
<!-- Node3 -->
<g id="node5" class="node"><title>Node3</title>
<a xlink:href="structconf__item.html" target="_top" xlink:title="conf_item">
<polygon fill="none" stroke="black" points="178.5,-136.5 178.5,-155.5 237.5,-155.5 237.5,-136.5 178.5,-136.5"/>
<text text-anchor="middle" x="208" y="-143.5" font-family="Helvetica,sans-Serif" font-size="10.00">conf_item</text>
</a>
</g>
<!-- Node2&#45;&gt;Node3 -->
<g id="edge8" class="edge"><title>Node2&#45;&gt;Node3</title>
<path fill="none" stroke="#9a32cd" stroke-dasharray="5,2" d="M163.296,-217.677C160.36,-204.698 158.738,-187.301 166,-174 170.403,-165.935 178.361,-159.92 186.174,-155.64"/>
<polygon fill="#9a32cd" stroke="#9a32cd" points="159.923,-218.609 165.906,-227.353 166.681,-216.787 159.923,-218.609"/>
<text text-anchor="middle" x="181.5" y="-188.5" font-family="Helvetica,sans-Serif" font-size="10.00"> parent</text>
</g>
<!-- Node8 -->
<g id="node18" class="node"><title>Node8</title>
<a xlink:href="structfr__connection__pool__t.html" target="_top" xlink:title="fr_connection_pool_t">
<polygon fill="none" stroke="black" points="0.5,-136.5 0.5,-155.5 107.5,-155.5 107.5,-136.5 0.5,-136.5"/>
<text text-anchor="middle" x="54" y="-143.5" font-family="Helvetica,sans-Serif" font-size="10.00">fr_connection_pool_t</text>
</a>
</g>
<!-- Node2&#45;&gt;Node8 -->
<g id="edge24" class="edge"><title>Node2&#45;&gt;Node8</title>
<path fill="none" stroke="#9a32cd" stroke-dasharray="5,2" d="M134.867,-223.474C125.685,-219.288 116.071,-214.103 108,-208 92.1583,-196.02 92.1941,-188.845 79,-174 73.5679,-167.888 67.3179,-161.138 62.4259,-155.916"/>
<polygon fill="#9a32cd" stroke="#9a32cd" points="133.626,-226.75 144.196,-227.473 136.383,-220.316 133.626,-226.75"/>
<text text-anchor="middle" x="115" y="-188.5" font-family="Helvetica,sans-Serif" font-size="10.00"> cs</text>
</g>
<!-- Node3&#45;&gt;Node2 -->
<g id="edge6" class="edge"><title>Node3&#45;&gt;Node2</title>
<path fill="none" stroke="#9a32cd" stroke-dasharray="5,2" d="M209.267,-166.104C209.296,-178.681 207.748,-195.135 201,-208 196.885,-215.845 189.596,-222.487 183.014,-227.331"/>
<polygon fill="#9a32cd" stroke="#9a32cd" points="212.756,-165.727 208.901,-155.858 205.76,-165.977 212.756,-165.727"/>
<text text-anchor="middle" x="226" y="-199.5" font-family="Helvetica,sans-Serif" font-size="10.00"> tail</text>
<text text-anchor="middle" x="226" y="-188.5" font-family="Helvetica,sans-Serif" font-size="10.00">item</text>
<text text-anchor="middle" x="226" y="-177.5" font-family="Helvetica,sans-Serif" font-size="10.00">children</text>
</g>
<!-- Node3&#45;&gt;Node3 -->
<g id="edge10" class="edge"><title>Node3&#45;&gt;Node3</title>
<path fill="none" stroke="#9a32cd" stroke-dasharray="5,2" d="M247.812,-151.354C252.181,-150.334 255,-148.549 255,-146 255,-141.816 247.41,-139.692 237.833,-139.627"/>
<polygon fill="#9a32cd" stroke="#9a32cd" points="247.425,-147.875 237.833,-152.373 248.136,-154.839 247.425,-147.875"/>
<text text-anchor="middle" x="266" y="-143.5" font-family="Helvetica,sans-Serif" font-size="10.00"> next</text>
</g>
<!-- Node4 -->
<g id="node9" class="node"><title>Node4</title>
<a xlink:href="structCONF__PARSER.html" target="_top" xlink:title="CONF_PARSER">
<polygon fill="none" stroke="black" points="84,-328.5 84,-347.5 176,-347.5 176,-328.5 84,-328.5"/>
<text text-anchor="middle" x="130" y="-335.5" font-family="Helvetica,sans-Serif" font-size="10.00">CONF_PARSER</text>
</a>
</g>
<!-- Node4&#45;&gt;Node2 -->
<g id="edge12" class="edge"><title>Node4&#45;&gt;Node2</title>
<path fill="none" stroke="#9a32cd" stroke-dasharray="5,2" d="M130.178,-318.155C131.007,-303.275 133.742,-282.364 142,-266 145.772,-258.524 152.225,-251.721 157.876,-246.693"/>
<polygon fill="#9a32cd" stroke="#9a32cd" points="126.678,-318.076 129.855,-328.184 133.675,-318.302 126.678,-318.076"/>
<text text-anchor="middle" x="163.5" y="-285.5" font-family="Helvetica,sans-Serif" font-size="10.00"> variables</text>
</g>
<!-- Node5 -->
<g id="node11" class="node"><title>Node5</title>
<a xlink:href="structrbtree__t.html" target="_top" xlink:title="rbtree_t">
<polygon fill="none" stroke="black" points="194,-328.5 194,-347.5 244,-347.5 244,-328.5 194,-328.5"/>
<text text-anchor="middle" x="219" y="-335.5" font-family="Helvetica,sans-Serif" font-size="10.00">rbtree_t</text>
</a>
</g>
<!-- Node5&#45;&gt;Node2 -->
<g id="edge14" class="edge"><title>Node5&#45;&gt;Node2</title>
<path fill="none" stroke="#9a32cd" stroke-dasharray="5,2" d="M210.756,-318.862C204.081,-304.408 194.294,-283.727 185,-266 181.568,-259.455 177.422,-252.215 174.21,-246.737"/>
<polygon fill="#9a32cd" stroke="#9a32cd" points="207.667,-320.522 215.015,-328.154 214.03,-317.605 207.667,-320.522"/>
<text text-anchor="middle" x="234" y="-302" font-family="Helvetica,sans-Serif" font-size="10.00"> data_tree</text>
<text text-anchor="middle" x="234" y="-291" font-family="Helvetica,sans-Serif" font-size="10.00">name2_tree</text>
<text text-anchor="middle" x="234" y="-280" font-family="Helvetica,sans-Serif" font-size="10.00">section_tree</text>
<text text-anchor="middle" x="234" y="-269" font-family="Helvetica,sans-Serif" font-size="10.00">pair_tree</text>
</g>
<!-- Node6 -->
<g id="node13" class="node"><title>Node6</title>
<a xlink:href="structrbnode__t.html" target="_top" xlink:title="rbnode_t">
<polygon fill="none" stroke="black" points="192,-402.5 192,-421.5 246,-421.5 246,-402.5 192,-402.5"/>
<text text-anchor="middle" x="219" y="-409.5" font-family="Helvetica,sans-Serif" font-size="10.00">rbnode_t</text>
</a>
</g>
<!-- Node6&#45;&gt;Node5 -->
<g id="edge16" class="edge"><title>Node6&#45;&gt;Node5</title>
<path fill="none" stroke="#9a32cd" stroke-dasharray="5,2" d="M219,-392.156C219,-377.712 219,-358.459 219,-347.531"/>
<polygon fill="#9a32cd" stroke="#9a32cd" points="215.5,-392.458 219,-402.458 222.5,-392.458 215.5,-392.458"/>
<text text-anchor="middle" x="231.5" y="-369.5" font-family="Helvetica,sans-Serif" font-size="10.00"> Root</text>
</g>
<!-- Node6&#45;&gt;Node6 -->
<g id="edge18" class="edge"><title>Node6&#45;&gt;Node6</title>
<path fill="none" stroke="#9a32cd" stroke-dasharray="5,2" d="M256.51,-418.464C261.038,-417.297 264,-415.142 264,-412 264,-406.844 256.024,-404.346 246.241,-404.507"/>
<polygon fill="#9a32cd" stroke="#9a32cd" points="255.842,-415.014 246.241,-419.493 256.54,-421.979 255.842,-415.014"/>
<text text-anchor="middle" x="278.5" y="-420.5" font-family="Helvetica,sans-Serif" font-size="10.00"> Left</text>
<text text-anchor="middle" x="278.5" y="-409.5" font-family="Helvetica,sans-Serif" font-size="10.00">Right</text>
<text text-anchor="middle" x="278.5" y="-398.5" font-family="Helvetica,sans-Serif" font-size="10.00">Parent</text>
</g>
<!-- Node7 -->
<g id="node16" class="node"><title>Node7</title>
<a xlink:href="structrlm__redis__t.html" target="_top" xlink:title="rlm_redis_t">
<polygon fill="none" stroke="black" points="34.5,-68.5 34.5,-87.5 99.5,-87.5 99.5,-68.5 34.5,-68.5"/>
<text text-anchor="middle" x="67" y="-75.5" font-family="Helvetica,sans-Serif" font-size="10.00">rlm_redis_t</text>
</a>
</g>
<!-- Node7&#45;&gt;Node1 -->
<g id="edge20" class="edge"><title>Node7&#45;&gt;Node1</title>
<path fill="none" stroke="#9a32cd" stroke-dasharray="5,2" d="M69.1525,-58.2159C70.47,-51.5358 72.5904,-44.1518 76,-38 79.9206,-30.9263 86.2364,-24.4627 91.774,-19.6342"/>
<polygon fill="#9a32cd" stroke="#9a32cd" points="65.6392,-58.0412 67.6071,-68.4517 72.5608,-59.0863 65.6392,-58.0412"/>
<text text-anchor="middle" x="99" y="-41.5" font-family="Helvetica,sans-Serif" font-size="10.00"> redis_inst</text>
</g>
<!-- Node8&#45;&gt;Node7 -->
<g id="edge22" class="edge"><title>Node8&#45;&gt;Node7</title>
<path fill="none" stroke="#9a32cd" stroke-dasharray="5,2" d="M57.6587,-126.425C60.1459,-113.798 63.3241,-97.6623 65.2586,-87.8411"/>
<polygon fill="#9a32cd" stroke="#9a32cd" points="54.1981,-125.884 55.6995,-136.372 61.0662,-127.237 54.1981,-125.884"/>
<text text-anchor="middle" x="73" y="-109.5" font-family="Helvetica,sans-Serif" font-size="10.00"> pool</text>
</g>
<!-- Node9 -->
<g id="node21" class="node"><title>Node9</title>
<a xlink:href="structfr__connection__t.html" target="_top" xlink:title="fr_connection_t">
<polygon fill="none" stroke="black" points="-0.5,-227.5 -0.5,-246.5 82.5,-246.5 82.5,-227.5 -0.5,-227.5"/>
<text text-anchor="middle" x="41" y="-234.5" font-family="Helvetica,sans-Serif" font-size="10.00">fr_connection_t</text>
</a>
</g>
<!-- Node9&#45;&gt;Node8 -->
<g id="edge26" class="edge"><title>Node9&#45;&gt;Node8</title>
<path fill="none" stroke="#9a32cd" stroke-dasharray="5,2" d="M43.7243,-217.349C46.4946,-198.383 50.6656,-169.828 52.7382,-155.639"/>
<polygon fill="#9a32cd" stroke="#9a32cd" points="40.2287,-217.065 42.2465,-227.466 47.1552,-218.077 40.2287,-217.065"/>
<text text-anchor="middle" x="62.5" y="-194" font-family="Helvetica,sans-Serif" font-size="10.00"> head</text>
<text text-anchor="middle" x="62.5" y="-183" font-family="Helvetica,sans-Serif" font-size="10.00">tail</text>
</g>
<!-- Node9&#45;&gt;Node9 -->
<g id="edge28" class="edge"><title>Node9&#45;&gt;Node9</title>
<path fill="none" stroke="#9a32cd" stroke-dasharray="5,2" d="M92.5084,-243.816C97.1114,-242.388 100,-240.116 100,-237 100,-232.014 92.6052,-229.189 82.6251,-228.527"/>
<polygon fill="#9a32cd" stroke="#9a32cd" points="91.9086,-240.367 82.6251,-245.473 93.0662,-247.271 91.9086,-240.367"/>
<text text-anchor="middle" x="111" y="-240" font-family="Helvetica,sans-Serif" font-size="10.00"> prev</text>
<text text-anchor="middle" x="111" y="-229" font-family="Helvetica,sans-Serif" font-size="10.00">next</text>
</g>
</g>
</svg>
