<?xml version="1.0" encoding="UTF-8" standalone="no"?>
<!DOCTYPE svg PUBLIC "-//W3C//DTD SVG 1.1//EN"
 "http://www.w3.org/Graphics/SVG/1.1/DTD/svg11.dtd">
<!-- Generated by graphviz version 2.28.0 (20111211.2114)
 -->
<!-- Title: G Pages: 1 -->
<svg width="315pt" height="368pt"
 viewBox="0.00 0.00 315.00 368.50" xmlns="http://www.w3.org/2000/svg" xmlns:xlink="http://www.w3.org/1999/xlink">
<g id="graph1" class="graph" transform="scale(1 1) rotate(0) translate(4 364.5)">
<title>G</title>
<!-- Node1 -->
<g id="node1" class="node"><title>Node1</title>
<polygon fill="#bfbfbf" stroke="black" points="160.5,-0.5 160.5,-19.5 225.5,-19.5 225.5,-0.5 160.5,-0.5"/>
<text text-anchor="middle" x="193" y="-7.5" font-family="Helvetica,sans-Serif" font-size="10.00">rlm_redis_t</text>
</g>
<!-- Node2 -->
<g id="node2" class="node"><title>Node2</title>
<a xlink:href="structfr__connection__pool__t.html" target="_top" xlink:title="fr_connection_pool_t">
<polygon fill="none" stroke="black" points="139.5,-68.5 139.5,-87.5 246.5,-87.5 246.5,-68.5 139.5,-68.5"/>
<text text-anchor="middle" x="193" y="-75.5" font-family="Helvetica,sans-Serif" font-size="10.00">fr_connection_pool_t</text>
</a>
</g>
<!-- Node2&#45;&gt;Node1 -->
<g id="edge2" class="edge"><title>Node2&#45;&gt;Node1</title>
<path fill="none" stroke="#9a32cd" stroke-dasharray="5,2" d="M193,-58.0413C193,-45.4724 193,-29.5631 193,-19.8411"/>
<polygon fill="#9a32cd" stroke="#9a32cd" points="189.5,-58.3716 193,-68.3717 196.5,-58.3717 189.5,-58.3716"/>
<text text-anchor="middle" x="204" y="-41.5" font-family="Helvetica,sans-Serif" font-size="10.00"> pool</text>
</g>
<!-- Node3 -->
<g id="node4" class="node"><title>Node3</title>
<a xlink:href="structconf__part.html" target="_top" xlink:title="conf_part">
<polygon fill="none" stroke="black" points="50.5,-159.5 50.5,-178.5 107.5,-178.5 107.5,-159.5 50.5,-159.5"/>
<text text-anchor="middle" x="79" y="-166.5" font-family="Helvetica,sans-Serif" font-size="10.00">conf_part</text>
</a>
</g>
<!-- Node3&#45;&gt;Node2 -->
<g id="edge4" class="edge"><title>Node3&#45;&gt;Node2</title>
<path fill="none" stroke="#9a32cd" stroke-dasharray="5,2" d="M97.9506,-153.205C121.94,-134.476 162.48,-102.827 181.935,-87.6386"/>
<polygon fill="#9a32cd" stroke="#9a32cd" points="95.6593,-150.554 89.9308,-159.466 99.967,-156.071 95.6593,-150.554"/>
<text text-anchor="middle" x="164" y="-120.5" font-family="Helvetica,sans-Serif" font-size="10.00"> cs</text>
</g>
<!-- Node3&#45;&gt;Node3 -->
<g id="edge6" class="edge"><title>Node3&#45;&gt;Node3</title>
<path fill="none" stroke="#9a32cd" stroke-dasharray="5,2" d="M117.76,-176.309C122.153,-174.94 125,-172.504 125,-169 125,-163.25 117.333,-160.375 107.75,-160.375"/>
<polygon fill="#9a32cd" stroke="#9a32cd" points="117.208,-172.851 107.75,-177.625 118.121,-179.792 117.208,-172.851"/>
<text text-anchor="middle" x="145.5" y="-166.5" font-family="Helvetica,sans-Serif" font-size="10.00"> template</text>
</g>
<!-- Node4 -->
<g id="node7" class="node"><title>Node4</title>
<a xlink:href="structconf__item.html" target="_top" xlink:title="conf_item">
<polygon fill="none" stroke="black" points="15.5,-68.5 15.5,-87.5 74.5,-87.5 74.5,-68.5 15.5,-68.5"/>
<text text-anchor="middle" x="45" y="-75.5" font-family="Helvetica,sans-Serif" font-size="10.00">conf_item</text>
</a>
</g>
<!-- Node3&#45;&gt;Node4 -->
<g id="edge10" class="edge"><title>Node3&#45;&gt;Node4</title>
<path fill="none" stroke="#9a32cd" stroke-dasharray="5,2" d="M43.5469,-154.52C37.7345,-150.715 32.4815,-145.94 29,-140 21.3588,-126.963 25.0061,-120.574 29,-106 30.7857,-99.4838 34.5954,-92.9455 38.0494,-87.9353"/>
<polygon fill="#9a32cd" stroke="#9a32cd" points="41.8849,-157.6 52.3216,-159.424 45.3002,-151.49 41.8849,-157.6"/>
<text text-anchor="middle" x="44.5" y="-120.5" font-family="Helvetica,sans-Serif" font-size="10.00"> parent</text>
</g>
<!-- Node4&#45;&gt;Node3 -->
<g id="edge8" class="edge"><title>Node4&#45;&gt;Node3</title>
<path fill="none" stroke="#9a32cd" stroke-dasharray="5,2" d="M58.4833,-96.1516C60.546,-99.3067 62.488,-102.662 64,-106 72.1331,-123.956 76.208,-146.917 77.9361,-159.241"/>
<polygon fill="#9a32cd" stroke="#9a32cd" points="61.2825,-94.0492 52.6062,-87.9687 55.5969,-98.1327 61.2825,-94.0492"/>
<text text-anchor="middle" x="92" y="-131.5" font-family="Helvetica,sans-Serif" font-size="10.00"> tail</text>
<text text-anchor="middle" x="92" y="-120.5" font-family="Helvetica,sans-Serif" font-size="10.00">item</text>
<text text-anchor="middle" x="92" y="-109.5" font-family="Helvetica,sans-Serif" font-size="10.00">children</text>
</g>
<!-- Node4&#45;&gt;Node4 -->
<g id="edge12" class="edge"><title>Node4&#45;&gt;Node4</title>
<path fill="none" stroke="#9a32cd" stroke-dasharray="5,2" d="M84.8122,-83.3543C89.1814,-82.3341 92,-80.5494 92,-78 92,-73.8164 84.4095,-71.6919 74.8325,-71.6266"/>
<polygon fill="#9a32cd" stroke="#9a32cd" points="84.4252,-79.8755 74.8325,-84.3734 85.1364,-86.8393 84.4252,-79.8755"/>
<text text-anchor="middle" x="103" y="-75.5" font-family="Helvetica,sans-Serif" font-size="10.00"> next</text>
</g>
<!-- Node5 -->
<g id="node11" class="node"><title>Node5</title>
<a xlink:href="structCONF__PARSER.html" target="_top" xlink:title="CONF_PARSER">
<polygon fill="none" stroke="black" points="0,-260.5 0,-279.5 92,-279.5 92,-260.5 0,-260.5"/>
<text text-anchor="middle" x="46" y="-267.5" font-family="Helvetica,sans-Serif" font-size="10.00">CONF_PARSER</text>
</a>
</g>
<!-- Node5&#45;&gt;Node3 -->
<g id="edge14" class="edge"><title>Node5&#45;&gt;Node3</title>
<path fill="none" stroke="#9a32cd" stroke-dasharray="5,2" d="M46.7745,-249.982C47.9423,-235.276 50.8407,-214.679 58,-198 61.0679,-190.853 66.3179,-183.853 70.8009,-178.64"/>
<polygon fill="#9a32cd" stroke="#9a32cd" points="43.2593,-250.137 46.1606,-260.326 50.247,-250.551 43.2593,-250.137"/>
<text text-anchor="middle" x="79.5" y="-217.5" font-family="Helvetica,sans-Serif" font-size="10.00"> variables</text>
</g>
<!-- Node6 -->
<g id="node13" class="node"><title>Node6</title>
<a xlink:href="structrbtree__t.html" target="_top" xlink:title="rbtree_t">
<polygon fill="none" stroke="black" points="110,-260.5 110,-279.5 160,-279.5 160,-260.5 110,-260.5"/>
<text text-anchor="middle" x="135" y="-267.5" font-family="Helvetica,sans-Serif" font-size="10.00">rbtree_t</text>
</a>
</g>
<!-- Node6&#45;&gt;Node3 -->
<g id="edge16" class="edge"><title>Node6&#45;&gt;Node3</title>
<path fill="none" stroke="#9a32cd" stroke-dasharray="5,2" d="M127.663,-250.943C121.384,-236.241 111.685,-215.184 101,-198 96.8216,-191.28 91.3216,-184.28 86.8662,-178.96"/>
<polygon fill="#9a32cd" stroke="#9a32cd" points="124.518,-252.495 131.596,-260.378 130.979,-249.801 124.518,-252.495"/>
<text text-anchor="middle" x="151" y="-234" font-family="Helvetica,sans-Serif" font-size="10.00"> data_tree</text>
<text text-anchor="middle" x="151" y="-223" font-family="Helvetica,sans-Serif" font-size="10.00">name2_tree</text>
<text text-anchor="middle" x="151" y="-212" font-family="Helvetica,sans-Serif" font-size="10.00">section_tree</text>
<text text-anchor="middle" x="151" y="-201" font-family="Helvetica,sans-Serif" font-size="10.00">pair_tree</text>
</g>
<!-- Node7 -->
<g id="node15" class="node"><title>Node7</title>
<a xlink:href="structrbnode__t.html" target="_top" xlink:title="rbnode_t">
<polygon fill="none" stroke="black" points="108,-334.5 108,-353.5 162,-353.5 162,-334.5 108,-334.5"/>
<text text-anchor="middle" x="135" y="-341.5" font-family="Helvetica,sans-Serif" font-size="10.00">rbnode_t</text>
</a>
</g>
<!-- Node7&#45;&gt;Node6 -->
<g id="edge18" class="edge"><title>Node7&#45;&gt;Node6</title>
<path fill="none" stroke="#9a32cd" stroke-dasharray="5,2" d="M135,-324.156C135,-309.712 135,-290.459 135,-279.531"/>
<polygon fill="#9a32cd" stroke="#9a32cd" points="131.5,-324.458 135,-334.458 138.5,-324.458 131.5,-324.458"/>
<text text-anchor="middle" x="147.5" y="-301.5" font-family="Helvetica,sans-Serif" font-size="10.00"> Root</text>
</g>
<!-- Node7&#45;&gt;Node7 -->
<g id="edge20" class="edge"><title>Node7&#45;&gt;Node7</title>
<path fill="none" stroke="#9a32cd" stroke-dasharray="5,2" d="M172.51,-350.464C177.038,-349.297 180,-347.142 180,-344 180,-338.844 172.024,-336.346 162.241,-336.507"/>
<polygon fill="#9a32cd" stroke="#9a32cd" points="171.842,-347.014 162.241,-351.493 172.54,-353.979 171.842,-347.014"/>
<text text-anchor="middle" x="194.5" y="-352.5" font-family="Helvetica,sans-Serif" font-size="10.00"> Left</text>
<text text-anchor="middle" x="194.5" y="-341.5" font-family="Helvetica,sans-Serif" font-size="10.00">Right</text>
<text text-anchor="middle" x="194.5" y="-330.5" font-family="Helvetica,sans-Serif" font-size="10.00">Parent</text>
</g>
<!-- Node8 -->
<g id="node18" class="node"><title>Node8</title>
<a xlink:href="structfr__connection__t.html" target="_top" xlink:title="fr_connection_t">
<polygon fill="none" stroke="black" points="184.5,-159.5 184.5,-178.5 267.5,-178.5 267.5,-159.5 184.5,-159.5"/>
<text text-anchor="middle" x="226" y="-166.5" font-family="Helvetica,sans-Serif" font-size="10.00">fr_connection_t</text>
</a>
</g>
<!-- Node8&#45;&gt;Node2 -->
<g id="edge22" class="edge"><title>Node8&#45;&gt;Node2</title>
<path fill="none" stroke="#9a32cd" stroke-dasharray="5,2" d="M219.282,-149.881C212.252,-130.921 201.514,-101.961 196.203,-87.6386"/>
<polygon fill="#9a32cd" stroke="#9a32cd" points="216.078,-151.307 222.836,-159.466 222.641,-148.873 216.078,-151.307"/>
<text text-anchor="middle" x="227.5" y="-126" font-family="Helvetica,sans-Serif" font-size="10.00"> head</text>
<text text-anchor="middle" x="227.5" y="-115" font-family="Helvetica,sans-Serif" font-size="10.00">tail</text>
</g>
<!-- Node8&#45;&gt;Node8 -->
<g id="edge24" class="edge"><title>Node8&#45;&gt;Node8</title>
<path fill="none" stroke="#9a32cd" stroke-dasharray="5,2" d="M277.508,-175.816C282.111,-174.388 285,-172.116 285,-169 285,-164.014 277.605,-161.189 267.625,-160.527"/>
<polygon fill="#9a32cd" stroke="#9a32cd" points="276.909,-172.367 267.625,-177.473 278.066,-179.271 276.909,-172.367"/>
<text text-anchor="middle" x="296" y="-172" font-family="Helvetica,sans-Serif" font-size="10.00"> prev</text>
<text text-anchor="middle" x="296" y="-161" font-family="Helvetica,sans-Serif" font-size="10.00">next</text>
</g>
</g>
</svg>
