<?xml version="1.0" encoding="UTF-8" standalone="no"?>
<!DOCTYPE svg PUBLIC "-//W3C//DTD SVG 1.1//EN"
 "http://www.w3.org/Graphics/SVG/1.1/DTD/svg11.dtd">
<!-- Generated by graphviz version 2.28.0 (20111211.2114)
 -->
<!-- Title: G Pages: 1 -->
<svg width="116pt" height="176pt"
 viewBox="0.00 0.00 116.00 176.50" xmlns="http://www.w3.org/2000/svg" xmlns:xlink="http://www.w3.org/1999/xlink">
<g id="graph1" class="graph" transform="scale(1 1) rotate(0) translate(4 172.5)">
<title>G</title>
<!-- Node1 -->
<g id="node1" class="node"><title>Node1</title>
<polygon fill="#bfbfbf" stroke="black" points="-0.5,-0.5 -0.5,-19.5 68.5,-19.5 68.5,-0.5 -0.5,-0.5"/>
<text text-anchor="middle" x="34" y="-7.5" font-family="Helvetica,sans-Serif" font-size="10.00">rlm_policy_t</text>
</g>
<!-- Node2 -->
<g id="node2" class="node"><title>Node2</title>
<a xlink:href="structrbtree__t.html" target="_top" xlink:title="rbtree_t">
<polygon fill="none" stroke="black" points="9,-68.5 9,-87.5 59,-87.5 59,-68.5 9,-68.5"/>
<text text-anchor="middle" x="34" y="-75.5" font-family="Helvetica,sans-Serif" font-size="10.00">rbtree_t</text>
</a>
</g>
<!-- Node2&#45;&gt;Node1 -->
<g id="edge2" class="edge"><title>Node2&#45;&gt;Node1</title>
<path fill="none" stroke="#9a32cd" stroke-dasharray="5,2" d="M34,-58.0413C34,-45.4724 34,-29.5631 34,-19.8411"/>
<polygon fill="#9a32cd" stroke="#9a32cd" points="30.5001,-58.3716 34,-68.3717 37.5001,-58.3717 30.5001,-58.3716"/>
<text text-anchor="middle" x="52.5" y="-41.5" font-family="Helvetica,sans-Serif" font-size="10.00"> policies</text>
</g>
<!-- Node3 -->
<g id="node4" class="node"><title>Node3</title>
<a xlink:href="structrbnode__t.html" target="_top" xlink:title="rbnode_t">
<polygon fill="none" stroke="black" points="7,-142.5 7,-161.5 61,-161.5 61,-142.5 7,-142.5"/>
<text text-anchor="middle" x="34" y="-149.5" font-family="Helvetica,sans-Serif" font-size="10.00">rbnode_t</text>
</a>
</g>
<!-- Node3&#45;&gt;Node2 -->
<g id="edge4" class="edge"><title>Node3&#45;&gt;Node2</title>
<path fill="none" stroke="#9a32cd" stroke-dasharray="5,2" d="M34,-132.156C34,-117.712 34,-98.4594 34,-87.531"/>
<polygon fill="#9a32cd" stroke="#9a32cd" points="30.5001,-132.458 34,-142.458 37.5001,-132.458 30.5001,-132.458"/>
<text text-anchor="middle" x="46.5" y="-109.5" font-family="Helvetica,sans-Serif" font-size="10.00"> Root</text>
</g>
<!-- Node3&#45;&gt;Node3 -->
<g id="edge6" class="edge"><title>Node3&#45;&gt;Node3</title>
<path fill="none" stroke="#9a32cd" stroke-dasharray="5,2" d="M71.5105,-158.464C76.0382,-157.297 79,-155.142 79,-152 79,-146.844 71.0239,-144.346 61.2408,-144.507"/>
<polygon fill="#9a32cd" stroke="#9a32cd" points="70.8423,-155.014 61.2408,-159.493 71.5397,-161.979 70.8423,-155.014"/>
<text text-anchor="middle" x="93.5" y="-160.5" font-family="Helvetica,sans-Serif" font-size="10.00"> Left</text>
<text text-anchor="middle" x="93.5" y="-149.5" font-family="Helvetica,sans-Serif" font-size="10.00">Right</text>
<text text-anchor="middle" x="93.5" y="-138.5" font-family="Helvetica,sans-Serif" font-size="10.00">Parent</text>
</g>
</g>
</svg>
