<?xml version="1.0" encoding="UTF-8" standalone="no"?>
<!DOCTYPE svg PUBLIC "-//W3C//DTD SVG 1.1//EN"
 "http://www.w3.org/Graphics/SVG/1.1/DTD/svg11.dtd">
<!-- Generated by graphviz version 2.28.0 (20111211.2114)
 -->
<!-- Title: G Pages: 1 -->
<svg width="112pt" height="96pt"
 viewBox="0.00 0.00 112.00 96.00" xmlns="http://www.w3.org/2000/svg" xmlns:xlink="http://www.w3.org/1999/xlink">
<g id="graph1" class="graph" transform="scale(1 1) rotate(0) translate(4 92)">
<title>G</title>
<!-- Node1 -->
<g id="node1" class="node"><title>Node1</title>
<polygon fill="#bfbfbf" stroke="black" points="2.5,-0.5 2.5,-19.5 61.5,-19.5 61.5,-0.5 2.5,-0.5"/>
<text text-anchor="middle" x="32" y="-7.5" font-family="Helvetica,sans-Serif" font-size="10.00">hashtable</text>
</g>
<!-- Node2 -->
<g id="node2" class="node"><title>Node2</title>
<a xlink:href="structmypasswd.html" target="_top" xlink:title="mypasswd">
<polygon fill="none" stroke="black" points="0,-68.5 0,-87.5 64,-87.5 64,-68.5 0,-68.5"/>
<text text-anchor="middle" x="32" y="-75.5" font-family="Helvetica,sans-Serif" font-size="10.00">mypasswd</text>
</a>
</g>
<!-- Node2&#45;&gt;Node1 -->
<g id="edge2" class="edge"><title>Node2&#45;&gt;Node1</title>
<path fill="none" stroke="#9a32cd" stroke-dasharray="5,2" d="M32,-58.0413C32,-45.4724 32,-29.5631 32,-19.8411"/>
<polygon fill="#9a32cd" stroke="#9a32cd" points="28.5001,-58.3716 32,-68.3717 35.5001,-58.3717 28.5001,-58.3716"/>
<text text-anchor="middle" x="44.5" y="-41.5" font-family="Helvetica,sans-Serif" font-size="10.00"> table</text>
</g>
<!-- Node2&#45;&gt;Node2 -->
<g id="edge4" class="edge"><title>Node2&#45;&gt;Node2</title>
<path fill="none" stroke="#9a32cd" stroke-dasharray="5,2" d="M74.2224,-83.3827C78.9451,-82.3675 82,-80.5732 82,-78 82,-73.8828 74.1794,-71.7599 64.2203,-71.6312"/>
<polygon fill="#9a32cd" stroke="#9a32cd" points="73.8286,-79.9045 64.2203,-84.3688 74.5154,-86.8707 73.8286,-79.9045"/>
<text text-anchor="middle" x="93" y="-75.5" font-family="Helvetica,sans-Serif" font-size="10.00"> next</text>
</g>
</g>
</svg>
