<?xml version="1.0" encoding="UTF-8" standalone="no"?>
<!DOCTYPE svg PUBLIC "-//W3C//DTD SVG 1.1//EN"
 "http://www.w3.org/Graphics/SVG/1.1/DTD/svg11.dtd">
<!-- Generated by graphviz version 2.28.0 (20111211.2114)
 -->
<!-- Title: G Pages: 1 -->
<svg width="131pt" height="228pt"
 viewBox="0.00 0.00 131.00 228.00" xmlns="http://www.w3.org/2000/svg" xmlns:xlink="http://www.w3.org/1999/xlink">
<g id="graph1" class="graph" transform="scale(1 1) rotate(0) translate(4 224)">
<title>G</title>
<!-- Node1 -->
<g id="node1" class="node"><title>Node1</title>
<polygon fill="#bfbfbf" stroke="black" points="5.5,-0.5 5.5,-19.5 76.5,-19.5 76.5,-0.5 5.5,-0.5"/>
<text text-anchor="middle" x="41" y="-7.5" font-family="Helvetica,sans-Serif" font-size="10.00">file_instance</text>
</g>
<!-- Node2 -->
<g id="node2" class="node"><title>Node2</title>
<a xlink:href="structfr__hash__table__t.html" target="_top" xlink:title="fr_hash_table_t">
<polygon fill="none" stroke="black" points="-0.5,-122.5 -0.5,-141.5 82.5,-141.5 82.5,-122.5 -0.5,-122.5"/>
<text text-anchor="middle" x="41" y="-129.5" font-family="Helvetica,sans-Serif" font-size="10.00">fr_hash_table_t</text>
</a>
</g>
<!-- Node2&#45;&gt;Node1 -->
<g id="edge2" class="edge"><title>Node2&#45;&gt;Node1</title>
<path fill="none" stroke="#9a32cd" stroke-dasharray="5,2" d="M41,-112.145C41,-85.7231 41,-38.7637 41,-19.5519"/>
<polygon fill="#9a32cd" stroke="#9a32cd" points="37.5001,-112.37 41,-122.37 44.5001,-112.37 37.5001,-112.37"/>
<text text-anchor="middle" x="77.5" y="-96" font-family="Helvetica,sans-Serif" font-size="10.00"> auth_users</text>
<text text-anchor="middle" x="77.5" y="-85" font-family="Helvetica,sans-Serif" font-size="10.00">users</text>
<text text-anchor="middle" x="77.5" y="-74" font-family="Helvetica,sans-Serif" font-size="10.00">postproxy_users</text>
<text text-anchor="middle" x="77.5" y="-63" font-family="Helvetica,sans-Serif" font-size="10.00">preproxy_users</text>
<text text-anchor="middle" x="77.5" y="-52" font-family="Helvetica,sans-Serif" font-size="10.00">acctusers</text>
<text text-anchor="middle" x="77.5" y="-41" font-family="Helvetica,sans-Serif" font-size="10.00">postauth_users</text>
</g>
<!-- Node3 -->
<g id="node4" class="node"><title>Node3</title>
<a xlink:href="structfr__hash__entry__t.html" target="_top" xlink:title="fr_hash_entry_t">
<polygon fill="none" stroke="black" points="-1,-200.5 -1,-219.5 83,-219.5 83,-200.5 -1,-200.5"/>
<text text-anchor="middle" x="41" y="-207.5" font-family="Helvetica,sans-Serif" font-size="10.00">fr_hash_entry_t</text>
</a>
</g>
<!-- Node3&#45;&gt;Node2 -->
<g id="edge4" class="edge"><title>Node3&#45;&gt;Node2</title>
<path fill="none" stroke="#9a32cd" stroke-dasharray="5,2" d="M41,-190.224C41,-174.697 41,-153.358 41,-141.616"/>
<polygon fill="#9a32cd" stroke="#9a32cd" points="37.5001,-190.282 41,-200.282 44.5001,-190.282 37.5001,-190.282"/>
<text text-anchor="middle" x="58.5" y="-174" font-family="Helvetica,sans-Serif" font-size="10.00"> null</text>
<text text-anchor="middle" x="58.5" y="-163" font-family="Helvetica,sans-Serif" font-size="10.00">buckets</text>
</g>
<!-- Node3&#45;&gt;Node3 -->
<g id="edge6" class="edge"><title>Node3&#45;&gt;Node3</title>
<path fill="none" stroke="#9a32cd" stroke-dasharray="5,2" d="M93.0868,-215.476C97.3521,-214.29 100,-212.465 100,-210 100,-205.955 92.8693,-203.632 83.162,-203.032"/>
<polygon fill="#9a32cd" stroke="#9a32cd" points="92.5306,-212.02 83.162,-216.968 93.5712,-218.942 92.5306,-212.02"/>
<text text-anchor="middle" x="111" y="-207.5" font-family="Helvetica,sans-Serif" font-size="10.00"> next</text>
</g>
</g>
</svg>
