<?xml version="1.0" encoding="UTF-8" standalone="no"?>
<!DOCTYPE svg PUBLIC "-//W3C//DTD SVG 1.1//EN"
 "http://www.w3.org/Graphics/SVG/1.1/DTD/svg11.dtd">
<!-- Generated by graphviz version 2.28.0 (20111211.2114)
 -->
<!-- Title: G Pages: 1 -->
<svg width="425pt" height="300pt"
 viewBox="0.00 0.00 425.00 300.50" xmlns="http://www.w3.org/2000/svg" xmlns:xlink="http://www.w3.org/1999/xlink">
<g id="graph1" class="graph" transform="scale(1 1) rotate(0) translate(4 296.5)">
<title>G</title>
<!-- Node1 -->
<g id="node1" class="node"><title>Node1</title>
<polygon fill="#bfbfbf" stroke="black" points="122.5,-0.5 122.5,-19.5 209.5,-19.5 209.5,-0.5 122.5,-0.5"/>
<text text-anchor="middle" x="166" y="-7.5" font-family="Helvetica,sans-Serif" font-size="10.00">policy_module_t</text>
</g>
<!-- Node2 -->
<g id="node2" class="node"><title>Node2</title>
<a xlink:href="structpolicy__item__t.html" target="_top" xlink:title="policy_item_t">
<polygon fill="none" stroke="black" points="0,-91.5 0,-110.5 74,-110.5 74,-91.5 0,-91.5"/>
<text text-anchor="middle" x="37" y="-98.5" font-family="Helvetica,sans-Serif" font-size="10.00">policy_item_t</text>
</a>
</g>
<!-- Node2&#45;&gt;Node1 -->
<g id="edge2" class="edge"><title>Node2&#45;&gt;Node1</title>
<path fill="none" stroke="#9a32cd" stroke-dasharray="5,2" d="M57.7341,-85.6951C84.7837,-67.033 131.271,-34.9602 153.479,-19.6386"/>
<polygon fill="#9a32cd" stroke="#9a32cd" points="55.6126,-82.9066 49.3691,-91.4663 59.5878,-88.6683 55.6126,-82.9066"/>
<text text-anchor="middle" x="136" y="-52.5" font-family="Helvetica,sans-Serif" font-size="10.00"> item</text>
</g>
<!-- Node2&#45;&gt;Node2 -->
<g id="edge4" class="edge"><title>Node2&#45;&gt;Node2</title>
<path fill="none" stroke="#9a32cd" stroke-dasharray="5,2" d="M84.1857,-108.076C88.9569,-106.672 92,-104.313 92,-101 92,-95.6992 84.2097,-92.8418 74.0153,-92.4276"/>
<polygon fill="#9a32cd" stroke="#9a32cd" points="83.3992,-104.654 74.0153,-109.572 84.4184,-111.579 83.3992,-104.654"/>
<text text-anchor="middle" x="103" y="-98.5" font-family="Helvetica,sans-Serif" font-size="10.00"> next</text>
</g>
<!-- Node3 -->
<g id="node5" class="node"><title>Node3</title>
<a xlink:href="structmodcallable.html" target="_top" xlink:title="modcallable">
<polygon fill="none" stroke="black" points="132,-91.5 132,-110.5 200,-110.5 200,-91.5 132,-91.5"/>
<text text-anchor="middle" x="166" y="-98.5" font-family="Helvetica,sans-Serif" font-size="10.00">modcallable</text>
</a>
</g>
<!-- Node3&#45;&gt;Node1 -->
<g id="edge6" class="edge"><title>Node3&#45;&gt;Node1</title>
<path fill="none" stroke="#9a32cd" stroke-dasharray="5,2" d="M166,-81.3494C166,-62.3833 166,-33.8277 166,-19.6386"/>
<polygon fill="#9a32cd" stroke="#9a32cd" points="162.5,-81.4663 166,-91.4663 169.5,-81.4663 162.5,-81.4663"/>
<text text-anchor="middle" x="174.5" y="-52.5" font-family="Helvetica,sans-Serif" font-size="10.00"> mc</text>
</g>
<!-- Node3&#45;&gt;Node3 -->
<g id="edge8" class="edge"><title>Node3&#45;&gt;Node3</title>
<path fill="none" stroke="#9a32cd" stroke-dasharray="5,2" d="M210.148,-108.215C214.925,-106.83 218,-104.425 218,-101 218,-95.5195 210.127,-92.6508 200.008,-92.394"/>
<polygon fill="#9a32cd" stroke="#9a32cd" points="209.44,-104.779 200.008,-109.606 210.391,-111.714 209.44,-104.779"/>
<text text-anchor="middle" x="232" y="-104" font-family="Helvetica,sans-Serif" font-size="10.00"> next</text>
<text text-anchor="middle" x="232" y="-93" font-family="Helvetica,sans-Serif" font-size="10.00">parent</text>
</g>
<!-- Node4 -->
<g id="node8" class="node"><title>Node4</title>
<a xlink:href="structconf__part.html" target="_top" xlink:title="conf_part">
<polygon fill="none" stroke="black" points="264.5,-91.5 264.5,-110.5 321.5,-110.5 321.5,-91.5 264.5,-91.5"/>
<text text-anchor="middle" x="293" y="-98.5" font-family="Helvetica,sans-Serif" font-size="10.00">conf_part</text>
</a>
</g>
<!-- Node4&#45;&gt;Node1 -->
<g id="edge10" class="edge"><title>Node4&#45;&gt;Node1</title>
<path fill="none" stroke="#9a32cd" stroke-dasharray="5,2" d="M264.461,-87.0459C255.729,-82.6698 246.256,-77.4904 238,-72 213.445,-55.6696 187.825,-32.1463 174.777,-19.6187"/>
<polygon fill="#9a32cd" stroke="#9a32cd" points="263.027,-90.2406 273.552,-91.4557 266.082,-83.9424 263.027,-90.2406"/>
<text text-anchor="middle" x="245" y="-52.5" font-family="Helvetica,sans-Serif" font-size="10.00"> cs</text>
</g>
<!-- Node4&#45;&gt;Node4 -->
<g id="edge12" class="edge"><title>Node4&#45;&gt;Node4</title>
<path fill="none" stroke="#9a32cd" stroke-dasharray="5,2" d="M331.76,-108.309C336.153,-106.94 339,-104.504 339,-101 339,-95.25 331.333,-92.375 321.75,-92.375"/>
<polygon fill="#9a32cd" stroke="#9a32cd" points="331.208,-104.851 321.75,-109.625 332.121,-111.792 331.208,-104.851"/>
<text text-anchor="middle" x="359.5" y="-98.5" font-family="Helvetica,sans-Serif" font-size="10.00"> template</text>
</g>
<!-- Node5 -->
<g id="node11" class="node"><title>Node5</title>
<a xlink:href="structconf__item.html" target="_top" xlink:title="conf_item">
<polygon fill="none" stroke="black" points="245.5,-0.5 245.5,-19.5 304.5,-19.5 304.5,-0.5 245.5,-0.5"/>
<text text-anchor="middle" x="275" y="-7.5" font-family="Helvetica,sans-Serif" font-size="10.00">conf_item</text>
</a>
</g>
<!-- Node4&#45;&gt;Node5 -->
<g id="edge16" class="edge"><title>Node4&#45;&gt;Node5</title>
<path fill="none" stroke="#9a32cd" stroke-dasharray="5,2" d="M269.87,-84.9923C265.868,-81.2604 262.27,-76.9028 260,-72 253.651,-58.2872 256.21,-52.628 260,-38 261.722,-31.3557 265.472,-24.6057 268.791,-19.5168"/>
<polygon fill="#9a32cd" stroke="#9a32cd" points="267.829,-87.8429 277.818,-91.3766 272.213,-82.3854 267.829,-87.8429"/>
<text text-anchor="middle" x="275.5" y="-52.5" font-family="Helvetica,sans-Serif" font-size="10.00"> parent</text>
</g>
<!-- Node5&#45;&gt;Node4 -->
<g id="edge14" class="edge"><title>Node5&#45;&gt;Node4</title>
<path fill="none" stroke="#9a32cd" stroke-dasharray="5,2" d="M289.907,-27.8079C291.998,-31.0013 293.831,-34.4582 295,-38 301.008,-56.2039 297.694,-79.0675 295.117,-91.31"/>
<polygon fill="#9a32cd" stroke="#9a32cd" points="292.52,-25.464 283.66,-19.6538 286.963,-29.7208 292.52,-25.464"/>
<text text-anchor="middle" x="315" y="-63.5" font-family="Helvetica,sans-Serif" font-size="10.00"> tail</text>
<text text-anchor="middle" x="315" y="-52.5" font-family="Helvetica,sans-Serif" font-size="10.00">item</text>
<text text-anchor="middle" x="315" y="-41.5" font-family="Helvetica,sans-Serif" font-size="10.00">children</text>
</g>
<!-- Node5&#45;&gt;Node5 -->
<g id="edge18" class="edge"><title>Node5&#45;&gt;Node5</title>
<path fill="none" stroke="#9a32cd" stroke-dasharray="5,2" d="M314.812,-16.929C319.181,-15.6089 322,-13.2992 322,-10 322,-4.58594 314.41,-1.83661 304.833,-1.75201"/>
<polygon fill="#9a32cd" stroke="#9a32cd" points="314.288,-13.4678 304.833,-18.248 315.205,-20.4075 314.288,-13.4678"/>
<text text-anchor="middle" x="333" y="-7.5" font-family="Helvetica,sans-Serif" font-size="10.00"> next</text>
</g>
<!-- Node6 -->
<g id="node15" class="node"><title>Node6</title>
<a xlink:href="structCONF__PARSER.html" target="_top" xlink:title="CONF_PARSER">
<polygon fill="none" stroke="black" points="208,-192.5 208,-211.5 300,-211.5 300,-192.5 208,-192.5"/>
<text text-anchor="middle" x="254" y="-199.5" font-family="Helvetica,sans-Serif" font-size="10.00">CONF_PARSER</text>
</a>
</g>
<!-- Node6&#45;&gt;Node4 -->
<g id="edge20" class="edge"><title>Node6&#45;&gt;Node4</title>
<path fill="none" stroke="#9a32cd" stroke-dasharray="5,2" d="M254.178,-182.155C255.007,-167.275 257.742,-146.364 266,-130 269.772,-122.524 276.225,-115.721 281.876,-110.693"/>
<polygon fill="#9a32cd" stroke="#9a32cd" points="250.678,-182.076 253.855,-192.184 257.675,-182.302 250.678,-182.076"/>
<text text-anchor="middle" x="287.5" y="-149.5" font-family="Helvetica,sans-Serif" font-size="10.00"> variables</text>
</g>
<!-- Node7 -->
<g id="node17" class="node"><title>Node7</title>
<a xlink:href="structrbtree__t.html" target="_top" xlink:title="rbtree_t">
<polygon fill="none" stroke="black" points="318,-192.5 318,-211.5 368,-211.5 368,-192.5 318,-192.5"/>
<text text-anchor="middle" x="343" y="-199.5" font-family="Helvetica,sans-Serif" font-size="10.00">rbtree_t</text>
</a>
</g>
<!-- Node7&#45;&gt;Node4 -->
<g id="edge22" class="edge"><title>Node7&#45;&gt;Node4</title>
<path fill="none" stroke="#9a32cd" stroke-dasharray="5,2" d="M334.756,-182.862C328.081,-168.408 318.294,-147.727 309,-130 305.568,-123.455 301.422,-116.215 298.21,-110.737"/>
<polygon fill="#9a32cd" stroke="#9a32cd" points="331.667,-184.522 339.015,-192.154 338.03,-181.605 331.667,-184.522"/>
<text text-anchor="middle" x="357" y="-166" font-family="Helvetica,sans-Serif" font-size="10.00"> data_tree</text>
<text text-anchor="middle" x="357" y="-155" font-family="Helvetica,sans-Serif" font-size="10.00">name2_tree</text>
<text text-anchor="middle" x="357" y="-144" font-family="Helvetica,sans-Serif" font-size="10.00">section_tree</text>
<text text-anchor="middle" x="357" y="-133" font-family="Helvetica,sans-Serif" font-size="10.00">pair_tree</text>
</g>
<!-- Node8 -->
<g id="node19" class="node"><title>Node8</title>
<a xlink:href="structrbnode__t.html" target="_top" xlink:title="rbnode_t">
<polygon fill="none" stroke="black" points="316,-266.5 316,-285.5 370,-285.5 370,-266.5 316,-266.5"/>
<text text-anchor="middle" x="343" y="-273.5" font-family="Helvetica,sans-Serif" font-size="10.00">rbnode_t</text>
</a>
</g>
<!-- Node8&#45;&gt;Node7 -->
<g id="edge24" class="edge"><title>Node8&#45;&gt;Node7</title>
<path fill="none" stroke="#9a32cd" stroke-dasharray="5,2" d="M343,-256.156C343,-241.712 343,-222.459 343,-211.531"/>
<polygon fill="#9a32cd" stroke="#9a32cd" points="339.5,-256.458 343,-266.458 346.5,-256.458 339.5,-256.458"/>
<text text-anchor="middle" x="355.5" y="-233.5" font-family="Helvetica,sans-Serif" font-size="10.00"> Root</text>
</g>
<!-- Node8&#45;&gt;Node8 -->
<g id="edge26" class="edge"><title>Node8&#45;&gt;Node8</title>
<path fill="none" stroke="#9a32cd" stroke-dasharray="5,2" d="M380.51,-282.464C385.038,-281.297 388,-279.142 388,-276 388,-270.844 380.024,-268.346 370.241,-268.507"/>
<polygon fill="#9a32cd" stroke="#9a32cd" points="379.842,-279.014 370.241,-283.493 380.54,-285.979 379.842,-279.014"/>
<text text-anchor="middle" x="402.5" y="-284.5" font-family="Helvetica,sans-Serif" font-size="10.00"> Left</text>
<text text-anchor="middle" x="402.5" y="-273.5" font-family="Helvetica,sans-Serif" font-size="10.00">Right</text>
<text text-anchor="middle" x="402.5" y="-262.5" font-family="Helvetica,sans-Serif" font-size="10.00">Parent</text>
</g>
</g>
</svg>
