<?xml version="1.0" encoding="UTF-8" standalone="no"?>
<!DOCTYPE svg PUBLIC "-//W3C//DTD SVG 1.1//EN"
 "http://www.w3.org/Graphics/SVG/1.1/DTD/svg11.dtd">
<!-- Generated by graphviz version 2.28.0 (20111211.2114)
 -->
<!-- Title: G Pages: 1 -->
<svg width="137pt" height="96pt"
 viewBox="0.00 0.00 137.00 96.00" xmlns="http://www.w3.org/2000/svg" xmlns:xlink="http://www.w3.org/1999/xlink">
<g id="graph1" class="graph" transform="scale(1 1) rotate(0) translate(4 92)">
<title>G</title>
<!-- Node1 -->
<g id="node1" class="node"><title>Node1</title>
<polygon fill="#bfbfbf" stroke="black" points="-1,-0.5 -1,-19.5 105,-19.5 105,-0.5 -1,-0.5"/>
<text text-anchor="middle" x="52" y="-7.5" font-family="Helvetica,sans-Serif" font-size="10.00">policy_assignment_t</text>
</g>
<!-- Node2 -->
<g id="node2" class="node"><title>Node2</title>
<a xlink:href="structpolicy__item__t.html" target="_top" xlink:title="policy_item_t">
<polygon fill="none" stroke="black" points="15,-68.5 15,-87.5 89,-87.5 89,-68.5 15,-68.5"/>
<text text-anchor="middle" x="52" y="-75.5" font-family="Helvetica,sans-Serif" font-size="10.00">policy_item_t</text>
</a>
</g>
<!-- Node2&#45;&gt;Node1 -->
<g id="edge2" class="edge"><title>Node2&#45;&gt;Node1</title>
<path fill="none" stroke="#9a32cd" stroke-dasharray="5,2" d="M52,-58.0413C52,-45.4724 52,-29.5631 52,-19.8411"/>
<polygon fill="#9a32cd" stroke="#9a32cd" points="48.5001,-58.3716 52,-68.3717 55.5001,-58.3717 48.5001,-58.3716"/>
<text text-anchor="middle" x="63" y="-41.5" font-family="Helvetica,sans-Serif" font-size="10.00"> item</text>
</g>
<!-- Node2&#45;&gt;Node2 -->
<g id="edge4" class="edge"><title>Node2&#45;&gt;Node2</title>
<path fill="none" stroke="#9a32cd" stroke-dasharray="5,2" d="M99.1857,-83.2299C103.957,-82.192 107,-80.4487 107,-78 107,-74.082 99.2097,-71.97 89.0153,-71.6639"/>
<polygon fill="#9a32cd" stroke="#9a32cd" points="98.5782,-79.7752 89.0153,-84.3361 99.3352,-86.7342 98.5782,-79.7752"/>
<text text-anchor="middle" x="118" y="-75.5" font-family="Helvetica,sans-Serif" font-size="10.00"> next</text>
</g>
</g>
</svg>
