<?xml version="1.0" encoding="UTF-8" standalone="no"?>
<!DOCTYPE svg PUBLIC "-//W3C//DTD SVG 1.1//EN"
 "http://www.w3.org/Graphics/SVG/1.1/DTD/svg11.dtd">
<!-- Generated by graphviz version 2.28.0 (20111211.2114)
 -->
<!-- Title: G Pages: 1 -->
<!--zoomable-->
<svg id="main" version="1.1" xmlns="http://www.w3.org/2000/svg" xmlns:xlink="http://www.w3.org/1999/xlink" xml:space="preserve" onload="init(evt)">
        <defs>
                <circle id="rim" cx="0" cy="0" r="7"/>
                <circle id="rim2" cx="0" cy="0" r="3.5"/>
                <g id="zoomPlus">
                        <use xlink:href="#rim" fill="#404040">
                                <set attributeName="fill" to="#808080" begin="zoomplus.mouseover" end="zoomplus.mouseout"/>
                        </use>
                        <path d="M-4,0h8M0,-4v8" fill="none" stroke="white" stroke-width="1.5" pointer-events="none"/>
                </g>
                <g id="zoomMin">
                        <use xlink:href="#rim" fill="#404040">
                                <set attributeName="fill" to="#808080" begin="zoomminus.mouseover" end="zoomminus.mouseout"/>
                        </use>
                        <path d="M-4,0h8" fill="none" stroke="white" stroke-width="1.5" pointer-events="none"/>
                </g>
                <g id="dirArrow">
                        <path fill="none" stroke="white" stroke-width="1.5" d="M0,-3.0v7 M-2.5,-0.5L0,-3.0L2.5,-0.5"/>
                </g>
               <g id="resetDef">
                       <use xlink:href="#rim2" fill="#404040">
                               <set attributeName="fill" to="#808080" begin="reset.mouseover" end="reset.mouseout"/>
                       </use>
               </g>
        </defs>

<script type="text/javascript">
var viewWidth = 677;
var viewHeight = 512;
var sectionId = 'dynsection-0';
</script>
<script xlink:href="svgpan.js"/>
<svg id="graph" class="graph">
<g id="viewport">
<title>G</title>
<!-- Node1 -->
<g id="node1" class="node"><title>Node1</title>
<polygon fill="#bfbfbf" stroke="black" points="393.5,-0.5 393.5,-19.5 470.5,-19.5 470.5,-0.5 393.5,-0.5"/>
<text text-anchor="middle" x="432" y="-7.5" font-family="Helvetica,sans-Serif" font-size="10.00">listen_detail_t</text>
</g>
<!-- Node2 -->
<g id="node2" class="node"><title>Node2</title>
<a xlink:href="structradclient.html" target="_top" xlink:title="radclient">
<polygon fill="none" stroke="black" points="303.5,-68.5 303.5,-87.5 356.5,-87.5 356.5,-68.5 303.5,-68.5"/>
<text text-anchor="middle" x="330" y="-75.5" font-family="Helvetica,sans-Serif" font-size="10.00">radclient</text>
</a>
</g>
<!-- Node2&#45;&gt;Node1 -->
<g id="edge2" class="edge"><title>Node2&#45;&gt;Node1</title>
<path fill="none" stroke="#9a32cd" stroke-dasharray="5,2" d="M351.928,-62.8113C372.212,-49.6863 401.708,-30.6004 418.662,-19.6305"/>
<polygon fill="#9a32cd" stroke="#9a32cd" points="349.829,-60.0006 343.335,-68.3717 353.632,-65.8776 349.829,-60.0006"/>
<text text-anchor="middle" x="418.5" y="-41.5" font-family="Helvetica,sans-Serif" font-size="10.00"> detail_client</text>
</g>
<!-- Node3 -->
<g id="node4" class="node"><title>Node3</title>
<a xlink:href="structhome__pool__t.html" target="_top" xlink:title="home_pool_t">
<polygon fill="none" stroke="black" points="182,-136.5 182,-155.5 254,-155.5 254,-136.5 182,-136.5"/>
<text text-anchor="middle" x="218" y="-143.5" font-family="Helvetica,sans-Serif" font-size="10.00">home_pool_t</text>
</a>
</g>
<!-- Node3&#45;&gt;Node2 -->
<g id="edge4" class="edge"><title>Node3&#45;&gt;Node2</title>
<path fill="none" stroke="#9a32cd" stroke-dasharray="5,2" d="M221.378,-126.419C223.57,-119.155 227.156,-111.31 233,-106 252.277,-88.4847 281.974,-82.2118 303.431,-80.0279"/>
<polygon fill="#9a32cd" stroke="#9a32cd" points="217.94,-125.748 219.064,-136.283 224.755,-127.347 217.94,-125.748"/>
<text text-anchor="middle" x="254.5" y="-109.5" font-family="Helvetica,sans-Serif" font-size="10.00"> coa_pool</text>
</g>
<!-- Node4 -->
<g id="node6" class="node"><title>Node4</title>
<a xlink:href="structhome__server.html" target="_top" xlink:title="home_server">
<polygon fill="none" stroke="black" points="257.5,-214.5 257.5,-233.5 330.5,-233.5 330.5,-214.5 257.5,-214.5"/>
<text text-anchor="middle" x="294" y="-221.5" font-family="Helvetica,sans-Serif" font-size="10.00">home_server</text>
</a>
</g>
<!-- Node4&#45;&gt;Node2 -->
<g id="edge38" class="edge"><title>Node4&#45;&gt;Node2</title>
<path fill="none" stroke="#9a32cd" stroke-dasharray="5,2" d="M294.466,-204.239C295.303,-186.397 297.619,-158.95 304,-136 309.012,-117.976 319.026,-98.4409 325.058,-87.5617"/>
<polygon fill="#9a32cd" stroke="#9a32cd" points="290.961,-204.314 294.102,-214.433 297.957,-204.564 290.961,-204.314"/>
<text text-anchor="middle" x="330" y="-143.5" font-family="Helvetica,sans-Serif" font-size="10.00"> coa_server</text>
</g>
<!-- Node4&#45;&gt;Node3 -->
<g id="edge6" class="edge"><title>Node4&#45;&gt;Node3</title>
<path fill="none" stroke="#9a32cd" stroke-dasharray="5,2" d="M258.029,-209.946C251.095,-206.229 244.339,-201.621 239,-196 228.037,-184.458 222.326,-166.306 219.758,-155.637"/>
<polygon fill="#9a32cd" stroke="#9a32cd" points="256.947,-213.309 267.478,-214.474 259.972,-206.996 256.947,-213.309"/>
<text text-anchor="middle" x="257.5" y="-188" font-family="Helvetica,sans-Serif" font-size="10.00"> fallback</text>
<text text-anchor="middle" x="257.5" y="-177" font-family="Helvetica,sans-Serif" font-size="10.00">servers</text>
</g>
<!-- Node5 -->
<g id="node8" class="node"><title>Node5</title>
<a xlink:href="structconf__part.html" target="_top" xlink:title="conf_part">
<polygon fill="none" stroke="black" points="61.5,-304.5 61.5,-323.5 118.5,-323.5 118.5,-304.5 61.5,-304.5"/>
<text text-anchor="middle" x="90" y="-311.5" font-family="Helvetica,sans-Serif" font-size="10.00">conf_part</text>
</a>
</g>
<!-- Node5&#45;&gt;Node2 -->
<g id="edge42" class="edge"><title>Node5&#45;&gt;Node2</title>
<path fill="none" stroke="#9a32cd" stroke-dasharray="5,2" d="M72.8633,-296.422C70.4634,-293.207 68.3563,-289.684 67,-286 49.7328,-239.102 49.2906,-215.591 77,-174 127.987,-97.4702 249.204,-82.4394 303.224,-79.5976"/>
<polygon fill="#9a32cd" stroke="#9a32cd" points="70.367,-298.884 79.5849,-304.107 75.6361,-294.276 70.367,-298.884"/>
<text text-anchor="middle" x="84" y="-182.5" font-family="Helvetica,sans-Serif" font-size="10.00"> cs</text>
</g>
<!-- Node5&#45;&gt;Node3 -->
<g id="edge36" class="edge"><title>Node5&#45;&gt;Node3</title>
<path fill="none" stroke="#9a32cd" stroke-dasharray="5,2" d="M81.3066,-294.87C72.5715,-273.774 62.4464,-238.686 78,-214 100.623,-178.093 148.401,-161.008 181.818,-153.177"/>
<polygon fill="#9a32cd" stroke="#9a32cd" points="78.2175,-296.537 85.4845,-304.247 84.6116,-293.688 78.2175,-296.537"/>
<text text-anchor="middle" x="85" y="-221.5" font-family="Helvetica,sans-Serif" font-size="10.00"> cs</text>
</g>
<!-- Node5&#45;&gt;Node4 -->
<g id="edge8" class="edge"><title>Node5&#45;&gt;Node4</title>
<path fill="none" stroke="#9a32cd" stroke-dasharray="5,2" d="M128.421,-301.496C141.769,-297.116 156.717,-291.776 170,-286 199.178,-273.312 204.431,-266.005 233,-252 246.311,-245.475 261.561,-238.725 273.483,-233.606"/>
<polygon fill="#9a32cd" stroke="#9a32cd" points="127.034,-298.265 118.579,-304.649 129.17,-304.931 127.034,-298.265"/>
<text text-anchor="middle" x="240" y="-266.5" font-family="Helvetica,sans-Serif" font-size="10.00"> cs</text>
</g>
<!-- Node5&#45;&gt;Node5 -->
<g id="edge10" class="edge"><title>Node5&#45;&gt;Node5</title>
<path fill="none" stroke="#9a32cd" stroke-dasharray="5,2" d="M128.76,-320.991C133.153,-319.682 136,-317.352 136,-314 136,-308.5 128.333,-305.75 118.75,-305.75"/>
<polygon fill="#9a32cd" stroke="#9a32cd" points="128.235,-317.53 118.75,-322.25 129.109,-324.475 128.235,-317.53"/>
<text text-anchor="middle" x="156.5" y="-311.5" font-family="Helvetica,sans-Serif" font-size="10.00"> template</text>
</g>
<!-- Node6 -->
<g id="node11" class="node"><title>Node6</title>
<a xlink:href="structconf__item.html" target="_top" xlink:title="conf_item">
<polygon fill="none" stroke="black" points="101.5,-214.5 101.5,-233.5 160.5,-233.5 160.5,-214.5 101.5,-214.5"/>
<text text-anchor="middle" x="131" y="-221.5" font-family="Helvetica,sans-Serif" font-size="10.00">conf_item</text>
</a>
</g>
<!-- Node5&#45;&gt;Node6 -->
<g id="edge14" class="edge"><title>Node5&#45;&gt;Node6</title>
<path fill="none" stroke="#9a32cd" stroke-dasharray="5,2" d="M84.1963,-294.541C81.3102,-281.793 79.7911,-264.882 87,-252 91.5519,-243.866 99.6671,-237.885 107.699,-233.65"/>
<polygon fill="#9a32cd" stroke="#9a32cd" points="80.8947,-295.738 86.8994,-304.467 87.6487,-293.899 80.8947,-295.738"/>
<text text-anchor="middle" x="102.5" y="-266.5" font-family="Helvetica,sans-Serif" font-size="10.00"> parent</text>
</g>
<!-- Node6&#45;&gt;Node5 -->
<g id="edge12" class="edge"><title>Node6&#45;&gt;Node5</title>
<path fill="none" stroke="#9a32cd" stroke-dasharray="5,2" d="M131.594,-244.182C131.19,-256.792 129.099,-273.255 122,-286 117.826,-293.493 110.701,-299.815 104.233,-304.454"/>
<polygon fill="#9a32cd" stroke="#9a32cd" points="135.094,-243.899 131.585,-233.902 128.094,-243.905 135.094,-243.899"/>
<text text-anchor="middle" x="149" y="-277.5" font-family="Helvetica,sans-Serif" font-size="10.00"> tail</text>
<text text-anchor="middle" x="149" y="-266.5" font-family="Helvetica,sans-Serif" font-size="10.00">item</text>
<text text-anchor="middle" x="149" y="-255.5" font-family="Helvetica,sans-Serif" font-size="10.00">children</text>
</g>
<!-- Node6&#45;&gt;Node6 -->
<g id="edge16" class="edge"><title>Node6&#45;&gt;Node6</title>
<path fill="none" stroke="#9a32cd" stroke-dasharray="5,2" d="M170.812,-229.984C175.181,-228.844 178,-226.849 178,-224 178,-219.324 170.41,-216.95 160.833,-216.877"/>
<polygon fill="#9a32cd" stroke="#9a32cd" points="170.371,-226.512 160.833,-231.123 171.165,-233.467 170.371,-226.512"/>
<text text-anchor="middle" x="189" y="-221.5" font-family="Helvetica,sans-Serif" font-size="10.00"> next</text>
</g>
<!-- Node7 -->
<g id="node15" class="node"><title>Node7</title>
<a xlink:href="structCONF__PARSER.html" target="_top" xlink:title="CONF_PARSER">
<polygon fill="none" stroke="black" points="0,-404.5 0,-423.5 92,-423.5 92,-404.5 0,-404.5"/>
<text text-anchor="middle" x="46" y="-411.5" font-family="Helvetica,sans-Serif" font-size="10.00">CONF_PARSER</text>
</a>
</g>
<!-- Node7&#45;&gt;Node5 -->
<g id="edge18" class="edge"><title>Node7&#45;&gt;Node5</title>
<path fill="none" stroke="#9a32cd" stroke-dasharray="5,2" d="M46.1121,-393.937C46.9659,-378.935 49.9074,-357.967 59,-342 63.1676,-334.682 70.0795,-328.373 76.3205,-323.699"/>
<polygon fill="#9a32cd" stroke="#9a32cd" points="42.6097,-393.962 45.7988,-404.065 49.6064,-394.178 42.6097,-393.962"/>
<text text-anchor="middle" x="80.5" y="-361.5" font-family="Helvetica,sans-Serif" font-size="10.00"> variables</text>
</g>
<!-- Node8 -->
<g id="node17" class="node"><title>Node8</title>
<a xlink:href="structrbtree__t.html" target="_top" xlink:title="rbtree_t">
<polygon fill="none" stroke="black" points="110,-404.5 110,-423.5 160,-423.5 160,-404.5 110,-404.5"/>
<text text-anchor="middle" x="135" y="-411.5" font-family="Helvetica,sans-Serif" font-size="10.00">rbtree_t</text>
</a>
</g>
<!-- Node8&#45;&gt;Node5 -->
<g id="edge20" class="edge"><title>Node8&#45;&gt;Node5</title>
<path fill="none" stroke="#9a32cd" stroke-dasharray="5,2" d="M126.778,-395.095C117.04,-373.887 101.221,-339.436 93.9202,-323.537"/>
<polygon fill="#9a32cd" stroke="#9a32cd" points="123.653,-396.676 131.007,-404.303 130.014,-393.755 123.653,-396.676"/>
<text text-anchor="middle" x="149" y="-378" font-family="Helvetica,sans-Serif" font-size="10.00"> data_tree</text>
<text text-anchor="middle" x="149" y="-367" font-family="Helvetica,sans-Serif" font-size="10.00">name2_tree</text>
<text text-anchor="middle" x="149" y="-356" font-family="Helvetica,sans-Serif" font-size="10.00">section_tree</text>
<text text-anchor="middle" x="149" y="-345" font-family="Helvetica,sans-Serif" font-size="10.00">pair_tree</text>
</g>
<!-- Node9 -->
<g id="node19" class="node"><title>Node9</title>
<a xlink:href="structrbnode__t.html" target="_top" xlink:title="rbnode_t">
<polygon fill="none" stroke="black" points="108,-478.5 108,-497.5 162,-497.5 162,-478.5 108,-478.5"/>
<text text-anchor="middle" x="135" y="-485.5" font-family="Helvetica,sans-Serif" font-size="10.00">rbnode_t</text>
</a>
</g>
<!-- Node9&#45;&gt;Node8 -->
<g id="edge22" class="edge"><title>Node9&#45;&gt;Node8</title>
<path fill="none" stroke="#9a32cd" stroke-dasharray="5,2" d="M135,-468.156C135,-453.712 135,-434.459 135,-423.531"/>
<polygon fill="#9a32cd" stroke="#9a32cd" points="131.5,-468.458 135,-478.458 138.5,-468.458 131.5,-468.458"/>
<text text-anchor="middle" x="147.5" y="-445.5" font-family="Helvetica,sans-Serif" font-size="10.00"> Root</text>
</g>
<!-- Node9&#45;&gt;Node9 -->
<g id="edge24" class="edge"><title>Node9&#45;&gt;Node9</title>
<path fill="none" stroke="#9a32cd" stroke-dasharray="5,2" d="M172.51,-494.464C177.038,-493.297 180,-491.142 180,-488 180,-482.844 172.024,-480.346 162.241,-480.507"/>
<polygon fill="#9a32cd" stroke="#9a32cd" points="171.842,-491.014 162.241,-495.493 172.54,-497.979 171.842,-491.014"/>
<text text-anchor="middle" x="194.5" y="-496.5" font-family="Helvetica,sans-Serif" font-size="10.00"> Left</text>
<text text-anchor="middle" x="194.5" y="-485.5" font-family="Helvetica,sans-Serif" font-size="10.00">Right</text>
<text text-anchor="middle" x="194.5" y="-474.5" font-family="Helvetica,sans-Serif" font-size="10.00">Parent</text>
</g>
<!-- Node10 -->
<g id="node22" class="node"><title>Node10</title>
<a xlink:href="structfr__socket__limit__t.html" target="_top" xlink:title="fr_socket_limit_t">
<polygon fill="none" stroke="black" points="321.5,-304.5 321.5,-323.5 410.5,-323.5 410.5,-304.5 321.5,-304.5"/>
<text text-anchor="middle" x="366" y="-311.5" font-family="Helvetica,sans-Serif" font-size="10.00">fr_socket_limit_t</text>
</a>
</g>
<!-- Node10&#45;&gt;Node2 -->
<g id="edge40" class="edge"><title>Node10&#45;&gt;Node2</title>
<path fill="none" stroke="#9a32cd" stroke-dasharray="5,2" d="M367.198,-294.018C368.766,-261.242 369.872,-192.151 356,-136 351.513,-117.838 341.319,-98.3505 335.112,-87.5172"/>
<polygon fill="#9a32cd" stroke="#9a32cd" points="363.683,-294.181 366.625,-304.36 370.673,-294.568 363.683,-294.181"/>
<text text-anchor="middle" x="377" y="-182.5" font-family="Helvetica,sans-Serif" font-size="10.00"> limit</text>
</g>
<!-- Node10&#45;&gt;Node4 -->
<g id="edge26" class="edge"><title>Node10&#45;&gt;Node4</title>
<path fill="none" stroke="#9a32cd" stroke-dasharray="5,2" d="M343.556,-298.323C338.774,-294.628 333.974,-290.438 330,-286 315.235,-269.509 303.436,-246.051 297.731,-233.576"/>
<polygon fill="#9a32cd" stroke="#9a32cd" points="341.804,-301.375 351.961,-304.388 345.9,-295.698 341.804,-301.375"/>
<text text-anchor="middle" x="341" y="-266.5" font-family="Helvetica,sans-Serif" font-size="10.00"> limit</text>
</g>
<!-- Node11 -->
<g id="node24" class="node"><title>Node11</title>
<a xlink:href="structfr__event__t.html" target="_top" xlink:title="fr_event_t">
<polygon fill="none" stroke="black" points="200,-304.5 200,-323.5 260,-323.5 260,-304.5 200,-304.5"/>
<text text-anchor="middle" x="230" y="-311.5" font-family="Helvetica,sans-Serif" font-size="10.00">fr_event_t</text>
</a>
</g>
<!-- Node11&#45;&gt;Node1 -->
<g id="edge58" class="edge"><title>Node11&#45;&gt;Node1</title>
<path fill="none" stroke="#9a32cd" stroke-dasharray="5,2" d="M228.793,-294.064C226.854,-273.433 221.846,-239.912 209,-214 190.71,-177.107 137.352,-171.028 159,-136 209.974,-53.5227 330.991,-24.9086 393.361,-15.4269"/>
<polygon fill="#9a32cd" stroke="#9a32cd" points="225.327,-294.625 229.601,-304.319 232.305,-294.075 225.327,-294.625"/>
<text text-anchor="middle" x="166" y="-143.5" font-family="Helvetica,sans-Serif" font-size="10.00"> ev</text>
</g>
<!-- Node11&#45;&gt;Node4 -->
<g id="edge28" class="edge"><title>Node11&#45;&gt;Node4</title>
<path fill="none" stroke="#9a32cd" stroke-dasharray="5,2" d="M242.326,-296.052C255.88,-277.415 277.13,-248.196 287.655,-233.724"/>
<polygon fill="#9a32cd" stroke="#9a32cd" points="239.422,-294.095 236.371,-304.241 245.083,-298.212 239.422,-294.095"/>
<text text-anchor="middle" x="281" y="-266.5" font-family="Helvetica,sans-Serif" font-size="10.00"> ev</text>
</g>
<!-- Node11&#45;&gt;Node11 -->
<g id="edge30" class="edge"><title>Node11&#45;&gt;Node11</title>
<path fill="none" stroke="#9a32cd" stroke-dasharray="5,2" d="M270.343,-320.761C274.408,-319.417 277,-317.164 277,-314 277,-308.672 269.649,-305.925 260.287,-305.758"/>
<polygon fill="#9a32cd" stroke="#9a32cd" points="269.67,-317.322 260.287,-322.242 270.69,-324.248 269.67,-317.322"/>
<text text-anchor="middle" x="289.5" y="-311.5" font-family="Helvetica,sans-Serif" font-size="10.00"> ev_p</text>
</g>
<!-- Node12 -->
<g id="node27" class="node"><title>Node12</title>
<a xlink:href="structfr__ipaddr__t.html" target="_top" xlink:title="fr_ipaddr_t">
<polygon fill="none" stroke="black" points="429,-304.5 429,-323.5 491,-323.5 491,-304.5 429,-304.5"/>
<text text-anchor="middle" x="460" y="-311.5" font-family="Helvetica,sans-Serif" font-size="10.00">fr_ipaddr_t</text>
</a>
</g>
<!-- Node12&#45;&gt;Node1 -->
<g id="edge56" class="edge"><title>Node12&#45;&gt;Node1</title>
<path fill="none" stroke="#9a32cd" stroke-dasharray="5,2" d="M470.296,-295.159C479.317,-277.822 491,-250.456 491,-225 491,-225 491,-225 491,-77 491,-51.026 465.287,-30.5826 447.811,-19.6873"/>
<polygon fill="#9a32cd" stroke="#9a32cd" points="467.124,-293.664 465.4,-304.117 473.267,-297.021 467.124,-293.664"/>
<text text-anchor="middle" x="511" y="-143.5" font-family="Helvetica,sans-Serif" font-size="10.00"> client_ip</text>
</g>
<!-- Node12&#45;&gt;Node2 -->
<g id="edge44" class="edge"><title>Node12&#45;&gt;Node2</title>
<path fill="none" stroke="#9a32cd" stroke-dasharray="5,2" d="M457.226,-294.5C455.025,-282.18 451.408,-265.785 446,-252 418.66,-182.309 409.999,-163.449 362,-106 356.221,-99.0831 348.532,-92.5322 342.14,-87.6156"/>
<polygon fill="#9a32cd" stroke="#9a32cd" points="453.79,-295.174 458.86,-304.477 460.698,-294.042 453.79,-295.174"/>
<text text-anchor="middle" x="438" y="-182.5" font-family="Helvetica,sans-Serif" font-size="10.00"> ipaddr</text>
</g>
<!-- Node12&#45;&gt;Node4 -->
<g id="edge32" class="edge"><title>Node12&#45;&gt;Node4</title>
<path fill="none" stroke="#9a32cd" stroke-dasharray="5,2" d="M428.323,-300.412C418.971,-296.256 408.869,-291.321 400,-286 378.808,-273.286 377.269,-264.585 356,-252 343.774,-244.766 329.255,-238.338 317.341,-233.571"/>
<polygon fill="#9a32cd" stroke="#9a32cd" points="427.145,-303.715 437.715,-304.444 429.907,-297.283 427.145,-303.715"/>
<text text-anchor="middle" x="423" y="-272" font-family="Helvetica,sans-Serif" font-size="10.00"> ipaddr</text>
<text text-anchor="middle" x="423" y="-261" font-family="Helvetica,sans-Serif" font-size="10.00">src_ipaddr</text>
</g>
<!-- Node13 -->
<g id="node29" class="node"><title>Node13</title>
<a xlink:href="structin6__addr.html" target="_top" xlink:title="in6_addr">
<polygon fill="none" stroke="black" points="470.5,-404.5 470.5,-423.5 523.5,-423.5 523.5,-404.5 470.5,-404.5"/>
<text text-anchor="middle" x="497" y="-411.5" font-family="Helvetica,sans-Serif" font-size="10.00">in6_addr</text>
</a>
</g>
<!-- Node13&#45;&gt;Node12 -->
<g id="edge34" class="edge"><title>Node13&#45;&gt;Node12</title>
<path fill="none" stroke="#9a32cd" stroke-dasharray="5,2" d="M489.456,-394.735C488.281,-391.821 487.095,-388.833 486,-386 477.384,-363.717 467.878,-337.232 463.102,-323.782"/>
<polygon fill="#9a32cd" stroke="#9a32cd" points="486.231,-396.098 493.252,-404.032 492.712,-393.451 486.231,-396.098"/>
<text text-anchor="middle" x="503.5" y="-361.5" font-family="Helvetica,sans-Serif" font-size="10.00"> ip6addr</text>
</g>
<!-- Node15 -->
<g id="node38" class="node"><title>Node15</title>
<a xlink:href="unionvalue__pair__data.html" target="_top" xlink:title="value_pair_data">
<polygon fill="none" stroke="black" points="509.5,-304.5 509.5,-323.5 594.5,-323.5 594.5,-304.5 509.5,-304.5"/>
<text text-anchor="middle" x="552" y="-311.5" font-family="Helvetica,sans-Serif" font-size="10.00">value_pair_data</text>
</a>
</g>
<!-- Node13&#45;&gt;Node15 -->
<g id="edge50" class="edge"><title>Node13&#45;&gt;Node15</title>
<path fill="none" stroke="#9a32cd" stroke-dasharray="5,2" d="M513.124,-396.488C515.946,-393.162 518.708,-389.583 521,-386 534.337,-365.153 544.517,-337.595 549.188,-323.742"/>
<polygon fill="#9a32cd" stroke="#9a32cd" points="510.35,-394.336 506.219,-404.092 515.533,-399.042 510.35,-394.336"/>
<text text-anchor="middle" x="563" y="-361.5" font-family="Helvetica,sans-Serif" font-size="10.00"> ipv6addr</text>
</g>
<!-- Node14 -->
<g id="node36" class="node"><title>Node14</title>
<a xlink:href="structvalue__pair.html" target="_top" xlink:title="value_pair">
<polygon fill="none" stroke="black" points="528.5,-214.5 528.5,-233.5 589.5,-233.5 589.5,-214.5 528.5,-214.5"/>
<text text-anchor="middle" x="559" y="-221.5" font-family="Helvetica,sans-Serif" font-size="10.00">value_pair</text>
</a>
</g>
<!-- Node14&#45;&gt;Node1 -->
<g id="edge46" class="edge"><title>Node14&#45;&gt;Node1</title>
<path fill="none" stroke="#9a32cd" stroke-dasharray="5,2" d="M558.874,-204.009C557.598,-167.103 549.567,-85.1923 505,-38 495.908,-28.3723 483.079,-22.159 470.707,-18.157"/>
<polygon fill="#9a32cd" stroke="#9a32cd" points="555.381,-204.384 559.089,-214.309 562.38,-204.238 555.381,-204.384"/>
<text text-anchor="middle" x="556.5" y="-109.5" font-family="Helvetica,sans-Serif" font-size="10.00"> vps</text>
</g>
<!-- Node14&#45;&gt;Node14 -->
<g id="edge52" class="edge"><title>Node14&#45;&gt;Node14</title>
<path fill="none" stroke="#9a32cd" stroke-dasharray="5,2" d="M599.871,-229.929C604.212,-228.78 607,-226.804 607,-224 607,-219.398 599.492,-217.026 589.931,-216.882"/>
<polygon fill="#9a32cd" stroke="#9a32cd" points="599.445,-226.455 589.931,-231.118 600.276,-233.406 599.445,-226.455"/>
<text text-anchor="middle" x="618" y="-221.5" font-family="Helvetica,sans-Serif" font-size="10.00"> next</text>
</g>
<!-- Node15&#45;&gt;Node14 -->
<g id="edge48" class="edge"><title>Node15&#45;&gt;Node14</title>
<path fill="none" stroke="#9a32cd" stroke-dasharray="5,2" d="M553.492,-294.242C554.977,-275.571 557.192,-247.735 558.306,-233.724"/>
<polygon fill="#9a32cd" stroke="#9a32cd" points="550.001,-293.994 552.697,-304.241 556.979,-294.55 550.001,-293.994"/>
<text text-anchor="middle" x="568" y="-266.5" font-family="Helvetica,sans-Serif" font-size="10.00"> data</text>
</g>
<!-- Node16 -->
<g id="node42" class="node"><title>Node16</title>
<a xlink:href="structattr__flags.html" target="_top" xlink:title="attr_flags">
<polygon fill="none" stroke="black" points="612.5,-304.5 612.5,-323.5 669.5,-323.5 669.5,-304.5 612.5,-304.5"/>
<text text-anchor="middle" x="641" y="-311.5" font-family="Helvetica,sans-Serif" font-size="10.00">attr_flags</text>
</a>
</g>
<!-- Node16&#45;&gt;Node14 -->
<g id="edge54" class="edge"><title>Node16&#45;&gt;Node14</title>
<path fill="none" stroke="#9a32cd" stroke-dasharray="5,2" d="M625.913,-296.809C608.586,-278.215 580.798,-248.393 567.129,-233.724"/>
<polygon fill="#9a32cd" stroke="#9a32cd" points="623.46,-299.31 632.838,-304.241 628.581,-294.538 623.46,-299.31"/>
<text text-anchor="middle" x="627.5" y="-266.5" font-family="Helvetica,sans-Serif" font-size="10.00"> flags</text>
</g>
</g>
</svg>
        <g id="navigator" transform="translate(0 0)" fill="#404254">
                <rect fill="#f2f5e9" fill-opacity="0.5" stroke="#606060" stroke-width=".5" x="0" y="0" width="60" height="60"/>
                <use id="zoomplus" xlink:href="#zoomPlus" x="17" y="9" onmousedown="handleZoom(evt,'in')"/>
                <use id="zoomminus" xlink:href="#zoomMin" x="42" y="9" onmousedown="handleZoom(evt,'out')"/>
                <use id="reset" xlink:href="#resetDef" x="30" y="36" onmousedown="handleReset()"/>
                <g id="arrowUp" xlink:href="#dirArrow" transform="translate(30 24)" onmousedown="handlePan(0,-1)">
                  <use xlink:href="#rim" fill="#404040">
                        <set attributeName="fill" to="#808080" begin="arrowUp.mouseover" end="arrowUp.mouseout"/>
                  </use>
                  <path fill="none" stroke="white" stroke-width="1.5" d="M0,-3.0v7 M-2.5,-0.5L0,-3.0L2.5,-0.5"/>
                </g>
                <g id="arrowRight" xlink:href="#dirArrow" transform="rotate(90) translate(36 -43)" onmousedown="handlePan(1,0)">
                  <use xlink:href="#rim" fill="#404040">
                        <set attributeName="fill" to="#808080" begin="arrowRight.mouseover" end="arrowRight.mouseout"/>
                  </use>
                  <path fill="none" stroke="white" stroke-width="1.5" d="M0,-3.0v7 M-2.5,-0.5L0,-3.0L2.5,-0.5"/>
                </g>
                <g id="arrowDown" xlink:href="#dirArrow" transform="rotate(180) translate(-30 -48)" onmousedown="handlePan(0,1)">
                  <use xlink:href="#rim" fill="#404040">
                        <set attributeName="fill" to="#808080" begin="arrowDown.mouseover" end="arrowDown.mouseout"/>
                  </use>
                  <path fill="none" stroke="white" stroke-width="1.5" d="M0,-3.0v7 M-2.5,-0.5L0,-3.0L2.5,-0.5"/>
                </g>
                <g id="arrowLeft" xlink:href="#dirArrow" transform="rotate(270) translate(-36 17)" onmousedown="handlePan(-1,0)">
                  <use xlink:href="#rim" fill="#404040">
                        <set attributeName="fill" to="#808080" begin="arrowLeft.mouseover" end="arrowLeft.mouseout"/>
                  </use>
                  <path fill="none" stroke="white" stroke-width="1.5" d="M0,-3.0v7 M-2.5,-0.5L0,-3.0L2.5,-0.5"/>
                </g>
        </g>
</svg>
