<?xml version="1.0" encoding="UTF-8" standalone="no"?>
<!DOCTYPE svg PUBLIC "-//W3C//DTD SVG 1.1//EN"
 "http://www.w3.org/Graphics/SVG/1.1/DTD/svg11.dtd">
<!-- Generated by graphviz version 2.28.0 (20111211.2114)
 -->
<!-- Title: G Pages: 1 -->
<svg width="217pt" height="298pt"
 viewBox="0.00 0.00 217.00 298.50" xmlns="http://www.w3.org/2000/svg" xmlns:xlink="http://www.w3.org/1999/xlink">
<g id="graph1" class="graph" transform="scale(1 1) rotate(0) translate(4 294.5)">
<title>G</title>
<!-- Node1 -->
<g id="node1" class="node"><title>Node1</title>
<polygon fill="#bfbfbf" stroke="black" points="11.5,-0.5 11.5,-19.5 82.5,-19.5 82.5,-0.5 11.5,-0.5"/>
<text text-anchor="middle" x="47" y="-7.5" font-family="Helvetica,sans-Serif" font-size="10.00">rlm_linelog_t</text>
</g>
<!-- Node2 -->
<g id="node2" class="node"><title>Node2</title>
<a xlink:href="structconf__part.html" target="_top" xlink:title="conf_part">
<polygon fill="none" stroke="black" points="55.5,-90.5 55.5,-109.5 112.5,-109.5 112.5,-90.5 55.5,-90.5"/>
<text text-anchor="middle" x="84" y="-97.5" font-family="Helvetica,sans-Serif" font-size="10.00">conf_part</text>
</a>
</g>
<!-- Node2&#45;&gt;Node1 -->
<g id="edge2" class="edge"><title>Node2&#45;&gt;Node1</title>
<path fill="none" stroke="#9a32cd" stroke-dasharray="5,2" d="M58.2226,-84.3977C54.1136,-80.8855 50.4236,-76.7494 48,-72 39.4307,-55.2068 42.2946,-32.2756 44.8353,-19.8609"/>
<polygon fill="#9a32cd" stroke="#9a32cd" points="56.2772,-87.3109 66.4177,-90.3801 60.4045,-81.657 56.2772,-87.3109"/>
<text text-anchor="middle" x="55" y="-52.5" font-family="Helvetica,sans-Serif" font-size="10.00"> cs</text>
</g>
<!-- Node2&#45;&gt;Node2 -->
<g id="edge4" class="edge"><title>Node2&#45;&gt;Node2</title>
<path fill="none" stroke="#9a32cd" stroke-dasharray="5,2" d="M122.76,-106.991C127.153,-105.682 130,-103.352 130,-100 130,-94.5 122.333,-91.75 112.75,-91.75"/>
<polygon fill="#9a32cd" stroke="#9a32cd" points="122.235,-103.53 112.75,-108.25 123.109,-110.475 122.235,-103.53"/>
<text text-anchor="middle" x="150.5" y="-97.5" font-family="Helvetica,sans-Serif" font-size="10.00"> template</text>
</g>
<!-- Node3 -->
<g id="node5" class="node"><title>Node3</title>
<a xlink:href="structconf__item.html" target="_top" xlink:title="conf_item">
<polygon fill="none" stroke="black" points="104.5,-0.5 104.5,-19.5 163.5,-19.5 163.5,-0.5 104.5,-0.5"/>
<text text-anchor="middle" x="134" y="-7.5" font-family="Helvetica,sans-Serif" font-size="10.00">conf_item</text>
</a>
</g>
<!-- Node2&#45;&gt;Node3 -->
<g id="edge8" class="edge"><title>Node2&#45;&gt;Node3</title>
<path fill="none" stroke="#9a32cd" stroke-dasharray="5,2" d="M77.9736,-80.7445C74.8825,-67.8658 73.2088,-50.7131 81,-38 86.288,-29.3714 95.2943,-23.3924 104.397,-19.2988"/>
<polygon fill="#9a32cd" stroke="#9a32cd" points="74.6108,-81.7149 80.7269,-90.3661 81.3406,-79.789 74.6108,-81.7149"/>
<text text-anchor="middle" x="96.5" y="-52.5" font-family="Helvetica,sans-Serif" font-size="10.00"> parent</text>
</g>
<!-- Node3&#45;&gt;Node2 -->
<g id="edge6" class="edge"><title>Node3&#45;&gt;Node2</title>
<path fill="none" stroke="#9a32cd" stroke-dasharray="5,2" d="M131.427,-29.465C128.991,-42.2164 124.404,-59.1287 116,-72 111.231,-79.3036 103.902,-85.6927 97.4604,-90.4199"/>
<polygon fill="#9a32cd" stroke="#9a32cd" points="134.891,-29.9711 133.056,-19.5364 127.983,-28.8378 134.891,-29.9711"/>
<text text-anchor="middle" x="146" y="-63.5" font-family="Helvetica,sans-Serif" font-size="10.00"> tail</text>
<text text-anchor="middle" x="146" y="-52.5" font-family="Helvetica,sans-Serif" font-size="10.00">item</text>
<text text-anchor="middle" x="146" y="-41.5" font-family="Helvetica,sans-Serif" font-size="10.00">children</text>
</g>
<!-- Node3&#45;&gt;Node3 -->
<g id="edge10" class="edge"><title>Node3&#45;&gt;Node3</title>
<path fill="none" stroke="#9a32cd" stroke-dasharray="5,2" d="M173.812,-16.929C178.181,-15.6089 181,-13.2992 181,-10 181,-4.58594 173.41,-1.83661 163.833,-1.75201"/>
<polygon fill="#9a32cd" stroke="#9a32cd" points="173.288,-13.4678 163.833,-18.248 174.205,-20.4075 173.288,-13.4678"/>
<text text-anchor="middle" x="192" y="-7.5" font-family="Helvetica,sans-Serif" font-size="10.00"> next</text>
</g>
<!-- Node4 -->
<g id="node9" class="node"><title>Node4</title>
<a xlink:href="structCONF__PARSER.html" target="_top" xlink:title="CONF_PARSER">
<polygon fill="none" stroke="black" points="0,-190.5 0,-209.5 92,-209.5 92,-190.5 0,-190.5"/>
<text text-anchor="middle" x="46" y="-197.5" font-family="Helvetica,sans-Serif" font-size="10.00">CONF_PARSER</text>
</a>
</g>
<!-- Node4&#45;&gt;Node2 -->
<g id="edge12" class="edge"><title>Node4&#45;&gt;Node2</title>
<path fill="none" stroke="#9a32cd" stroke-dasharray="5,2" d="M46.1807,-180.157C47.0122,-165.277 49.748,-144.367 58,-128 61.5742,-120.911 67.6466,-114.447 73.0244,-109.622"/>
<polygon fill="#9a32cd" stroke="#9a32cd" points="42.6816,-180.077 45.8563,-190.185 49.6779,-180.303 42.6816,-180.077"/>
<text text-anchor="middle" x="79.5" y="-147.5" font-family="Helvetica,sans-Serif" font-size="10.00"> variables</text>
</g>
<!-- Node5 -->
<g id="node11" class="node"><title>Node5</title>
<a xlink:href="structrbtree__t.html" target="_top" xlink:title="rbtree_t">
<polygon fill="none" stroke="black" points="110,-190.5 110,-209.5 160,-209.5 160,-190.5 110,-190.5"/>
<text text-anchor="middle" x="135" y="-197.5" font-family="Helvetica,sans-Serif" font-size="10.00">rbtree_t</text>
</a>
</g>
<!-- Node5&#45;&gt;Node2 -->
<g id="edge14" class="edge"><title>Node5&#45;&gt;Node2</title>
<path fill="none" stroke="#9a32cd" stroke-dasharray="5,2" d="M126.963,-180.75C120.404,-166.235 110.671,-145.524 101,-128 97.5743,-121.792 93.3243,-115.042 89.9307,-109.844"/>
<polygon fill="#9a32cd" stroke="#9a32cd" points="123.86,-182.386 131.132,-190.091 130.253,-179.533 123.86,-182.386"/>
<text text-anchor="middle" x="149" y="-164" font-family="Helvetica,sans-Serif" font-size="10.00"> data_tree</text>
<text text-anchor="middle" x="149" y="-153" font-family="Helvetica,sans-Serif" font-size="10.00">name2_tree</text>
<text text-anchor="middle" x="149" y="-142" font-family="Helvetica,sans-Serif" font-size="10.00">section_tree</text>
<text text-anchor="middle" x="149" y="-131" font-family="Helvetica,sans-Serif" font-size="10.00">pair_tree</text>
</g>
<!-- Node6 -->
<g id="node13" class="node"><title>Node6</title>
<a xlink:href="structrbnode__t.html" target="_top" xlink:title="rbnode_t">
<polygon fill="none" stroke="black" points="108,-264.5 108,-283.5 162,-283.5 162,-264.5 108,-264.5"/>
<text text-anchor="middle" x="135" y="-271.5" font-family="Helvetica,sans-Serif" font-size="10.00">rbnode_t</text>
</a>
</g>
<!-- Node6&#45;&gt;Node5 -->
<g id="edge16" class="edge"><title>Node6&#45;&gt;Node5</title>
<path fill="none" stroke="#9a32cd" stroke-dasharray="5,2" d="M135,-254.156C135,-239.712 135,-220.459 135,-209.531"/>
<polygon fill="#9a32cd" stroke="#9a32cd" points="131.5,-254.458 135,-264.458 138.5,-254.458 131.5,-254.458"/>
<text text-anchor="middle" x="147.5" y="-231.5" font-family="Helvetica,sans-Serif" font-size="10.00"> Root</text>
</g>
<!-- Node6&#45;&gt;Node6 -->
<g id="edge18" class="edge"><title>Node6&#45;&gt;Node6</title>
<path fill="none" stroke="#9a32cd" stroke-dasharray="5,2" d="M172.51,-280.464C177.038,-279.297 180,-277.142 180,-274 180,-268.844 172.024,-266.346 162.241,-266.507"/>
<polygon fill="#9a32cd" stroke="#9a32cd" points="171.842,-277.014 162.241,-281.493 172.54,-283.979 171.842,-277.014"/>
<text text-anchor="middle" x="194.5" y="-282.5" font-family="Helvetica,sans-Serif" font-size="10.00"> Left</text>
<text text-anchor="middle" x="194.5" y="-271.5" font-family="Helvetica,sans-Serif" font-size="10.00">Right</text>
<text text-anchor="middle" x="194.5" y="-260.5" font-family="Helvetica,sans-Serif" font-size="10.00">Parent</text>
</g>
</g>
</svg>
