<?xml version="1.0" encoding="UTF-8" standalone="no"?>
<!DOCTYPE svg PUBLIC "-//W3C//DTD SVG 1.1//EN"
 "http://www.w3.org/Graphics/SVG/1.1/DTD/svg11.dtd">
<!-- Generated by graphviz version 2.28.0 (20111211.2114)
 -->
<!-- Title: G Pages: 1 -->
<svg width="356pt" height="412pt"
 viewBox="0.00 0.00 356.00 412.50" xmlns="http://www.w3.org/2000/svg" xmlns:xlink="http://www.w3.org/1999/xlink">
<g id="graph1" class="graph" transform="scale(1 1) rotate(0) translate(4 408.5)">
<title>G</title>
<!-- Node1 -->
<g id="node1" class="node"><title>Node1</title>
<polygon fill="#bfbfbf" stroke="black" points="234,-0.5 234,-19.5 294,-19.5 294,-0.5 234,-0.5"/>
<text text-anchor="middle" x="264" y="-7.5" font-family="Helvetica,sans-Serif" font-size="10.00">rlm_rest_t</text>
</g>
<!-- Node2 -->
<g id="node2" class="node"><title>Node2</title>
<a xlink:href="structfr__connection__pool__t.html" target="_top" xlink:title="fr_connection_pool_t">
<polygon fill="none" stroke="black" points="126.5,-112.5 126.5,-131.5 233.5,-131.5 233.5,-112.5 126.5,-112.5"/>
<text text-anchor="middle" x="180" y="-119.5" font-family="Helvetica,sans-Serif" font-size="10.00">fr_connection_pool_t</text>
</a>
</g>
<!-- Node2&#45;&gt;Node1 -->
<g id="edge2" class="edge"><title>Node2&#45;&gt;Node1</title>
<path fill="none" stroke="#9a32cd" stroke-dasharray="5,2" d="M185.732,-102.705C192.096,-84.6496 203.793,-57.0557 221,-38 227.853,-30.4109 237.324,-24.1557 245.634,-19.5838"/>
<polygon fill="#9a32cd" stroke="#9a32cd" points="182.367,-101.732 182.529,-112.325 189.009,-103.943 182.367,-101.732"/>
<text text-anchor="middle" x="246" y="-63.5" font-family="Helvetica,sans-Serif" font-size="10.00"> conn_pool</text>
</g>
<!-- Node3 -->
<g id="node4" class="node"><title>Node3</title>
<a xlink:href="structconf__part.html" target="_top" xlink:title="conf_part">
<polygon fill="none" stroke="black" points="50.5,-203.5 50.5,-222.5 107.5,-222.5 107.5,-203.5 50.5,-203.5"/>
<text text-anchor="middle" x="79" y="-210.5" font-family="Helvetica,sans-Serif" font-size="10.00">conf_part</text>
</a>
</g>
<!-- Node3&#45;&gt;Node2 -->
<g id="edge4" class="edge"><title>Node3&#45;&gt;Node2</title>
<path fill="none" stroke="#9a32cd" stroke-dasharray="5,2" d="M98.5773,-197.301C103.98,-193.104 109.787,-188.457 115,-184 135.938,-166.099 159.184,-143.601 171.406,-131.552"/>
<polygon fill="#9a32cd" stroke="#9a32cd" points="96.377,-194.578 90.565,-203.436 100.633,-200.136 96.377,-194.578"/>
<text text-anchor="middle" x="158" y="-164.5" font-family="Helvetica,sans-Serif" font-size="10.00"> cs</text>
</g>
<!-- Node3&#45;&gt;Node3 -->
<g id="edge6" class="edge"><title>Node3&#45;&gt;Node3</title>
<path fill="none" stroke="#9a32cd" stroke-dasharray="5,2" d="M117.76,-220.309C122.153,-218.94 125,-216.504 125,-213 125,-207.25 117.333,-204.375 107.75,-204.375"/>
<polygon fill="#9a32cd" stroke="#9a32cd" points="117.208,-216.851 107.75,-221.625 118.121,-223.792 117.208,-216.851"/>
<text text-anchor="middle" x="145.5" y="-210.5" font-family="Helvetica,sans-Serif" font-size="10.00"> template</text>
</g>
<!-- Node4 -->
<g id="node7" class="node"><title>Node4</title>
<a xlink:href="structconf__item.html" target="_top" xlink:title="conf_item">
<polygon fill="none" stroke="black" points="6.5,-112.5 6.5,-131.5 65.5,-131.5 65.5,-112.5 6.5,-112.5"/>
<text text-anchor="middle" x="36" y="-119.5" font-family="Helvetica,sans-Serif" font-size="10.00">conf_item</text>
</a>
</g>
<!-- Node3&#45;&gt;Node4 -->
<g id="edge10" class="edge"><title>Node3&#45;&gt;Node4</title>
<path fill="none" stroke="#9a32cd" stroke-dasharray="5,2" d="M44.8661,-198.231C39.3172,-194.454 34.311,-189.765 31,-184 21.4739,-167.415 27.8158,-143.995 32.4209,-131.551"/>
<polygon fill="#9a32cd" stroke="#9a32cd" points="43.458,-201.459 53.8669,-203.436 46.9622,-195.4 43.458,-201.459"/>
<text text-anchor="middle" x="46.5" y="-164.5" font-family="Helvetica,sans-Serif" font-size="10.00"> parent</text>
</g>
<!-- Node4&#45;&gt;Node3 -->
<g id="edge8" class="edge"><title>Node4&#45;&gt;Node3</title>
<path fill="none" stroke="#9a32cd" stroke-dasharray="5,2" d="M56.4302,-138.129C60.081,-141.663 63.5092,-145.673 66,-150 75.8764,-167.157 78.2911,-190.839 78.8544,-203.388"/>
<polygon fill="#9a32cd" stroke="#9a32cd" points="58.7112,-135.475 48.8526,-131.594 54.1394,-140.775 58.7112,-135.475"/>
<text text-anchor="middle" x="94" y="-175.5" font-family="Helvetica,sans-Serif" font-size="10.00"> tail</text>
<text text-anchor="middle" x="94" y="-164.5" font-family="Helvetica,sans-Serif" font-size="10.00">item</text>
<text text-anchor="middle" x="94" y="-153.5" font-family="Helvetica,sans-Serif" font-size="10.00">children</text>
</g>
<!-- Node4&#45;&gt;Node4 -->
<g id="edge12" class="edge"><title>Node4&#45;&gt;Node4</title>
<path fill="none" stroke="#9a32cd" stroke-dasharray="5,2" d="M75.8122,-128.929C80.1814,-127.609 83,-125.299 83,-122 83,-116.586 75.4095,-113.837 65.8325,-113.752"/>
<polygon fill="#9a32cd" stroke="#9a32cd" points="75.2877,-125.468 65.8325,-130.248 76.2049,-132.407 75.2877,-125.468"/>
<text text-anchor="middle" x="94" y="-119.5" font-family="Helvetica,sans-Serif" font-size="10.00"> next</text>
</g>
<!-- Node5 -->
<g id="node11" class="node"><title>Node5</title>
<a xlink:href="structCONF__PARSER.html" target="_top" xlink:title="CONF_PARSER">
<polygon fill="none" stroke="black" points="0,-304.5 0,-323.5 92,-323.5 92,-304.5 0,-304.5"/>
<text text-anchor="middle" x="46" y="-311.5" font-family="Helvetica,sans-Serif" font-size="10.00">CONF_PARSER</text>
</a>
</g>
<!-- Node5&#45;&gt;Node3 -->
<g id="edge14" class="edge"><title>Node5&#45;&gt;Node3</title>
<path fill="none" stroke="#9a32cd" stroke-dasharray="5,2" d="M46.7745,-293.982C47.9423,-279.276 50.8407,-258.679 58,-242 61.0679,-234.853 66.3179,-227.853 70.8009,-222.64"/>
<polygon fill="#9a32cd" stroke="#9a32cd" points="43.2593,-294.137 46.1606,-304.326 50.247,-294.551 43.2593,-294.137"/>
<text text-anchor="middle" x="79.5" y="-261.5" font-family="Helvetica,sans-Serif" font-size="10.00"> variables</text>
</g>
<!-- Node6 -->
<g id="node13" class="node"><title>Node6</title>
<a xlink:href="structrbtree__t.html" target="_top" xlink:title="rbtree_t">
<polygon fill="none" stroke="black" points="110,-304.5 110,-323.5 160,-323.5 160,-304.5 110,-304.5"/>
<text text-anchor="middle" x="135" y="-311.5" font-family="Helvetica,sans-Serif" font-size="10.00">rbtree_t</text>
</a>
</g>
<!-- Node6&#45;&gt;Node3 -->
<g id="edge16" class="edge"><title>Node6&#45;&gt;Node3</title>
<path fill="none" stroke="#9a32cd" stroke-dasharray="5,2" d="M127.663,-294.943C121.384,-280.241 111.685,-259.184 101,-242 96.8216,-235.28 91.3216,-228.28 86.8662,-222.96"/>
<polygon fill="#9a32cd" stroke="#9a32cd" points="124.518,-296.495 131.596,-304.378 130.979,-293.801 124.518,-296.495"/>
<text text-anchor="middle" x="151" y="-278" font-family="Helvetica,sans-Serif" font-size="10.00"> data_tree</text>
<text text-anchor="middle" x="151" y="-267" font-family="Helvetica,sans-Serif" font-size="10.00">name2_tree</text>
<text text-anchor="middle" x="151" y="-256" font-family="Helvetica,sans-Serif" font-size="10.00">section_tree</text>
<text text-anchor="middle" x="151" y="-245" font-family="Helvetica,sans-Serif" font-size="10.00">pair_tree</text>
</g>
<!-- Node7 -->
<g id="node15" class="node"><title>Node7</title>
<a xlink:href="structrbnode__t.html" target="_top" xlink:title="rbnode_t">
<polygon fill="none" stroke="black" points="108,-378.5 108,-397.5 162,-397.5 162,-378.5 108,-378.5"/>
<text text-anchor="middle" x="135" y="-385.5" font-family="Helvetica,sans-Serif" font-size="10.00">rbnode_t</text>
</a>
</g>
<!-- Node7&#45;&gt;Node6 -->
<g id="edge18" class="edge"><title>Node7&#45;&gt;Node6</title>
<path fill="none" stroke="#9a32cd" stroke-dasharray="5,2" d="M135,-368.156C135,-353.712 135,-334.459 135,-323.531"/>
<polygon fill="#9a32cd" stroke="#9a32cd" points="131.5,-368.458 135,-378.458 138.5,-368.458 131.5,-368.458"/>
<text text-anchor="middle" x="147.5" y="-345.5" font-family="Helvetica,sans-Serif" font-size="10.00"> Root</text>
</g>
<!-- Node7&#45;&gt;Node7 -->
<g id="edge20" class="edge"><title>Node7&#45;&gt;Node7</title>
<path fill="none" stroke="#9a32cd" stroke-dasharray="5,2" d="M172.51,-394.464C177.038,-393.297 180,-391.142 180,-388 180,-382.844 172.024,-380.346 162.241,-380.507"/>
<polygon fill="#9a32cd" stroke="#9a32cd" points="171.842,-391.014 162.241,-395.493 172.54,-397.979 171.842,-391.014"/>
<text text-anchor="middle" x="194.5" y="-396.5" font-family="Helvetica,sans-Serif" font-size="10.00"> Left</text>
<text text-anchor="middle" x="194.5" y="-385.5" font-family="Helvetica,sans-Serif" font-size="10.00">Right</text>
<text text-anchor="middle" x="194.5" y="-374.5" font-family="Helvetica,sans-Serif" font-size="10.00">Parent</text>
</g>
<!-- Node8 -->
<g id="node18" class="node"><title>Node8</title>
<a xlink:href="structfr__connection__t.html" target="_top" xlink:title="fr_connection_t">
<polygon fill="none" stroke="black" points="184.5,-203.5 184.5,-222.5 267.5,-222.5 267.5,-203.5 184.5,-203.5"/>
<text text-anchor="middle" x="226" y="-210.5" font-family="Helvetica,sans-Serif" font-size="10.00">fr_connection_t</text>
</a>
</g>
<!-- Node8&#45;&gt;Node2 -->
<g id="edge22" class="edge"><title>Node8&#45;&gt;Node2</title>
<path fill="none" stroke="#9a32cd" stroke-dasharray="5,2" d="M216.907,-194.408C207.115,-175.461 191.936,-146.094 184.465,-131.639"/>
<polygon fill="#9a32cd" stroke="#9a32cd" points="213.889,-196.19 221.589,-203.466 220.107,-192.976 213.889,-196.19"/>
<text text-anchor="middle" x="224.5" y="-170" font-family="Helvetica,sans-Serif" font-size="10.00"> head</text>
<text text-anchor="middle" x="224.5" y="-159" font-family="Helvetica,sans-Serif" font-size="10.00">tail</text>
</g>
<!-- Node8&#45;&gt;Node8 -->
<g id="edge24" class="edge"><title>Node8&#45;&gt;Node8</title>
<path fill="none" stroke="#9a32cd" stroke-dasharray="5,2" d="M277.508,-219.816C282.111,-218.388 285,-216.116 285,-213 285,-208.014 277.605,-205.189 267.625,-204.527"/>
<polygon fill="#9a32cd" stroke="#9a32cd" points="276.909,-216.367 267.625,-221.473 278.066,-223.271 276.909,-216.367"/>
<text text-anchor="middle" x="296" y="-216" font-family="Helvetica,sans-Serif" font-size="10.00"> prev</text>
<text text-anchor="middle" x="296" y="-205" font-family="Helvetica,sans-Serif" font-size="10.00">next</text>
</g>
<!-- Node9 -->
<g id="node21" class="node"><title>Node9</title>
<a xlink:href="structrlm__rest__section__t.html" target="_top" xlink:title="rlm_rest_section_t">
<polygon fill="none" stroke="black" points="251.5,-112.5 251.5,-131.5 348.5,-131.5 348.5,-112.5 251.5,-112.5"/>
<text text-anchor="middle" x="300" y="-119.5" font-family="Helvetica,sans-Serif" font-size="10.00">rlm_rest_section_t</text>
</a>
</g>
<!-- Node9&#45;&gt;Node1 -->
<g id="edge26" class="edge"><title>Node9&#45;&gt;Node1</title>
<path fill="none" stroke="#9a32cd" stroke-dasharray="5,2" d="M294.002,-102.674C286.132,-78.6248 272.636,-37.3881 266.812,-19.5914"/>
<polygon fill="#9a32cd" stroke="#9a32cd" points="290.738,-103.953 297.175,-112.368 297.391,-101.776 290.738,-103.953"/>
<text text-anchor="middle" x="317" y="-85.5" font-family="Helvetica,sans-Serif" font-size="10.00"> accounting</text>
<text text-anchor="middle" x="317" y="-74.5" font-family="Helvetica,sans-Serif" font-size="10.00">postauth</text>
<text text-anchor="middle" x="317" y="-63.5" font-family="Helvetica,sans-Serif" font-size="10.00">checksimul</text>
<text text-anchor="middle" x="317" y="-52.5" font-family="Helvetica,sans-Serif" font-size="10.00">authorize</text>
<text text-anchor="middle" x="317" y="-41.5" font-family="Helvetica,sans-Serif" font-size="10.00">authenticate</text>
</g>
</g>
</svg>
