<?xml version="1.0" encoding="UTF-8" standalone="no"?>
<!DOCTYPE svg PUBLIC "-//W3C//DTD SVG 1.1//EN"
 "http://www.w3.org/Graphics/SVG/1.1/DTD/svg11.dtd">
<!-- Generated by graphviz version 2.28.0 (20111211.2114)
 -->
<!-- Title: G Pages: 1 -->
<svg width="122pt" height="96pt"
 viewBox="0.00 0.00 122.00 96.00" xmlns="http://www.w3.org/2000/svg" xmlns:xlink="http://www.w3.org/1999/xlink">
<g id="graph1" class="graph" transform="scale(1 1) rotate(0) translate(4 92)">
<title>G</title>
<!-- Node1 -->
<g id="node1" class="node"><title>Node1</title>
<polygon fill="#bfbfbf" stroke="black" points="0,-0.5 0,-19.5 74,-19.5 74,-0.5 0,-0.5"/>
<text text-anchor="middle" x="37" y="-7.5" font-family="Helvetica,sans-Serif" font-size="10.00">value_fixup_t</text>
</g>
<!-- Node1&#45;&gt;Node1 -->
<g id="edge2" class="edge"><title>Node1&#45;&gt;Node1</title>
<path fill="none" stroke="#9a32cd" stroke-dasharray="5,2" d="M84.1857,-15.2299C88.9569,-14.192 92,-12.4487 92,-10 92,-6.08203 84.2097,-3.97 74.0153,-3.66391"/>
<polygon fill="#9a32cd" stroke="#9a32cd" points="83.5782,-11.7752 74.0153,-16.3361 84.3352,-18.7342 83.5782,-11.7752"/>
<text text-anchor="middle" x="103" y="-7.5" font-family="Helvetica,sans-Serif" font-size="10.00"> next</text>
</g>
<!-- Node2 -->
<g id="node3" class="node"><title>Node2</title>
<a xlink:href="structdict__value.html" target="_top" xlink:title="dict_value">
<polygon fill="none" stroke="black" points="6.5,-68.5 6.5,-87.5 67.5,-87.5 67.5,-68.5 6.5,-68.5"/>
<text text-anchor="middle" x="37" y="-75.5" font-family="Helvetica,sans-Serif" font-size="10.00">dict_value</text>
</a>
</g>
<!-- Node2&#45;&gt;Node1 -->
<g id="edge4" class="edge"><title>Node2&#45;&gt;Node1</title>
<path fill="none" stroke="#9a32cd" stroke-dasharray="5,2" d="M37,-58.0413C37,-45.4724 37,-29.5631 37,-19.8411"/>
<polygon fill="#9a32cd" stroke="#9a32cd" points="33.5001,-58.3716 37,-68.3717 40.5001,-58.3717 33.5001,-58.3716"/>
<text text-anchor="middle" x="48" y="-41.5" font-family="Helvetica,sans-Serif" font-size="10.00"> dval</text>
</g>
</g>
</svg>
