<?xml version="1.0" encoding="UTF-8" standalone="no"?>
<!DOCTYPE svg PUBLIC "-//W3C//DTD SVG 1.1//EN"
 "http://www.w3.org/Graphics/SVG/1.1/DTD/svg11.dtd">
<!-- Generated by graphviz version 2.28.0 (20111211.2114)
 -->
<!-- Title: G Pages: 1 -->
<svg width="84pt" height="174pt"
 viewBox="0.00 0.00 84.00 174.00" xmlns="http://www.w3.org/2000/svg" xmlns:xlink="http://www.w3.org/1999/xlink">
<g id="graph1" class="graph" transform="scale(1 1) rotate(0) translate(4 170)">
<title>G</title>
<!-- Node1 -->
<g id="node1" class="node"><title>Node1</title>
<polygon fill="#bfbfbf" stroke="black" points="9,-0.5 9,-19.5 57,-19.5 57,-0.5 9,-0.5"/>
<text text-anchor="middle" x="33" y="-7.5" font-family="Helvetica,sans-Serif" font-size="10.00">eap_ds</text>
</g>
<!-- Node2 -->
<g id="node2" class="node"><title>Node2</title>
<a xlink:href="structeap__packet.html" target="_top" xlink:title="eap_packet">
<polygon fill="none" stroke="black" points="-0.5,-78.5 -0.5,-97.5 66.5,-97.5 66.5,-78.5 -0.5,-78.5"/>
<text text-anchor="middle" x="33" y="-85.5" font-family="Helvetica,sans-Serif" font-size="10.00">eap_packet</text>
</a>
</g>
<!-- Node2&#45;&gt;Node1 -->
<g id="edge2" class="edge"><title>Node2&#45;&gt;Node1</title>
<path fill="none" stroke="#9a32cd" stroke-dasharray="5,2" d="M33,-68.2239C33,-52.6974 33,-31.3582 33,-19.6165"/>
<polygon fill="#9a32cd" stroke="#9a32cd" points="29.5001,-68.2818 33,-78.2818 36.5001,-68.2819 29.5001,-68.2818"/>
<text text-anchor="middle" x="54.5" y="-52" font-family="Helvetica,sans-Serif" font-size="10.00"> response</text>
<text text-anchor="middle" x="54.5" y="-41" font-family="Helvetica,sans-Serif" font-size="10.00">request</text>
</g>
<!-- Node3 -->
<g id="node4" class="node"><title>Node3</title>
<a xlink:href="structeaptype__t.html" target="_top" xlink:title="eaptype_t">
<polygon fill="none" stroke="black" points="3.5,-146.5 3.5,-165.5 62.5,-165.5 62.5,-146.5 3.5,-146.5"/>
<text text-anchor="middle" x="33" y="-153.5" font-family="Helvetica,sans-Serif" font-size="10.00">eaptype_t</text>
</a>
</g>
<!-- Node3&#45;&gt;Node2 -->
<g id="edge4" class="edge"><title>Node3&#45;&gt;Node2</title>
<path fill="none" stroke="#9a32cd" stroke-dasharray="5,2" d="M33,-136.041C33,-123.472 33,-107.563 33,-97.8411"/>
<polygon fill="#9a32cd" stroke="#9a32cd" points="29.5001,-136.372 33,-146.372 36.5001,-136.372 29.5001,-136.372"/>
<text text-anchor="middle" x="44" y="-119.5" font-family="Helvetica,sans-Serif" font-size="10.00"> type</text>
</g>
</g>
</svg>
