<?xml version="1.0" encoding="UTF-8" standalone="no"?>
<!DOCTYPE svg PUBLIC "-//W3C//DTD SVG 1.1//EN"
 "http://www.w3.org/Graphics/SVG/1.1/DTD/svg11.dtd">
<!-- Generated by graphviz version 2.28.0 (20111211.2114)
 -->
<!-- Title: G Pages: 1 -->
<!--zoomable-->
<svg id="main" version="1.1" xmlns="http://www.w3.org/2000/svg" xmlns:xlink="http://www.w3.org/1999/xlink" xml:space="preserve" onload="init(evt)">
        <defs>
                <circle id="rim" cx="0" cy="0" r="7"/>
                <circle id="rim2" cx="0" cy="0" r="3.5"/>
                <g id="zoomPlus">
                        <use xlink:href="#rim" fill="#404040">
                                <set attributeName="fill" to="#808080" begin="zoomplus.mouseover" end="zoomplus.mouseout"/>
                        </use>
                        <path d="M-4,0h8M0,-4v8" fill="none" stroke="white" stroke-width="1.5" pointer-events="none"/>
                </g>
                <g id="zoomMin">
                        <use xlink:href="#rim" fill="#404040">
                                <set attributeName="fill" to="#808080" begin="zoomminus.mouseover" end="zoomminus.mouseout"/>
                        </use>
                        <path d="M-4,0h8" fill="none" stroke="white" stroke-width="1.5" pointer-events="none"/>
                </g>
                <g id="dirArrow">
                        <path fill="none" stroke="white" stroke-width="1.5" d="M0,-3.0v7 M-2.5,-0.5L0,-3.0L2.5,-0.5"/>
                </g>
               <g id="resetDef">
                       <use xlink:href="#rim2" fill="#404040">
                               <set attributeName="fill" to="#808080" begin="reset.mouseover" end="reset.mouseout"/>
                       </use>
               </g>
        </defs>

<script type="text/javascript">
var viewWidth = 1368;
var viewHeight = 808;
var sectionId = 'dynsection-0';
</script>
<script xlink:href="svgpan.js"/>
<svg id="graph" class="graph">
<g id="viewport">
<title>G</title>
<!-- Node1 -->
<g id="node1" class="node"><title>Node1</title>
<polygon fill="#bfbfbf" stroke="black" points="1110.5,-181.5 1110.5,-200.5 1201.5,-200.5 1201.5,-181.5 1110.5,-181.5"/>
<text text-anchor="middle" x="1156" y="-188.5" font-family="Helvetica,sans-Serif" font-size="10.00">EAP_HANDLER</text>
</g>
<!-- Node1&#45;&gt;Node1 -->
<g id="edge92" class="edge"><title>Node1&#45;&gt;Node1</title>
<path fill="none" stroke="#9a32cd" stroke-dasharray="5,2" d="M1139.7,-210.4C1140.79,-215.315 1146.22,-219 1156,-219 1171.64,-219 1176.16,-209.565 1169.56,-200.757"/>
<polygon fill="#9a32cd" stroke="#9a32cd" points="1143.08,-211.332 1142.44,-200.757 1136.34,-209.424 1143.08,-211.332"/>
<text text-anchor="middle" x="1156" y="-233" font-family="Helvetica,sans-Serif" font-size="10.00"> prev</text>
<text text-anchor="middle" x="1156" y="-222" font-family="Helvetica,sans-Serif" font-size="10.00">next</text>
</g>
<!-- Node23 -->
<g id="node69" class="node"><title>Node23</title>
<a xlink:href="structrlm__eap__t.html" target="_top" xlink:title="rlm_eap_t">
<polygon fill="none" stroke="black" points="1300.5,-76.5 1300.5,-95.5 1359.5,-95.5 1359.5,-76.5 1300.5,-76.5"/>
<text text-anchor="middle" x="1330" y="-83.5" font-family="Helvetica,sans-Serif" font-size="10.00">rlm_eap_t</text>
</a>
</g>
<!-- Node1&#45;&gt;Node23 -->
<g id="edge102" class="edge"><title>Node1&#45;&gt;Node23</title>
<path fill="none" stroke="#9a32cd" stroke-dasharray="5,2" d="M1211.91,-186.491C1235.24,-182.386 1261.69,-174.624 1282,-160 1305.1,-143.371 1319.53,-111.55 1325.63,-95.6055"/>
<polygon fill="#9a32cd" stroke="#9a32cd" points="1211.12,-183.072 1201.78,-188.083 1212.21,-189.987 1211.12,-183.072"/>
<text text-anchor="middle" x="1251" y="-199" font-family="Helvetica,sans-Serif" font-size="10.00"> session_tail</text>
<text text-anchor="middle" x="1251" y="-188" font-family="Helvetica,sans-Serif" font-size="10.00">session_head</text>
</g>
<!-- Node2 -->
<g id="node2" class="node"><title>Node2</title>
<a xlink:href="structeap__server__ctx.html" target="_top" xlink:title="eap_server_ctx">
<polygon fill="none" stroke="black" points="940.5,-521.5 940.5,-540.5 1023.5,-540.5 1023.5,-521.5 940.5,-521.5"/>
<text text-anchor="middle" x="982" y="-528.5" font-family="Helvetica,sans-Serif" font-size="10.00">eap_server_ctx</text>
</a>
</g>
<!-- Node2&#45;&gt;Node1 -->
<g id="edge2" class="edge"><title>Node2&#45;&gt;Node1</title>
<path fill="none" stroke="#9a32cd" stroke-dasharray="5,2" d="M1019.46,-516.012C1021.08,-514.768 1022.6,-513.432 1024,-512 1117.92,-415.683 1147.7,-242.875 1153.74,-200.55"/>
<polygon fill="#9a32cd" stroke="#9a32cd" points="1017.4,-513.176 1010.83,-521.489 1021.15,-519.086 1017.4,-513.176"/>
<text text-anchor="middle" x="1067" y="-494" font-family="Helvetica,sans-Serif" font-size="10.00"> server_ctx</text>
</g>
<!-- Node3 -->
<g id="node4" class="node"><title>Node3</title>
<a xlink:href="structauth__req.html" target="_top" xlink:title="auth_req">
<polygon fill="none" stroke="black" points="955,-410.5 955,-429.5 1009,-429.5 1009,-410.5 955,-410.5"/>
<text text-anchor="middle" x="982" y="-417.5" font-family="Helvetica,sans-Serif" font-size="10.00">auth_req</text>
</a>
</g>
<!-- Node3&#45;&gt;Node1 -->
<g id="edge4" class="edge"><title>Node3&#45;&gt;Node1</title>
<path fill="none" stroke="#9a32cd" stroke-dasharray="5,2" d="M996.244,-402.367C1030.56,-356.677 1121.52,-235.574 1147.8,-200.589"/>
<polygon fill="#9a32cd" stroke="#9a32cd" points="993.379,-400.354 990.172,-410.452 998.976,-404.558 993.379,-400.354"/>
<text text-anchor="middle" x="1067" y="-343" font-family="Helvetica,sans-Serif" font-size="10.00"> request</text>
</g>
<!-- Node3&#45;&gt;Node3 -->
<g id="edge78" class="edge"><title>Node3&#45;&gt;Node3</title>
<path fill="none" stroke="#9a32cd" stroke-dasharray="5,2" d="M968.372,-439.766C969.443,-444.497 973.985,-448 982,-448 995.152,-448 998.954,-438.565 993.406,-429.757"/>
<polygon fill="#9a32cd" stroke="#9a32cd" points="971.844,-440.278 970.594,-429.757 965.01,-438.761 971.844,-440.278"/>
<text text-anchor="middle" x="982" y="-495" font-family="Helvetica,sans-Serif" font-size="10.00"> coa</text>
<text text-anchor="middle" x="982" y="-484" font-family="Helvetica,sans-Serif" font-size="10.00">radlog</text>
<text text-anchor="middle" x="982" y="-473" font-family="Helvetica,sans-Serif" font-size="10.00">handle</text>
<text text-anchor="middle" x="982" y="-462" font-family="Helvetica,sans-Serif" font-size="10.00">parent</text>
<text text-anchor="middle" x="982" y="-451" font-family="Helvetica,sans-Serif" font-size="10.00">process</text>
</g>
<!-- Node4 -->
<g id="node6" class="node"><title>Node4</title>
<a xlink:href="structradclient.html" target="_top" xlink:title="radclient">
<polygon fill="none" stroke="black" points="808.5,-484.5 808.5,-503.5 861.5,-503.5 861.5,-484.5 808.5,-484.5"/>
<text text-anchor="middle" x="835" y="-491.5" font-family="Helvetica,sans-Serif" font-size="10.00">radclient</text>
</a>
</g>
<!-- Node4&#45;&gt;Node3 -->
<g id="edge6" class="edge"><title>Node4&#45;&gt;Node3</title>
<path fill="none" stroke="#9a32cd" stroke-dasharray="5,2" d="M863.789,-479.818C892.603,-465.113 936.875,-442.519 961.952,-429.721"/>
<polygon fill="#9a32cd" stroke="#9a32cd" points="861.975,-476.814 854.659,-484.477 865.158,-483.049 861.975,-476.814"/>
<text text-anchor="middle" x="908" y="-467" font-family="Helvetica,sans-Serif" font-size="10.00"> client</text>
</g>
<!-- Node5 -->
<g id="node8" class="node"><title>Node5</title>
<a xlink:href="structhome__pool__t.html" target="_top" xlink:title="home_pool_t">
<polygon fill="none" stroke="black" points="621,-484.5 621,-503.5 693,-503.5 693,-484.5 621,-484.5"/>
<text text-anchor="middle" x="657" y="-491.5" font-family="Helvetica,sans-Serif" font-size="10.00">home_pool_t</text>
</a>
</g>
<!-- Node5&#45;&gt;Node3 -->
<g id="edge80" class="edge"><title>Node5&#45;&gt;Node3</title>
<path fill="none" stroke="#9a32cd" stroke-dasharray="5,2" d="M703.243,-483.635C771.739,-467.942 899.598,-438.649 954.663,-426.034"/>
<polygon fill="#9a32cd" stroke="#9a32cd" points="702.147,-480.295 693.182,-485.94 703.711,-487.118 702.147,-480.295"/>
<text text-anchor="middle" x="835" y="-465" font-family="Helvetica,sans-Serif" font-size="10.00"> home_pool</text>
</g>
<!-- Node5&#45;&gt;Node4 -->
<g id="edge8" class="edge"><title>Node5&#45;&gt;Node4</title>
<path fill="none" stroke="#9a32cd" stroke-dasharray="5,2" d="M703.599,-494C736.909,-494 780.869,-494 808.284,-494"/>
<polygon fill="#9a32cd" stroke="#9a32cd" points="703.193,-490.5 693.193,-494 703.193,-497.5 703.193,-490.5"/>
<text text-anchor="middle" x="745" y="-497" font-family="Helvetica,sans-Serif" font-size="10.00"> coa_pool</text>
</g>
<!-- Node6 -->
<g id="node10" class="node"><title>Node6</title>
<a xlink:href="structhome__server.html" target="_top" xlink:title="home_server">
<polygon fill="none" stroke="black" points="470.5,-683.5 470.5,-702.5 543.5,-702.5 543.5,-683.5 470.5,-683.5"/>
<text text-anchor="middle" x="507" y="-690.5" font-family="Helvetica,sans-Serif" font-size="10.00">home_server</text>
</a>
</g>
<!-- Node6&#45;&gt;Node3 -->
<g id="edge82" class="edge"><title>Node6&#45;&gt;Node3</title>
<path fill="none" stroke="#9a32cd" stroke-dasharray="5,2" d="M535.635,-706.646C543.912,-710.072 553.146,-713.266 562,-715 578.574,-718.247 583.36,-717.888 600,-715 731.27,-692.214 765.976,-673.139 876,-598 898.134,-582.884 906.499,-580.867 922,-559 934.936,-540.751 931.444,-532.668 940,-512 952.574,-481.625 968.792,-446.247 976.52,-429.596"/>
<polygon fill="#9a32cd" stroke="#9a32cd" points="537.002,-703.424 526.44,-702.591 534.177,-709.828 537.002,-703.424"/>
<text text-anchor="middle" x="745" y="-691" font-family="Helvetica,sans-Serif" font-size="10.00"> home_server</text>
</g>
<!-- Node6&#45;&gt;Node4 -->
<g id="edge42" class="edge"><title>Node6&#45;&gt;Node4</title>
<path fill="none" stroke="#9a32cd" stroke-dasharray="5,2" d="M541.205,-679.63C548.047,-677.005 555.229,-674.341 562,-672 585.486,-663.88 759.381,-625.475 776,-607 804.447,-575.375 767.978,-546.649 794,-513 797.668,-508.256 802.815,-504.639 808.198,-501.903"/>
<polygon fill="#9a32cd" stroke="#9a32cd" points="539.559,-676.515 531.513,-683.408 542.102,-683.037 539.559,-676.515"/>
<text text-anchor="middle" x="657" y="-660" font-family="Helvetica,sans-Serif" font-size="10.00"> coa_server</text>
</g>
<!-- Node6&#45;&gt;Node5 -->
<g id="edge10" class="edge"><title>Node6&#45;&gt;Node5</title>
<path fill="none" stroke="#9a32cd" stroke-dasharray="5,2" d="M520.712,-674.992C528.097,-664.043 537.247,-649.594 544,-636 554.136,-615.595 549.665,-607.156 562,-588 584.99,-552.296 623.493,-519.356 643.332,-503.651"/>
<polygon fill="#9a32cd" stroke="#9a32cd" points="517.801,-673.048 515.015,-683.27 523.567,-677.017 517.801,-673.048"/>
<text text-anchor="middle" x="581" y="-602" font-family="Helvetica,sans-Serif" font-size="10.00"> fallback</text>
<text text-anchor="middle" x="581" y="-591" font-family="Helvetica,sans-Serif" font-size="10.00">servers</text>
</g>
<!-- Node7 -->
<g id="node12" class="node"><title>Node7</title>
<a xlink:href="structconf__part.html" target="_top" xlink:title="conf_part">
<polygon fill="none" stroke="black" points="314.5,-483.5 314.5,-502.5 371.5,-502.5 371.5,-483.5 314.5,-483.5"/>
<text text-anchor="middle" x="343" y="-490.5" font-family="Helvetica,sans-Serif" font-size="10.00">conf_part</text>
</a>
</g>
<!-- Node7&#45;&gt;Node4 -->
<g id="edge46" class="edge"><title>Node7&#45;&gt;Node4</title>
<path fill="none" stroke="#9a32cd" stroke-dasharray="5,2" d="M353.548,-511.758C371.312,-544.299 412.884,-610.201 470,-636 499.973,-649.538 511.885,-643.092 544,-636 570.795,-630.083 575.281,-621.915 600,-610 686.838,-568.143 707.347,-555.238 794,-513 800.358,-509.901 807.312,-506.575 813.613,-503.587"/>
<polygon fill="#9a32cd" stroke="#9a32cd" points="356.583,-510.01 348.809,-502.812 350.397,-513.287 356.583,-510.01"/>
<text text-anchor="middle" x="581" y="-633" font-family="Helvetica,sans-Serif" font-size="10.00"> cs</text>
</g>
<!-- Node7&#45;&gt;Node5 -->
<g id="edge40" class="edge"><title>Node7&#45;&gt;Node5</title>
<path fill="none" stroke="#9a32cd" stroke-dasharray="5,2" d="M381.857,-498.668C389.814,-499.64 398.168,-500.497 406,-501 446.622,-503.61 561.85,-498.642 620.606,-495.796"/>
<polygon fill="#9a32cd" stroke="#9a32cd" points="382.072,-495.167 371.704,-497.346 381.168,-502.108 382.072,-495.167"/>
<text text-anchor="middle" x="507" y="-504" font-family="Helvetica,sans-Serif" font-size="10.00"> cs</text>
</g>
<!-- Node7&#45;&gt;Node6 -->
<g id="edge12" class="edge"><title>Node7&#45;&gt;Node6</title>
<path fill="none" stroke="#9a32cd" stroke-dasharray="5,2" d="M349.377,-512.357C357.811,-540.01 376.32,-591.308 406,-626 428.28,-652.042 463.054,-672.214 485.17,-683.35"/>
<polygon fill="#9a32cd" stroke="#9a32cd" points="352.716,-511.304 346.549,-502.688 345.997,-513.269 352.716,-511.304"/>
<text text-anchor="middle" x="429" y="-666" font-family="Helvetica,sans-Serif" font-size="10.00"> cs</text>
</g>
<!-- Node7&#45;&gt;Node7 -->
<g id="edge14" class="edge"><title>Node7&#45;&gt;Node7</title>
<path fill="none" stroke="#9a32cd" stroke-dasharray="5,2" d="M327.075,-512.4C328.138,-517.315 333.447,-521 343,-521 358.285,-521 362.704,-511.565 356.255,-502.757"/>
<polygon fill="#9a32cd" stroke="#9a32cd" points="330.449,-513.328 329.745,-502.757 323.703,-511.46 330.449,-513.328"/>
<text text-anchor="middle" x="343" y="-524" font-family="Helvetica,sans-Serif" font-size="10.00"> template</text>
</g>
<!-- Node8 -->
<g id="node15" class="node"><title>Node8</title>
<a xlink:href="structconf__item.html" target="_top" xlink:title="conf_item">
<polygon fill="none" stroke="black" points="477.5,-409.5 477.5,-428.5 536.5,-428.5 536.5,-409.5 477.5,-409.5"/>
<text text-anchor="middle" x="507" y="-416.5" font-family="Helvetica,sans-Serif" font-size="10.00">conf_item</text>
</a>
</g>
<!-- Node7&#45;&gt;Node8 -->
<g id="edge18" class="edge"><title>Node7&#45;&gt;Node8</title>
<path fill="none" stroke="#9a32cd" stroke-dasharray="5,2" d="M381.714,-490.547C403.298,-487.896 430.309,-482.396 452,-471 471.817,-460.588 489.382,-440.694 498.774,-428.759"/>
<polygon fill="#9a32cd" stroke="#9a32cd" points="381.171,-487.085 371.602,-491.632 381.919,-494.045 381.171,-487.085"/>
<text text-anchor="middle" x="429" y="-489" font-family="Helvetica,sans-Serif" font-size="10.00"> parent</text>
</g>
<!-- Node16 -->
<g id="node40" class="node"><title>Node16</title>
<a xlink:href="structmain__config__t.html" target="_top" xlink:title="main_config_t">
<polygon fill="none" stroke="black" points="618.5,-369.5 618.5,-388.5 695.5,-388.5 695.5,-369.5 618.5,-369.5"/>
<text text-anchor="middle" x="657" y="-376.5" font-family="Helvetica,sans-Serif" font-size="10.00">main_config_t</text>
</a>
</g>
<!-- Node7&#45;&gt;Node16 -->
<g id="edge58" class="edge"><title>Node7&#45;&gt;Node16</title>
<path fill="none" stroke="#9a32cd" stroke-dasharray="5,2" d="M348.639,-473.787C355.972,-448.143 372.933,-403.679 406,-384 440.787,-363.298 557.572,-370.106 618.419,-375.328"/>
<polygon fill="#9a32cd" stroke="#9a32cd" points="345.244,-472.936 346.068,-483.498 352.011,-474.728 345.244,-472.936"/>
<text text-anchor="middle" x="507" y="-374" font-family="Helvetica,sans-Serif" font-size="10.00"> config</text>
</g>
<!-- Node17 -->
<g id="node42" class="node"><title>Node17</title>
<a xlink:href="structrad__listen__t.html" target="_top" xlink:title="rad_listen_t">
<polygon fill="none" stroke="black" points="473.5,-523.5 473.5,-542.5 540.5,-542.5 540.5,-523.5 473.5,-523.5"/>
<text text-anchor="middle" x="507" y="-530.5" font-family="Helvetica,sans-Serif" font-size="10.00">rad_listen_t</text>
</a>
</g>
<!-- Node7&#45;&gt;Node17 -->
<g id="edge56" class="edge"><title>Node7&#45;&gt;Node17</title>
<path fill="none" stroke="#9a32cd" stroke-dasharray="5,2" d="M364.365,-508.764C375.904,-516.732 390.999,-525.621 406,-530 427.842,-536.376 453.515,-537.012 473.38,-536.113"/>
<polygon fill="#9a32cd" stroke="#9a32cd" points="366.097,-505.698 355.943,-502.675 361.996,-511.371 366.097,-505.698"/>
<text text-anchor="middle" x="429" y="-539" font-family="Helvetica,sans-Serif" font-size="10.00"> cs</text>
</g>
<!-- Node24 -->
<g id="node71" class="node"><title>Node24</title>
<a xlink:href="structeap__types__t.html" target="_top" xlink:title="eap_types_t">
<polygon fill="none" stroke="black" points="472,-38.5 472,-57.5 542,-57.5 542,-38.5 472,-38.5"/>
<text text-anchor="middle" x="507" y="-45.5" font-family="Helvetica,sans-Serif" font-size="10.00">eap_types_t</text>
</a>
</g>
<!-- Node7&#45;&gt;Node24 -->
<g id="edge98" class="edge"><title>Node7&#45;&gt;Node24</title>
<path fill="none" stroke="#9a32cd" stroke-dasharray="5,2" d="M348.531,-473.352C362.314,-415.26 406.69,-239.95 470,-105 478.252,-87.4104 490.939,-68.6655 498.84,-57.6594"/>
<polygon fill="#9a32cd" stroke="#9a32cd" points="345.06,-472.826 346.186,-483.36 351.875,-474.423 345.06,-472.826"/>
<text text-anchor="middle" x="429" y="-265" font-family="Helvetica,sans-Serif" font-size="10.00"> cs</text>
</g>
<!-- Node8&#45;&gt;Node7 -->
<g id="edge16" class="edge"><title>Node8&#45;&gt;Node7</title>
<path fill="none" stroke="#9a32cd" stroke-dasharray="5,2" d="M483.66,-404.151C462.561,-392.152 430.576,-379.321 406,-393 370.481,-412.77 352.719,-462.23 346.57,-483.275"/>
<polygon fill="#9a32cd" stroke="#9a32cd" points="481.882,-407.165 492.252,-409.334 485.498,-401.171 481.882,-407.165"/>
<text text-anchor="middle" x="429" y="-418" font-family="Helvetica,sans-Serif" font-size="10.00"> tail</text>
<text text-anchor="middle" x="429" y="-407" font-family="Helvetica,sans-Serif" font-size="10.00">item</text>
<text text-anchor="middle" x="429" y="-396" font-family="Helvetica,sans-Serif" font-size="10.00">children</text>
</g>
<!-- Node8&#45;&gt;Node8 -->
<g id="edge20" class="edge"><title>Node8&#45;&gt;Node8</title>
<path fill="none" stroke="#9a32cd" stroke-dasharray="5,2" d="M493.372,-438.766C494.443,-443.497 498.985,-447 507,-447 520.152,-447 523.954,-437.565 518.406,-428.757"/>
<polygon fill="#9a32cd" stroke="#9a32cd" points="496.844,-439.278 495.594,-428.757 490.01,-437.761 496.844,-439.278"/>
<text text-anchor="middle" x="507" y="-450" font-family="Helvetica,sans-Serif" font-size="10.00"> next</text>
</g>
<!-- Node9 -->
<g id="node19" class="node"><title>Node9</title>
<a xlink:href="structCONF__PARSER.html" target="_top" xlink:title="CONF_PARSER">
<polygon fill="none" stroke="black" points="116,-483.5 116,-502.5 208,-502.5 208,-483.5 116,-483.5"/>
<text text-anchor="middle" x="162" y="-490.5" font-family="Helvetica,sans-Serif" font-size="10.00">CONF_PARSER</text>
</a>
</g>
<!-- Node9&#45;&gt;Node7 -->
<g id="edge22" class="edge"><title>Node9&#45;&gt;Node7</title>
<path fill="none" stroke="#9a32cd" stroke-dasharray="5,2" d="M218.261,-493C250.16,-493 288.893,-493 314.43,-493"/>
<polygon fill="#9a32cd" stroke="#9a32cd" points="218.169,-489.5 208.169,-493 218.169,-496.5 218.169,-489.5"/>
<text text-anchor="middle" x="253" y="-496" font-family="Helvetica,sans-Serif" font-size="10.00"> variables</text>
</g>
<!-- Node10 -->
<g id="node21" class="node"><title>Node10</title>
<a xlink:href="structrbtree__t.html" target="_top" xlink:title="rbtree_t">
<polygon fill="none" stroke="black" points="137,-87.5 137,-106.5 187,-106.5 187,-87.5 137,-87.5"/>
<text text-anchor="middle" x="162" y="-94.5" font-family="Helvetica,sans-Serif" font-size="10.00">rbtree_t</text>
</a>
</g>
<!-- Node10&#45;&gt;Node7 -->
<g id="edge24" class="edge"><title>Node10&#45;&gt;Node7</title>
<path fill="none" stroke="#9a32cd" stroke-dasharray="5,2" d="M171.709,-116.266C203.695,-187.029 314.051,-431.17 337.57,-483.199"/>
<polygon fill="#9a32cd" stroke="#9a32cd" points="174.733,-114.459 167.425,-106.789 168.354,-117.343 174.733,-114.459"/>
<text text-anchor="middle" x="253" y="-390" font-family="Helvetica,sans-Serif" font-size="10.00"> data_tree</text>
<text text-anchor="middle" x="253" y="-379" font-family="Helvetica,sans-Serif" font-size="10.00">name2_tree</text>
<text text-anchor="middle" x="253" y="-368" font-family="Helvetica,sans-Serif" font-size="10.00">section_tree</text>
<text text-anchor="middle" x="253" y="-357" font-family="Helvetica,sans-Serif" font-size="10.00">pair_tree</text>
</g>
<!-- Node10&#45;&gt;Node23 -->
<g id="edge106" class="edge"><title>Node10&#45;&gt;Node23</title>
<path fill="none" stroke="#9a32cd" stroke-dasharray="5,2" d="M196.969,-93.6676C232.945,-90.4302 291.417,-86 342,-86 342,-86 342,-86 1157,-86 1207.47,-86 1266.26,-86 1300.39,-86"/>
<polygon fill="#9a32cd" stroke="#9a32cd" points="196.639,-90.1831 187.002,-94.586 197.281,-97.1536 196.639,-90.1831"/>
<text text-anchor="middle" x="745" y="-100" font-family="Helvetica,sans-Serif" font-size="10.00"> session_tree</text>
<text text-anchor="middle" x="745" y="-89" font-family="Helvetica,sans-Serif" font-size="10.00">handler_tree</text>
</g>
<!-- Node11 -->
<g id="node23" class="node"><title>Node11</title>
<a xlink:href="structrbnode__t.html" target="_top" xlink:title="rbnode_t">
<polygon fill="none" stroke="black" points="0,-87.5 0,-106.5 54,-106.5 54,-87.5 0,-87.5"/>
<text text-anchor="middle" x="27" y="-94.5" font-family="Helvetica,sans-Serif" font-size="10.00">rbnode_t</text>
</a>
</g>
<!-- Node11&#45;&gt;Node10 -->
<g id="edge26" class="edge"><title>Node11&#45;&gt;Node10</title>
<path fill="none" stroke="#9a32cd" stroke-dasharray="5,2" d="M64.3432,-97C87.3013,-97 116.343,-97 136.572,-97"/>
<polygon fill="#9a32cd" stroke="#9a32cd" points="64.2766,-93.5001 54.2765,-97 64.2765,-100.5 64.2766,-93.5001"/>
<text text-anchor="middle" x="85" y="-100" font-family="Helvetica,sans-Serif" font-size="10.00"> Root</text>
</g>
<!-- Node11&#45;&gt;Node11 -->
<g id="edge28" class="edge"><title>Node11&#45;&gt;Node11</title>
<path fill="none" stroke="#9a32cd" stroke-dasharray="5,2" d="M16.3189,-116.766C17.1578,-121.497 20.7182,-125 27,-125 37.3086,-125 40.2884,-115.565 35.9395,-106.757"/>
<polygon fill="#9a32cd" stroke="#9a32cd" points="19.7944,-117.209 18.0605,-106.757 12.898,-116.009 19.7944,-117.209"/>
<text text-anchor="middle" x="27" y="-150" font-family="Helvetica,sans-Serif" font-size="10.00"> Left</text>
<text text-anchor="middle" x="27" y="-139" font-family="Helvetica,sans-Serif" font-size="10.00">Right</text>
<text text-anchor="middle" x="27" y="-128" font-family="Helvetica,sans-Serif" font-size="10.00">Parent</text>
</g>
<!-- Node12 -->
<g id="node26" class="node"><title>Node12</title>
<a xlink:href="structfr__socket__limit__t.html" target="_top" xlink:title="fr_socket_limit_t">
<polygon fill="none" stroke="black" points="298.5,-686.5 298.5,-705.5 387.5,-705.5 387.5,-686.5 298.5,-686.5"/>
<text text-anchor="middle" x="343" y="-693.5" font-family="Helvetica,sans-Serif" font-size="10.00">fr_socket_limit_t</text>
</a>
</g>
<!-- Node12&#45;&gt;Node4 -->
<g id="edge44" class="edge"><title>Node12&#45;&gt;Node4</title>
<path fill="none" stroke="#9a32cd" stroke-dasharray="5,2" d="M366.751,-711.068C378.049,-717.662 392.206,-724.65 406,-728 425.867,-732.825 431.631,-729.758 452,-728 562.852,-718.433 595.639,-720.034 696,-672 735.85,-652.927 752.656,-650.508 776,-613 799.862,-574.661 766.573,-548.876 794,-513 797.642,-508.236 802.778,-504.611 808.16,-501.874"/>
<polygon fill="#9a32cd" stroke="#9a32cd" points="368.361,-707.949 358.005,-705.71 364.704,-713.918 368.361,-707.949"/>
<text text-anchor="middle" x="581" y="-719" font-family="Helvetica,sans-Serif" font-size="10.00"> limit</text>
</g>
<!-- Node12&#45;&gt;Node6 -->
<g id="edge30" class="edge"><title>Node12&#45;&gt;Node6</title>
<path fill="none" stroke="#9a32cd" stroke-dasharray="5,2" d="M393.37,-684.695C397.625,-684.011 401.877,-683.428 406,-683 426.335,-680.891 431.641,-681.131 452,-683 457.982,-683.549 464.289,-684.434 470.401,-685.455"/>
<polygon fill="#9a32cd" stroke="#9a32cd" points="392.732,-681.254 383.498,-686.448 393.956,-688.146 392.732,-681.254"/>
<text text-anchor="middle" x="429" y="-686" font-family="Helvetica,sans-Serif" font-size="10.00"> limit</text>
</g>
<!-- Node13 -->
<g id="node28" class="node"><title>Node13</title>
<a xlink:href="structfr__event__t.html" target="_top" xlink:title="fr_event_t">
<polygon fill="none" stroke="black" points="313,-751.5 313,-770.5 373,-770.5 373,-751.5 313,-751.5"/>
<text text-anchor="middle" x="343" y="-758.5" font-family="Helvetica,sans-Serif" font-size="10.00">fr_event_t</text>
</a>
</g>
<!-- Node13&#45;&gt;Node3 -->
<g id="edge86" class="edge"><title>Node13&#45;&gt;Node3</title>
<path fill="none" stroke="#9a32cd" stroke-dasharray="5,2" d="M383.275,-766.302C416.032,-770.265 463.97,-775 506,-775 506,-775 506,-775 836,-775 961.696,-775 899.397,-630.958 940,-512 950.563,-481.053 967.571,-446.228 975.972,-429.703"/>
<polygon fill="#9a32cd" stroke="#9a32cd" points="383.556,-762.81 373.2,-765.049 382.692,-769.756 383.556,-762.81"/>
<text text-anchor="middle" x="657" y="-778" font-family="Helvetica,sans-Serif" font-size="10.00"> ev</text>
</g>
<!-- Node13&#45;&gt;Node6 -->
<g id="edge32" class="edge"><title>Node13&#45;&gt;Node6</title>
<path fill="none" stroke="#9a32cd" stroke-dasharray="5,2" d="M376.139,-747.509C407.787,-734.225 455.323,-714.272 483.249,-702.55"/>
<polygon fill="#9a32cd" stroke="#9a32cd" points="374.733,-744.304 366.867,-751.401 377.442,-750.758 374.733,-744.304"/>
<text text-anchor="middle" x="429" y="-736" font-family="Helvetica,sans-Serif" font-size="10.00"> ev</text>
</g>
<!-- Node13&#45;&gt;Node13 -->
<g id="edge34" class="edge"><title>Node13&#45;&gt;Node13</title>
<path fill="none" stroke="#9a32cd" stroke-dasharray="5,2" d="M327.075,-780.4C328.138,-785.315 333.447,-789 343,-789 358.285,-789 362.704,-779.565 356.255,-770.757"/>
<polygon fill="#9a32cd" stroke="#9a32cd" points="330.449,-781.328 329.745,-770.757 323.703,-779.46 330.449,-781.328"/>
<text text-anchor="middle" x="343" y="-792" font-family="Helvetica,sans-Serif" font-size="10.00"> ev_p</text>
</g>
<!-- Node14 -->
<g id="node31" class="node"><title>Node14</title>
<a xlink:href="structfr__ipaddr__t.html" target="_top" xlink:title="fr_ipaddr_t">
<polygon fill="none" stroke="black" points="312,-256.5 312,-275.5 374,-275.5 374,-256.5 312,-256.5"/>
<text text-anchor="middle" x="343" y="-263.5" font-family="Helvetica,sans-Serif" font-size="10.00">fr_ipaddr_t</text>
</a>
</g>
<!-- Node14&#45;&gt;Node1 -->
<g id="edge108" class="edge"><title>Node14&#45;&gt;Node1</title>
<path fill="none" stroke="#9a32cd" stroke-dasharray="5,2" d="M363.88,-249.888C393.145,-227.847 450.387,-191 506,-191 506,-191 506,-191 983,-191 1026.3,-191 1075.73,-191 1110.45,-191"/>
<polygon fill="#9a32cd" stroke="#9a32cd" points="361.496,-247.307 355.729,-256.195 365.78,-252.843 361.496,-247.307"/>
<text text-anchor="middle" x="745" y="-194" font-family="Helvetica,sans-Serif" font-size="10.00"> src_ipaddr</text>
</g>
<!-- Node14&#45;&gt;Node4 -->
<g id="edge48" class="edge"><title>Node14&#45;&gt;Node4</title>
<path fill="none" stroke="#9a32cd" stroke-dasharray="5,2" d="M371.967,-280.199C397.053,-292.394 435.17,-309.605 470,-320 567.745,-349.172 607.699,-308.93 696,-360 754.718,-393.96 739.5,-436.616 794,-477 798.365,-480.234 803.439,-482.994 808.477,-485.291"/>
<polygon fill="#9a32cd" stroke="#9a32cd" points="373.222,-276.915 362.704,-275.635 370.128,-283.194 373.222,-276.915"/>
<text text-anchor="middle" x="581" y="-335" font-family="Helvetica,sans-Serif" font-size="10.00"> ipaddr</text>
</g>
<!-- Node14&#45;&gt;Node6 -->
<g id="edge36" class="edge"><title>Node14&#45;&gt;Node6</title>
<path fill="none" stroke="#9a32cd" stroke-dasharray="5,2" d="M346.517,-286.029C351.725,-319.388 366.683,-386.553 406,-426 421.498,-441.549 438.79,-426.465 452,-444 477.786,-478.228 456.179,-595.436 470,-636 476.191,-654.169 489.224,-672.452 497.792,-683.246"/>
<polygon fill="#9a32cd" stroke="#9a32cd" points="349.927,-285.149 345.058,-275.74 342.997,-286.132 349.927,-285.149"/>
<text text-anchor="middle" x="429" y="-458" font-family="Helvetica,sans-Serif" font-size="10.00"> ipaddr</text>
<text text-anchor="middle" x="429" y="-447" font-family="Helvetica,sans-Serif" font-size="10.00">src_ipaddr</text>
</g>
<!-- Node14&#45;&gt;Node16 -->
<g id="edge60" class="edge"><title>Node14&#45;&gt;Node16</title>
<path fill="none" stroke="#9a32cd" stroke-dasharray="5,2" d="M379.901,-279.003C443.236,-301.941 573.396,-349.083 629.407,-369.369"/>
<polygon fill="#9a32cd" stroke="#9a32cd" points="380.926,-275.652 370.332,-275.537 378.542,-282.233 380.926,-275.652"/>
<text text-anchor="middle" x="507" y="-341" font-family="Helvetica,sans-Serif" font-size="10.00"> myip</text>
</g>
<!-- Node18 -->
<g id="node48" class="node"><title>Node18</title>
<a xlink:href="structradius__packet.html" target="_top" xlink:title="radius_packet">
<polygon fill="none" stroke="black" points="618.5,-227.5 618.5,-246.5 695.5,-246.5 695.5,-227.5 618.5,-227.5"/>
<text text-anchor="middle" x="657" y="-234.5" font-family="Helvetica,sans-Serif" font-size="10.00">radius_packet</text>
</a>
</g>
<!-- Node14&#45;&gt;Node18 -->
<g id="edge74" class="edge"><title>Node14&#45;&gt;Node18</title>
<path fill="none" stroke="#9a32cd" stroke-dasharray="5,2" d="M384.1,-260.777C408.832,-257.667 441.222,-253.795 470,-251 521.248,-246.023 580.587,-241.828 618.198,-239.363"/>
<polygon fill="#9a32cd" stroke="#9a32cd" points="383.481,-257.327 374.001,-262.057 384.362,-264.271 383.481,-257.327"/>
<text text-anchor="middle" x="507" y="-265" font-family="Helvetica,sans-Serif" font-size="10.00"> dst_ipaddr</text>
<text text-anchor="middle" x="507" y="-254" font-family="Helvetica,sans-Serif" font-size="10.00">src_ipaddr</text>
</g>
<!-- Node15 -->
<g id="node33" class="node"><title>Node15</title>
<a xlink:href="structin6__addr.html" target="_top" xlink:title="in6_addr">
<polygon fill="none" stroke="black" points="135.5,-38.5 135.5,-57.5 188.5,-57.5 188.5,-38.5 135.5,-38.5"/>
<text text-anchor="middle" x="162" y="-45.5" font-family="Helvetica,sans-Serif" font-size="10.00">in6_addr</text>
</a>
</g>
<!-- Node15&#45;&gt;Node14 -->
<g id="edge38" class="edge"><title>Node15&#45;&gt;Node14</title>
<path fill="none" stroke="#9a32cd" stroke-dasharray="5,2" d="M189.004,-63.0155C195.565,-67.4091 202.345,-72.5189 208,-78 269.016,-137.139 320.87,-227.258 336.893,-256.489"/>
<polygon fill="#9a32cd" stroke="#9a32cd" points="190.638,-59.9069 180.32,-57.5008 186.885,-65.8162 190.638,-59.9069"/>
<text text-anchor="middle" x="253" y="-164" font-family="Helvetica,sans-Serif" font-size="10.00"> ip6addr</text>
</g>
<!-- Node20 -->
<g id="node52" class="node"><title>Node20</title>
<a xlink:href="unionvalue__pair__data.html" target="_top" xlink:title="value_pair_data">
<polygon fill="none" stroke="black" points="300.5,-38.5 300.5,-57.5 385.5,-57.5 385.5,-38.5 300.5,-38.5"/>
<text text-anchor="middle" x="343" y="-45.5" font-family="Helvetica,sans-Serif" font-size="10.00">value_pair_data</text>
</a>
</g>
<!-- Node15&#45;&gt;Node20 -->
<g id="edge68" class="edge"><title>Node15&#45;&gt;Node20</title>
<path fill="none" stroke="#9a32cd" stroke-dasharray="5,2" d="M195.5,-34.9549C205.156,-31.6868 215.864,-28.6448 226,-27 249.69,-23.1556 256.319,-23.0984 280,-27 293.456,-29.217 307.92,-33.9698 319.491,-38.394"/>
<polygon fill="#9a32cd" stroke="#9a32cd" points="194.124,-31.7299 185.887,-38.3932 196.481,-38.321 194.124,-31.7299"/>
<text text-anchor="middle" x="253" y="-30" font-family="Helvetica,sans-Serif" font-size="10.00"> ipv6addr</text>
</g>
<!-- Node16&#45;&gt;Node3 -->
<g id="edge50" class="edge"><title>Node16&#45;&gt;Node3</title>
<path fill="none" stroke="#9a32cd" stroke-dasharray="5,2" d="M705.95,-377.101C750.375,-376.203 818.124,-377.03 876,-387 904.435,-391.898 935.856,-402.499 956.849,-410.372"/>
<polygon fill="#9a32cd" stroke="#9a32cd" points="705.646,-373.607 695.733,-377.346 705.814,-380.605 705.646,-373.607"/>
<text text-anchor="middle" x="835" y="-390" font-family="Helvetica,sans-Serif" font-size="10.00"> root</text>
</g>
<!-- Node17&#45;&gt;Node3 -->
<g id="edge76" class="edge"><title>Node17&#45;&gt;Node3</title>
<path fill="none" stroke="#9a32cd" stroke-dasharray="5,2" d="M550.51,-544.465C634.858,-566.242 820.068,-608.939 876,-580 907.723,-563.587 960.222,-461.889 976.224,-429.734"/>
<polygon fill="#9a32cd" stroke="#9a32cd" points="551.299,-541.053 540.739,-541.919 549.534,-547.827 551.299,-541.053"/>
<text text-anchor="middle" x="745" y="-601" font-family="Helvetica,sans-Serif" font-size="10.00"> listener</text>
<text text-anchor="middle" x="745" y="-590" font-family="Helvetica,sans-Serif" font-size="10.00">proxy_listener</text>
</g>
<!-- Node17&#45;&gt;Node16 -->
<g id="edge52" class="edge"><title>Node17&#45;&gt;Node16</title>
<path fill="none" stroke="#9a32cd" stroke-dasharray="5,2" d="M532.813,-517.758C536.69,-515.013 540.551,-512.048 544,-509 589.089,-469.148 632.755,-411.247 649.171,-388.593"/>
<polygon fill="#9a32cd" stroke="#9a32cd" points="530.805,-514.89 524.45,-523.368 534.705,-520.704 530.805,-514.89"/>
<text text-anchor="middle" x="581" y="-492" font-family="Helvetica,sans-Serif" font-size="10.00"> listen</text>
</g>
<!-- Node17&#45;&gt;Node17 -->
<g id="edge54" class="edge"><title>Node17&#45;&gt;Node17</title>
<path fill="none" stroke="#9a32cd" stroke-dasharray="5,2" d="M493.372,-552.766C494.443,-557.497 498.985,-561 507,-561 520.152,-561 523.954,-551.565 518.406,-542.757"/>
<polygon fill="#9a32cd" stroke="#9a32cd" points="496.844,-553.278 495.594,-542.757 490.01,-551.761 496.844,-553.278"/>
<text text-anchor="middle" x="507" y="-619" font-family="Helvetica,sans-Serif" font-size="10.00"> next</text>
<text text-anchor="middle" x="507" y="-608" font-family="Helvetica,sans-Serif" font-size="10.00">encode</text>
<text text-anchor="middle" x="507" y="-597" font-family="Helvetica,sans-Serif" font-size="10.00">recv</text>
<text text-anchor="middle" x="507" y="-586" font-family="Helvetica,sans-Serif" font-size="10.00">print</text>
<text text-anchor="middle" x="507" y="-575" font-family="Helvetica,sans-Serif" font-size="10.00">send</text>
<text text-anchor="middle" x="507" y="-564" font-family="Helvetica,sans-Serif" font-size="10.00">decode</text>
</g>
<!-- Node18&#45;&gt;Node3 -->
<g id="edge62" class="edge"><title>Node18&#45;&gt;Node3</title>
<path fill="none" stroke="#9a32cd" stroke-dasharray="5,2" d="M697.237,-249.934C742.249,-265.656 817.385,-294.649 876,-331 914.789,-355.055 954.146,-392.758 971.632,-410.353"/>
<polygon fill="#9a32cd" stroke="#9a32cd" points="698.157,-246.548 687.562,-246.597 695.874,-253.166 698.157,-246.548"/>
<text text-anchor="middle" x="835" y="-367" font-family="Helvetica,sans-Serif" font-size="10.00"> reply</text>
<text text-anchor="middle" x="835" y="-356" font-family="Helvetica,sans-Serif" font-size="10.00">proxy_reply</text>
<text text-anchor="middle" x="835" y="-345" font-family="Helvetica,sans-Serif" font-size="10.00">proxy</text>
<text text-anchor="middle" x="835" y="-334" font-family="Helvetica,sans-Serif" font-size="10.00">packet</text>
</g>
<!-- Node19 -->
<g id="node50" class="node"><title>Node19</title>
<a xlink:href="structvalue__pair.html" target="_top" xlink:title="value_pair">
<polygon fill="none" stroke="black" points="476.5,-114.5 476.5,-133.5 537.5,-133.5 537.5,-114.5 476.5,-114.5"/>
<text text-anchor="middle" x="507" y="-121.5" font-family="Helvetica,sans-Serif" font-size="10.00">value_pair</text>
</a>
</g>
<!-- Node19&#45;&gt;Node3 -->
<g id="edge84" class="edge"><title>Node19&#45;&gt;Node3</title>
<path fill="none" stroke="#9a32cd" stroke-dasharray="5,2" d="M547.573,-115.621C602.485,-106.146 703.236,-96.7054 776,-136 895.317,-200.435 962.316,-368.113 977.607,-410.271"/>
<polygon fill="#9a32cd" stroke="#9a32cd" points="546.761,-112.211 537.547,-117.441 548.011,-119.099 546.761,-112.211"/>
<text text-anchor="middle" x="745" y="-161" font-family="Helvetica,sans-Serif" font-size="10.00"> password</text>
<text text-anchor="middle" x="745" y="-150" font-family="Helvetica,sans-Serif" font-size="10.00">config_items</text>
<text text-anchor="middle" x="745" y="-139" font-family="Helvetica,sans-Serif" font-size="10.00">username</text>
</g>
<!-- Node19&#45;&gt;Node18 -->
<g id="edge64" class="edge"><title>Node19&#45;&gt;Node18</title>
<path fill="none" stroke="#9a32cd" stroke-dasharray="5,2" d="M528.64,-139.759C559.791,-163.543 617.882,-207.897 643.414,-227.39"/>
<polygon fill="#9a32cd" stroke="#9a32cd" points="530.691,-136.921 520.618,-133.634 526.443,-142.485 530.691,-136.921"/>
<text text-anchor="middle" x="581" y="-197" font-family="Helvetica,sans-Serif" font-size="10.00"> vps</text>
</g>
<!-- Node19&#45;&gt;Node19 -->
<g id="edge70" class="edge"><title>Node19&#45;&gt;Node19</title>
<path fill="none" stroke="#9a32cd" stroke-dasharray="5,2" d="M493.372,-143.766C494.443,-148.497 498.985,-152 507,-152 520.152,-152 523.954,-142.565 518.406,-133.757"/>
<polygon fill="#9a32cd" stroke="#9a32cd" points="496.844,-144.278 495.594,-133.757 490.01,-142.761 496.844,-144.278"/>
<text text-anchor="middle" x="507" y="-155" font-family="Helvetica,sans-Serif" font-size="10.00"> next</text>
</g>
<!-- Node20&#45;&gt;Node19 -->
<g id="edge66" class="edge"><title>Node20&#45;&gt;Node19</title>
<path fill="none" stroke="#9a32cd" stroke-dasharray="5,2" d="M373.967,-62.0588C406.479,-77.3113 457.499,-101.246 485.649,-114.453"/>
<polygon fill="#9a32cd" stroke="#9a32cd" points="375.057,-58.7041 364.517,-57.6255 372.084,-65.0413 375.057,-58.7041"/>
<text text-anchor="middle" x="429" y="-101" font-family="Helvetica,sans-Serif" font-size="10.00"> data</text>
</g>
<!-- Node21 -->
<g id="node56" class="node"><title>Node21</title>
<a xlink:href="structattr__flags.html" target="_top" xlink:title="attr_flags">
<polygon fill="none" stroke="black" points="314.5,-114.5 314.5,-133.5 371.5,-133.5 371.5,-114.5 314.5,-114.5"/>
<text text-anchor="middle" x="343" y="-121.5" font-family="Helvetica,sans-Serif" font-size="10.00">attr_flags</text>
</a>
</g>
<!-- Node21&#45;&gt;Node19 -->
<g id="edge72" class="edge"><title>Node21&#45;&gt;Node19</title>
<path fill="none" stroke="#9a32cd" stroke-dasharray="5,2" d="M381.954,-124C410.754,-124 449.787,-124 476.324,-124"/>
<polygon fill="#9a32cd" stroke="#9a32cd" points="381.849,-120.5 371.849,-124 381.849,-127.5 381.849,-120.5"/>
<text text-anchor="middle" x="429" y="-127" font-family="Helvetica,sans-Serif" font-size="10.00"> flags</text>
</g>
<!-- Node22 -->
<g id="node65" class="node"><title>Node22</title>
<a xlink:href="structrequest__data__t.html" target="_top" xlink:title="request_data_t">
<polygon fill="none" stroke="black" points="794.5,-522.5 794.5,-541.5 875.5,-541.5 875.5,-522.5 794.5,-522.5"/>
<text text-anchor="middle" x="835" y="-529.5" font-family="Helvetica,sans-Serif" font-size="10.00">request_data_t</text>
</a>
</g>
<!-- Node22&#45;&gt;Node3 -->
<g id="edge88" class="edge"><title>Node22&#45;&gt;Node3</title>
<path fill="none" stroke="#9a32cd" stroke-dasharray="5,2" d="M867.105,-517.958C870.153,-516.364 873.164,-514.7 876,-513 916.311,-488.837 955.52,-448.249 972.377,-429.735"/>
<polygon fill="#9a32cd" stroke="#9a32cd" points="865.385,-514.904 857.988,-522.489 868.501,-521.172 865.385,-514.904"/>
<text text-anchor="middle" x="908" y="-503" font-family="Helvetica,sans-Serif" font-size="10.00"> data</text>
</g>
<!-- Node22&#45;&gt;Node22 -->
<g id="edge90" class="edge"><title>Node22&#45;&gt;Node22</title>
<path fill="none" stroke="#9a32cd" stroke-dasharray="5,2" d="M821.741,-551.766C822.782,-556.497 827.202,-560 835,-560 847.797,-560 851.496,-550.565 846.097,-541.757"/>
<polygon fill="#9a32cd" stroke="#9a32cd" points="825.212,-552.271 823.903,-541.757 818.37,-550.793 825.212,-552.271"/>
<text text-anchor="middle" x="835" y="-563" font-family="Helvetica,sans-Serif" font-size="10.00"> next</text>
</g>
<!-- Node23&#45;&gt;Node1 -->
<g id="edge94" class="edge"><title>Node23&#45;&gt;Node1</title>
<path fill="none" stroke="#9a32cd" stroke-dasharray="5,2" d="M1302.57,-100.652C1280.32,-113.133 1247.78,-131.738 1220,-149 1202.81,-159.685 1183.5,-172.714 1170.85,-181.399"/>
<polygon fill="#9a32cd" stroke="#9a32cd" points="1304.41,-103.633 1311.43,-95.6994 1300.99,-97.523 1304.41,-103.633"/>
<text text-anchor="middle" x="1251" y="-152" font-family="Helvetica,sans-Serif" font-size="10.00"> inst</text>
</g>
<!-- Node24&#45;&gt;Node23 -->
<g id="edge96" class="edge"><title>Node24&#45;&gt;Node23</title>
<path fill="none" stroke="#9a32cd" stroke-dasharray="5,2" d="M552.443,-48C581.834,-48 621.216,-48 656,-48 656,-48 656,-48 1157,-48 1209.6,-48 1269.16,-65.1538 1302.59,-76.411"/>
<polygon fill="#9a32cd" stroke="#9a32cd" points="552.094,-44.5001 542.094,-48 552.094,-51.5001 552.094,-44.5001"/>
<text text-anchor="middle" x="908" y="-51" font-family="Helvetica,sans-Serif" font-size="10.00"> types</text>
</g>
<!-- Node25 -->
<g id="node74" class="node"><title>Node25</title>
<a xlink:href="structeap__type__t.html" target="_top" xlink:title="eap_type_t">
<polygon fill="none" stroke="black" points="310.5,-0.5 310.5,-19.5 375.5,-19.5 375.5,-0.5 310.5,-0.5"/>
<text text-anchor="middle" x="343" y="-7.5" font-family="Helvetica,sans-Serif" font-size="10.00">eap_type_t</text>
</a>
</g>
<!-- Node25&#45;&gt;Node24 -->
<g id="edge100" class="edge"><title>Node25&#45;&gt;Node24</title>
<path fill="none" stroke="#9a32cd" stroke-dasharray="5,2" d="M385.947,-10.7527C406.23,-12.0007 430.73,-14.8244 452,-21 465.69,-24.9747 480.074,-32.3464 490.552,-38.384"/>
<polygon fill="#9a32cd" stroke="#9a32cd" points="385.929,-7.2474 375.764,-10.2344 385.574,-14.2384 385.929,-7.2474"/>
<text text-anchor="middle" x="429" y="-24" font-family="Helvetica,sans-Serif" font-size="10.00"> type</text>
</g>
<!-- Node26 -->
<g id="node77" class="node"><title>Node26</title>
<a xlink:href="structfr__randctx.html" target="_top" xlink:title="fr_randctx">
<polygon fill="none" stroke="black" points="1126,-0.5 1126,-19.5 1186,-19.5 1186,-0.5 1126,-0.5"/>
<text text-anchor="middle" x="1156" y="-7.5" font-family="Helvetica,sans-Serif" font-size="10.00">fr_randctx</text>
</a>
</g>
<!-- Node26&#45;&gt;Node23 -->
<g id="edge104" class="edge"><title>Node26&#45;&gt;Node23</title>
<path fill="none" stroke="#9a32cd" stroke-dasharray="5,2" d="M1196.26,-6.23771C1222.2,-5.56069 1256.07,-8.26802 1282,-23 1303.59,-35.2698 1318.24,-61.9357 1324.9,-76.3267"/>
<polygon fill="#9a32cd" stroke="#9a32cd" points="1195.87,-2.75155 1186.03,-6.68768 1196.17,-9.74479 1195.87,-2.75155"/>
<text text-anchor="middle" x="1251" y="-26" font-family="Helvetica,sans-Serif" font-size="10.00"> rand_pool</text>
</g>
</g>
</svg>
        <g id="navigator" transform="translate(0 0)" fill="#404254">
                <rect fill="#f2f5e9" fill-opacity="0.5" stroke="#606060" stroke-width=".5" x="0" y="0" width="60" height="60"/>
                <use id="zoomplus" xlink:href="#zoomPlus" x="17" y="9" onmousedown="handleZoom(evt,'in')"/>
                <use id="zoomminus" xlink:href="#zoomMin" x="42" y="9" onmousedown="handleZoom(evt,'out')"/>
                <use id="reset" xlink:href="#resetDef" x="30" y="36" onmousedown="handleReset()"/>
                <g id="arrowUp" xlink:href="#dirArrow" transform="translate(30 24)" onmousedown="handlePan(0,-1)">
                  <use xlink:href="#rim" fill="#404040">
                        <set attributeName="fill" to="#808080" begin="arrowUp.mouseover" end="arrowUp.mouseout"/>
                  </use>
                  <path fill="none" stroke="white" stroke-width="1.5" d="M0,-3.0v7 M-2.5,-0.5L0,-3.0L2.5,-0.5"/>
                </g>
                <g id="arrowRight" xlink:href="#dirArrow" transform="rotate(90) translate(36 -43)" onmousedown="handlePan(1,0)">
                  <use xlink:href="#rim" fill="#404040">
                        <set attributeName="fill" to="#808080" begin="arrowRight.mouseover" end="arrowRight.mouseout"/>
                  </use>
                  <path fill="none" stroke="white" stroke-width="1.5" d="M0,-3.0v7 M-2.5,-0.5L0,-3.0L2.5,-0.5"/>
                </g>
                <g id="arrowDown" xlink:href="#dirArrow" transform="rotate(180) translate(-30 -48)" onmousedown="handlePan(0,1)">
                  <use xlink:href="#rim" fill="#404040">
                        <set attributeName="fill" to="#808080" begin="arrowDown.mouseover" end="arrowDown.mouseout"/>
                  </use>
                  <path fill="none" stroke="white" stroke-width="1.5" d="M0,-3.0v7 M-2.5,-0.5L0,-3.0L2.5,-0.5"/>
                </g>
                <g id="arrowLeft" xlink:href="#dirArrow" transform="rotate(270) translate(-36 17)" onmousedown="handlePan(-1,0)">
                  <use xlink:href="#rim" fill="#404040">
                        <set attributeName="fill" to="#808080" begin="arrowLeft.mouseover" end="arrowLeft.mouseout"/>
                  </use>
                  <path fill="none" stroke="white" stroke-width="1.5" d="M0,-3.0v7 M-2.5,-0.5L0,-3.0L2.5,-0.5"/>
                </g>
        </g>
</svg>
