<?xml version="1.0" encoding="UTF-8" standalone="no"?>
<!DOCTYPE svg PUBLIC "-//W3C//DTD SVG 1.1//EN"
 "http://www.w3.org/Graphics/SVG/1.1/DTD/svg11.dtd">
<!-- Generated by graphviz version 2.28.0 (20111211.2114)
 -->
<!-- Title: G Pages: 1 -->
<!--zoomable-->
<svg id="main" version="1.1" xmlns="http://www.w3.org/2000/svg" xmlns:xlink="http://www.w3.org/1999/xlink" xml:space="preserve" onload="init(evt)">
        <defs>
                <circle id="rim" cx="0" cy="0" r="7"/>
                <circle id="rim2" cx="0" cy="0" r="3.5"/>
                <g id="zoomPlus">
                        <use xlink:href="#rim" fill="#404040">
                                <set attributeName="fill" to="#808080" begin="zoomplus.mouseover" end="zoomplus.mouseout"/>
                        </use>
                        <path d="M-4,0h8M0,-4v8" fill="none" stroke="white" stroke-width="1.5" pointer-events="none"/>
                </g>
                <g id="zoomMin">
                        <use xlink:href="#rim" fill="#404040">
                                <set attributeName="fill" to="#808080" begin="zoomminus.mouseover" end="zoomminus.mouseout"/>
                        </use>
                        <path d="M-4,0h8" fill="none" stroke="white" stroke-width="1.5" pointer-events="none"/>
                </g>
                <g id="dirArrow">
                        <path fill="none" stroke="white" stroke-width="1.5" d="M0,-3.0v7 M-2.5,-0.5L0,-3.0L2.5,-0.5"/>
                </g>
               <g id="resetDef">
                       <use xlink:href="#rim2" fill="#404040">
                               <set attributeName="fill" to="#808080" begin="reset.mouseover" end="reset.mouseout"/>
                       </use>
               </g>
        </defs>

<script type="text/javascript">
var viewWidth = 1222;
var viewHeight = 795;
var sectionId = 'dynsection-0';
</script>
<script xlink:href="svgpan.js"/>
<svg id="graph" class="graph">
<g id="viewport">
<title>G</title>
<!-- Node1 -->
<g id="node1" class="node"><title>Node1</title>
<polygon fill="#bfbfbf" stroke="black" points="1128,-212.5 1128,-231.5 1214,-231.5 1214,-212.5 1128,-212.5"/>
<text text-anchor="middle" x="1171" y="-219.5" font-family="Helvetica,sans-Serif" font-size="10.00">rlm_rest_write_t</text>
</g>
<!-- Node2 -->
<g id="node2" class="node"><title>Node2</title>
<a xlink:href="structauth__req.html" target="_top" xlink:title="auth_req">
<polygon fill="none" stroke="black" points="1002,-490.5 1002,-509.5 1056,-509.5 1056,-490.5 1002,-490.5"/>
<text text-anchor="middle" x="1029" y="-497.5" font-family="Helvetica,sans-Serif" font-size="10.00">auth_req</text>
</a>
</g>
<!-- Node2&#45;&gt;Node1 -->
<g id="edge2" class="edge"><title>Node2&#45;&gt;Node1</title>
<path fill="none" stroke="#9a32cd" stroke-dasharray="5,2" d="M1039.43,-481.282C1066.69,-427.135 1145,-271.635 1165.2,-231.529"/>
<polygon fill="#9a32cd" stroke="#9a32cd" points="1036.19,-479.925 1034.82,-490.431 1042.44,-483.073 1036.19,-479.925"/>
<text text-anchor="middle" x="1092" y="-414" font-family="Helvetica,sans-Serif" font-size="10.00"> request</text>
</g>
<!-- Node2&#45;&gt;Node2 -->
<g id="edge76" class="edge"><title>Node2&#45;&gt;Node2</title>
<path fill="none" stroke="#9a32cd" stroke-dasharray="5,2" d="M1017.58,-519.766C1018.48,-524.497 1022.28,-528 1029,-528 1040.02,-528 1043.2,-518.565 1038.56,-509.757"/>
<polygon fill="#9a32cd" stroke="#9a32cd" points="1021.06,-520.228 1019.44,-509.757 1014.17,-518.948 1021.06,-520.228"/>
<text text-anchor="middle" x="1029" y="-575" font-family="Helvetica,sans-Serif" font-size="10.00"> coa</text>
<text text-anchor="middle" x="1029" y="-564" font-family="Helvetica,sans-Serif" font-size="10.00">radlog</text>
<text text-anchor="middle" x="1029" y="-553" font-family="Helvetica,sans-Serif" font-size="10.00">handle</text>
<text text-anchor="middle" x="1029" y="-542" font-family="Helvetica,sans-Serif" font-size="10.00">parent</text>
<text text-anchor="middle" x="1029" y="-531" font-family="Helvetica,sans-Serif" font-size="10.00">process</text>
</g>
<!-- Node3 -->
<g id="node4" class="node"><title>Node3</title>
<a xlink:href="structradclient.html" target="_top" xlink:title="radclient">
<polygon fill="none" stroke="black" points="858.5,-439.5 858.5,-458.5 911.5,-458.5 911.5,-439.5 858.5,-439.5"/>
<text text-anchor="middle" x="885" y="-446.5" font-family="Helvetica,sans-Serif" font-size="10.00">radclient</text>
</a>
</g>
<!-- Node3&#45;&gt;Node2 -->
<g id="edge4" class="edge"><title>Node3&#45;&gt;Node2</title>
<path fill="none" stroke="#9a32cd" stroke-dasharray="5,2" d="M921.218,-461.649C946.255,-470.641 979.329,-482.52 1002,-490.661"/>
<polygon fill="#9a32cd" stroke="#9a32cd" points="922.31,-458.322 911.715,-458.236 919.943,-464.91 922.31,-458.322"/>
<text text-anchor="middle" x="964" y="-487" font-family="Helvetica,sans-Serif" font-size="10.00"> client</text>
</g>
<!-- Node4 -->
<g id="node6" class="node"><title>Node4</title>
<a xlink:href="structhome__pool__t.html" target="_top" xlink:title="home_pool_t">
<polygon fill="none" stroke="black" points="671,-363.5 671,-382.5 743,-382.5 743,-363.5 671,-363.5"/>
<text text-anchor="middle" x="707" y="-370.5" font-family="Helvetica,sans-Serif" font-size="10.00">home_pool_t</text>
</a>
</g>
<!-- Node4&#45;&gt;Node2 -->
<g id="edge78" class="edge"><title>Node4&#45;&gt;Node2</title>
<path fill="none" stroke="#9a32cd" stroke-dasharray="5,2" d="M753.156,-370.165C775.34,-369.776 802.325,-370.811 826,-376 873.257,-386.357 884.471,-394.184 926,-419 962.299,-440.691 999.993,-473.913 1017.68,-490.246"/>
<polygon fill="#9a32cd" stroke="#9a32cd" points="752.91,-366.67 743.01,-370.446 753.103,-373.668 752.91,-366.67"/>
<text text-anchor="middle" x="885" y="-422" font-family="Helvetica,sans-Serif" font-size="10.00"> home_pool</text>
</g>
<!-- Node4&#45;&gt;Node3 -->
<g id="edge6" class="edge"><title>Node4&#45;&gt;Node3</title>
<path fill="none" stroke="#9a32cd" stroke-dasharray="5,2" d="M753.278,-376.001C776.058,-378.927 803.529,-384.686 826,-396 847.199,-406.674 866.375,-427.322 876.485,-439.456"/>
<polygon fill="#9a32cd" stroke="#9a32cd" points="753.509,-372.504 743.176,-374.846 752.713,-379.459 753.509,-372.504"/>
<text text-anchor="middle" x="795" y="-399" font-family="Helvetica,sans-Serif" font-size="10.00"> coa_pool</text>
</g>
<!-- Node5 -->
<g id="node8" class="node"><title>Node5</title>
<a xlink:href="structhome__server.html" target="_top" xlink:title="home_server">
<polygon fill="none" stroke="black" points="487.5,-482.5 487.5,-501.5 560.5,-501.5 560.5,-482.5 487.5,-482.5"/>
<text text-anchor="middle" x="524" y="-489.5" font-family="Helvetica,sans-Serif" font-size="10.00">home_server</text>
</a>
</g>
<!-- Node5&#45;&gt;Node2 -->
<g id="edge80" class="edge"><title>Node5&#45;&gt;Node2</title>
<path fill="none" stroke="#9a32cd" stroke-dasharray="5,2" d="M570.773,-494.896C579.161,-495.336 587.842,-495.733 596,-496 749.674,-501.038 934.25,-500.572 1001.69,-500.187"/>
<polygon fill="#9a32cd" stroke="#9a32cd" points="570.918,-491.399 560.741,-494.342 570.533,-498.388 570.918,-491.399"/>
<text text-anchor="middle" x="795" y="-504" font-family="Helvetica,sans-Serif" font-size="10.00"> home_server</text>
</g>
<!-- Node5&#45;&gt;Node3 -->
<g id="edge40" class="edge"><title>Node5&#45;&gt;Node3</title>
<path fill="none" stroke="#9a32cd" stroke-dasharray="5,2" d="M570.682,-487.014C594.359,-484.397 623.741,-481.098 650,-478 725.82,-469.056 815.36,-457.752 858.389,-452.274"/>
<polygon fill="#9a32cd" stroke="#9a32cd" points="570.13,-483.554 560.574,-488.128 570.897,-490.511 570.13,-483.554"/>
<text text-anchor="middle" x="707" y="-479" font-family="Helvetica,sans-Serif" font-size="10.00"> coa_server</text>
</g>
<!-- Node5&#45;&gt;Node4 -->
<g id="edge8" class="edge"><title>Node5&#45;&gt;Node4</title>
<path fill="none" stroke="#9a32cd" stroke-dasharray="5,2" d="M557.487,-478.299C564.363,-475.12 571.503,-471.605 578,-468 586.407,-463.335 587.541,-460.57 596,-456 618.951,-443.601 628.637,-447.971 650,-433 670.537,-418.608 689.304,-395.645 699.028,-382.7"/>
<polygon fill="#9a32cd" stroke="#9a32cd" points="556.044,-475.11 548.359,-482.403 558.915,-481.495 556.044,-475.11"/>
<text text-anchor="middle" x="623" y="-470" font-family="Helvetica,sans-Serif" font-size="10.00"> fallback</text>
<text text-anchor="middle" x="623" y="-459" font-family="Helvetica,sans-Serif" font-size="10.00">servers</text>
</g>
<!-- Node6 -->
<g id="node10" class="node"><title>Node6</title>
<a xlink:href="structconf__part.html" target="_top" xlink:title="conf_part">
<polygon fill="none" stroke="black" points="314.5,-258.5 314.5,-277.5 371.5,-277.5 371.5,-258.5 314.5,-258.5"/>
<text text-anchor="middle" x="343" y="-265.5" font-family="Helvetica,sans-Serif" font-size="10.00">conf_part</text>
</a>
</g>
<!-- Node6&#45;&gt;Node3 -->
<g id="edge44" class="edge"><title>Node6&#45;&gt;Node3</title>
<path fill="none" stroke="#9a32cd" stroke-dasharray="5,2" d="M381.258,-279.374C389.379,-281.697 397.95,-284.03 406,-286 498.672,-308.676 757.222,-308.88 826,-375 845.764,-394 825.231,-414.017 844,-434 847.859,-438.109 852.952,-441.1 858.206,-443.275"/>
<polygon fill="#9a32cd" stroke="#9a32cd" points="382.221,-276.009 371.642,-276.571 380.263,-282.73 382.221,-276.009"/>
<text text-anchor="middle" x="623" y="-321" font-family="Helvetica,sans-Serif" font-size="10.00"> cs</text>
</g>
<!-- Node6&#45;&gt;Node4 -->
<g id="edge38" class="edge"><title>Node6&#45;&gt;Node4</title>
<path fill="none" stroke="#9a32cd" stroke-dasharray="5,2" d="M355.316,-286.461C366.191,-302.443 384.171,-324.716 406,-336 492.941,-380.944 612.427,-380.041 670.896,-376.237"/>
<polygon fill="#9a32cd" stroke="#9a32cd" points="358.141,-284.386 349.757,-277.908 352.272,-288.2 358.141,-284.386"/>
<text text-anchor="middle" x="524" y="-380" font-family="Helvetica,sans-Serif" font-size="10.00"> cs</text>
</g>
<!-- Node6&#45;&gt;Node5 -->
<g id="edge10" class="edge"><title>Node6&#45;&gt;Node5</title>
<path fill="none" stroke="#9a32cd" stroke-dasharray="5,2" d="M352.587,-286.642C363.612,-309.829 383.964,-350.233 406,-382 423.777,-407.628 434.207,-409.383 452,-435 461.531,-448.721 457.757,-456.633 470,-468 476.588,-474.117 485.001,-478.881 493.174,-482.494"/>
<polygon fill="#9a32cd" stroke="#9a32cd" points="355.745,-285.132 348.331,-277.563 349.407,-288.104 355.745,-285.132"/>
<text text-anchor="middle" x="429" y="-438" font-family="Helvetica,sans-Serif" font-size="10.00"> cs</text>
</g>
<!-- Node6&#45;&gt;Node6 -->
<g id="edge12" class="edge"><title>Node6&#45;&gt;Node6</title>
<path fill="none" stroke="#9a32cd" stroke-dasharray="5,2" d="M327.075,-287.4C328.138,-292.315 333.447,-296 343,-296 358.285,-296 362.704,-286.565 356.255,-277.757"/>
<polygon fill="#9a32cd" stroke="#9a32cd" points="330.449,-288.328 329.745,-277.757 323.703,-286.46 330.449,-288.328"/>
<text text-anchor="middle" x="343" y="-299" font-family="Helvetica,sans-Serif" font-size="10.00"> template</text>
</g>
<!-- Node7 -->
<g id="node13" class="node"><title>Node7</title>
<a xlink:href="structconf__item.html" target="_top" xlink:title="conf_item">
<polygon fill="none" stroke="black" points="494.5,-38.5 494.5,-57.5 553.5,-57.5 553.5,-38.5 494.5,-38.5"/>
<text text-anchor="middle" x="524" y="-45.5" font-family="Helvetica,sans-Serif" font-size="10.00">conf_item</text>
</a>
</g>
<!-- Node6&#45;&gt;Node7 -->
<g id="edge16" class="edge"><title>Node6&#45;&gt;Node7</title>
<path fill="none" stroke="#9a32cd" stroke-dasharray="5,2" d="M358.956,-250.767C370.796,-237.849 388.244,-220.345 406,-208 424.607,-195.063 438.087,-203.889 452,-186 477.044,-153.801 449.868,-131.478 470,-96 479.19,-79.8045 495.806,-66.1086 507.991,-57.5434"/>
<polygon fill="#9a32cd" stroke="#9a32cd" points="356.102,-248.708 352.039,-258.493 361.317,-253.378 356.102,-248.708"/>
<text text-anchor="middle" x="429" y="-211" font-family="Helvetica,sans-Serif" font-size="10.00"> parent</text>
</g>
<!-- Node15 -->
<g id="node38" class="node"><title>Node15</title>
<a xlink:href="structmain__config__t.html" target="_top" xlink:title="main_config_t">
<polygon fill="none" stroke="black" points="668.5,-273.5 668.5,-292.5 745.5,-292.5 745.5,-273.5 668.5,-273.5"/>
<text text-anchor="middle" x="707" y="-280.5" font-family="Helvetica,sans-Serif" font-size="10.00">main_config_t</text>
</a>
</g>
<!-- Node6&#45;&gt;Node15 -->
<g id="edge56" class="edge"><title>Node6&#45;&gt;Node15</title>
<path fill="none" stroke="#9a32cd" stroke-dasharray="5,2" d="M381.57,-269.557C451.082,-272.437 598.995,-278.566 668.474,-281.445"/>
<polygon fill="#9a32cd" stroke="#9a32cd" points="381.642,-266.057 371.506,-269.14 381.352,-273.051 381.642,-266.057"/>
<text text-anchor="middle" x="524" y="-281" font-family="Helvetica,sans-Serif" font-size="10.00"> config</text>
</g>
<!-- Node16 -->
<g id="node40" class="node"><title>Node16</title>
<a xlink:href="structrad__listen__t.html" target="_top" xlink:title="rad_listen_t">
<polygon fill="none" stroke="black" points="490.5,-143.5 490.5,-162.5 557.5,-162.5 557.5,-143.5 490.5,-143.5"/>
<text text-anchor="middle" x="524" y="-150.5" font-family="Helvetica,sans-Serif" font-size="10.00">rad_listen_t</text>
</a>
</g>
<!-- Node6&#45;&gt;Node16 -->
<g id="edge54" class="edge"><title>Node6&#45;&gt;Node16</title>
<path fill="none" stroke="#9a32cd" stroke-dasharray="5,2" d="M381.148,-256.509C402.834,-248.853 430.141,-237.527 452,-223 478.238,-205.563 503.055,-177.539 515.209,-162.795"/>
<polygon fill="#9a32cd" stroke="#9a32cd" points="379.949,-253.22 371.619,-259.767 382.214,-259.844 379.949,-253.22"/>
<text text-anchor="middle" x="429" y="-250" font-family="Helvetica,sans-Serif" font-size="10.00"> cs</text>
</g>
<!-- Node23 -->
<g id="node68" class="node"><title>Node23</title>
<a xlink:href="structfr__connection__pool__t.html" target="_top" xlink:title="fr_connection_pool_t">
<polygon fill="none" stroke="black" points="470.5,-0.5 470.5,-19.5 577.5,-19.5 577.5,-0.5 470.5,-0.5"/>
<text text-anchor="middle" x="524" y="-7.5" font-family="Helvetica,sans-Serif" font-size="10.00">fr_connection_pool_t</text>
</a>
</g>
<!-- Node6&#45;&gt;Node23 -->
<g id="edge94" class="edge"><title>Node6&#45;&gt;Node23</title>
<path fill="none" stroke="#9a32cd" stroke-dasharray="5,2" d="M347.913,-248.101C355.256,-214.057 373.379,-143.345 406,-92 427.404,-58.3106 436.202,-50.231 470,-29 475.96,-25.2564 482.759,-22.1156 489.455,-19.5348"/>
<polygon fill="#9a32cd" stroke="#9a32cd" points="344.431,-247.658 345.831,-258.16 351.285,-249.077 344.431,-247.658"/>
<text text-anchor="middle" x="429" y="-95" font-family="Helvetica,sans-Serif" font-size="10.00"> cs</text>
</g>
<!-- Node7&#45;&gt;Node6 -->
<g id="edge14" class="edge"><title>Node7&#45;&gt;Node6</title>
<path fill="none" stroke="#9a32cd" stroke-dasharray="5,2" d="M501.161,-63.8619C475.972,-82.9422 434.392,-116.936 406,-153 378.219,-188.287 356.323,-237.783 347.827,-258.4"/>
<polygon fill="#9a32cd" stroke="#9a32cd" points="503.42,-66.5434 509.338,-57.7559 499.232,-60.9344 503.42,-66.5434"/>
<text text-anchor="middle" x="429" y="-178" font-family="Helvetica,sans-Serif" font-size="10.00"> tail</text>
<text text-anchor="middle" x="429" y="-167" font-family="Helvetica,sans-Serif" font-size="10.00">item</text>
<text text-anchor="middle" x="429" y="-156" font-family="Helvetica,sans-Serif" font-size="10.00">children</text>
</g>
<!-- Node7&#45;&gt;Node7 -->
<g id="edge18" class="edge"><title>Node7&#45;&gt;Node7</title>
<path fill="none" stroke="#9a32cd" stroke-dasharray="5,2" d="M506.593,-67.4C507.756,-72.3146 513.558,-76 524,-76 540.707,-76 545.536,-66.5653 538.488,-57.7571"/>
<polygon fill="#9a32cd" stroke="#9a32cd" points="509.965,-68.3422 509.512,-57.7571 503.265,-66.3144 509.965,-68.3422"/>
<text text-anchor="middle" x="524" y="-79" font-family="Helvetica,sans-Serif" font-size="10.00"> next</text>
</g>
<!-- Node8 -->
<g id="node17" class="node"><title>Node8</title>
<a xlink:href="structCONF__PARSER.html" target="_top" xlink:title="CONF_PARSER">
<polygon fill="none" stroke="black" points="116,-292.5 116,-311.5 208,-311.5 208,-292.5 116,-292.5"/>
<text text-anchor="middle" x="162" y="-299.5" font-family="Helvetica,sans-Serif" font-size="10.00">CONF_PARSER</text>
</a>
</g>
<!-- Node8&#45;&gt;Node6 -->
<g id="edge20" class="edge"><title>Node8&#45;&gt;Node6</title>
<path fill="none" stroke="#9a32cd" stroke-dasharray="5,2" d="M217.988,-291.723C237.568,-288.047 259.772,-283.859 280,-280 291.2,-277.863 303.533,-275.482 314.229,-273.408"/>
<polygon fill="#9a32cd" stroke="#9a32cd" points="217.197,-288.31 208.014,-293.594 218.488,-295.19 217.197,-288.31"/>
<text text-anchor="middle" x="253" y="-293" font-family="Helvetica,sans-Serif" font-size="10.00"> variables</text>
</g>
<!-- Node9 -->
<g id="node19" class="node"><title>Node9</title>
<a xlink:href="structrbtree__t.html" target="_top" xlink:title="rbtree_t">
<polygon fill="none" stroke="black" points="137,-225.5 137,-244.5 187,-244.5 187,-225.5 137,-225.5"/>
<text text-anchor="middle" x="162" y="-232.5" font-family="Helvetica,sans-Serif" font-size="10.00">rbtree_t</text>
</a>
</g>
<!-- Node9&#45;&gt;Node6 -->
<g id="edge22" class="edge"><title>Node9&#45;&gt;Node6</title>
<path fill="none" stroke="#9a32cd" stroke-dasharray="5,2" d="M197.374,-231.147C220.969,-229.503 252.811,-229.274 280,-236 297.638,-240.363 315.892,-250.6 327.985,-258.329"/>
<polygon fill="#9a32cd" stroke="#9a32cd" points="196.841,-227.678 187.16,-231.981 197.411,-234.655 196.841,-227.678"/>
<text text-anchor="middle" x="253" y="-272" font-family="Helvetica,sans-Serif" font-size="10.00"> data_tree</text>
<text text-anchor="middle" x="253" y="-261" font-family="Helvetica,sans-Serif" font-size="10.00">name2_tree</text>
<text text-anchor="middle" x="253" y="-250" font-family="Helvetica,sans-Serif" font-size="10.00">section_tree</text>
<text text-anchor="middle" x="253" y="-239" font-family="Helvetica,sans-Serif" font-size="10.00">pair_tree</text>
</g>
<!-- Node10 -->
<g id="node21" class="node"><title>Node10</title>
<a xlink:href="structrbnode__t.html" target="_top" xlink:title="rbnode_t">
<polygon fill="none" stroke="black" points="0,-225.5 0,-244.5 54,-244.5 54,-225.5 0,-225.5"/>
<text text-anchor="middle" x="27" y="-232.5" font-family="Helvetica,sans-Serif" font-size="10.00">rbnode_t</text>
</a>
</g>
<!-- Node10&#45;&gt;Node9 -->
<g id="edge24" class="edge"><title>Node10&#45;&gt;Node9</title>
<path fill="none" stroke="#9a32cd" stroke-dasharray="5,2" d="M64.3432,-235C87.3013,-235 116.343,-235 136.572,-235"/>
<polygon fill="#9a32cd" stroke="#9a32cd" points="64.2766,-231.5 54.2765,-235 64.2765,-238.5 64.2766,-231.5"/>
<text text-anchor="middle" x="85" y="-238" font-family="Helvetica,sans-Serif" font-size="10.00"> Root</text>
</g>
<!-- Node10&#45;&gt;Node10 -->
<g id="edge26" class="edge"><title>Node10&#45;&gt;Node10</title>
<path fill="none" stroke="#9a32cd" stroke-dasharray="5,2" d="M16.3189,-254.766C17.1578,-259.497 20.7182,-263 27,-263 37.3086,-263 40.2884,-253.565 35.9395,-244.757"/>
<polygon fill="#9a32cd" stroke="#9a32cd" points="19.7944,-255.209 18.0605,-244.757 12.898,-254.009 19.7944,-255.209"/>
<text text-anchor="middle" x="27" y="-288" font-family="Helvetica,sans-Serif" font-size="10.00"> Left</text>
<text text-anchor="middle" x="27" y="-277" font-family="Helvetica,sans-Serif" font-size="10.00">Right</text>
<text text-anchor="middle" x="27" y="-266" font-family="Helvetica,sans-Serif" font-size="10.00">Parent</text>
</g>
<!-- Node11 -->
<g id="node24" class="node"><title>Node11</title>
<a xlink:href="structfr__socket__limit__t.html" target="_top" xlink:title="fr_socket_limit_t">
<polygon fill="none" stroke="black" points="298.5,-416.5 298.5,-435.5 387.5,-435.5 387.5,-416.5 298.5,-416.5"/>
<text text-anchor="middle" x="343" y="-423.5" font-family="Helvetica,sans-Serif" font-size="10.00">fr_socket_limit_t</text>
</a>
</g>
<!-- Node11&#45;&gt;Node3 -->
<g id="edge42" class="edge"><title>Node11&#45;&gt;Node3</title>
<path fill="none" stroke="#9a32cd" stroke-dasharray="5,2" d="M378.779,-413.362C387.546,-410.728 397.021,-408.345 406,-407 426.219,-403.971 431.567,-406.33 452,-407 540.142,-409.89 562.203,-411.684 650,-420 726.005,-427.199 815.46,-439.3 858.43,-445.34"/>
<polygon fill="#9a32cd" stroke="#9a32cd" points="377.71,-410.029 369.245,-416.4 379.836,-416.699 377.71,-410.029"/>
<text text-anchor="middle" x="623" y="-423" font-family="Helvetica,sans-Serif" font-size="10.00"> limit</text>
</g>
<!-- Node11&#45;&gt;Node5 -->
<g id="edge28" class="edge"><title>Node11&#45;&gt;Node5</title>
<path fill="none" stroke="#9a32cd" stroke-dasharray="5,2" d="M379.776,-439.191C414.506,-451.997 466.371,-471.12 497.231,-482.499"/>
<polygon fill="#9a32cd" stroke="#9a32cd" points="380.622,-435.773 370.028,-435.597 378.2,-442.34 380.622,-435.773"/>
<text text-anchor="middle" x="429" y="-468" font-family="Helvetica,sans-Serif" font-size="10.00"> limit</text>
</g>
<!-- Node12 -->
<g id="node26" class="node"><title>Node12</title>
<a xlink:href="structfr__event__t.html" target="_top" xlink:title="fr_event_t">
<polygon fill="none" stroke="black" points="313,-615.5 313,-634.5 373,-634.5 373,-615.5 313,-615.5"/>
<text text-anchor="middle" x="343" y="-622.5" font-family="Helvetica,sans-Serif" font-size="10.00">fr_event_t</text>
</a>
</g>
<!-- Node12&#45;&gt;Node2 -->
<g id="edge84" class="edge"><title>Node12&#45;&gt;Node2</title>
<path fill="none" stroke="#9a32cd" stroke-dasharray="5,2" d="M383.383,-634.054C419.493,-641.558 474.555,-651 523,-651 523,-651 523,-651 886,-651 963.73,-651 1011.38,-543.501 1024.38,-509.908"/>
<polygon fill="#9a32cd" stroke="#9a32cd" points="383.778,-630.56 373.268,-631.899 382.319,-637.406 383.778,-630.56"/>
<text text-anchor="middle" x="707" y="-654" font-family="Helvetica,sans-Serif" font-size="10.00"> ev</text>
</g>
<!-- Node12&#45;&gt;Node5 -->
<g id="edge30" class="edge"><title>Node12&#45;&gt;Node5</title>
<path fill="none" stroke="#9a32cd" stroke-dasharray="5,2" d="M365.619,-609.368C387.484,-593.515 422.214,-568.218 452,-546 472.606,-530.629 496.342,-512.487 510.485,-501.631"/>
<polygon fill="#9a32cd" stroke="#9a32cd" points="363.406,-606.649 357.36,-615.35 367.512,-612.318 363.406,-606.649"/>
<text text-anchor="middle" x="429" y="-581" font-family="Helvetica,sans-Serif" font-size="10.00"> ev</text>
</g>
<!-- Node12&#45;&gt;Node12 -->
<g id="edge32" class="edge"><title>Node12&#45;&gt;Node12</title>
<path fill="none" stroke="#9a32cd" stroke-dasharray="5,2" d="M327.075,-644.4C328.138,-649.315 333.447,-653 343,-653 358.285,-653 362.704,-643.565 356.255,-634.757"/>
<polygon fill="#9a32cd" stroke="#9a32cd" points="330.449,-645.328 329.745,-634.757 323.703,-643.46 330.449,-645.328"/>
<text text-anchor="middle" x="343" y="-656" font-family="Helvetica,sans-Serif" font-size="10.00"> ev_p</text>
</g>
<!-- Node13 -->
<g id="node29" class="node"><title>Node13</title>
<a xlink:href="structfr__ipaddr__t.html" target="_top" xlink:title="fr_ipaddr_t">
<polygon fill="none" stroke="black" points="312,-546.5 312,-565.5 374,-565.5 374,-546.5 312,-546.5"/>
<text text-anchor="middle" x="343" y="-553.5" font-family="Helvetica,sans-Serif" font-size="10.00">fr_ipaddr_t</text>
</a>
</g>
<!-- Node13&#45;&gt;Node3 -->
<g id="edge46" class="edge"><title>Node13&#45;&gt;Node3</title>
<path fill="none" stroke="#9a32cd" stroke-dasharray="5,2" d="M384.198,-562.368C470.517,-574.05 677.779,-591.298 826,-516 851.238,-503.179 870.159,-474.176 878.806,-458.876"/>
<polygon fill="#9a32cd" stroke="#9a32cd" points="384.431,-558.866 374.041,-560.942 383.458,-565.798 384.431,-558.866"/>
<text text-anchor="middle" x="623" y="-573" font-family="Helvetica,sans-Serif" font-size="10.00"> ipaddr</text>
</g>
<!-- Node13&#45;&gt;Node5 -->
<g id="edge34" class="edge"><title>Node13&#45;&gt;Node5</title>
<path fill="none" stroke="#9a32cd" stroke-dasharray="5,2" d="M366.179,-541C377.657,-533.795 392.139,-525.544 406,-520 432.374,-509.451 463.746,-502.208 487.362,-497.736"/>
<polygon fill="#9a32cd" stroke="#9a32cd" points="364.19,-538.118 357.686,-546.482 367.986,-543.999 364.19,-538.118"/>
<text text-anchor="middle" x="429" y="-534" font-family="Helvetica,sans-Serif" font-size="10.00"> ipaddr</text>
<text text-anchor="middle" x="429" y="-523" font-family="Helvetica,sans-Serif" font-size="10.00">src_ipaddr</text>
</g>
<!-- Node13&#45;&gt;Node15 -->
<g id="edge58" class="edge"><title>Node13&#45;&gt;Node15</title>
<path fill="none" stroke="#9a32cd" stroke-dasharray="5,2" d="M361.722,-539.32C373.813,-528.256 390.404,-513.679 406,-502 415.079,-495.201 568.707,-398.504 578,-392 610.991,-368.91 619.456,-363.241 650,-337 667.211,-322.214 685.949,-303.579 696.799,-292.514"/>
<polygon fill="#9a32cd" stroke="#9a32cd" points="359.099,-536.978 354.137,-546.34 363.854,-542.116 359.099,-536.978"/>
<text text-anchor="middle" x="524" y="-464" font-family="Helvetica,sans-Serif" font-size="10.00"> myip</text>
</g>
<!-- Node17 -->
<g id="node46" class="node"><title>Node17</title>
<a xlink:href="structradius__packet.html" target="_top" xlink:title="radius_packet">
<polygon fill="none" stroke="black" points="668.5,-591.5 668.5,-610.5 745.5,-610.5 745.5,-591.5 668.5,-591.5"/>
<text text-anchor="middle" x="707" y="-598.5" font-family="Helvetica,sans-Serif" font-size="10.00">radius_packet</text>
</a>
</g>
<!-- Node13&#45;&gt;Node17 -->
<g id="edge72" class="edge"><title>Node13&#45;&gt;Node17</title>
<path fill="none" stroke="#9a32cd" stroke-dasharray="5,2" d="M384.135,-565.795C391.383,-567.354 398.895,-568.835 406,-570 499.782,-585.378 611.382,-594.533 668.394,-598.559"/>
<polygon fill="#9a32cd" stroke="#9a32cd" points="384.655,-562.324 374.132,-563.562 383.129,-569.156 384.655,-562.324"/>
<text text-anchor="middle" x="524" y="-605" font-family="Helvetica,sans-Serif" font-size="10.00"> dst_ipaddr</text>
<text text-anchor="middle" x="524" y="-594" font-family="Helvetica,sans-Serif" font-size="10.00">src_ipaddr</text>
</g>
<!-- Node14 -->
<g id="node31" class="node"><title>Node14</title>
<a xlink:href="structin6__addr.html" target="_top" xlink:title="in6_addr">
<polygon fill="none" stroke="black" points="135.5,-633.5 135.5,-652.5 188.5,-652.5 188.5,-633.5 135.5,-633.5"/>
<text text-anchor="middle" x="162" y="-640.5" font-family="Helvetica,sans-Serif" font-size="10.00">in6_addr</text>
</a>
</g>
<!-- Node14&#45;&gt;Node13 -->
<g id="edge36" class="edge"><title>Node14&#45;&gt;Node13</title>
<path fill="none" stroke="#9a32cd" stroke-dasharray="5,2" d="M192.019,-628.896C228.683,-611.076 290.794,-580.888 322.344,-565.554"/>
<polygon fill="#9a32cd" stroke="#9a32cd" points="190.304,-625.838 182.84,-633.357 193.364,-632.134 190.304,-625.838"/>
<text text-anchor="middle" x="253" y="-615" font-family="Helvetica,sans-Serif" font-size="10.00"> ip6addr</text>
</g>
<!-- Node19 -->
<g id="node50" class="node"><title>Node19</title>
<a xlink:href="unionvalue__pair__data.html" target="_top" xlink:title="value_pair_data">
<polygon fill="none" stroke="black" points="300.5,-720.5 300.5,-739.5 385.5,-739.5 385.5,-720.5 300.5,-720.5"/>
<text text-anchor="middle" x="343" y="-727.5" font-family="Helvetica,sans-Serif" font-size="10.00">value_pair_data</text>
</a>
</g>
<!-- Node14&#45;&gt;Node19 -->
<g id="edge66" class="edge"><title>Node14&#45;&gt;Node19</title>
<path fill="none" stroke="#9a32cd" stroke-dasharray="5,2" d="M190.06,-657.222C217.153,-671.32 260.143,-693.311 298,-711 304.784,-714.17 312.237,-717.46 319.049,-720.393"/>
<polygon fill="#9a32cd" stroke="#9a32cd" points="191.659,-654.108 181.175,-652.584 188.42,-660.314 191.659,-654.108"/>
<text text-anchor="middle" x="253" y="-705" font-family="Helvetica,sans-Serif" font-size="10.00"> ipv6addr</text>
</g>
<!-- Node15&#45;&gt;Node2 -->
<g id="edge48" class="edge"><title>Node15&#45;&gt;Node2</title>
<path fill="none" stroke="#9a32cd" stroke-dasharray="5,2" d="M755.607,-289.549C777.512,-293.451 803.559,-299.369 826,-308 873.954,-326.444 885.667,-334.171 926,-366 955.367,-389.175 961.321,-397.248 984,-427 1000.15,-448.183 1015.34,-475.668 1022.94,-490.12"/>
<polygon fill="#9a32cd" stroke="#9a32cd" points="755.986,-286.063 745.542,-287.844 754.817,-292.965 755.986,-286.063"/>
<text text-anchor="middle" x="885" y="-369" font-family="Helvetica,sans-Serif" font-size="10.00"> root</text>
</g>
<!-- Node16&#45;&gt;Node2 -->
<g id="edge74" class="edge"><title>Node16&#45;&gt;Node2</title>
<path fill="none" stroke="#9a32cd" stroke-dasharray="5,2" d="M564.532,-165.739C653.367,-194.826 865.723,-267.076 926,-312 957.311,-335.336 964.139,-344.377 984,-378 1006.79,-416.579 1020.74,-468.9 1025.82,-490.286"/>
<polygon fill="#9a32cd" stroke="#9a32cd" points="565.42,-162.347 554.828,-162.572 563.249,-169.001 565.42,-162.347"/>
<text text-anchor="middle" x="795" y="-275" font-family="Helvetica,sans-Serif" font-size="10.00"> listener</text>
<text text-anchor="middle" x="795" y="-264" font-family="Helvetica,sans-Serif" font-size="10.00">proxy_listener</text>
</g>
<!-- Node16&#45;&gt;Node15 -->
<g id="edge50" class="edge"><title>Node16&#45;&gt;Node15</title>
<path fill="none" stroke="#9a32cd" stroke-dasharray="5,2" d="M544.216,-169.624C558.257,-181.54 577.924,-197.758 596,-211 628.59,-234.875 668.699,-260.154 690.35,-273.483"/>
<polygon fill="#9a32cd" stroke="#9a32cd" points="546.14,-166.663 536.264,-162.825 541.591,-171.984 546.14,-166.663"/>
<text text-anchor="middle" x="623" y="-251" font-family="Helvetica,sans-Serif" font-size="10.00"> listen</text>
</g>
<!-- Node16&#45;&gt;Node16 -->
<g id="edge52" class="edge"><title>Node16&#45;&gt;Node16</title>
<path fill="none" stroke="#9a32cd" stroke-dasharray="5,2" d="M506.593,-172.4C507.756,-177.315 513.558,-181 524,-181 540.707,-181 545.536,-171.565 538.488,-162.757"/>
<polygon fill="#9a32cd" stroke="#9a32cd" points="509.965,-173.342 509.512,-162.757 503.265,-171.314 509.965,-173.342"/>
<text text-anchor="middle" x="524" y="-239" font-family="Helvetica,sans-Serif" font-size="10.00"> next</text>
<text text-anchor="middle" x="524" y="-228" font-family="Helvetica,sans-Serif" font-size="10.00">encode</text>
<text text-anchor="middle" x="524" y="-217" font-family="Helvetica,sans-Serif" font-size="10.00">recv</text>
<text text-anchor="middle" x="524" y="-206" font-family="Helvetica,sans-Serif" font-size="10.00">print</text>
<text text-anchor="middle" x="524" y="-195" font-family="Helvetica,sans-Serif" font-size="10.00">send</text>
<text text-anchor="middle" x="524" y="-184" font-family="Helvetica,sans-Serif" font-size="10.00">decode</text>
</g>
<!-- Node17&#45;&gt;Node2 -->
<g id="edge60" class="edge"><title>Node17&#45;&gt;Node2</title>
<path fill="none" stroke="#9a32cd" stroke-dasharray="5,2" d="M755.683,-594.334C812.149,-585.229 908.108,-565.905 984,-531 996.055,-525.456 1008.27,-516.524 1016.77,-509.669"/>
<polygon fill="#9a32cd" stroke="#9a32cd" points="754.948,-590.906 745.612,-595.916 756.034,-597.821 754.948,-590.906"/>
<text text-anchor="middle" x="885" y="-612" font-family="Helvetica,sans-Serif" font-size="10.00"> reply</text>
<text text-anchor="middle" x="885" y="-601" font-family="Helvetica,sans-Serif" font-size="10.00">proxy_reply</text>
<text text-anchor="middle" x="885" y="-590" font-family="Helvetica,sans-Serif" font-size="10.00">proxy</text>
<text text-anchor="middle" x="885" y="-579" font-family="Helvetica,sans-Serif" font-size="10.00">packet</text>
</g>
<!-- Node18 -->
<g id="node48" class="node"><title>Node18</title>
<a xlink:href="structvalue__pair.html" target="_top" xlink:title="value_pair">
<polygon fill="none" stroke="black" points="493.5,-691.5 493.5,-710.5 554.5,-710.5 554.5,-691.5 493.5,-691.5"/>
<text text-anchor="middle" x="524" y="-698.5" font-family="Helvetica,sans-Serif" font-size="10.00">value_pair</text>
</a>
</g>
<!-- Node18&#45;&gt;Node2 -->
<g id="edge82" class="edge"><title>Node18&#45;&gt;Node2</title>
<path fill="none" stroke="#9a32cd" stroke-dasharray="5,2" d="M564.483,-711.466C651.453,-731.948 861.532,-766.952 984,-665 1008.49,-644.609 1022.88,-542.088 1026.86,-509.772"/>
<polygon fill="#9a32cd" stroke="#9a32cd" points="565.287,-708.06 554.745,-709.111 563.642,-714.864 565.287,-708.06"/>
<text text-anchor="middle" x="795" y="-758" font-family="Helvetica,sans-Serif" font-size="10.00"> password</text>
<text text-anchor="middle" x="795" y="-747" font-family="Helvetica,sans-Serif" font-size="10.00">config_items</text>
<text text-anchor="middle" x="795" y="-736" font-family="Helvetica,sans-Serif" font-size="10.00">username</text>
</g>
<!-- Node18&#45;&gt;Node17 -->
<g id="edge62" class="edge"><title>Node18&#45;&gt;Node17</title>
<path fill="none" stroke="#9a32cd" stroke-dasharray="5,2" d="M551.203,-686.523C588.753,-665.778 656.844,-628.158 688.698,-610.559"/>
<polygon fill="#9a32cd" stroke="#9a32cd" points="549.415,-683.512 542.355,-691.412 552.801,-689.639 549.415,-683.512"/>
<text text-anchor="middle" x="623" y="-662" font-family="Helvetica,sans-Serif" font-size="10.00"> vps</text>
</g>
<!-- Node18&#45;&gt;Node18 -->
<g id="edge68" class="edge"><title>Node18&#45;&gt;Node18</title>
<path fill="none" stroke="#9a32cd" stroke-dasharray="5,2" d="M506.593,-720.4C507.756,-725.315 513.558,-729 524,-729 540.707,-729 545.536,-719.565 538.488,-710.757"/>
<polygon fill="#9a32cd" stroke="#9a32cd" points="509.965,-721.342 509.512,-710.757 503.265,-719.314 509.965,-721.342"/>
<text text-anchor="middle" x="524" y="-732" font-family="Helvetica,sans-Serif" font-size="10.00"> next</text>
</g>
<!-- Node19&#45;&gt;Node18 -->
<g id="edge64" class="edge"><title>Node19&#45;&gt;Node18</title>
<path fill="none" stroke="#9a32cd" stroke-dasharray="5,2" d="M395.527,-721.652C427.288,-716.506 466.882,-710.092 493.442,-705.789"/>
<polygon fill="#9a32cd" stroke="#9a32cd" points="394.828,-718.22 385.516,-723.274 395.947,-725.13 394.828,-718.22"/>
<text text-anchor="middle" x="429" y="-722" font-family="Helvetica,sans-Serif" font-size="10.00"> data</text>
</g>
<!-- Node20 -->
<g id="node54" class="node"><title>Node20</title>
<a xlink:href="structattr__flags.html" target="_top" xlink:title="attr_flags">
<polygon fill="none" stroke="black" points="314.5,-682.5 314.5,-701.5 371.5,-701.5 371.5,-682.5 314.5,-682.5"/>
<text text-anchor="middle" x="343" y="-689.5" font-family="Helvetica,sans-Serif" font-size="10.00">attr_flags</text>
</a>
</g>
<!-- Node20&#45;&gt;Node18 -->
<g id="edge70" class="edge"><title>Node20&#45;&gt;Node18</title>
<path fill="none" stroke="#9a32cd" stroke-dasharray="5,2" d="M381.559,-692.522C402.335,-692.942 428.609,-693.688 452,-695 465.586,-695.762 480.605,-696.977 493.318,-698.115"/>
<polygon fill="#9a32cd" stroke="#9a32cd" points="381.603,-689.022 371.54,-692.336 381.473,-696.021 381.603,-689.022"/>
<text text-anchor="middle" x="429" y="-698" font-family="Helvetica,sans-Serif" font-size="10.00"> flags</text>
</g>
<!-- Node21 -->
<g id="node63" class="node"><title>Node21</title>
<a xlink:href="structrequest__data__t.html" target="_top" xlink:title="request_data_t">
<polygon fill="none" stroke="black" points="844.5,-738.5 844.5,-757.5 925.5,-757.5 925.5,-738.5 844.5,-738.5"/>
<text text-anchor="middle" x="885" y="-745.5" font-family="Helvetica,sans-Serif" font-size="10.00">request_data_t</text>
</a>
</g>
<!-- Node21&#45;&gt;Node2 -->
<g id="edge86" class="edge"><title>Node21&#45;&gt;Node2</title>
<path fill="none" stroke="#9a32cd" stroke-dasharray="5,2" d="M935.942,-745.943C953.339,-742.724 971.59,-736.112 984,-723 1013.97,-691.331 1024.99,-548.149 1027.44,-509.589"/>
<polygon fill="#9a32cd" stroke="#9a32cd" points="935.212,-742.513 925.848,-747.469 936.259,-749.435 935.212,-742.513"/>
<text text-anchor="middle" x="964" y="-746" font-family="Helvetica,sans-Serif" font-size="10.00"> data</text>
</g>
<!-- Node21&#45;&gt;Node21 -->
<g id="edge88" class="edge"><title>Node21&#45;&gt;Node21</title>
<path fill="none" stroke="#9a32cd" stroke-dasharray="5,2" d="M870.636,-767.766C871.764,-772.497 876.552,-776 885,-776 898.863,-776 902.871,-766.565 897.022,-757.757"/>
<polygon fill="#9a32cd" stroke="#9a32cd" points="874.107,-768.292 872.978,-757.757 867.292,-766.697 874.107,-768.292"/>
<text text-anchor="middle" x="885" y="-779" font-family="Helvetica,sans-Serif" font-size="10.00"> next</text>
</g>
<!-- Node22 -->
<g id="node66" class="node"><title>Node22</title>
<a xlink:href="structrlm__rest__t.html" target="_top" xlink:title="rlm_rest_t">
<polygon fill="none" stroke="black" points="677,-105.5 677,-124.5 737,-124.5 737,-105.5 677,-105.5"/>
<text text-anchor="middle" x="707" y="-112.5" font-family="Helvetica,sans-Serif" font-size="10.00">rlm_rest_t</text>
</a>
</g>
<!-- Node22&#45;&gt;Node1 -->
<g id="edge90" class="edge"><title>Node22&#45;&gt;Node1</title>
<path fill="none" stroke="#9a32cd" stroke-dasharray="5,2" d="M747.239,-122.348C800.901,-132.569 900.098,-152.077 984,-172 1037.84,-184.785 1099.81,-201.937 1136.89,-212.465"/>
<polygon fill="#9a32cd" stroke="#9a32cd" points="747.609,-118.856 737.132,-120.43 746.304,-125.733 747.609,-118.856"/>
<text text-anchor="middle" x="964" y="-175" font-family="Helvetica,sans-Serif" font-size="10.00"> instance</text>
</g>
<!-- Node23&#45;&gt;Node22 -->
<g id="edge92" class="edge"><title>Node23&#45;&gt;Node22</title>
<path fill="none" stroke="#9a32cd" stroke-dasharray="5,2" d="M565.309,-23.2572C569.658,-25.0386 573.965,-26.961 578,-29 623.4,-51.9421 671.917,-88.202 693.916,-105.374"/>
<polygon fill="#9a32cd" stroke="#9a32cd" points="566.401,-19.9269 555.811,-19.5922 563.881,-26.4575 566.401,-19.9269"/>
<text text-anchor="middle" x="623" y="-76" font-family="Helvetica,sans-Serif" font-size="10.00"> conn_pool</text>
</g>
<!-- Node24 -->
<g id="node71" class="node"><title>Node24</title>
<a xlink:href="structfr__connection__t.html" target="_top" xlink:title="fr_connection_t">
<polygon fill="none" stroke="black" points="301.5,-0.5 301.5,-19.5 384.5,-19.5 384.5,-0.5 301.5,-0.5"/>
<text text-anchor="middle" x="343" y="-7.5" font-family="Helvetica,sans-Serif" font-size="10.00">fr_connection_t</text>
</a>
</g>
<!-- Node24&#45;&gt;Node23 -->
<g id="edge96" class="edge"><title>Node24&#45;&gt;Node23</title>
<path fill="none" stroke="#9a32cd" stroke-dasharray="5,2" d="M394.78,-10C418.392,-10 446.458,-10 470.304,-10"/>
<polygon fill="#9a32cd" stroke="#9a32cd" points="394.618,-6.5001 384.618,-10 394.618,-13.5001 394.618,-6.5001"/>
<text text-anchor="middle" x="429" y="-24" font-family="Helvetica,sans-Serif" font-size="10.00"> head</text>
<text text-anchor="middle" x="429" y="-13" font-family="Helvetica,sans-Serif" font-size="10.00">tail</text>
</g>
<!-- Node24&#45;&gt;Node24 -->
<g id="edge98" class="edge"><title>Node24&#45;&gt;Node24</title>
<path fill="none" stroke="#9a32cd" stroke-dasharray="5,2" d="M327.075,-29.4C328.138,-34.3146 333.447,-38 343,-38 358.285,-38 362.704,-28.5653 356.255,-19.7571"/>
<polygon fill="#9a32cd" stroke="#9a32cd" points="330.449,-30.3284 329.745,-19.7571 323.703,-28.4604 330.449,-30.3284"/>
<text text-anchor="middle" x="343" y="-52" font-family="Helvetica,sans-Serif" font-size="10.00"> prev</text>
<text text-anchor="middle" x="343" y="-41" font-family="Helvetica,sans-Serif" font-size="10.00">next</text>
</g>
<!-- Node25 -->
<g id="node74" class="node"><title>Node25</title>
<a xlink:href="structrlm__rest__section__t.html" target="_top" xlink:title="rlm_rest_section_t">
<polygon fill="none" stroke="black" points="475.5,-105.5 475.5,-124.5 572.5,-124.5 572.5,-105.5 475.5,-105.5"/>
<text text-anchor="middle" x="524" y="-112.5" font-family="Helvetica,sans-Serif" font-size="10.00">rlm_rest_section_t</text>
</a>
</g>
<!-- Node25&#45;&gt;Node22 -->
<g id="edge100" class="edge"><title>Node25&#45;&gt;Node22</title>
<path fill="none" stroke="#9a32cd" stroke-dasharray="5,2" d="M582.923,-115C614.249,-115 651.585,-115 676.856,-115"/>
<polygon fill="#9a32cd" stroke="#9a32cd" points="582.556,-111.5 572.556,-115 582.556,-118.5 582.556,-111.5"/>
<text text-anchor="middle" x="623" y="-162" font-family="Helvetica,sans-Serif" font-size="10.00"> accounting</text>
<text text-anchor="middle" x="623" y="-151" font-family="Helvetica,sans-Serif" font-size="10.00">postauth</text>
<text text-anchor="middle" x="623" y="-140" font-family="Helvetica,sans-Serif" font-size="10.00">checksimul</text>
<text text-anchor="middle" x="623" y="-129" font-family="Helvetica,sans-Serif" font-size="10.00">authorize</text>
<text text-anchor="middle" x="623" y="-118" font-family="Helvetica,sans-Serif" font-size="10.00">authenticate</text>
</g>
</g>
</svg>
        <g id="navigator" transform="translate(0 0)" fill="#404254">
                <rect fill="#f2f5e9" fill-opacity="0.5" stroke="#606060" stroke-width=".5" x="0" y="0" width="60" height="60"/>
                <use id="zoomplus" xlink:href="#zoomPlus" x="17" y="9" onmousedown="handleZoom(evt,'in')"/>
                <use id="zoomminus" xlink:href="#zoomMin" x="42" y="9" onmousedown="handleZoom(evt,'out')"/>
                <use id="reset" xlink:href="#resetDef" x="30" y="36" onmousedown="handleReset()"/>
                <g id="arrowUp" xlink:href="#dirArrow" transform="translate(30 24)" onmousedown="handlePan(0,-1)">
                  <use xlink:href="#rim" fill="#404040">
                        <set attributeName="fill" to="#808080" begin="arrowUp.mouseover" end="arrowUp.mouseout"/>
                  </use>
                  <path fill="none" stroke="white" stroke-width="1.5" d="M0,-3.0v7 M-2.5,-0.5L0,-3.0L2.5,-0.5"/>
                </g>
                <g id="arrowRight" xlink:href="#dirArrow" transform="rotate(90) translate(36 -43)" onmousedown="handlePan(1,0)">
                  <use xlink:href="#rim" fill="#404040">
                        <set attributeName="fill" to="#808080" begin="arrowRight.mouseover" end="arrowRight.mouseout"/>
                  </use>
                  <path fill="none" stroke="white" stroke-width="1.5" d="M0,-3.0v7 M-2.5,-0.5L0,-3.0L2.5,-0.5"/>
                </g>
                <g id="arrowDown" xlink:href="#dirArrow" transform="rotate(180) translate(-30 -48)" onmousedown="handlePan(0,1)">
                  <use xlink:href="#rim" fill="#404040">
                        <set attributeName="fill" to="#808080" begin="arrowDown.mouseover" end="arrowDown.mouseout"/>
                  </use>
                  <path fill="none" stroke="white" stroke-width="1.5" d="M0,-3.0v7 M-2.5,-0.5L0,-3.0L2.5,-0.5"/>
                </g>
                <g id="arrowLeft" xlink:href="#dirArrow" transform="rotate(270) translate(-36 17)" onmousedown="handlePan(-1,0)">
                  <use xlink:href="#rim" fill="#404040">
                        <set attributeName="fill" to="#808080" begin="arrowLeft.mouseover" end="arrowLeft.mouseout"/>
                  </use>
                  <path fill="none" stroke="white" stroke-width="1.5" d="M0,-3.0v7 M-2.5,-0.5L0,-3.0L2.5,-0.5"/>
                </g>
        </g>
</svg>
