<?xml version="1.0" encoding="UTF-8" standalone="no"?>
<!DOCTYPE svg PUBLIC "-//W3C//DTD SVG 1.1//EN"
 "http://www.w3.org/Graphics/SVG/1.1/DTD/svg11.dtd">
<!-- Generated by graphviz version 2.28.0 (20111211.2114)
 -->
<!-- Title: G Pages: 1 -->
<svg width="219pt" height="176pt"
 viewBox="0.00 0.00 219.00 176.50" xmlns="http://www.w3.org/2000/svg" xmlns:xlink="http://www.w3.org/1999/xlink">
<g id="graph1" class="graph" transform="scale(1 1) rotate(0) translate(4 172.5)">
<title>G</title>
<!-- Node1 -->
<g id="node1" class="node"><title>Node1</title>
<polygon fill="#bfbfbf" stroke="black" points="40,-0.5 40,-19.5 132,-19.5 132,-0.5 40,-0.5"/>
<text text-anchor="middle" x="86" y="-7.5" font-family="Helvetica,sans-Serif" font-size="10.00">radutmp_cache_t</text>
</g>
<!-- Node2 -->
<g id="node2" class="node"><title>Node2</title>
<a xlink:href="structnas__port.html" target="_top" xlink:title="nas_port">
<polygon fill="none" stroke="black" points="0,-68.5 0,-87.5 54,-87.5 54,-68.5 0,-68.5"/>
<text text-anchor="middle" x="27" y="-75.5" font-family="Helvetica,sans-Serif" font-size="10.00">nas_port</text>
</a>
</g>
<!-- Node2&#45;&gt;Node1 -->
<g id="edge2" class="edge"><title>Node2&#45;&gt;Node1</title>
<path fill="none" stroke="#9a32cd" stroke-dasharray="5,2" d="M34.0633,-58.8011C37.3289,-51.8182 41.6764,-44.0752 47,-38 53.4042,-30.6915 62.1906,-24.384 69.8025,-19.7075"/>
<polygon fill="#9a32cd" stroke="#9a32cd" points="30.7568,-57.633 30.0653,-68.2052 37.1988,-60.3717 30.7568,-57.633"/>
<text text-anchor="middle" x="74.5" y="-41.5" font-family="Helvetica,sans-Serif" font-size="10.00"> free_offsets</text>
</g>
<!-- Node2&#45;&gt;Node2 -->
<g id="edge4" class="edge"><title>Node2&#45;&gt;Node2</title>
<path fill="none" stroke="#9a32cd" stroke-dasharray="5,2" d="M64.5105,-83.4948C69.0382,-82.5024 72,-80.6708 72,-78 72,-73.6172 64.0239,-71.4943 54.2408,-71.6312"/>
<polygon fill="#9a32cd" stroke="#9a32cd" points="63.9079,-80.0333 54.2408,-84.3688 64.5016,-87.0081 63.9079,-80.0333"/>
<text text-anchor="middle" x="83" y="-75.5" font-family="Helvetica,sans-Serif" font-size="10.00"> next</text>
</g>
<!-- Node3 -->
<g id="node5" class="node"><title>Node3</title>
<a xlink:href="structrbtree__t.html" target="_top" xlink:title="rbtree_t">
<polygon fill="none" stroke="black" points="112,-68.5 112,-87.5 162,-87.5 162,-68.5 112,-68.5"/>
<text text-anchor="middle" x="137" y="-75.5" font-family="Helvetica,sans-Serif" font-size="10.00">rbtree_t</text>
</a>
</g>
<!-- Node3&#45;&gt;Node1 -->
<g id="edge6" class="edge"><title>Node3&#45;&gt;Node1</title>
<path fill="none" stroke="#9a32cd" stroke-dasharray="5,2" d="M124.103,-60.3101C114.161,-47.4437 100.804,-30.1583 92.8318,-19.8411"/>
<polygon fill="#9a32cd" stroke="#9a32cd" points="121.449,-62.5989 130.333,-68.3717 126.988,-58.3187 121.449,-62.5989"/>
<text text-anchor="middle" x="139" y="-41.5" font-family="Helvetica,sans-Serif" font-size="10.00"> nas_ports</text>
</g>
<!-- Node4 -->
<g id="node7" class="node"><title>Node4</title>
<a xlink:href="structrbnode__t.html" target="_top" xlink:title="rbnode_t">
<polygon fill="none" stroke="black" points="110,-142.5 110,-161.5 164,-161.5 164,-142.5 110,-142.5"/>
<text text-anchor="middle" x="137" y="-149.5" font-family="Helvetica,sans-Serif" font-size="10.00">rbnode_t</text>
</a>
</g>
<!-- Node4&#45;&gt;Node3 -->
<g id="edge8" class="edge"><title>Node4&#45;&gt;Node3</title>
<path fill="none" stroke="#9a32cd" stroke-dasharray="5,2" d="M137,-132.156C137,-117.712 137,-98.4594 137,-87.531"/>
<polygon fill="#9a32cd" stroke="#9a32cd" points="133.5,-132.458 137,-142.458 140.5,-132.458 133.5,-132.458"/>
<text text-anchor="middle" x="149.5" y="-109.5" font-family="Helvetica,sans-Serif" font-size="10.00"> Root</text>
</g>
<!-- Node4&#45;&gt;Node4 -->
<g id="edge10" class="edge"><title>Node4&#45;&gt;Node4</title>
<path fill="none" stroke="#9a32cd" stroke-dasharray="5,2" d="M174.51,-158.464C179.038,-157.297 182,-155.142 182,-152 182,-146.844 174.024,-144.346 164.241,-144.507"/>
<polygon fill="#9a32cd" stroke="#9a32cd" points="173.842,-155.014 164.241,-159.493 174.54,-161.979 173.842,-155.014"/>
<text text-anchor="middle" x="196.5" y="-160.5" font-family="Helvetica,sans-Serif" font-size="10.00"> Left</text>
<text text-anchor="middle" x="196.5" y="-149.5" font-family="Helvetica,sans-Serif" font-size="10.00">Right</text>
<text text-anchor="middle" x="196.5" y="-138.5" font-family="Helvetica,sans-Serif" font-size="10.00">Parent</text>
</g>
</g>
</svg>
