<?xml version="1.0" encoding="UTF-8" standalone="no"?>
<!DOCTYPE svg PUBLIC "-//W3C//DTD SVG 1.1//EN"
 "http://www.w3.org/Graphics/SVG/1.1/DTD/svg11.dtd">
<!-- Generated by graphviz version 2.28.0 (20111211.2114)
 -->
<!-- Title: G Pages: 1 -->
<!--zoomable-->
<svg id="main" version="1.1" xmlns="http://www.w3.org/2000/svg" xmlns:xlink="http://www.w3.org/1999/xlink" xml:space="preserve" onload="init(evt)">
        <defs>
                <circle id="rim" cx="0" cy="0" r="7"/>
                <circle id="rim2" cx="0" cy="0" r="3.5"/>
                <g id="zoomPlus">
                        <use xlink:href="#rim" fill="#404040">
                                <set attributeName="fill" to="#808080" begin="zoomplus.mouseover" end="zoomplus.mouseout"/>
                        </use>
                        <path d="M-4,0h8M0,-4v8" fill="none" stroke="white" stroke-width="1.5" pointer-events="none"/>
                </g>
                <g id="zoomMin">
                        <use xlink:href="#rim" fill="#404040">
                                <set attributeName="fill" to="#808080" begin="zoomminus.mouseover" end="zoomminus.mouseout"/>
                        </use>
                        <path d="M-4,0h8" fill="none" stroke="white" stroke-width="1.5" pointer-events="none"/>
                </g>
                <g id="dirArrow">
                        <path fill="none" stroke="white" stroke-width="1.5" d="M0,-3.0v7 M-2.5,-0.5L0,-3.0L2.5,-0.5"/>
                </g>
               <g id="resetDef">
                       <use xlink:href="#rim2" fill="#404040">
                               <set attributeName="fill" to="#808080" begin="reset.mouseover" end="reset.mouseout"/>
                       </use>
               </g>
        </defs>

<script type="text/javascript">
var viewWidth = 1012;
var viewHeight = 636;
var sectionId = 'dynsection-0';
</script>
<script xlink:href="svgpan.js"/>
<svg id="graph" class="graph">
<g id="viewport">
<title>G</title>
<!-- Node1 -->
<g id="node1" class="node"><title>Node1</title>
<polygon fill="#bfbfbf" stroke="black" points="920.5,-268.5 920.5,-287.5 1003.5,-287.5 1003.5,-268.5 920.5,-268.5"/>
<text text-anchor="middle" x="962" y="-275.5" font-family="Helvetica,sans-Serif" font-size="10.00">listen_socket_t</text>
</g>
<!-- Node1&#45;&gt;Node1 -->
<g id="edge60" class="edge"><title>Node1&#45;&gt;Node1</title>
<path fill="none" stroke="#9a32cd" stroke-dasharray="5,2" d="M948.372,-297.766C949.443,-302.497 953.985,-306 962,-306 975.152,-306 978.954,-296.565 973.406,-287.757"/>
<polygon fill="#9a32cd" stroke="#9a32cd" points="951.844,-298.278 950.594,-287.757 945.01,-296.761 951.844,-298.278"/>
<text text-anchor="middle" x="962" y="-309" font-family="Helvetica,sans-Serif" font-size="10.00"> parent</text>
</g>
<!-- Node2 -->
<g id="node2" class="node"><title>Node2</title>
<a xlink:href="structradclient.html" target="_top" xlink:title="radclient">
<polygon fill="none" stroke="black" points="802.5,-373.5 802.5,-392.5 855.5,-392.5 855.5,-373.5 802.5,-373.5"/>
<text text-anchor="middle" x="829" y="-380.5" font-family="Helvetica,sans-Serif" font-size="10.00">radclient</text>
</a>
</g>
<!-- Node2&#45;&gt;Node1 -->
<g id="edge2" class="edge"><title>Node2&#45;&gt;Node1</title>
<path fill="none" stroke="#9a32cd" stroke-dasharray="5,2" d="M852.462,-367.699C866.9,-357.642 885.898,-343.986 902,-331 919.792,-316.651 939.318,-298.626 950.848,-287.726"/>
<polygon fill="#9a32cd" stroke="#9a32cd" points="850.366,-364.894 844.129,-373.458 854.345,-370.652 850.366,-364.894"/>
<text text-anchor="middle" x="888" y="-354" font-family="Helvetica,sans-Serif" font-size="10.00"> client</text>
</g>
<!-- Node3 -->
<g id="node4" class="node"><title>Node3</title>
<a xlink:href="structhome__pool__t.html" target="_top" xlink:title="home_pool_t">
<polygon fill="none" stroke="black" points="647,-430.5 647,-449.5 719,-449.5 719,-430.5 647,-430.5"/>
<text text-anchor="middle" x="683" y="-437.5" font-family="Helvetica,sans-Serif" font-size="10.00">home_pool_t</text>
</a>
</g>
<!-- Node3&#45;&gt;Node2 -->
<g id="edge4" class="edge"><title>Node3&#45;&gt;Node2</title>
<path fill="none" stroke="#9a32cd" stroke-dasharray="5,2" d="M729.262,-431.175C746.816,-426.887 766.792,-420.914 784,-413 795.76,-407.592 807.816,-399.126 816.328,-392.565"/>
<polygon fill="#9a32cd" stroke="#9a32cd" points="728.192,-427.831 719.246,-433.508 729.78,-434.648 728.192,-427.831"/>
<text text-anchor="middle" x="762" y="-431" font-family="Helvetica,sans-Serif" font-size="10.00"> coa_pool</text>
</g>
<!-- Node4 -->
<g id="node6" class="node"><title>Node4</title>
<a xlink:href="structhome__server.html" target="_top" xlink:title="home_server">
<polygon fill="none" stroke="black" points="496.5,-335.5 496.5,-354.5 569.5,-354.5 569.5,-335.5 496.5,-335.5"/>
<text text-anchor="middle" x="533" y="-342.5" font-family="Helvetica,sans-Serif" font-size="10.00">home_server</text>
</a>
</g>
<!-- Node4&#45;&gt;Node1 -->
<g id="edge64" class="edge"><title>Node4&#45;&gt;Node1</title>
<path fill="none" stroke="#9a32cd" stroke-dasharray="5,2" d="M579.917,-339.734C649.773,-331.419 786.799,-313.918 902,-292 908.826,-290.701 916.053,-289.142 923.022,-287.542"/>
<polygon fill="#9a32cd" stroke="#9a32cd" points="579.221,-336.292 569.701,-340.941 580.043,-343.243 579.221,-336.292"/>
<text text-anchor="middle" x="762" y="-321" font-family="Helvetica,sans-Serif" font-size="10.00"> home</text>
</g>
<!-- Node4&#45;&gt;Node2 -->
<g id="edge38" class="edge"><title>Node4&#45;&gt;Node2</title>
<path fill="none" stroke="#9a32cd" stroke-dasharray="5,2" d="M579.751,-350.913C642.362,-359.006 752.633,-373.259 802.38,-379.689"/>
<polygon fill="#9a32cd" stroke="#9a32cd" points="580.122,-347.432 569.756,-349.622 579.225,-354.375 580.122,-347.432"/>
<text text-anchor="middle" x="683" y="-372" font-family="Helvetica,sans-Serif" font-size="10.00"> coa_server</text>
</g>
<!-- Node4&#45;&gt;Node3 -->
<g id="edge6" class="edge"><title>Node4&#45;&gt;Node3</title>
<path fill="none" stroke="#9a32cd" stroke-dasharray="5,2" d="M543.903,-363.442C553.259,-379.141 568.718,-401.137 588,-414 605.466,-425.652 628.066,-432.116 646.729,-435.684"/>
<polygon fill="#9a32cd" stroke="#9a32cd" points="546.871,-361.581 538.886,-354.618 540.786,-365.041 546.871,-361.581"/>
<text text-anchor="middle" x="607" y="-444" font-family="Helvetica,sans-Serif" font-size="10.00"> fallback</text>
<text text-anchor="middle" x="607" y="-433" font-family="Helvetica,sans-Serif" font-size="10.00">servers</text>
</g>
<!-- Node5 -->
<g id="node8" class="node"><title>Node5</title>
<a xlink:href="structconf__part.html" target="_top" xlink:title="conf_part">
<polygon fill="none" stroke="black" points="314.5,-507.5 314.5,-526.5 371.5,-526.5 371.5,-507.5 314.5,-507.5"/>
<text text-anchor="middle" x="343" y="-514.5" font-family="Helvetica,sans-Serif" font-size="10.00">conf_part</text>
</a>
</g>
<!-- Node5&#45;&gt;Node2 -->
<g id="edge42" class="edge"><title>Node5&#45;&gt;Node2</title>
<path fill="none" stroke="#9a32cd" stroke-dasharray="5,2" d="M381.628,-523.704C451.773,-534.446 605.91,-549.698 722,-501 774.058,-479.162 810.714,-416.632 823.254,-392.584"/>
<polygon fill="#9a32cd" stroke="#9a32cd" points="381.932,-520.208 371.506,-522.095 380.833,-527.121 381.932,-520.208"/>
<text text-anchor="middle" x="607" y="-534" font-family="Helvetica,sans-Serif" font-size="10.00"> cs</text>
</g>
<!-- Node5&#45;&gt;Node3 -->
<g id="edge36" class="edge"><title>Node5&#45;&gt;Node3</title>
<path fill="none" stroke="#9a32cd" stroke-dasharray="5,2" d="M381.616,-509.676C435.85,-498.933 539.046,-477.802 626,-456 633.748,-454.057 642.047,-451.79 649.819,-449.583"/>
<polygon fill="#9a32cd" stroke="#9a32cd" points="380.892,-506.252 371.758,-511.621 382.247,-513.119 380.892,-506.252"/>
<text text-anchor="middle" x="533" y="-488" font-family="Helvetica,sans-Serif" font-size="10.00"> cs</text>
</g>
<!-- Node5&#45;&gt;Node4 -->
<g id="edge8" class="edge"><title>Node5&#45;&gt;Node4</title>
<path fill="none" stroke="#9a32cd" stroke-dasharray="5,2" d="M362.095,-500.445C400.825,-465.011 490.727,-382.76 521.47,-354.633"/>
<polygon fill="#9a32cd" stroke="#9a32cd" points="359.662,-497.927 354.646,-507.26 364.387,-503.092 359.662,-497.927"/>
<text text-anchor="middle" x="442" y="-459" font-family="Helvetica,sans-Serif" font-size="10.00"> cs</text>
</g>
<!-- Node5&#45;&gt;Node5 -->
<g id="edge10" class="edge"><title>Node5&#45;&gt;Node5</title>
<path fill="none" stroke="#9a32cd" stroke-dasharray="5,2" d="M326.334,-536.4C327.447,-541.315 333.002,-545 343,-545 358.996,-545 363.62,-535.565 356.872,-526.757"/>
<polygon fill="#9a32cd" stroke="#9a32cd" points="329.707,-537.336 329.128,-526.757 322.983,-535.388 329.707,-537.336"/>
<text text-anchor="middle" x="343" y="-548" font-family="Helvetica,sans-Serif" font-size="10.00"> template</text>
</g>
<!-- Node6 -->
<g id="node11" class="node"><title>Node6</title>
<a xlink:href="structconf__item.html" target="_top" xlink:title="conf_item">
<polygon fill="none" stroke="black" points="503.5,-579.5 503.5,-598.5 562.5,-598.5 562.5,-579.5 503.5,-579.5"/>
<text text-anchor="middle" x="533" y="-586.5" font-family="Helvetica,sans-Serif" font-size="10.00">conf_item</text>
</a>
</g>
<!-- Node5&#45;&gt;Node6 -->
<g id="edge14" class="edge"><title>Node5&#45;&gt;Node6</title>
<path fill="none" stroke="#9a32cd" stroke-dasharray="5,2" d="M369.989,-531.301C380.907,-536.964 393.868,-543.243 406,-548 437.033,-560.169 446.351,-558.538 478,-569 487.682,-572.2 498.221,-576.026 507.398,-579.47"/>
<polygon fill="#9a32cd" stroke="#9a32cd" points="371.467,-528.124 360.992,-526.538 368.192,-534.31 371.467,-528.124"/>
<text text-anchor="middle" x="442" y="-572" font-family="Helvetica,sans-Serif" font-size="10.00"> parent</text>
</g>
<!-- Node6&#45;&gt;Node5 -->
<g id="edge12" class="edge"><title>Node6&#45;&gt;Node5</title>
<path fill="none" stroke="#9a32cd" stroke-dasharray="5,2" d="M493.114,-594.031C467.259,-595.689 433.189,-594.544 406,-582 379.944,-569.979 359.314,-541.659 349.771,-526.68"/>
<polygon fill="#9a32cd" stroke="#9a32cd" points="493.607,-597.503 503.293,-593.209 493.044,-590.526 493.607,-597.503"/>
<text text-anchor="middle" x="442" y="-619" font-family="Helvetica,sans-Serif" font-size="10.00"> tail</text>
<text text-anchor="middle" x="442" y="-608" font-family="Helvetica,sans-Serif" font-size="10.00">item</text>
<text text-anchor="middle" x="442" y="-597" font-family="Helvetica,sans-Serif" font-size="10.00">children</text>
</g>
<!-- Node6&#45;&gt;Node6 -->
<g id="edge16" class="edge"><title>Node6&#45;&gt;Node6</title>
<path fill="none" stroke="#9a32cd" stroke-dasharray="5,2" d="M519.372,-608.766C520.443,-613.497 524.985,-617 533,-617 546.152,-617 549.954,-607.565 544.406,-598.757"/>
<polygon fill="#9a32cd" stroke="#9a32cd" points="522.844,-609.278 521.594,-598.757 516.01,-607.761 522.844,-609.278"/>
<text text-anchor="middle" x="533" y="-620" font-family="Helvetica,sans-Serif" font-size="10.00"> next</text>
</g>
<!-- Node7 -->
<g id="node15" class="node"><title>Node7</title>
<a xlink:href="structCONF__PARSER.html" target="_top" xlink:title="CONF_PARSER">
<polygon fill="none" stroke="black" points="116,-507.5 116,-526.5 208,-526.5 208,-507.5 116,-507.5"/>
<text text-anchor="middle" x="162" y="-514.5" font-family="Helvetica,sans-Serif" font-size="10.00">CONF_PARSER</text>
</a>
</g>
<!-- Node7&#45;&gt;Node5 -->
<g id="edge18" class="edge"><title>Node7&#45;&gt;Node5</title>
<path fill="none" stroke="#9a32cd" stroke-dasharray="5,2" d="M218.261,-517C250.16,-517 288.893,-517 314.43,-517"/>
<polygon fill="#9a32cd" stroke="#9a32cd" points="218.169,-513.5 208.169,-517 218.169,-520.5 218.169,-513.5"/>
<text text-anchor="middle" x="253" y="-520" font-family="Helvetica,sans-Serif" font-size="10.00"> variables</text>
</g>
<!-- Node8 -->
<g id="node17" class="node"><title>Node8</title>
<a xlink:href="structrbtree__t.html" target="_top" xlink:title="rbtree_t">
<polygon fill="none" stroke="black" points="137,-304.5 137,-323.5 187,-323.5 187,-304.5 137,-304.5"/>
<text text-anchor="middle" x="162" y="-311.5" font-family="Helvetica,sans-Serif" font-size="10.00">rbtree_t</text>
</a>
</g>
<!-- Node8&#45;&gt;Node5 -->
<g id="edge20" class="edge"><title>Node8&#45;&gt;Node5</title>
<path fill="none" stroke="#9a32cd" stroke-dasharray="5,2" d="M178.049,-331.067C214.208,-372.073 305.071,-475.119 333.416,-507.266"/>
<polygon fill="#9a32cd" stroke="#9a32cd" points="180.632,-328.705 171.393,-323.519 175.382,-333.334 180.632,-328.705"/>
<text text-anchor="middle" x="253" y="-481" font-family="Helvetica,sans-Serif" font-size="10.00"> data_tree</text>
<text text-anchor="middle" x="253" y="-470" font-family="Helvetica,sans-Serif" font-size="10.00">name2_tree</text>
<text text-anchor="middle" x="253" y="-459" font-family="Helvetica,sans-Serif" font-size="10.00">section_tree</text>
<text text-anchor="middle" x="253" y="-448" font-family="Helvetica,sans-Serif" font-size="10.00">pair_tree</text>
</g>
<!-- Node18 -->
<g id="node52" class="node"><title>Node18</title>
<a xlink:href="structradclient__list.html" target="_top" xlink:title="radclient_list">
<polygon fill="none" stroke="black" points="406.5,-241.5 406.5,-260.5 477.5,-260.5 477.5,-241.5 406.5,-241.5"/>
<text text-anchor="middle" x="442" y="-248.5" font-family="Helvetica,sans-Serif" font-size="10.00">radclient_list</text>
</a>
</g>
<!-- Node8&#45;&gt;Node18 -->
<g id="edge72" class="edge"><title>Node8&#45;&gt;Node18</title>
<path fill="none" stroke="#9a32cd" stroke-dasharray="5,2" d="M197.16,-306.259C250.456,-294.181 352.821,-270.983 406.39,-258.843"/>
<polygon fill="#9a32cd" stroke="#9a32cd" points="196.163,-302.896 187.184,-308.519 197.711,-309.723 196.163,-302.896"/>
<text text-anchor="middle" x="253" y="-302" font-family="Helvetica,sans-Serif" font-size="10.00"> trees</text>
</g>
<!-- Node9 -->
<g id="node19" class="node"><title>Node9</title>
<a xlink:href="structrbnode__t.html" target="_top" xlink:title="rbnode_t">
<polygon fill="none" stroke="black" points="0,-304.5 0,-323.5 54,-323.5 54,-304.5 0,-304.5"/>
<text text-anchor="middle" x="27" y="-311.5" font-family="Helvetica,sans-Serif" font-size="10.00">rbnode_t</text>
</a>
</g>
<!-- Node9&#45;&gt;Node8 -->
<g id="edge22" class="edge"><title>Node9&#45;&gt;Node8</title>
<path fill="none" stroke="#9a32cd" stroke-dasharray="5,2" d="M64.3432,-314C87.3013,-314 116.343,-314 136.572,-314"/>
<polygon fill="#9a32cd" stroke="#9a32cd" points="64.2766,-310.5 54.2765,-314 64.2765,-317.5 64.2766,-310.5"/>
<text text-anchor="middle" x="85" y="-317" font-family="Helvetica,sans-Serif" font-size="10.00"> Root</text>
</g>
<!-- Node9&#45;&gt;Node9 -->
<g id="edge24" class="edge"><title>Node9&#45;&gt;Node9</title>
<path fill="none" stroke="#9a32cd" stroke-dasharray="5,2" d="M16.3189,-333.766C17.1578,-338.497 20.7182,-342 27,-342 37.3086,-342 40.2884,-332.565 35.9395,-323.757"/>
<polygon fill="#9a32cd" stroke="#9a32cd" points="19.7944,-334.209 18.0605,-323.757 12.898,-333.009 19.7944,-334.209"/>
<text text-anchor="middle" x="27" y="-367" font-family="Helvetica,sans-Serif" font-size="10.00"> Left</text>
<text text-anchor="middle" x="27" y="-356" font-family="Helvetica,sans-Serif" font-size="10.00">Right</text>
<text text-anchor="middle" x="27" y="-345" font-family="Helvetica,sans-Serif" font-size="10.00">Parent</text>
</g>
<!-- Node10 -->
<g id="node22" class="node"><title>Node10</title>
<a xlink:href="structfr__socket__limit__t.html" target="_top" xlink:title="fr_socket_limit_t">
<polygon fill="none" stroke="black" points="298.5,-395.5 298.5,-414.5 387.5,-414.5 387.5,-395.5 298.5,-395.5"/>
<text text-anchor="middle" x="343" y="-402.5" font-family="Helvetica,sans-Serif" font-size="10.00">fr_socket_limit_t</text>
</a>
</g>
<!-- Node10&#45;&gt;Node1 -->
<g id="edge62" class="edge"><title>Node10&#45;&gt;Node1</title>
<path fill="none" stroke="#9a32cd" stroke-dasharray="5,2" d="M383.309,-417.62C451.945,-438.087 598.146,-474.724 722,-459 811.33,-447.659 840.707,-431.967 902,-366 925.663,-340.532 946.545,-304.704 955.854,-287.695"/>
<polygon fill="#9a32cd" stroke="#9a32cd" points="383.951,-414.157 373.365,-414.605 381.92,-420.856 383.951,-414.157"/>
<text text-anchor="middle" x="683" y="-465" font-family="Helvetica,sans-Serif" font-size="10.00"> limit</text>
</g>
<!-- Node10&#45;&gt;Node2 -->
<g id="edge40" class="edge"><title>Node10&#45;&gt;Node2</title>
<path fill="none" stroke="#9a32cd" stroke-dasharray="5,2" d="M397.981,-404.209C481.033,-402.7 645.111,-398.56 784,-388 789.979,-387.545 796.4,-386.904 802.437,-386.231"/>
<polygon fill="#9a32cd" stroke="#9a32cd" points="397.715,-400.713 387.778,-404.388 397.838,-407.712 397.715,-400.713"/>
<text text-anchor="middle" x="607" y="-401" font-family="Helvetica,sans-Serif" font-size="10.00"> limit</text>
</g>
<!-- Node10&#45;&gt;Node4 -->
<g id="edge26" class="edge"><title>Node10&#45;&gt;Node4</title>
<path fill="none" stroke="#9a32cd" stroke-dasharray="5,2" d="M356.669,-387.062C367.825,-372.941 385.467,-354.303 406,-346 434.798,-334.355 470.416,-335.321 496.427,-338.49"/>
<polygon fill="#9a32cd" stroke="#9a32cd" points="353.808,-385.043 350.593,-395.139 359.401,-389.252 353.808,-385.043"/>
<text text-anchor="middle" x="442" y="-349" font-family="Helvetica,sans-Serif" font-size="10.00"> limit</text>
</g>
<!-- Node11 -->
<g id="node24" class="node"><title>Node11</title>
<a xlink:href="structfr__event__t.html" target="_top" xlink:title="fr_event_t">
<polygon fill="none" stroke="black" points="313,-296.5 313,-315.5 373,-315.5 373,-296.5 313,-296.5"/>
<text text-anchor="middle" x="343" y="-303.5" font-family="Helvetica,sans-Serif" font-size="10.00">fr_event_t</text>
</a>
</g>
<!-- Node11&#45;&gt;Node1 -->
<g id="edge66" class="edge"><title>Node11&#45;&gt;Node1</title>
<path fill="none" stroke="#9a32cd" stroke-dasharray="5,2" d="M383.199,-296.71C421.056,-288.561 480.12,-278 532,-278 532,-278 532,-278 830,-278 860.248,-278 894.425,-278 920.284,-278"/>
<polygon fill="#9a32cd" stroke="#9a32cd" points="382.12,-293.364 373.108,-298.934 383.627,-300.2 382.12,-293.364"/>
<text text-anchor="middle" x="683" y="-281" font-family="Helvetica,sans-Serif" font-size="10.00"> ev</text>
</g>
<!-- Node11&#45;&gt;Node4 -->
<g id="edge28" class="edge"><title>Node11&#45;&gt;Node4</title>
<path fill="none" stroke="#9a32cd" stroke-dasharray="5,2" d="M383.481,-302.665C410.645,-301.594 447.232,-302.595 478,-312 493.761,-316.818 509.591,-327.319 519.999,-335.19"/>
<polygon fill="#9a32cd" stroke="#9a32cd" points="383.008,-299.185 373.198,-303.187 383.362,-306.176 383.008,-299.185"/>
<text text-anchor="middle" x="442" y="-315" font-family="Helvetica,sans-Serif" font-size="10.00"> ev</text>
</g>
<!-- Node11&#45;&gt;Node11 -->
<g id="edge30" class="edge"><title>Node11&#45;&gt;Node11</title>
<path fill="none" stroke="#9a32cd" stroke-dasharray="5,2" d="M326.334,-325.4C327.447,-330.315 333.002,-334 343,-334 358.996,-334 363.62,-324.565 356.872,-315.757"/>
<polygon fill="#9a32cd" stroke="#9a32cd" points="329.707,-326.336 329.128,-315.757 322.983,-324.388 329.707,-326.336"/>
<text text-anchor="middle" x="343" y="-337" font-family="Helvetica,sans-Serif" font-size="10.00"> ev_p</text>
</g>
<!-- Node12 -->
<g id="node27" class="node"><title>Node12</title>
<a xlink:href="structfr__ipaddr__t.html" target="_top" xlink:title="fr_ipaddr_t">
<polygon fill="none" stroke="black" points="312,-125.5 312,-144.5 374,-144.5 374,-125.5 312,-125.5"/>
<text text-anchor="middle" x="343" y="-132.5" font-family="Helvetica,sans-Serif" font-size="10.00">fr_ipaddr_t</text>
</a>
</g>
<!-- Node12&#45;&gt;Node1 -->
<g id="edge68" class="edge"><title>Node12&#45;&gt;Node1</title>
<path fill="none" stroke="#9a32cd" stroke-dasharray="5,2" d="M384.452,-135C422.524,-135 481.133,-135 532,-135 532,-135 532,-135 830,-135 902.388,-135 945.586,-235.863 957.566,-268.171"/>
<polygon fill="#9a32cd" stroke="#9a32cd" points="384.282,-131.5 374.282,-135 384.282,-138.5 384.282,-131.5"/>
<text text-anchor="middle" x="683" y="-149" font-family="Helvetica,sans-Serif" font-size="10.00"> other_ipaddr</text>
<text text-anchor="middle" x="683" y="-138" font-family="Helvetica,sans-Serif" font-size="10.00">my_ipaddr</text>
</g>
<!-- Node12&#45;&gt;Node2 -->
<g id="edge44" class="edge"><title>Node12&#45;&gt;Node2</title>
<path fill="none" stroke="#9a32cd" stroke-dasharray="5,2" d="M383.97,-145.68C468.431,-168.587 662.203,-223.033 722,-256 753.495,-273.364 760.784,-280.533 784,-308 801.834,-329.099 816.655,-358.358 823.657,-373.329"/>
<polygon fill="#9a32cd" stroke="#9a32cd" points="384.795,-142.277 374.228,-143.046 382.968,-149.035 384.795,-142.277"/>
<text text-anchor="middle" x="607" y="-220" font-family="Helvetica,sans-Serif" font-size="10.00"> ipaddr</text>
</g>
<!-- Node12&#45;&gt;Node4 -->
<g id="edge32" class="edge"><title>Node12&#45;&gt;Node4</title>
<path fill="none" stroke="#9a32cd" stroke-dasharray="5,2" d="M360.011,-151.971C371.767,-163.559 388.651,-178.479 406,-188 435.333,-204.098 453.368,-187.354 478,-210 516.095,-245.024 527.806,-310.524 530.96,-335.231"/>
<polygon fill="#9a32cd" stroke="#9a32cd" points="362.257,-149.263 352.748,-144.589 357.267,-154.172 362.257,-149.263"/>
<text text-anchor="middle" x="442" y="-224" font-family="Helvetica,sans-Serif" font-size="10.00"> ipaddr</text>
<text text-anchor="middle" x="442" y="-213" font-family="Helvetica,sans-Serif" font-size="10.00">src_ipaddr</text>
</g>
<!-- Node14 -->
<g id="node36" class="node"><title>Node14</title>
<a xlink:href="structradius__packet.html" target="_top" xlink:title="radius_packet">
<polygon fill="none" stroke="black" points="644.5,-75.5 644.5,-94.5 721.5,-94.5 721.5,-75.5 644.5,-75.5"/>
<text text-anchor="middle" x="683" y="-82.5" font-family="Helvetica,sans-Serif" font-size="10.00">radius_packet</text>
</a>
</g>
<!-- Node12&#45;&gt;Node14 -->
<g id="edge58" class="edge"><title>Node12&#45;&gt;Node14</title>
<path fill="none" stroke="#9a32cd" stroke-dasharray="5,2" d="M383.824,-123.751C414.29,-115.59 457.477,-104.974 496,-99 547.041,-91.0852 606.683,-87.5984 644.395,-86.0943"/>
<polygon fill="#9a32cd" stroke="#9a32cd" points="382.74,-120.419 374.005,-126.414 384.572,-127.174 382.74,-120.419"/>
<text text-anchor="middle" x="533" y="-113" font-family="Helvetica,sans-Serif" font-size="10.00"> dst_ipaddr</text>
<text text-anchor="middle" x="533" y="-102" font-family="Helvetica,sans-Serif" font-size="10.00">src_ipaddr</text>
</g>
<!-- Node13 -->
<g id="node29" class="node"><title>Node13</title>
<a xlink:href="structin6__addr.html" target="_top" xlink:title="in6_addr">
<polygon fill="none" stroke="black" points="135.5,-52.5 135.5,-71.5 188.5,-71.5 188.5,-52.5 135.5,-52.5"/>
<text text-anchor="middle" x="162" y="-59.5" font-family="Helvetica,sans-Serif" font-size="10.00">in6_addr</text>
</a>
</g>
<!-- Node13&#45;&gt;Node12 -->
<g id="edge34" class="edge"><title>Node13&#45;&gt;Node12</title>
<path fill="none" stroke="#9a32cd" stroke-dasharray="5,2" d="M195.857,-75.3997C231.418,-89.9022 287.233,-112.665 318.593,-125.454"/>
<polygon fill="#9a32cd" stroke="#9a32cd" points="196.982,-72.0789 186.401,-71.5435 194.339,-78.5606 196.982,-72.0789"/>
<text text-anchor="middle" x="253" y="-112" font-family="Helvetica,sans-Serif" font-size="10.00"> ip6addr</text>
</g>
<!-- Node16 -->
<g id="node40" class="node"><title>Node16</title>
<a xlink:href="unionvalue__pair__data.html" target="_top" xlink:title="value_pair_data">
<polygon fill="none" stroke="black" points="300.5,-0.5 300.5,-19.5 385.5,-19.5 385.5,-0.5 300.5,-0.5"/>
<text text-anchor="middle" x="343" y="-7.5" font-family="Helvetica,sans-Serif" font-size="10.00">value_pair_data</text>
</a>
</g>
<!-- Node13&#45;&gt;Node16 -->
<g id="edge52" class="edge"><title>Node13&#45;&gt;Node16</title>
<path fill="none" stroke="#9a32cd" stroke-dasharray="5,2" d="M198.535,-51.6769C230.721,-42.3269 277.764,-28.6606 309.104,-19.5565"/>
<polygon fill="#9a32cd" stroke="#9a32cd" points="197.273,-48.3988 188.646,-54.5497 199.226,-55.121 197.273,-48.3988"/>
<text text-anchor="middle" x="253" y="-47" font-family="Helvetica,sans-Serif" font-size="10.00"> ipv6addr</text>
</g>
<!-- Node14&#45;&gt;Node1 -->
<g id="edge46" class="edge"><title>Node14&#45;&gt;Node1</title>
<path fill="none" stroke="#9a32cd" stroke-dasharray="5,2" d="M731.764,-79.3645C780.503,-76.3892 855.411,-79.8882 902,-121 947.631,-161.266 958.08,-240.429 960.378,-268.139"/>
<polygon fill="#9a32cd" stroke="#9a32cd" points="731.502,-75.8742 721.781,-80.0865 732.007,-82.856 731.502,-75.8742"/>
<text text-anchor="middle" x="829" y="-96" font-family="Helvetica,sans-Serif" font-size="10.00"> packet</text>
</g>
<!-- Node15 -->
<g id="node38" class="node"><title>Node15</title>
<a xlink:href="structvalue__pair.html" target="_top" xlink:title="value_pair">
<polygon fill="none" stroke="black" points="502.5,-0.5 502.5,-19.5 563.5,-19.5 563.5,-0.5 502.5,-0.5"/>
<text text-anchor="middle" x="533" y="-7.5" font-family="Helvetica,sans-Serif" font-size="10.00">value_pair</text>
</a>
</g>
<!-- Node15&#45;&gt;Node14 -->
<g id="edge48" class="edge"><title>Node15&#45;&gt;Node14</title>
<path fill="none" stroke="#9a32cd" stroke-dasharray="5,2" d="M562.034,-24.2062C591.615,-39.1969 637.423,-62.4105 663.028,-75.3856"/>
<polygon fill="#9a32cd" stroke="#9a32cd" points="563.548,-21.0497 553.045,-19.6514 560.383,-27.2938 563.548,-21.0497"/>
<text text-anchor="middle" x="607" y="-59" font-family="Helvetica,sans-Serif" font-size="10.00"> vps</text>
</g>
<!-- Node15&#45;&gt;Node15 -->
<g id="edge54" class="edge"><title>Node15&#45;&gt;Node15</title>
<path fill="none" stroke="#9a32cd" stroke-dasharray="5,2" d="M519.372,-29.7663C520.443,-34.4965 524.985,-38 533,-38 546.152,-38 549.954,-28.5653 544.406,-19.7571"/>
<polygon fill="#9a32cd" stroke="#9a32cd" points="522.844,-30.2779 521.594,-19.7571 516.01,-28.7609 522.844,-30.2779"/>
<text text-anchor="middle" x="533" y="-41" font-family="Helvetica,sans-Serif" font-size="10.00"> next</text>
</g>
<!-- Node16&#45;&gt;Node15 -->
<g id="edge50" class="edge"><title>Node16&#45;&gt;Node15</title>
<path fill="none" stroke="#9a32cd" stroke-dasharray="5,2" d="M396.027,-10C430.283,-10 473.898,-10 502.363,-10"/>
<polygon fill="#9a32cd" stroke="#9a32cd" points="395.723,-6.5001 385.723,-10 395.723,-13.5001 395.723,-6.5001"/>
<text text-anchor="middle" x="442" y="-13" font-family="Helvetica,sans-Serif" font-size="10.00"> data</text>
</g>
<!-- Node17 -->
<g id="node44" class="node"><title>Node17</title>
<a xlink:href="structattr__flags.html" target="_top" xlink:title="attr_flags">
<polygon fill="none" stroke="black" points="314.5,-38.5 314.5,-57.5 371.5,-57.5 371.5,-38.5 314.5,-38.5"/>
<text text-anchor="middle" x="343" y="-45.5" font-family="Helvetica,sans-Serif" font-size="10.00">attr_flags</text>
</a>
</g>
<!-- Node17&#45;&gt;Node15 -->
<g id="edge56" class="edge"><title>Node17&#45;&gt;Node15</title>
<path fill="none" stroke="#9a32cd" stroke-dasharray="5,2" d="M381.786,-42.5572C408.741,-38.4212 445.771,-32.2228 478,-25 485.975,-23.2127 494.531,-20.9833 502.427,-18.7944"/>
<polygon fill="#9a32cd" stroke="#9a32cd" points="380.985,-39.1385 371.62,-44.0928 382.03,-46.06 380.985,-39.1385"/>
<text text-anchor="middle" x="442" y="-42" font-family="Helvetica,sans-Serif" font-size="10.00"> flags</text>
</g>
<!-- Node18&#45;&gt;Node1 -->
<g id="edge70" class="edge"><title>Node18&#45;&gt;Node1</title>
<path fill="none" stroke="#9a32cd" stroke-dasharray="5,2" d="M476.782,-237.957C505.779,-227.5 548.95,-213.668 588,-208 721.668,-188.598 880.445,-245.157 938.402,-268.462"/>
<polygon fill="#9a32cd" stroke="#9a32cd" points="475.327,-234.763 467.147,-241.496 477.74,-241.334 475.327,-234.763"/>
<text text-anchor="middle" x="683" y="-212" font-family="Helvetica,sans-Serif" font-size="10.00"> clients</text>
</g>
</g>
</svg>
        <g id="navigator" transform="translate(0 0)" fill="#404254">
                <rect fill="#f2f5e9" fill-opacity="0.5" stroke="#606060" stroke-width=".5" x="0" y="0" width="60" height="60"/>
                <use id="zoomplus" xlink:href="#zoomPlus" x="17" y="9" onmousedown="handleZoom(evt,'in')"/>
                <use id="zoomminus" xlink:href="#zoomMin" x="42" y="9" onmousedown="handleZoom(evt,'out')"/>
                <use id="reset" xlink:href="#resetDef" x="30" y="36" onmousedown="handleReset()"/>
                <g id="arrowUp" xlink:href="#dirArrow" transform="translate(30 24)" onmousedown="handlePan(0,-1)">
                  <use xlink:href="#rim" fill="#404040">
                        <set attributeName="fill" to="#808080" begin="arrowUp.mouseover" end="arrowUp.mouseout"/>
                  </use>
                  <path fill="none" stroke="white" stroke-width="1.5" d="M0,-3.0v7 M-2.5,-0.5L0,-3.0L2.5,-0.5"/>
                </g>
                <g id="arrowRight" xlink:href="#dirArrow" transform="rotate(90) translate(36 -43)" onmousedown="handlePan(1,0)">
                  <use xlink:href="#rim" fill="#404040">
                        <set attributeName="fill" to="#808080" begin="arrowRight.mouseover" end="arrowRight.mouseout"/>
                  </use>
                  <path fill="none" stroke="white" stroke-width="1.5" d="M0,-3.0v7 M-2.5,-0.5L0,-3.0L2.5,-0.5"/>
                </g>
                <g id="arrowDown" xlink:href="#dirArrow" transform="rotate(180) translate(-30 -48)" onmousedown="handlePan(0,1)">
                  <use xlink:href="#rim" fill="#404040">
                        <set attributeName="fill" to="#808080" begin="arrowDown.mouseover" end="arrowDown.mouseout"/>
                  </use>
                  <path fill="none" stroke="white" stroke-width="1.5" d="M0,-3.0v7 M-2.5,-0.5L0,-3.0L2.5,-0.5"/>
                </g>
                <g id="arrowLeft" xlink:href="#dirArrow" transform="rotate(270) translate(-36 17)" onmousedown="handlePan(-1,0)">
                  <use xlink:href="#rim" fill="#404040">
                        <set attributeName="fill" to="#808080" begin="arrowLeft.mouseover" end="arrowLeft.mouseout"/>
                  </use>
                  <path fill="none" stroke="white" stroke-width="1.5" d="M0,-3.0v7 M-2.5,-0.5L0,-3.0L2.5,-0.5"/>
                </g>
        </g>
</svg>
