<?xml version="1.0" encoding="UTF-8" standalone="no"?>
<!DOCTYPE svg PUBLIC "-//W3C//DTD SVG 1.1//EN"
 "http://www.w3.org/Graphics/SVG/1.1/DTD/svg11.dtd">
<!-- Generated by graphviz version 2.28.0 (20111211.2114)
 -->
<!-- Title: G Pages: 1 -->
<svg width="315pt" height="300pt"
 viewBox="0.00 0.00 315.00 300.50" xmlns="http://www.w3.org/2000/svg" xmlns:xlink="http://www.w3.org/1999/xlink">
<g id="graph1" class="graph" transform="scale(1 1) rotate(0) translate(4 296.5)">
<title>G</title>
<!-- Node1 -->
<g id="node1" class="node"><title>Node1</title>
<polygon fill="#bfbfbf" stroke="black" points="139.5,-0.5 139.5,-19.5 246.5,-19.5 246.5,-0.5 139.5,-0.5"/>
<text text-anchor="middle" x="193" y="-7.5" font-family="Helvetica,sans-Serif" font-size="10.00">fr_connection_pool_t</text>
</g>
<!-- Node2 -->
<g id="node2" class="node"><title>Node2</title>
<a xlink:href="structconf__part.html" target="_top" xlink:title="conf_part">
<polygon fill="none" stroke="black" points="50.5,-91.5 50.5,-110.5 107.5,-110.5 107.5,-91.5 50.5,-91.5"/>
<text text-anchor="middle" x="79" y="-98.5" font-family="Helvetica,sans-Serif" font-size="10.00">conf_part</text>
</a>
</g>
<!-- Node2&#45;&gt;Node1 -->
<g id="edge2" class="edge"><title>Node2&#45;&gt;Node1</title>
<path fill="none" stroke="#9a32cd" stroke-dasharray="5,2" d="M97.9506,-85.2052C121.94,-66.4765 162.48,-34.827 181.935,-19.6386"/>
<polygon fill="#9a32cd" stroke="#9a32cd" points="95.6593,-82.5537 89.9308,-91.4663 99.967,-88.0713 95.6593,-82.5537"/>
<text text-anchor="middle" x="163" y="-52.5" font-family="Helvetica,sans-Serif" font-size="10.00"> cs</text>
</g>
<!-- Node2&#45;&gt;Node2 -->
<g id="edge4" class="edge"><title>Node2&#45;&gt;Node2</title>
<path fill="none" stroke="#9a32cd" stroke-dasharray="5,2" d="M117.76,-108.309C122.153,-106.94 125,-104.504 125,-101 125,-95.25 117.333,-92.375 107.75,-92.375"/>
<polygon fill="#9a32cd" stroke="#9a32cd" points="117.208,-104.851 107.75,-109.625 118.121,-111.792 117.208,-104.851"/>
<text text-anchor="middle" x="145.5" y="-98.5" font-family="Helvetica,sans-Serif" font-size="10.00"> template</text>
</g>
<!-- Node3 -->
<g id="node5" class="node"><title>Node3</title>
<a xlink:href="structconf__item.html" target="_top" xlink:title="conf_item">
<polygon fill="none" stroke="black" points="15.5,-0.5 15.5,-19.5 74.5,-19.5 74.5,-0.5 15.5,-0.5"/>
<text text-anchor="middle" x="45" y="-7.5" font-family="Helvetica,sans-Serif" font-size="10.00">conf_item</text>
</a>
</g>
<!-- Node2&#45;&gt;Node3 -->
<g id="edge8" class="edge"><title>Node2&#45;&gt;Node3</title>
<path fill="none" stroke="#9a32cd" stroke-dasharray="5,2" d="M43.5469,-86.5198C37.7345,-82.7145 32.4815,-77.9399 29,-72 21.3588,-58.9632 25.0061,-52.5738 29,-38 30.7857,-31.4838 34.5954,-24.9455 38.0494,-19.9353"/>
<polygon fill="#9a32cd" stroke="#9a32cd" points="41.8849,-89.6004 52.3216,-91.4242 45.3002,-83.4901 41.8849,-89.6004"/>
<text text-anchor="middle" x="44.5" y="-52.5" font-family="Helvetica,sans-Serif" font-size="10.00"> parent</text>
</g>
<!-- Node3&#45;&gt;Node2 -->
<g id="edge6" class="edge"><title>Node3&#45;&gt;Node2</title>
<path fill="none" stroke="#9a32cd" stroke-dasharray="5,2" d="M58.4833,-28.1516C60.546,-31.3067 62.488,-34.6617 64,-38 72.1331,-55.9565 76.208,-78.9167 77.9361,-91.2411"/>
<polygon fill="#9a32cd" stroke="#9a32cd" points="61.2825,-26.0492 52.6062,-19.9687 55.5969,-30.1327 61.2825,-26.0492"/>
<text text-anchor="middle" x="92" y="-63.5" font-family="Helvetica,sans-Serif" font-size="10.00"> tail</text>
<text text-anchor="middle" x="92" y="-52.5" font-family="Helvetica,sans-Serif" font-size="10.00">item</text>
<text text-anchor="middle" x="92" y="-41.5" font-family="Helvetica,sans-Serif" font-size="10.00">children</text>
</g>
<!-- Node3&#45;&gt;Node3 -->
<g id="edge10" class="edge"><title>Node3&#45;&gt;Node3</title>
<path fill="none" stroke="#9a32cd" stroke-dasharray="5,2" d="M84.8122,-16.929C89.1814,-15.6089 92,-13.2992 92,-10 92,-4.58594 84.4095,-1.83661 74.8325,-1.75201"/>
<polygon fill="#9a32cd" stroke="#9a32cd" points="84.2877,-13.4678 74.8325,-18.248 85.2049,-20.4075 84.2877,-13.4678"/>
<text text-anchor="middle" x="103" y="-7.5" font-family="Helvetica,sans-Serif" font-size="10.00"> next</text>
</g>
<!-- Node4 -->
<g id="node9" class="node"><title>Node4</title>
<a xlink:href="structCONF__PARSER.html" target="_top" xlink:title="CONF_PARSER">
<polygon fill="none" stroke="black" points="0,-192.5 0,-211.5 92,-211.5 92,-192.5 0,-192.5"/>
<text text-anchor="middle" x="46" y="-199.5" font-family="Helvetica,sans-Serif" font-size="10.00">CONF_PARSER</text>
</a>
</g>
<!-- Node4&#45;&gt;Node2 -->
<g id="edge12" class="edge"><title>Node4&#45;&gt;Node2</title>
<path fill="none" stroke="#9a32cd" stroke-dasharray="5,2" d="M46.7745,-181.982C47.9423,-167.276 50.8407,-146.679 58,-130 61.0679,-122.853 66.3179,-115.853 70.8009,-110.64"/>
<polygon fill="#9a32cd" stroke="#9a32cd" points="43.2593,-182.137 46.1606,-192.326 50.247,-182.551 43.2593,-182.137"/>
<text text-anchor="middle" x="79.5" y="-149.5" font-family="Helvetica,sans-Serif" font-size="10.00"> variables</text>
</g>
<!-- Node5 -->
<g id="node11" class="node"><title>Node5</title>
<a xlink:href="structrbtree__t.html" target="_top" xlink:title="rbtree_t">
<polygon fill="none" stroke="black" points="110,-192.5 110,-211.5 160,-211.5 160,-192.5 110,-192.5"/>
<text text-anchor="middle" x="135" y="-199.5" font-family="Helvetica,sans-Serif" font-size="10.00">rbtree_t</text>
</a>
</g>
<!-- Node5&#45;&gt;Node2 -->
<g id="edge14" class="edge"><title>Node5&#45;&gt;Node2</title>
<path fill="none" stroke="#9a32cd" stroke-dasharray="5,2" d="M127.663,-182.943C121.384,-168.241 111.685,-147.184 101,-130 96.8216,-123.28 91.3216,-116.28 86.8662,-110.96"/>
<polygon fill="#9a32cd" stroke="#9a32cd" points="124.518,-184.495 131.596,-192.378 130.979,-181.801 124.518,-184.495"/>
<text text-anchor="middle" x="151" y="-166" font-family="Helvetica,sans-Serif" font-size="10.00"> data_tree</text>
<text text-anchor="middle" x="151" y="-155" font-family="Helvetica,sans-Serif" font-size="10.00">name2_tree</text>
<text text-anchor="middle" x="151" y="-144" font-family="Helvetica,sans-Serif" font-size="10.00">section_tree</text>
<text text-anchor="middle" x="151" y="-133" font-family="Helvetica,sans-Serif" font-size="10.00">pair_tree</text>
</g>
<!-- Node6 -->
<g id="node13" class="node"><title>Node6</title>
<a xlink:href="structrbnode__t.html" target="_top" xlink:title="rbnode_t">
<polygon fill="none" stroke="black" points="108,-266.5 108,-285.5 162,-285.5 162,-266.5 108,-266.5"/>
<text text-anchor="middle" x="135" y="-273.5" font-family="Helvetica,sans-Serif" font-size="10.00">rbnode_t</text>
</a>
</g>
<!-- Node6&#45;&gt;Node5 -->
<g id="edge16" class="edge"><title>Node6&#45;&gt;Node5</title>
<path fill="none" stroke="#9a32cd" stroke-dasharray="5,2" d="M135,-256.156C135,-241.712 135,-222.459 135,-211.531"/>
<polygon fill="#9a32cd" stroke="#9a32cd" points="131.5,-256.458 135,-266.458 138.5,-256.458 131.5,-256.458"/>
<text text-anchor="middle" x="147.5" y="-233.5" font-family="Helvetica,sans-Serif" font-size="10.00"> Root</text>
</g>
<!-- Node6&#45;&gt;Node6 -->
<g id="edge18" class="edge"><title>Node6&#45;&gt;Node6</title>
<path fill="none" stroke="#9a32cd" stroke-dasharray="5,2" d="M172.51,-282.464C177.038,-281.297 180,-279.142 180,-276 180,-270.844 172.024,-268.346 162.241,-268.507"/>
<polygon fill="#9a32cd" stroke="#9a32cd" points="171.842,-279.014 162.241,-283.493 172.54,-285.979 171.842,-279.014"/>
<text text-anchor="middle" x="194.5" y="-284.5" font-family="Helvetica,sans-Serif" font-size="10.00"> Left</text>
<text text-anchor="middle" x="194.5" y="-273.5" font-family="Helvetica,sans-Serif" font-size="10.00">Right</text>
<text text-anchor="middle" x="194.5" y="-262.5" font-family="Helvetica,sans-Serif" font-size="10.00">Parent</text>
</g>
<!-- Node7 -->
<g id="node16" class="node"><title>Node7</title>
<a xlink:href="structfr__connection__t.html" target="_top" xlink:title="fr_connection_t">
<polygon fill="none" stroke="black" points="184.5,-91.5 184.5,-110.5 267.5,-110.5 267.5,-91.5 184.5,-91.5"/>
<text text-anchor="middle" x="226" y="-98.5" font-family="Helvetica,sans-Serif" font-size="10.00">fr_connection_t</text>
</a>
</g>
<!-- Node7&#45;&gt;Node1 -->
<g id="edge20" class="edge"><title>Node7&#45;&gt;Node1</title>
<path fill="none" stroke="#9a32cd" stroke-dasharray="5,2" d="M219.282,-81.8811C212.252,-62.9208 201.514,-33.9609 196.203,-19.6386"/>
<polygon fill="#9a32cd" stroke="#9a32cd" points="216.078,-83.3069 222.836,-91.4663 222.641,-80.8733 216.078,-83.3069"/>
<text text-anchor="middle" x="227.5" y="-58" font-family="Helvetica,sans-Serif" font-size="10.00"> head</text>
<text text-anchor="middle" x="227.5" y="-47" font-family="Helvetica,sans-Serif" font-size="10.00">tail</text>
</g>
<!-- Node7&#45;&gt;Node7 -->
<g id="edge22" class="edge"><title>Node7&#45;&gt;Node7</title>
<path fill="none" stroke="#9a32cd" stroke-dasharray="5,2" d="M277.508,-107.816C282.111,-106.388 285,-104.116 285,-101 285,-96.0137 277.605,-93.1894 267.625,-92.5271"/>
<polygon fill="#9a32cd" stroke="#9a32cd" points="276.909,-104.367 267.625,-109.473 278.066,-111.271 276.909,-104.367"/>
<text text-anchor="middle" x="296" y="-104" font-family="Helvetica,sans-Serif" font-size="10.00"> prev</text>
<text text-anchor="middle" x="296" y="-93" font-family="Helvetica,sans-Serif" font-size="10.00">next</text>
</g>
</g>
</svg>
