<?xml version="1.0" encoding="UTF-8" standalone="no"?>
<!DOCTYPE svg PUBLIC "-//W3C//DTD SVG 1.1//EN"
 "http://www.w3.org/Graphics/SVG/1.1/DTD/svg11.dtd">
<!-- Generated by graphviz version 2.28.0 (20111211.2114)
 -->
<!-- Title: G Pages: 1 -->
<svg width="272pt" height="244pt"
 viewBox="0.00 0.00 272.00 244.50" xmlns="http://www.w3.org/2000/svg" xmlns:xlink="http://www.w3.org/1999/xlink">
<g id="graph1" class="graph" transform="scale(1 1) rotate(0) translate(4 240.5)">
<title>G</title>
<!-- Node1 -->
<g id="node1" class="node"><title>Node1</title>
<polygon fill="#bfbfbf" stroke="black" points="104.5,-0.5 104.5,-19.5 183.5,-19.5 183.5,-0.5 104.5,-0.5"/>
<text text-anchor="middle" x="144" y="-7.5" font-family="Helvetica,sans-Serif" font-size="10.00">rlm_radutmp_t</text>
</g>
<!-- Node2 -->
<g id="node2" class="node"><title>Node2</title>
<a xlink:href="structradutmp__cache__t.html" target="_top" xlink:title="radutmp_cache_t">
<polygon fill="none" stroke="black" points="98,-68.5 98,-87.5 190,-87.5 190,-68.5 98,-68.5"/>
<text text-anchor="middle" x="144" y="-75.5" font-family="Helvetica,sans-Serif" font-size="10.00">radutmp_cache_t</text>
</a>
</g>
<!-- Node2&#45;&gt;Node1 -->
<g id="edge2" class="edge"><title>Node2&#45;&gt;Node1</title>
<path fill="none" stroke="#9a32cd" stroke-dasharray="5,2" d="M144,-58.0413C144,-45.4724 144,-29.5631 144,-19.8411"/>
<polygon fill="#9a32cd" stroke="#9a32cd" points="140.5,-58.3716 144,-68.3717 147.5,-58.3717 140.5,-58.3716"/>
<text text-anchor="middle" x="159" y="-41.5" font-family="Helvetica,sans-Serif" font-size="10.00"> cache</text>
</g>
<!-- Node3 -->
<g id="node4" class="node"><title>Node3</title>
<a xlink:href="structnas__port.html" target="_top" xlink:title="nas_port">
<polygon fill="none" stroke="black" points="0,-136.5 0,-155.5 54,-155.5 54,-136.5 0,-136.5"/>
<text text-anchor="middle" x="27" y="-143.5" font-family="Helvetica,sans-Serif" font-size="10.00">nas_port</text>
</a>
</g>
<!-- Node3&#45;&gt;Node1 -->
<g id="edge14" class="edge"><title>Node3&#45;&gt;Node1</title>
<path fill="none" stroke="#9a32cd" stroke-dasharray="5,2" d="M22.6634,-125.907C19.9945,-109.265 18.9202,-85.1708 30,-68 46.7365,-42.0629 79.084,-27.4676 105.059,-19.5551"/>
<polygon fill="#9a32cd" stroke="#9a32cd" points="19.2932,-126.912 24.6361,-136.061 26.1647,-125.577 19.2932,-126.912"/>
<text text-anchor="middle" x="59.5" y="-75.5" font-family="Helvetica,sans-Serif" font-size="10.00"> nas_port_list</text>
</g>
<!-- Node3&#45;&gt;Node2 -->
<g id="edge4" class="edge"><title>Node3&#45;&gt;Node2</title>
<path fill="none" stroke="#9a32cd" stroke-dasharray="5,2" d="M51.2153,-131.34C74.5027,-118.204 108.991,-98.7487 128.701,-87.6305"/>
<polygon fill="#9a32cd" stroke="#9a32cd" points="49.2859,-128.41 42.2957,-136.372 52.7251,-134.507 49.2859,-128.41"/>
<text text-anchor="middle" x="122.5" y="-109.5" font-family="Helvetica,sans-Serif" font-size="10.00"> free_offsets</text>
</g>
<!-- Node3&#45;&gt;Node3 -->
<g id="edge6" class="edge"><title>Node3&#45;&gt;Node3</title>
<path fill="none" stroke="#9a32cd" stroke-dasharray="5,2" d="M64.5105,-151.495C69.0382,-150.502 72,-148.671 72,-146 72,-141.617 64.0239,-139.494 54.2408,-139.631"/>
<polygon fill="#9a32cd" stroke="#9a32cd" points="63.9079,-148.033 54.2408,-152.369 64.5016,-155.008 63.9079,-148.033"/>
<text text-anchor="middle" x="83" y="-143.5" font-family="Helvetica,sans-Serif" font-size="10.00"> next</text>
</g>
<!-- Node4 -->
<g id="node7" class="node"><title>Node4</title>
<a xlink:href="structrbtree__t.html" target="_top" xlink:title="rbtree_t">
<polygon fill="none" stroke="black" points="165,-136.5 165,-155.5 215,-155.5 215,-136.5 165,-136.5"/>
<text text-anchor="middle" x="190" y="-143.5" font-family="Helvetica,sans-Serif" font-size="10.00">rbtree_t</text>
</a>
</g>
<!-- Node4&#45;&gt;Node1 -->
<g id="edge16" class="edge"><title>Node4&#45;&gt;Node1</title>
<path fill="none" stroke="#9a32cd" stroke-dasharray="5,2" d="M206.4,-128.333C208.695,-125.129 210.708,-121.632 212,-118 217.946,-101.29 199.84,-69.6525 199,-68 191.627,-53.4907 189.156,-49.8508 178,-38 171.594,-31.1943 163.416,-24.6469 156.687,-19.7044"/>
<polygon fill="#9a32cd" stroke="#9a32cd" points="203.7,-126.107 199.97,-136.024 209.07,-130.597 203.7,-126.107"/>
<text text-anchor="middle" x="230" y="-75.5" font-family="Helvetica,sans-Serif" font-size="10.00"> user_tree</text>
</g>
<!-- Node4&#45;&gt;Node2 -->
<g id="edge8" class="edge"><title>Node4&#45;&gt;Node2</title>
<path fill="none" stroke="#9a32cd" stroke-dasharray="5,2" d="M174.694,-128.901C171.671,-125.418 168.624,-121.675 166,-118 158.952,-108.131 152.325,-95.8075 148.222,-87.6859"/>
<polygon fill="#9a32cd" stroke="#9a32cd" points="172.187,-131.346 181.499,-136.4 177.371,-126.642 172.187,-131.346"/>
<text text-anchor="middle" x="189" y="-109.5" font-family="Helvetica,sans-Serif" font-size="10.00"> nas_ports</text>
</g>
<!-- Node5 -->
<g id="node9" class="node"><title>Node5</title>
<a xlink:href="structrbnode__t.html" target="_top" xlink:title="rbnode_t">
<polygon fill="none" stroke="black" points="163,-210.5 163,-229.5 217,-229.5 217,-210.5 163,-210.5"/>
<text text-anchor="middle" x="190" y="-217.5" font-family="Helvetica,sans-Serif" font-size="10.00">rbnode_t</text>
</a>
</g>
<!-- Node5&#45;&gt;Node4 -->
<g id="edge10" class="edge"><title>Node5&#45;&gt;Node4</title>
<path fill="none" stroke="#9a32cd" stroke-dasharray="5,2" d="M190,-200.156C190,-185.712 190,-166.459 190,-155.531"/>
<polygon fill="#9a32cd" stroke="#9a32cd" points="186.5,-200.458 190,-210.458 193.5,-200.458 186.5,-200.458"/>
<text text-anchor="middle" x="202.5" y="-177.5" font-family="Helvetica,sans-Serif" font-size="10.00"> Root</text>
</g>
<!-- Node5&#45;&gt;Node5 -->
<g id="edge12" class="edge"><title>Node5&#45;&gt;Node5</title>
<path fill="none" stroke="#9a32cd" stroke-dasharray="5,2" d="M227.51,-226.464C232.038,-225.297 235,-223.142 235,-220 235,-214.844 227.024,-212.346 217.241,-212.507"/>
<polygon fill="#9a32cd" stroke="#9a32cd" points="226.842,-223.014 217.241,-227.493 227.54,-229.979 226.842,-223.014"/>
<text text-anchor="middle" x="249.5" y="-228.5" font-family="Helvetica,sans-Serif" font-size="10.00"> Left</text>
<text text-anchor="middle" x="249.5" y="-217.5" font-family="Helvetica,sans-Serif" font-size="10.00">Right</text>
<text text-anchor="middle" x="249.5" y="-206.5" font-family="Helvetica,sans-Serif" font-size="10.00">Parent</text>
</g>
</g>
</svg>
