<?xml version="1.0" encoding="UTF-8" standalone="no"?>
<!DOCTYPE svg PUBLIC "-//W3C//DTD SVG 1.1//EN"
 "http://www.w3.org/Graphics/SVG/1.1/DTD/svg11.dtd">
<!-- Generated by graphviz version 2.28.0 (20111211.2114)
 -->
<!-- Title: G Pages: 1 -->
<svg width="122pt" height="96pt"
 viewBox="0.00 0.00 122.00 96.00" xmlns="http://www.w3.org/2000/svg" xmlns:xlink="http://www.w3.org/1999/xlink">
<g id="graph1" class="graph" transform="scale(1 1) rotate(0) translate(4 92)">
<title>G</title>
<!-- Node1 -->
<g id="node1" class="node"><title>Node1</title>
<polygon fill="#bfbfbf" stroke="black" points="1.5,-0.5 1.5,-19.5 72.5,-19.5 72.5,-0.5 1.5,-0.5"/>
<text text-anchor="middle" x="37" y="-7.5" font-family="Helvetica,sans-Serif" font-size="10.00">policy_call_t</text>
</g>
<!-- Node2 -->
<g id="node2" class="node"><title>Node2</title>
<a xlink:href="structpolicy__item__t.html" target="_top" xlink:title="policy_item_t">
<polygon fill="none" stroke="black" points="0,-68.5 0,-87.5 74,-87.5 74,-68.5 0,-68.5"/>
<text text-anchor="middle" x="37" y="-75.5" font-family="Helvetica,sans-Serif" font-size="10.00">policy_item_t</text>
</a>
</g>
<!-- Node2&#45;&gt;Node1 -->
<g id="edge2" class="edge"><title>Node2&#45;&gt;Node1</title>
<path fill="none" stroke="#9a32cd" stroke-dasharray="5,2" d="M37,-58.0413C37,-45.4724 37,-29.5631 37,-19.8411"/>
<polygon fill="#9a32cd" stroke="#9a32cd" points="33.5001,-58.3716 37,-68.3717 40.5001,-58.3717 33.5001,-58.3716"/>
<text text-anchor="middle" x="48" y="-41.5" font-family="Helvetica,sans-Serif" font-size="10.00"> item</text>
</g>
<!-- Node2&#45;&gt;Node2 -->
<g id="edge4" class="edge"><title>Node2&#45;&gt;Node2</title>
<path fill="none" stroke="#9a32cd" stroke-dasharray="5,2" d="M84.1857,-83.2299C88.9569,-82.192 92,-80.4487 92,-78 92,-74.082 84.2097,-71.97 74.0153,-71.6639"/>
<polygon fill="#9a32cd" stroke="#9a32cd" points="83.5782,-79.7752 74.0153,-84.3361 84.3352,-86.7342 83.5782,-79.7752"/>
<text text-anchor="middle" x="103" y="-75.5" font-family="Helvetica,sans-Serif" font-size="10.00"> next</text>
</g>
</g>
</svg>
