<?xml version="1.0" encoding="UTF-8" standalone="no"?>
<!DOCTYPE svg PUBLIC "-//W3C//DTD SVG 1.1//EN"
 "http://www.w3.org/Graphics/SVG/1.1/DTD/svg11.dtd">
<!-- Generated by graphviz version 2.28.0 (20111211.2114)
 -->
<!-- Title: G Pages: 1 -->
<svg width="386pt" height="298pt"
 viewBox="0.00 0.00 386.00 298.50" xmlns="http://www.w3.org/2000/svg" xmlns:xlink="http://www.w3.org/1999/xlink">
<g id="graph1" class="graph" transform="scale(1 1) rotate(0) translate(4 294.5)">
<title>G</title>
<!-- Node1 -->
<g id="node1" class="node"><title>Node1</title>
<polygon fill="#bfbfbf" stroke="black" points="85.5,-0.5 85.5,-19.5 162.5,-19.5 162.5,-0.5 85.5,-0.5"/>
<text text-anchor="middle" x="124" y="-7.5" font-family="Helvetica,sans-Serif" font-size="10.00">ldap_instance</text>
</g>
<!-- Node2 -->
<g id="node2" class="node"><title>Node2</title>
<a xlink:href="structldap__conn.html" target="_top" xlink:title="ldap_conn">
<polygon fill="none" stroke="black" points="-0.5,-90.5 -0.5,-109.5 60.5,-109.5 60.5,-90.5 -0.5,-90.5"/>
<text text-anchor="middle" x="30" y="-97.5" font-family="Helvetica,sans-Serif" font-size="10.00">ldap_conn</text>
</a>
</g>
<!-- Node2&#45;&gt;Node1 -->
<g id="edge2" class="edge"><title>Node2&#45;&gt;Node1</title>
<path fill="none" stroke="#9a32cd" stroke-dasharray="5,2" d="M45.1247,-83.0222C57.2227,-70.4535 74.7854,-52.674 91,-38 98.0253,-31.6421 106.275,-24.8921 112.769,-19.7316"/>
<polygon fill="#9a32cd" stroke="#9a32cd" points="42.4109,-80.7961 38.0329,-90.4441 47.4719,-85.632 42.4109,-80.7961"/>
<text text-anchor="middle" x="106" y="-52.5" font-family="Helvetica,sans-Serif" font-size="10.00"> conns</text>
</g>
<!-- Node3 -->
<g id="node4" class="node"><title>Node3</title>
<a xlink:href="structconf__part.html" target="_top" xlink:title="conf_part">
<polygon fill="none" stroke="black" points="230.5,-90.5 230.5,-109.5 287.5,-109.5 287.5,-90.5 230.5,-90.5"/>
<text text-anchor="middle" x="259" y="-97.5" font-family="Helvetica,sans-Serif" font-size="10.00">conf_part</text>
</a>
</g>
<!-- Node3&#45;&gt;Node1 -->
<g id="edge4" class="edge"><title>Node3&#45;&gt;Node1</title>
<path fill="none" stroke="#9a32cd" stroke-dasharray="5,2" d="M243.872,-82.6028C228.143,-65.6785 205.111,-41.2884 200,-38 187.4,-29.8934 172.056,-23.8466 158.463,-19.5539"/>
<polygon fill="#9a32cd" stroke="#9a32cd" points="241.533,-85.2282 250.896,-90.1862 246.669,-80.4714 241.533,-85.2282"/>
<text text-anchor="middle" x="240" y="-52.5" font-family="Helvetica,sans-Serif" font-size="10.00"> cs</text>
</g>
<!-- Node3&#45;&gt;Node3 -->
<g id="edge6" class="edge"><title>Node3&#45;&gt;Node3</title>
<path fill="none" stroke="#9a32cd" stroke-dasharray="5,2" d="M297.76,-106.991C302.153,-105.682 305,-103.352 305,-100 305,-94.5 297.333,-91.75 287.75,-91.75"/>
<polygon fill="#9a32cd" stroke="#9a32cd" points="297.235,-103.53 287.75,-108.25 298.109,-110.475 297.235,-103.53"/>
<text text-anchor="middle" x="325.5" y="-97.5" font-family="Helvetica,sans-Serif" font-size="10.00"> template</text>
</g>
<!-- Node4 -->
<g id="node7" class="node"><title>Node4</title>
<a xlink:href="structconf__item.html" target="_top" xlink:title="conf_item">
<polygon fill="none" stroke="black" points="256.5,-0.5 256.5,-19.5 315.5,-19.5 315.5,-0.5 256.5,-0.5"/>
<text text-anchor="middle" x="286" y="-7.5" font-family="Helvetica,sans-Serif" font-size="10.00">conf_item</text>
</a>
</g>
<!-- Node3&#45;&gt;Node4 -->
<g id="edge10" class="edge"><title>Node3&#45;&gt;Node4</title>
<path fill="none" stroke="#9a32cd" stroke-dasharray="5,2" d="M253.863,-80.4972C251.378,-67.9689 250.061,-51.3348 256,-38 259.307,-30.5749 265.777,-24.3351 271.864,-19.7309"/>
<polygon fill="#9a32cd" stroke="#9a32cd" points="250.469,-81.3503 256.196,-90.2638 257.277,-79.7243 250.469,-81.3503"/>
<text text-anchor="middle" x="271.5" y="-52.5" font-family="Helvetica,sans-Serif" font-size="10.00"> parent</text>
</g>
<!-- Node4&#45;&gt;Node3 -->
<g id="edge8" class="edge"><title>Node4&#45;&gt;Node3</title>
<path fill="none" stroke="#9a32cd" stroke-dasharray="5,2" d="M292.168,-29.5466C295.252,-42.0942 297.164,-58.7335 291,-72 287.447,-79.6468 280.544,-85.9073 274.056,-90.4679"/>
<polygon fill="#9a32cd" stroke="#9a32cd" points="295.477,-28.3897 289.329,-19.7608 288.754,-30.34 295.477,-28.3897"/>
<text text-anchor="middle" x="313" y="-63.5" font-family="Helvetica,sans-Serif" font-size="10.00"> tail</text>
<text text-anchor="middle" x="313" y="-52.5" font-family="Helvetica,sans-Serif" font-size="10.00">item</text>
<text text-anchor="middle" x="313" y="-41.5" font-family="Helvetica,sans-Serif" font-size="10.00">children</text>
</g>
<!-- Node4&#45;&gt;Node4 -->
<g id="edge12" class="edge"><title>Node4&#45;&gt;Node4</title>
<path fill="none" stroke="#9a32cd" stroke-dasharray="5,2" d="M325.812,-16.929C330.181,-15.6089 333,-13.2992 333,-10 333,-4.58594 325.41,-1.83661 315.833,-1.75201"/>
<polygon fill="#9a32cd" stroke="#9a32cd" points="325.288,-13.4678 315.833,-18.248 326.205,-20.4075 325.288,-13.4678"/>
<text text-anchor="middle" x="344" y="-7.5" font-family="Helvetica,sans-Serif" font-size="10.00"> next</text>
</g>
<!-- Node5 -->
<g id="node11" class="node"><title>Node5</title>
<a xlink:href="structCONF__PARSER.html" target="_top" xlink:title="CONF_PARSER">
<polygon fill="none" stroke="black" points="169,-190.5 169,-209.5 261,-209.5 261,-190.5 169,-190.5"/>
<text text-anchor="middle" x="215" y="-197.5" font-family="Helvetica,sans-Serif" font-size="10.00">CONF_PARSER</text>
</a>
</g>
<!-- Node5&#45;&gt;Node3 -->
<g id="edge14" class="edge"><title>Node5&#45;&gt;Node3</title>
<path fill="none" stroke="#9a32cd" stroke-dasharray="5,2" d="M214.724,-179.911C215.299,-164.894 217.913,-143.919 227,-128 231.252,-120.551 238.383,-114.232 244.836,-109.585"/>
<polygon fill="#9a32cd" stroke="#9a32cd" points="211.222,-180.012 214.608,-190.051 218.222,-180.092 211.222,-180.012"/>
<text text-anchor="middle" x="248.5" y="-147.5" font-family="Helvetica,sans-Serif" font-size="10.00"> variables</text>
</g>
<!-- Node6 -->
<g id="node13" class="node"><title>Node6</title>
<a xlink:href="structrbtree__t.html" target="_top" xlink:title="rbtree_t">
<polygon fill="none" stroke="black" points="279,-190.5 279,-209.5 329,-209.5 329,-190.5 279,-190.5"/>
<text text-anchor="middle" x="304" y="-197.5" font-family="Helvetica,sans-Serif" font-size="10.00">rbtree_t</text>
</a>
</g>
<!-- Node6&#45;&gt;Node3 -->
<g id="edge16" class="edge"><title>Node6&#45;&gt;Node3</title>
<path fill="none" stroke="#9a32cd" stroke-dasharray="5,2" d="M295.778,-181.095C286.04,-159.887 270.221,-125.436 262.92,-109.537"/>
<polygon fill="#9a32cd" stroke="#9a32cd" points="292.653,-182.676 300.007,-190.303 299.014,-179.755 292.653,-182.676"/>
<text text-anchor="middle" x="318" y="-164" font-family="Helvetica,sans-Serif" font-size="10.00"> data_tree</text>
<text text-anchor="middle" x="318" y="-153" font-family="Helvetica,sans-Serif" font-size="10.00">name2_tree</text>
<text text-anchor="middle" x="318" y="-142" font-family="Helvetica,sans-Serif" font-size="10.00">section_tree</text>
<text text-anchor="middle" x="318" y="-131" font-family="Helvetica,sans-Serif" font-size="10.00">pair_tree</text>
</g>
<!-- Node7 -->
<g id="node15" class="node"><title>Node7</title>
<a xlink:href="structrbnode__t.html" target="_top" xlink:title="rbnode_t">
<polygon fill="none" stroke="black" points="277,-264.5 277,-283.5 331,-283.5 331,-264.5 277,-264.5"/>
<text text-anchor="middle" x="304" y="-271.5" font-family="Helvetica,sans-Serif" font-size="10.00">rbnode_t</text>
</a>
</g>
<!-- Node7&#45;&gt;Node6 -->
<g id="edge18" class="edge"><title>Node7&#45;&gt;Node6</title>
<path fill="none" stroke="#9a32cd" stroke-dasharray="5,2" d="M304,-254.156C304,-239.712 304,-220.459 304,-209.531"/>
<polygon fill="#9a32cd" stroke="#9a32cd" points="300.5,-254.458 304,-264.458 307.5,-254.458 300.5,-254.458"/>
<text text-anchor="middle" x="316.5" y="-231.5" font-family="Helvetica,sans-Serif" font-size="10.00"> Root</text>
</g>
<!-- Node7&#45;&gt;Node7 -->
<g id="edge20" class="edge"><title>Node7&#45;&gt;Node7</title>
<path fill="none" stroke="#9a32cd" stroke-dasharray="5,2" d="M341.51,-280.464C346.038,-279.297 349,-277.142 349,-274 349,-268.844 341.024,-266.346 331.241,-266.507"/>
<polygon fill="#9a32cd" stroke="#9a32cd" points="340.842,-277.014 331.241,-281.493 341.54,-283.979 340.842,-277.014"/>
<text text-anchor="middle" x="363.5" y="-282.5" font-family="Helvetica,sans-Serif" font-size="10.00"> Left</text>
<text text-anchor="middle" x="363.5" y="-271.5" font-family="Helvetica,sans-Serif" font-size="10.00">Right</text>
<text text-anchor="middle" x="363.5" y="-260.5" font-family="Helvetica,sans-Serif" font-size="10.00">Parent</text>
</g>
<!-- Node8 -->
<g id="node18" class="node"><title>Node8</title>
<a xlink:href="structTLDAP__RADIUS.html" target="_top" xlink:title="TLDAP_RADIUS">
<polygon fill="none" stroke="black" points="78.5,-90.5 78.5,-109.5 171.5,-109.5 171.5,-90.5 78.5,-90.5"/>
<text text-anchor="middle" x="125" y="-97.5" font-family="Helvetica,sans-Serif" font-size="10.00">TLDAP_RADIUS</text>
</a>
</g>
<!-- Node8&#45;&gt;Node1 -->
<g id="edge22" class="edge"><title>Node8&#45;&gt;Node1</title>
<path fill="none" stroke="#9a32cd" stroke-dasharray="5,2" d="M124.784,-79.9784C124.572,-61.3096 124.258,-33.6696 124.099,-19.7241"/>
<polygon fill="#9a32cd" stroke="#9a32cd" points="121.287,-80.281 124.9,-90.2405 128.287,-80.2013 121.287,-80.281"/>
<text text-anchor="middle" x="162.5" y="-58" font-family="Helvetica,sans-Serif" font-size="10.00"> reply_item_map</text>
<text text-anchor="middle" x="162.5" y="-47" font-family="Helvetica,sans-Serif" font-size="10.00">check_item_map</text>
</g>
<!-- Node8&#45;&gt;Node8 -->
<g id="edge24" class="edge"><title>Node8&#45;&gt;Node8</title>
<path fill="none" stroke="#9a32cd" stroke-dasharray="5,2" d="M181.537,-106.33C186.143,-104.957 189,-102.847 189,-100 189,-95.4453 181.685,-92.7766 171.598,-91.9937"/>
<polygon fill="#9a32cd" stroke="#9a32cd" points="180.877,-102.892 171.598,-108.006 182.041,-109.794 180.877,-102.892"/>
<text text-anchor="middle" x="200" y="-97.5" font-family="Helvetica,sans-Serif" font-size="10.00"> next</text>
</g>
</g>
</svg>
