<?xml version="1.0" encoding="UTF-8" standalone="no"?>
<!DOCTYPE svg PUBLIC "-//W3C//DTD SVG 1.1//EN"
 "http://www.w3.org/Graphics/SVG/1.1/DTD/svg11.dtd">
<!-- Generated by graphviz version 2.28.0 (20111211.2114)
 -->
<!-- Title: G Pages: 1 -->
<svg width="133pt" height="118pt"
 viewBox="0.00 0.00 133.00 118.00" xmlns="http://www.w3.org/2000/svg" xmlns:xlink="http://www.w3.org/1999/xlink">
<g id="graph1" class="graph" transform="scale(1 1) rotate(0) translate(4 114)">
<title>G</title>
<!-- Node1 -->
<g id="node1" class="node"><title>Node1</title>
<polygon fill="#bfbfbf" stroke="black" points="0,-0.5 0,-19.5 96,-19.5 96,-0.5 0,-0.5"/>
<text text-anchor="middle" x="48" y="-7.5" font-family="Helvetica,sans-Serif" font-size="10.00">policy_attributes_t</text>
</g>
<!-- Node2 -->
<g id="node2" class="node"><title>Node2</title>
<a xlink:href="structpolicy__item__t.html" target="_top" xlink:title="policy_item_t">
<polygon fill="none" stroke="black" points="11,-90.5 11,-109.5 85,-109.5 85,-90.5 11,-90.5"/>
<text text-anchor="middle" x="48" y="-97.5" font-family="Helvetica,sans-Serif" font-size="10.00">policy_item_t</text>
</a>
</g>
<!-- Node2&#45;&gt;Node1 -->
<g id="edge2" class="edge"><title>Node2&#45;&gt;Node1</title>
<path fill="none" stroke="#9a32cd" stroke-dasharray="5,2" d="M48,-79.9784C48,-61.3096 48,-33.6696 48,-19.7241"/>
<polygon fill="#9a32cd" stroke="#9a32cd" points="44.5001,-80.2405 48,-90.2405 51.5001,-80.2405 44.5001,-80.2405"/>
<text text-anchor="middle" x="70.5" y="-63.5" font-family="Helvetica,sans-Serif" font-size="10.00"> attributes</text>
<text text-anchor="middle" x="70.5" y="-52.5" font-family="Helvetica,sans-Serif" font-size="10.00">item</text>
<text text-anchor="middle" x="70.5" y="-41.5" font-family="Helvetica,sans-Serif" font-size="10.00">where_loc</text>
</g>
<!-- Node2&#45;&gt;Node2 -->
<g id="edge4" class="edge"><title>Node2&#45;&gt;Node2</title>
<path fill="none" stroke="#9a32cd" stroke-dasharray="5,2" d="M95.1857,-106.768C99.9569,-105.425 103,-103.169 103,-100 103,-94.9297 95.2097,-92.1965 85.0153,-91.8004"/>
<polygon fill="#9a32cd" stroke="#9a32cd" points="94.4298,-103.34 85.0153,-108.2 95.4056,-110.272 94.4298,-103.34"/>
<text text-anchor="middle" x="114" y="-97.5" font-family="Helvetica,sans-Serif" font-size="10.00"> next</text>
</g>
</g>
</svg>
