<?xml version="1.0" encoding="UTF-8" standalone="no"?>
<!DOCTYPE svg PUBLIC "-//W3C//DTD SVG 1.1//EN"
 "http://www.w3.org/Graphics/SVG/1.1/DTD/svg11.dtd">
<!-- Generated by graphviz version 2.28.0 (20111211.2114)
 -->
<!-- Title: G Pages: 1 -->
<svg width="356pt" height="208pt"
 viewBox="0.00 0.00 356.00 208.50" xmlns="http://www.w3.org/2000/svg" xmlns:xlink="http://www.w3.org/1999/xlink">
<g id="graph1" class="graph" transform="scale(1 1) rotate(0) translate(4 204.5)">
<title>G</title>
<!-- Node1 -->
<g id="node1" class="node"><title>Node1</title>
<polygon fill="#bfbfbf" stroke="black" points="-0.5,-0.5 -0.5,-19.5 58.5,-19.5 58.5,-0.5 -0.5,-0.5"/>
<text text-anchor="middle" x="29" y="-7.5" font-family="Helvetica,sans-Serif" font-size="10.00">conf_data</text>
</g>
<!-- Node2 -->
<g id="node2" class="node"><title>Node2</title>
<a xlink:href="structconf__item.html" target="_top" xlink:title="conf_item">
<polygon fill="none" stroke="black" points="21.5,-100.5 21.5,-119.5 80.5,-119.5 80.5,-100.5 21.5,-100.5"/>
<text text-anchor="middle" x="51" y="-107.5" font-family="Helvetica,sans-Serif" font-size="10.00">conf_item</text>
</a>
</g>
<!-- Node2&#45;&gt;Node1 -->
<g id="edge2" class="edge"><title>Node2&#45;&gt;Node1</title>
<path fill="none" stroke="#9a32cd" stroke-dasharray="5,2" d="M35.5998,-92.5511C33.3149,-89.2705 31.2956,-85.6912 30,-82 22.4877,-60.5973 25.2577,-33.2823 27.4101,-19.6106"/>
<polygon fill="#9a32cd" stroke="#9a32cd" points="32.9442,-94.8335 41.9531,-100.409 38.3876,-90.4324 32.9442,-94.8335"/>
<text text-anchor="middle" x="41" y="-57.5" font-family="Helvetica,sans-Serif" font-size="10.00"> item</text>
</g>
<!-- Node2&#45;&gt;Node2 -->
<g id="edge18" class="edge"><title>Node2&#45;&gt;Node2</title>
<path fill="none" stroke="#9a32cd" stroke-dasharray="5,2" d="M90.8122,-115.354C95.1814,-114.334 98,-112.549 98,-110 98,-105.816 90.4095,-103.692 80.8325,-103.627"/>
<polygon fill="#9a32cd" stroke="#9a32cd" points="90.4252,-111.875 80.8325,-116.373 91.1364,-118.839 90.4252,-111.875"/>
<text text-anchor="middle" x="109" y="-107.5" font-family="Helvetica,sans-Serif" font-size="10.00"> next</text>
</g>
<!-- Node3 -->
<g id="node4" class="node"><title>Node3</title>
<a xlink:href="structconf__part.html" target="_top" xlink:title="conf_part">
<polygon fill="none" stroke="black" points="129.5,-0.5 129.5,-19.5 186.5,-19.5 186.5,-0.5 129.5,-0.5"/>
<text text-anchor="middle" x="158" y="-7.5" font-family="Helvetica,sans-Serif" font-size="10.00">conf_part</text>
</a>
</g>
<!-- Node2&#45;&gt;Node3 -->
<g id="edge8" class="edge"><title>Node2&#45;&gt;Node3</title>
<path fill="none" stroke="#9a32cd" stroke-dasharray="5,2" d="M51.5163,-90.0452C52.957,-74.1481 57.4827,-51.8782 71,-38 86.2276,-22.3658 110.319,-15.7414 129.293,-12.9561"/>
<polygon fill="#9a32cd" stroke="#9a32cd" points="48.0076,-90.099 50.9281,-100.283 54.996,-90.5006 48.0076,-90.099"/>
<text text-anchor="middle" x="88" y="-68.5" font-family="Helvetica,sans-Serif" font-size="10.00"> tail</text>
<text text-anchor="middle" x="88" y="-57.5" font-family="Helvetica,sans-Serif" font-size="10.00">item</text>
<text text-anchor="middle" x="88" y="-46.5" font-family="Helvetica,sans-Serif" font-size="10.00">children</text>
</g>
<!-- Node3&#45;&gt;Node2 -->
<g id="edge4" class="edge"><title>Node3&#45;&gt;Node2</title>
<path fill="none" stroke="#9a32cd" stroke-dasharray="5,2" d="M140.65,-26.6701C137.226,-30.2085 133.824,-34.0826 131,-38 118.216,-55.7368 124.675,-66.7576 109,-82 100.639,-90.1304 89.3793,-96.1335 79.0055,-100.387"/>
<polygon fill="#9a32cd" stroke="#9a32cd" points="143.223,-29.0503 147.962,-19.5743 138.348,-24.0269 143.223,-29.0503"/>
<text text-anchor="middle" x="146.5" y="-57.5" font-family="Helvetica,sans-Serif" font-size="10.00"> parent</text>
</g>
<!-- Node3&#45;&gt;Node3 -->
<g id="edge6" class="edge"><title>Node3&#45;&gt;Node3</title>
<path fill="none" stroke="#9a32cd" stroke-dasharray="5,2" d="M196.76,-17.9445C201.153,-16.4568 204,-13.8086 204,-10 204,-3.75 196.333,-0.625 186.75,-0.625"/>
<polygon fill="#9a32cd" stroke="#9a32cd" points="196.154,-14.4955 186.75,-19.375 197.145,-21.4251 196.154,-14.4955"/>
<text text-anchor="middle" x="224.5" y="-7.5" font-family="Helvetica,sans-Serif" font-size="10.00"> template</text>
</g>
<!-- Node4 -->
<g id="node8" class="node"><title>Node4</title>
<a xlink:href="structCONF__PARSER.html" target="_top" xlink:title="CONF_PARSER">
<polygon fill="none" stroke="black" points="139,-100.5 139,-119.5 231,-119.5 231,-100.5 139,-100.5"/>
<text text-anchor="middle" x="185" y="-107.5" font-family="Helvetica,sans-Serif" font-size="10.00">CONF_PARSER</text>
</a>
</g>
<!-- Node4&#45;&gt;Node3 -->
<g id="edge10" class="edge"><title>Node4&#45;&gt;Node3</title>
<path fill="none" stroke="#9a32cd" stroke-dasharray="5,2" d="M179.907,-90.5136C174.052,-69.2626 164.693,-35.2919 160.352,-19.5374"/>
<polygon fill="#9a32cd" stroke="#9a32cd" points="176.573,-91.592 182.604,-100.303 183.322,-89.7327 176.573,-91.592"/>
<text text-anchor="middle" x="199.5" y="-57.5" font-family="Helvetica,sans-Serif" font-size="10.00"> variables</text>
</g>
<!-- Node5 -->
<g id="node10" class="node"><title>Node5</title>
<a xlink:href="structrbtree__t.html" target="_top" xlink:title="rbtree_t">
<polygon fill="none" stroke="black" points="249,-100.5 249,-119.5 299,-119.5 299,-100.5 249,-100.5"/>
<text text-anchor="middle" x="274" y="-107.5" font-family="Helvetica,sans-Serif" font-size="10.00">rbtree_t</text>
</a>
</g>
<!-- Node5&#45;&gt;Node3 -->
<g id="edge12" class="edge"><title>Node5&#45;&gt;Node3</title>
<path fill="none" stroke="#9a32cd" stroke-dasharray="5,2" d="M265.474,-91.0985C257.122,-75.2418 243.034,-52.4315 225,-38 213.838,-29.0672 199.33,-22.736 186.671,-18.4607"/>
<polygon fill="#9a32cd" stroke="#9a32cd" points="262.506,-92.9874 270.118,-100.357 268.763,-89.8488 262.506,-92.9874"/>
<text text-anchor="middle" x="287" y="-74" font-family="Helvetica,sans-Serif" font-size="10.00"> data_tree</text>
<text text-anchor="middle" x="287" y="-63" font-family="Helvetica,sans-Serif" font-size="10.00">name2_tree</text>
<text text-anchor="middle" x="287" y="-52" font-family="Helvetica,sans-Serif" font-size="10.00">section_tree</text>
<text text-anchor="middle" x="287" y="-41" font-family="Helvetica,sans-Serif" font-size="10.00">pair_tree</text>
</g>
<!-- Node6 -->
<g id="node12" class="node"><title>Node6</title>
<a xlink:href="structrbnode__t.html" target="_top" xlink:title="rbnode_t">
<polygon fill="none" stroke="black" points="247,-174.5 247,-193.5 301,-193.5 301,-174.5 247,-174.5"/>
<text text-anchor="middle" x="274" y="-181.5" font-family="Helvetica,sans-Serif" font-size="10.00">rbnode_t</text>
</a>
</g>
<!-- Node6&#45;&gt;Node5 -->
<g id="edge14" class="edge"><title>Node6&#45;&gt;Node5</title>
<path fill="none" stroke="#9a32cd" stroke-dasharray="5,2" d="M274,-164.156C274,-149.712 274,-130.459 274,-119.531"/>
<polygon fill="#9a32cd" stroke="#9a32cd" points="270.5,-164.458 274,-174.458 277.5,-164.458 270.5,-164.458"/>
<text text-anchor="middle" x="286.5" y="-141.5" font-family="Helvetica,sans-Serif" font-size="10.00"> Root</text>
</g>
<!-- Node6&#45;&gt;Node6 -->
<g id="edge16" class="edge"><title>Node6&#45;&gt;Node6</title>
<path fill="none" stroke="#9a32cd" stroke-dasharray="5,2" d="M311.51,-190.464C316.038,-189.297 319,-187.142 319,-184 319,-178.844 311.024,-176.346 301.241,-176.507"/>
<polygon fill="#9a32cd" stroke="#9a32cd" points="310.842,-187.014 301.241,-191.493 311.54,-193.979 310.842,-187.014"/>
<text text-anchor="middle" x="333.5" y="-192.5" font-family="Helvetica,sans-Serif" font-size="10.00"> Left</text>
<text text-anchor="middle" x="333.5" y="-181.5" font-family="Helvetica,sans-Serif" font-size="10.00">Right</text>
<text text-anchor="middle" x="333.5" y="-170.5" font-family="Helvetica,sans-Serif" font-size="10.00">Parent</text>
</g>
</g>
</svg>
