<?xml version="1.0" encoding="UTF-8" standalone="no"?>
<!DOCTYPE svg PUBLIC "-//W3C//DTD SVG 1.1//EN"
 "http://www.w3.org/Graphics/SVG/1.1/DTD/svg11.dtd">
<!-- Generated by graphviz version 2.28.0 (20111211.2114)
 -->
<!-- Title: G Pages: 1 -->
<svg width="186pt" height="242pt"
 viewBox="0.00 0.00 186.00 242.00" xmlns="http://www.w3.org/2000/svg" xmlns:xlink="http://www.w3.org/1999/xlink">
<g id="graph1" class="graph" transform="scale(1 1) rotate(0) translate(4 238)">
<title>G</title>
<!-- Node1 -->
<g id="node1" class="node"><title>Node1</title>
<polygon fill="#bfbfbf" stroke="black" points="54.5,-0.5 54.5,-19.5 161.5,-19.5 161.5,-0.5 54.5,-0.5"/>
<text text-anchor="middle" x="108" y="-7.5" font-family="Helvetica,sans-Serif" font-size="10.00">mschapv2_opaque_t</text>
</g>
<!-- Node2 -->
<g id="node2" class="node"><title>Node2</title>
<a xlink:href="structvalue__pair.html" target="_top" xlink:title="value_pair">
<polygon fill="none" stroke="black" points="77.5,-78.5 77.5,-97.5 138.5,-97.5 138.5,-78.5 77.5,-78.5"/>
<text text-anchor="middle" x="108" y="-85.5" font-family="Helvetica,sans-Serif" font-size="10.00">value_pair</text>
</a>
</g>
<!-- Node2&#45;&gt;Node1 -->
<g id="edge2" class="edge"><title>Node2&#45;&gt;Node1</title>
<path fill="none" stroke="#9a32cd" stroke-dasharray="5,2" d="M108,-68.2239C108,-52.6974 108,-31.3582 108,-19.6165"/>
<polygon fill="#9a32cd" stroke="#9a32cd" points="104.5,-68.2818 108,-78.2818 111.5,-68.2819 104.5,-68.2818"/>
<text text-anchor="middle" x="135" y="-52" font-family="Helvetica,sans-Serif" font-size="10.00"> mppe_keys</text>
<text text-anchor="middle" x="135" y="-41" font-family="Helvetica,sans-Serif" font-size="10.00">reply</text>
</g>
<!-- Node2&#45;&gt;Node2 -->
<g id="edge8" class="edge"><title>Node2&#45;&gt;Node2</title>
<path fill="none" stroke="#9a32cd" stroke-dasharray="5,2" d="M149.201,-93.2246C153.353,-92.1861 156,-90.4446 156,-88 156,-83.8828 148.492,-81.7599 138.931,-81.6312"/>
<polygon fill="#9a32cd" stroke="#9a32cd" points="148.482,-89.7829 138.931,-94.3688 149.258,-96.7399 148.482,-89.7829"/>
<text text-anchor="middle" x="167" y="-85.5" font-family="Helvetica,sans-Serif" font-size="10.00"> next</text>
</g>
<!-- Node3 -->
<g id="node4" class="node"><title>Node3</title>
<a xlink:href="unionvalue__pair__data.html" target="_top" xlink:title="value_pair_data">
<polygon fill="none" stroke="black" points="-0.5,-146.5 -0.5,-165.5 84.5,-165.5 84.5,-146.5 -0.5,-146.5"/>
<text text-anchor="middle" x="42" y="-153.5" font-family="Helvetica,sans-Serif" font-size="10.00">value_pair_data</text>
</a>
</g>
<!-- Node3&#45;&gt;Node2 -->
<g id="edge4" class="edge"><title>Node3&#45;&gt;Node2</title>
<path fill="none" stroke="#9a32cd" stroke-dasharray="5,2" d="M57.9526,-139.047C70.8889,-126.111 88.6433,-108.357 99.1589,-97.8411"/>
<polygon fill="#9a32cd" stroke="#9a32cd" points="55.2246,-136.826 50.6283,-146.372 60.1743,-141.775 55.2246,-136.826"/>
<text text-anchor="middle" x="92" y="-119.5" font-family="Helvetica,sans-Serif" font-size="10.00"> data</text>
</g>
<!-- Node4 -->
<g id="node6" class="node"><title>Node4</title>
<a xlink:href="structin6__addr.html" target="_top" xlink:title="in6_addr">
<polygon fill="none" stroke="black" points="15.5,-214.5 15.5,-233.5 68.5,-233.5 68.5,-214.5 15.5,-214.5"/>
<text text-anchor="middle" x="42" y="-221.5" font-family="Helvetica,sans-Serif" font-size="10.00">in6_addr</text>
</a>
</g>
<!-- Node4&#45;&gt;Node3 -->
<g id="edge6" class="edge"><title>Node4&#45;&gt;Node3</title>
<path fill="none" stroke="#9a32cd" stroke-dasharray="5,2" d="M42,-204.041C42,-191.472 42,-175.563 42,-165.841"/>
<polygon fill="#9a32cd" stroke="#9a32cd" points="38.5001,-204.372 42,-214.372 45.5001,-204.372 38.5001,-204.372"/>
<text text-anchor="middle" x="62" y="-187.5" font-family="Helvetica,sans-Serif" font-size="10.00"> ipv6addr</text>
</g>
<!-- Node5 -->
<g id="node9" class="node"><title>Node5</title>
<a xlink:href="structattr__flags.html" target="_top" xlink:title="attr_flags">
<polygon fill="none" stroke="black" points="102.5,-146.5 102.5,-165.5 159.5,-165.5 159.5,-146.5 102.5,-146.5"/>
<text text-anchor="middle" x="131" y="-153.5" font-family="Helvetica,sans-Serif" font-size="10.00">attr_flags</text>
</a>
</g>
<!-- Node5&#45;&gt;Node2 -->
<g id="edge10" class="edge"><title>Node5&#45;&gt;Node2</title>
<path fill="none" stroke="#9a32cd" stroke-dasharray="5,2" d="M124.66,-136.807C120.24,-124.124 114.538,-107.762 111.081,-97.8411"/>
<polygon fill="#9a32cd" stroke="#9a32cd" points="121.397,-138.08 127.993,-146.372 128.007,-135.777 121.397,-138.08"/>
<text text-anchor="middle" x="133.5" y="-119.5" font-family="Helvetica,sans-Serif" font-size="10.00"> flags</text>
</g>
</g>
</svg>
