<?xml version="1.0" encoding="UTF-8" standalone="no"?>
<!DOCTYPE svg PUBLIC "-//W3C//DTD SVG 1.1//EN"
 "http://www.w3.org/Graphics/SVG/1.1/DTD/svg11.dtd">
<!-- Generated by graphviz version 2.28.0 (20111211.2114)
 -->
<!-- Title: G Pages: 1 -->
<svg width="136pt" height="164pt"
 viewBox="0.00 0.00 136.00 164.00" xmlns="http://www.w3.org/2000/svg" xmlns:xlink="http://www.w3.org/1999/xlink">
<g id="graph1" class="graph" transform="scale(1 1) rotate(0) translate(4 160)">
<title>G</title>
<!-- Node1 -->
<g id="node1" class="node"><title>Node1</title>
<polygon fill="#bfbfbf" stroke="black" points="3,-0.5 3,-19.5 73,-19.5 73,-0.5 3,-0.5"/>
<text text-anchor="middle" x="38" y="-7.5" font-family="Helvetica,sans-Serif" font-size="10.00">cl_em_hdr_t</text>
</g>
<!-- Node2 -->
<g id="node2" class="node"><title>Node2</title>
<a xlink:href="structcl__bcid__t.html" target="_top" xlink:title="cl_bcid_t">
<polygon fill="none" stroke="black" points="73,-68.5 73,-87.5 129,-87.5 129,-68.5 73,-68.5"/>
<text text-anchor="middle" x="101" y="-75.5" font-family="Helvetica,sans-Serif" font-size="10.00">cl_bcid_t</text>
</a>
</g>
<!-- Node2&#45;&gt;Node1 -->
<g id="edge2" class="edge"><title>Node2&#45;&gt;Node1</title>
<path fill="none" stroke="#9a32cd" stroke-dasharray="5,2" d="M85.7725,-61.0474C73.4243,-48.1111 56.4769,-30.3567 46.4393,-19.8411"/>
<polygon fill="#9a32cd" stroke="#9a32cd" points="83.3273,-63.5547 92.7639,-68.3717 88.3908,-58.7214 83.3273,-63.5547"/>
<text text-anchor="middle" x="86" y="-41.5" font-family="Helvetica,sans-Serif" font-size="10.00"> bcid</text>
</g>
<!-- Node3 -->
<g id="node4" class="node"><title>Node3</title>
<a xlink:href="structcl__timezone__t.html" target="_top" xlink:title="cl_timezone_t">
<polygon fill="none" stroke="black" points="-0.5,-136.5 -0.5,-155.5 76.5,-155.5 76.5,-136.5 -0.5,-136.5"/>
<text text-anchor="middle" x="38" y="-143.5" font-family="Helvetica,sans-Serif" font-size="10.00">cl_timezone_t</text>
</a>
</g>
<!-- Node3&#45;&gt;Node1 -->
<g id="edge6" class="edge"><title>Node3&#45;&gt;Node1</title>
<path fill="none" stroke="#9a32cd" stroke-dasharray="5,2" d="M28.7319,-127.152C23.5649,-116.181 17.6509,-101.654 15,-88 10.1073,-62.7995 24.1297,-34.0464 32.4043,-19.8662"/>
<polygon fill="#9a32cd" stroke="#9a32cd" points="25.7541,-129.026 33.326,-136.436 32.028,-125.921 25.7541,-129.026"/>
<text text-anchor="middle" x="39.5" y="-75.5" font-family="Helvetica,sans-Serif" font-size="10.00"> time_zone</text>
</g>
<!-- Node3&#45;&gt;Node2 -->
<g id="edge4" class="edge"><title>Node3&#45;&gt;Node2</title>
<path fill="none" stroke="#9a32cd" stroke-dasharray="5,2" d="M53.2275,-129.047C65.5757,-116.111 82.5231,-98.3567 92.5607,-87.8411"/>
<polygon fill="#9a32cd" stroke="#9a32cd" points="50.6092,-126.721 46.2361,-136.372 55.6727,-131.555 50.6092,-126.721"/>
<text text-anchor="middle" x="96.5" y="-109.5" font-family="Helvetica,sans-Serif" font-size="10.00"> timezone</text>
</g>
</g>
</svg>
