<?xml version="1.0" encoding="UTF-8" standalone="no"?>
<!DOCTYPE svg PUBLIC "-//W3C//DTD SVG 1.1//EN"
 "http://www.w3.org/Graphics/SVG/1.1/DTD/svg11.dtd">
<!-- Generated by graphviz version 2.28.0 (20111211.2114)
 -->
<!-- Title: G Pages: 1 -->
<svg width="131pt" height="174pt"
 viewBox="0.00 0.00 131.00 174.00" xmlns="http://www.w3.org/2000/svg" xmlns:xlink="http://www.w3.org/1999/xlink">
<g id="graph1" class="graph" transform="scale(1 1) rotate(0) translate(4 170)">
<title>G</title>
<!-- Node1 -->
<g id="node1" class="node"><title>Node1</title>
<polygon fill="#bfbfbf" stroke="black" points="0,-0.5 0,-19.5 82,-19.5 82,-0.5 0,-0.5"/>
<text text-anchor="middle" x="41" y="-7.5" font-family="Helvetica,sans-Serif" font-size="10.00">detail_instance</text>
</g>
<!-- Node2 -->
<g id="node2" class="node"><title>Node2</title>
<a xlink:href="structfr__hash__table__t.html" target="_top" xlink:title="fr_hash_table_t">
<polygon fill="none" stroke="black" points="-0.5,-68.5 -0.5,-87.5 82.5,-87.5 82.5,-68.5 -0.5,-68.5"/>
<text text-anchor="middle" x="41" y="-75.5" font-family="Helvetica,sans-Serif" font-size="10.00">fr_hash_table_t</text>
</a>
</g>
<!-- Node2&#45;&gt;Node1 -->
<g id="edge2" class="edge"><title>Node2&#45;&gt;Node1</title>
<path fill="none" stroke="#9a32cd" stroke-dasharray="5,2" d="M41,-58.0413C41,-45.4724 41,-29.5631 41,-19.8411"/>
<polygon fill="#9a32cd" stroke="#9a32cd" points="37.5001,-58.3716 41,-68.3717 44.5001,-58.3717 37.5001,-58.3716"/>
<text text-anchor="middle" x="47" y="-41.5" font-family="Helvetica,sans-Serif" font-size="10.00"> ht</text>
</g>
<!-- Node3 -->
<g id="node4" class="node"><title>Node3</title>
<a xlink:href="structfr__hash__entry__t.html" target="_top" xlink:title="fr_hash_entry_t">
<polygon fill="none" stroke="black" points="-1,-146.5 -1,-165.5 83,-165.5 83,-146.5 -1,-146.5"/>
<text text-anchor="middle" x="41" y="-153.5" font-family="Helvetica,sans-Serif" font-size="10.00">fr_hash_entry_t</text>
</a>
</g>
<!-- Node3&#45;&gt;Node2 -->
<g id="edge4" class="edge"><title>Node3&#45;&gt;Node2</title>
<path fill="none" stroke="#9a32cd" stroke-dasharray="5,2" d="M41,-136.224C41,-120.697 41,-99.3582 41,-87.6165"/>
<polygon fill="#9a32cd" stroke="#9a32cd" points="37.5001,-136.282 41,-146.282 44.5001,-136.282 37.5001,-136.282"/>
<text text-anchor="middle" x="58.5" y="-120" font-family="Helvetica,sans-Serif" font-size="10.00"> null</text>
<text text-anchor="middle" x="58.5" y="-109" font-family="Helvetica,sans-Serif" font-size="10.00">buckets</text>
</g>
<!-- Node3&#45;&gt;Node3 -->
<g id="edge6" class="edge"><title>Node3&#45;&gt;Node3</title>
<path fill="none" stroke="#9a32cd" stroke-dasharray="5,2" d="M93.0868,-161.476C97.3521,-160.29 100,-158.465 100,-156 100,-151.955 92.8693,-149.632 83.162,-149.032"/>
<polygon fill="#9a32cd" stroke="#9a32cd" points="92.5306,-158.02 83.162,-162.968 93.5712,-164.942 92.5306,-158.02"/>
<text text-anchor="middle" x="111" y="-153.5" font-family="Helvetica,sans-Serif" font-size="10.00"> next</text>
</g>
</g>
</svg>
