<?xml version="1.0" encoding="UTF-8" standalone="no"?>
<!DOCTYPE svg PUBLIC "-//W3C//DTD SVG 1.1//EN"
 "http://www.w3.org/Graphics/SVG/1.1/DTD/svg11.dtd">
<!-- Generated by graphviz version 2.28.0 (20111211.2114)
 -->
<!-- Title: G Pages: 1 -->
<!--zoomable-->
<svg id="main" version="1.1" xmlns="http://www.w3.org/2000/svg" xmlns:xlink="http://www.w3.org/1999/xlink" xml:space="preserve" onload="init(evt)">
        <defs>
                <circle id="rim" cx="0" cy="0" r="7"/>
                <circle id="rim2" cx="0" cy="0" r="3.5"/>
                <g id="zoomPlus">
                        <use xlink:href="#rim" fill="#404040">
                                <set attributeName="fill" to="#808080" begin="zoomplus.mouseover" end="zoomplus.mouseout"/>
                        </use>
                        <path d="M-4,0h8M0,-4v8" fill="none" stroke="white" stroke-width="1.5" pointer-events="none"/>
                </g>
                <g id="zoomMin">
                        <use xlink:href="#rim" fill="#404040">
                                <set attributeName="fill" to="#808080" begin="zoomminus.mouseover" end="zoomminus.mouseout"/>
                        </use>
                        <path d="M-4,0h8" fill="none" stroke="white" stroke-width="1.5" pointer-events="none"/>
                </g>
                <g id="dirArrow">
                        <path fill="none" stroke="white" stroke-width="1.5" d="M0,-3.0v7 M-2.5,-0.5L0,-3.0L2.5,-0.5"/>
                </g>
               <g id="resetDef">
                       <use xlink:href="#rim2" fill="#404040">
                               <set attributeName="fill" to="#808080" begin="reset.mouseover" end="reset.mouseout"/>
                       </use>
               </g>
        </defs>

<script type="text/javascript">
var viewWidth = 310;
var viewHeight = 466;
var sectionId = 'dynsection-0';
</script>
<script xlink:href="svgpan.js"/>
<svg id="graph" class="graph">
<g id="viewport">
<title>G</title>
<!-- Node1 -->
<g id="node1" class="node"><title>Node1</title>
<polygon fill="#bfbfbf" stroke="black" points="-1,-0.5 -1,-19.5 101,-19.5 101,-0.5 -1,-0.5"/>
<text text-anchor="middle" x="50" y="-7.5" font-family="Helvetica,sans-Serif" font-size="10.00">rad_listen_master_t</text>
</g>
<!-- Node2 -->
<g id="node2" class="node"><title>Node2</title>
<a xlink:href="structrad__listen__t.html" target="_top" xlink:title="rad_listen_t">
<polygon fill="none" stroke="black" points="68.5,-145.5 68.5,-164.5 135.5,-164.5 135.5,-145.5 68.5,-145.5"/>
<text text-anchor="middle" x="102" y="-152.5" font-family="Helvetica,sans-Serif" font-size="10.00">rad_listen_t</text>
</a>
</g>
<!-- Node2&#45;&gt;Node1 -->
<g id="edge2" class="edge"><title>Node2&#45;&gt;Node1</title>
<path fill="none" stroke="#9a32cd" stroke-dasharray="5,2" d="M95.4246,-135.918C84.1301,-104.858 61.4577,-42.5086 53.1466,-19.6532"/>
<polygon fill="#9a32cd" stroke="#9a32cd" points="92.1961,-137.281 98.9029,-145.483 98.7747,-134.889 92.1961,-137.281"/>
<text text-anchor="middle" x="101.5" y="-96" font-family="Helvetica,sans-Serif" font-size="10.00"> encode</text>
<text text-anchor="middle" x="101.5" y="-85" font-family="Helvetica,sans-Serif" font-size="10.00">recv</text>
<text text-anchor="middle" x="101.5" y="-74" font-family="Helvetica,sans-Serif" font-size="10.00">print</text>
<text text-anchor="middle" x="101.5" y="-63" font-family="Helvetica,sans-Serif" font-size="10.00">send</text>
<text text-anchor="middle" x="101.5" y="-52" font-family="Helvetica,sans-Serif" font-size="10.00">free</text>
<text text-anchor="middle" x="101.5" y="-41" font-family="Helvetica,sans-Serif" font-size="10.00">decode</text>
</g>
<!-- Node2&#45;&gt;Node2 -->
<g id="edge4" class="edge"><title>Node2&#45;&gt;Node2</title>
<path fill="none" stroke="#9a32cd" stroke-dasharray="5,2" d="M127.059,-167.204C140.616,-169.328 153,-165.26 153,-155 153,-142.25 133.875,-139.062 117.141,-145.438"/>
<polygon fill="#9a32cd" stroke="#9a32cd" points="127.705,-163.753 117.141,-164.562 125.903,-170.518 127.705,-163.753"/>
<text text-anchor="middle" x="169" y="-180" font-family="Helvetica,sans-Serif" font-size="10.00"> next</text>
<text text-anchor="middle" x="169" y="-169" font-family="Helvetica,sans-Serif" font-size="10.00">encode</text>
<text text-anchor="middle" x="169" y="-158" font-family="Helvetica,sans-Serif" font-size="10.00">recv</text>
<text text-anchor="middle" x="169" y="-147" font-family="Helvetica,sans-Serif" font-size="10.00">print</text>
<text text-anchor="middle" x="169" y="-136" font-family="Helvetica,sans-Serif" font-size="10.00">send</text>
<text text-anchor="middle" x="169" y="-125" font-family="Helvetica,sans-Serif" font-size="10.00">decode</text>
</g>
<!-- Node3 -->
<g id="node5" class="node"><title>Node3</title>
<a xlink:href="structconf__part.html" target="_top" xlink:title="conf_part">
<polygon fill="none" stroke="black" points="106.5,-258.5 106.5,-277.5 163.5,-277.5 163.5,-258.5 106.5,-258.5"/>
<text text-anchor="middle" x="135" y="-265.5" font-family="Helvetica,sans-Serif" font-size="10.00">conf_part</text>
</a>
</g>
<!-- Node3&#45;&gt;Node1 -->
<g id="edge24" class="edge"><title>Node3&#45;&gt;Node1</title>
<path fill="none" stroke="#9a32cd" stroke-dasharray="5,2" d="M105.291,-253.895C80.3398,-241.085 46.3705,-218.978 31,-188 1.87815,-129.308 34.0194,-46.4395 45.9282,-19.6874"/>
<polygon fill="#9a32cd" stroke="#9a32cd" points="103.837,-257.08 114.355,-258.349 106.924,-250.798 103.837,-257.08"/>
<text text-anchor="middle" x="45" y="-152.5" font-family="Helvetica,sans-Serif" font-size="10.00"> parse</text>
</g>
<!-- Node3&#45;&gt;Node2 -->
<g id="edge6" class="edge"><title>Node3&#45;&gt;Node2</title>
<path fill="none" stroke="#9a32cd" stroke-dasharray="5,2" d="M129.502,-248.508C122.287,-224.24 109.916,-182.628 104.577,-164.67"/>
<polygon fill="#9a32cd" stroke="#9a32cd" points="126.206,-249.702 132.411,-258.29 132.916,-247.707 126.206,-249.702"/>
<text text-anchor="middle" x="134" y="-220.5" font-family="Helvetica,sans-Serif" font-size="10.00"> cs</text>
</g>
<!-- Node3&#45;&gt;Node3 -->
<g id="edge8" class="edge"><title>Node3&#45;&gt;Node3</title>
<path fill="none" stroke="#9a32cd" stroke-dasharray="5,2" d="M173.76,-274.991C178.153,-273.682 181,-271.352 181,-268 181,-262.5 173.333,-259.75 163.75,-259.75"/>
<polygon fill="#9a32cd" stroke="#9a32cd" points="173.235,-271.53 163.75,-276.25 174.109,-278.475 173.235,-271.53"/>
<text text-anchor="middle" x="201.5" y="-265.5" font-family="Helvetica,sans-Serif" font-size="10.00"> template</text>
</g>
<!-- Node4 -->
<g id="node8" class="node"><title>Node4</title>
<a xlink:href="structconf__item.html" target="_top" xlink:title="conf_item">
<polygon fill="none" stroke="black" points="203.5,-145.5 203.5,-164.5 262.5,-164.5 262.5,-145.5 203.5,-145.5"/>
<text text-anchor="middle" x="233" y="-152.5" font-family="Helvetica,sans-Serif" font-size="10.00">conf_item</text>
</a>
</g>
<!-- Node3&#45;&gt;Node4 -->
<g id="edge12" class="edge"><title>Node3&#45;&gt;Node4</title>
<path fill="none" stroke="#9a32cd" stroke-dasharray="5,2" d="M140.608,-248.438C145.259,-235.412 152.917,-218.21 164,-206 174.451,-194.487 181.289,-196.956 194,-188 204.453,-180.635 215.668,-171.263 223.376,-164.568"/>
<polygon fill="#9a32cd" stroke="#9a32cd" points="137.198,-247.603 137.399,-258.196 143.848,-249.79 137.198,-247.603"/>
<text text-anchor="middle" x="179.5" y="-220.5" font-family="Helvetica,sans-Serif" font-size="10.00"> parent</text>
</g>
<!-- Node4&#45;&gt;Node3 -->
<g id="edge10" class="edge"><title>Node4&#45;&gt;Node3</title>
<path fill="none" stroke="#9a32cd" stroke-dasharray="5,2" d="M229.806,-174.52C225.689,-193.239 216.825,-221.912 199,-240 189.435,-249.706 175.844,-256.104 163.645,-260.223"/>
<polygon fill="#9a32cd" stroke="#9a32cd" points="233.267,-175.055 231.753,-164.569 226.397,-173.711 233.267,-175.055"/>
<text text-anchor="middle" x="237" y="-231.5" font-family="Helvetica,sans-Serif" font-size="10.00"> tail</text>
<text text-anchor="middle" x="237" y="-220.5" font-family="Helvetica,sans-Serif" font-size="10.00">item</text>
<text text-anchor="middle" x="237" y="-209.5" font-family="Helvetica,sans-Serif" font-size="10.00">children</text>
</g>
<!-- Node4&#45;&gt;Node4 -->
<g id="edge14" class="edge"><title>Node4&#45;&gt;Node4</title>
<path fill="none" stroke="#9a32cd" stroke-dasharray="5,2" d="M256.82,-167.32C269.026,-169.167 280,-165.061 280,-155 280,-142.25 262.375,-139.062 246.953,-145.438"/>
<polygon fill="#9a32cd" stroke="#9a32cd" points="257.526,-163.883 246.953,-164.562 255.642,-170.625 257.526,-163.883"/>
<text text-anchor="middle" x="291" y="-152.5" font-family="Helvetica,sans-Serif" font-size="10.00"> next</text>
</g>
<!-- Node5 -->
<g id="node12" class="node"><title>Node5</title>
<a xlink:href="structCONF__PARSER.html" target="_top" xlink:title="CONF_PARSER">
<polygon fill="none" stroke="black" points="51,-358.5 51,-377.5 143,-377.5 143,-358.5 51,-358.5"/>
<text text-anchor="middle" x="97" y="-365.5" font-family="Helvetica,sans-Serif" font-size="10.00">CONF_PARSER</text>
</a>
</g>
<!-- Node5&#45;&gt;Node3 -->
<g id="edge16" class="edge"><title>Node5&#45;&gt;Node3</title>
<path fill="none" stroke="#9a32cd" stroke-dasharray="5,2" d="M97.1807,-348.157C98.0122,-333.277 100.748,-312.367 109,-296 112.574,-288.911 118.647,-282.447 124.024,-277.622"/>
<polygon fill="#9a32cd" stroke="#9a32cd" points="93.6816,-348.077 96.8563,-358.185 100.678,-348.303 93.6816,-348.077"/>
<text text-anchor="middle" x="130.5" y="-315.5" font-family="Helvetica,sans-Serif" font-size="10.00"> variables</text>
</g>
<!-- Node6 -->
<g id="node14" class="node"><title>Node6</title>
<a xlink:href="structrbtree__t.html" target="_top" xlink:title="rbtree_t">
<polygon fill="none" stroke="black" points="161,-358.5 161,-377.5 211,-377.5 211,-358.5 161,-358.5"/>
<text text-anchor="middle" x="186" y="-365.5" font-family="Helvetica,sans-Serif" font-size="10.00">rbtree_t</text>
</a>
</g>
<!-- Node6&#45;&gt;Node3 -->
<g id="edge18" class="edge"><title>Node6&#45;&gt;Node3</title>
<path fill="none" stroke="#9a32cd" stroke-dasharray="5,2" d="M177.963,-348.75C171.404,-334.235 161.671,-313.524 152,-296 148.574,-289.792 144.324,-283.042 140.931,-277.844"/>
<polygon fill="#9a32cd" stroke="#9a32cd" points="174.86,-350.386 182.132,-358.091 181.253,-347.533 174.86,-350.386"/>
<text text-anchor="middle" x="201" y="-332" font-family="Helvetica,sans-Serif" font-size="10.00"> data_tree</text>
<text text-anchor="middle" x="201" y="-321" font-family="Helvetica,sans-Serif" font-size="10.00">name2_tree</text>
<text text-anchor="middle" x="201" y="-310" font-family="Helvetica,sans-Serif" font-size="10.00">section_tree</text>
<text text-anchor="middle" x="201" y="-299" font-family="Helvetica,sans-Serif" font-size="10.00">pair_tree</text>
</g>
<!-- Node7 -->
<g id="node16" class="node"><title>Node7</title>
<a xlink:href="structrbnode__t.html" target="_top" xlink:title="rbnode_t">
<polygon fill="none" stroke="black" points="159,-432.5 159,-451.5 213,-451.5 213,-432.5 159,-432.5"/>
<text text-anchor="middle" x="186" y="-439.5" font-family="Helvetica,sans-Serif" font-size="10.00">rbnode_t</text>
</a>
</g>
<!-- Node7&#45;&gt;Node6 -->
<g id="edge20" class="edge"><title>Node7&#45;&gt;Node6</title>
<path fill="none" stroke="#9a32cd" stroke-dasharray="5,2" d="M186,-422.156C186,-407.712 186,-388.459 186,-377.531"/>
<polygon fill="#9a32cd" stroke="#9a32cd" points="182.5,-422.458 186,-432.458 189.5,-422.458 182.5,-422.458"/>
<text text-anchor="middle" x="198.5" y="-399.5" font-family="Helvetica,sans-Serif" font-size="10.00"> Root</text>
</g>
<!-- Node7&#45;&gt;Node7 -->
<g id="edge22" class="edge"><title>Node7&#45;&gt;Node7</title>
<path fill="none" stroke="#9a32cd" stroke-dasharray="5,2" d="M223.51,-448.464C228.038,-447.297 231,-445.142 231,-442 231,-436.844 223.024,-434.346 213.241,-434.507"/>
<polygon fill="#9a32cd" stroke="#9a32cd" points="222.842,-445.014 213.241,-449.493 223.54,-451.979 222.842,-445.014"/>
<text text-anchor="middle" x="245.5" y="-450.5" font-family="Helvetica,sans-Serif" font-size="10.00"> Left</text>
<text text-anchor="middle" x="245.5" y="-439.5" font-family="Helvetica,sans-Serif" font-size="10.00">Right</text>
<text text-anchor="middle" x="245.5" y="-428.5" font-family="Helvetica,sans-Serif" font-size="10.00">Parent</text>
</g>
</g>
</svg>
        <g id="navigator" transform="translate(0 0)" fill="#404254">
                <rect fill="#f2f5e9" fill-opacity="0.5" stroke="#606060" stroke-width=".5" x="0" y="0" width="60" height="60"/>
                <use id="zoomplus" xlink:href="#zoomPlus" x="17" y="9" onmousedown="handleZoom(evt,'in')"/>
                <use id="zoomminus" xlink:href="#zoomMin" x="42" y="9" onmousedown="handleZoom(evt,'out')"/>
                <use id="reset" xlink:href="#resetDef" x="30" y="36" onmousedown="handleReset()"/>
                <g id="arrowUp" xlink:href="#dirArrow" transform="translate(30 24)" onmousedown="handlePan(0,-1)">
                  <use xlink:href="#rim" fill="#404040">
                        <set attributeName="fill" to="#808080" begin="arrowUp.mouseover" end="arrowUp.mouseout"/>
                  </use>
                  <path fill="none" stroke="white" stroke-width="1.5" d="M0,-3.0v7 M-2.5,-0.5L0,-3.0L2.5,-0.5"/>
                </g>
                <g id="arrowRight" xlink:href="#dirArrow" transform="rotate(90) translate(36 -43)" onmousedown="handlePan(1,0)">
                  <use xlink:href="#rim" fill="#404040">
                        <set attributeName="fill" to="#808080" begin="arrowRight.mouseover" end="arrowRight.mouseout"/>
                  </use>
                  <path fill="none" stroke="white" stroke-width="1.5" d="M0,-3.0v7 M-2.5,-0.5L0,-3.0L2.5,-0.5"/>
                </g>
                <g id="arrowDown" xlink:href="#dirArrow" transform="rotate(180) translate(-30 -48)" onmousedown="handlePan(0,1)">
                  <use xlink:href="#rim" fill="#404040">
                        <set attributeName="fill" to="#808080" begin="arrowDown.mouseover" end="arrowDown.mouseout"/>
                  </use>
                  <path fill="none" stroke="white" stroke-width="1.5" d="M0,-3.0v7 M-2.5,-0.5L0,-3.0L2.5,-0.5"/>
                </g>
                <g id="arrowLeft" xlink:href="#dirArrow" transform="rotate(270) translate(-36 17)" onmousedown="handlePan(-1,0)">
                  <use xlink:href="#rim" fill="#404040">
                        <set attributeName="fill" to="#808080" begin="arrowLeft.mouseover" end="arrowLeft.mouseout"/>
                  </use>
                  <path fill="none" stroke="white" stroke-width="1.5" d="M0,-3.0v7 M-2.5,-0.5L0,-3.0L2.5,-0.5"/>
                </g>
        </g>
</svg>
