<?xml version="1.0" encoding="UTF-8" standalone="no"?>
<!DOCTYPE svg PUBLIC "-//W3C//DTD SVG 1.1//EN"
 "http://www.w3.org/Graphics/SVG/1.1/DTD/svg11.dtd">
<!-- Generated by graphviz version 2.28.0 (20111211.2114)
 -->
<!-- Title: G Pages: 1 -->
<svg width="205pt" height="244pt"
 viewBox="0.00 0.00 205.00 244.00" xmlns="http://www.w3.org/2000/svg" xmlns:xlink="http://www.w3.org/1999/xlink">
<g id="graph1" class="graph" transform="scale(1 1) rotate(0) translate(4 240)">
<title>G</title>
<!-- Node1 -->
<g id="node1" class="node"><title>Node1</title>
<polygon fill="#bfbfbf" stroke="black" points="83,-1.5 83,-20.5 133,-20.5 133,-1.5 83,-1.5"/>
<text text-anchor="middle" x="108" y="-8.5" font-family="Helvetica,sans-Serif" font-size="10.00">pair_list</text>
</g>
<!-- Node1&#45;&gt;Node1 -->
<g id="edge2" class="edge"><title>Node1&#45;&gt;Node1</title>
<path fill="none" stroke="#9a32cd" stroke-dasharray="5,2" d="M143.446,-17.5679C147.996,-16.4266 151,-14.2373 151,-11 151,-5.6875 142.91,-3.19727 133.176,-3.5293"/>
<polygon fill="#9a32cd" stroke="#9a32cd" points="142.831,-14.1084 133.176,-18.4707 143.444,-21.0815 142.831,-14.1084"/>
<text text-anchor="middle" x="174" y="-14" font-family="Helvetica,sans-Serif" font-size="10.00"> next</text>
<text text-anchor="middle" x="174" y="-3" font-family="Helvetica,sans-Serif" font-size="10.00">lastdefault</text>
</g>
<!-- Node2 -->
<g id="node3" class="node"><title>Node2</title>
<a xlink:href="structvalue__pair.html" target="_top" xlink:title="value_pair">
<polygon fill="none" stroke="black" points="77.5,-80.5 77.5,-99.5 138.5,-99.5 138.5,-80.5 77.5,-80.5"/>
<text text-anchor="middle" x="108" y="-87.5" font-family="Helvetica,sans-Serif" font-size="10.00">value_pair</text>
</a>
</g>
<!-- Node2&#45;&gt;Node1 -->
<g id="edge4" class="edge"><title>Node2&#45;&gt;Node1</title>
<path fill="none" stroke="#9a32cd" stroke-dasharray="5,2" d="M108,-70.3145C108,-54.5917 108,-32.8079 108,-20.8094"/>
<polygon fill="#9a32cd" stroke="#9a32cd" points="104.5,-70.4654 108,-80.4655 111.5,-70.4655 104.5,-70.4654"/>
<text text-anchor="middle" x="121.5" y="-54" font-family="Helvetica,sans-Serif" font-size="10.00"> reply</text>
<text text-anchor="middle" x="121.5" y="-43" font-family="Helvetica,sans-Serif" font-size="10.00">check</text>
</g>
<!-- Node2&#45;&gt;Node2 -->
<g id="edge10" class="edge"><title>Node2&#45;&gt;Node2</title>
<path fill="none" stroke="#9a32cd" stroke-dasharray="5,2" d="M149.201,-95.2246C153.353,-94.1861 156,-92.4446 156,-90 156,-85.8828 148.492,-83.7599 138.931,-83.6312"/>
<polygon fill="#9a32cd" stroke="#9a32cd" points="148.482,-91.7829 138.931,-96.3688 149.258,-98.7399 148.482,-91.7829"/>
<text text-anchor="middle" x="167" y="-87.5" font-family="Helvetica,sans-Serif" font-size="10.00"> next</text>
</g>
<!-- Node3 -->
<g id="node5" class="node"><title>Node3</title>
<a xlink:href="unionvalue__pair__data.html" target="_top" xlink:title="value_pair_data">
<polygon fill="none" stroke="black" points="-0.5,-148.5 -0.5,-167.5 84.5,-167.5 84.5,-148.5 -0.5,-148.5"/>
<text text-anchor="middle" x="42" y="-155.5" font-family="Helvetica,sans-Serif" font-size="10.00">value_pair_data</text>
</a>
</g>
<!-- Node3&#45;&gt;Node2 -->
<g id="edge6" class="edge"><title>Node3&#45;&gt;Node2</title>
<path fill="none" stroke="#9a32cd" stroke-dasharray="5,2" d="M57.9526,-141.047C70.8889,-128.111 88.6433,-110.357 99.1589,-99.8411"/>
<polygon fill="#9a32cd" stroke="#9a32cd" points="55.2246,-138.826 50.6283,-148.372 60.1743,-143.775 55.2246,-138.826"/>
<text text-anchor="middle" x="92" y="-121.5" font-family="Helvetica,sans-Serif" font-size="10.00"> data</text>
</g>
<!-- Node4 -->
<g id="node7" class="node"><title>Node4</title>
<a xlink:href="structin6__addr.html" target="_top" xlink:title="in6_addr">
<polygon fill="none" stroke="black" points="15.5,-216.5 15.5,-235.5 68.5,-235.5 68.5,-216.5 15.5,-216.5"/>
<text text-anchor="middle" x="42" y="-223.5" font-family="Helvetica,sans-Serif" font-size="10.00">in6_addr</text>
</a>
</g>
<!-- Node4&#45;&gt;Node3 -->
<g id="edge8" class="edge"><title>Node4&#45;&gt;Node3</title>
<path fill="none" stroke="#9a32cd" stroke-dasharray="5,2" d="M42,-206.041C42,-193.472 42,-177.563 42,-167.841"/>
<polygon fill="#9a32cd" stroke="#9a32cd" points="38.5001,-206.372 42,-216.372 45.5001,-206.372 38.5001,-206.372"/>
<text text-anchor="middle" x="62" y="-189.5" font-family="Helvetica,sans-Serif" font-size="10.00"> ipv6addr</text>
</g>
<!-- Node5 -->
<g id="node10" class="node"><title>Node5</title>
<a xlink:href="structattr__flags.html" target="_top" xlink:title="attr_flags">
<polygon fill="none" stroke="black" points="102.5,-148.5 102.5,-167.5 159.5,-167.5 159.5,-148.5 102.5,-148.5"/>
<text text-anchor="middle" x="131" y="-155.5" font-family="Helvetica,sans-Serif" font-size="10.00">attr_flags</text>
</a>
</g>
<!-- Node5&#45;&gt;Node2 -->
<g id="edge12" class="edge"><title>Node5&#45;&gt;Node2</title>
<path fill="none" stroke="#9a32cd" stroke-dasharray="5,2" d="M124.66,-138.807C120.24,-126.124 114.538,-109.762 111.081,-99.8411"/>
<polygon fill="#9a32cd" stroke="#9a32cd" points="121.397,-140.08 127.993,-148.372 128.007,-137.777 121.397,-140.08"/>
<text text-anchor="middle" x="133.5" y="-121.5" font-family="Helvetica,sans-Serif" font-size="10.00"> flags</text>
</g>
</g>
</svg>
