<?xml version="1.0" encoding="UTF-8" standalone="no"?>
<!DOCTYPE svg PUBLIC "-//W3C//DTD SVG 1.1//EN"
 "http://www.w3.org/Graphics/SVG/1.1/DTD/svg11.dtd">
<!-- Generated by graphviz version 2.28.0 (20111211.2114)
 -->
<!-- Title: G Pages: 1 -->
<svg width="225pt" height="254pt"
 viewBox="0.00 0.00 225.00 254.00" xmlns="http://www.w3.org/2000/svg" xmlns:xlink="http://www.w3.org/1999/xlink">
<g id="graph1" class="graph" transform="scale(1 1) rotate(0) translate(4 250)">
<title>G</title>
<!-- Node1 -->
<g id="node1" class="node"><title>Node1</title>
<polygon fill="#bfbfbf" stroke="black" points="58.5,-0.5 58.5,-19.5 141.5,-19.5 141.5,-0.5 58.5,-0.5"/>
<text text-anchor="middle" x="100" y="-7.5" font-family="Helvetica,sans-Serif" font-size="10.00">fr_packet_list_t</text>
</g>
<!-- Node2 -->
<g id="node2" class="node"><title>Node2</title>
<a xlink:href="structfr__packet__socket__t.html" target="_top" xlink:title="fr_packet_socket_t">
<polygon fill="none" stroke="black" points="0,-68.5 0,-87.5 100,-87.5 100,-68.5 0,-68.5"/>
<text text-anchor="middle" x="50" y="-75.5" font-family="Helvetica,sans-Serif" font-size="10.00">fr_packet_socket_t</text>
</a>
</g>
<!-- Node2&#45;&gt;Node1 -->
<g id="edge2" class="edge"><title>Node2&#45;&gt;Node1</title>
<path fill="none" stroke="#9a32cd" stroke-dasharray="5,2" d="M60.1667,-59.7098C64.4782,-52.7731 69.7217,-44.8221 75,-38 80.0038,-31.5327 86.2538,-24.7827 91.2528,-19.6495"/>
<polygon fill="#9a32cd" stroke="#9a32cd" points="57.1284,-57.9704 54.9494,-68.3388 63.1186,-61.5923 57.1284,-57.9704"/>
<text text-anchor="middle" x="94" y="-41.5" font-family="Helvetica,sans-Serif" font-size="10.00"> sockets</text>
</g>
<!-- Node3 -->
<g id="node4" class="node"><title>Node3</title>
<a xlink:href="structfr__ipaddr__t.html" target="_top" xlink:title="fr_ipaddr_t">
<polygon fill="none" stroke="black" points="19,-152.5 19,-171.5 81,-171.5 81,-152.5 19,-152.5"/>
<text text-anchor="middle" x="50" y="-159.5" font-family="Helvetica,sans-Serif" font-size="10.00">fr_ipaddr_t</text>
</a>
</g>
<!-- Node3&#45;&gt;Node2 -->
<g id="edge4" class="edge"><title>Node3&#45;&gt;Node2</title>
<path fill="none" stroke="#9a32cd" stroke-dasharray="5,2" d="M50,-141.759C50,-124.676 50,-100.498 50,-87.7123"/>
<polygon fill="#9a32cd" stroke="#9a32cd" points="46.5001,-142.225 50,-152.225 53.5001,-142.225 46.5001,-142.225"/>
<text text-anchor="middle" x="74.5" y="-120" font-family="Helvetica,sans-Serif" font-size="10.00"> dst_ipaddr</text>
<text text-anchor="middle" x="74.5" y="-109" font-family="Helvetica,sans-Serif" font-size="10.00">src_ipaddr</text>
</g>
<!-- Node4 -->
<g id="node6" class="node"><title>Node4</title>
<a xlink:href="structin6__addr.html" target="_top" xlink:title="in6_addr">
<polygon fill="none" stroke="black" points="23.5,-226.5 23.5,-245.5 76.5,-245.5 76.5,-226.5 23.5,-226.5"/>
<text text-anchor="middle" x="50" y="-233.5" font-family="Helvetica,sans-Serif" font-size="10.00">in6_addr</text>
</a>
</g>
<!-- Node4&#45;&gt;Node3 -->
<g id="edge6" class="edge"><title>Node4&#45;&gt;Node3</title>
<path fill="none" stroke="#9a32cd" stroke-dasharray="5,2" d="M50,-216.156C50,-201.712 50,-182.459 50,-171.531"/>
<polygon fill="#9a32cd" stroke="#9a32cd" points="46.5001,-216.458 50,-226.458 53.5001,-216.458 46.5001,-216.458"/>
<text text-anchor="middle" x="67.5" y="-199.5" font-family="Helvetica,sans-Serif" font-size="10.00"> ip6addr</text>
</g>
<!-- Node5 -->
<g id="node8" class="node"><title>Node5</title>
<a xlink:href="structrbtree__t.html" target="_top" xlink:title="rbtree_t">
<polygon fill="none" stroke="black" points="118,-68.5 118,-87.5 168,-87.5 168,-68.5 118,-68.5"/>
<text text-anchor="middle" x="143" y="-75.5" font-family="Helvetica,sans-Serif" font-size="10.00">rbtree_t</text>
</a>
</g>
<!-- Node5&#45;&gt;Node1 -->
<g id="edge8" class="edge"><title>Node5&#45;&gt;Node1</title>
<path fill="none" stroke="#9a32cd" stroke-dasharray="5,2" d="M131.884,-59.9377C123.527,-47.112 112.417,-30.0591 105.76,-19.8411"/>
<polygon fill="#9a32cd" stroke="#9a32cd" points="128.987,-61.9036 137.379,-68.3717 134.852,-58.0824 128.987,-61.9036"/>
<text text-anchor="middle" x="135" y="-41.5" font-family="Helvetica,sans-Serif" font-size="10.00"> tree</text>
</g>
<!-- Node6 -->
<g id="node10" class="node"><title>Node6</title>
<a xlink:href="structrbnode__t.html" target="_top" xlink:title="rbnode_t">
<polygon fill="none" stroke="black" points="116,-152.5 116,-171.5 170,-171.5 170,-152.5 116,-152.5"/>
<text text-anchor="middle" x="143" y="-159.5" font-family="Helvetica,sans-Serif" font-size="10.00">rbnode_t</text>
</a>
</g>
<!-- Node6&#45;&gt;Node5 -->
<g id="edge10" class="edge"><title>Node6&#45;&gt;Node5</title>
<path fill="none" stroke="#9a32cd" stroke-dasharray="5,2" d="M143,-141.759C143,-124.676 143,-100.498 143,-87.7123"/>
<polygon fill="#9a32cd" stroke="#9a32cd" points="139.5,-142.225 143,-152.225 146.5,-142.225 139.5,-142.225"/>
<text text-anchor="middle" x="155.5" y="-114.5" font-family="Helvetica,sans-Serif" font-size="10.00"> Root</text>
</g>
<!-- Node6&#45;&gt;Node6 -->
<g id="edge12" class="edge"><title>Node6&#45;&gt;Node6</title>
<path fill="none" stroke="#9a32cd" stroke-dasharray="5,2" d="M180.51,-168.464C185.038,-167.297 188,-165.142 188,-162 188,-156.844 180.024,-154.346 170.241,-154.507"/>
<polygon fill="#9a32cd" stroke="#9a32cd" points="179.842,-165.014 170.241,-169.493 180.54,-171.979 179.842,-165.014"/>
<text text-anchor="middle" x="202.5" y="-170.5" font-family="Helvetica,sans-Serif" font-size="10.00"> Left</text>
<text text-anchor="middle" x="202.5" y="-159.5" font-family="Helvetica,sans-Serif" font-size="10.00">Right</text>
<text text-anchor="middle" x="202.5" y="-148.5" font-family="Helvetica,sans-Serif" font-size="10.00">Parent</text>
</g>
</g>
</svg>
