<?xml version="1.0" encoding="UTF-8" standalone="no"?>
<!DOCTYPE svg PUBLIC "-//W3C//DTD SVG 1.1//EN"
 "http://www.w3.org/Graphics/SVG/1.1/DTD/svg11.dtd">
<!-- Generated by graphviz version 2.28.0 (20111211.2114)
 -->
<!-- Title: G Pages: 1 -->
<svg width="205pt" height="322pt"
 viewBox="0.00 0.00 205.00 322.00" xmlns="http://www.w3.org/2000/svg" xmlns:xlink="http://www.w3.org/1999/xlink">
<g id="graph1" class="graph" transform="scale(1 1) rotate(0) translate(4 318)">
<title>G</title>
<!-- Node1 -->
<g id="node1" class="node"><title>Node1</title>
<polygon fill="#bfbfbf" stroke="black" points="62,-0.5 62,-19.5 154,-19.5 154,-0.5 62,-0.5"/>
<text text-anchor="middle" x="108" y="-7.5" font-family="Helvetica,sans-Serif" font-size="10.00">rlm_preprocess_t</text>
</g>
<!-- Node2 -->
<g id="node2" class="node"><title>Node2</title>
<a xlink:href="structpair__list.html" target="_top" xlink:title="pair_list">
<polygon fill="none" stroke="black" points="83,-79.5 83,-98.5 133,-98.5 133,-79.5 83,-79.5"/>
<text text-anchor="middle" x="108" y="-86.5" font-family="Helvetica,sans-Serif" font-size="10.00">pair_list</text>
</a>
</g>
<!-- Node2&#45;&gt;Node1 -->
<g id="edge2" class="edge"><title>Node2&#45;&gt;Node1</title>
<path fill="none" stroke="#9a32cd" stroke-dasharray="5,2" d="M108,-69.3145C108,-53.5917 108,-31.8079 108,-19.8094"/>
<polygon fill="#9a32cd" stroke="#9a32cd" points="104.5,-69.4654 108,-79.4655 111.5,-69.4655 104.5,-69.4654"/>
<text text-anchor="middle" x="134" y="-52" font-family="Helvetica,sans-Serif" font-size="10.00"> huntgroups</text>
<text text-anchor="middle" x="134" y="-41" font-family="Helvetica,sans-Serif" font-size="10.00">hints</text>
</g>
<!-- Node2&#45;&gt;Node2 -->
<g id="edge4" class="edge"><title>Node2&#45;&gt;Node2</title>
<path fill="none" stroke="#9a32cd" stroke-dasharray="5,2" d="M143.446,-95.5679C147.996,-94.4266 151,-92.2373 151,-89 151,-83.6875 142.91,-81.1973 133.176,-81.5293"/>
<polygon fill="#9a32cd" stroke="#9a32cd" points="142.831,-92.1084 133.176,-96.4707 143.444,-99.0815 142.831,-92.1084"/>
<text text-anchor="middle" x="174" y="-92" font-family="Helvetica,sans-Serif" font-size="10.00"> next</text>
<text text-anchor="middle" x="174" y="-81" font-family="Helvetica,sans-Serif" font-size="10.00">lastdefault</text>
</g>
<!-- Node3 -->
<g id="node5" class="node"><title>Node3</title>
<a xlink:href="structvalue__pair.html" target="_top" xlink:title="value_pair">
<polygon fill="none" stroke="black" points="77.5,-158.5 77.5,-177.5 138.5,-177.5 138.5,-158.5 77.5,-158.5"/>
<text text-anchor="middle" x="108" y="-165.5" font-family="Helvetica,sans-Serif" font-size="10.00">value_pair</text>
</a>
</g>
<!-- Node3&#45;&gt;Node2 -->
<g id="edge6" class="edge"><title>Node3&#45;&gt;Node2</title>
<path fill="none" stroke="#9a32cd" stroke-dasharray="5,2" d="M108,-148.315C108,-132.592 108,-110.808 108,-98.8094"/>
<polygon fill="#9a32cd" stroke="#9a32cd" points="104.5,-148.465 108,-158.465 111.5,-148.465 104.5,-148.465"/>
<text text-anchor="middle" x="121.5" y="-132" font-family="Helvetica,sans-Serif" font-size="10.00"> reply</text>
<text text-anchor="middle" x="121.5" y="-121" font-family="Helvetica,sans-Serif" font-size="10.00">check</text>
</g>
<!-- Node3&#45;&gt;Node3 -->
<g id="edge12" class="edge"><title>Node3&#45;&gt;Node3</title>
<path fill="none" stroke="#9a32cd" stroke-dasharray="5,2" d="M149.201,-173.225C153.353,-172.186 156,-170.445 156,-168 156,-163.883 148.492,-161.76 138.931,-161.631"/>
<polygon fill="#9a32cd" stroke="#9a32cd" points="148.482,-169.783 138.931,-174.369 149.258,-176.74 148.482,-169.783"/>
<text text-anchor="middle" x="167" y="-165.5" font-family="Helvetica,sans-Serif" font-size="10.00"> next</text>
</g>
<!-- Node4 -->
<g id="node7" class="node"><title>Node4</title>
<a xlink:href="unionvalue__pair__data.html" target="_top" xlink:title="value_pair_data">
<polygon fill="none" stroke="black" points="-0.5,-226.5 -0.5,-245.5 84.5,-245.5 84.5,-226.5 -0.5,-226.5"/>
<text text-anchor="middle" x="42" y="-233.5" font-family="Helvetica,sans-Serif" font-size="10.00">value_pair_data</text>
</a>
</g>
<!-- Node4&#45;&gt;Node3 -->
<g id="edge8" class="edge"><title>Node4&#45;&gt;Node3</title>
<path fill="none" stroke="#9a32cd" stroke-dasharray="5,2" d="M57.9526,-219.047C70.8889,-206.111 88.6433,-188.357 99.1589,-177.841"/>
<polygon fill="#9a32cd" stroke="#9a32cd" points="55.2246,-216.826 50.6283,-226.372 60.1743,-221.775 55.2246,-216.826"/>
<text text-anchor="middle" x="92" y="-199.5" font-family="Helvetica,sans-Serif" font-size="10.00"> data</text>
</g>
<!-- Node5 -->
<g id="node9" class="node"><title>Node5</title>
<a xlink:href="structin6__addr.html" target="_top" xlink:title="in6_addr">
<polygon fill="none" stroke="black" points="15.5,-294.5 15.5,-313.5 68.5,-313.5 68.5,-294.5 15.5,-294.5"/>
<text text-anchor="middle" x="42" y="-301.5" font-family="Helvetica,sans-Serif" font-size="10.00">in6_addr</text>
</a>
</g>
<!-- Node5&#45;&gt;Node4 -->
<g id="edge10" class="edge"><title>Node5&#45;&gt;Node4</title>
<path fill="none" stroke="#9a32cd" stroke-dasharray="5,2" d="M42,-284.041C42,-271.472 42,-255.563 42,-245.841"/>
<polygon fill="#9a32cd" stroke="#9a32cd" points="38.5001,-284.372 42,-294.372 45.5001,-284.372 38.5001,-284.372"/>
<text text-anchor="middle" x="62" y="-267.5" font-family="Helvetica,sans-Serif" font-size="10.00"> ipv6addr</text>
</g>
<!-- Node6 -->
<g id="node12" class="node"><title>Node6</title>
<a xlink:href="structattr__flags.html" target="_top" xlink:title="attr_flags">
<polygon fill="none" stroke="black" points="102.5,-226.5 102.5,-245.5 159.5,-245.5 159.5,-226.5 102.5,-226.5"/>
<text text-anchor="middle" x="131" y="-233.5" font-family="Helvetica,sans-Serif" font-size="10.00">attr_flags</text>
</a>
</g>
<!-- Node6&#45;&gt;Node3 -->
<g id="edge14" class="edge"><title>Node6&#45;&gt;Node3</title>
<path fill="none" stroke="#9a32cd" stroke-dasharray="5,2" d="M124.66,-216.807C120.24,-204.124 114.538,-187.762 111.081,-177.841"/>
<polygon fill="#9a32cd" stroke="#9a32cd" points="121.397,-218.08 127.993,-226.372 128.007,-215.777 121.397,-218.08"/>
<text text-anchor="middle" x="133.5" y="-199.5" font-family="Helvetica,sans-Serif" font-size="10.00"> flags</text>
</g>
</g>
</svg>
