<?xml version="1.0" encoding="UTF-8" standalone="no"?>
<!DOCTYPE svg PUBLIC "-//W3C//DTD SVG 1.1//EN"
 "http://www.w3.org/Graphics/SVG/1.1/DTD/svg11.dtd">
<!-- Generated by graphviz version 2.28.0 (20111211.2114)
 -->
<!-- Title: G Pages: 1 -->
<svg width="186pt" height="254pt"
 viewBox="0.00 0.00 186.00 254.00" xmlns="http://www.w3.org/2000/svg" xmlns:xlink="http://www.w3.org/1999/xlink">
<g id="graph1" class="graph" transform="scale(1 1) rotate(0) translate(4 250)">
<title>G</title>
<!-- Node1 -->
<g id="node1" class="node"><title>Node1</title>
<polygon fill="#bfbfbf" stroke="black" points="59.5,-0.5 59.5,-19.5 156.5,-19.5 156.5,-0.5 59.5,-0.5"/>
<text text-anchor="middle" x="108" y="-7.5" font-family="Helvetica,sans-Serif" font-size="10.00">rlm_cache_entry_t</text>
</g>
<!-- Node2 -->
<g id="node2" class="node"><title>Node2</title>
<a xlink:href="structvalue__pair.html" target="_top" xlink:title="value_pair">
<polygon fill="none" stroke="black" points="77.5,-90.5 77.5,-109.5 138.5,-109.5 138.5,-90.5 77.5,-90.5"/>
<text text-anchor="middle" x="108" y="-97.5" font-family="Helvetica,sans-Serif" font-size="10.00">value_pair</text>
</a>
</g>
<!-- Node2&#45;&gt;Node1 -->
<g id="edge2" class="edge"><title>Node2&#45;&gt;Node1</title>
<path fill="none" stroke="#9a32cd" stroke-dasharray="5,2" d="M108,-79.9784C108,-61.3096 108,-33.6696 108,-19.7241"/>
<polygon fill="#9a32cd" stroke="#9a32cd" points="104.5,-80.2405 108,-90.2405 111.5,-80.2405 104.5,-80.2405"/>
<text text-anchor="middle" x="124.5" y="-63.5" font-family="Helvetica,sans-Serif" font-size="10.00"> reply</text>
<text text-anchor="middle" x="124.5" y="-52.5" font-family="Helvetica,sans-Serif" font-size="10.00">request</text>
<text text-anchor="middle" x="124.5" y="-41.5" font-family="Helvetica,sans-Serif" font-size="10.00">control</text>
</g>
<!-- Node2&#45;&gt;Node2 -->
<g id="edge8" class="edge"><title>Node2&#45;&gt;Node2</title>
<path fill="none" stroke="#9a32cd" stroke-dasharray="5,2" d="M149.201,-105.225C153.353,-104.186 156,-102.445 156,-100 156,-95.8828 148.492,-93.7599 138.931,-93.6312"/>
<polygon fill="#9a32cd" stroke="#9a32cd" points="148.482,-101.783 138.931,-106.369 149.258,-108.74 148.482,-101.783"/>
<text text-anchor="middle" x="167" y="-97.5" font-family="Helvetica,sans-Serif" font-size="10.00"> next</text>
</g>
<!-- Node3 -->
<g id="node4" class="node"><title>Node3</title>
<a xlink:href="unionvalue__pair__data.html" target="_top" xlink:title="value_pair_data">
<polygon fill="none" stroke="black" points="-0.5,-158.5 -0.5,-177.5 84.5,-177.5 84.5,-158.5 -0.5,-158.5"/>
<text text-anchor="middle" x="42" y="-165.5" font-family="Helvetica,sans-Serif" font-size="10.00">value_pair_data</text>
</a>
</g>
<!-- Node3&#45;&gt;Node2 -->
<g id="edge4" class="edge"><title>Node3&#45;&gt;Node2</title>
<path fill="none" stroke="#9a32cd" stroke-dasharray="5,2" d="M57.9526,-151.047C70.8889,-138.111 88.6433,-120.357 99.1589,-109.841"/>
<polygon fill="#9a32cd" stroke="#9a32cd" points="55.2246,-148.826 50.6283,-158.372 60.1743,-153.775 55.2246,-148.826"/>
<text text-anchor="middle" x="92" y="-131.5" font-family="Helvetica,sans-Serif" font-size="10.00"> data</text>
</g>
<!-- Node4 -->
<g id="node6" class="node"><title>Node4</title>
<a xlink:href="structin6__addr.html" target="_top" xlink:title="in6_addr">
<polygon fill="none" stroke="black" points="15.5,-226.5 15.5,-245.5 68.5,-245.5 68.5,-226.5 15.5,-226.5"/>
<text text-anchor="middle" x="42" y="-233.5" font-family="Helvetica,sans-Serif" font-size="10.00">in6_addr</text>
</a>
</g>
<!-- Node4&#45;&gt;Node3 -->
<g id="edge6" class="edge"><title>Node4&#45;&gt;Node3</title>
<path fill="none" stroke="#9a32cd" stroke-dasharray="5,2" d="M42,-216.041C42,-203.472 42,-187.563 42,-177.841"/>
<polygon fill="#9a32cd" stroke="#9a32cd" points="38.5001,-216.372 42,-226.372 45.5001,-216.372 38.5001,-216.372"/>
<text text-anchor="middle" x="62" y="-199.5" font-family="Helvetica,sans-Serif" font-size="10.00"> ipv6addr</text>
</g>
<!-- Node5 -->
<g id="node9" class="node"><title>Node5</title>
<a xlink:href="structattr__flags.html" target="_top" xlink:title="attr_flags">
<polygon fill="none" stroke="black" points="102.5,-158.5 102.5,-177.5 159.5,-177.5 159.5,-158.5 102.5,-158.5"/>
<text text-anchor="middle" x="131" y="-165.5" font-family="Helvetica,sans-Serif" font-size="10.00">attr_flags</text>
</a>
</g>
<!-- Node5&#45;&gt;Node2 -->
<g id="edge10" class="edge"><title>Node5&#45;&gt;Node2</title>
<path fill="none" stroke="#9a32cd" stroke-dasharray="5,2" d="M124.66,-148.807C120.24,-136.124 114.538,-119.762 111.081,-109.841"/>
<polygon fill="#9a32cd" stroke="#9a32cd" points="121.397,-150.08 127.993,-158.372 128.007,-147.777 121.397,-150.08"/>
<text text-anchor="middle" x="133.5" y="-131.5" font-family="Helvetica,sans-Serif" font-size="10.00"> flags</text>
</g>
</g>
</svg>
