<?xml version="1.0" encoding="UTF-8" standalone="no"?>
<!DOCTYPE svg PUBLIC "-//W3C//DTD SVG 1.1//EN"
 "http://www.w3.org/Graphics/SVG/1.1/DTD/svg11.dtd">
<!-- Generated by graphviz version 2.28.0 (20111211.2114)
 -->
<!-- Title: G Pages: 1 -->
<svg width="122pt" height="128pt"
 viewBox="0.00 0.00 122.00 128.00" xmlns="http://www.w3.org/2000/svg" xmlns:xlink="http://www.w3.org/1999/xlink">
<g id="graph1" class="graph" transform="scale(1 1) rotate(0) translate(4 124)">
<title>G</title>
<!-- Node1 -->
<g id="node1" class="node"><title>Node1</title>
<polygon fill="#bfbfbf" stroke="black" points="6.5,-0.5 6.5,-19.5 67.5,-19.5 67.5,-0.5 6.5,-0.5"/>
<text text-anchor="middle" x="37" y="-7.5" font-family="Helvetica,sans-Serif" font-size="10.00">policy_if_t</text>
</g>
<!-- Node2 -->
<g id="node2" class="node"><title>Node2</title>
<a xlink:href="structpolicy__item__t.html" target="_top" xlink:title="policy_item_t">
<polygon fill="none" stroke="black" points="0,-100.5 0,-119.5 74,-119.5 74,-100.5 0,-100.5"/>
<text text-anchor="middle" x="37" y="-107.5" font-family="Helvetica,sans-Serif" font-size="10.00">policy_item_t</text>
</a>
</g>
<!-- Node2&#45;&gt;Node1 -->
<g id="edge2" class="edge"><title>Node2&#45;&gt;Node1</title>
<path fill="none" stroke="#9a32cd" stroke-dasharray="5,2" d="M37,-90.2203C37,-68.9514 37,-35.2197 37,-19.5374"/>
<polygon fill="#9a32cd" stroke="#9a32cd" points="33.5001,-90.3031 37,-100.303 40.5001,-90.3032 33.5001,-90.3031"/>
<text text-anchor="middle" x="57" y="-74" font-family="Helvetica,sans-Serif" font-size="10.00"> item</text>
<text text-anchor="middle" x="57" y="-63" font-family="Helvetica,sans-Serif" font-size="10.00">if_false</text>
<text text-anchor="middle" x="57" y="-52" font-family="Helvetica,sans-Serif" font-size="10.00">condition</text>
<text text-anchor="middle" x="57" y="-41" font-family="Helvetica,sans-Serif" font-size="10.00">if_true</text>
</g>
<!-- Node2&#45;&gt;Node2 -->
<g id="edge4" class="edge"><title>Node2&#45;&gt;Node2</title>
<path fill="none" stroke="#9a32cd" stroke-dasharray="5,2" d="M84.1857,-117.691C88.9569,-116.165 92,-113.601 92,-110 92,-104.238 84.2097,-101.132 74.0153,-100.682"/>
<polygon fill="#9a32cd" stroke="#9a32cd" points="83.3369,-114.282 74.0153,-119.318 84.4426,-121.194 83.3369,-114.282"/>
<text text-anchor="middle" x="103" y="-107.5" font-family="Helvetica,sans-Serif" font-size="10.00"> next</text>
</g>
</g>
</svg>
