<?xml version="1.0" encoding="UTF-8" standalone="no"?>
<!DOCTYPE svg PUBLIC "-//W3C//DTD SVG 1.1//EN"
 "http://www.w3.org/Graphics/SVG/1.1/DTD/svg11.dtd">
<!-- Generated by graphviz version 2.28.0 (20111211.2114)
 -->
<!-- Title: G Pages: 1 -->
<svg width="148pt" height="166pt"
 viewBox="0.00 0.00 148.00 166.00" xmlns="http://www.w3.org/2000/svg" xmlns:xlink="http://www.w3.org/1999/xlink">
<g id="graph1" class="graph" transform="scale(1 1) rotate(0) translate(4 162)">
<title>G</title>
<!-- Node1 -->
<g id="node1" class="node"><title>Node1</title>
<polygon fill="#bfbfbf" stroke="black" points="-0.5,-1.5 -0.5,-20.5 100.5,-20.5 100.5,-1.5 -0.5,-1.5"/>
<text text-anchor="middle" x="50" y="-8.5" font-family="Helvetica,sans-Serif" font-size="10.00">_securid_session_t</text>
</g>
<!-- Node1&#45;&gt;Node1 -->
<g id="edge6" class="edge"><title>Node1&#45;&gt;Node1</title>
<path fill="none" stroke="#9a32cd" stroke-dasharray="5,2" d="M110.956,-15.6881C115.328,-14.6265 118,-13.0638 118,-11 118,-7.61328 110.803,-5.57596 100.711,-4.88803"/>
<polygon fill="#9a32cd" stroke="#9a32cd" points="110.134,-12.2686 100.711,-17.112 111.097,-19.202 110.134,-12.2686"/>
<text text-anchor="middle" x="129" y="-14" font-family="Helvetica,sans-Serif" font-size="10.00"> prev</text>
<text text-anchor="middle" x="129" y="-3" font-family="Helvetica,sans-Serif" font-size="10.00">next</text>
</g>
<!-- Node2 -->
<g id="node2" class="node"><title>Node2</title>
<a xlink:href="structfr__ipaddr__t.html" target="_top" xlink:title="fr_ipaddr_t">
<polygon fill="none" stroke="black" points="19,-70.5 19,-89.5 81,-89.5 81,-70.5 19,-70.5"/>
<text text-anchor="middle" x="50" y="-77.5" font-family="Helvetica,sans-Serif" font-size="10.00">fr_ipaddr_t</text>
</a>
</g>
<!-- Node2&#45;&gt;Node1 -->
<g id="edge2" class="edge"><title>Node2&#45;&gt;Node1</title>
<path fill="none" stroke="#9a32cd" stroke-dasharray="5,2" d="M50,-60.0183C50,-47.034 50,-30.4419 50,-20.5494"/>
<polygon fill="#9a32cd" stroke="#9a32cd" points="46.5001,-60.2409 50,-70.2409 53.5001,-60.241 46.5001,-60.2409"/>
<text text-anchor="middle" x="74.5" y="-43.5" font-family="Helvetica,sans-Serif" font-size="10.00"> src_ipaddr</text>
</g>
<!-- Node3 -->
<g id="node4" class="node"><title>Node3</title>
<a xlink:href="structin6__addr.html" target="_top" xlink:title="in6_addr">
<polygon fill="none" stroke="black" points="23.5,-138.5 23.5,-157.5 76.5,-157.5 76.5,-138.5 23.5,-138.5"/>
<text text-anchor="middle" x="50" y="-145.5" font-family="Helvetica,sans-Serif" font-size="10.00">in6_addr</text>
</a>
</g>
<!-- Node3&#45;&gt;Node2 -->
<g id="edge4" class="edge"><title>Node3&#45;&gt;Node2</title>
<path fill="none" stroke="#9a32cd" stroke-dasharray="5,2" d="M50,-128.041C50,-115.472 50,-99.5631 50,-89.8411"/>
<polygon fill="#9a32cd" stroke="#9a32cd" points="46.5001,-128.372 50,-138.372 53.5001,-128.372 46.5001,-128.372"/>
<text text-anchor="middle" x="67.5" y="-111.5" font-family="Helvetica,sans-Serif" font-size="10.00"> ip6addr</text>
</g>
</g>
</svg>
