<?xml version="1.0" encoding="UTF-8" standalone="no"?>
<!DOCTYPE svg PUBLIC "-//W3C//DTD SVG 1.1//EN"
 "http://www.w3.org/Graphics/SVG/1.1/DTD/svg11.dtd">
<!-- Generated by graphviz version 2.28.0 (20111211.2114)
 -->
<!-- Title: G Pages: 1 -->
<svg width="293pt" height="300pt"
 viewBox="0.00 0.00 293.00 300.50" xmlns="http://www.w3.org/2000/svg" xmlns:xlink="http://www.w3.org/1999/xlink">
<g id="graph1" class="graph" transform="scale(1 1) rotate(0) translate(4 296.5)">
<title>G</title>
<!-- Node1 -->
<g id="node1" class="node"><title>Node1</title>
<polygon fill="#bfbfbf" stroke="black" points="59.5,-0.5 59.5,-19.5 106.5,-19.5 106.5,-0.5 59.5,-0.5"/>
<text text-anchor="middle" x="83" y="-7.5" font-family="Helvetica,sans-Serif" font-size="10.00">modref</text>
</g>
<!-- Node2 -->
<g id="node2" class="node"><title>Node2</title>
<a xlink:href="structmodcallable.html" target="_top" xlink:title="modcallable">
<polygon fill="none" stroke="black" points="0,-91.5 0,-110.5 68,-110.5 68,-91.5 0,-91.5"/>
<text text-anchor="middle" x="34" y="-98.5" font-family="Helvetica,sans-Serif" font-size="10.00">modcallable</text>
</a>
</g>
<!-- Node2&#45;&gt;Node1 -->
<g id="edge2" class="edge"><title>Node2&#45;&gt;Node1</title>
<path fill="none" stroke="#9a32cd" stroke-dasharray="5,2" d="M39.5603,-81.5954C43.8538,-68.8268 50.4959,-51.7174 59,-38 63.0977,-31.3903 68.8566,-24.849 73.7061,-19.8607"/>
<polygon fill="#9a32cd" stroke="#9a32cd" points="36.2234,-80.5394 36.5167,-91.1302 42.8919,-82.6681 36.2234,-80.5394"/>
<text text-anchor="middle" x="67.5" y="-52.5" font-family="Helvetica,sans-Serif" font-size="10.00"> mc</text>
</g>
<!-- Node2&#45;&gt;Node2 -->
<g id="edge4" class="edge"><title>Node2&#45;&gt;Node2</title>
<path fill="none" stroke="#9a32cd" stroke-dasharray="5,2" d="M78.1476,-108.215C82.9245,-106.83 86,-104.425 86,-101 86,-95.5195 78.1268,-92.6508 68.0085,-92.394"/>
<polygon fill="#9a32cd" stroke="#9a32cd" points="77.44,-104.779 68.0085,-109.606 78.3914,-111.714 77.44,-104.779"/>
<text text-anchor="middle" x="100" y="-104" font-family="Helvetica,sans-Serif" font-size="10.00"> next</text>
<text text-anchor="middle" x="100" y="-93" font-family="Helvetica,sans-Serif" font-size="10.00">parent</text>
</g>
<!-- Node3 -->
<g id="node5" class="node"><title>Node3</title>
<a xlink:href="structconf__part.html" target="_top" xlink:title="conf_part">
<polygon fill="none" stroke="black" points="132.5,-91.5 132.5,-110.5 189.5,-110.5 189.5,-91.5 132.5,-91.5"/>
<text text-anchor="middle" x="161" y="-98.5" font-family="Helvetica,sans-Serif" font-size="10.00">conf_part</text>
</a>
</g>
<!-- Node3&#45;&gt;Node1 -->
<g id="edge6" class="edge"><title>Node3&#45;&gt;Node1</title>
<path fill="none" stroke="#9a32cd" stroke-dasharray="5,2" d="M133.196,-86.3963C126.71,-82.3684 120.19,-77.5311 115,-72 100.271,-56.3019 90.4342,-32.5218 85.8919,-19.7859"/>
<polygon fill="#9a32cd" stroke="#9a32cd" points="131.474,-89.4435 141.891,-91.3762 134.953,-83.3692 131.474,-89.4435"/>
<text text-anchor="middle" x="130.5" y="-52.5" font-family="Helvetica,sans-Serif" font-size="10.00"> ref_cs</text>
</g>
<!-- Node3&#45;&gt;Node3 -->
<g id="edge8" class="edge"><title>Node3&#45;&gt;Node3</title>
<path fill="none" stroke="#9a32cd" stroke-dasharray="5,2" d="M199.76,-108.309C204.153,-106.94 207,-104.504 207,-101 207,-95.25 199.333,-92.375 189.75,-92.375"/>
<polygon fill="#9a32cd" stroke="#9a32cd" points="199.208,-104.851 189.75,-109.625 200.121,-111.792 199.208,-104.851"/>
<text text-anchor="middle" x="227.5" y="-98.5" font-family="Helvetica,sans-Serif" font-size="10.00"> template</text>
</g>
<!-- Node4 -->
<g id="node8" class="node"><title>Node4</title>
<a xlink:href="structconf__item.html" target="_top" xlink:title="conf_item">
<polygon fill="none" stroke="black" points="141.5,-0.5 141.5,-19.5 200.5,-19.5 200.5,-0.5 141.5,-0.5"/>
<text text-anchor="middle" x="171" y="-7.5" font-family="Helvetica,sans-Serif" font-size="10.00">conf_item</text>
</a>
</g>
<!-- Node3&#45;&gt;Node4 -->
<g id="edge12" class="edge"><title>Node3&#45;&gt;Node4</title>
<path fill="none" stroke="#9a32cd" stroke-dasharray="5,2" d="M154.112,-81.6569C150.425,-69.128 147.48,-52.2758 152,-38 154.145,-31.224 158.67,-24.6776 162.766,-19.728"/>
<polygon fill="#9a32cd" stroke="#9a32cd" points="150.876,-83.0137 157.375,-91.3807 157.512,-80.7868 150.876,-83.0137"/>
<text text-anchor="middle" x="167.5" y="-52.5" font-family="Helvetica,sans-Serif" font-size="10.00"> parent</text>
</g>
<!-- Node4&#45;&gt;Node3 -->
<g id="edge10" class="edge"><title>Node4&#45;&gt;Node3</title>
<path fill="none" stroke="#9a32cd" stroke-dasharray="5,2" d="M183.851,-28.3312C185.56,-31.4152 187.048,-34.7003 188,-38 192.19,-52.5186 193.656,-57.9872 188,-72 184.917,-79.6399 178.64,-86.3571 172.914,-91.296"/>
<polygon fill="#9a32cd" stroke="#9a32cd" points="186.748,-26.3659 178.379,-19.8689 180.87,-30.1668 186.748,-26.3659"/>
<text text-anchor="middle" x="208" y="-63.5" font-family="Helvetica,sans-Serif" font-size="10.00"> tail</text>
<text text-anchor="middle" x="208" y="-52.5" font-family="Helvetica,sans-Serif" font-size="10.00">item</text>
<text text-anchor="middle" x="208" y="-41.5" font-family="Helvetica,sans-Serif" font-size="10.00">children</text>
</g>
<!-- Node4&#45;&gt;Node4 -->
<g id="edge14" class="edge"><title>Node4&#45;&gt;Node4</title>
<path fill="none" stroke="#9a32cd" stroke-dasharray="5,2" d="M210.812,-16.929C215.181,-15.6089 218,-13.2992 218,-10 218,-4.58594 210.41,-1.83661 200.833,-1.75201"/>
<polygon fill="#9a32cd" stroke="#9a32cd" points="210.288,-13.4678 200.833,-18.248 211.205,-20.4075 210.288,-13.4678"/>
<text text-anchor="middle" x="229" y="-7.5" font-family="Helvetica,sans-Serif" font-size="10.00"> next</text>
</g>
<!-- Node5 -->
<g id="node12" class="node"><title>Node5</title>
<a xlink:href="structCONF__PARSER.html" target="_top" xlink:title="CONF_PARSER">
<polygon fill="none" stroke="black" points="76,-192.5 76,-211.5 168,-211.5 168,-192.5 76,-192.5"/>
<text text-anchor="middle" x="122" y="-199.5" font-family="Helvetica,sans-Serif" font-size="10.00">CONF_PARSER</text>
</a>
</g>
<!-- Node5&#45;&gt;Node3 -->
<g id="edge16" class="edge"><title>Node5&#45;&gt;Node3</title>
<path fill="none" stroke="#9a32cd" stroke-dasharray="5,2" d="M122.178,-182.155C123.007,-167.275 125.742,-146.364 134,-130 137.772,-122.524 144.225,-115.721 149.876,-110.693"/>
<polygon fill="#9a32cd" stroke="#9a32cd" points="118.678,-182.076 121.855,-192.184 125.675,-182.302 118.678,-182.076"/>
<text text-anchor="middle" x="155.5" y="-149.5" font-family="Helvetica,sans-Serif" font-size="10.00"> variables</text>
</g>
<!-- Node6 -->
<g id="node14" class="node"><title>Node6</title>
<a xlink:href="structrbtree__t.html" target="_top" xlink:title="rbtree_t">
<polygon fill="none" stroke="black" points="186,-192.5 186,-211.5 236,-211.5 236,-192.5 186,-192.5"/>
<text text-anchor="middle" x="211" y="-199.5" font-family="Helvetica,sans-Serif" font-size="10.00">rbtree_t</text>
</a>
</g>
<!-- Node6&#45;&gt;Node3 -->
<g id="edge18" class="edge"><title>Node6&#45;&gt;Node3</title>
<path fill="none" stroke="#9a32cd" stroke-dasharray="5,2" d="M202.756,-182.862C196.081,-168.408 186.294,-147.727 177,-130 173.568,-123.455 169.422,-116.215 166.21,-110.737"/>
<polygon fill="#9a32cd" stroke="#9a32cd" points="199.667,-184.522 207.015,-192.154 206.03,-181.605 199.667,-184.522"/>
<text text-anchor="middle" x="225" y="-166" font-family="Helvetica,sans-Serif" font-size="10.00"> data_tree</text>
<text text-anchor="middle" x="225" y="-155" font-family="Helvetica,sans-Serif" font-size="10.00">name2_tree</text>
<text text-anchor="middle" x="225" y="-144" font-family="Helvetica,sans-Serif" font-size="10.00">section_tree</text>
<text text-anchor="middle" x="225" y="-133" font-family="Helvetica,sans-Serif" font-size="10.00">pair_tree</text>
</g>
<!-- Node7 -->
<g id="node16" class="node"><title>Node7</title>
<a xlink:href="structrbnode__t.html" target="_top" xlink:title="rbnode_t">
<polygon fill="none" stroke="black" points="184,-266.5 184,-285.5 238,-285.5 238,-266.5 184,-266.5"/>
<text text-anchor="middle" x="211" y="-273.5" font-family="Helvetica,sans-Serif" font-size="10.00">rbnode_t</text>
</a>
</g>
<!-- Node7&#45;&gt;Node6 -->
<g id="edge20" class="edge"><title>Node7&#45;&gt;Node6</title>
<path fill="none" stroke="#9a32cd" stroke-dasharray="5,2" d="M211,-256.156C211,-241.712 211,-222.459 211,-211.531"/>
<polygon fill="#9a32cd" stroke="#9a32cd" points="207.5,-256.458 211,-266.458 214.5,-256.458 207.5,-256.458"/>
<text text-anchor="middle" x="223.5" y="-233.5" font-family="Helvetica,sans-Serif" font-size="10.00"> Root</text>
</g>
<!-- Node7&#45;&gt;Node7 -->
<g id="edge22" class="edge"><title>Node7&#45;&gt;Node7</title>
<path fill="none" stroke="#9a32cd" stroke-dasharray="5,2" d="M248.51,-282.464C253.038,-281.297 256,-279.142 256,-276 256,-270.844 248.024,-268.346 238.241,-268.507"/>
<polygon fill="#9a32cd" stroke="#9a32cd" points="247.842,-279.014 238.241,-283.493 248.54,-285.979 247.842,-279.014"/>
<text text-anchor="middle" x="270.5" y="-284.5" font-family="Helvetica,sans-Serif" font-size="10.00"> Left</text>
<text text-anchor="middle" x="270.5" y="-273.5" font-family="Helvetica,sans-Serif" font-size="10.00">Right</text>
<text text-anchor="middle" x="270.5" y="-262.5" font-family="Helvetica,sans-Serif" font-size="10.00">Parent</text>
</g>
</g>
</svg>
