<?xml version="1.0" encoding="UTF-8" standalone="no"?>
<!DOCTYPE svg PUBLIC "-//W3C//DTD SVG 1.1//EN"
 "http://www.w3.org/Graphics/SVG/1.1/DTD/svg11.dtd">
<!-- Generated by graphviz version 2.28.0 (20111211.2114)
 -->
<!-- Title: G Pages: 1 -->
<!--zoomable-->
<svg id="main" version="1.1" xmlns="http://www.w3.org/2000/svg" xmlns:xlink="http://www.w3.org/1999/xlink" xml:space="preserve" onload="init(evt)">
        <defs>
                <circle id="rim" cx="0" cy="0" r="7"/>
                <circle id="rim2" cx="0" cy="0" r="3.5"/>
                <g id="zoomPlus">
                        <use xlink:href="#rim" fill="#404040">
                                <set attributeName="fill" to="#808080" begin="zoomplus.mouseover" end="zoomplus.mouseout"/>
                        </use>
                        <path d="M-4,0h8M0,-4v8" fill="none" stroke="white" stroke-width="1.5" pointer-events="none"/>
                </g>
                <g id="zoomMin">
                        <use xlink:href="#rim" fill="#404040">
                                <set attributeName="fill" to="#808080" begin="zoomminus.mouseover" end="zoomminus.mouseout"/>
                        </use>
                        <path d="M-4,0h8" fill="none" stroke="white" stroke-width="1.5" pointer-events="none"/>
                </g>
                <g id="dirArrow">
                        <path fill="none" stroke="white" stroke-width="1.5" d="M0,-3.0v7 M-2.5,-0.5L0,-3.0L2.5,-0.5"/>
                </g>
               <g id="resetDef">
                       <use xlink:href="#rim2" fill="#404040">
                               <set attributeName="fill" to="#808080" begin="reset.mouseover" end="reset.mouseout"/>
                       </use>
               </g>
        </defs>

<script type="text/javascript">
var viewWidth = 530;
var viewHeight = 514;
var sectionId = 'dynsection-0';
</script>
<script xlink:href="svgpan.js"/>
<svg id="graph" class="graph">
<g id="viewport">
<title>G</title>
<!-- Node1 -->
<g id="node1" class="node"><title>Node1</title>
<polygon fill="#bfbfbf" stroke="black" points="402,-0.5 402,-19.5 502,-19.5 502,-0.5 402,-0.5"/>
<text text-anchor="middle" x="452" y="-7.5" font-family="Helvetica,sans-Serif" font-size="10.00">rlm_sqlhpwippool_t</text>
</g>
<!-- Node2 -->
<g id="node2" class="node"><title>Node2</title>
<a xlink:href="structsql__inst.html" target="_top" xlink:title="sql_inst">
<polygon fill="none" stroke="black" points="301,-68.5 301,-87.5 351,-87.5 351,-68.5 301,-68.5"/>
<text text-anchor="middle" x="326" y="-75.5" font-family="Helvetica,sans-Serif" font-size="10.00">sql_inst</text>
</a>
</g>
<!-- Node2&#45;&gt;Node1 -->
<g id="edge2" class="edge"><title>Node2&#45;&gt;Node1</title>
<path fill="none" stroke="#9a32cd" stroke-dasharray="5,2" d="M351.412,-63.6889C376.495,-50.5502 414.109,-30.8475 435.524,-19.6305"/>
<polygon fill="#9a32cd" stroke="#9a32cd" points="349.707,-60.6311 342.472,-68.3717 352.955,-66.8319 349.707,-60.6311"/>
<text text-anchor="middle" x="417" y="-41.5" font-family="Helvetica,sans-Serif" font-size="10.00"> sqlinst</text>
</g>
<!-- Node3 -->
<g id="node4" class="node"><title>Node3</title>
<a xlink:href="structfr__connection__pool__t.html" target="_top" xlink:title="fr_connection_pool_t">
<polygon fill="none" stroke="black" points="312.5,-214.5 312.5,-233.5 419.5,-233.5 419.5,-214.5 312.5,-214.5"/>
<text text-anchor="middle" x="366" y="-221.5" font-family="Helvetica,sans-Serif" font-size="10.00">fr_connection_pool_t</text>
</a>
</g>
<!-- Node3&#45;&gt;Node2 -->
<g id="edge4" class="edge"><title>Node3&#45;&gt;Node2</title>
<path fill="none" stroke="#9a32cd" stroke-dasharray="5,2" d="M373.436,-204.892C382.149,-180.576 393.233,-136.864 375,-106 369.714,-97.0519 360.287,-90.867 351.103,-86.6987"/>
<polygon fill="#9a32cd" stroke="#9a32cd" points="370.138,-203.718 369.826,-214.308 376.674,-206.224 370.138,-203.718"/>
<text text-anchor="middle" x="396" y="-143.5" font-family="Helvetica,sans-Serif" font-size="10.00"> pool</text>
</g>
<!-- Node4 -->
<g id="node6" class="node"><title>Node4</title>
<a xlink:href="structconf__part.html" target="_top" xlink:title="conf_part">
<polygon fill="none" stroke="black" points="146.5,-305.5 146.5,-324.5 203.5,-324.5 203.5,-305.5 146.5,-305.5"/>
<text text-anchor="middle" x="175" y="-312.5" font-family="Helvetica,sans-Serif" font-size="10.00">conf_part</text>
</a>
</g>
<!-- Node4&#45;&gt;Node2 -->
<g id="edge28" class="edge"><title>Node4&#45;&gt;Node2</title>
<path fill="none" stroke="#9a32cd" stroke-dasharray="5,2" d="M191.007,-297.759C205.523,-282.358 226.766,-258.058 241,-234 264.871,-193.655 258.213,-177.507 280,-136 287.448,-121.811 289.958,-118.488 300,-106 305.22,-99.5088 311.72,-92.7588 316.915,-87.6316"/>
<polygon fill="#9a32cd" stroke="#9a32cd" points="188.126,-295.705 183.722,-305.341 193.174,-300.555 188.126,-295.705"/>
<text text-anchor="middle" x="272" y="-182.5" font-family="Helvetica,sans-Serif" font-size="10.00"> cs</text>
</g>
<!-- Node4&#45;&gt;Node3 -->
<g id="edge6" class="edge"><title>Node4&#45;&gt;Node3</title>
<path fill="none" stroke="#9a32cd" stroke-dasharray="5,2" d="M213.681,-306.202C232.663,-301.623 255.568,-294.953 275,-286 306.439,-271.514 339.17,-246.794 355.466,-233.713"/>
<polygon fill="#9a32cd" stroke="#9a32cd" points="212.824,-302.807 203.869,-308.469 214.4,-309.628 212.824,-302.807"/>
<text text-anchor="middle" x="338" y="-266.5" font-family="Helvetica,sans-Serif" font-size="10.00"> cs</text>
</g>
<!-- Node4&#45;&gt;Node4 -->
<g id="edge8" class="edge"><title>Node4&#45;&gt;Node4</title>
<path fill="none" stroke="#9a32cd" stroke-dasharray="5,2" d="M213.76,-322.309C218.153,-320.94 221,-318.504 221,-315 221,-309.25 213.333,-306.375 203.75,-306.375"/>
<polygon fill="#9a32cd" stroke="#9a32cd" points="213.208,-318.851 203.75,-323.625 214.121,-325.792 213.208,-318.851"/>
<text text-anchor="middle" x="241.5" y="-312.5" font-family="Helvetica,sans-Serif" font-size="10.00"> template</text>
</g>
<!-- Node5 -->
<g id="node9" class="node"><title>Node5</title>
<a xlink:href="structconf__item.html" target="_top" xlink:title="conf_item">
<polygon fill="none" stroke="black" points="-0.5,-214.5 -0.5,-233.5 58.5,-233.5 58.5,-214.5 -0.5,-214.5"/>
<text text-anchor="middle" x="29" y="-221.5" font-family="Helvetica,sans-Serif" font-size="10.00">conf_item</text>
</a>
</g>
<!-- Node4&#45;&gt;Node5 -->
<g id="edge12" class="edge"><title>Node4&#45;&gt;Node5</title>
<path fill="none" stroke="#9a32cd" stroke-dasharray="5,2" d="M136.154,-310.495C101.764,-306.584 55.058,-299.026 42,-286 28.0477,-272.082 27.3632,-247.122 28.1333,-233.855"/>
<polygon fill="#9a32cd" stroke="#9a32cd" points="136.064,-314.006 146.38,-311.594 136.811,-307.046 136.064,-314.006"/>
<text text-anchor="middle" x="57.5" y="-266.5" font-family="Helvetica,sans-Serif" font-size="10.00"> parent</text>
</g>
<!-- Node13 -->
<g id="node30" class="node"><title>Node13</title>
<a xlink:href="structrlm__sql__config__section.html" target="_top" xlink:title="rlm_sql_config_section">
<polygon fill="none" stroke="black" points="117,-214.5 117,-233.5 233,-233.5 233,-214.5 117,-214.5"/>
<text text-anchor="middle" x="175" y="-221.5" font-family="Helvetica,sans-Serif" font-size="10.00">rlm_sql_config_section</text>
</a>
</g>
<!-- Node4&#45;&gt;Node13 -->
<g id="edge38" class="edge"><title>Node4&#45;&gt;Node13</title>
<path fill="none" stroke="#9a32cd" stroke-dasharray="5,2" d="M175,-295.349C175,-276.383 175,-247.828 175,-233.639"/>
<polygon fill="#9a32cd" stroke="#9a32cd" points="171.5,-295.466 175,-305.466 178.5,-295.466 171.5,-295.466"/>
<text text-anchor="middle" x="182" y="-266.5" font-family="Helvetica,sans-Serif" font-size="10.00"> cs</text>
</g>
<!-- Node5&#45;&gt;Node4 -->
<g id="edge10" class="edge"><title>Node5&#45;&gt;Node4</title>
<path fill="none" stroke="#9a32cd" stroke-dasharray="5,2" d="M51.8808,-238.948C82.4748,-257.598 135.775,-290.089 161.001,-305.466"/>
<polygon fill="#9a32cd" stroke="#9a32cd" points="53.5316,-235.855 43.1712,-233.639 49.8881,-241.832 53.5316,-235.855"/>
<text text-anchor="middle" x="145" y="-277.5" font-family="Helvetica,sans-Serif" font-size="10.00"> tail</text>
<text text-anchor="middle" x="145" y="-266.5" font-family="Helvetica,sans-Serif" font-size="10.00">item</text>
<text text-anchor="middle" x="145" y="-255.5" font-family="Helvetica,sans-Serif" font-size="10.00">children</text>
</g>
<!-- Node5&#45;&gt;Node5 -->
<g id="edge14" class="edge"><title>Node5&#45;&gt;Node5</title>
<path fill="none" stroke="#9a32cd" stroke-dasharray="5,2" d="M68.8122,-229.984C73.1814,-228.844 76,-226.849 76,-224 76,-219.324 68.4095,-216.95 58.8325,-216.877"/>
<polygon fill="#9a32cd" stroke="#9a32cd" points="68.3711,-226.512 58.8325,-231.123 69.165,-233.467 68.3711,-226.512"/>
<text text-anchor="middle" x="87" y="-221.5" font-family="Helvetica,sans-Serif" font-size="10.00"> next</text>
</g>
<!-- Node6 -->
<g id="node13" class="node"><title>Node6</title>
<a xlink:href="structCONF__PARSER.html" target="_top" xlink:title="CONF_PARSER">
<polygon fill="none" stroke="black" points="96,-406.5 96,-425.5 188,-425.5 188,-406.5 96,-406.5"/>
<text text-anchor="middle" x="142" y="-413.5" font-family="Helvetica,sans-Serif" font-size="10.00">CONF_PARSER</text>
</a>
</g>
<!-- Node6&#45;&gt;Node4 -->
<g id="edge16" class="edge"><title>Node6&#45;&gt;Node4</title>
<path fill="none" stroke="#9a32cd" stroke-dasharray="5,2" d="M142.774,-395.982C143.942,-381.276 146.841,-360.679 154,-344 157.068,-336.853 162.318,-329.853 166.801,-324.64"/>
<polygon fill="#9a32cd" stroke="#9a32cd" points="139.259,-396.137 142.161,-406.326 146.247,-396.551 139.259,-396.137"/>
<text text-anchor="middle" x="175.5" y="-363.5" font-family="Helvetica,sans-Serif" font-size="10.00"> variables</text>
</g>
<!-- Node7 -->
<g id="node15" class="node"><title>Node7</title>
<a xlink:href="structrbtree__t.html" target="_top" xlink:title="rbtree_t">
<polygon fill="none" stroke="black" points="206,-406.5 206,-425.5 256,-425.5 256,-406.5 206,-406.5"/>
<text text-anchor="middle" x="231" y="-413.5" font-family="Helvetica,sans-Serif" font-size="10.00">rbtree_t</text>
</a>
</g>
<!-- Node7&#45;&gt;Node4 -->
<g id="edge18" class="edge"><title>Node7&#45;&gt;Node4</title>
<path fill="none" stroke="#9a32cd" stroke-dasharray="5,2" d="M223.663,-396.943C217.384,-382.241 207.685,-361.184 197,-344 192.822,-337.28 187.322,-330.28 182.866,-324.96"/>
<polygon fill="#9a32cd" stroke="#9a32cd" points="220.518,-398.495 227.596,-406.378 226.979,-395.801 220.518,-398.495"/>
<text text-anchor="middle" x="247" y="-380" font-family="Helvetica,sans-Serif" font-size="10.00"> data_tree</text>
<text text-anchor="middle" x="247" y="-369" font-family="Helvetica,sans-Serif" font-size="10.00">name2_tree</text>
<text text-anchor="middle" x="247" y="-358" font-family="Helvetica,sans-Serif" font-size="10.00">section_tree</text>
<text text-anchor="middle" x="247" y="-347" font-family="Helvetica,sans-Serif" font-size="10.00">pair_tree</text>
</g>
<!-- Node8 -->
<g id="node17" class="node"><title>Node8</title>
<a xlink:href="structrbnode__t.html" target="_top" xlink:title="rbnode_t">
<polygon fill="none" stroke="black" points="204,-480.5 204,-499.5 258,-499.5 258,-480.5 204,-480.5"/>
<text text-anchor="middle" x="231" y="-487.5" font-family="Helvetica,sans-Serif" font-size="10.00">rbnode_t</text>
</a>
</g>
<!-- Node8&#45;&gt;Node7 -->
<g id="edge20" class="edge"><title>Node8&#45;&gt;Node7</title>
<path fill="none" stroke="#9a32cd" stroke-dasharray="5,2" d="M231,-470.156C231,-455.712 231,-436.459 231,-425.531"/>
<polygon fill="#9a32cd" stroke="#9a32cd" points="227.5,-470.458 231,-480.458 234.5,-470.458 227.5,-470.458"/>
<text text-anchor="middle" x="243.5" y="-447.5" font-family="Helvetica,sans-Serif" font-size="10.00"> Root</text>
</g>
<!-- Node8&#45;&gt;Node8 -->
<g id="edge22" class="edge"><title>Node8&#45;&gt;Node8</title>
<path fill="none" stroke="#9a32cd" stroke-dasharray="5,2" d="M268.51,-496.464C273.038,-495.297 276,-493.142 276,-490 276,-484.844 268.024,-482.346 258.241,-482.507"/>
<polygon fill="#9a32cd" stroke="#9a32cd" points="267.842,-493.014 258.241,-497.493 268.54,-499.979 267.842,-493.014"/>
<text text-anchor="middle" x="290.5" y="-498.5" font-family="Helvetica,sans-Serif" font-size="10.00"> Left</text>
<text text-anchor="middle" x="290.5" y="-487.5" font-family="Helvetica,sans-Serif" font-size="10.00">Right</text>
<text text-anchor="middle" x="290.5" y="-476.5" font-family="Helvetica,sans-Serif" font-size="10.00">Parent</text>
</g>
<!-- Node9 -->
<g id="node20" class="node"><title>Node9</title>
<a xlink:href="structfr__connection__t.html" target="_top" xlink:title="fr_connection_t">
<polygon fill="none" stroke="black" points="324.5,-305.5 324.5,-324.5 407.5,-324.5 407.5,-305.5 324.5,-305.5"/>
<text text-anchor="middle" x="366" y="-312.5" font-family="Helvetica,sans-Serif" font-size="10.00">fr_connection_t</text>
</a>
</g>
<!-- Node9&#45;&gt;Node3 -->
<g id="edge24" class="edge"><title>Node9&#45;&gt;Node3</title>
<path fill="none" stroke="#9a32cd" stroke-dasharray="5,2" d="M366,-295.349C366,-276.383 366,-247.828 366,-233.639"/>
<polygon fill="#9a32cd" stroke="#9a32cd" points="362.5,-295.466 366,-305.466 369.5,-295.466 362.5,-295.466"/>
<text text-anchor="middle" x="378.5" y="-272" font-family="Helvetica,sans-Serif" font-size="10.00"> head</text>
<text text-anchor="middle" x="378.5" y="-261" font-family="Helvetica,sans-Serif" font-size="10.00">tail</text>
</g>
<!-- Node9&#45;&gt;Node9 -->
<g id="edge26" class="edge"><title>Node9&#45;&gt;Node9</title>
<path fill="none" stroke="#9a32cd" stroke-dasharray="5,2" d="M417.508,-321.816C422.111,-320.388 425,-318.116 425,-315 425,-310.014 417.605,-307.189 407.625,-306.527"/>
<polygon fill="#9a32cd" stroke="#9a32cd" points="416.909,-318.367 407.625,-323.473 418.066,-325.271 416.909,-318.367"/>
<text text-anchor="middle" x="436" y="-318" font-family="Helvetica,sans-Serif" font-size="10.00"> prev</text>
<text text-anchor="middle" x="436" y="-307" font-family="Helvetica,sans-Serif" font-size="10.00">next</text>
</g>
<!-- Node10 -->
<g id="node24" class="node"><title>Node10</title>
<a xlink:href="structsql__socket.html" target="_top" xlink:title="sql_socket">
<polygon fill="none" stroke="black" points="289,-136.5 289,-155.5 353,-155.5 353,-136.5 289,-136.5"/>
<text text-anchor="middle" x="321" y="-143.5" font-family="Helvetica,sans-Serif" font-size="10.00">sql_socket</text>
</a>
</g>
<!-- Node10&#45;&gt;Node2 -->
<g id="edge30" class="edge"><title>Node10&#45;&gt;Node2</title>
<path fill="none" stroke="#9a32cd" stroke-dasharray="5,2" d="M308.111,-127.591C304.685,-120.906 302.542,-113.162 305,-106 307.39,-99.0349 312.391,-92.4826 316.914,-87.5772"/>
<polygon fill="#9a32cd" stroke="#9a32cd" points="305.382,-129.827 313.662,-136.437 311.311,-126.106 305.382,-129.827"/>
<text text-anchor="middle" x="340" y="-109.5" font-family="Helvetica,sans-Serif" font-size="10.00"> sql_get_socket</text>
</g>
<!-- Node11 -->
<g id="node26" class="node"><title>Node11</title>
<a xlink:href="structrlm__sql__module__t.html" target="_top" xlink:title="rlm_sql_module_t">
<polygon fill="none" stroke="black" points="429.5,-136.5 429.5,-155.5 522.5,-155.5 522.5,-136.5 429.5,-136.5"/>
<text text-anchor="middle" x="476" y="-143.5" font-family="Helvetica,sans-Serif" font-size="10.00">rlm_sql_module_t</text>
</a>
</g>
<!-- Node11&#45;&gt;Node1 -->
<g id="edge40" class="edge"><title>Node11&#45;&gt;Node1</title>
<path fill="none" stroke="#9a32cd" stroke-dasharray="5,2" d="M472.595,-125.992C467.317,-96.5227 457.371,-40.9856 453.549,-19.6503"/>
<polygon fill="#9a32cd" stroke="#9a32cd" points="469.217,-126.982 474.425,-136.208 476.107,-125.747 469.217,-126.982"/>
<text text-anchor="middle" x="473" y="-75.5" font-family="Helvetica,sans-Serif" font-size="10.00"> db</text>
</g>
<!-- Node11&#45;&gt;Node2 -->
<g id="edge32" class="edge"><title>Node11&#45;&gt;Node2</title>
<path fill="none" stroke="#9a32cd" stroke-dasharray="5,2" d="M450.828,-131.505C431.383,-121.119 406.972,-108.18 402,-106 385.457,-98.747 366.288,-91.9478 351.341,-86.9867"/>
<polygon fill="#9a32cd" stroke="#9a32cd" points="449.399,-134.71 459.867,-136.34 452.7,-128.537 449.399,-134.71"/>
<text text-anchor="middle" x="441.5" y="-109.5" font-family="Helvetica,sans-Serif" font-size="10.00"> module</text>
</g>
<!-- Node12 -->
<g id="node28" class="node"><title>Node12</title>
<a xlink:href="structsql__config.html" target="_top" xlink:title="sql_config">
<polygon fill="none" stroke="black" points="159.5,-136.5 159.5,-155.5 220.5,-155.5 220.5,-136.5 159.5,-136.5"/>
<text text-anchor="middle" x="190" y="-143.5" font-family="Helvetica,sans-Serif" font-size="10.00">sql_config</text>
</a>
</g>
<!-- Node12&#45;&gt;Node2 -->
<g id="edge34" class="edge"><title>Node12&#45;&gt;Node2</title>
<path fill="none" stroke="#9a32cd" stroke-dasharray="5,2" d="M198.419,-127.497C202.931,-119.841 209.184,-111.393 217,-106 242.031,-88.7264 277.032,-82.4788 300.556,-80.2337"/>
<polygon fill="#9a32cd" stroke="#9a32cd" points="195.247,-126.008 193.648,-136.482 201.429,-129.291 195.247,-126.008"/>
<text text-anchor="middle" x="232" y="-109.5" font-family="Helvetica,sans-Serif" font-size="10.00"> config</text>
</g>
<!-- Node13&#45;&gt;Node12 -->
<g id="edge36" class="edge"><title>Node13&#45;&gt;Node12</title>
<path fill="none" stroke="#9a32cd" stroke-dasharray="5,2" d="M178.706,-204.224C181.77,-188.697 185.982,-167.358 188.299,-155.616"/>
<polygon fill="#9a32cd" stroke="#9a32cd" points="175.223,-203.793 176.721,-214.282 182.091,-205.149 175.223,-203.793"/>
<text text-anchor="middle" x="210.5" y="-188" font-family="Helvetica,sans-Serif" font-size="10.00"> accounting</text>
<text text-anchor="middle" x="210.5" y="-177" font-family="Helvetica,sans-Serif" font-size="10.00">postauth</text>
</g>
</g>
</svg>
        <g id="navigator" transform="translate(0 0)" fill="#404254">
                <rect fill="#f2f5e9" fill-opacity="0.5" stroke="#606060" stroke-width=".5" x="0" y="0" width="60" height="60"/>
                <use id="zoomplus" xlink:href="#zoomPlus" x="17" y="9" onmousedown="handleZoom(evt,'in')"/>
                <use id="zoomminus" xlink:href="#zoomMin" x="42" y="9" onmousedown="handleZoom(evt,'out')"/>
                <use id="reset" xlink:href="#resetDef" x="30" y="36" onmousedown="handleReset()"/>
                <g id="arrowUp" xlink:href="#dirArrow" transform="translate(30 24)" onmousedown="handlePan(0,-1)">
                  <use xlink:href="#rim" fill="#404040">
                        <set attributeName="fill" to="#808080" begin="arrowUp.mouseover" end="arrowUp.mouseout"/>
                  </use>
                  <path fill="none" stroke="white" stroke-width="1.5" d="M0,-3.0v7 M-2.5,-0.5L0,-3.0L2.5,-0.5"/>
                </g>
                <g id="arrowRight" xlink:href="#dirArrow" transform="rotate(90) translate(36 -43)" onmousedown="handlePan(1,0)">
                  <use xlink:href="#rim" fill="#404040">
                        <set attributeName="fill" to="#808080" begin="arrowRight.mouseover" end="arrowRight.mouseout"/>
                  </use>
                  <path fill="none" stroke="white" stroke-width="1.5" d="M0,-3.0v7 M-2.5,-0.5L0,-3.0L2.5,-0.5"/>
                </g>
                <g id="arrowDown" xlink:href="#dirArrow" transform="rotate(180) translate(-30 -48)" onmousedown="handlePan(0,1)">
                  <use xlink:href="#rim" fill="#404040">
                        <set attributeName="fill" to="#808080" begin="arrowDown.mouseover" end="arrowDown.mouseout"/>
                  </use>
                  <path fill="none" stroke="white" stroke-width="1.5" d="M0,-3.0v7 M-2.5,-0.5L0,-3.0L2.5,-0.5"/>
                </g>
                <g id="arrowLeft" xlink:href="#dirArrow" transform="rotate(270) translate(-36 17)" onmousedown="handlePan(-1,0)">
                  <use xlink:href="#rim" fill="#404040">
                        <set attributeName="fill" to="#808080" begin="arrowLeft.mouseover" end="arrowLeft.mouseout"/>
                  </use>
                  <path fill="none" stroke="white" stroke-width="1.5" d="M0,-3.0v7 M-2.5,-0.5L0,-3.0L2.5,-0.5"/>
                </g>
        </g>
</svg>
