<?xml version="1.0" encoding="UTF-8" standalone="no"?>
<!DOCTYPE svg PUBLIC "-//W3C//DTD SVG 1.1//EN"
 "http://www.w3.org/Graphics/SVG/1.1/DTD/svg11.dtd">
<!-- Generated by graphviz version 2.28.0 (20111211.2114)
 -->
<!-- Title: G Pages: 1 -->
<svg width="132pt" height="106pt"
 viewBox="0.00 0.00 132.00 106.00" xmlns="http://www.w3.org/2000/svg" xmlns:xlink="http://www.w3.org/1999/xlink">
<g id="graph1" class="graph" transform="scale(1 1) rotate(0) translate(4 102)">
<title>G</title>
<!-- Node1 -->
<g id="node1" class="node"><title>Node1</title>
<polygon fill="#bfbfbf" stroke="black" points="-0.5,-0.5 -0.5,-19.5 94.5,-19.5 94.5,-0.5 -0.5,-0.5"/>
<text text-anchor="middle" x="47" y="-7.5" font-family="Helvetica,sans-Serif" font-size="10.00">policy_condition_t</text>
</g>
<!-- Node2 -->
<g id="node2" class="node"><title>Node2</title>
<a xlink:href="structpolicy__item__t.html" target="_top" xlink:title="policy_item_t">
<polygon fill="none" stroke="black" points="10,-78.5 10,-97.5 84,-97.5 84,-78.5 10,-78.5"/>
<text text-anchor="middle" x="47" y="-85.5" font-family="Helvetica,sans-Serif" font-size="10.00">policy_item_t</text>
</a>
</g>
<!-- Node2&#45;&gt;Node1 -->
<g id="edge2" class="edge"><title>Node2&#45;&gt;Node1</title>
<path fill="none" stroke="#9a32cd" stroke-dasharray="5,2" d="M47,-68.2239C47,-52.6974 47,-31.3582 47,-19.6165"/>
<polygon fill="#9a32cd" stroke="#9a32cd" points="43.5001,-68.2818 47,-78.2818 50.5001,-68.2819 43.5001,-68.2818"/>
<text text-anchor="middle" x="58" y="-52" font-family="Helvetica,sans-Serif" font-size="10.00"> item</text>
<text text-anchor="middle" x="58" y="-41" font-family="Helvetica,sans-Serif" font-size="10.00">child</text>
</g>
<!-- Node2&#45;&gt;Node2 -->
<g id="edge4" class="edge"><title>Node2&#45;&gt;Node2</title>
<path fill="none" stroke="#9a32cd" stroke-dasharray="5,2" d="M94.1857,-93.8451C98.9569,-92.6852 102,-90.7368 102,-88 102,-83.6211 94.2097,-81.2606 84.0153,-80.9185"/>
<polygon fill="#9a32cd" stroke="#9a32cd" points="93.5198,-90.4002 84.0153,-95.0815 94.3646,-97.3491 93.5198,-90.4002"/>
<text text-anchor="middle" x="113" y="-85.5" font-family="Helvetica,sans-Serif" font-size="10.00"> next</text>
</g>
</g>
</svg>
