<?xml version="1.0" encoding="UTF-8" standalone="no"?>
<!DOCTYPE svg PUBLIC "-//W3C//DTD SVG 1.1//EN"
 "http://www.w3.org/Graphics/SVG/1.1/DTD/svg11.dtd">
<!-- Generated by graphviz version 2.28.0 (20111211.2114)
 -->
<!-- Title: G Pages: 1 -->
<svg width="266pt" height="256pt"
 viewBox="0.00 0.00 266.00 256.00" xmlns="http://www.w3.org/2000/svg" xmlns:xlink="http://www.w3.org/1999/xlink">
<g id="graph1" class="graph" transform="scale(1 1) rotate(0) translate(4 252)">
<title>G</title>
<!-- Node1 -->
<g id="node1" class="node"><title>Node1</title>
<polygon fill="#bfbfbf" stroke="black" points="85.5,-0.5 85.5,-19.5 160.5,-19.5 160.5,-0.5 85.5,-0.5"/>
<text text-anchor="middle" x="123" y="-7.5" font-family="Helvetica,sans-Serif" font-size="10.00">rlm_securid_t</text>
</g>
<!-- Node2 -->
<g id="node2" class="node"><title>Node2</title>
<a xlink:href="struct__securid__session__t.html" target="_top" xlink:title="_securid_session_t">
<polygon fill="none" stroke="black" points="-0.5,-79.5 -0.5,-98.5 100.5,-98.5 100.5,-79.5 -0.5,-79.5"/>
<text text-anchor="middle" x="50" y="-86.5" font-family="Helvetica,sans-Serif" font-size="10.00">_securid_session_t</text>
</a>
</g>
<!-- Node2&#45;&gt;Node1 -->
<g id="edge2" class="edge"><title>Node2&#45;&gt;Node1</title>
<path fill="none" stroke="#9a32cd" stroke-dasharray="5,2" d="M58.0759,-70.1794C63.3138,-59.9503 70.86,-47.3271 80,-38 87.2801,-30.5708 96.9848,-24.2539 105.332,-19.6023"/>
<polygon fill="#9a32cd" stroke="#9a32cd" points="54.821,-68.8716 53.634,-79.3998 61.1274,-71.9098 54.821,-68.8716"/>
<text text-anchor="middle" x="110.5" y="-52" font-family="Helvetica,sans-Serif" font-size="10.00"> session_tail</text>
<text text-anchor="middle" x="110.5" y="-41" font-family="Helvetica,sans-Serif" font-size="10.00">session_head</text>
</g>
<!-- Node2&#45;&gt;Node2 -->
<g id="edge8" class="edge"><title>Node2&#45;&gt;Node2</title>
<path fill="none" stroke="#9a32cd" stroke-dasharray="5,2" d="M110.956,-93.6881C115.328,-92.6265 118,-91.0638 118,-89 118,-85.6133 110.803,-83.576 100.711,-82.888"/>
<polygon fill="#9a32cd" stroke="#9a32cd" points="110.134,-90.2686 100.711,-95.112 111.097,-97.202 110.134,-90.2686"/>
<text text-anchor="middle" x="129" y="-92" font-family="Helvetica,sans-Serif" font-size="10.00"> prev</text>
<text text-anchor="middle" x="129" y="-81" font-family="Helvetica,sans-Serif" font-size="10.00">next</text>
</g>
<!-- Node3 -->
<g id="node4" class="node"><title>Node3</title>
<a xlink:href="structfr__ipaddr__t.html" target="_top" xlink:title="fr_ipaddr_t">
<polygon fill="none" stroke="black" points="19,-154.5 19,-173.5 81,-173.5 81,-154.5 19,-154.5"/>
<text text-anchor="middle" x="50" y="-161.5" font-family="Helvetica,sans-Serif" font-size="10.00">fr_ipaddr_t</text>
</a>
</g>
<!-- Node3&#45;&gt;Node2 -->
<g id="edge4" class="edge"><title>Node3&#45;&gt;Node2</title>
<path fill="none" stroke="#9a32cd" stroke-dasharray="5,2" d="M50,-144.328C50,-129.637 50,-109.839 50,-98.6495"/>
<polygon fill="#9a32cd" stroke="#9a32cd" points="46.5001,-144.339 50,-154.339 53.5001,-144.339 46.5001,-144.339"/>
<text text-anchor="middle" x="74.5" y="-121.5" font-family="Helvetica,sans-Serif" font-size="10.00"> src_ipaddr</text>
</g>
<!-- Node4 -->
<g id="node6" class="node"><title>Node4</title>
<a xlink:href="structin6__addr.html" target="_top" xlink:title="in6_addr">
<polygon fill="none" stroke="black" points="23.5,-228.5 23.5,-247.5 76.5,-247.5 76.5,-228.5 23.5,-228.5"/>
<text text-anchor="middle" x="50" y="-235.5" font-family="Helvetica,sans-Serif" font-size="10.00">in6_addr</text>
</a>
</g>
<!-- Node4&#45;&gt;Node3 -->
<g id="edge6" class="edge"><title>Node4&#45;&gt;Node3</title>
<path fill="none" stroke="#9a32cd" stroke-dasharray="5,2" d="M50,-218.156C50,-203.712 50,-184.459 50,-173.531"/>
<polygon fill="#9a32cd" stroke="#9a32cd" points="46.5001,-218.458 50,-228.458 53.5001,-218.458 46.5001,-218.458"/>
<text text-anchor="middle" x="67.5" y="-201.5" font-family="Helvetica,sans-Serif" font-size="10.00"> ip6addr</text>
</g>
<!-- Node5 -->
<g id="node9" class="node"><title>Node5</title>
<a xlink:href="structrbtree__t.html" target="_top" xlink:title="rbtree_t">
<polygon fill="none" stroke="black" points="159,-79.5 159,-98.5 209,-98.5 209,-79.5 159,-79.5"/>
<text text-anchor="middle" x="184" y="-86.5" font-family="Helvetica,sans-Serif" font-size="10.00">rbtree_t</text>
</a>
</g>
<!-- Node5&#45;&gt;Node1 -->
<g id="edge10" class="edge"><title>Node5&#45;&gt;Node1</title>
<path fill="none" stroke="#9a32cd" stroke-dasharray="5,2" d="M170.976,-71.5596C158.435,-55.7297 139.946,-32.3904 129.979,-19.8094"/>
<polygon fill="#9a32cd" stroke="#9a32cd" points="168.286,-73.8004 177.239,-79.4655 173.773,-69.4537 168.286,-73.8004"/>
<text text-anchor="middle" x="190.5" y="-46.5" font-family="Helvetica,sans-Serif" font-size="10.00"> session_tree</text>
</g>
<!-- Node6 -->
<g id="node11" class="node"><title>Node6</title>
<a xlink:href="structrbnode__t.html" target="_top" xlink:title="rbnode_t">
<polygon fill="none" stroke="black" points="157,-154.5 157,-173.5 211,-173.5 211,-154.5 157,-154.5"/>
<text text-anchor="middle" x="184" y="-161.5" font-family="Helvetica,sans-Serif" font-size="10.00">rbnode_t</text>
</a>
</g>
<!-- Node6&#45;&gt;Node5 -->
<g id="edge12" class="edge"><title>Node6&#45;&gt;Node5</title>
<path fill="none" stroke="#9a32cd" stroke-dasharray="5,2" d="M184,-144.328C184,-129.637 184,-109.839 184,-98.6495"/>
<polygon fill="#9a32cd" stroke="#9a32cd" points="180.5,-144.339 184,-154.339 187.5,-144.339 180.5,-144.339"/>
<text text-anchor="middle" x="196.5" y="-121.5" font-family="Helvetica,sans-Serif" font-size="10.00"> Root</text>
</g>
<!-- Node6&#45;&gt;Node6 -->
<g id="edge14" class="edge"><title>Node6&#45;&gt;Node6</title>
<path fill="none" stroke="#9a32cd" stroke-dasharray="5,2" d="M221.51,-170.464C226.038,-169.297 229,-167.142 229,-164 229,-158.844 221.024,-156.346 211.241,-156.507"/>
<polygon fill="#9a32cd" stroke="#9a32cd" points="220.842,-167.014 211.241,-171.493 221.54,-173.979 220.842,-167.014"/>
<text text-anchor="middle" x="243.5" y="-172.5" font-family="Helvetica,sans-Serif" font-size="10.00"> Left</text>
<text text-anchor="middle" x="243.5" y="-161.5" font-family="Helvetica,sans-Serif" font-size="10.00">Right</text>
<text text-anchor="middle" x="243.5" y="-150.5" font-family="Helvetica,sans-Serif" font-size="10.00">Parent</text>
</g>
</g>
</svg>
