<?xml version="1.0" encoding="UTF-8" standalone="no"?>
<!DOCTYPE svg PUBLIC "-//W3C//DTD SVG 1.1//EN"
 "http://www.w3.org/Graphics/SVG/1.1/DTD/svg11.dtd">
<!-- Generated by graphviz version 2.28.0 (20111211.2114)
 -->
<!-- Title: G Pages: 1 -->
<svg width="205pt" height="334pt"
 viewBox="0.00 0.00 205.00 334.00" xmlns="http://www.w3.org/2000/svg" xmlns:xlink="http://www.w3.org/1999/xlink">
<g id="graph1" class="graph" transform="scale(1 1) rotate(0) translate(4 330)">
<title>G</title>
<!-- Node1 -->
<g id="node1" class="node"><title>Node1</title>
<polygon fill="#bfbfbf" stroke="black" points="61,-0.5 61,-19.5 155,-19.5 155,-0.5 61,-0.5"/>
<text text-anchor="middle" x="108" y="-7.5" font-family="Helvetica,sans-Serif" font-size="10.00">fastuser_instance</text>
</g>
<!-- Node2 -->
<g id="node2" class="node"><title>Node2</title>
<a xlink:href="structpair__list.html" target="_top" xlink:title="pair_list">
<polygon fill="none" stroke="black" points="83,-91.5 83,-110.5 133,-110.5 133,-91.5 83,-91.5"/>
<text text-anchor="middle" x="108" y="-98.5" font-family="Helvetica,sans-Serif" font-size="10.00">pair_list</text>
</a>
</g>
<!-- Node2&#45;&gt;Node1 -->
<g id="edge2" class="edge"><title>Node2&#45;&gt;Node1</title>
<path fill="none" stroke="#9a32cd" stroke-dasharray="5,2" d="M108,-81.3494C108,-62.3833 108,-33.8277 108,-19.6386"/>
<polygon fill="#9a32cd" stroke="#9a32cd" points="104.5,-81.4663 108,-91.4663 111.5,-81.4663 104.5,-81.4663"/>
<text text-anchor="middle" x="129.5" y="-63.5" font-family="Helvetica,sans-Serif" font-size="10.00"> defaults</text>
<text text-anchor="middle" x="129.5" y="-52.5" font-family="Helvetica,sans-Serif" font-size="10.00">hashtable</text>
<text text-anchor="middle" x="129.5" y="-41.5" font-family="Helvetica,sans-Serif" font-size="10.00">acctusers</text>
</g>
<!-- Node2&#45;&gt;Node2 -->
<g id="edge4" class="edge"><title>Node2&#45;&gt;Node2</title>
<path fill="none" stroke="#9a32cd" stroke-dasharray="5,2" d="M143.446,-107.568C147.996,-106.427 151,-104.237 151,-101 151,-95.6875 142.91,-93.1973 133.176,-93.5293"/>
<polygon fill="#9a32cd" stroke="#9a32cd" points="142.831,-104.108 133.176,-108.471 143.444,-111.081 142.831,-104.108"/>
<text text-anchor="middle" x="174" y="-104" font-family="Helvetica,sans-Serif" font-size="10.00"> next</text>
<text text-anchor="middle" x="174" y="-93" font-family="Helvetica,sans-Serif" font-size="10.00">lastdefault</text>
</g>
<!-- Node3 -->
<g id="node5" class="node"><title>Node3</title>
<a xlink:href="structvalue__pair.html" target="_top" xlink:title="value_pair">
<polygon fill="none" stroke="black" points="77.5,-170.5 77.5,-189.5 138.5,-189.5 138.5,-170.5 77.5,-170.5"/>
<text text-anchor="middle" x="108" y="-177.5" font-family="Helvetica,sans-Serif" font-size="10.00">value_pair</text>
</a>
</g>
<!-- Node3&#45;&gt;Node2 -->
<g id="edge6" class="edge"><title>Node3&#45;&gt;Node2</title>
<path fill="none" stroke="#9a32cd" stroke-dasharray="5,2" d="M108,-160.315C108,-144.592 108,-122.808 108,-110.809"/>
<polygon fill="#9a32cd" stroke="#9a32cd" points="104.5,-160.465 108,-170.465 111.5,-160.465 104.5,-160.465"/>
<text text-anchor="middle" x="121.5" y="-144" font-family="Helvetica,sans-Serif" font-size="10.00"> reply</text>
<text text-anchor="middle" x="121.5" y="-133" font-family="Helvetica,sans-Serif" font-size="10.00">check</text>
</g>
<!-- Node3&#45;&gt;Node3 -->
<g id="edge12" class="edge"><title>Node3&#45;&gt;Node3</title>
<path fill="none" stroke="#9a32cd" stroke-dasharray="5,2" d="M149.201,-185.225C153.353,-184.186 156,-182.445 156,-180 156,-175.883 148.492,-173.76 138.931,-173.631"/>
<polygon fill="#9a32cd" stroke="#9a32cd" points="148.482,-181.783 138.931,-186.369 149.258,-188.74 148.482,-181.783"/>
<text text-anchor="middle" x="167" y="-177.5" font-family="Helvetica,sans-Serif" font-size="10.00"> next</text>
</g>
<!-- Node4 -->
<g id="node7" class="node"><title>Node4</title>
<a xlink:href="unionvalue__pair__data.html" target="_top" xlink:title="value_pair_data">
<polygon fill="none" stroke="black" points="-0.5,-238.5 -0.5,-257.5 84.5,-257.5 84.5,-238.5 -0.5,-238.5"/>
<text text-anchor="middle" x="42" y="-245.5" font-family="Helvetica,sans-Serif" font-size="10.00">value_pair_data</text>
</a>
</g>
<!-- Node4&#45;&gt;Node3 -->
<g id="edge8" class="edge"><title>Node4&#45;&gt;Node3</title>
<path fill="none" stroke="#9a32cd" stroke-dasharray="5,2" d="M57.9526,-231.047C70.8889,-218.111 88.6433,-200.357 99.1589,-189.841"/>
<polygon fill="#9a32cd" stroke="#9a32cd" points="55.2246,-228.826 50.6283,-238.372 60.1743,-233.775 55.2246,-228.826"/>
<text text-anchor="middle" x="92" y="-211.5" font-family="Helvetica,sans-Serif" font-size="10.00"> data</text>
</g>
<!-- Node5 -->
<g id="node9" class="node"><title>Node5</title>
<a xlink:href="structin6__addr.html" target="_top" xlink:title="in6_addr">
<polygon fill="none" stroke="black" points="15.5,-306.5 15.5,-325.5 68.5,-325.5 68.5,-306.5 15.5,-306.5"/>
<text text-anchor="middle" x="42" y="-313.5" font-family="Helvetica,sans-Serif" font-size="10.00">in6_addr</text>
</a>
</g>
<!-- Node5&#45;&gt;Node4 -->
<g id="edge10" class="edge"><title>Node5&#45;&gt;Node4</title>
<path fill="none" stroke="#9a32cd" stroke-dasharray="5,2" d="M42,-296.041C42,-283.472 42,-267.563 42,-257.841"/>
<polygon fill="#9a32cd" stroke="#9a32cd" points="38.5001,-296.372 42,-306.372 45.5001,-296.372 38.5001,-296.372"/>
<text text-anchor="middle" x="62" y="-279.5" font-family="Helvetica,sans-Serif" font-size="10.00"> ipv6addr</text>
</g>
<!-- Node6 -->
<g id="node12" class="node"><title>Node6</title>
<a xlink:href="structattr__flags.html" target="_top" xlink:title="attr_flags">
<polygon fill="none" stroke="black" points="102.5,-238.5 102.5,-257.5 159.5,-257.5 159.5,-238.5 102.5,-238.5"/>
<text text-anchor="middle" x="131" y="-245.5" font-family="Helvetica,sans-Serif" font-size="10.00">attr_flags</text>
</a>
</g>
<!-- Node6&#45;&gt;Node3 -->
<g id="edge14" class="edge"><title>Node6&#45;&gt;Node3</title>
<path fill="none" stroke="#9a32cd" stroke-dasharray="5,2" d="M124.66,-228.807C120.24,-216.124 114.538,-199.762 111.081,-189.841"/>
<polygon fill="#9a32cd" stroke="#9a32cd" points="121.397,-230.08 127.993,-238.372 128.007,-227.777 121.397,-230.08"/>
<text text-anchor="middle" x="133.5" y="-211.5" font-family="Helvetica,sans-Serif" font-size="10.00"> flags</text>
</g>
</g>
</svg>
