<?xml version="1.0" encoding="UTF-8" standalone="no"?>
<!DOCTYPE svg PUBLIC "-//W3C//DTD SVG 1.1//EN"
 "http://www.w3.org/Graphics/SVG/1.1/DTD/svg11.dtd">
<!-- Generated by graphviz version 2.28.0 (20111211.2114)
 -->
<!-- Title: G Pages: 1 -->
<!--zoomable-->
<svg id="main" version="1.1" xmlns="http://www.w3.org/2000/svg" xmlns:xlink="http://www.w3.org/1999/xlink" xml:space="preserve" onload="init(evt)">
        <defs>
                <circle id="rim" cx="0" cy="0" r="7"/>
                <circle id="rim2" cx="0" cy="0" r="3.5"/>
                <g id="zoomPlus">
                        <use xlink:href="#rim" fill="#404040">
                                <set attributeName="fill" to="#808080" begin="zoomplus.mouseover" end="zoomplus.mouseout"/>
                        </use>
                        <path d="M-4,0h8M0,-4v8" fill="none" stroke="white" stroke-width="1.5" pointer-events="none"/>
                </g>
                <g id="zoomMin">
                        <use xlink:href="#rim" fill="#404040">
                                <set attributeName="fill" to="#808080" begin="zoomminus.mouseover" end="zoomminus.mouseout"/>
                        </use>
                        <path d="M-4,0h8" fill="none" stroke="white" stroke-width="1.5" pointer-events="none"/>
                </g>
                <g id="dirArrow">
                        <path fill="none" stroke="white" stroke-width="1.5" d="M0,-3.0v7 M-2.5,-0.5L0,-3.0L2.5,-0.5"/>
                </g>
               <g id="resetDef">
                       <use xlink:href="#rim2" fill="#404040">
                               <set attributeName="fill" to="#808080" begin="reset.mouseover" end="reset.mouseout"/>
                       </use>
               </g>
        </defs>

<script type="text/javascript">
var viewWidth = 1116;
var viewHeight = 813;
var sectionId = 'dynsection-0';
</script>
<script xlink:href="svgpan.js"/>
<svg id="graph" class="graph">
<g id="viewport">
<title>G</title>
<!-- Node1 -->
<g id="node1" class="node"><title>Node1</title>
<polygon fill="#bfbfbf" stroke="black" points="1066.5,-247.5 1066.5,-266.5 1107.5,-266.5 1107.5,-247.5 1066.5,-247.5"/>
<text text-anchor="middle" x="1087" y="-254.5" font-family="Helvetica,sans-Serif" font-size="10.00">xlat_t</text>
</g>
<!-- Node2 -->
<g id="node2" class="node"><title>Node2</title>
<a xlink:href="structauth__req.html" target="_top" xlink:title="auth_req">
<polygon fill="none" stroke="black" points="940,-247.5 940,-266.5 994,-266.5 994,-247.5 940,-247.5"/>
<text text-anchor="middle" x="967" y="-254.5" font-family="Helvetica,sans-Serif" font-size="10.00">auth_req</text>
</a>
</g>
<!-- Node2&#45;&gt;Node1 -->
<g id="edge2" class="edge"><title>Node2&#45;&gt;Node1</title>
<path fill="none" stroke="#9a32cd" stroke-dasharray="5,2" d="M1004.44,-257C1024.92,-257 1049.66,-257 1066.49,-257"/>
<polygon fill="#9a32cd" stroke="#9a32cd" points="1004.19,-253.5 994.188,-257 1004.19,-260.5 1004.19,-253.5"/>
<text text-anchor="middle" x="1030" y="-260" font-family="Helvetica,sans-Serif" font-size="10.00"> do_xlat</text>
</g>
<!-- Node2&#45;&gt;Node2 -->
<g id="edge76" class="edge"><title>Node2&#45;&gt;Node2</title>
<path fill="none" stroke="#9a32cd" stroke-dasharray="5,2" d="M956.319,-276.766C957.158,-281.497 960.718,-285 967,-285 977.309,-285 980.288,-275.565 975.939,-266.757"/>
<polygon fill="#9a32cd" stroke="#9a32cd" points="959.794,-277.209 958.061,-266.757 952.898,-276.009 959.794,-277.209"/>
<text text-anchor="middle" x="967" y="-332" font-family="Helvetica,sans-Serif" font-size="10.00"> coa</text>
<text text-anchor="middle" x="967" y="-321" font-family="Helvetica,sans-Serif" font-size="10.00">radlog</text>
<text text-anchor="middle" x="967" y="-310" font-family="Helvetica,sans-Serif" font-size="10.00">handle</text>
<text text-anchor="middle" x="967" y="-299" font-family="Helvetica,sans-Serif" font-size="10.00">parent</text>
<text text-anchor="middle" x="967" y="-288" font-family="Helvetica,sans-Serif" font-size="10.00">process</text>
</g>
<!-- Node3 -->
<g id="node4" class="node"><title>Node3</title>
<a xlink:href="structradclient.html" target="_top" xlink:title="radclient">
<polygon fill="none" stroke="black" points="808.5,-247.5 808.5,-266.5 861.5,-266.5 861.5,-247.5 808.5,-247.5"/>
<text text-anchor="middle" x="835" y="-254.5" font-family="Helvetica,sans-Serif" font-size="10.00">radclient</text>
</a>
</g>
<!-- Node3&#45;&gt;Node2 -->
<g id="edge4" class="edge"><title>Node3&#45;&gt;Node2</title>
<path fill="none" stroke="#9a32cd" stroke-dasharray="5,2" d="M871.785,-257C893.363,-257 920.366,-257 939.925,-257"/>
<polygon fill="#9a32cd" stroke="#9a32cd" points="871.684,-253.5 861.684,-257 871.684,-260.5 871.684,-253.5"/>
<text text-anchor="middle" x="908" y="-260" font-family="Helvetica,sans-Serif" font-size="10.00"> client</text>
</g>
<!-- Node4 -->
<g id="node6" class="node"><title>Node4</title>
<a xlink:href="structhome__pool__t.html" target="_top" xlink:title="home_pool_t">
<polygon fill="none" stroke="black" points="621,-193.5 621,-212.5 693,-212.5 693,-193.5 621,-193.5"/>
<text text-anchor="middle" x="657" y="-200.5" font-family="Helvetica,sans-Serif" font-size="10.00">home_pool_t</text>
</a>
</g>
<!-- Node4&#45;&gt;Node2 -->
<g id="edge78" class="edge"><title>Node4&#45;&gt;Node2</title>
<path fill="none" stroke="#9a32cd" stroke-dasharray="5,2" d="M703.401,-204.678C747.898,-207.096 817.384,-212.946 876,-227 898.423,-232.376 923.237,-240.844 941.121,-247.415"/>
<polygon fill="#9a32cd" stroke="#9a32cd" points="703.364,-201.171 693.2,-204.16 703.01,-208.162 703.364,-201.171"/>
<text text-anchor="middle" x="835" y="-230" font-family="Helvetica,sans-Serif" font-size="10.00"> home_pool</text>
</g>
<!-- Node4&#45;&gt;Node3 -->
<g id="edge6" class="edge"><title>Node4&#45;&gt;Node3</title>
<path fill="none" stroke="#9a32cd" stroke-dasharray="5,2" d="M702.875,-212.185C725.121,-217.203 752.241,-224.022 776,-232 788.993,-236.363 803.126,-242.426 814.188,-247.488"/>
<polygon fill="#9a32cd" stroke="#9a32cd" points="703.547,-208.749 693.027,-210.009 702.037,-215.584 703.547,-208.749"/>
<text text-anchor="middle" x="745" y="-235" font-family="Helvetica,sans-Serif" font-size="10.00"> coa_pool</text>
</g>
<!-- Node5 -->
<g id="node8" class="node"><title>Node5</title>
<a xlink:href="structhome__server.html" target="_top" xlink:title="home_server">
<polygon fill="none" stroke="black" points="470.5,-186.5 470.5,-205.5 543.5,-205.5 543.5,-186.5 470.5,-186.5"/>
<text text-anchor="middle" x="507" y="-193.5" font-family="Helvetica,sans-Serif" font-size="10.00">home_server</text>
</a>
</g>
<!-- Node5&#45;&gt;Node2 -->
<g id="edge80" class="edge"><title>Node5&#45;&gt;Node2</title>
<path fill="none" stroke="#9a32cd" stroke-dasharray="5,2" d="M553.559,-189.907C573.325,-187.555 596.765,-185.155 618,-184 733.034,-177.744 765.295,-177.121 876,-209 897.097,-215.075 902.585,-216.751 922,-227 933.12,-232.87 944.843,-240.97 953.39,-247.274"/>
<polygon fill="#9a32cd" stroke="#9a32cd" points="553.09,-186.438 543.588,-191.126 553.939,-193.387 553.09,-186.438"/>
<text text-anchor="middle" x="745" y="-188" font-family="Helvetica,sans-Serif" font-size="10.00"> home_server</text>
</g>
<!-- Node5&#45;&gt;Node3 -->
<g id="edge40" class="edge"><title>Node5&#45;&gt;Node3</title>
<path fill="none" stroke="#9a32cd" stroke-dasharray="5,2" d="M536.862,-209.84C544.861,-213.246 553.644,-216.601 562,-219 650.22,-244.333 759.564,-253.054 808.38,-255.822"/>
<polygon fill="#9a32cd" stroke="#9a32cd" points="538.137,-206.576 527.577,-205.719 535.298,-212.975 538.137,-206.576"/>
<text text-anchor="middle" x="657" y="-247" font-family="Helvetica,sans-Serif" font-size="10.00"> coa_server</text>
</g>
<!-- Node5&#45;&gt;Node4 -->
<g id="edge8" class="edge"><title>Node5&#45;&gt;Node4</title>
<path fill="none" stroke="#9a32cd" stroke-dasharray="5,2" d="M554.199,-195.637C568.854,-195.754 585.116,-196.124 600,-197 606.735,-197.396 613.908,-198.015 620.793,-198.707"/>
<polygon fill="#9a32cd" stroke="#9a32cd" points="553.869,-192.136 543.854,-195.593 553.839,-199.135 553.869,-192.136"/>
<text text-anchor="middle" x="581" y="-211" font-family="Helvetica,sans-Serif" font-size="10.00"> fallback</text>
<text text-anchor="middle" x="581" y="-200" font-family="Helvetica,sans-Serif" font-size="10.00">servers</text>
</g>
<!-- Node6 -->
<g id="node10" class="node"><title>Node6</title>
<a xlink:href="structconf__part.html" target="_top" xlink:title="conf_part">
<polygon fill="none" stroke="black" points="314.5,-300.5 314.5,-319.5 371.5,-319.5 371.5,-300.5 314.5,-300.5"/>
<text text-anchor="middle" x="343" y="-307.5" font-family="Helvetica,sans-Serif" font-size="10.00">conf_part</text>
</a>
</g>
<!-- Node6&#45;&gt;Node3 -->
<g id="edge44" class="edge"><title>Node6&#45;&gt;Node3</title>
<path fill="none" stroke="#9a32cd" stroke-dasharray="5,2" d="M381.609,-303.545C389.644,-302.275 398.093,-301.021 406,-300 569.86,-278.835 611.751,-281.9 776,-264 786.587,-262.846 798.247,-261.461 808.318,-260.229"/>
<polygon fill="#9a32cd" stroke="#9a32cd" points="381.035,-300.092 371.723,-305.146 382.154,-307.002 381.035,-300.092"/>
<text text-anchor="middle" x="581" y="-286" font-family="Helvetica,sans-Serif" font-size="10.00"> cs</text>
</g>
<!-- Node6&#45;&gt;Node4 -->
<g id="edge38" class="edge"><title>Node6&#45;&gt;Node4</title>
<path fill="none" stroke="#9a32cd" stroke-dasharray="5,2" d="M362.347,-293.998C374.096,-284.539 390.079,-273.065 406,-266 486.723,-230.178 515.139,-247.455 600,-223 610.416,-219.998 621.708,-216.094 631.406,-212.533"/>
<polygon fill="#9a32cd" stroke="#9a32cd" points="360.053,-291.354 354.601,-300.438 364.528,-296.737 360.053,-291.354"/>
<text text-anchor="middle" x="507" y="-247" font-family="Helvetica,sans-Serif" font-size="10.00"> cs</text>
</g>
<!-- Node6&#45;&gt;Node5 -->
<g id="edge10" class="edge"><title>Node6&#45;&gt;Node5</title>
<path fill="none" stroke="#9a32cd" stroke-dasharray="5,2" d="M353.331,-291.411C363.716,-272.547 382.214,-243.799 406,-227 425.004,-213.578 450.004,-205.828 470.253,-201.434"/>
<polygon fill="#9a32cd" stroke="#9a32cd" points="350.108,-290.02 348.534,-300.498 356.298,-293.288 350.108,-290.02"/>
<text text-anchor="middle" x="429" y="-230" font-family="Helvetica,sans-Serif" font-size="10.00"> cs</text>
</g>
<!-- Node6&#45;&gt;Node6 -->
<g id="edge12" class="edge"><title>Node6&#45;&gt;Node6</title>
<path fill="none" stroke="#9a32cd" stroke-dasharray="5,2" d="M327.075,-329.4C328.138,-334.315 333.447,-338 343,-338 358.285,-338 362.704,-328.565 356.255,-319.757"/>
<polygon fill="#9a32cd" stroke="#9a32cd" points="330.449,-330.328 329.745,-319.757 323.703,-328.46 330.449,-330.328"/>
<text text-anchor="middle" x="343" y="-341" font-family="Helvetica,sans-Serif" font-size="10.00"> template</text>
</g>
<!-- Node7 -->
<g id="node13" class="node"><title>Node7</title>
<a xlink:href="structconf__item.html" target="_top" xlink:title="conf_item">
<polygon fill="none" stroke="black" points="477.5,-326.5 477.5,-345.5 536.5,-345.5 536.5,-326.5 477.5,-326.5"/>
<text text-anchor="middle" x="507" y="-333.5" font-family="Helvetica,sans-Serif" font-size="10.00">conf_item</text>
</a>
</g>
<!-- Node6&#45;&gt;Node7 -->
<g id="edge16" class="edge"><title>Node6&#45;&gt;Node7</title>
<path fill="none" stroke="#9a32cd" stroke-dasharray="5,2" d="M382.029,-305.248C402.947,-303.727 429.207,-303.619 452,-309 466.282,-312.371 481.093,-320.13 491.583,-326.47"/>
<polygon fill="#9a32cd" stroke="#9a32cd" points="381.588,-301.773 371.927,-306.121 382.191,-308.747 381.588,-301.773"/>
<text text-anchor="middle" x="429" y="-312" font-family="Helvetica,sans-Serif" font-size="10.00"> parent</text>
</g>
<!-- Node15 -->
<g id="node38" class="node"><title>Node15</title>
<a xlink:href="structmain__config__t.html" target="_top" xlink:title="main_config_t">
<polygon fill="none" stroke="black" points="618.5,-491.5 618.5,-510.5 695.5,-510.5 695.5,-491.5 618.5,-491.5"/>
<text text-anchor="middle" x="657" y="-498.5" font-family="Helvetica,sans-Serif" font-size="10.00">main_config_t</text>
</a>
</g>
<!-- Node6&#45;&gt;Node15 -->
<g id="edge56" class="edge"><title>Node6&#45;&gt;Node15</title>
<path fill="none" stroke="#9a32cd" stroke-dasharray="5,2" d="M348.64,-329.544C355.972,-355.698 372.933,-401.3 406,-423 478.396,-470.509 522.263,-402.853 600,-441 623.025,-452.299 641.357,-477.372 650.212,-491.263"/>
<polygon fill="#9a32cd" stroke="#9a32cd" points="351.971,-328.45 346.068,-319.652 345.197,-330.211 351.971,-328.45"/>
<text text-anchor="middle" x="507" y="-443" font-family="Helvetica,sans-Serif" font-size="10.00"> config</text>
</g>
<!-- Node16 -->
<g id="node40" class="node"><title>Node16</title>
<a xlink:href="structrad__listen__t.html" target="_top" xlink:title="rad_listen_t">
<polygon fill="none" stroke="black" points="473.5,-491.5 473.5,-510.5 540.5,-510.5 540.5,-491.5 473.5,-491.5"/>
<text text-anchor="middle" x="507" y="-498.5" font-family="Helvetica,sans-Serif" font-size="10.00">rad_listen_t</text>
</a>
</g>
<!-- Node6&#45;&gt;Node16 -->
<g id="edge54" class="edge"><title>Node6&#45;&gt;Node16</title>
<path fill="none" stroke="#9a32cd" stroke-dasharray="5,2" d="M348.381,-329.288C355.811,-358.218 373.356,-413.159 406,-448 425.48,-468.791 454.974,-483.033 476.889,-491.475"/>
<polygon fill="#9a32cd" stroke="#9a32cd" points="351.782,-328.46 346.018,-319.57 344.98,-330.114 351.782,-328.46"/>
<text text-anchor="middle" x="429" y="-482" font-family="Helvetica,sans-Serif" font-size="10.00"> cs</text>
</g>
<!-- Node7&#45;&gt;Node6 -->
<g id="edge14" class="edge"><title>Node7&#45;&gt;Node6</title>
<path fill="none" stroke="#9a32cd" stroke-dasharray="5,2" d="M467.339,-331.065C448.757,-328.571 426.186,-325.364 406,-322 394.753,-320.126 382.412,-317.794 371.721,-315.685"/>
<polygon fill="#9a32cd" stroke="#9a32cd" points="467.118,-334.566 477.491,-332.41 468.037,-327.627 467.118,-334.566"/>
<text text-anchor="middle" x="429" y="-353" font-family="Helvetica,sans-Serif" font-size="10.00"> tail</text>
<text text-anchor="middle" x="429" y="-342" font-family="Helvetica,sans-Serif" font-size="10.00">item</text>
<text text-anchor="middle" x="429" y="-331" font-family="Helvetica,sans-Serif" font-size="10.00">children</text>
</g>
<!-- Node7&#45;&gt;Node7 -->
<g id="edge18" class="edge"><title>Node7&#45;&gt;Node7</title>
<path fill="none" stroke="#9a32cd" stroke-dasharray="5,2" d="M493.372,-355.766C494.443,-360.497 498.985,-364 507,-364 520.152,-364 523.954,-354.565 518.406,-345.757"/>
<polygon fill="#9a32cd" stroke="#9a32cd" points="496.844,-356.278 495.594,-345.757 490.01,-354.761 496.844,-356.278"/>
<text text-anchor="middle" x="507" y="-367" font-family="Helvetica,sans-Serif" font-size="10.00"> next</text>
</g>
<!-- Node8 -->
<g id="node17" class="node"><title>Node8</title>
<a xlink:href="structCONF__PARSER.html" target="_top" xlink:title="CONF_PARSER">
<polygon fill="none" stroke="black" points="116,-334.5 116,-353.5 208,-353.5 208,-334.5 116,-334.5"/>
<text text-anchor="middle" x="162" y="-341.5" font-family="Helvetica,sans-Serif" font-size="10.00">CONF_PARSER</text>
</a>
</g>
<!-- Node8&#45;&gt;Node6 -->
<g id="edge20" class="edge"><title>Node8&#45;&gt;Node6</title>
<path fill="none" stroke="#9a32cd" stroke-dasharray="5,2" d="M217.988,-333.723C237.568,-330.047 259.772,-325.859 280,-322 291.2,-319.863 303.533,-317.482 314.229,-315.408"/>
<polygon fill="#9a32cd" stroke="#9a32cd" points="217.197,-330.31 208.014,-335.594 218.488,-337.19 217.197,-330.31"/>
<text text-anchor="middle" x="253" y="-334" font-family="Helvetica,sans-Serif" font-size="10.00"> variables</text>
</g>
<!-- Node9 -->
<g id="node19" class="node"><title>Node9</title>
<a xlink:href="structrbtree__t.html" target="_top" xlink:title="rbtree_t">
<polygon fill="none" stroke="black" points="137,-267.5 137,-286.5 187,-286.5 187,-267.5 137,-267.5"/>
<text text-anchor="middle" x="162" y="-274.5" font-family="Helvetica,sans-Serif" font-size="10.00">rbtree_t</text>
</a>
</g>
<!-- Node9&#45;&gt;Node6 -->
<g id="edge22" class="edge"><title>Node9&#45;&gt;Node6</title>
<path fill="none" stroke="#9a32cd" stroke-dasharray="5,2" d="M197.374,-273.147C220.969,-271.503 252.811,-271.274 280,-278 297.638,-282.363 315.892,-292.6 327.985,-300.329"/>
<polygon fill="#9a32cd" stroke="#9a32cd" points="196.841,-269.678 187.16,-273.981 197.411,-276.655 196.841,-269.678"/>
<text text-anchor="middle" x="253" y="-314" font-family="Helvetica,sans-Serif" font-size="10.00"> data_tree</text>
<text text-anchor="middle" x="253" y="-303" font-family="Helvetica,sans-Serif" font-size="10.00">name2_tree</text>
<text text-anchor="middle" x="253" y="-292" font-family="Helvetica,sans-Serif" font-size="10.00">section_tree</text>
<text text-anchor="middle" x="253" y="-281" font-family="Helvetica,sans-Serif" font-size="10.00">pair_tree</text>
</g>
<!-- Node10 -->
<g id="node21" class="node"><title>Node10</title>
<a xlink:href="structrbnode__t.html" target="_top" xlink:title="rbnode_t">
<polygon fill="none" stroke="black" points="0,-267.5 0,-286.5 54,-286.5 54,-267.5 0,-267.5"/>
<text text-anchor="middle" x="27" y="-274.5" font-family="Helvetica,sans-Serif" font-size="10.00">rbnode_t</text>
</a>
</g>
<!-- Node10&#45;&gt;Node9 -->
<g id="edge24" class="edge"><title>Node10&#45;&gt;Node9</title>
<path fill="none" stroke="#9a32cd" stroke-dasharray="5,2" d="M64.3432,-277C87.3013,-277 116.343,-277 136.572,-277"/>
<polygon fill="#9a32cd" stroke="#9a32cd" points="64.2766,-273.5 54.2765,-277 64.2765,-280.5 64.2766,-273.5"/>
<text text-anchor="middle" x="85" y="-280" font-family="Helvetica,sans-Serif" font-size="10.00"> Root</text>
</g>
<!-- Node10&#45;&gt;Node10 -->
<g id="edge26" class="edge"><title>Node10&#45;&gt;Node10</title>
<path fill="none" stroke="#9a32cd" stroke-dasharray="5,2" d="M16.3189,-296.766C17.1578,-301.497 20.7182,-305 27,-305 37.3086,-305 40.2884,-295.565 35.9395,-286.757"/>
<polygon fill="#9a32cd" stroke="#9a32cd" points="19.7944,-297.209 18.0605,-286.757 12.898,-296.009 19.7944,-297.209"/>
<text text-anchor="middle" x="27" y="-330" font-family="Helvetica,sans-Serif" font-size="10.00"> Left</text>
<text text-anchor="middle" x="27" y="-319" font-family="Helvetica,sans-Serif" font-size="10.00">Right</text>
<text text-anchor="middle" x="27" y="-308" font-family="Helvetica,sans-Serif" font-size="10.00">Parent</text>
</g>
<!-- Node11 -->
<g id="node24" class="node"><title>Node11</title>
<a xlink:href="structfr__socket__limit__t.html" target="_top" xlink:title="fr_socket_limit_t">
<polygon fill="none" stroke="black" points="298.5,-158.5 298.5,-177.5 387.5,-177.5 387.5,-158.5 298.5,-158.5"/>
<text text-anchor="middle" x="343" y="-165.5" font-family="Helvetica,sans-Serif" font-size="10.00">fr_socket_limit_t</text>
</a>
</g>
<!-- Node11&#45;&gt;Node3 -->
<g id="edge42" class="edge"><title>Node11&#45;&gt;Node3</title>
<path fill="none" stroke="#9a32cd" stroke-dasharray="5,2" d="M397.788,-165.802C467.3,-164.017 591.778,-164.414 696,-184 732.88,-190.931 746.942,-187.255 776,-211 788.337,-221.081 781.833,-231.715 794,-242 798.192,-245.543 803.302,-248.291 808.45,-250.408"/>
<polygon fill="#9a32cd" stroke="#9a32cd" points="397.425,-162.311 387.528,-166.092 397.623,-169.308 397.425,-162.311"/>
<text text-anchor="middle" x="581" y="-173" font-family="Helvetica,sans-Serif" font-size="10.00"> limit</text>
</g>
<!-- Node11&#45;&gt;Node5 -->
<g id="edge28" class="edge"><title>Node11&#45;&gt;Node5</title>
<path fill="none" stroke="#9a32cd" stroke-dasharray="5,2" d="M397.812,-177.301C421.656,-181.422 449.055,-186.158 470.314,-189.832"/>
<polygon fill="#9a32cd" stroke="#9a32cd" points="398.29,-173.832 387.84,-175.577 397.097,-180.729 398.29,-173.832"/>
<text text-anchor="middle" x="429" y="-189" font-family="Helvetica,sans-Serif" font-size="10.00"> limit</text>
</g>
<!-- Node12 -->
<g id="node26" class="node"><title>Node12</title>
<a xlink:href="structfr__event__t.html" target="_top" xlink:title="fr_event_t">
<polygon fill="none" stroke="black" points="313,-84.5 313,-103.5 373,-103.5 373,-84.5 313,-84.5"/>
<text text-anchor="middle" x="343" y="-91.5" font-family="Helvetica,sans-Serif" font-size="10.00">fr_event_t</text>
</a>
</g>
<!-- Node12&#45;&gt;Node2 -->
<g id="edge84" class="edge"><title>Node12&#45;&gt;Node2</title>
<path fill="none" stroke="#9a32cd" stroke-dasharray="5,2" d="M383.237,-87.562C415.97,-82.7502 463.896,-77 506,-77 506,-77 506,-77 836,-77 920.805,-77 955.86,-209.935 964.042,-247.322"/>
<polygon fill="#9a32cd" stroke="#9a32cd" points="382.534,-84.1284 373.169,-89.0829 383.58,-91.0498 382.534,-84.1284"/>
<text text-anchor="middle" x="657" y="-80" font-family="Helvetica,sans-Serif" font-size="10.00"> ev</text>
</g>
<!-- Node12&#45;&gt;Node5 -->
<g id="edge30" class="edge"><title>Node12&#45;&gt;Node5</title>
<path fill="none" stroke="#9a32cd" stroke-dasharray="5,2" d="M368.01,-109.117C401.798,-130.391 462.4,-168.548 490.682,-186.355"/>
<polygon fill="#9a32cd" stroke="#9a32cd" points="369.568,-105.962 359.241,-103.596 365.838,-111.886 369.568,-105.962"/>
<text text-anchor="middle" x="429" y="-163" font-family="Helvetica,sans-Serif" font-size="10.00"> ev</text>
</g>
<!-- Node12&#45;&gt;Node12 -->
<g id="edge32" class="edge"><title>Node12&#45;&gt;Node12</title>
<path fill="none" stroke="#9a32cd" stroke-dasharray="5,2" d="M327.075,-113.4C328.138,-118.315 333.447,-122 343,-122 358.285,-122 362.704,-112.565 356.255,-103.757"/>
<polygon fill="#9a32cd" stroke="#9a32cd" points="330.449,-114.328 329.745,-103.757 323.703,-112.46 330.449,-114.328"/>
<text text-anchor="middle" x="343" y="-125" font-family="Helvetica,sans-Serif" font-size="10.00"> ev_p</text>
</g>
<!-- Node13 -->
<g id="node29" class="node"><title>Node13</title>
<a xlink:href="structfr__ipaddr__t.html" target="_top" xlink:title="fr_ipaddr_t">
<polygon fill="none" stroke="black" points="312,-621.5 312,-640.5 374,-640.5 374,-621.5 312,-621.5"/>
<text text-anchor="middle" x="343" y="-628.5" font-family="Helvetica,sans-Serif" font-size="10.00">fr_ipaddr_t</text>
</a>
</g>
<!-- Node13&#45;&gt;Node3 -->
<g id="edge46" class="edge"><title>Node13&#45;&gt;Node3</title>
<path fill="none" stroke="#9a32cd" stroke-dasharray="5,2" d="M355.555,-612.547C375.563,-581.87 419.403,-520 470,-482 498.795,-460.374 512.435,-466.332 544,-449 656.207,-387.388 781.45,-296.149 821.188,-266.606"/>
<polygon fill="#9a32cd" stroke="#9a32cd" points="352.368,-611.034 349.918,-621.342 358.261,-614.811 352.368,-611.034"/>
<text text-anchor="middle" x="581" y="-441" font-family="Helvetica,sans-Serif" font-size="10.00"> ipaddr</text>
</g>
<!-- Node13&#45;&gt;Node5 -->
<g id="edge34" class="edge"><title>Node13&#45;&gt;Node5</title>
<path fill="none" stroke="#9a32cd" stroke-dasharray="5,2" d="M347.241,-611.025C354.035,-572.646 372.024,-486.677 406,-422 421.139,-393.181 439.15,-394.91 452,-365 475.894,-309.384 442.411,-283.878 470,-230 475.015,-220.206 484.015,-211.706 491.762,-205.654"/>
<polygon fill="#9a32cd" stroke="#9a32cd" points="343.715,-610.886 345.487,-621.332 350.615,-612.061 343.715,-610.886"/>
<text text-anchor="middle" x="429" y="-436" font-family="Helvetica,sans-Serif" font-size="10.00"> ipaddr</text>
<text text-anchor="middle" x="429" y="-425" font-family="Helvetica,sans-Serif" font-size="10.00">src_ipaddr</text>
</g>
<!-- Node13&#45;&gt;Node15 -->
<g id="edge58" class="edge"><title>Node13&#45;&gt;Node15</title>
<path fill="none" stroke="#9a32cd" stroke-dasharray="5,2" d="M384.117,-632.508C425.972,-632.538 492.54,-628.156 544,-604 591.588,-581.662 632.869,-531.814 648.893,-510.723"/>
<polygon fill="#9a32cd" stroke="#9a32cd" points="384.065,-629.007 374.033,-632.414 384,-636.007 384.065,-629.007"/>
<text text-anchor="middle" x="507" y="-628" font-family="Helvetica,sans-Serif" font-size="10.00"> myip</text>
</g>
<!-- Node17 -->
<g id="node46" class="node"><title>Node17</title>
<a xlink:href="structradius__packet.html" target="_top" xlink:title="radius_packet">
<polygon fill="none" stroke="black" points="618.5,-730.5 618.5,-749.5 695.5,-749.5 695.5,-730.5 618.5,-730.5"/>
<text text-anchor="middle" x="657" y="-737.5" font-family="Helvetica,sans-Serif" font-size="10.00">radius_packet</text>
</a>
</g>
<!-- Node13&#45;&gt;Node17 -->
<g id="edge72" class="edge"><title>Node13&#45;&gt;Node17</title>
<path fill="none" stroke="#9a32cd" stroke-dasharray="5,2" d="M383.958,-641.802C424.634,-653.12 489.31,-672.008 544,-692 576.585,-703.912 613.385,-720.261 635.627,-730.473"/>
<polygon fill="#9a32cd" stroke="#9a32cd" points="384.725,-638.383 374.154,-639.091 382.86,-645.13 384.725,-638.383"/>
<text text-anchor="middle" x="507" y="-706" font-family="Helvetica,sans-Serif" font-size="10.00"> dst_ipaddr</text>
<text text-anchor="middle" x="507" y="-695" font-family="Helvetica,sans-Serif" font-size="10.00">src_ipaddr</text>
</g>
<!-- Node14 -->
<g id="node31" class="node"><title>Node14</title>
<a xlink:href="structin6__addr.html" target="_top" xlink:title="in6_addr">
<polygon fill="none" stroke="black" points="135.5,-649.5 135.5,-668.5 188.5,-668.5 188.5,-649.5 135.5,-649.5"/>
<text text-anchor="middle" x="162" y="-656.5" font-family="Helvetica,sans-Serif" font-size="10.00">in6_addr</text>
</a>
</g>
<!-- Node14&#45;&gt;Node13 -->
<g id="edge36" class="edge"><title>Node14&#45;&gt;Node13</title>
<path fill="none" stroke="#9a32cd" stroke-dasharray="5,2" d="M198.812,-653.293C207.695,-651.884 217.193,-650.382 226,-649 255.193,-644.418 288.531,-639.252 311.952,-635.633"/>
<polygon fill="#9a32cd" stroke="#9a32cd" points="198.071,-649.867 188.744,-654.893 199.17,-656.78 198.071,-649.867"/>
<text text-anchor="middle" x="253" y="-652" font-family="Helvetica,sans-Serif" font-size="10.00"> ip6addr</text>
</g>
<!-- Node19 -->
<g id="node50" class="node"><title>Node19</title>
<a xlink:href="unionvalue__pair__data.html" target="_top" xlink:title="value_pair_data">
<polygon fill="none" stroke="black" points="300.5,-678.5 300.5,-697.5 385.5,-697.5 385.5,-678.5 300.5,-678.5"/>
<text text-anchor="middle" x="343" y="-685.5" font-family="Helvetica,sans-Serif" font-size="10.00">value_pair_data</text>
</a>
</g>
<!-- Node14&#45;&gt;Node19 -->
<g id="edge66" class="edge"><title>Node14&#45;&gt;Node19</title>
<path fill="none" stroke="#9a32cd" stroke-dasharray="5,2" d="M198.826,-664.804C228.059,-669.54 269.407,-676.239 300.158,-681.221"/>
<polygon fill="#9a32cd" stroke="#9a32cd" points="199.077,-661.299 188.646,-663.155 197.958,-668.209 199.077,-661.299"/>
<text text-anchor="middle" x="253" y="-680" font-family="Helvetica,sans-Serif" font-size="10.00"> ipv6addr</text>
</g>
<!-- Node15&#45;&gt;Node2 -->
<g id="edge48" class="edge"><title>Node15&#45;&gt;Node2</title>
<path fill="none" stroke="#9a32cd" stroke-dasharray="5,2" d="M705.626,-498.423C728.201,-495.483 754.8,-489.409 776,-477 870.514,-421.68 941.316,-302.07 960.695,-266.91"/>
<polygon fill="#9a32cd" stroke="#9a32cd" points="705.112,-494.958 695.571,-499.565 705.902,-501.914 705.112,-494.958"/>
<text text-anchor="middle" x="835" y="-468" font-family="Helvetica,sans-Serif" font-size="10.00"> root</text>
</g>
<!-- Node16&#45;&gt;Node2 -->
<g id="edge74" class="edge"><title>Node16&#45;&gt;Node2</title>
<path fill="none" stroke="#9a32cd" stroke-dasharray="5,2" d="M549.916,-513.116C624.961,-532.012 783.09,-558.725 876,-480 945.12,-421.433 961.727,-301.925 965.183,-266.872"/>
<polygon fill="#9a32cd" stroke="#9a32cd" points="550.452,-509.639 539.893,-510.513 548.692,-516.415 550.452,-509.639"/>
<text text-anchor="middle" x="745" y="-546" font-family="Helvetica,sans-Serif" font-size="10.00"> listener</text>
<text text-anchor="middle" x="745" y="-535" font-family="Helvetica,sans-Serif" font-size="10.00">proxy_listener</text>
</g>
<!-- Node16&#45;&gt;Node15 -->
<g id="edge50" class="edge"><title>Node16&#45;&gt;Node15</title>
<path fill="none" stroke="#9a32cd" stroke-dasharray="5,2" d="M550.928,-501C572.234,-501 597.739,-501 618.285,-501"/>
<polygon fill="#9a32cd" stroke="#9a32cd" points="550.846,-497.5 540.846,-501 550.846,-504.5 550.846,-497.5"/>
<text text-anchor="middle" x="581" y="-504" font-family="Helvetica,sans-Serif" font-size="10.00"> listen</text>
</g>
<!-- Node16&#45;&gt;Node16 -->
<g id="edge52" class="edge"><title>Node16&#45;&gt;Node16</title>
<path fill="none" stroke="#9a32cd" stroke-dasharray="5,2" d="M493.372,-520.766C494.443,-525.497 498.985,-529 507,-529 520.152,-529 523.954,-519.565 518.406,-510.757"/>
<polygon fill="#9a32cd" stroke="#9a32cd" points="496.844,-521.278 495.594,-510.757 490.01,-519.761 496.844,-521.278"/>
<text text-anchor="middle" x="507" y="-587" font-family="Helvetica,sans-Serif" font-size="10.00"> next</text>
<text text-anchor="middle" x="507" y="-576" font-family="Helvetica,sans-Serif" font-size="10.00">encode</text>
<text text-anchor="middle" x="507" y="-565" font-family="Helvetica,sans-Serif" font-size="10.00">recv</text>
<text text-anchor="middle" x="507" y="-554" font-family="Helvetica,sans-Serif" font-size="10.00">print</text>
<text text-anchor="middle" x="507" y="-543" font-family="Helvetica,sans-Serif" font-size="10.00">send</text>
<text text-anchor="middle" x="507" y="-532" font-family="Helvetica,sans-Serif" font-size="10.00">decode</text>
</g>
<!-- Node17&#45;&gt;Node2 -->
<g id="edge60" class="edge"><title>Node17&#45;&gt;Node2</title>
<path fill="none" stroke="#9a32cd" stroke-dasharray="5,2" d="M703.448,-751.685C762.914,-763.936 866.104,-774.211 922,-716 954.297,-682.365 964.252,-329.728 965.78,-266.635"/>
<polygon fill="#9a32cd" stroke="#9a32cd" points="704.098,-748.245 693.584,-749.552 702.619,-755.087 704.098,-748.245"/>
<text text-anchor="middle" x="835" y="-797" font-family="Helvetica,sans-Serif" font-size="10.00"> reply</text>
<text text-anchor="middle" x="835" y="-786" font-family="Helvetica,sans-Serif" font-size="10.00">proxy_reply</text>
<text text-anchor="middle" x="835" y="-775" font-family="Helvetica,sans-Serif" font-size="10.00">proxy</text>
<text text-anchor="middle" x="835" y="-764" font-family="Helvetica,sans-Serif" font-size="10.00">packet</text>
</g>
<!-- Node18 -->
<g id="node48" class="node"><title>Node18</title>
<a xlink:href="structvalue__pair.html" target="_top" xlink:title="value_pair">
<polygon fill="none" stroke="black" points="476.5,-723.5 476.5,-742.5 537.5,-742.5 537.5,-723.5 476.5,-723.5"/>
<text text-anchor="middle" x="507" y="-730.5" font-family="Helvetica,sans-Serif" font-size="10.00">value_pair</text>
</a>
</g>
<!-- Node18&#45;&gt;Node2 -->
<g id="edge82" class="edge"><title>Node18&#45;&gt;Node2</title>
<path fill="none" stroke="#9a32cd" stroke-dasharray="5,2" d="M541.938,-719.036C542.634,-718.692 543.322,-718.347 544,-718 698.179,-639.121 746.922,-629.464 876,-514 900.782,-491.832 907.824,-485.077 922,-455 953.827,-387.472 963.115,-296.001 965.368,-266.552"/>
<polygon fill="#9a32cd" stroke="#9a32cd" points="540.241,-715.964 532.634,-723.34 543.18,-722.318 540.241,-715.964"/>
<text text-anchor="middle" x="745" y="-657" font-family="Helvetica,sans-Serif" font-size="10.00"> password</text>
<text text-anchor="middle" x="745" y="-646" font-family="Helvetica,sans-Serif" font-size="10.00">config_items</text>
<text text-anchor="middle" x="745" y="-635" font-family="Helvetica,sans-Serif" font-size="10.00">username</text>
</g>
<!-- Node18&#45;&gt;Node17 -->
<g id="edge62" class="edge"><title>Node18&#45;&gt;Node17</title>
<path fill="none" stroke="#9a32cd" stroke-dasharray="5,2" d="M547.585,-734.872C569.524,-735.91 596.655,-737.193 618.288,-738.216"/>
<polygon fill="#9a32cd" stroke="#9a32cd" points="547.749,-731.376 537.594,-734.4 547.418,-738.368 547.749,-731.376"/>
<text text-anchor="middle" x="581" y="-740" font-family="Helvetica,sans-Serif" font-size="10.00"> vps</text>
</g>
<!-- Node18&#45;&gt;Node18 -->
<g id="edge68" class="edge"><title>Node18&#45;&gt;Node18</title>
<path fill="none" stroke="#9a32cd" stroke-dasharray="5,2" d="M493.372,-752.766C494.443,-757.497 498.985,-761 507,-761 520.152,-761 523.954,-751.565 518.406,-742.757"/>
<polygon fill="#9a32cd" stroke="#9a32cd" points="496.844,-753.278 495.594,-742.757 490.01,-751.761 496.844,-753.278"/>
<text text-anchor="middle" x="507" y="-764" font-family="Helvetica,sans-Serif" font-size="10.00"> next</text>
</g>
<!-- Node19&#45;&gt;Node18 -->
<g id="edge64" class="edge"><title>Node19&#45;&gt;Node18</title>
<path fill="none" stroke="#9a32cd" stroke-dasharray="5,2" d="M388.298,-700.305C416.284,-708.079 451.683,-717.912 476.316,-724.754"/>
<polygon fill="#9a32cd" stroke="#9a32cd" points="388.928,-696.848 378.356,-697.543 387.054,-703.592 388.928,-696.848"/>
<text text-anchor="middle" x="429" y="-720" font-family="Helvetica,sans-Serif" font-size="10.00"> data</text>
</g>
<!-- Node20 -->
<g id="node54" class="node"><title>Node20</title>
<a xlink:href="structattr__flags.html" target="_top" xlink:title="attr_flags">
<polygon fill="none" stroke="black" points="314.5,-735.5 314.5,-754.5 371.5,-754.5 371.5,-735.5 314.5,-735.5"/>
<text text-anchor="middle" x="343" y="-742.5" font-family="Helvetica,sans-Serif" font-size="10.00">attr_flags</text>
</a>
</g>
<!-- Node20&#45;&gt;Node18 -->
<g id="edge70" class="edge"><title>Node20&#45;&gt;Node18</title>
<path fill="none" stroke="#9a32cd" stroke-dasharray="5,2" d="M381.954,-742.189C410.754,-740.055 449.787,-737.164 476.324,-735.198"/>
<polygon fill="#9a32cd" stroke="#9a32cd" points="381.563,-738.708 371.849,-742.937 382.08,-745.689 381.563,-738.708"/>
<text text-anchor="middle" x="429" y="-743" font-family="Helvetica,sans-Serif" font-size="10.00"> flags</text>
</g>
<!-- Node21 -->
<g id="node63" class="node"><title>Node21</title>
<a xlink:href="structrequest__data__t.html" target="_top" xlink:title="request_data_t">
<polygon fill="none" stroke="black" points="794.5,-0.5 794.5,-19.5 875.5,-19.5 875.5,-0.5 794.5,-0.5"/>
<text text-anchor="middle" x="835" y="-7.5" font-family="Helvetica,sans-Serif" font-size="10.00">request_data_t</text>
</a>
</g>
<!-- Node21&#45;&gt;Node2 -->
<g id="edge86" class="edge"><title>Node21&#45;&gt;Node2</title>
<path fill="none" stroke="#9a32cd" stroke-dasharray="5,2" d="M881.81,-23.3466C896.626,-29.7805 911.837,-39.0111 922,-52 946.563,-83.3912 961.301,-211.099 965.048,-247.358"/>
<polygon fill="#9a32cd" stroke="#9a32cd" points="882.773,-19.9626 872.187,-19.511 880.181,-26.4651 882.773,-19.9626"/>
<text text-anchor="middle" x="908" y="-55" font-family="Helvetica,sans-Serif" font-size="10.00"> data</text>
</g>
<!-- Node21&#45;&gt;Node21 -->
<g id="edge88" class="edge"><title>Node21&#45;&gt;Node21</title>
<path fill="none" stroke="#9a32cd" stroke-dasharray="5,2" d="M821.741,-29.7663C822.782,-34.4965 827.202,-38 835,-38 847.797,-38 851.496,-28.5653 846.097,-19.7571"/>
<polygon fill="#9a32cd" stroke="#9a32cd" points="825.212,-30.2706 823.903,-19.7571 818.37,-28.7927 825.212,-30.2706"/>
<text text-anchor="middle" x="835" y="-41" font-family="Helvetica,sans-Serif" font-size="10.00"> next</text>
</g>
</g>
</svg>
        <g id="navigator" transform="translate(0 0)" fill="#404254">
                <rect fill="#f2f5e9" fill-opacity="0.5" stroke="#606060" stroke-width=".5" x="0" y="0" width="60" height="60"/>
                <use id="zoomplus" xlink:href="#zoomPlus" x="17" y="9" onmousedown="handleZoom(evt,'in')"/>
                <use id="zoomminus" xlink:href="#zoomMin" x="42" y="9" onmousedown="handleZoom(evt,'out')"/>
                <use id="reset" xlink:href="#resetDef" x="30" y="36" onmousedown="handleReset()"/>
                <g id="arrowUp" xlink:href="#dirArrow" transform="translate(30 24)" onmousedown="handlePan(0,-1)">
                  <use xlink:href="#rim" fill="#404040">
                        <set attributeName="fill" to="#808080" begin="arrowUp.mouseover" end="arrowUp.mouseout"/>
                  </use>
                  <path fill="none" stroke="white" stroke-width="1.5" d="M0,-3.0v7 M-2.5,-0.5L0,-3.0L2.5,-0.5"/>
                </g>
                <g id="arrowRight" xlink:href="#dirArrow" transform="rotate(90) translate(36 -43)" onmousedown="handlePan(1,0)">
                  <use xlink:href="#rim" fill="#404040">
                        <set attributeName="fill" to="#808080" begin="arrowRight.mouseover" end="arrowRight.mouseout"/>
                  </use>
                  <path fill="none" stroke="white" stroke-width="1.5" d="M0,-3.0v7 M-2.5,-0.5L0,-3.0L2.5,-0.5"/>
                </g>
                <g id="arrowDown" xlink:href="#dirArrow" transform="rotate(180) translate(-30 -48)" onmousedown="handlePan(0,1)">
                  <use xlink:href="#rim" fill="#404040">
                        <set attributeName="fill" to="#808080" begin="arrowDown.mouseover" end="arrowDown.mouseout"/>
                  </use>
                  <path fill="none" stroke="white" stroke-width="1.5" d="M0,-3.0v7 M-2.5,-0.5L0,-3.0L2.5,-0.5"/>
                </g>
                <g id="arrowLeft" xlink:href="#dirArrow" transform="rotate(270) translate(-36 17)" onmousedown="handlePan(-1,0)">
                  <use xlink:href="#rim" fill="#404040">
                        <set attributeName="fill" to="#808080" begin="arrowLeft.mouseover" end="arrowLeft.mouseout"/>
                  </use>
                  <path fill="none" stroke="white" stroke-width="1.5" d="M0,-3.0v7 M-2.5,-0.5L0,-3.0L2.5,-0.5"/>
                </g>
        </g>
</svg>
