<?xml version="1.0" encoding="UTF-8" standalone="no"?>
<!DOCTYPE svg PUBLIC "-//W3C//DTD SVG 1.1//EN"
 "http://www.w3.org/Graphics/SVG/1.1/DTD/svg11.dtd">
<!-- Generated by graphviz version 2.28.0 (20111211.2114)
 -->
<!-- Title: G Pages: 1 -->
<svg width="174pt" height="96pt"
 viewBox="0.00 0.00 174.00 96.00" xmlns="http://www.w3.org/2000/svg" xmlns:xlink="http://www.w3.org/1999/xlink">
<g id="graph1" class="graph" transform="scale(1 1) rotate(0) translate(4 92)">
<title>G</title>
<!-- Node1 -->
<g id="node1" class="node"><title>Node1</title>
<polygon fill="#bfbfbf" stroke="black" points="0,-68.5 0,-87.5 74,-87.5 74,-68.5 0,-68.5"/>
<text text-anchor="middle" x="37" y="-75.5" font-family="Helvetica,sans-Serif" font-size="10.00">fr_event_fd_t</text>
</g>
<!-- Node2 -->
<g id="node2" class="node"><title>Node2</title>
<a xlink:href="structfr__event__list__t.html" target="_top" xlink:title="fr_event_list_t">
<polygon fill="none" stroke="black" points="41,-0.5 41,-19.5 119,-19.5 119,-0.5 41,-0.5"/>
<text text-anchor="middle" x="80" y="-7.5" font-family="Helvetica,sans-Serif" font-size="10.00">fr_event_list_t</text>
</a>
</g>
<!-- Node1&#45;&gt;Node2 -->
<g id="edge6" class="edge"><title>Node1&#45;&gt;Node2</title>
<path fill="none" stroke="#9a32cd" stroke-dasharray="5,2" d="M21.0384,-60.1153C16.3127,-53.0584 13.4724,-44.91 18,-38 23.5979,-29.4566 32.5516,-23.6017 41.9336,-19.5946"/>
<polygon fill="#9a32cd" stroke="#9a32cd" points="18.6241,-62.698 27.6198,-68.2951 24.0779,-58.3098 18.6241,-62.698"/>
<text text-anchor="middle" x="36" y="-41.5" font-family="Helvetica,sans-Serif" font-size="10.00"> readers</text>
</g>
<!-- Node2&#45;&gt;Node1 -->
<g id="edge2" class="edge"><title>Node2&#45;&gt;Node1</title>
<path fill="none" stroke="#9a32cd" stroke-dasharray="5,2" d="M70.768,-28.6439C67.0208,-35.4513 62.5151,-43.2174 58,-50 53.7879,-56.3274 48.5379,-63.0774 44.3409,-68.2456"/>
<polygon fill="#9a32cd" stroke="#9a32cd" points="73.9858,-30.0493 75.628,-19.5825 67.817,-26.7407 73.9858,-30.0493"/>
<text text-anchor="middle" x="83.5" y="-41.5" font-family="Helvetica,sans-Serif" font-size="10.00"> handler</text>
</g>
<!-- Node3 -->
<g id="node4" class="node"><title>Node3</title>
<a xlink:href="structfr__heap__t.html" target="_top" xlink:title="fr_heap_t">
<polygon fill="none" stroke="black" points="109.5,-68.5 109.5,-87.5 166.5,-87.5 166.5,-68.5 109.5,-68.5"/>
<text text-anchor="middle" x="138" y="-75.5" font-family="Helvetica,sans-Serif" font-size="10.00">fr_heap_t</text>
</a>
</g>
<!-- Node3&#45;&gt;Node2 -->
<g id="edge4" class="edge"><title>Node3&#45;&gt;Node2</title>
<path fill="none" stroke="#9a32cd" stroke-dasharray="5,2" d="M124.076,-60.2126C118.251,-53.2762 111.366,-45.1911 105,-38 99.5799,-31.8773 93.3299,-25.1273 88.4349,-19.908"/>
<polygon fill="#9a32cd" stroke="#9a32cd" points="121.674,-62.7972 130.77,-68.2305 127.048,-58.311 121.674,-62.7972"/>
<text text-anchor="middle" x="130" y="-41.5" font-family="Helvetica,sans-Serif" font-size="10.00"> times</text>
</g>
</g>
</svg>
