<?xml version="1.0" encoding="UTF-8" standalone="no"?>
<!DOCTYPE svg PUBLIC "-//W3C//DTD SVG 1.1//EN"
 "http://www.w3.org/Graphics/SVG/1.1/DTD/svg11.dtd">
<!-- Generated by graphviz version 2.28.0 (20111211.2114)
 -->
<!-- Title: G Pages: 1 -->
<!--zoomable-->
<svg id="main" version="1.1" xmlns="http://www.w3.org/2000/svg" xmlns:xlink="http://www.w3.org/1999/xlink" xml:space="preserve" onload="init(evt)">
        <defs>
                <circle id="rim" cx="0" cy="0" r="7"/>
                <circle id="rim2" cx="0" cy="0" r="3.5"/>
                <g id="zoomPlus">
                        <use xlink:href="#rim" fill="#404040">
                                <set attributeName="fill" to="#808080" begin="zoomplus.mouseover" end="zoomplus.mouseout"/>
                        </use>
                        <path d="M-4,0h8M0,-4v8" fill="none" stroke="white" stroke-width="1.5" pointer-events="none"/>
                </g>
                <g id="zoomMin">
                        <use xlink:href="#rim" fill="#404040">
                                <set attributeName="fill" to="#808080" begin="zoomminus.mouseover" end="zoomminus.mouseout"/>
                        </use>
                        <path d="M-4,0h8" fill="none" stroke="white" stroke-width="1.5" pointer-events="none"/>
                </g>
                <g id="dirArrow">
                        <path fill="none" stroke="white" stroke-width="1.5" d="M0,-3.0v7 M-2.5,-0.5L0,-3.0L2.5,-0.5"/>
                </g>
               <g id="resetDef">
                       <use xlink:href="#rim2" fill="#404040">
                               <set attributeName="fill" to="#808080" begin="reset.mouseover" end="reset.mouseout"/>
                       </use>
               </g>
        </defs>

<script type="text/javascript">
var viewWidth = 1458;
var viewHeight = 732;
var sectionId = 'dynsection-0';
</script>
<script xlink:href="svgpan.js"/>
<svg id="graph" class="graph">
<g id="viewport">
<title>G</title>
<!-- Node1 -->
<g id="node1" class="node"><title>Node1</title>
<polygon fill="#bfbfbf" stroke="black" points="1200.5,-664.5 1200.5,-683.5 1289.5,-683.5 1289.5,-664.5 1200.5,-664.5"/>
<text text-anchor="middle" x="1245" y="-671.5" font-family="Helvetica,sans-Serif" font-size="10.00">fr_module_hup_t</text>
</g>
<!-- Node1&#45;&gt;Node1 -->
<g id="edge100" class="edge"><title>Node1&#45;&gt;Node1</title>
<path fill="none" stroke="#9a32cd" stroke-dasharray="5,2" d="M1231,-693.766C1232.1,-698.497 1236.77,-702 1245,-702 1258.51,-702 1262.41,-692.565 1256.71,-683.757"/>
<polygon fill="#9a32cd" stroke="#9a32cd" points="1234.48,-694.285 1233.29,-683.757 1227.65,-692.729 1234.48,-694.285"/>
<text text-anchor="middle" x="1245" y="-705" font-family="Helvetica,sans-Serif" font-size="10.00"> next</text>
</g>
<!-- Node2 -->
<g id="node2" class="node"><title>Node2</title>
<a xlink:href="structmodule__instance__t.html" target="_top" xlink:title="module_instance_t">
<polygon fill="none" stroke="black" points="1352,-628.5 1352,-647.5 1450,-647.5 1450,-628.5 1352,-628.5"/>
<text text-anchor="middle" x="1401" y="-635.5" font-family="Helvetica,sans-Serif" font-size="10.00">module_instance_t</text>
</a>
</g>
<!-- Node1&#45;&gt;Node2 -->
<g id="edge98" class="edge"><title>Node1&#45;&gt;Node2</title>
<path fill="none" stroke="#9a32cd" stroke-dasharray="5,2" d="M1300.11,-672.559C1311.42,-671.462 1323.19,-669.722 1334,-667 1351.23,-662.66 1369.66,-654.212 1382.65,-647.549"/>
<polygon fill="#9a32cd" stroke="#9a32cd" points="1299.57,-669.092 1289.89,-673.395 1300.14,-676.068 1299.57,-669.092"/>
<text text-anchor="middle" x="1321" y="-674" font-family="Helvetica,sans-Serif" font-size="10.00"> mh</text>
</g>
<!-- Node2&#45;&gt;Node1 -->
<g id="edge2" class="edge"><title>Node2&#45;&gt;Node1</title>
<path fill="none" stroke="#9a32cd" stroke-dasharray="5,2" d="M1341.5,-648.631C1330.34,-650.889 1318.78,-653.387 1308,-656 1297.76,-658.483 1286.68,-661.569 1276.76,-664.481"/>
<polygon fill="#9a32cd" stroke="#9a32cd" points="1342.47,-652.006 1351.6,-646.628 1341.11,-645.14 1342.47,-652.006"/>
<text text-anchor="middle" x="1321" y="-659" font-family="Helvetica,sans-Serif" font-size="10.00"> mi</text>
</g>
<!-- Node3 -->
<g id="node4" class="node"><title>Node3</title>
<a xlink:href="structconf__part.html" target="_top" xlink:title="conf_part">
<polygon fill="none" stroke="black" points="314.5,-540.5 314.5,-559.5 371.5,-559.5 371.5,-540.5 314.5,-540.5"/>
<text text-anchor="middle" x="343" y="-547.5" font-family="Helvetica,sans-Serif" font-size="10.00">conf_part</text>
</a>
</g>
<!-- Node3&#45;&gt;Node2 -->
<g id="edge4" class="edge"><title>Node3&#45;&gt;Node2</title>
<path fill="none" stroke="#9a32cd" stroke-dasharray="5,2" d="M364.431,-565.79C393.956,-586.983 451.052,-622 506,-622 506,-622 506,-622 1246,-622 1281.62,-622 1321.62,-626.286 1351.93,-630.422"/>
<polygon fill="#9a32cd" stroke="#9a32cd" points="366.312,-562.828 356.186,-559.71 362.158,-568.462 366.312,-562.828"/>
<text text-anchor="middle" x="908" y="-625" font-family="Helvetica,sans-Serif" font-size="10.00"> cs</text>
</g>
<!-- Node3&#45;&gt;Node3 -->
<g id="edge6" class="edge"><title>Node3&#45;&gt;Node3</title>
<path fill="none" stroke="#9a32cd" stroke-dasharray="5,2" d="M327.075,-569.4C328.138,-574.315 333.447,-578 343,-578 358.285,-578 362.704,-568.565 356.255,-559.757"/>
<polygon fill="#9a32cd" stroke="#9a32cd" points="330.449,-570.328 329.745,-559.757 323.703,-568.46 330.449,-570.328"/>
<text text-anchor="middle" x="343" y="-581" font-family="Helvetica,sans-Serif" font-size="10.00"> template</text>
</g>
<!-- Node4 -->
<g id="node7" class="node"><title>Node4</title>
<a xlink:href="structconf__item.html" target="_top" xlink:title="conf_item">
<polygon fill="none" stroke="black" points="477.5,-675.5 477.5,-694.5 536.5,-694.5 536.5,-675.5 477.5,-675.5"/>
<text text-anchor="middle" x="507" y="-682.5" font-family="Helvetica,sans-Serif" font-size="10.00">conf_item</text>
</a>
</g>
<!-- Node3&#45;&gt;Node4 -->
<g id="edge10" class="edge"><title>Node3&#45;&gt;Node4</title>
<path fill="none" stroke="#9a32cd" stroke-dasharray="5,2" d="M346.18,-569.876C350.838,-601.485 364.938,-662.354 406,-689 426.988,-702.62 456.005,-699.652 477.378,-694.448"/>
<polygon fill="#9a32cd" stroke="#9a32cd" points="349.614,-569.14 344.859,-559.672 342.672,-570.039 349.614,-569.14"/>
<text text-anchor="middle" x="429" y="-701" font-family="Helvetica,sans-Serif" font-size="10.00"> parent</text>
</g>
<!-- Node11 -->
<g id="node24" class="node"><title>Node11</title>
<a xlink:href="structradclient.html" target="_top" xlink:title="radclient">
<polygon fill="none" stroke="black" points="808.5,-272.5 808.5,-291.5 861.5,-291.5 861.5,-272.5 808.5,-272.5"/>
<text text-anchor="middle" x="835" y="-279.5" font-family="Helvetica,sans-Serif" font-size="10.00">radclient</text>
</a>
</g>
<!-- Node3&#45;&gt;Node11 -->
<g id="edge52" class="edge"><title>Node3&#45;&gt;Node11</title>
<path fill="none" stroke="#9a32cd" stroke-dasharray="5,2" d="M358.261,-532.732C379.918,-507.565 423.523,-460.889 470,-434 478.012,-429.365 732.225,-324.099 810.977,-291.521"/>
<polygon fill="#9a32cd" stroke="#9a32cd" points="355.575,-530.488 351.785,-540.382 360.918,-535.011 355.575,-530.488"/>
<text text-anchor="middle" x="581" y="-398" font-family="Helvetica,sans-Serif" font-size="10.00"> cs</text>
</g>
<!-- Node12 -->
<g id="node26" class="node"><title>Node12</title>
<a xlink:href="structhome__pool__t.html" target="_top" xlink:title="home_pool_t">
<polygon fill="none" stroke="black" points="621,-257.5 621,-276.5 693,-276.5 693,-257.5 621,-257.5"/>
<text text-anchor="middle" x="657" y="-264.5" font-family="Helvetica,sans-Serif" font-size="10.00">home_pool_t</text>
</a>
</g>
<!-- Node3&#45;&gt;Node12 -->
<g id="edge46" class="edge"><title>Node3&#45;&gt;Node12</title>
<path fill="none" stroke="#9a32cd" stroke-dasharray="5,2" d="M347.944,-530.198C354.938,-499.42 372.087,-439.63 406,-401 468.222,-330.123 518.842,-363.048 600,-315 618.291,-304.171 636.407,-287.203 646.885,-276.611"/>
<polygon fill="#9a32cd" stroke="#9a32cd" points="344.488,-529.621 345.814,-540.132 351.332,-531.088 344.488,-529.621"/>
<text text-anchor="middle" x="507" y="-359" font-family="Helvetica,sans-Serif" font-size="10.00"> cs</text>
</g>
<!-- Node13 -->
<g id="node28" class="node"><title>Node13</title>
<a xlink:href="structhome__server.html" target="_top" xlink:title="home_server">
<polygon fill="none" stroke="black" points="470.5,-215.5 470.5,-234.5 543.5,-234.5 543.5,-215.5 470.5,-215.5"/>
<text text-anchor="middle" x="507" y="-222.5" font-family="Helvetica,sans-Serif" font-size="10.00">home_server</text>
</a>
</g>
<!-- Node3&#45;&gt;Node13 -->
<g id="edge34" class="edge"><title>Node3&#45;&gt;Node13</title>
<path fill="none" stroke="#9a32cd" stroke-dasharray="5,2" d="M345.513,-530.373C349.508,-488.382 363.166,-387.885 406,-317 417.957,-297.213 470.223,-253.796 494.066,-234.531"/>
<polygon fill="#9a32cd" stroke="#9a32cd" points="342.023,-530.114 344.643,-540.38 348.996,-530.721 342.023,-530.114"/>
<text text-anchor="middle" x="429" y="-320" font-family="Helvetica,sans-Serif" font-size="10.00"> cs</text>
</g>
<!-- Node18 -->
<g id="node45" class="node"><title>Node18</title>
<a xlink:href="structmain__config__t.html" target="_top" xlink:title="main_config_t">
<polygon fill="none" stroke="black" points="618.5,-447.5 618.5,-466.5 695.5,-466.5 695.5,-447.5 618.5,-447.5"/>
<text text-anchor="middle" x="657" y="-454.5" font-family="Helvetica,sans-Serif" font-size="10.00">main_config_t</text>
</a>
</g>
<!-- Node3&#45;&gt;Node18 -->
<g id="edge64" class="edge"><title>Node3&#45;&gt;Node18</title>
<path fill="none" stroke="#9a32cd" stroke-dasharray="5,2" d="M381.517,-559.426C422.794,-567.934 490.391,-576.297 544,-556 592.541,-537.622 633.596,-487.535 649.235,-466.501"/>
<polygon fill="#9a32cd" stroke="#9a32cd" points="382.129,-555.978 371.614,-557.278 380.644,-562.819 382.129,-555.978"/>
<text text-anchor="middle" x="507" y="-571" font-family="Helvetica,sans-Serif" font-size="10.00"> config</text>
</g>
<!-- Node19 -->
<g id="node47" class="node"><title>Node19</title>
<a xlink:href="structrad__listen__t.html" target="_top" xlink:title="rad_listen_t">
<polygon fill="none" stroke="black" points="473.5,-443.5 473.5,-462.5 540.5,-462.5 540.5,-443.5 473.5,-443.5"/>
<text text-anchor="middle" x="507" y="-450.5" font-family="Helvetica,sans-Serif" font-size="10.00">rad_listen_t</text>
</a>
</g>
<!-- Node3&#45;&gt;Node19 -->
<g id="edge62" class="edge"><title>Node3&#45;&gt;Node19</title>
<path fill="none" stroke="#9a32cd" stroke-dasharray="5,2" d="M368.898,-535.092C402.553,-514.941 461.603,-479.583 489.94,-462.616"/>
<polygon fill="#9a32cd" stroke="#9a32cd" points="366.907,-532.205 360.125,-540.345 370.503,-538.21 366.907,-532.205"/>
<text text-anchor="middle" x="429" y="-513" font-family="Helvetica,sans-Serif" font-size="10.00"> cs</text>
</g>
<!-- Node4&#45;&gt;Node3 -->
<g id="edge8" class="edge"><title>Node4&#45;&gt;Node3</title>
<path fill="none" stroke="#9a32cd" stroke-dasharray="5,2" d="M479.568,-670.607C470.822,-665.897 461.019,-660.675 452,-656 431.707,-645.481 423.535,-647.663 406,-633 379.922,-611.193 358.556,-576.346 349.159,-559.599"/>
<polygon fill="#9a32cd" stroke="#9a32cd" points="478.097,-673.79 488.558,-675.467 481.426,-667.632 478.097,-673.79"/>
<text text-anchor="middle" x="429" y="-681" font-family="Helvetica,sans-Serif" font-size="10.00"> tail</text>
<text text-anchor="middle" x="429" y="-670" font-family="Helvetica,sans-Serif" font-size="10.00">item</text>
<text text-anchor="middle" x="429" y="-659" font-family="Helvetica,sans-Serif" font-size="10.00">children</text>
</g>
<!-- Node4&#45;&gt;Node4 -->
<g id="edge12" class="edge"><title>Node4&#45;&gt;Node4</title>
<path fill="none" stroke="#9a32cd" stroke-dasharray="5,2" d="M493.372,-704.766C494.443,-709.497 498.985,-713 507,-713 520.152,-713 523.954,-703.565 518.406,-694.757"/>
<polygon fill="#9a32cd" stroke="#9a32cd" points="496.844,-705.278 495.594,-694.757 490.01,-703.761 496.844,-705.278"/>
<text text-anchor="middle" x="507" y="-716" font-family="Helvetica,sans-Serif" font-size="10.00"> next</text>
</g>
<!-- Node5 -->
<g id="node11" class="node"><title>Node5</title>
<a xlink:href="structCONF__PARSER.html" target="_top" xlink:title="CONF_PARSER">
<polygon fill="none" stroke="black" points="116,-573.5 116,-592.5 208,-592.5 208,-573.5 116,-573.5"/>
<text text-anchor="middle" x="162" y="-580.5" font-family="Helvetica,sans-Serif" font-size="10.00">CONF_PARSER</text>
</a>
</g>
<!-- Node5&#45;&gt;Node3 -->
<g id="edge14" class="edge"><title>Node5&#45;&gt;Node3</title>
<path fill="none" stroke="#9a32cd" stroke-dasharray="5,2" d="M218.261,-572.812C250.16,-566.931 288.893,-559.791 314.43,-555.083"/>
<polygon fill="#9a32cd" stroke="#9a32cd" points="217.369,-569.418 208.169,-574.673 218.638,-576.302 217.369,-569.418"/>
<text text-anchor="middle" x="253" y="-574" font-family="Helvetica,sans-Serif" font-size="10.00"> variables</text>
</g>
<!-- Node6 -->
<g id="node13" class="node"><title>Node6</title>
<a xlink:href="structrbtree__t.html" target="_top" xlink:title="rbtree_t">
<polygon fill="none" stroke="black" points="137,-506.5 137,-525.5 187,-525.5 187,-506.5 137,-506.5"/>
<text text-anchor="middle" x="162" y="-513.5" font-family="Helvetica,sans-Serif" font-size="10.00">rbtree_t</text>
</a>
</g>
<!-- Node6&#45;&gt;Node3 -->
<g id="edge16" class="edge"><title>Node6&#45;&gt;Node3</title>
<path fill="none" stroke="#9a32cd" stroke-dasharray="5,2" d="M197.17,-509.957C220.848,-507.012 252.869,-505.52 280,-513 299.093,-518.264 318.235,-531.124 330.093,-540.199"/>
<polygon fill="#9a32cd" stroke="#9a32cd" points="196.672,-506.493 187.249,-511.336 197.636,-513.426 196.672,-506.493"/>
<text text-anchor="middle" x="253" y="-549" font-family="Helvetica,sans-Serif" font-size="10.00"> data_tree</text>
<text text-anchor="middle" x="253" y="-538" font-family="Helvetica,sans-Serif" font-size="10.00">name2_tree</text>
<text text-anchor="middle" x="253" y="-527" font-family="Helvetica,sans-Serif" font-size="10.00">section_tree</text>
<text text-anchor="middle" x="253" y="-516" font-family="Helvetica,sans-Serif" font-size="10.00">pair_tree</text>
</g>
<!-- Node7 -->
<g id="node15" class="node"><title>Node7</title>
<a xlink:href="structrbnode__t.html" target="_top" xlink:title="rbnode_t">
<polygon fill="none" stroke="black" points="0,-506.5 0,-525.5 54,-525.5 54,-506.5 0,-506.5"/>
<text text-anchor="middle" x="27" y="-513.5" font-family="Helvetica,sans-Serif" font-size="10.00">rbnode_t</text>
</a>
</g>
<!-- Node7&#45;&gt;Node6 -->
<g id="edge18" class="edge"><title>Node7&#45;&gt;Node6</title>
<path fill="none" stroke="#9a32cd" stroke-dasharray="5,2" d="M64.3432,-516C87.3013,-516 116.343,-516 136.572,-516"/>
<polygon fill="#9a32cd" stroke="#9a32cd" points="64.2766,-512.5 54.2765,-516 64.2765,-519.5 64.2766,-512.5"/>
<text text-anchor="middle" x="85" y="-519" font-family="Helvetica,sans-Serif" font-size="10.00"> Root</text>
</g>
<!-- Node7&#45;&gt;Node7 -->
<g id="edge20" class="edge"><title>Node7&#45;&gt;Node7</title>
<path fill="none" stroke="#9a32cd" stroke-dasharray="5,2" d="M16.3189,-535.766C17.1578,-540.497 20.7182,-544 27,-544 37.3086,-544 40.2884,-534.565 35.9395,-525.757"/>
<polygon fill="#9a32cd" stroke="#9a32cd" points="19.7944,-536.209 18.0605,-525.757 12.898,-535.009 19.7944,-536.209"/>
<text text-anchor="middle" x="27" y="-569" font-family="Helvetica,sans-Serif" font-size="10.00"> Left</text>
<text text-anchor="middle" x="27" y="-558" font-family="Helvetica,sans-Serif" font-size="10.00">Right</text>
<text text-anchor="middle" x="27" y="-547" font-family="Helvetica,sans-Serif" font-size="10.00">Parent</text>
</g>
<!-- Node8 -->
<g id="node18" class="node"><title>Node8</title>
<a xlink:href="structmodule__entry__t.html" target="_top" xlink:title="module_entry_t">
<polygon fill="none" stroke="black" points="1203.5,-557.5 1203.5,-576.5 1286.5,-576.5 1286.5,-557.5 1203.5,-557.5"/>
<text text-anchor="middle" x="1245" y="-564.5" font-family="Helvetica,sans-Serif" font-size="10.00">module_entry_t</text>
</a>
</g>
<!-- Node8&#45;&gt;Node2 -->
<g id="edge22" class="edge"><title>Node8&#45;&gt;Node2</title>
<path fill="none" stroke="#9a32cd" stroke-dasharray="5,2" d="M1289.44,-579.635C1303.89,-584.408 1319.89,-590.321 1334,-597 1353.02,-606.005 1373.37,-619.26 1386.36,-628.242"/>
<polygon fill="#9a32cd" stroke="#9a32cd" points="1290.31,-576.239 1279.72,-576.517 1288.17,-582.905 1290.31,-576.239"/>
<text text-anchor="middle" x="1321" y="-600" font-family="Helvetica,sans-Serif" font-size="10.00"> entry</text>
</g>
<!-- Node9 -->
<g id="node20" class="node"><title>Node9</title>
<a xlink:href="structmodule__t.html" target="_top" xlink:title="module_t">
<polygon fill="none" stroke="black" points="1072,-506.5 1072,-525.5 1128,-525.5 1128,-506.5 1072,-506.5"/>
<text text-anchor="middle" x="1100" y="-513.5" font-family="Helvetica,sans-Serif" font-size="10.00">module_t</text>
</a>
</g>
<!-- Node9&#45;&gt;Node8 -->
<g id="edge24" class="edge"><title>Node9&#45;&gt;Node8</title>
<path fill="none" stroke="#9a32cd" stroke-dasharray="5,2" d="M1137.37,-528.97C1162.25,-537.844 1194.69,-549.413 1217.22,-557.45"/>
<polygon fill="#9a32cd" stroke="#9a32cd" points="1138.49,-525.655 1127.9,-525.593 1136.14,-532.249 1138.49,-525.655"/>
<text text-anchor="middle" x="1164" y="-547" font-family="Helvetica,sans-Serif" font-size="10.00"> module</text>
</g>
<!-- Node10 -->
<g id="node22" class="node"><title>Node10</title>
<a xlink:href="structauth__req.html" target="_top" xlink:title="auth_req">
<polygon fill="none" stroke="black" points="940,-301.5 940,-320.5 994,-320.5 994,-301.5 940,-301.5"/>
<text text-anchor="middle" x="967" y="-308.5" font-family="Helvetica,sans-Serif" font-size="10.00">auth_req</text>
</a>
</g>
<!-- Node10&#45;&gt;Node9 -->
<g id="edge26" class="edge"><title>Node10&#45;&gt;Node9</title>
<path fill="none" stroke="#9a32cd" stroke-dasharray="5,2" d="M979.685,-329.286C1006.58,-371.379 1072.15,-473.978 1092.72,-506.17"/>
<polygon fill="#9a32cd" stroke="#9a32cd" points="982.477,-327.154 974.143,-320.613 976.578,-330.924 982.477,-327.154"/>
<text text-anchor="middle" x="1033" y="-446" font-family="Helvetica,sans-Serif" font-size="10.00"> methods</text>
</g>
<!-- Node10&#45;&gt;Node10 -->
<g id="edge84" class="edge"><title>Node10&#45;&gt;Node10</title>
<path fill="none" stroke="#9a32cd" stroke-dasharray="5,2" d="M956.319,-330.766C957.158,-335.497 960.718,-339 967,-339 977.309,-339 980.288,-329.565 975.939,-320.757"/>
<polygon fill="#9a32cd" stroke="#9a32cd" points="959.794,-331.209 958.061,-320.757 952.898,-330.009 959.794,-331.209"/>
<text text-anchor="middle" x="967" y="-386" font-family="Helvetica,sans-Serif" font-size="10.00"> coa</text>
<text text-anchor="middle" x="967" y="-375" font-family="Helvetica,sans-Serif" font-size="10.00">radlog</text>
<text text-anchor="middle" x="967" y="-364" font-family="Helvetica,sans-Serif" font-size="10.00">handle</text>
<text text-anchor="middle" x="967" y="-353" font-family="Helvetica,sans-Serif" font-size="10.00">parent</text>
<text text-anchor="middle" x="967" y="-342" font-family="Helvetica,sans-Serif" font-size="10.00">process</text>
</g>
<!-- Node11&#45;&gt;Node10 -->
<g id="edge28" class="edge"><title>Node11&#45;&gt;Node10</title>
<path fill="none" stroke="#9a32cd" stroke-dasharray="5,2" d="M871.491,-289.917C893.118,-294.742 920.277,-300.8 939.925,-305.183"/>
<polygon fill="#9a32cd" stroke="#9a32cd" points="872.206,-286.491 861.684,-287.729 870.682,-293.323 872.206,-286.491"/>
<text text-anchor="middle" x="908" y="-304" font-family="Helvetica,sans-Serif" font-size="10.00"> client</text>
</g>
<!-- Node12&#45;&gt;Node10 -->
<g id="edge86" class="edge"><title>Node12&#45;&gt;Node10</title>
<path fill="none" stroke="#9a32cd" stroke-dasharray="5,2" d="M685.326,-281.084C694.263,-285.175 704.371,-289.271 714,-292 791.649,-314.01 813.469,-310.655 894,-316 906.417,-316.824 909.575,-316.704 922,-316 927.834,-315.67 934.081,-315.095 939.983,-314.45"/>
<polygon fill="#9a32cd" stroke="#9a32cd" points="686.699,-277.861 676.166,-276.713 683.683,-284.179 686.699,-277.861"/>
<text text-anchor="middle" x="835" y="-318" font-family="Helvetica,sans-Serif" font-size="10.00"> home_pool</text>
</g>
<!-- Node12&#45;&gt;Node11 -->
<g id="edge30" class="edge"><title>Node12&#45;&gt;Node11</title>
<path fill="none" stroke="#9a32cd" stroke-dasharray="5,2" d="M703.167,-270.849C736.528,-273.693 780.751,-277.462 808.284,-279.808"/>
<polygon fill="#9a32cd" stroke="#9a32cd" points="703.454,-267.361 693.193,-269.999 702.86,-274.336 703.454,-267.361"/>
<text text-anchor="middle" x="745" y="-280" font-family="Helvetica,sans-Serif" font-size="10.00"> coa_pool</text>
</g>
<!-- Node13&#45;&gt;Node10 -->
<g id="edge88" class="edge"><title>Node13&#45;&gt;Node10</title>
<path fill="none" stroke="#9a32cd" stroke-dasharray="5,2" d="M553.784,-221.373C556.563,-221.226 559.318,-221.099 562,-221 578.877,-220.376 583.113,-220.736 600,-221 678.258,-222.222 699.163,-212.102 776,-227 822.373,-235.992 832.826,-243.836 876,-263 902.544,-274.783 932.015,-291.168 949.768,-301.423"/>
<polygon fill="#9a32cd" stroke="#9a32cd" points="553.478,-217.885 543.707,-221.981 553.9,-224.872 553.478,-217.885"/>
<text text-anchor="middle" x="745" y="-230" font-family="Helvetica,sans-Serif" font-size="10.00"> home_server</text>
</g>
<!-- Node13&#45;&gt;Node11 -->
<g id="edge48" class="edge"><title>Node13&#45;&gt;Node11</title>
<path fill="none" stroke="#9a32cd" stroke-dasharray="5,2" d="M553.998,-224.726C592.312,-225.263 648.144,-227.822 696,-237 737.331,-244.926 783.464,-261.661 810.546,-272.339"/>
<polygon fill="#9a32cd" stroke="#9a32cd" points="553.712,-221.224 543.678,-224.625 553.643,-228.223 553.712,-221.224"/>
<text text-anchor="middle" x="657" y="-240" font-family="Helvetica,sans-Serif" font-size="10.00"> coa_server</text>
</g>
<!-- Node13&#45;&gt;Node12 -->
<g id="edge32" class="edge"><title>Node13&#45;&gt;Node12</title>
<path fill="none" stroke="#9a32cd" stroke-dasharray="5,2" d="M551.294,-237.286C573.938,-243.712 601.245,-251.461 622.294,-257.435"/>
<polygon fill="#9a32cd" stroke="#9a32cd" points="552.159,-233.894 541.583,-234.53 550.248,-240.628 552.159,-233.894"/>
<text text-anchor="middle" x="581" y="-265" font-family="Helvetica,sans-Serif" font-size="10.00"> fallback</text>
<text text-anchor="middle" x="581" y="-254" font-family="Helvetica,sans-Serif" font-size="10.00">servers</text>
</g>
<!-- Node14 -->
<g id="node31" class="node"><title>Node14</title>
<a xlink:href="structfr__socket__limit__t.html" target="_top" xlink:title="fr_socket_limit_t">
<polygon fill="none" stroke="black" points="298.5,-260.5 298.5,-279.5 387.5,-279.5 387.5,-260.5 298.5,-260.5"/>
<text text-anchor="middle" x="343" y="-267.5" font-family="Helvetica,sans-Serif" font-size="10.00">fr_socket_limit_t</text>
</a>
</g>
<!-- Node14&#45;&gt;Node11 -->
<g id="edge50" class="edge"><title>Node14&#45;&gt;Node11</title>
<path fill="none" stroke="#9a32cd" stroke-dasharray="5,2" d="M397.711,-274.085C469.666,-279.319 601.356,-288.069 714,-291 741.546,-291.717 748.526,-293.119 776,-291 786.668,-290.177 798.342,-288.515 808.402,-286.841"/>
<polygon fill="#9a32cd" stroke="#9a32cd" points="397.767,-270.579 387.538,-273.339 397.255,-277.561 397.767,-270.579"/>
<text text-anchor="middle" x="581" y="-290" font-family="Helvetica,sans-Serif" font-size="10.00"> limit</text>
</g>
<!-- Node14&#45;&gt;Node13 -->
<g id="edge36" class="edge"><title>Node14&#45;&gt;Node13</title>
<path fill="none" stroke="#9a32cd" stroke-dasharray="5,2" d="M388.086,-257.754C414.401,-250.444 447.327,-241.298 471.693,-234.53"/>
<polygon fill="#9a32cd" stroke="#9a32cd" points="387.054,-254.408 378.356,-260.457 388.928,-261.152 387.054,-254.408"/>
<text text-anchor="middle" x="429" y="-255" font-family="Helvetica,sans-Serif" font-size="10.00"> limit</text>
</g>
<!-- Node15 -->
<g id="node33" class="node"><title>Node15</title>
<a xlink:href="structfr__event__t.html" target="_top" xlink:title="fr_event_t">
<polygon fill="none" stroke="black" points="313,-98.5 313,-117.5 373,-117.5 373,-98.5 313,-98.5"/>
<text text-anchor="middle" x="343" y="-105.5" font-family="Helvetica,sans-Serif" font-size="10.00">fr_event_t</text>
</a>
</g>
<!-- Node15&#45;&gt;Node10 -->
<g id="edge92" class="edge"><title>Node15&#45;&gt;Node10</title>
<path fill="none" stroke="#9a32cd" stroke-dasharray="5,2" d="M383.106,-98.308C423.68,-89.7331 488.8,-80.1322 544,-91 700.453,-121.802 740.764,-142.517 876,-227 910.441,-248.516 943.334,-284.365 958.006,-301.419"/>
<polygon fill="#9a32cd" stroke="#9a32cd" points="382.106,-94.9441 373.091,-100.51 383.609,-101.781 382.106,-94.9441"/>
<text text-anchor="middle" x="657" y="-133" font-family="Helvetica,sans-Serif" font-size="10.00"> ev</text>
</g>
<!-- Node15&#45;&gt;Node13 -->
<g id="edge38" class="edge"><title>Node15&#45;&gt;Node13</title>
<path fill="none" stroke="#9a32cd" stroke-dasharray="5,2" d="M366.871,-123.356C388.906,-138.274 423.066,-161.725 452,-183 466.736,-193.835 483.284,-206.833 494.131,-215.471"/>
<polygon fill="#9a32cd" stroke="#9a32cd" points="368.746,-120.399 358.5,-117.704 364.829,-126.201 368.746,-120.399"/>
<text text-anchor="middle" x="429" y="-186" font-family="Helvetica,sans-Serif" font-size="10.00"> ev</text>
</g>
<!-- Node15&#45;&gt;Node15 -->
<g id="edge40" class="edge"><title>Node15&#45;&gt;Node15</title>
<path fill="none" stroke="#9a32cd" stroke-dasharray="5,2" d="M327.075,-127.4C328.138,-132.315 333.447,-136 343,-136 358.285,-136 362.704,-126.565 356.255,-117.757"/>
<polygon fill="#9a32cd" stroke="#9a32cd" points="330.449,-128.328 329.745,-117.757 323.703,-126.46 330.449,-128.328"/>
<text text-anchor="middle" x="343" y="-139" font-family="Helvetica,sans-Serif" font-size="10.00"> ev_p</text>
</g>
<!-- Node16 -->
<g id="node36" class="node"><title>Node16</title>
<a xlink:href="structfr__ipaddr__t.html" target="_top" xlink:title="fr_ipaddr_t">
<polygon fill="none" stroke="black" points="312,-169.5 312,-188.5 374,-188.5 374,-169.5 312,-169.5"/>
<text text-anchor="middle" x="343" y="-176.5" font-family="Helvetica,sans-Serif" font-size="10.00">fr_ipaddr_t</text>
</a>
</g>
<!-- Node16&#45;&gt;Node11 -->
<g id="edge54" class="edge"><title>Node16&#45;&gt;Node11</title>
<path fill="none" stroke="#9a32cd" stroke-dasharray="5,2" d="M384.169,-172.956C463.807,-162.934 645.299,-149.997 776,-216 801.054,-228.652 820.056,-257.213 828.762,-272.277"/>
<polygon fill="#9a32cd" stroke="#9a32cd" points="383.531,-169.51 374.072,-174.281 384.442,-176.45 383.531,-169.51"/>
<text text-anchor="middle" x="581" y="-172" font-family="Helvetica,sans-Serif" font-size="10.00"> ipaddr</text>
</g>
<!-- Node16&#45;&gt;Node13 -->
<g id="edge42" class="edge"><title>Node16&#45;&gt;Node13</title>
<path fill="none" stroke="#9a32cd" stroke-dasharray="5,2" d="M384.06,-190.375C411.234,-198.091 446.749,-208.176 472.436,-215.469"/>
<polygon fill="#9a32cd" stroke="#9a32cd" points="384.667,-186.909 374.091,-187.544 382.755,-193.643 384.667,-186.909"/>
<text text-anchor="middle" x="429" y="-223" font-family="Helvetica,sans-Serif" font-size="10.00"> ipaddr</text>
<text text-anchor="middle" x="429" y="-212" font-family="Helvetica,sans-Serif" font-size="10.00">src_ipaddr</text>
</g>
<!-- Node16&#45;&gt;Node18 -->
<g id="edge66" class="edge"><title>Node16&#45;&gt;Node18</title>
<path fill="none" stroke="#9a32cd" stroke-dasharray="5,2" d="M357.286,-196.943C367.102,-210.996 380.084,-231.387 388,-251 401.802,-285.198 383.305,-302.932 406,-332 436.013,-370.44 573.014,-425.576 630.496,-447.493"/>
<polygon fill="#9a32cd" stroke="#9a32cd" points="360.047,-194.786 351.378,-188.695 354.356,-198.862 360.047,-194.786"/>
<text text-anchor="middle" x="507" y="-415" font-family="Helvetica,sans-Serif" font-size="10.00"> myip</text>
</g>
<!-- Node20 -->
<g id="node53" class="node"><title>Node20</title>
<a xlink:href="structradius__packet.html" target="_top" xlink:title="radius_packet">
<polygon fill="none" stroke="black" points="618.5,-45.5 618.5,-64.5 695.5,-64.5 695.5,-45.5 618.5,-45.5"/>
<text text-anchor="middle" x="657" y="-52.5" font-family="Helvetica,sans-Serif" font-size="10.00">radius_packet</text>
</a>
</g>
<!-- Node16&#45;&gt;Node20 -->
<g id="edge80" class="edge"><title>Node16&#45;&gt;Node20</title>
<path fill="none" stroke="#9a32cd" stroke-dasharray="5,2" d="M370.875,-164.773C381.669,-159.268 394.305,-153.082 406,-148 484.574,-113.859 580.142,-80.4949 627.109,-64.6143"/>
<polygon fill="#9a32cd" stroke="#9a32cd" points="369.212,-161.693 361.934,-169.391 372.425,-167.912 369.212,-161.693"/>
<text text-anchor="middle" x="507" y="-135" font-family="Helvetica,sans-Serif" font-size="10.00"> dst_ipaddr</text>
<text text-anchor="middle" x="507" y="-124" font-family="Helvetica,sans-Serif" font-size="10.00">src_ipaddr</text>
</g>
<!-- Node17 -->
<g id="node38" class="node"><title>Node17</title>
<a xlink:href="structin6__addr.html" target="_top" xlink:title="in6_addr">
<polygon fill="none" stroke="black" points="135.5,-117.5 135.5,-136.5 188.5,-136.5 188.5,-117.5 135.5,-117.5"/>
<text text-anchor="middle" x="162" y="-124.5" font-family="Helvetica,sans-Serif" font-size="10.00">in6_addr</text>
</a>
</g>
<!-- Node17&#45;&gt;Node16 -->
<g id="edge44" class="edge"><title>Node17&#45;&gt;Node16</title>
<path fill="none" stroke="#9a32cd" stroke-dasharray="5,2" d="M198.393,-137.282C231.559,-146.917 280.594,-161.161 311.918,-170.261"/>
<polygon fill="#9a32cd" stroke="#9a32cd" points="199.226,-133.879 188.646,-134.45 197.273,-140.601 199.226,-133.879"/>
<text text-anchor="middle" x="253" y="-164" font-family="Helvetica,sans-Serif" font-size="10.00"> ip6addr</text>
</g>
<!-- Node22 -->
<g id="node57" class="node"><title>Node22</title>
<a xlink:href="unionvalue__pair__data.html" target="_top" xlink:title="value_pair_data">
<polygon fill="none" stroke="black" points="300.5,-52.5 300.5,-71.5 385.5,-71.5 385.5,-52.5 300.5,-52.5"/>
<text text-anchor="middle" x="343" y="-59.5" font-family="Helvetica,sans-Serif" font-size="10.00">value_pair_data</text>
</a>
</g>
<!-- Node17&#45;&gt;Node22 -->
<g id="edge74" class="edge"><title>Node17&#45;&gt;Node22</title>
<path fill="none" stroke="#9a32cd" stroke-dasharray="5,2" d="M198.344,-114.165C232.922,-101.609 284.783,-82.7771 315.819,-71.507"/>
<polygon fill="#9a32cd" stroke="#9a32cd" points="196.851,-110.984 188.646,-117.687 199.24,-117.564 196.851,-110.984"/>
<text text-anchor="middle" x="253" y="-108" font-family="Helvetica,sans-Serif" font-size="10.00"> ipv6addr</text>
</g>
<!-- Node18&#45;&gt;Node10 -->
<g id="edge56" class="edge"><title>Node18&#45;&gt;Node10</title>
<path fill="none" stroke="#9a32cd" stroke-dasharray="5,2" d="M705.985,-456.953C772.793,-455.94 889.322,-450.442 922,-425 955.814,-398.674 963.66,-342.915 965.466,-320.563"/>
<polygon fill="#9a32cd" stroke="#9a32cd" points="705.666,-453.457 695.71,-457.079 705.752,-460.456 705.666,-453.457"/>
<text text-anchor="middle" x="835" y="-455" font-family="Helvetica,sans-Serif" font-size="10.00"> root</text>
</g>
<!-- Node19&#45;&gt;Node10 -->
<g id="edge82" class="edge"><title>Node19&#45;&gt;Node10</title>
<path fill="none" stroke="#9a32cd" stroke-dasharray="5,2" d="M550.895,-442.664C626.861,-423.853 789.525,-381.288 922,-331 930.159,-327.903 938.95,-324.021 946.514,-320.504"/>
<polygon fill="#9a32cd" stroke="#9a32cd" points="549.637,-439.369 540.764,-445.159 551.311,-446.166 549.637,-439.369"/>
<text text-anchor="middle" x="745" y="-413" font-family="Helvetica,sans-Serif" font-size="10.00"> listener</text>
<text text-anchor="middle" x="745" y="-402" font-family="Helvetica,sans-Serif" font-size="10.00">proxy_listener</text>
</g>
<!-- Node19&#45;&gt;Node18 -->
<g id="edge58" class="edge"><title>Node19&#45;&gt;Node18</title>
<path fill="none" stroke="#9a32cd" stroke-dasharray="5,2" d="M550.928,-454.16C572.234,-454.736 597.739,-455.425 618.285,-455.981"/>
<polygon fill="#9a32cd" stroke="#9a32cd" points="550.937,-450.659 540.846,-453.888 550.748,-457.657 550.937,-450.659"/>
<text text-anchor="middle" x="581" y="-458" font-family="Helvetica,sans-Serif" font-size="10.00"> listen</text>
</g>
<!-- Node19&#45;&gt;Node19 -->
<g id="edge60" class="edge"><title>Node19&#45;&gt;Node19</title>
<path fill="none" stroke="#9a32cd" stroke-dasharray="5,2" d="M493.372,-472.766C494.443,-477.497 498.985,-481 507,-481 520.152,-481 523.954,-471.565 518.406,-462.757"/>
<polygon fill="#9a32cd" stroke="#9a32cd" points="496.844,-473.278 495.594,-462.757 490.01,-471.761 496.844,-473.278"/>
<text text-anchor="middle" x="507" y="-539" font-family="Helvetica,sans-Serif" font-size="10.00"> next</text>
<text text-anchor="middle" x="507" y="-528" font-family="Helvetica,sans-Serif" font-size="10.00">encode</text>
<text text-anchor="middle" x="507" y="-517" font-family="Helvetica,sans-Serif" font-size="10.00">recv</text>
<text text-anchor="middle" x="507" y="-506" font-family="Helvetica,sans-Serif" font-size="10.00">print</text>
<text text-anchor="middle" x="507" y="-495" font-family="Helvetica,sans-Serif" font-size="10.00">send</text>
<text text-anchor="middle" x="507" y="-484" font-family="Helvetica,sans-Serif" font-size="10.00">decode</text>
</g>
<!-- Node20&#45;&gt;Node10 -->
<g id="edge68" class="edge"><title>Node20&#45;&gt;Node10</title>
<path fill="none" stroke="#9a32cd" stroke-dasharray="5,2" d="M705.911,-48.9416C751.616,-45.2238 821.392,-45.028 876,-69 967.119,-109 967.885,-261.612 966.481,-301.445"/>
<polygon fill="#9a32cd" stroke="#9a32cd" points="705.332,-45.4796 695.687,-49.8648 705.961,-52.4512 705.332,-45.4796"/>
<text text-anchor="middle" x="835" y="-105" font-family="Helvetica,sans-Serif" font-size="10.00"> reply</text>
<text text-anchor="middle" x="835" y="-94" font-family="Helvetica,sans-Serif" font-size="10.00">proxy_reply</text>
<text text-anchor="middle" x="835" y="-83" font-family="Helvetica,sans-Serif" font-size="10.00">proxy</text>
<text text-anchor="middle" x="835" y="-72" font-family="Helvetica,sans-Serif" font-size="10.00">packet</text>
</g>
<!-- Node21 -->
<g id="node55" class="node"><title>Node21</title>
<a xlink:href="structvalue__pair.html" target="_top" xlink:title="value_pair">
<polygon fill="none" stroke="black" points="476.5,-0.5 476.5,-19.5 537.5,-19.5 537.5,-0.5 476.5,-0.5"/>
<text text-anchor="middle" x="507" y="-7.5" font-family="Helvetica,sans-Serif" font-size="10.00">value_pair</text>
</a>
</g>
<!-- Node21&#45;&gt;Node10 -->
<g id="edge90" class="edge"><title>Node21&#45;&gt;Node10</title>
<path fill="none" stroke="#9a32cd" stroke-dasharray="5,2" d="M547.881,-6.05648C600.551,-1.77787 695.991,2.75081 776,-11 822.408,-18.9759 833.908,-24.8914 876,-46 898.038,-57.0517 908.452,-56.4029 922,-77 947.159,-115.248 961.721,-262.489 965.189,-301.48"/>
<polygon fill="#9a32cd" stroke="#9a32cd" points="547.29,-2.59412 537.623,-6.93117 547.884,-9.56881 547.29,-2.59412"/>
<text text-anchor="middle" x="745" y="-36" font-family="Helvetica,sans-Serif" font-size="10.00"> password</text>
<text text-anchor="middle" x="745" y="-25" font-family="Helvetica,sans-Serif" font-size="10.00">config_items</text>
<text text-anchor="middle" x="745" y="-14" font-family="Helvetica,sans-Serif" font-size="10.00">username</text>
</g>
<!-- Node21&#45;&gt;Node20 -->
<g id="edge70" class="edge"><title>Node21&#45;&gt;Node20</title>
<path fill="none" stroke="#9a32cd" stroke-dasharray="5,2" d="M547.2,-21.9188C571.417,-29.2823 602.074,-38.6036 624.669,-45.4736"/>
<polygon fill="#9a32cd" stroke="#9a32cd" points="548.18,-18.5587 537.594,-18.9983 546.144,-25.256 548.18,-18.5587"/>
<text text-anchor="middle" x="581" y="-41" font-family="Helvetica,sans-Serif" font-size="10.00"> vps</text>
</g>
<!-- Node21&#45;&gt;Node21 -->
<g id="edge76" class="edge"><title>Node21&#45;&gt;Node21</title>
<path fill="none" stroke="#9a32cd" stroke-dasharray="5,2" d="M493.372,-29.7663C494.443,-34.4965 498.985,-38 507,-38 520.152,-38 523.954,-28.5653 518.406,-19.7571"/>
<polygon fill="#9a32cd" stroke="#9a32cd" points="496.844,-30.2779 495.594,-19.7571 490.01,-28.7609 496.844,-30.2779"/>
<text text-anchor="middle" x="507" y="-41" font-family="Helvetica,sans-Serif" font-size="10.00"> next</text>
</g>
<!-- Node22&#45;&gt;Node21 -->
<g id="edge72" class="edge"><title>Node22&#45;&gt;Node21</title>
<path fill="none" stroke="#9a32cd" stroke-dasharray="5,2" d="M383.431,-49.343C412.133,-40.1302 450.386,-27.8513 476.475,-19.4771"/>
<polygon fill="#9a32cd" stroke="#9a32cd" points="382.165,-46.0735 373.713,-52.4624 384.305,-52.7386 382.165,-46.0735"/>
<text text-anchor="middle" x="429" y="-44" font-family="Helvetica,sans-Serif" font-size="10.00"> data</text>
</g>
<!-- Node23 -->
<g id="node61" class="node"><title>Node23</title>
<a xlink:href="structattr__flags.html" target="_top" xlink:title="attr_flags">
<polygon fill="none" stroke="black" points="314.5,-0.5 314.5,-19.5 371.5,-19.5 371.5,-0.5 314.5,-0.5"/>
<text text-anchor="middle" x="343" y="-7.5" font-family="Helvetica,sans-Serif" font-size="10.00">attr_flags</text>
</a>
</g>
<!-- Node23&#45;&gt;Node21 -->
<g id="edge78" class="edge"><title>Node23&#45;&gt;Node21</title>
<path fill="none" stroke="#9a32cd" stroke-dasharray="5,2" d="M381.954,-10C410.754,-10 449.787,-10 476.324,-10"/>
<polygon fill="#9a32cd" stroke="#9a32cd" points="381.849,-6.5001 371.849,-10 381.849,-13.5001 381.849,-6.5001"/>
<text text-anchor="middle" x="429" y="-13" font-family="Helvetica,sans-Serif" font-size="10.00"> flags</text>
</g>
<!-- Node24 -->
<g id="node70" class="node"><title>Node24</title>
<a xlink:href="structrequest__data__t.html" target="_top" xlink:title="request_data_t">
<polygon fill="none" stroke="black" points="794.5,-486.5 794.5,-505.5 875.5,-505.5 875.5,-486.5 794.5,-486.5"/>
<text text-anchor="middle" x="835" y="-493.5" font-family="Helvetica,sans-Serif" font-size="10.00">request_data_t</text>
</a>
</g>
<!-- Node24&#45;&gt;Node10 -->
<g id="edge94" class="edge"><title>Node24&#45;&gt;Node10</title>
<path fill="none" stroke="#9a32cd" stroke-dasharray="5,2" d="M885.888,-490.479C899.096,-486.806 912.346,-480.795 922,-471 964.265,-428.116 966.846,-348.611 966.369,-320.863"/>
<polygon fill="#9a32cd" stroke="#9a32cd" points="884.78,-487.144 875.856,-492.855 886.394,-493.956 884.78,-487.144"/>
<text text-anchor="middle" x="908" y="-490" font-family="Helvetica,sans-Serif" font-size="10.00"> data</text>
</g>
<!-- Node24&#45;&gt;Node24 -->
<g id="edge96" class="edge"><title>Node24&#45;&gt;Node24</title>
<path fill="none" stroke="#9a32cd" stroke-dasharray="5,2" d="M821.741,-515.766C822.782,-520.497 827.202,-524 835,-524 847.797,-524 851.496,-514.565 846.097,-505.757"/>
<polygon fill="#9a32cd" stroke="#9a32cd" points="825.212,-516.271 823.903,-505.757 818.37,-514.793 825.212,-516.271"/>
<text text-anchor="middle" x="835" y="-527" font-family="Helvetica,sans-Serif" font-size="10.00"> next</text>
</g>
</g>
</svg>
        <g id="navigator" transform="translate(0 0)" fill="#404254">
                <rect fill="#f2f5e9" fill-opacity="0.5" stroke="#606060" stroke-width=".5" x="0" y="0" width="60" height="60"/>
                <use id="zoomplus" xlink:href="#zoomPlus" x="17" y="9" onmousedown="handleZoom(evt,'in')"/>
                <use id="zoomminus" xlink:href="#zoomMin" x="42" y="9" onmousedown="handleZoom(evt,'out')"/>
                <use id="reset" xlink:href="#resetDef" x="30" y="36" onmousedown="handleReset()"/>
                <g id="arrowUp" xlink:href="#dirArrow" transform="translate(30 24)" onmousedown="handlePan(0,-1)">
                  <use xlink:href="#rim" fill="#404040">
                        <set attributeName="fill" to="#808080" begin="arrowUp.mouseover" end="arrowUp.mouseout"/>
                  </use>
                  <path fill="none" stroke="white" stroke-width="1.5" d="M0,-3.0v7 M-2.5,-0.5L0,-3.0L2.5,-0.5"/>
                </g>
                <g id="arrowRight" xlink:href="#dirArrow" transform="rotate(90) translate(36 -43)" onmousedown="handlePan(1,0)">
                  <use xlink:href="#rim" fill="#404040">
                        <set attributeName="fill" to="#808080" begin="arrowRight.mouseover" end="arrowRight.mouseout"/>
                  </use>
                  <path fill="none" stroke="white" stroke-width="1.5" d="M0,-3.0v7 M-2.5,-0.5L0,-3.0L2.5,-0.5"/>
                </g>
                <g id="arrowDown" xlink:href="#dirArrow" transform="rotate(180) translate(-30 -48)" onmousedown="handlePan(0,1)">
                  <use xlink:href="#rim" fill="#404040">
                        <set attributeName="fill" to="#808080" begin="arrowDown.mouseover" end="arrowDown.mouseout"/>
                  </use>
                  <path fill="none" stroke="white" stroke-width="1.5" d="M0,-3.0v7 M-2.5,-0.5L0,-3.0L2.5,-0.5"/>
                </g>
                <g id="arrowLeft" xlink:href="#dirArrow" transform="rotate(270) translate(-36 17)" onmousedown="handlePan(-1,0)">
                  <use xlink:href="#rim" fill="#404040">
                        <set attributeName="fill" to="#808080" begin="arrowLeft.mouseover" end="arrowLeft.mouseout"/>
                  </use>
                  <path fill="none" stroke="white" stroke-width="1.5" d="M0,-3.0v7 M-2.5,-0.5L0,-3.0L2.5,-0.5"/>
                </g>
        </g>
</svg>
